<svg width="319" height="133" viewBox="0 0 319 133" fill="none" xmlns="http://www.w3.org/2000/svg">
<g clip-path="url(#clip0_5660_16085)">
<path d="M0 16C0 7.16345 7.16344 0 16 0H302.333C311.17 0 318.333 7.16344 318.333 16V117C318.333 125.837 311.17 133 302.333 133H16C7.16347 133 0 125.837 0 117V16Z" fill="#242425"/>
<path d="M97.8475 522.583C123.99 487.526 175.361 383.504 226.18 377.823C256.834 374.477 273.621 390.065 300.788 376.961C360.234 348.411 372.708 265.111 436.04 245.269C458.504 238.285 487.576 240.011 507.305 227.62C534.576 210.552 552.631 166.821 571.197 142.19" stroke="url(#paint0_angular_5660_16085)" stroke-width="2" stroke-miterlimit="10"/>
<path d="M79.6365 503.515C108.407 468.172 138.406 433.781 166.726 398.114C181.049 380.074 194.29 349.094 218.922 347.276C242.523 345.638 261.568 361.81 284.585 357.104C351.736 343.408 353.65 250.157 411.631 230.812C432.693 223.758 460.321 230.224 480.404 219.048C511.272 201.877 533.416 150.094 553.362 123.279" stroke="url(#paint1_angular_5660_16085)" stroke-width="2" stroke-miterlimit="10"/>
<path d="M60.9397 483.855C93.8255 447.089 128.558 411.702 160.045 373.808C173.263 357.975 191.552 318.579 212.395 317.113C232.004 315.76 250.275 333.982 269.432 333.946C338.825 333.767 339.47 237.268 386.827 215.25C403.47 207.503 434.016 218.164 452.847 209.004C487.209 192.303 513.489 132.264 534.738 103.578" stroke="url(#paint2_angular_5660_16085)" stroke-width="2" stroke-miterlimit="10"/>
<path d="M42.6475 464.447C79.7606 427.082 118.728 391.139 153.878 352.06C166.011 338.536 189.987 291.941 206.537 289.996C224.85 287.845 238.392 306.279 255.502 308.271C280.12 311.193 304.396 289.013 318.312 273.982C335.423 255.514 339.743 211.393 363.262 199.427C376.147 192.861 408.882 204.127 425.644 196.868C463.02 180.772 493.599 114.278 516.217 84.1652" stroke="url(#paint3_angular_5660_16085)" stroke-width="2" stroke-miterlimit="10"/>
<path d="M24.1804 444.796C65.0853 407.793 108.056 372.325 146.024 332.56C157.568 320.507 184.739 268.468 198.355 265.457C216.816 261.439 224.266 276.095 241.94 279.759C267.538 285.181 290.368 270.949 305.445 255.671C321.709 239.054 321.317 193.765 340.733 182.239C349.805 176.834 385.76 187.218 399.641 181.875C440.083 166.351 473.292 95.9386 497.359 64.4589" stroke="url(#paint4_angular_5660_16085)" stroke-width="2" stroke-miterlimit="10"/>
<path d="M6.22711 425.503C50.3535 390.295 96.5466 356.556 136.638 317.298C153.498 301.001 170.371 256.828 188.025 246.427C207.548 234.825 204.984 244.23 228.413 248.899C254.633 254.148 275.178 251.393 292.794 235.059C311.491 217.779 302.854 176.844 320.301 164.049C326.918 159.177 363.606 166.196 374.624 162.326C417.736 146.703 452.348 77.6128 478.574 45.016" stroke="url(#paint5_angular_5660_16085)" stroke-width="2" stroke-miterlimit="10"/>
<path d="M-11.7684 406.341C32.2449 372.221 77.9827 339.252 118.071 301.122C138.962 281.242 150.407 247.789 170.863 230.241C189.542 214.203 189.774 220.408 215.264 223.88C240.755 227.353 259.505 228.638 277.613 212.649C298.173 194.495 285.272 158.438 302.323 144.385C307.971 139.83 344.253 144.204 354.155 140.216C397.223 122.97 431.999 58.1741 459.833 25.443" stroke="url(#paint6_angular_5660_16085)" stroke-width="2" stroke-miterlimit="10"/>
<path d="M-30.3741 386.634C12.0849 353.023 56.0384 320.466 94.8509 283.168C115.631 263.181 127.611 230.755 148.594 212.979C167.189 197.361 171.607 201.42 197.335 203.149C222.364 204.829 241.248 206.296 259.187 190.709C280.635 172.06 266.502 137.219 284.049 122.331C289.471 117.687 325.988 121.247 336.098 116.728C378.218 97.8345 411.215 36.9542 439.765 4.337" stroke="url(#paint7_angular_5660_16085)" stroke-width="2" stroke-miterlimit="10"/>
<path d="M-48.3987 367.397C-7.83945 334.627 34.4187 302.697 71.3286 266.199C91.3797 246.183 104.642 215.173 125.743 197.857C143.813 183.028 150.845 185.206 175.648 184.85C200.452 184.495 220.161 184.478 238.251 169.099C260.912 149.836 247.847 115.987 266.689 99.9625C272.976 94.6157 307.897 97.1866 318.741 91.4769C359.206 70.5711 390.321 15.2559 419.395 -16.9713" stroke="url(#paint8_angular_5660_16085)" stroke-width="2" stroke-miterlimit="10"/>
<path d="M-65.4306 349.144C-26.9598 317.145 12.932 285.985 48.2265 250.854C67.8575 231.214 81.5928 201.752 102.672 184.729C119.759 170.9 128.324 171.471 151.448 169.075C176.675 166.478 197.474 164.088 216.073 148.622C240.282 128.503 229.738 95.0195 250.688 77.5757C258.614 71.1607 290.591 72.7422 302.788 65.4218C340.936 42.7628 370.023 -6.47765 399.289 -37.9294" stroke="url(#paint9_angular_5660_16085)" stroke-width="2" stroke-miterlimit="10"/>
<path d="M-82.8751 330.517C-46.5975 299.535 -9.21634 269.241 24.1578 235.445C43.1572 216.191 56.8511 188.011 77.6527 171.422C93.4815 158.826 102.924 157.96 124.194 154.218C150.328 149.62 173.324 144.75 192.842 128.893C218.874 107.796 210.878 72.7069 234.234 53.8178C244.003 45.9006 273.859 47.5786 287.402 38.4543C322.976 14.5601 349.44 -29.4072 378.312 -59.8629" stroke="url(#paint10_angular_5660_16085)" stroke-width="2" stroke-miterlimit="10"/>
<path d="M-100.322 311.771C-66.3009 282.064 -31.599 252.784 -0.0645072 220.694C18.2941 202.018 32.3695 175.831 52.6893 159.739C66.9662 148.405 76.5549 145.922 95.2946 140.786C122.019 133.491 146.978 125.674 167.754 109.023C195.784 86.5926 192.466 50.4855 218.643 30.0489C230.498 20.72 257.382 21.8772 272.191 10.5628C304.621 -14.1626 329.227 -52.7047 357.409 -81.582" stroke="url(#paint11_angular_5660_16085)" stroke-width="2" stroke-miterlimit="10"/>
<path d="M-117.462 293.397C-67.2627 248.742 -24.6993 190.597 27.405 148.72C40.0235 138.449 49.5804 134.657 65.9106 128.769C93.5372 118.623 120.745 108.324 143.155 90.5769C172.793 67.1375 174.446 27.1422 203.409 5.99812C217.968 -4.63646 241.776 -3.09494 257.905 -16.9445C287.096 -41.9945 309.605 -76.0707 336.637 -103.236" stroke="url(#paint12_angular_5660_16085)" stroke-width="2" stroke-miterlimit="10"/>
<path d="M-136.213 273.52C-80.0138 223.082 -33.254 152.443 35.3477 116.483C63.12 101.925 92.5351 90.4067 116.948 71.2255C142.936 50.7986 159.364 -3.56617 188.018 -18.9164C208.073 -29.6186 225.226 -28.2814 243.08 -45.3591C269.114 -70.2387 289.8 -100.072 315.654 -125.319" stroke="url(#paint13_angular_5660_16085)" stroke-width="2" stroke-miterlimit="10"/>
<path d="M-154.257 254.505C-100.704 206.119 -56.5584 144.034 5.78781 105.167C34.1628 87.4495 66.0964 74.4191 92.428 53.9931C120.483 32.0482 141.172 -27.8911 173.041 -43.8474C195.163 -54.8892 211.503 -52.9061 229.455 -72.2384C252.443 -96.984 270.484 -123.546 294.989 -147.205" stroke="url(#paint14_angular_5660_16085)" stroke-width="2" stroke-miterlimit="10"/>
<path d="M-172.953 234.773C-121.641 189.102 -75.8933 135.503 -21.6137 94.7934C6.66028 73.6069 40.185 58.5199 68.0052 36.6801C97.7276 13.3649 125.547 -50.8073 159.52 -67.3546C183.177 -78.8666 198.06 -76.516 216.131 -97.8724C236.746 -122.212 252.552 -144.938 276.141 -167.096" stroke="url(#paint15_angular_5660_16085)" stroke-width="2" stroke-miterlimit="10"/>
<path d="M-190.944 215.85C-142.556 172.707 -101.479 121.526 -49.1823 83.933C-18.8254 62.1097 16.6078 46.0589 45.9337 22.6932C79.6797 -4.1927 106.4 -71.8508 145.823 -90.6936C170.054 -102.281 185.032 -101.01 202.941 -122.458C222.047 -145.333 235.233 -166.113 257.454 -186.874" stroke="url(#paint16_angular_5660_16085)" stroke-width="2" stroke-miterlimit="10"/>
<path d="M-207.57 198.475C-162.521 154.711 -137.722 97.5088 -77.8038 70.4213C-40.3748 53.4131 -4.71118 35.3107 26.778 10.5616C70.3167 -23.6361 81.2093 -87.6167 131.079 -114.844C152.593 -126.584 171.212 -129.634 188.827 -147.376C207.374 -166.216 222.311 -185.256 242.449 -202.935" stroke="url(#paint17_angular_5660_16085)" stroke-width="2" stroke-miterlimit="10"/>
<path d="M-224.229 181.285C-196.163 151.147 -183.045 94.7121 -149.455 70.3682C-135.78 60.4443 -121.032 59.067 -103.418 54.071C-61.0975 41.7723 -22.9884 21.5809 8.88953 -5.43313C55.7293 -44.3231 59.0911 -110.465 113.164 -142.35C154.067 -166.499 191.006 -188.995 229.017 -217.623" stroke="url(#paint18_angular_5660_16085)" stroke-width="2" stroke-miterlimit="10"/>
<path d="M-239.076 166.181C-219.647 142.847 -212.29 122.606 -201.76 95.165C-195.543 78.9514 -194.358 58.0448 -179.207 47.3681C-163.668 36.4166 -145.592 39.4576 -124.706 36.705C-76.7043 30.3209 -38.0935 7.64146 -5.33376 -21.3335C42.1618 -63.4517 37.3802 -136.909 93.3285 -170.991C131.64 -194.197 178.825 -206.714 217.802 -230.263" stroke="url(#paint19_angular_5660_16085)" stroke-width="2" stroke-miterlimit="10"/>
<path d="M-254.876 150.14C-235.153 125.51 -229.009 107.058 -222.648 76.7244C-219.105 59.9338 -219.82 29.0175 -202.539 19.2122C-188.474 11.2527 -169.901 16.6776 -152.366 17.1C-91.0474 18.6437 -31.3444 -12.5185 -2.74181 -57.8729C23.1317 -98.913 25.5805 -155.048 62.1099 -187.403C98.6393 -219.759 160.663 -220.983 206.466 -243.159" stroke="url(#paint20_angular_5660_16085)" stroke-width="2" stroke-miterlimit="10"/>
<path d="M-271.853 132.696C-250.043 105.461 -245.117 87.7328 -240.528 53.8705C-238.273 37.7014 -241.603 2.7575 -224.506 -6.95655C-207.744 -16.5175 -189.123 -6.47666 -169.035 -4.06204C-104.227 3.77368 -43.3828 -27.7053 -16.0726 -76.4311C7.68288 -119.011 5.45157 -180.57 41.3613 -214.046C79.1711 -249.272 143.713 -236.997 193.411 -257.644" stroke="url(#paint21_angular_5660_16085)" stroke-width="2" stroke-miterlimit="10"/>
<path d="M-289.793 114.191C-266.049 85.4034 -260.727 67.1409 -256.439 30.7369C-254.594 15.2081 -259.25 -24.4995 -242.779 -34.3242C-223.783 -45.5787 -204.639 -31.2103 -182.765 -26.4187C-116.77 -11.8734 -54.6992 -43.9266 -29.6889 -93.662C-7.7718 -137.231 -14.3877 -203.219 20.0216 -237.785C57.9347 -275.808 125.85 -253.565 178.694 -273.781" stroke="url(#paint22_angular_5660_16085)" stroke-width="2" stroke-miterlimit="10"/>
<path d="M-309.027 93.8986C-286.889 66.7369 -275.6 44.1309 -271.631 8.21875C-269.883 -7.48184 -272.641 -51.9095 -257.82 -62.8678C-239.065 -76.7674 -216.438 -56.0557 -195.17 -50.7507C-135.039 -35.7679 -73.0645 -70.3232 -50.1399 -113.355C-27.2153 -156.387 -34.2209 -221.56 -1.88116 -257.089C36.9109 -299.712 106.027 -272.633 162.698 -290.836" stroke="url(#paint23_angular_5660_16085)" stroke-width="2" stroke-miterlimit="10"/>
<path d="M-328.805 73.0367C-306.431 46.1159 -292.549 21.1479 -285.849 -14.0186C-282.952 -29.1046 -284.856 -79.9008 -270.85 -91.0245C-250.87 -106.949 -227.996 -83.2364 -205.669 -77.3414C-151.739 -63.1956 -92.9544 -92.3001 -71.1122 -130.487C-47.0768 -172.518 -53.6625 -233.719 -23.7624 -270.949C16.4137 -320.757 85.3635 -290.504 146.768 -307.832" stroke="url(#paint24_angular_5660_16085)" stroke-width="2" stroke-miterlimit="10"/>
<path d="M-347.756 53.0396C-323.555 25.3724 -306.232 -2.10795 -296.72 -38.4719C-291.397 -58.8004 -295.23 -99.4023 -281.818 -113.132C-259.789 -135.719 -237.079 -112.815 -206.006 -106.315C-186.43 -102.053 -167.012 -101.931 -149.253 -105.959C-131.494 -109.988 -115.871 -118.058 -103.592 -129.545C-56.8902 -172.776 -78.9771 -243.612 -41.4963 -289.967C-4.93326 -335.163 75.9034 -308.944 130.85 -324.593" stroke="url(#paint25_angular_5660_16085)" stroke-width="2" stroke-miterlimit="10"/>
<path d="M-366.284 33.5056C-340.192 7.35932 -318.83 -19.8119 -305.991 -54.925C-297.564 -78.125 -301.373 -115.242 -287.823 -133.94C-267.013 -162.682 -244.625 -145.178 -209.751 -137.36C-176.122 -129.864 -145.13 -126.339 -119.947 -145.494C-74.2505 -180.194 -94.0641 -247.373 -63.5686 -290.299C-27.3997 -341.193 57.3321 -320.949 113.649 -342.649" stroke="url(#paint26_angular_5660_16085)" stroke-width="2" stroke-miterlimit="10"/>
</g>
<defs>
<radialGradient id="paint0_angular_5660_16085" cx="0" cy="0" r="1" gradientUnits="userSpaceOnUse" gradientTransform="translate(329.747 327.434) rotate(-133.956) scale(33.9378 302.393)">
<stop stop-color="#242425"/>
<stop offset="1" stop-color="#BAFF99"/>
</radialGradient>
<radialGradient id="paint1_angular_5660_16085" cx="0" cy="0" r="1" gradientUnits="userSpaceOnUse" gradientTransform="translate(312.869 309.633) rotate(-133.969) scale(35.2373 302.467)">
<stop stop-color="#242425"/>
<stop offset="1" stop-color="#BAFF99"/>
</radialGradient>
<radialGradient id="paint2_angular_5660_16085" cx="0" cy="0" r="1" gradientUnits="userSpaceOnUse" gradientTransform="translate(295.526 291.319) rotate(-133.976) scale(35.8879 302.504)">
<stop stop-color="#242425"/>
<stop offset="1" stop-color="#BAFF99"/>
</radialGradient>
<radialGradient id="paint3_angular_5660_16085" cx="0" cy="0" r="1" gradientUnits="userSpaceOnUse" gradientTransform="translate(278.667 273.513) rotate(-133.963) scale(34.5873 302.43)">
<stop stop-color="#242425"/>
<stop offset="1" stop-color="#BAFF99"/>
</radialGradient>
<radialGradient id="paint4_angular_5660_16085" cx="0" cy="0" r="1" gradientUnits="userSpaceOnUse" gradientTransform="translate(261.335 255.214) rotate(-133.943) scale(32.6407 302.318)">
<stop stop-color="#242425"/>
<stop offset="1" stop-color="#BAFF99"/>
</radialGradient>
<radialGradient id="paint5_angular_5660_16085" cx="0" cy="0" r="1" gradientUnits="userSpaceOnUse" gradientTransform="translate(244.473 237.413) rotate(-133.902) scale(28.7638 302.089)">
<stop stop-color="#242425"/>
<stop offset="1" stop-color="#BAFF99"/>
</radialGradient>
<radialGradient id="paint6_angular_5660_16085" cx="0" cy="0" r="1" gradientUnits="userSpaceOnUse" gradientTransform="translate(227.126 219.109) rotate(-133.88) scale(26.8341 301.973)">
<stop stop-color="#242425"/>
<stop offset="1" stop-color="#BAFF99"/>
</radialGradient>
<radialGradient id="paint7_angular_5660_16085" cx="0" cy="0" r="1" gradientUnits="userSpaceOnUse" gradientTransform="translate(207.791 198.706) rotate(-133.872) scale(26.1921 301.934)">
<stop stop-color="#242425"/>
<stop offset="1" stop-color="#BAFF99"/>
</radialGradient>
<radialGradient id="paint8_angular_5660_16085" cx="0" cy="0" r="1" gradientUnits="userSpaceOnUse" gradientTransform="translate(188.444 178.28) rotate(-133.849) scale(24.2706 301.816)">
<stop stop-color="#242425"/>
<stop offset="1" stop-color="#BAFF99"/>
</radialGradient>
<radialGradient id="paint9_angular_5660_16085" cx="0" cy="0" r="1" gradientUnits="userSpaceOnUse" gradientTransform="translate(169.606 158.397) rotate(-133.818) scale(21.7185 301.657)">
<stop stop-color="#242425"/>
<stop offset="1" stop-color="#BAFF99"/>
</radialGradient>
<radialGradient id="paint10_angular_5660_16085" cx="0" cy="0" r="1" gradientUnits="userSpaceOnUse" gradientTransform="translate(150.266 137.984) rotate(-133.792) scale(19.8124 301.535)">
<stop stop-color="#242425"/>
<stop offset="1" stop-color="#BAFF99"/>
</radialGradient>
<radialGradient id="paint11_angular_5660_16085" cx="0" cy="0" r="1" gradientUnits="userSpaceOnUse" gradientTransform="translate(130.913 117.57) rotate(-133.749) scale(16.6516 301.329)">
<stop stop-color="#242425"/>
<stop offset="1" stop-color="#BAFF99"/>
</radialGradient>
<radialGradient id="paint12_angular_5660_16085" cx="0" cy="0" r="1" gradientUnits="userSpaceOnUse" gradientTransform="translate(112.09 97.6987) rotate(-133.711) scale(14.1383 301.16)">
<stop stop-color="#242425"/>
<stop offset="1" stop-color="#BAFF99"/>
</radialGradient>
<radialGradient id="paint13_angular_5660_16085" cx="0" cy="0" r="1" gradientUnits="userSpaceOnUse" gradientTransform="translate(90.7609 75.1894) rotate(-133.702) scale(13.5122 301.118)">
<stop stop-color="#242425"/>
<stop offset="1" stop-color="#BAFF99"/>
</radialGradient>
<radialGradient id="paint14_angular_5660_16085" cx="0" cy="0" r="1" gradientUnits="userSpaceOnUse" gradientTransform="translate(70.4422 53.73) rotate(-133.711) scale(14.1383 301.16)">
<stop stop-color="#242425"/>
<stop offset="1" stop-color="#BAFF99"/>
</radialGradient>
<radialGradient id="paint15_angular_5660_16085" cx="0" cy="0" r="1" gradientUnits="userSpaceOnUse" gradientTransform="translate(51.594 33.8384) rotate(-133.711) scale(14.1383 301.16)">
<stop stop-color="#242425"/>
<stop offset="1" stop-color="#BAFF99"/>
</radialGradient>
<radialGradient id="paint16_angular_5660_16085" cx="0" cy="0" r="1" gradientUnits="userSpaceOnUse" gradientTransform="translate(33.2548 14.4882) rotate(-133.721) scale(14.7653 301.203)">
<stop stop-color="#242425"/>
<stop offset="1" stop-color="#BAFF99"/>
</radialGradient>
<radialGradient id="paint17_angular_5660_16085" cx="0" cy="0" r="1" gradientUnits="userSpaceOnUse" gradientTransform="translate(16.9081 -2.78487) rotate(-133.749) scale(16.6516 301.329)">
<stop stop-color="#242425"/>
<stop offset="1" stop-color="#BAFF99"/>
</radialGradient>
<radialGradient id="paint18_angular_5660_16085" cx="0" cy="0" r="1" gradientUnits="userSpaceOnUse" gradientTransform="translate(-2.43527 -23.2033) rotate(-133.809) scale(21.0824 301.616)">
<stop stop-color="#242425"/>
<stop offset="1" stop-color="#BAFF99"/>
</radialGradient>
<radialGradient id="paint19_angular_5660_16085" cx="0" cy="0" r="1" gradientUnits="userSpaceOnUse" gradientTransform="translate(-21.781 -43.6235) rotate(-133.895) scale(28.1199 302.051)">
<stop stop-color="#242425"/>
<stop offset="1" stop-color="#BAFF99"/>
</radialGradient>
<radialGradient id="paint20_angular_5660_16085" cx="0" cy="0" r="1" gradientUnits="userSpaceOnUse" gradientTransform="translate(-41.0925 -64.0078) rotate(-133.982) scale(36.5391 302.541)">
<stop stop-color="#242425"/>
<stop offset="1" stop-color="#BAFF99"/>
</radialGradient>
<radialGradient id="paint21_angular_5660_16085" cx="0" cy="0" r="1" gradientUnits="userSpaceOnUse" gradientTransform="translate(-59.9496 -83.9089) rotate(-134.041) scale(43.08 302.903)">
<stop stop-color="#242425"/>
<stop offset="1" stop-color="#BAFF99"/>
</radialGradient>
<radialGradient id="paint22_angular_5660_16085" cx="0" cy="0" r="1" gradientUnits="userSpaceOnUse" gradientTransform="translate(-78.2971 -103.279) rotate(-134.088) scale(49.0086 303.218)">
<stop stop-color="#242425"/>
<stop offset="1" stop-color="#BAFF99"/>
</radialGradient>
<radialGradient id="paint23_angular_5660_16085" cx="0" cy="0" r="1" gradientUnits="userSpaceOnUse" gradientTransform="translate(-99.6209 -125.776) rotate(-134.093) scale(49.6696 303.253)">
<stop stop-color="#242425"/>
<stop offset="1" stop-color="#BAFF99"/>
</radialGradient>
<radialGradient id="paint24_angular_5660_16085" cx="0" cy="0" r="1" gradientUnits="userSpaceOnUse" gradientTransform="translate(-119.939 -147.243) rotate(-134.098) scale(50.3311 303.287)">
<stop stop-color="#242425"/>
<stop offset="1" stop-color="#BAFF99"/>
</radialGradient>
<radialGradient id="paint25_angular_5660_16085" cx="0" cy="0" r="1" gradientUnits="userSpaceOnUse" gradientTransform="translate(-137.295 -165.546) rotate(-134.093) scale(49.6696 303.253)">
<stop stop-color="#242425"/>
<stop offset="1" stop-color="#BAFF99"/>
</radialGradient>
<radialGradient id="paint26_angular_5660_16085" cx="0" cy="0" r="1" gradientUnits="userSpaceOnUse" gradientTransform="translate(-152.664 -181.77) rotate(-134.088) scale(49.0086 303.218)">
<stop stop-color="#242425"/>
<stop offset="1" stop-color="#BAFF99"/>
</radialGradient>
<clipPath id="clip0_5660_16085">
<path d="M0 16C0 7.16345 7.16344 0 16 0H302.333C311.17 0 318.333 7.16344 318.333 16V117C318.333 125.837 311.17 133 302.333 133H16C7.16347 133 0 125.837 0 117V16Z" fill="white"/>
</clipPath>
</defs>
</svg>
