<svg width="56" height="56" viewBox="0 0 56 56" fill="none" xmlns="http://www.w3.org/2000/svg">
<path d="M27.5535 12.3091L23.4462 16.4164C23.0199 16.8427 23.0199 17.5107 23.4462 17.9229L24.1853 18.6619C24.6116 19.0882 25.2796 19.0882 25.6917 18.6619L28.321 16.0327L30.9502 18.6619C31.3765 19.0882 32.0445 19.0882 32.4566 18.6619L33.1957 17.9229C33.622 17.4965 33.622 16.8285 33.1957 16.4164L29.06 12.3091C28.6478 11.897 27.9799 11.897 27.5535 12.3091Z" fill="#BCBCC0"/>
<path d="M40.3237 28.0672C39.8973 27.6409 39.8973 26.9729 40.3237 26.5607L41.0627 25.8217C41.4891 25.3954 42.1428 25.3954 42.5692 25.8217L43.3082 26.5607C43.7346 26.9871 43.7346 27.6551 43.3082 28.0672L42.5692 28.8062C42.1428 29.2326 41.4749 29.2326 41.0627 28.8062L40.3237 28.0672Z" fill="#BCBCC0"/>
<path d="M13.3198 34.8031C12.8934 34.3767 12.8934 33.7087 13.3198 33.2966L14.0588 32.5576C14.4852 32.1312 15.1531 32.1312 15.5653 32.5576L16.3043 33.2966C16.7307 33.7229 16.7307 34.3909 16.3043 34.8031L15.5653 35.5421C15.1389 35.9684 14.4709 35.9684 14.0588 35.5421L13.3198 34.8031Z" fill="#BCBCC0"/>
<path d="M33.5576 21.3087C33.1312 20.8823 33.1312 20.2144 33.5576 19.8022L34.2966 19.0632C34.7229 18.6368 35.3767 18.6368 35.8031 19.0632L36.5421 19.8022C36.9684 20.2286 36.9684 20.8965 36.5421 21.3087L35.8031 22.0761C35.3767 22.5025 34.7087 22.5025 34.2966 22.0761L33.5576 21.3087Z" fill="#BCBCC0"/>
<path d="M14.0615 40.8153C13.6351 40.389 13.6351 39.7352 14.0615 39.3089L17.4297 35.9406C17.8561 35.5143 18.524 35.5143 18.9362 35.9406L19.6752 36.6796C20.1016 37.106 20.1016 37.774 19.6752 38.1861L16.307 41.5544C15.8806 41.9807 15.2126 41.9807 14.8005 41.5544L14.0615 40.8153Z" fill="#BCBCC0"/>
<path d="M36.9482 24.6766C36.5218 24.2502 36.5218 23.5823 36.9482 23.1701L37.6872 22.4311C38.1136 22.0047 38.7815 22.0047 39.1937 22.4311L39.9327 23.1701C40.3591 23.5965 40.3591 24.2644 39.9327 24.6766L39.1937 25.4156C38.7673 25.842 38.0994 25.842 37.6872 25.4156L36.9482 24.6766Z" fill="#BCBCC0"/>
<path d="M19.6923 41.9447C19.266 41.5184 19.266 40.8646 19.6923 40.4383L24.1975 35.9331C24.6239 35.5067 25.2919 35.5067 25.704 35.9331L26.443 36.6721C26.8694 37.0984 26.8694 37.7522 26.443 38.1785L21.9378 42.6838C21.5115 43.1101 20.8435 43.1101 20.4314 42.6838L19.6923 41.9447Z" fill="#BCBCC0"/>
<path d="M22.3169 35.5712C21.8905 35.9975 21.2226 35.9975 20.8104 35.5712L13.3349 28.0672C12.9085 27.6409 12.9085 26.9729 13.3349 26.5607L14.0739 25.8217C14.5003 25.3954 15.1683 25.3954 15.5804 25.8217L23.0843 33.3257C23.5107 33.752 23.5107 34.4058 23.0843 34.8321L22.3169 35.5712Z" fill="#BCBCC0"/>
<path d="M36.1941 42.6832C35.7678 43.1096 35.0998 43.1096 34.6877 42.6832L16.6953 24.6766C16.2689 24.2502 16.2689 23.5823 16.6953 23.1701L17.4343 22.4311C17.8606 22.0047 18.5286 22.0047 18.9408 22.4311L36.9616 40.4235C37.3879 40.8499 37.3879 41.5178 36.9616 41.93L36.1941 42.6832Z" fill="#BCBCC0"/>
<path d="M41.8284 41.575C41.402 42.0014 40.7341 42.0014 40.3219 41.575L20.0556 21.3087C19.6292 20.8823 19.6292 20.2144 20.0556 19.8022L20.7946 19.0632C21.221 18.6368 21.889 18.6368 22.3011 19.0632L42.5674 39.3295C42.9938 39.7559 42.9938 40.4238 42.5674 40.836L41.8284 41.575Z" fill="#BCBCC0"/>
<path d="M42.5686 35.5775C42.1423 36.0039 41.4885 36.0039 41.0622 35.5775L26.8217 21.3087C26.3954 20.8823 26.3954 20.2144 26.8217 19.8022L27.5607 19.0632C27.9871 18.6368 28.6551 18.6368 29.0672 19.0632L43.3077 33.3036C43.734 33.73 43.734 34.3837 43.3077 34.8101L42.5686 35.5775Z" fill="#BCBCC0"/>
</svg>
