<svg width="58" height="56" viewBox="0 0 58 56" fill="none" xmlns="http://www.w3.org/2000/svg">
<path d="M31.8604 12.5195L31.8483 12.544L31.7763 12.544L31.6802 12.5806L31.5962 12.6536L31.5361 12.7513L31.5121 12.7634L31.4401 12.8366L31.38 12.9463L31.344 13.0437L31.344 13.0681L31.2599 13.1657L31.1879 13.2998L31.1159 13.4461L31.0678 13.6045L31.0678 13.629L30.9357 13.7508L30.8156 13.8971L30.7436 14.0435L30.7075 14.1898L30.7075 14.2142L30.6115 14.3483L30.5273 14.5677L30.5154 14.6653L30.4313 14.7993L30.3713 14.9456L30.3472 15.0797L30.3352 15.226L30.3472 15.3724L30.3713 15.482L30.2632 15.5431L30.143 15.7259L30.095 15.9575L30.095 16.1647L30.1431 16.4207L30.167 16.494L30.095 16.6768L30.0349 16.884L30.011 17.1034L30.011 17.3108L30.0349 17.5302L30.0349 17.5546L29.9509 17.774L29.8909 18.0057L29.8549 18.2373L29.8428 18.3591L29.6628 18.5543L29.5066 18.7737L29.3985 18.9931L29.3384 19.1882L29.3264 19.4321L29.3386 19.5417L29.2544 19.6393L29.1824 19.81L29.1584 20.0172L29.1824 20.1392L29.1223 20.3098L29.0742 20.4927L29.0503 20.6634L29.0503 20.7244L28.9541 20.9804L28.8701 21.2973L28.8461 21.5899L28.8461 21.6265L28.69 21.8947L28.6179 22.1994L28.6179 22.4068L28.5098 22.8578L28.4858 23.1504L28.4858 23.2479L28.3416 23.3942L28.2216 23.6014L28.1616 23.8331L28.1856 24.0647L28.2216 24.2111L28.1856 24.4061L28.1735 24.6133L28.1856 24.8571L28.1856 24.8694L28.1496 24.8694L28.0655 25.2351L28.0174 25.5765L28.0054 25.8934L28.0176 26.0032L28.0054 26.0032L27.9694 26.2469L27.9454 26.4908L27.9454 26.5152L27.8374 26.7835L27.7652 27.0638L27.7292 27.3199L27.7292 27.5027L27.6333 27.7709L27.5852 27.9903L27.573 28.222L27.573 28.2586L27.405 28.5145L27.3089 28.7584L27.2849 28.9413L27.1888 29.1363L27.1168 29.429L27.1287 29.6849L27.0086 29.9409L26.9487 30.2092L26.9487 30.3433L26.8045 30.6115L26.7325 30.8797L26.7204 31.1479L26.7325 31.1968L26.5523 31.5503L26.4563 31.8184L26.4322 32.0989L26.4322 32.1111L26.3482 32.2574L26.2761 32.4159L26.2281 32.5864L26.216 32.7694L26.2281 32.9156L26.1079 33.0863L26.024 33.2935L25.9879 33.5252L26 33.7203L26.0479 33.9519L26.0601 33.9764L25.952 34.208L25.8919 34.4517L25.8797 34.6835L25.7598 34.8662L25.6877 35.0614L25.6636 35.2686L25.6877 35.4637L25.7357 35.6343L25.6036 35.7685L25.4956 35.9391L25.4595 36.1464L25.4956 36.3292L25.5555 36.4634L25.4956 36.5487L25.4595 36.6341L25.4234 36.7315L25.4115 36.8048L25.4234 36.9144L25.4595 37.0242L25.5316 37.1338L25.5555 37.1583L25.5076 37.3655L25.5196 37.5728L25.5796 37.7556L25.6877 37.9019L25.8318 38.0239L26.012 38.1092L26.2041 38.1701L26.4082 38.219L26.6124 38.2433L27.5251 38.2311C27.4771 38.353 27.429 38.4749 27.393 38.5847L27.2608 38.5725L27.1168 38.548L26.9607 38.5358L26.8045 38.5236L26.6604 38.5114L26.5163 38.4992L26.3722 38.5114L26.2281 38.5236L26.084 38.5358L25.9639 38.5603L25.8438 38.5969L25.7957 38.6091L25.7598 38.5969L25.6396 38.5603L25.5196 38.5114L25.3994 38.4749L25.2794 38.4138L25.4715 38.6212L25.5555 38.7187L25.5076 38.7554L25.4234 38.8406L25.3514 38.9383L25.4956 38.9139L25.6397 38.8894L25.7356 38.865L25.8198 38.9261L25.9039 38.9626L25.8678 38.9748L25.7957 38.9992L25.7117 39.0235L25.6156 39.0479L25.5316 39.0479L25.4355 39.0601L25.3514 39.0724L25.2554 39.0846L25.1593 39.0846L25.0752 39.0724L24.9912 39.0601L24.9071 39.0479L24.823 39.0235L24.751 38.9991L24.8951 39.1089L25.0513 39.1942L25.2073 39.2551L25.3634 39.2918L25.5316 39.304L25.6997 39.304L25.8678 39.2796L26.0359 39.2429L26.168 39.2063L26.1321 39.2674L26.0479 39.3284L25.952 39.4014L25.8558 39.4747L25.7478 39.5355L25.6275 39.5965L25.4835 39.6453L25.3154 39.6819L25.1233 39.6941L25.2434 39.8282L25.3755 39.9013L25.5196 39.938L25.6636 39.938L25.8077 39.9135L25.9639 39.8525L26.12 39.7793L26.2401 39.7062L26.2161 39.8404L26.2041 39.9867L26.2642 39.889L26.3242 39.7915L26.3843 39.694L26.4443 39.6086L26.5044 39.5234L26.5764 39.4501L26.7085 39.3283L26.8286 39.2064L26.9487 39.0967L27.0567 38.9991L27.1528 38.9137L27.2129 38.865L27.2729 38.8162L27.3089 38.7918C26.7445 40.2184 26.072 41.7545 25.1833 43.6318C25.7957 43.2539 26.4322 41.8641 26.8646 41.2911C27.1888 40.6816 27.5371 39.8404 27.8133 39.1089L27.8493 39.2674L27.8733 39.4258L27.8855 39.4868L27.8855 39.5234L27.8974 39.6331L27.9094 39.7428L27.9094 39.8525L27.9214 39.9622L27.9214 40.1817L27.9094 40.2914L27.8974 40.4011L27.8853 40.5109L27.8733 40.6206L27.8493 40.7303L27.8253 40.8401L27.9094 40.7181L27.9814 40.5962L28.0295 40.4742L28.0655 40.3524L28.0775 40.2791L28.1255 40.4377L28.1856 40.5962L28.2937 40.7912L28.3897 40.9375L28.4858 41.0595L28.606 41.1692L28.726 41.2667L28.8701 41.3399L29.0383 41.3887L28.9782 41.3398L28.9182 41.2789L28.8581 41.2178L28.7981 41.157L28.75 41.0838L28.7019 41.0108L28.654 40.9375L28.6059 40.8644L28.5699 40.7791L28.5339 40.7059L28.5098 40.6206L28.4738 40.5352L28.4498 40.4499L28.4258 40.3645L28.4137 40.2914L28.4018 40.206L28.3416 40.0598L28.2576 39.9013L28.1616 39.7428L28.0655 39.5843L27.9814 39.4381L27.9575 39.3648L27.9575 39.3526L28.0174 39.4625L28.0896 39.5721L28.1616 39.694L28.2456 39.816L28.3177 39.9256L28.3897 40.0476L28.4617 40.1572L28.5339 40.2792L28.6059 40.4011L28.678 40.5231L28.75 40.6449L28.822 40.7669L28.9182 40.9132L28.9902 41.0473L29.0022 40.9132L28.9902 40.7791L28.9661 40.6571L28.9302 40.5353L28.8821 40.4133L28.9182 40.4499L29.0503 40.5353L29.1943 40.5962L29.3505 40.6206L29.5066 40.5962L29.6628 40.5352L29.4826 40.4377L29.3384 40.3402L29.2063 40.2426L29.0983 40.1452L29.0142 40.0475L28.9421 39.9378L28.8701 39.8282L28.8101 39.7184L28.774 39.6574L28.7861 39.6696L28.9421 39.7062L29.1343 39.7306L29.3384 39.7184L29.5667 39.6818L29.8308 39.6086L29.6987 39.5842L29.5786 39.5599L29.4585 39.5233L29.3384 39.4868L29.2183 39.4501L29.1103 39.4014L28.9902 39.3526L28.8701 39.2918L28.762 39.2307L28.654 39.1698L28.5337 39.1087L28.4257 39.0479L28.3176 38.9747L28.1976 38.9017L28.0774 38.8284L27.9815 38.7675C28.0174 38.6699 28.0535 38.5847 28.0774 38.4993L28.3416 38.6578L28.6299 38.8041L28.9782 38.926L29.1704 38.9748L29.3505 38.987L29.5306 38.9748L29.6867 38.9382L29.8549 38.8528L29.999 38.7187L30.1071 38.5236L30.167 38.3286L30.2751 38.2798L30.4192 38.1701L30.5154 38.0604L30.5874 37.9629L30.6474 37.853L30.6835 37.7434L30.6955 37.6459L30.6955 37.524L30.8396 37.4143L30.9597 37.2558L31.0317 37.0729L31.0439 36.8535L30.9958 36.6828L31.0317 36.6584L31.1758 36.4999L31.2839 36.3414L31.356 36.1829L31.392 35.9635L31.38 35.8294L31.4761 35.6953L31.5602 35.488L31.6082 35.3052L31.7042 35.171L31.8003 34.9516L31.8603 34.6712L31.8725 34.4152L31.8844 34.403L32.0285 34.208L32.1366 34.0129L32.1967 33.83L32.2206 33.5983L32.1846 33.3911L32.2326 33.3058L32.3047 33.1473L32.3407 32.9766L32.3528 32.8181L32.3288 32.6718L32.3647 32.623L32.4489 32.367L32.4848 32.0745L32.4728 31.7575L32.5089 31.6964L32.5929 31.4405L32.6289 31.1844L32.6169 30.8432L32.689 30.6236L32.725 30.3555L32.713 30.0994L32.7611 30.0141L32.8571 29.7582L32.8932 29.4655L32.8571 29.1729L32.8451 29.1729L32.8811 29.0266L32.8811 28.7828L32.8212 28.5145L32.8811 28.356L32.9292 28.1488L32.9531 27.9416L32.9531 27.6856L32.9772 27.6245L33.0493 27.3808L33.0973 27.1247L33.1094 26.8444L33.0853 26.5639L33.0732 26.5639L33.1093 26.4176L33.1454 26.186L33.1574 25.9544L33.1333 25.9422L33.1814 25.7837L33.2294 25.4789L33.2415 25.1498L33.2294 24.7962L33.2415 24.7474L33.2895 24.528L33.3134 24.3207L33.3256 24.1135L33.3375 24.1013L33.4335 23.9062L33.4936 23.6746L33.4936 23.4674L33.4455 23.2479L33.3375 23.065L33.3976 22.8578L33.4216 22.5773L33.4216 22.2848L33.4455 22.2237L33.4936 21.9313L33.4696 21.6508L33.3735 21.3583L33.3976 21.1144L33.3854 20.8097L33.3495 20.578L33.3735 20.4439L33.3855 20.2733L33.3495 19.8953L33.3976 19.7734L33.4216 19.5906L33.3855 19.4321L33.3254 19.3101L33.3254 19.2979L33.3855 19.1029L33.4216 18.8957L33.4216 18.6883L33.3735 18.4689L33.2655 18.2373L33.1333 18.0179L33.1454 17.8472L33.1333 17.6155L33.1093 17.4204L33.1454 17.3108L33.1814 17.1156L33.2053 16.9206L33.1933 16.7133L33.1574 16.5183L33.1694 16.4817L33.2534 16.238L33.3015 16.0184L33.3015 15.8234L33.2414 15.6283L33.1454 15.5309L33.1574 15.482L33.1933 15.3479L33.2174 15.2139L33.2053 15.0676L33.1814 14.9334L33.1454 14.8358L33.1574 14.6653L33.1333 14.4824L33.0613 14.3116L33.0613 14.2872L33.0492 14.1166L33.0253 13.9704L32.9531 13.7997L32.8691 13.6777L32.8691 13.5192L32.8451 13.3729L32.8091 13.2388L32.749 13.0926L32.749 13.0315L32.737 12.9463L32.7011 12.8608L32.677 12.8365L32.6649 12.739L32.6169 12.6293L32.5329 12.5805L32.4728 12.5683L32.4728 12.5317L32.3647 12.422L32.3168 12.4098L32.3288 12.3853L32.0285 12.3733L31.8603 12.5195L31.8604 12.5195ZM27.3928 38.5968L27.3208 38.7797L27.2968 38.7919L27.2727 38.7919L27.2968 38.7797L27.2607 38.7919L27.2128 38.7919L27.0686 38.7797L26.9245 38.7675L26.7804 38.7553L26.6482 38.743L26.5523 38.7308L26.6604 38.7186L26.7804 38.7065L26.9006 38.6821L27.0205 38.6577L27.1408 38.6334L27.2607 38.609L27.3928 38.5968ZM27.8251 39.1089L27.8251 39.0967L27.8612 39.1577L27.8612 39.2308L27.8372 39.1942L27.8251 39.1087L27.8251 39.1089ZM28.1615 39.4258L28.0534 39.3161L27.9332 39.2064L27.8852 39.1576L27.8491 39.0844L27.8613 39.1333L27.8372 39.1089C27.8612 39.0478 27.8852 38.9748 27.9093 38.9137L27.9573 38.987L28.0173 39.1089L28.0894 39.2551L28.1615 39.4014L28.1975 39.4868L28.1615 39.4257L28.1615 39.4258ZM27.9933 38.7919L28.0534 38.8529L28.1013 38.9382L28.1494 39.0114L28.1013 38.987L27.9093 38.8893C27.9333 38.8406 27.9453 38.7919 27.9573 38.7432L27.9933 38.7919Z" fill="#D5D5D9"/>
</svg>
