<svg width="56" height="56" viewBox="0 0 56 56" fill="none" xmlns="http://www.w3.org/2000/svg">
<path d="M15.125 33.7472L20.5538 33.1163V23.834L15.125 23.2031V33.7472Z" fill="#BCBCC0"/>
<path d="M40.2036 23.9023L37.6841 24.9029L23.5557 22.7008L27.6423 12L40.2036 23.9023Z" fill="#969699"/>
<path d="M15.3662 23.9305L27.6462 17.0391L31.757 22.7089L20.5539 24.4489L15.3662 23.9305Z" fill="#969699"/>
<path d="M27.6422 21.8851L14 24.6135V18.8191L27.6422 12L34.2765 19.6107L27.6422 21.8851Z" fill="#575759"/>
<path d="M16.7325 18.7869L14 19.9883V38.1311L16.7325 39.4933V18.7869Z" fill="#575759"/>
<path d="M41.2924 18.8231L27.6421 12V21.8851L41.2924 24.6135V18.8231Z" fill="#BCBCC0"/>
<path d="M14.4502 33.1123L27.6424 44.9502L31.7571 34.2414L20.554 32.5015L14.4502 33.1123Z" fill="#D5D5D9"/>
<path d="M40.3724 33.0642L37.8408 32.0234L23.5557 34.2496L27.6423 44.637L40.3724 33.0642Z" fill="#D5D5D9"/>
<path d="M40.2036 33.0481L34.7588 32.5016V24.4488L40.2036 23.9023V33.0481Z" fill="#575759"/>
<path d="M27.6421 35.0651L33.541 28.4751L27.6421 21.885L20.377 28.4751L27.6421 35.0651Z" fill="#575759"/>
<path d="M34.9072 28.4751L27.6421 35.0651V21.885L34.9072 28.4751Z" fill="#BCBCC0"/>
<path d="M14 32.3369L27.6422 35.0654L35.1324 38.3082L27.6422 44.9505L14 38.1313V32.3369Z" fill="#575759"/>
<path d="M41.2924 38.1271L27.6421 44.9502V35.0651L41.2924 32.3367V38.1271Z" fill="#BCBCC0"/>
<path d="M38.5513 39.4934L41.2918 38.1272V18.8231L38.5513 17.4529V39.4934Z" fill="#BCBCC0"/>
</svg>
