<svg width="136" height="32" viewBox="0 0 136 32" fill="none" xmlns="http://www.w3.org/2000/svg">
<g clip-path="url(#clip0_6092_56184)">
<g clip-path="url(#clip1_6092_56184)">
<path d="M39.0352 15.7873H133.61C134.488 15.7873 135.2 16.4997 135.2 17.3772V22.0241C135.2 23.3073 134.157 24.3499 132.874 24.3499H39.0352C38.1577 24.3499 37.4453 23.6375 37.4453 22.76V17.3724C37.4453 16.495 38.1577 15.7826 39.0352 15.7826V15.7873Z" fill="#BCBCC0"/>
<path d="M50.906 22.2076H50.4389V18.6599H49.1133V18.2448H52.2317V18.6599H50.906V22.2076Z" fill="#242425"/>
<path d="M53.4102 22.2076L54.8868 18.2448H55.5614L57.038 22.2076H56.538L56.203 21.2735H54.2357L53.9102 22.2076H53.4102ZM54.3773 20.9102H56.0804L55.2312 18.6646L54.3773 20.9102Z" fill="#242425"/>
<path d="M59.1036 22.2076H58.5469L59.9197 20.1177L58.5988 18.2448H59.1649L60.2735 19.8393L61.4105 18.2448H61.9766L60.6274 20.1177L62.0332 22.2076H61.4718L60.2735 20.4054L59.1036 22.2076V22.2076Z" fill="#242425"/>
<path d="M69.1536 20.6319H68.0497V21.6981H67.6109V20.6319H66.5117V20.2403H67.6109V19.2307H68.0497V20.2403H69.1536V20.6319Z" fill="#242425"/>
<path d="M73.582 22.2076L75.0587 18.2448H75.7333L77.2099 22.2076H76.7098L76.3749 21.2735H74.4076L74.0821 22.2076H73.582ZM74.5492 20.9102H76.2522L75.4031 18.6646L74.5492 20.9102Z" fill="#242425"/>
<path d="M82.6017 20.9712C82.4035 21.7637 81.6251 22.3487 80.7288 22.3487C79.5352 22.3487 78.6719 21.4618 78.6719 20.2305C78.6719 18.9992 79.5352 18.1075 80.7288 18.1075C81.6204 18.1075 82.4083 18.7208 82.6017 19.5512L82.1394 19.6078C81.9931 18.9897 81.4034 18.5227 80.7288 18.5227C79.7994 18.5227 79.1389 19.2351 79.1389 20.2305C79.1436 21.2212 79.8088 21.9336 80.7288 21.9336C81.3987 21.9336 81.9884 21.4901 82.1441 20.8862L82.597 20.9712H82.6017Z" fill="#242425"/>
<path d="M88.3439 20.9712C88.1457 21.7637 87.3673 22.3487 86.471 22.3487C85.2774 22.3487 84.4141 21.4618 84.4141 20.2305C84.4141 18.9992 85.2774 18.1075 86.471 18.1075C87.3626 18.1075 88.1505 18.7208 88.3439 19.5512L87.8815 19.6078C87.7353 18.9897 87.1456 18.5227 86.471 18.5227C85.5416 18.5227 84.8811 19.2351 84.8811 20.2305C84.8858 21.2212 85.551 21.9336 86.471 21.9336C87.1409 21.9336 87.7306 21.4901 87.8863 20.8862L88.3392 20.9712H88.3439Z" fill="#242425"/>
<path d="M92.2839 18.1027C93.5294 18.1027 94.421 18.9849 94.421 20.2256C94.421 21.4664 93.5341 22.3438 92.2839 22.3438C91.0337 22.3438 90.1562 21.4664 90.1562 20.2256C90.1562 18.9849 91.0385 18.1027 92.2839 18.1027ZM92.2839 21.9287C93.2558 21.9287 93.9493 21.2163 93.9493 20.2256C93.9493 19.2349 93.2558 18.5178 92.2839 18.5178C91.3121 18.5178 90.6186 19.2302 90.6186 20.2256C90.6186 21.221 91.3168 21.924 92.2839 21.9287Z" fill="#242425"/>
<path d="M99.1238 18.2448H99.5908V20.5989C99.5908 21.6226 98.9256 22.3444 97.9915 22.3444C97.0574 22.3444 96.3828 21.6179 96.3828 20.5989V18.2448H96.8499V20.5989C96.8499 21.3254 97.298 21.9292 97.9915 21.9292C98.685 21.9292 99.1285 21.3773 99.1285 20.5989V18.2448H99.1238Z" fill="#242425"/>
<path d="M101.754 22.2076V18.2448H102.391L104.419 21.632V18.2448H104.891V22.2076H104.254L102.221 18.8203V22.2076H101.754Z" fill="#242425"/>
<path d="M108.453 22.2076H107.986V18.6599H106.66V18.2448H109.779V18.6599H108.453V22.2076Z" fill="#242425"/>
<path d="M111.555 22.2076V18.2448H112.022V22.2076H111.555Z" fill="#242425"/>
<path d="M114.215 22.2076V18.2448H114.852L116.88 21.632V18.2448H117.352V22.2076H116.715L114.682 18.8203V22.2076H114.215Z" fill="#242425"/>
<path d="M121.466 20.4381V20.0229H123.532C123.627 21.3722 122.763 22.3487 121.475 22.3487C120.187 22.3487 119.348 21.4571 119.348 20.2305C119.348 19.0039 120.239 18.1075 121.475 18.1075C122.31 18.1075 123.07 18.6076 123.287 19.2917L122.853 19.4285C122.688 18.9048 122.112 18.5227 121.475 18.5227C120.508 18.5227 119.81 19.2303 119.81 20.2305C119.81 21.2306 120.508 21.9336 121.475 21.9336C122.362 21.9336 123.051 21.292 123.065 20.4428H121.461L121.466 20.4381Z" fill="#242425"/>
<path d="M39.0352 16.4273H133.61C134.488 16.4273 135.2 17.1397 135.2 18.0172V22.6641C135.2 23.9473 134.157 24.9899 132.874 24.9899H39.0352C38.1577 24.9899 37.4453 24.2775 37.4453 23.4V18.0125C37.4453 17.135 38.1577 16.4226 39.0352 16.4226V16.4273Z" fill="#BCBCC0"/>
<path d="M50.906 22.8475H50.4389V19.2998H49.1133V18.8846H52.2317V19.2998H50.906V22.8475Z" fill="#242425"/>
<path d="M53.4102 22.8475L54.8868 18.8846H55.5614L57.038 22.8475H56.538L56.203 21.9134H54.2357L53.9102 22.8475H53.4102ZM54.3773 21.5501H56.0804L55.2312 19.3045L54.3773 21.5501Z" fill="#242425"/>
<path d="M59.1036 22.8475H58.5469L59.9197 20.7576L58.5988 18.8846H59.1649L60.2735 20.4792L61.4105 18.8846H61.9766L60.6274 20.7576L62.0332 22.8475H61.4718L60.2735 21.0453L59.1036 22.8475V22.8475Z" fill="#242425"/>
<path d="M69.1536 21.2718H68.0497V22.3379H67.6109V21.2718H66.5117V20.8802H67.6109V19.8706H68.0497V20.8802H69.1536V21.2718Z" fill="#242425"/>
<path d="M73.582 22.8475L75.0587 18.8846H75.7333L77.2099 22.8475H76.7098L76.3749 21.9134H74.4076L74.0821 22.8475H73.582ZM74.5492 21.5501H76.2522L75.4031 19.3045L74.5492 21.5501Z" fill="#242425"/>
<path d="M82.6017 21.6111C82.4035 22.4036 81.6251 22.9886 80.7288 22.9886C79.5352 22.9886 78.6719 22.1017 78.6719 20.8704C78.6719 19.6391 79.5352 18.7474 80.7288 18.7474C81.6204 18.7474 82.4083 19.3607 82.6017 20.191L82.1394 20.2477C81.9931 19.6296 81.4034 19.1626 80.7288 19.1626C79.7994 19.1626 79.1389 19.875 79.1389 20.8704C79.1436 21.8611 79.8088 22.5735 80.7288 22.5735C81.3987 22.5735 81.9884 22.13 82.1441 21.5261L82.597 21.6111H82.6017Z" fill="#242425"/>
<path d="M88.3439 21.6111C88.1457 22.4036 87.3673 22.9886 86.471 22.9886C85.2774 22.9886 84.4141 22.1017 84.4141 20.8704C84.4141 19.6391 85.2774 18.7474 86.471 18.7474C87.3626 18.7474 88.1505 19.3607 88.3439 20.191L87.8815 20.2477C87.7353 19.6296 87.1456 19.1626 86.471 19.1626C85.5416 19.1626 84.8811 19.875 84.8811 20.8704C84.8858 21.8611 85.551 22.5735 86.471 22.5735C87.1409 22.5735 87.7306 22.13 87.8863 21.5261L88.3392 21.6111H88.3439Z" fill="#242425"/>
<path d="M92.2839 18.7426C93.5294 18.7426 94.421 19.6248 94.421 20.8655C94.421 22.1062 93.5341 22.9837 92.2839 22.9837C91.0337 22.9837 90.1562 22.1062 90.1562 20.8655C90.1562 19.6248 91.0385 18.7426 92.2839 18.7426ZM92.2839 22.5686C93.2558 22.5686 93.9493 21.8562 93.9493 20.8655C93.9493 19.8748 93.2558 19.1577 92.2839 19.1577C91.3121 19.1577 90.6186 19.8701 90.6186 20.8655C90.6186 21.8609 91.3168 22.5639 92.2839 22.5686Z" fill="#242425"/>
<path d="M99.1238 18.8846H99.5908V21.2388C99.5908 22.2625 98.9256 22.9843 97.9915 22.9843C97.0574 22.9843 96.3828 22.2578 96.3828 21.2388V18.8846H96.8499V21.2388C96.8499 21.9653 97.298 22.5691 97.9915 22.5691C98.685 22.5691 99.1285 22.0172 99.1285 21.2388V18.8846H99.1238Z" fill="#242425"/>
<path d="M101.754 22.8475V18.8846H102.391L104.419 22.2719V18.8846H104.891V22.8475H104.254L102.221 19.4602V22.8475H101.754Z" fill="#242425"/>
<path d="M108.453 22.8475H107.986V19.2998H106.66V18.8846H109.779V19.2998H108.453V22.8475Z" fill="#242425"/>
<path d="M111.555 22.8475V18.8846H112.022V22.8475H111.555Z" fill="#242425"/>
<path d="M114.215 22.8475V18.8846H114.852L116.88 22.2719V18.8846H117.352V22.8475H116.715L114.682 19.4602V22.8475H114.215Z" fill="#242425"/>
<path d="M121.466 21.078V20.6628H123.532C123.627 22.0121 122.763 22.9886 121.475 22.9886C120.187 22.9886 119.348 22.097 119.348 20.8704C119.348 19.6438 120.239 18.7474 121.475 18.7474C122.31 18.7474 123.07 19.2475 123.287 19.9316L122.853 20.0684C122.688 19.5447 122.112 19.1626 121.475 19.1626C120.508 19.1626 119.81 19.8702 119.81 20.8704C119.81 21.8705 120.508 22.5735 121.475 22.5735C122.362 22.5735 123.051 21.9319 123.065 21.0827H121.461L121.466 21.078Z" fill="#242425"/>
<path d="M38.4615 9.68217V13.6167H37.2773V3.56335H41.712C43.8349 3.56335 45.3493 4.84656 45.3493 6.65814C45.3493 8.02627 44.3208 9.19625 42.8678 9.50761L45.4342 13.6167H44.0519L41.6695 9.68217H38.4615V9.68217ZM38.4615 4.62011V8.63013H41.627C43.1084 8.63013 44.1651 7.81869 44.1651 6.66286C44.1651 5.39381 43.1084 4.62483 41.627 4.62483H38.4615V4.62011Z" fill="#BCBCC0"/>
<path d="M49.4643 11.1075L48.8369 10.5413C48.3557 11.0084 47.7801 11.282 47.1574 11.282C46.2044 11.282 45.5156 10.6923 45.5156 9.86671C45.5156 9.09301 45.9968 8.71088 46.5724 8.44197C46.2988 8.14004 46.0582 7.74376 46.0582 7.28614C46.0582 6.55962 46.6479 6.02653 47.431 6.01709C48.1858 6.01709 48.7708 6.53132 48.8699 7.2484L48.3179 7.35219C48.2613 6.88042 47.9169 6.53603 47.4452 6.53603C46.9734 6.53603 46.629 6.8474 46.629 7.30973C46.629 7.65412 46.8319 7.99851 47.1951 8.32403C47.4121 8.52217 48.5915 9.5978 48.8321 9.81009C49.0633 9.49873 49.2473 9.12603 49.3888 8.70144H49.9455C49.7615 9.25341 49.5068 9.73933 49.2001 10.1403C49.3464 10.2724 50.1248 10.9801 50.2569 11.098H49.469L49.4643 11.1075ZM48.4642 10.2111C48.2472 10.0082 47.1762 9.01281 46.9498 8.80995C46.4356 9.00809 46.0959 9.29587 46.0959 9.85255C46.0959 10.4092 46.5771 10.7631 47.2329 10.7631C47.7046 10.7631 48.1198 10.5602 48.4642 10.2111Z" fill="#BCBCC0"/>
<path d="M56.3235 9.12546V8.0687H61.5695C61.8101 11.489 59.6164 13.9705 56.3518 13.9705C53.0871 13.9705 50.9453 11.7013 50.9453 8.59237C50.9453 5.48342 53.2145 3.20007 56.3518 3.20007C58.4747 3.20007 60.3995 4.46913 60.942 6.20994L59.8428 6.55433C59.4277 5.22867 57.9605 4.25683 56.347 4.25683C53.8939 4.25683 52.1247 6.05426 52.1247 8.59237C52.1247 11.1305 53.8939 12.9137 56.347 12.9137C58.6021 12.9137 60.3382 11.2862 60.3806 9.1349L56.3187 9.12074L56.3235 9.12546Z" fill="#BCBCC0"/>
<path d="M66.5477 13.6214V3.56335H70.7983C72.6099 3.56335 73.9356 4.70503 73.9356 6.27129C73.9356 7.29975 73.2656 8.18195 72.3221 8.42255C73.4355 8.6773 74.2186 9.6633 74.2186 10.805C74.2186 12.4326 72.7656 13.612 70.7653 13.612H66.543L66.5477 13.6214ZM67.7318 4.62483V7.91776H70.6568C71.8834 7.91776 72.7514 7.24785 72.7514 6.27601C72.7514 5.30417 71.8834 4.62011 70.6568 4.62011H67.7318V4.62483ZM67.7318 8.97452V12.5694H70.6143C72.0249 12.5694 73.0392 11.8004 73.0392 10.7578C73.0392 9.71519 72.0249 8.97452 70.6143 8.97452H67.7318Z" fill="#BCBCC0"/>
<path d="M77.774 9.68217V13.6167H76.5898V3.56335H81.0245C83.1474 3.56335 84.6618 4.84656 84.6618 6.65814C84.6618 8.02627 83.6333 9.19625 82.1803 9.50761L84.7467 13.6167H83.3644L80.982 9.68217H77.774ZM77.774 4.62011V8.63013H80.9395C82.4209 8.63013 83.4776 7.81869 83.4776 6.66286C83.4776 5.39381 82.4209 4.62483 80.9395 4.62483H77.774V4.62011Z" fill="#BCBCC0"/>
<path d="M93.2926 8.91319H88.1597V12.5647H94.0049V13.6214H87.0039V3.56335H93.8634V4.62011H88.1597V7.91304H93.2926V8.91319V8.91319Z" fill="#BCBCC0"/>
<path d="M96.1992 13.6214V3.56335H97.8127L102.96 12.1637V3.56335H104.158V13.6214H102.544L97.3834 5.02111V13.6214H96.1992Z" fill="#BCBCC0"/>
<path d="M106.855 13.6214V3.56335H108.469L113.616 12.1637V3.56335H114.814V13.6214H113.201L108.04 5.02111V13.6214H106.855Z" fill="#BCBCC0"/>
<path d="M123.793 8.91319H118.66V12.5647H124.505V13.6214H117.504V3.56335H124.363V4.62011H118.66V7.91304H123.793V8.91319V8.91319Z" fill="#BCBCC0"/>
<path d="M127.887 9.68217V13.6167H126.703V3.56335H131.138C133.261 3.56335 134.775 4.84656 134.775 6.65814C134.775 8.02627 133.747 9.19625 132.294 9.50761L134.86 13.6167H133.478L131.095 9.68217H127.887V9.68217ZM127.887 4.62011V8.63013H131.053C132.534 8.63013 133.591 7.81869 133.591 6.66286C133.591 5.39381 132.534 4.62483 131.053 4.62483H127.887V4.62011Z" fill="#BCBCC0"/>
<path d="M15.7051 22.673C16.1569 22.6775 16.6087 22.6819 17.0921 22.6819C17.0288 22.5209 16.9882 22.3868 16.9295 22.266C16.7216 21.868 16.5138 21.4654 16.2924 21.0719C15.7819 20.1595 15.2578 19.2561 14.7609 18.3392C14.6073 18.0619 14.5395 17.8249 14.0922 17.8338C12.9402 17.8562 11.7926 17.8651 10.6406 17.8651C7.42836 17.9054 4.21615 17.9456 1.00394 17.9904C1.00394 17.968 1.00394 17.9456 1.00394 17.9233C2.60326 17.8338 4.20259 17.7623 5.80192 17.7175C5.81547 17.6862 5.82451 17.6549 5.83806 17.6281C6.36666 16.7112 6.89525 15.7989 7.42384 14.8865C8.20995 13.5269 9.00058 12.1673 9.79121 10.8077C10.4599 9.65824 11.1375 8.5133 11.7926 7.35494C11.9688 7.04187 12.3167 6.76011 12.1089 6.31287C10.5683 6.31287 9.02317 6.31287 7.47805 6.33076C7.38318 6.33076 7.25216 6.42915 7.19794 6.5186C5.98715 8.5133 4.7854 10.5125 3.57913 12.5116C2.46773 14.3453 1.35633 16.1746 0.263004 18.0172C0.154575 18.2006 0.109396 18.4331 0.240414 18.6612C0.945203 19.8777 1.64547 21.0942 2.33671 22.3152C2.41803 22.4583 2.51291 22.5075 2.68007 22.5075C3.91345 22.512 5.14231 22.5254 6.37569 22.5388C7.844 22.5567 9.30779 22.5791 10.7761 22.6014C12.4206 22.6238 14.0606 22.6506 15.7051 22.673Z" fill="#D5D5D9"/>
<path d="M28.2169 15.1728C27.0604 13.1467 25.8947 11.1252 24.7337 9.10367C23.6674 7.24762 22.6057 5.38709 21.5305 3.53551C21.422 3.35214 21.2413 3.20007 20.9748 3.20007C19.5607 3.20902 18.1466 3.20902 16.728 3.20455C16.5653 3.20455 16.4705 3.26269 16.3891 3.4058C15.7792 4.46577 15.1603 5.52126 14.5368 6.57228C13.7959 7.82456 13.0549 9.07684 12.314 10.3291C11.4827 11.7335 10.6514 13.1333 9.82014 14.5377C9.59425 14.9223 9.36835 15.3114 9.12891 15.7273C9.30059 15.7542 9.44064 15.7855 9.57618 15.7899C10.028 15.8078 10.4843 15.8257 10.9361 15.8302C11.9887 15.8436 13.0414 15.8347 14.0941 15.857C14.4148 15.8615 14.6588 15.9196 14.8666 15.5305C15.9599 13.5269 17.1075 11.5546 18.2369 9.5688C18.4674 9.16629 18.6978 8.76377 18.9508 8.321C19.6917 6.99269 20.4281 5.65991 21.169 4.3316C21.1871 4.34054 21.2097 4.35396 21.2278 4.3629C20.5365 5.74935 19.8272 7.12686 19.0953 8.49542C19.0999 8.50437 19.1089 8.51331 19.1134 8.51778C19.6601 9.42121 20.2022 10.3291 20.7444 11.237C21.5531 12.5877 22.3572 13.9339 23.1614 15.2846C23.8436 16.4295 24.5168 17.5789 25.208 18.7104C25.3978 19.019 25.4746 19.4573 25.967 19.4976C26.726 18.1693 27.485 16.841 28.235 15.4992C28.2802 15.4187 28.2576 15.2577 28.2079 15.1683L28.2169 15.1728Z" fill="#969699"/>
<path d="M24.59 21.0719C23.8491 19.8196 23.1127 18.5628 22.3762 17.3106C21.5495 15.9062 20.7227 14.4974 19.8959 13.0931C19.67 12.7084 19.4351 12.3238 19.1911 11.9124C19.0827 12.051 18.9878 12.1494 18.9155 12.2657C18.6761 12.6458 18.4367 13.0305 18.2108 13.4196C17.6822 14.323 17.1716 15.2309 16.6385 16.1298C16.4759 16.4027 16.3087 16.586 16.5437 16.9572C17.0226 17.7086 17.4879 18.4689 17.9532 19.2248C19.0104 20.8214 20.0721 22.4181 21.1293 24.0192C21.1745 24.0863 21.2151 24.1489 21.2603 24.216C22.0916 25.4683 22.9229 26.725 23.7542 27.9773C23.7361 27.9907 23.7181 27.9997 23.7 28.0131C22.8777 26.8816 22.0645 25.7411 21.2694 24.5872C21.1383 24.3994 21.0073 24.207 20.8763 24.0192H7.82416C7.69766 24.0192 7.59375 24.1221 7.59375 24.2473V24.5872C8.3889 25.8931 9.18404 27.1991 9.99274 28.5006C10.0424 28.5811 10.196 28.6392 10.3 28.6392C12.6493 28.6392 15.0031 28.6258 17.3524 28.6169C18.5677 28.6124 19.7785 28.6079 20.9938 28.6034C21.938 28.6034 22.8822 28.5945 23.8265 28.5855C24.0433 28.5855 24.2647 28.5006 24.3957 28.2725C25.0825 27.047 25.7782 25.8261 26.474 24.6096C26.5553 24.4664 26.5508 24.3591 26.4649 24.2205C25.8324 23.1739 25.209 22.1229 24.5855 21.0719H24.59Z" fill="#BCBCC0"/>
</g>
</g>
<defs>
<clipPath id="clip0_6092_56184">
<rect width="135.68" height="30.72" fill="white" transform="translate(0.160156 0.640015)"/>
</clipPath>
<clipPath id="clip1_6092_56184">
<rect width="135.68" height="25.6" fill="white" transform="translate(0.160156 3.20007)"/>
</clipPath>
</defs>
</svg>
