<svg width="58" height="56" viewBox="0 0 58 56" fill="none" xmlns="http://www.w3.org/2000/svg">
<path fill-rule="evenodd" clip-rule="evenodd" d="M19.8891 15.6084C18.104 15.6084 16.7831 17.1621 16.8423 18.8471C16.8991 20.4659 16.8253 22.5625 16.2946 24.2723C15.7619 25.9869 14.8617 27.0734 13.3911 27.2128V28.7874C14.8617 28.9271 15.7619 30.0131 16.2945 31.7279C16.8253 33.4377 16.899 35.5343 16.8422 37.1531C16.7831 38.8378 18.104 40.3918 19.8893 40.3918H38.1804C39.9655 40.3918 41.2861 38.8381 41.227 37.1531C41.1702 35.5343 41.244 33.4377 41.7747 31.7279C42.3074 30.0131 43.2053 28.9267 44.676 28.7874V27.2128C43.2054 27.0731 42.3074 25.9871 41.7747 24.2723C41.2439 22.5628 41.1702 20.4659 41.227 18.8471C41.2861 17.1624 39.9655 15.6084 38.1804 15.6084H19.8888H19.8891ZM34.6012 30.8642C34.6012 33.1844 32.861 34.5915 29.9729 34.5915H25.0567C24.916 34.5915 24.7812 34.5359 24.6817 34.437C24.5823 34.3381 24.5264 34.204 24.5264 34.0642V21.9361C24.5264 21.7963 24.5823 21.6621 24.6817 21.5632C24.7812 21.4644 24.916 21.4088 25.0567 21.4088H29.9449C32.3531 21.4088 33.9335 22.706 33.9335 24.6976C33.9335 26.0955 32.8703 27.3469 31.5158 27.5661V27.639C33.3597 27.8402 34.6012 29.1101 34.6012 30.8642ZM29.4369 23.0804H26.6337V27.0179H28.9946C30.8198 27.0179 31.8262 26.287 31.8262 24.9806C31.826 23.7564 30.9608 23.0804 29.4369 23.0804ZM26.6337 28.5802V32.9194H29.54C31.4403 32.9194 32.4469 32.1611 32.4469 30.7361C32.4469 29.311 31.4121 28.5799 29.4178 28.5799H26.6337V28.5802Z" fill="#D5D5D9"/>
</svg>
