<svg width="319" height="133" viewBox="0 0 319 133" fill="none" xmlns="http://www.w3.org/2000/svg">
<g clip-path="url(#clip0_5660_16095)">
<path d="M0.666992 16C0.666992 7.16345 7.83044 0 16.667 0H303C311.837 0 319 7.16344 319 16V117C319 125.837 311.837 133 303 133H16.667C7.83046 133 0.666992 125.837 0.666992 117V16Z" fill="#242425"/>
<mask id="mask0_5660_16095" style="mask-type:alpha" maskUnits="userSpaceOnUse" x="-103" y="-147" width="525" height="428">
<rect x="-101.833" y="-146.5" width="523" height="427" fill="#D9D9D9" stroke="#B4B4B4"/>
</mask>
<g mask="url(#mask0_5660_16095)">
<path d="M465.493 426.468C465.421 426.448 465.35 426.421 465.284 426.377C464.89 426.142 464.759 425.632 464.994 425.238C487.548 387.198 482.565 335.921 450.974 280.853C450.744 280.455 450.88 279.948 451.278 279.718C451.676 279.488 452.184 279.624 452.414 280.022C468.512 308.086 477.789 335.219 479.992 360.664C482.117 385.303 477.557 407.314 466.424 426.087C466.232 426.415 465.839 426.56 465.493 426.468Z" fill="url(#paint0_angular_5660_16095)"/>
<path d="M478.86 384.828C478.788 384.808 478.718 384.781 478.652 384.737C478.257 384.502 478.126 383.992 478.361 383.598C489.64 364.605 497.31 345.87 501.146 327.912C501.241 327.462 501.689 327.177 502.138 327.271C502.598 327.36 502.873 327.813 502.779 328.263C498.903 346.4 491.163 365.298 479.791 384.447C479.6 384.776 479.207 384.921 478.86 384.828Z" fill="url(#paint1_angular_5660_16095)"/>
<path d="M505.839 259.11C505.501 259.019 505.245 258.717 505.223 258.349C503.652 229.837 495.311 202.238 480.435 176.314C480.205 175.916 480.341 175.409 480.74 175.179C481.138 174.949 481.645 175.085 481.875 175.483C496.878 201.64 505.293 229.483 506.879 258.258C506.904 258.713 506.555 259.112 506.092 259.134C506.005 259.137 505.912 259.129 505.831 259.107L505.839 259.11Z" fill="url(#paint2_angular_5660_16095)"/>
<path d="M185.27 565.694C149.849 556.203 117.376 527.912 91.9727 483.806C31.3144 482.776 -14.5958 461.853 -37.3054 424.863C-37.5456 424.471 -37.4257 423.96 -37.0334 423.719C-36.641 423.479 -36.1293 423.599 -35.8891 423.992C-13.4235 460.57 32.1616 481.225 92.4698 482.144C92.7631 482.145 93.0314 482.303 93.1789 482.558C124.102 536.446 165.571 566.63 209.946 567.543C210.403 567.544 210.773 567.937 210.763 568.392C210.751 568.854 210.369 569.218 209.914 569.208C201.578 569.037 193.35 567.851 185.272 565.686L185.27 565.694Z" fill="url(#paint3_angular_5660_16095)"/>
<path d="M122.016 553.639C115.959 552.016 110.187 550.072 104.705 547.818C104.278 547.643 104.079 547.159 104.255 546.731C104.43 546.303 104.922 546.107 105.342 546.28C123.464 553.742 144.852 557.713 168.89 558.078C169.345 558.088 169.719 558.464 169.707 558.927C169.695 559.39 169.321 559.755 168.858 559.743C151.861 559.487 136.174 557.433 122.008 553.637L122.016 553.639Z" fill="url(#paint4_angular_5660_16095)"/>
<path d="M42.0264 512.77C41.9298 512.745 41.8375 512.703 41.7516 512.636C20.3662 497.154 2.5865 477.236 -11.0768 453.423C-11.3067 453.025 -11.1708 452.518 -10.7726 452.288C-10.3743 452.058 -9.86695 452.194 -9.637 452.592C3.90838 476.2 21.5272 495.946 42.7188 511.282C43.0945 511.555 43.1707 512.076 42.9076 512.446C42.7005 512.735 42.3427 512.847 42.0205 512.76L42.0264 512.77Z" fill="url(#paint5_angular_5660_16095)"/>
<path d="M168.666 559.718C168.304 559.621 168.046 559.293 168.049 558.896C168.061 558.434 168.435 558.068 168.898 558.08C281.382 559.792 420.21 481.52 478.361 383.598C478.596 383.204 479.106 383.073 479.5 383.308C479.895 383.543 480.026 384.053 479.791 384.447C421.361 482.829 281.884 561.463 168.866 559.745C168.797 559.744 168.731 559.735 168.658 559.716L168.666 559.718Z" fill="url(#paint6_angular_5660_16095)"/>
<path d="M307.711 550.51C287.922 545.208 259.663 512.306 227.97 457.074C227.74 456.675 227.876 456.168 228.274 455.938C228.673 455.708 229.18 455.844 229.41 456.242C265.957 519.939 298.789 554.618 317.238 549.007C317.679 548.875 318.148 549.121 318.28 549.562C318.412 550.003 318.166 550.472 317.725 550.604C314.69 551.526 311.343 551.483 307.711 550.51Z" fill="url(#paint7_angular_5660_16095)"/>
<path d="M393.63 507.909C393.437 507.857 393.269 507.743 393.145 507.563C392.894 507.176 392.998 506.66 393.384 506.41C408.604 496.421 394.944 450.818 356.842 384.418C356.612 384.02 356.748 383.513 357.147 383.283C357.545 383.053 358.052 383.189 358.282 383.587C397.44 451.841 410.566 497.119 394.289 507.8C394.081 507.934 393.84 507.965 393.614 507.904L393.63 507.909Z" fill="url(#paint8_angular_5660_16095)"/>
<path d="M451.481 281.248C451.408 281.229 451.338 281.201 451.272 281.157C450.877 280.922 450.746 280.413 450.981 280.018C483.953 224.489 489.792 172.159 467.414 132.643C467.184 132.245 467.33 131.732 467.726 131.51C468.125 131.28 468.638 131.426 468.86 131.822C479.888 151.295 484.198 173.931 481.661 199.09C479.039 225.08 469.197 252.596 452.411 280.867C452.22 281.196 451.827 281.341 451.481 281.248Z" fill="url(#paint9_angular_5660_16095)"/>
<path d="M96.3696 71.4365C96.2971 71.4171 96.2268 71.3897 96.1608 71.3461C95.7663 71.1109 95.6353 70.6012 95.8704 70.2068C128.728 14.8804 172.033 -15.5879 217.807 -15.5777C218.266 -15.5841 218.64 -15.2077 218.636 -14.7427C218.634 -14.2857 218.266 -13.9098 217.801 -13.9136C172.64 -13.9236 129.843 16.258 97.3003 71.0559C97.1087 71.3843 96.716 71.5293 96.3696 71.4365Z" fill="url(#paint10_angular_5660_16095)"/>
<path d="M359.444 176.681C359.371 176.661 359.301 176.634 359.235 176.59C358.841 176.355 358.71 175.845 358.945 175.451C383.217 134.575 390.541 94.483 379.55 62.5666C370.785 37.0978 350.955 17.7089 322.211 6.49447C321.781 6.3275 321.575 5.84072 321.74 5.41888C321.907 4.98895 322.394 4.7828 322.816 4.94762C352.028 16.3479 372.187 36.0842 381.126 62.0311C392.275 94.4213 384.912 135.012 360.38 176.31C360.189 176.639 359.796 176.784 359.45 176.691L359.444 176.681Z" fill="url(#paint11_angular_5660_16095)"/>
<path d="M232.046 101.413C231.973 101.394 231.903 101.366 231.837 101.323C231.442 101.088 231.311 100.578 231.546 100.184C248.042 72.4133 251.03 46.2188 239.963 26.4418C229.096 7.01203 205.851 -3.94581 174.516 -4.42814C174.059 -4.4298 173.687 -4.81426 173.699 -5.27711C173.711 -5.73996 174.085 -6.1057 174.548 -6.09387C206.504 -5.60915 230.253 5.6565 241.425 25.6253C252.794 45.9493 249.797 72.728 232.984 101.035C232.793 101.363 232.4 101.508 232.054 101.415L232.046 101.413Z" fill="url(#paint12_angular_5660_16095)"/>
<path d="M480.942 176.709C480.733 176.653 480.553 176.519 480.435 176.314C415.399 62.9554 243.333 15.8926 96.878 71.4088C96.4465 71.5694 95.9688 71.355 95.8001 70.9215C95.6395 70.4901 95.8537 70.0125 96.2874 69.8439C166.983 43.047 245.624 38.9793 317.94 58.3563C318.544 58.5182 319.14 58.6778 319.744 58.8397C392.59 78.7817 450.179 120.198 481.887 175.469C482.117 175.868 481.981 176.375 481.583 176.605C481.389 176.717 481.158 176.741 480.949 176.685L480.942 176.709Z" fill="url(#paint13_angular_5660_16095)"/>
<path d="M96.3696 71.4365C96.2005 71.3912 96.0467 71.2896 95.9297 71.1461C95.6466 70.7854 95.71 70.2587 96.0707 69.9756C145.521 31.2982 200.718 8.92707 255.705 5.28713C282.175 3.53384 307.7 6.2395 331.554 13.3474C355.754 20.5481 377.658 32.096 396.677 47.6778C397.031 47.9709 397.089 48.4956 396.795 48.8485C396.502 49.2015 395.977 49.2594 395.624 48.9663C316.754 -15.6628 196.789 -6.6933 97.1107 71.2813C96.8935 71.4474 96.6216 71.4955 96.38 71.4307L96.3696 71.4365Z" fill="url(#paint14_angular_5660_16095)"/>
<path d="M-7.00441 97.771C-7.0769 97.7515 -7.14722 97.724 -7.21324 97.6805C-7.60773 97.4453 -7.73873 96.9356 -7.50358 96.5412C26.7065 38.9365 108.369 -7.10983 174.539 -6.09622C174.994 -6.08655 175.368 -5.71011 175.356 -5.24726C175.344 -4.78441 174.97 -4.41867 174.507 -4.43049C108.877 -5.42895 27.8678 40.24 -6.07373 97.3903C-6.26531 97.7187 -6.65809 97.8638 -7.00441 97.771Z" fill="url(#paint15_angular_5660_16095)"/>
<path d="M96.3696 71.4365C96.0394 71.348 95.7812 71.0549 95.7569 70.6945C92.7169 31.1393 98.1848 7.80133 111.56 3.21245C111.997 3.0621 112.471 3.29252 112.621 3.72984C112.771 4.16716 112.541 4.6405 112.104 4.79084C99.7071 9.04647 94.4916 32.4088 97.4215 70.5709C97.4543 71.0285 97.1139 71.4292 96.6541 71.4699C96.5568 71.4784 96.4639 71.4708 96.3753 71.447L96.3696 71.4365Z" fill="url(#paint16_angular_5660_16095)"/>
<path d="M96.3696 71.4365C96.273 71.4106 96.1719 71.3666 96.0861 71.3004C71.2948 52.679 52.3683 43.7412 41.3393 45.4377C37.9551 45.9548 35.3221 47.5018 33.5119 50.0373C33.2467 50.415 32.7235 50.4992 32.3478 50.2259C31.97 49.9607 31.8857 49.4377 32.159 49.0621C34.2425 46.1511 37.2474 44.3758 41.0839 43.7813C52.7253 41.9901 71.5671 50.7928 97.0834 69.9623C97.4488 70.2415 97.525 70.7625 97.2459 71.1278C97.0329 71.4073 96.6831 71.5207 96.3609 71.4343L96.3696 71.4365Z" fill="url(#paint17_angular_5660_16095)"/>
<path d="M-38.4782 132.954C-38.5346 132.939 -38.599 132.922 -38.6511 132.891C-39.0601 132.678 -39.2174 132.169 -38.9962 131.763C-28.5159 111.882 -11.6449 96.3723 11.1522 85.6779C34.6996 74.6322 63.4443 69.2856 96.5929 69.7965C97.0478 69.8062 97.4217 70.1825 97.4099 70.6454C97.3981 71.1082 97.0239 71.474 96.5609 71.4621C31.3695 70.4691 -16.2564 92.1592 -37.5368 132.533C-37.7246 132.88 -38.1239 133.049 -38.4863 132.952L-38.4782 132.954Z" fill="url(#paint18_angular_5660_16095)"/>
<path d="M2.79361 345.475C-22.9708 338.571 -43.6001 326.001 -57.2099 308.529C-75.0271 285.658 -80.2491 255.857 -72.3108 222.333C-72.2083 221.886 -71.7547 221.61 -71.3074 221.713C-70.8499 221.809 -70.5846 222.269 -70.6871 222.716C-78.4975 255.731 -73.3866 285.044 -55.8923 307.51C-35.1469 334.143 2.27591 349.211 49.4735 349.931C49.9365 349.942 50.3023 350.317 50.2905 350.78C50.2787 351.242 49.9045 351.608 49.4415 351.596C32.5579 351.336 16.896 349.253 2.78557 345.473L2.79361 345.475Z" fill="url(#paint19_angular_5660_16095)"/>
<path d="M23.3493 200.076C5.27637 195.233 -8.28549 185.636 -15.9438 171.95C-27.3135 151.626 -24.3161 124.848 -7.50358 96.5412C-7.26842 96.1468 -6.75851 96.0155 -6.36402 96.2507C-5.96952 96.4858 -5.83858 96.9959 -6.07373 97.3903C-22.5699 125.161 -25.5574 151.355 -14.4901 171.132C-3.62326 190.562 19.6197 201.527 50.9568 202.002C51.4117 202.011 51.7856 202.388 51.7738 202.851C51.762 203.313 51.3878 203.679 50.9248 203.667C40.8755 203.512 31.6287 202.294 23.3413 200.074L23.3493 200.076Z" fill="url(#paint20_angular_5660_16095)"/>
<path d="M-76.4387 297.241C-76.7769 297.15 -77.0349 296.856 -77.0571 296.488C-79.8665 250.66 -65.3293 205.105 -35.0226 164.741C-4.03544 123.481 41.364 90.6746 96.2746 69.8576C96.706 69.6971 97.1838 69.9113 97.3525 70.3449C97.5132 70.7763 97.2988 71.254 96.8652 71.4226C-11.877 112.638 -81.1088 203.043 -75.3888 296.383C-75.356 296.84 -75.7125 297.237 -76.1702 297.269C-76.2674 297.278 -76.3501 297.264 -76.4387 297.241Z" fill="url(#paint21_angular_5660_16095)"/>
<path d="M-10.5698 453.818C-10.7792 453.762 -10.9589 453.627 -11.0768 453.423C-42.7854 398.152 -49.0936 327.817 -28.8369 255.375C-8.59313 182.982 35.7666 117.136 96.0721 69.9674C96.4328 69.6843 96.9596 69.7478 97.2428 70.1085C97.526 70.4691 97.4626 70.9958 97.1019 71.2789C-26.7783 168.184 -74.6576 339.237 -9.62689 452.586C-9.39693 452.984 -9.53287 453.492 -9.93111 453.721C-10.1251 453.833 -10.3561 453.858 -10.5655 453.802L-10.5698 453.818Z" fill="url(#paint22_angular_5660_16095)"/>
<path d="M92.2365 483.79C92.0271 483.734 91.8393 483.597 91.7273 483.403C60.0519 428.201 43.0431 354.827 43.8216 276.795C44.6001 198.762 63.0844 125.397 95.8603 70.2127C96.0164 69.9525 96.2899 69.8013 96.5913 69.8044C159.985 70.7732 231.906 93.1687 299.104 132.87C366.294 172.57 420.742 224.838 452.411 280.03C452.557 280.294 452.557 280.613 452.401 280.873C419.625 336.058 364.139 387.565 296.165 425.887C228.189 464.217 155.83 484.786 92.4363 483.817C92.3676 483.816 92.301 483.807 92.2365 483.79ZM97.0587 71.4745C30.0109 184.816 28.174 368.793 92.9495 482.16C223.015 483.914 383.304 393.554 450.74 280.437C385.568 167.292 227.132 73.6799 97.0668 71.4767L97.0587 71.4745Z" fill="url(#paint23_angular_5660_16095)"/>
<path d="M49.2499 351.571C48.8875 351.474 48.6301 351.146 48.6327 350.749C48.6445 350.287 49.0187 349.921 49.4817 349.933C161.966 351.645 300.791 273.381 358.945 175.451C359.18 175.056 359.689 174.926 360.084 175.161C360.478 175.396 360.609 175.906 360.374 176.3C301.944 274.682 162.468 353.316 49.4497 351.598C49.381 351.597 49.3144 351.588 49.2419 351.569L49.2499 351.571Z" fill="url(#paint24_angular_5660_16095)"/>
<path d="M50.7254 203.64C50.363 203.543 50.1055 203.215 50.1081 202.819C50.1199 202.356 50.4938 201.99 50.9568 202.002C116.595 203.002 197.607 157.326 231.546 100.184C231.782 99.7892 232.291 99.6578 232.686 99.893C233.08 100.128 233.211 100.638 232.976 101.032C198.766 158.637 117.105 204.675 50.9248 203.667C50.856 203.666 50.7898 203.657 50.7173 203.638L50.7254 203.64Z" fill="url(#paint25_angular_5660_16095)"/>
<path d="M228.478 457.468C228.268 457.412 228.089 457.278 227.969 457.081C162.684 343.294 103.376 169.963 95.7469 70.7001C95.7141 70.2425 96.0546 69.8417 96.5144 69.801C96.9742 69.7602 97.3728 70.1087 97.4137 70.5684C105.02 169.626 164.232 342.638 229.419 456.244C229.649 456.643 229.513 457.15 229.114 457.38C228.92 457.492 228.689 457.516 228.488 457.462L228.478 457.468Z" fill="url(#paint26_angular_5660_16095)"/>
<path d="M357.36 384.807C357.15 384.751 356.971 384.617 356.851 384.421C291.667 270.806 174.685 130.342 96.0847 71.3085C95.7193 71.0293 95.6431 70.5083 95.9222 70.143C96.2014 69.7777 96.7225 69.7016 97.0879 69.9807C175.838 129.132 293.018 269.822 358.296 383.6C358.526 383.998 358.39 384.505 357.992 384.735C357.798 384.847 357.567 384.871 357.366 384.817L357.36 384.807Z" fill="url(#paint27_angular_5660_16095)"/>
<path d="M138.859 559.3C134.156 558.039 128.798 556.353 124.334 554.942L121.946 554.189C110.12 550.486 95.0076 543.709 84.409 538.677C69.4141 531.561 51.7944 519.711 46.7475 516.253C38.2317 510.407 26.7946 501.224 17.6172 492.853C7.71653 483.831 -1.51001 474.291 -7.06259 467.34C-8.24519 465.858 -9.55333 464.265 -10.9108 462.598C-14.4662 458.245 -18.4893 453.318 -21.4032 449.181C-26.9703 441.285 -33.9632 430.497 -38.8017 422.331C-47.3181 407.949 -55.5902 388.049 -58.7506 380.16C-62.468 370.871 -66.7303 357.172 -69.3553 346.061C-72.6714 332.02 -75.5971 314.235 -76.6383 301.787C-77.244 294.608 -77.659 285.945 -77.7002 279.72C-77.7499 272.432 -77.3123 262.616 -76.9408 255.656C-76.3701 245.021 -74.2259 229.802 -71.4811 216.885C-68.9977 205.201 -64.5273 189.483 -60.3672 177.791C-57.922 170.921 -53.9535 161.49 -48.5671 149.764C-46.4489 145.144 -43.2589 139.328 -40.6949 134.656L-39.7977 133.015C-37.1018 128.076 -32.9548 121.394 -27.1217 112.575C-24.8889 109.203 -21.8594 105.113 -19.1918 101.504C-18.4737 100.532 -17.7744 99.5972 -17.1326 98.7162C-14.471 95.0971 -10.5582 90.3202 -5.15286 84.0964C-2.34395 80.8619 2.31743 75.7073 6.19853 71.854L7.94283 70.1121C10.7281 67.3201 13.8877 64.1623 16.5624 61.8153C17.5457 60.9482 18.6215 59.9937 19.7344 58.9974C22.2721 56.7431 24.8919 54.4073 27.13 52.5302C30.7566 49.4975 35.0675 46.07 38.1234 43.782C43.5758 39.7024 50.2123 34.8441 59.9824 28.7283C63.2363 26.7005 67.7326 24.0303 71.1792 22.0886C73.5579 20.7497 76.4637 19.2154 79.2776 17.7342C80.4733 17.1053 81.6202 16.4978 82.667 15.9412C86.2629 14.0222 91.1627 11.7795 94.5314 10.2571C97.0748 9.10894 100.175 7.81663 103.167 6.57298C104.468 6.03277 105.721 5.51402 106.851 5.03159C109.479 3.92336 112.696 2.77448 115.817 1.66038C117.154 1.18146 118.45 0.726163 119.618 0.296953C122.817 -0.882514 127.317 -2.30898 133.363 -4.06323C136.432 -4.94967 140.324 -5.9436 143.753 -6.81993C145.04 -7.14802 146.284 -7.47086 147.423 -7.76102C151.061 -8.71067 155.7 -9.59086 159.794 -10.3751C160.995 -10.6056 162.142 -10.8247 163.217 -11.0371C168.958 -12.1657 176.607 -13.1366 180.646 -13.6164C185.333 -14.1642 192.06 -14.7523 197.794 -15.1146C204.799 -15.5504 213.764 -15.6337 219.315 -15.5703C239.445 -15.3458 279.825 -12.3106 324.019 5.41696C335.655 10.0883 350.721 17.4219 361.504 23.6682C372.25 29.8876 384.331 37.9575 392.304 44.219C402.492 52.2307 416.022 64.3308 425.971 74.3322C433.981 82.39 443.205 93.7765 449.165 101.751C455.918 110.793 463.728 122.689 468.588 131.353L469.278 132.582C472.662 138.606 476.87 146.094 479.454 152.172L480.229 153.985C485.656 166.719 492.417 182.563 495.845 195.348C498.9 206.721 502.214 219.708 503.654 229.734C504.59 236.225 505.867 245.119 506.419 251.886C506.979 258.656 507.556 268.649 507.494 276.416C507.398 289.37 506.151 306.59 504.385 319.269C502.708 331.359 499.131 346.513 496.344 356.658C493.578 366.721 489.558 378.408 486.104 386.432C486.011 386.649 485.87 386.982 485.681 387.432C475.543 411.832 464.427 430.092 456.89 441.112C453.639 445.868 448.93 452.554 445.003 457.414C444.357 458.216 443.669 459.076 442.956 459.964C440.374 463.19 437.441 466.857 434.911 469.597C433.914 470.676 432.814 471.883 431.684 473.134C429.237 475.826 426.712 478.611 424.523 480.855C421.987 483.455 417.157 488.339 413.218 491.858C412.504 492.495 411.74 493.188 410.953 493.901C408.128 496.457 404.92 499.343 402.23 501.488C401.32 502.211 400.328 503.015 399.303 503.845C396.804 505.859 393.964 508.145 391.657 509.891C387.097 513.347 383.416 516.003 380.719 517.791C369.975 524.897 367.081 526.806 358.589 531.599C353.109 534.687 345.268 538.662 335.278 543.407C332.409 544.77 328.242 546.535 322.899 548.659C320.203 549.732 316.78 550.973 313.759 552.07C312.487 552.532 311.264 552.972 310.151 553.39C305.936 554.945 300.278 556.665 296.395 557.756C293.707 558.512 286.91 560.393 281.7 561.603C278.542 562.336 274.713 563.097 271.012 563.831C269.443 564.144 267.921 564.444 266.551 564.724C262.862 565.479 258.171 566.104 254.034 566.661C252.878 566.817 251.77 566.96 250.738 567.107C244.81 567.935 237.143 568.521 231.95 568.795C225.365 569.145 216.718 569.331 210.437 569.253C198.917 569.109 183.43 567.859 171.894 566.132C160.191 564.385 145.939 561.067 141.85 560.092C140.893 559.862 139.882 559.608 138.843 559.33L138.859 559.3ZM290.98 -3.81547C260.399 -12.0095 234.247 -13.7269 219.307 -13.8982C213.791 -13.9609 204.87 -13.8829 197.907 -13.4444C192.202 -13.0918 185.51 -12.503 180.849 -11.9569C176.828 -11.4808 169.234 -10.5211 163.548 -9.40379C162.472 -9.19139 161.318 -8.9743 160.117 -8.74383C156.051 -7.96923 151.437 -7.08263 147.847 -6.15437C146.706 -5.85619 145.464 -5.54144 144.166 -5.20743C140.748 -4.33696 136.864 -3.34092 133.824 -2.46411C127.806 -0.719482 123.345 0.691447 120.184 1.85543C119.006 2.2905 117.708 2.75394 116.363 3.2307C113.27 4.33512 110.066 5.47 107.485 6.56491C106.346 7.04518 105.092 7.57201 103.79 8.11222C100.806 9.35803 97.7164 10.6445 95.1935 11.7808C91.8452 13.2914 86.9841 15.5186 83.4291 17.414C82.3822 17.9706 81.2273 18.576 80.0294 19.213C77.2257 20.6883 74.3302 22.2167 71.9719 23.5438C68.5457 25.4737 64.0698 28.132 60.8445 30.1503C51.1194 36.2264 44.5217 41.0691 39.0941 45.1209C36.0607 47.389 31.7805 50.7988 28.1764 53.8116C25.9609 55.6689 23.3432 57.9967 20.8238 60.2473C19.7028 61.2414 18.6249 62.204 17.6416 63.071C15.0099 65.3864 11.8729 68.5243 9.10214 71.2944L7.35568 73.0444C4.19024 76.1919 -0.230079 80.9623 -3.91128 85.1971C-9.27956 91.3791 -13.1756 96.126 -15.8023 99.7113C-16.4521 100.59 -17.1434 101.527 -17.8636 102.507C-20.5269 106.1 -23.5419 110.168 -25.7478 113.504C-31.554 122.287 -35.6741 128.933 -38.349 133.826L-39.2462 135.467C-41.7957 140.117 -44.969 145.903 -47.064 150.468C-52.4294 162.149 -56.385 171.531 -58.8113 178.363C-62.9484 190.001 -67.3929 205.622 -69.8611 217.25C-72.5945 230.093 -74.7289 245.21 -75.2861 255.762C-75.6592 262.696 -76.0882 272.48 -76.0358 279.726C-75.9918 285.908 -75.58 294.519 -74.9817 301.661C-73.9453 314.03 -71.0302 331.726 -67.7371 345.692C-65.1271 356.73 -60.9018 370.341 -57.2074 379.556C-54.0626 387.406 -45.8354 407.216 -37.3699 421.497C-32.5492 429.633 -25.5856 440.37 -20.0443 448.233C-17.16 452.32 -13.1567 457.224 -9.62115 461.554C-8.26367 463.221 -6.94963 464.825 -5.76703 466.307C-0.257896 473.194 8.90324 482.656 18.74 491.627C27.8616 499.948 39.2268 509.077 47.6847 514.882C52.7015 518.323 70.2332 530.115 85.1219 537.177C95.6743 542.188 110.71 548.926 122.448 552.607L124.836 553.359C130.264 555.072 137.022 557.202 142.263 558.451C150.654 560.449 162.92 563.089 172.167 564.47C183.636 566.188 199.031 567.431 210.482 567.574C216.728 567.651 225.331 567.47 231.89 567.122C237.048 566.847 244.654 566.262 250.535 565.447C251.575 565.303 252.686 565.152 253.839 565.003C257.948 564.456 262.604 563.831 266.239 563.087C267.617 562.809 269.133 562.499 270.71 562.188C274.401 561.46 278.212 560.703 281.343 559.971C286.518 558.761 293.295 556.891 295.965 556.14C299.82 555.058 305.428 553.359 309.596 551.818C310.716 551.41 311.941 550.962 313.213 550.5C316.224 549.408 319.639 548.166 322.306 547.102C327.61 544.994 331.741 543.236 334.587 541.893C344.539 537.163 352.349 533.206 357.788 530.141C366.229 525.378 369.113 523.476 379.816 516.393C382.491 514.624 386.141 511.986 390.669 508.556C392.955 506.821 395.782 504.55 398.273 502.533C399.306 501.705 400.299 500.901 401.209 500.179C403.855 498.066 407.042 495.191 409.854 492.657C410.651 491.938 411.412 491.253 412.129 490.608C416.032 487.123 420.83 482.264 423.351 479.686C425.516 477.47 428.03 474.692 430.465 472.013C431.603 470.764 432.705 469.55 433.704 468.462C436.197 465.764 439.106 462.125 441.673 458.921C442.388 458.025 443.076 457.165 443.731 456.365C447.626 451.558 452.3 444.905 455.537 440.171C463.03 429.217 474.082 411.069 484.166 386.802C484.36 386.336 484.503 385.995 484.596 385.778C488.024 377.816 492.013 366.216 494.759 356.224C497.534 346.128 501.087 331.063 502.753 319.047C504.501 306.433 505.751 289.3 505.846 276.415C505.9 268.706 505.327 258.765 504.774 252.032C504.22 245.308 502.95 236.45 502.017 229.977C500.59 220.033 497.286 207.108 494.252 195.784C490.852 183.119 484.119 167.334 478.713 154.649L477.938 152.836C475.383 146.844 471.198 139.396 467.838 133.413L467.14 132.182C462.315 123.579 454.555 111.756 447.839 102.768C441.919 94.8386 432.754 83.5199 424.804 75.5298C414.903 65.5757 401.437 53.5272 391.29 45.5527C383.375 39.3325 371.364 31.3245 360.688 25.1326C349.958 18.9175 334.984 11.6259 323.416 6.99007C312.278 2.52132 301.373 -1.01336 290.992 -3.79506L290.98 -3.81547Z" fill="url(#paint28_angular_5660_16095)"/>
</g>
</g>
<defs>
<radialGradient id="paint0_angular_5660_16095" cx="0" cy="0" r="1" gradientUnits="userSpaceOnUse" gradientTransform="translate(214.905 276.892) rotate(-75) scale(292.5)">
<stop stop-color="#242425"/>
<stop offset="1" stop-color="#83E8FF"/>
</radialGradient>
<radialGradient id="paint1_angular_5660_16095" cx="0" cy="0" r="1" gradientUnits="userSpaceOnUse" gradientTransform="translate(214.905 276.892) rotate(-75) scale(292.5)">
<stop stop-color="#242425"/>
<stop offset="1" stop-color="#83E8FF"/>
</radialGradient>
<radialGradient id="paint2_angular_5660_16095" cx="0" cy="0" r="1" gradientUnits="userSpaceOnUse" gradientTransform="translate(214.905 276.892) rotate(-75) scale(292.5)">
<stop stop-color="#242425"/>
<stop offset="1" stop-color="#83E8FF"/>
</radialGradient>
<radialGradient id="paint3_angular_5660_16095" cx="0" cy="0" r="1" gradientUnits="userSpaceOnUse" gradientTransform="translate(214.905 276.892) rotate(-75) scale(292.5)">
<stop stop-color="#242425"/>
<stop offset="1" stop-color="#83E8FF"/>
</radialGradient>
<radialGradient id="paint4_angular_5660_16095" cx="0" cy="0" r="1" gradientUnits="userSpaceOnUse" gradientTransform="translate(214.905 276.892) rotate(-75) scale(292.5)">
<stop stop-color="#242425"/>
<stop offset="1" stop-color="#83E8FF"/>
</radialGradient>
<radialGradient id="paint5_angular_5660_16095" cx="0" cy="0" r="1" gradientUnits="userSpaceOnUse" gradientTransform="translate(214.905 276.892) rotate(-75) scale(292.5)">
<stop stop-color="#242425"/>
<stop offset="1" stop-color="#83E8FF"/>
</radialGradient>
<radialGradient id="paint6_angular_5660_16095" cx="0" cy="0" r="1" gradientUnits="userSpaceOnUse" gradientTransform="translate(214.905 276.892) rotate(-75) scale(292.5)">
<stop stop-color="#242425"/>
<stop offset="1" stop-color="#83E8FF"/>
</radialGradient>
<radialGradient id="paint7_angular_5660_16095" cx="0" cy="0" r="1" gradientUnits="userSpaceOnUse" gradientTransform="translate(214.905 276.892) rotate(-75) scale(292.5)">
<stop stop-color="#242425"/>
<stop offset="1" stop-color="#83E8FF"/>
</radialGradient>
<radialGradient id="paint8_angular_5660_16095" cx="0" cy="0" r="1" gradientUnits="userSpaceOnUse" gradientTransform="translate(214.905 276.892) rotate(-75) scale(292.5)">
<stop stop-color="#242425"/>
<stop offset="1" stop-color="#83E8FF"/>
</radialGradient>
<radialGradient id="paint9_angular_5660_16095" cx="0" cy="0" r="1" gradientUnits="userSpaceOnUse" gradientTransform="translate(214.905 276.892) rotate(-75) scale(292.5)">
<stop stop-color="#242425"/>
<stop offset="1" stop-color="#83E8FF"/>
</radialGradient>
<radialGradient id="paint10_angular_5660_16095" cx="0" cy="0" r="1" gradientUnits="userSpaceOnUse" gradientTransform="translate(214.905 276.892) rotate(-75) scale(292.5)">
<stop stop-color="#242425"/>
<stop offset="1" stop-color="#83E8FF"/>
</radialGradient>
<radialGradient id="paint11_angular_5660_16095" cx="0" cy="0" r="1" gradientUnits="userSpaceOnUse" gradientTransform="translate(214.905 276.892) rotate(-75) scale(292.5)">
<stop stop-color="#242425"/>
<stop offset="1" stop-color="#83E8FF"/>
</radialGradient>
<radialGradient id="paint12_angular_5660_16095" cx="0" cy="0" r="1" gradientUnits="userSpaceOnUse" gradientTransform="translate(214.905 276.892) rotate(-75) scale(292.5)">
<stop stop-color="#242425"/>
<stop offset="1" stop-color="#83E8FF"/>
</radialGradient>
<radialGradient id="paint13_angular_5660_16095" cx="0" cy="0" r="1" gradientUnits="userSpaceOnUse" gradientTransform="translate(214.905 276.892) rotate(-75) scale(292.5)">
<stop stop-color="#242425"/>
<stop offset="1" stop-color="#83E8FF"/>
</radialGradient>
<radialGradient id="paint14_angular_5660_16095" cx="0" cy="0" r="1" gradientUnits="userSpaceOnUse" gradientTransform="translate(214.905 276.892) rotate(-75) scale(292.5)">
<stop stop-color="#242425"/>
<stop offset="1" stop-color="#83E8FF"/>
</radialGradient>
<radialGradient id="paint15_angular_5660_16095" cx="0" cy="0" r="1" gradientUnits="userSpaceOnUse" gradientTransform="translate(214.905 276.892) rotate(-75) scale(292.5)">
<stop stop-color="#242425"/>
<stop offset="1" stop-color="#83E8FF"/>
</radialGradient>
<radialGradient id="paint16_angular_5660_16095" cx="0" cy="0" r="1" gradientUnits="userSpaceOnUse" gradientTransform="translate(214.905 276.892) rotate(-75) scale(292.5)">
<stop stop-color="#242425"/>
<stop offset="1" stop-color="#83E8FF"/>
</radialGradient>
<radialGradient id="paint17_angular_5660_16095" cx="0" cy="0" r="1" gradientUnits="userSpaceOnUse" gradientTransform="translate(214.905 276.892) rotate(-75) scale(292.5)">
<stop stop-color="#242425"/>
<stop offset="1" stop-color="#83E8FF"/>
</radialGradient>
<radialGradient id="paint18_angular_5660_16095" cx="0" cy="0" r="1" gradientUnits="userSpaceOnUse" gradientTransform="translate(214.905 276.892) rotate(-75) scale(292.5)">
<stop stop-color="#242425"/>
<stop offset="1" stop-color="#83E8FF"/>
</radialGradient>
<radialGradient id="paint19_angular_5660_16095" cx="0" cy="0" r="1" gradientUnits="userSpaceOnUse" gradientTransform="translate(214.905 276.892) rotate(-75) scale(292.5)">
<stop stop-color="#242425"/>
<stop offset="1" stop-color="#83E8FF"/>
</radialGradient>
<radialGradient id="paint20_angular_5660_16095" cx="0" cy="0" r="1" gradientUnits="userSpaceOnUse" gradientTransform="translate(214.905 276.892) rotate(-75) scale(292.5)">
<stop stop-color="#242425"/>
<stop offset="1" stop-color="#83E8FF"/>
</radialGradient>
<radialGradient id="paint21_angular_5660_16095" cx="0" cy="0" r="1" gradientUnits="userSpaceOnUse" gradientTransform="translate(214.905 276.892) rotate(-75) scale(292.5)">
<stop stop-color="#242425"/>
<stop offset="1" stop-color="#83E8FF"/>
</radialGradient>
<radialGradient id="paint22_angular_5660_16095" cx="0" cy="0" r="1" gradientUnits="userSpaceOnUse" gradientTransform="translate(214.905 276.892) rotate(-75) scale(292.5)">
<stop stop-color="#242425"/>
<stop offset="1" stop-color="#83E8FF"/>
</radialGradient>
<radialGradient id="paint23_angular_5660_16095" cx="0" cy="0" r="1" gradientUnits="userSpaceOnUse" gradientTransform="translate(214.905 276.892) rotate(-75) scale(292.5)">
<stop stop-color="#242425"/>
<stop offset="1" stop-color="#83E8FF"/>
</radialGradient>
<radialGradient id="paint24_angular_5660_16095" cx="0" cy="0" r="1" gradientUnits="userSpaceOnUse" gradientTransform="translate(214.905 276.892) rotate(-75) scale(292.5)">
<stop stop-color="#242425"/>
<stop offset="1" stop-color="#83E8FF"/>
</radialGradient>
<radialGradient id="paint25_angular_5660_16095" cx="0" cy="0" r="1" gradientUnits="userSpaceOnUse" gradientTransform="translate(214.905 276.892) rotate(-75) scale(292.5)">
<stop stop-color="#242425"/>
<stop offset="1" stop-color="#83E8FF"/>
</radialGradient>
<radialGradient id="paint26_angular_5660_16095" cx="0" cy="0" r="1" gradientUnits="userSpaceOnUse" gradientTransform="translate(214.905 276.892) rotate(-75) scale(292.5)">
<stop stop-color="#242425"/>
<stop offset="1" stop-color="#83E8FF"/>
</radialGradient>
<radialGradient id="paint27_angular_5660_16095" cx="0" cy="0" r="1" gradientUnits="userSpaceOnUse" gradientTransform="translate(214.905 276.892) rotate(-75) scale(292.5)">
<stop stop-color="#242425"/>
<stop offset="1" stop-color="#83E8FF"/>
</radialGradient>
<radialGradient id="paint28_angular_5660_16095" cx="0" cy="0" r="1" gradientUnits="userSpaceOnUse" gradientTransform="translate(214.905 276.892) rotate(-75) scale(292.5)">
<stop stop-color="#242425"/>
<stop offset="1" stop-color="#83E8FF"/>
</radialGradient>
<clipPath id="clip0_5660_16095">
<path d="M0.666992 16C0.666992 7.16345 7.83044 0 16.667 0H303C311.837 0 319 7.16344 319 16V117C319 125.837 311.837 133 303 133H16.667C7.83046 133 0.666992 125.837 0.666992 117V16Z" fill="white"/>
</clipPath>
</defs>
</svg>
