<svg width="56" height="56" viewBox="0 0 56 56" fill="none" xmlns="http://www.w3.org/2000/svg">
<path d="M32.0664 25.3122L39.1784 24.5537L42.8635 25.3188L42.8768 25.327L36.0825 25.7323L32.0601 25.3188L32.0664 25.3122Z" fill="#575759"/>
<path d="M32.0601 25.3191L39.1722 24.7635L39.2211 24.6922L39.2214 15.9174L39.1725 15.8171L32.0601 17.6668V25.3191Z" fill="#969699"/>
<path d="M42.8769 25.3273L39.1724 24.7635L39.1726 15.8171L42.8768 17.6705L42.8769 25.3273Z" fill="#BCBCC0"/>
<path d="M32.0601 31.6371L32.164 31.7099L39.1734 32.1855L42.7499 31.7099L42.8767 31.6404L36.0825 31.2229L32.0601 31.6371Z" fill="#D5D5D9"/>
<path d="M32.0601 31.6372L39.1734 32.1664L39.1954 32.1959L39.19 41.0786L39.1725 41.1249L32.0601 39.29V31.6372Z" fill="#969699"/>
<path d="M42.8766 31.6404L39.1733 32.1663L39.1724 41.1249L42.8766 39.2858V31.6404Z" fill="#BCBCC0"/>
<path d="M22.8292 25.3054L15.7979 24.7031L12.1467 25.3092L12.1235 25.3273L18.9177 25.7326L22.8669 25.3271L22.8292 25.3054Z" fill="#575759"/>
<path d="M12.1235 25.3273L15.7943 24.7899L15.9023 24.7134V15.9198L15.7943 15.8171L12.1235 17.6709V25.3273Z" fill="#969699"/>
<path d="M22.867 25.3271L15.7944 24.7899V15.8171L22.8673 17.6668L22.867 25.3271Z" fill="#BCBCC0"/>
<path d="M22.8671 31.6404L22.7048 31.7587L15.7946 32.2768L12.2408 31.7587L12.1235 31.6404L18.918 31.2229L22.8671 31.6404Z" fill="#D5D5D9"/>
<path d="M12.1235 31.6404L15.7945 32.1617L15.8878 32.2761L15.8978 40.9655L15.7946 41.1249L12.1238 39.2858L12.1235 31.6404Z" fill="#969699"/>
<path d="M22.8671 31.6404L15.7944 32.1617L15.7946 41.1249L22.8671 39.2899V31.6404Z" fill="#BCBCC0"/>
<path d="M34.8407 32.7837L27.5004 32.0598L20.0869 32.7838L20.1914 32.8721L27.4642 34.0274L34.736 32.8721L34.8407 32.7837Z" fill="#D5D5D9"/>
<path d="M20.0869 32.7839L27.4642 33.8649L27.5391 33.9649L27.5485 46.8139L27.4642 46.9564L20.0869 43.2677V32.7839Z" fill="#969699"/>
<path d="M34.8408 32.7837L27.4644 33.8647V46.9563L34.8409 43.2675L34.8408 32.7837Z" fill="#BCBCC0"/>
<path d="M27.5004 24.8882L20.0869 24.1724L20.106 24.1615L27.4638 23.02L34.8184 24.1641L34.8408 24.1724L27.5004 24.8882Z" fill="#575759"/>
<path d="M20.0869 24.1723L27.4642 23.0973L27.4995 23.0651L27.4832 10.0198L27.4642 10L20.0869 13.6891V24.1723Z" fill="#969699"/>
<path d="M34.8409 24.1723L27.4644 23.0973V10L34.8409 13.6891V24.1723Z" fill="#BCBCC0"/>
</svg>
