<svg width="56" height="56" viewBox="0 0 56 56" fill="none" xmlns="http://www.w3.org/2000/svg">
<g clip-path="url(#clip0_6044_28056)">
<path d="M14.2271 30.321L28.5 38.3539L41.312 31.1851V34.0397L28.5 41.2717L14.9581 33.5734L14.2283 33.9713V34.9658L28.5 43L42.7729 34.9684V29.3923L42.1077 28.9932L28.5 36.6941L15.7551 29.3923V26.5377L28.5 33.7065L42.7729 25.6749V20.1633L42.1077 19.7655L28.5 27.4664L16.419 20.6296L28.5 13.7928L38.5233 19.4348L39.3861 18.904V18.1729L28.5 12L14.2271 20.0988V21.0287L28.5 29.059L41.312 21.8903V24.8095L28.5 32.0467L14.9581 24.3483L14.2283 24.7462L14.2271 30.321Z" fill="#BCBCC0"/>
</g>
<defs>
<clipPath id="clip0_6044_28056">
<rect width="31" height="31" fill="white" transform="translate(13 12)"/>
</clipPath>
</defs>
</svg>
