<svg width="56" height="56" viewBox="0 0 56 56" fill="none" xmlns="http://www.w3.org/2000/svg">
<path d="M43.2486 25.2651C43.1642 25.198 42.3766 24.6033 40.7154 24.6033C40.2768 24.6052 39.8391 24.6428 39.4066 24.7158C39.0851 22.5122 37.2632 21.4378 37.1815 21.3896L36.7354 21.1323L36.4421 21.5557C36.0747 22.1243 35.8065 22.7512 35.649 23.4097C35.3516 24.6676 35.5325 25.8491 36.1715 26.8592C35.3998 27.2892 34.162 27.395 33.9116 27.4044H13.4182C12.8829 27.4051 12.4486 27.8377 12.4456 28.3729C12.4217 30.1683 12.7259 31.9529 13.3432 33.6389C14.0491 35.4903 15.0994 36.854 16.4658 37.6886C17.997 38.6263 20.4846 39.1621 23.3045 39.1621C24.5784 39.1662 25.8499 39.0509 27.1023 38.8179C28.8433 38.4982 30.5186 37.8897 32.0589 37.0174C33.328 36.2825 34.4703 35.3475 35.4414 34.2484C37.065 32.4105 38.0323 30.3635 38.7516 28.5444H39.0383C40.8159 28.5444 41.9091 27.833 42.5119 27.2369C42.9125 26.8567 43.2252 26.3936 43.4282 25.8799L43.5554 25.5075L43.2486 25.2651Z" fill="#D5D5D9"/>
<path d="M15.3179 26.8043H18.0641C18.1965 26.8043 18.3039 26.6969 18.3039 26.5645V24.1183C18.3046 23.9859 18.1979 23.8779 18.0654 23.8772C18.065 23.8772 18.0645 23.8772 18.0641 23.8772H15.3179C15.1855 23.8772 15.0781 23.9846 15.0781 24.117V24.1183V26.5644C15.0781 26.6969 15.1855 26.8043 15.3179 26.8043Z" fill="#D5D5D9"/>
<path d="M19.102 26.8043H21.8482C21.9807 26.8043 22.088 26.6969 22.088 26.5645V24.1183C22.0887 23.9859 21.982 23.8779 21.8495 23.8772C21.8491 23.8772 21.8486 23.8772 21.8482 23.8772H19.102C18.9688 23.8772 18.8608 23.9851 18.8608 24.1183V26.5644C18.8616 26.6971 18.9693 26.8043 19.102 26.8043Z" fill="#D5D5D9"/>
<path d="M22.9439 26.8043H25.6901C25.8226 26.8043 25.9299 26.6969 25.9299 26.5645V24.1183C25.9306 23.9859 25.8239 23.8779 25.6914 23.8772C25.691 23.8772 25.6905 23.8772 25.6901 23.8772H22.9439C22.8114 23.8772 22.7041 23.9846 22.7041 24.117V24.1183V26.5644C22.7041 26.6969 22.8115 26.8043 22.9439 26.8043Z" fill="#D5D5D9"/>
<path d="M26.7408 26.8043H29.4869C29.6196 26.8043 29.7273 26.6972 29.7281 26.5645V24.1183C29.7281 23.9851 29.6201 23.8772 29.4869 23.8772H26.7408C26.6083 23.8772 26.501 23.9846 26.501 24.117V24.1183V26.5644C26.501 26.6969 26.6083 26.8043 26.7408 26.8043Z" fill="#D5D5D9"/>
<path d="M19.102 23.2852H21.8482C21.9808 23.2844 22.0879 23.1767 22.0879 23.044V20.5979C22.0879 20.4655 21.9806 20.3582 21.8482 20.3582H19.102C18.9693 20.3582 18.8616 20.4653 18.8608 20.5979V23.044C18.8616 23.1769 18.9691 23.2844 19.102 23.2852Z" fill="#D5D5D9"/>
<path d="M22.9444 23.2852H25.6906C25.8232 23.2844 25.9303 23.1767 25.9303 23.044V20.5979C25.9303 20.4655 25.823 20.3582 25.6906 20.3582H22.9444C22.8119 20.3582 22.7046 20.4655 22.7046 20.5979V23.044C22.7046 23.1767 22.8117 23.2844 22.9444 23.2852Z" fill="#D5D5D9"/>
<path d="M26.7408 23.2852H29.4869C29.6198 23.2844 29.7273 23.1769 29.7281 23.044V20.5979C29.7273 20.4653 29.6196 20.3582 29.4869 20.3582H26.7408C26.6083 20.3582 26.501 20.4655 26.501 20.5979V23.044C26.501 23.1767 26.6081 23.2844 26.7408 23.2852Z" fill="#D5D5D9"/>
<path d="M26.7408 19.7647H29.4869C29.6196 19.7647 29.7273 19.6576 29.7281 19.5249V17.0774C29.7273 16.9448 29.6196 16.8376 29.4869 16.8376H26.7408C26.6083 16.8376 26.501 16.945 26.501 17.0774V19.5249C26.501 19.6573 26.6083 19.7647 26.7408 19.7647Z" fill="#D5D5D9"/>
<path d="M30.5703 26.8043H33.3165C33.4492 26.8043 33.5569 26.6972 33.5577 26.5645V24.1183C33.5577 23.9851 33.4497 23.8772 33.3165 23.8772H30.5703C30.4379 23.8772 30.3306 23.9846 30.3306 24.117V24.1183V26.5644C30.3306 26.6969 30.4379 26.8043 30.5703 26.8043Z" fill="#D5D5D9"/>
</svg>
