<svg width="56" height="56" viewBox="0 0 56 56" fill="none" xmlns="http://www.w3.org/2000/svg">
<path d="M32.2697 46.9361H32.7188L40.0498 43.2702L40.1718 43.0977V13.8362L40.0498 13.6629L32.7188 10H32.2642L32.2697 46.9361Z" fill="#D5D5D9"/>
<path d="M22.7297 46.9361H22.2744L14.9496 43.2702L14.801 43.0145L14.7256 13.9852L14.9496 13.6629L22.2744 10H22.7354L22.7297 46.9361Z" fill="#969699"/>
<path d="M22.2871 10H32.7119V46.9361H22.2871V10Z" fill="#BCBCC0"/>
<path d="M43.8874 27.6382L43.6397 27.5833L40.1025 27.2535L40.05 27.2796L32.7125 26.9862H22.2872L14.9496 27.2796V21.6843L14.9419 21.6884L14.9496 21.672L22.2872 19.9718H32.7125L40.05 21.672L42.7474 23.1058V22.184L43.8874 22.0593L43.7693 21.8291L40.16 19.2482L40.05 19.2839L32.7125 17.0103H22.2872L14.9496 19.2839V13.6628L11.1123 18.1583V22.0844L11.142 22.0629L12.2523 22.184V23.1247L11.1123 23.7348V27.6413L11.142 27.6382L12.2523 27.6546V29.2943L11.2944 29.3086L11.1123 29.2912V33.1992L12.2523 33.8122V34.7639L11.1601 34.8845L11.1123 34.8486V38.7741L14.9496 43.2701V37.6496L22.2872 39.9232H32.7125L40.0717 37.6429L40.1695 37.6858L43.7313 35.1429L43.8874 34.8896L42.7474 34.7639V33.8313L42.598 33.7716L40.16 35.0858L40.0717 35.2702L32.7125 36.9606V36.9626H22.2872V36.9606L14.9496 35.263V29.6472L22.2872 29.9396V29.9468H32.7125L40.05 29.6472L40.2171 29.724L43.6455 29.4288L43.8874 29.3106L42.7474 29.2943V27.6546L43.8874 27.6382Z" fill="#575759"/>
<path d="M40.0498 37.6497V43.2702L43.8872 38.7741V34.8743L40.072 37.643L40.0498 37.6497Z" fill="#BCBCC0"/>
<path d="M40.0498 35.2753L40.072 35.2701L43.8872 33.2181V29.2942L40.0498 29.6472V35.2753Z" fill="#BCBCC0"/>
<path d="M40.072 21.6772L40.0498 21.6721V27.2797L43.8872 27.6383V23.7163L40.072 21.6772Z" fill="#BCBCC0"/>
<path d="M40.072 19.3059L43.8872 22.0593V18.1593L40.0498 13.6628V19.2839L40.072 19.2916V19.3059Z" fill="#BCBCC0"/>
</svg>
