<svg width="56" height="56" viewBox="0 0 56 56" fill="none" xmlns="http://www.w3.org/2000/svg">
<path d="M18.1179 39.2669L14.5366 40.084V16.8906L18.1179 17.7093V39.2669Z" fill="#969699"/>
<path d="M22.5865 40.6357L18.1182 41.9055V15.1006L22.5865 16.3688V40.6357Z" fill="#969699"/>
<path d="M28.3174 42.0427L22.5854 44.1404V12.8667L28.3174 14.9634V42.0427Z" fill="#969699"/>
<path d="M43.644 39.3369L28.3179 47V10L43.644 17.6631V39.3369Z" fill="#969699"/>
<path d="M25.2622 11.5278L28.3173 10V47L25.2622 45.4727V11.5278Z" fill="#BCBCC0"/>
<path d="M20.2202 14.0486L22.5852 12.8662V44.1343L20.2202 42.9519V14.0486Z" fill="#BCBCC0"/>
<path d="M16.2334 16.042L18.1173 15.1001V41.8994L16.2334 40.9569V16.042Z" fill="#BCBCC0"/>
<path d="M14.5365 16.8906L13 17.6589V39.3413L14.5365 40.1091V16.8906Z" fill="#BCBCC0"/>
</svg>
