<svg width="56" height="56" viewBox="0 0 56 56" fill="none" xmlns="http://www.w3.org/2000/svg">
<path d="M27.7035 37.9766L35.0688 33.791C35.1308 33.7557 35.201 33.7372 35.2723 33.7372C35.3437 33.7372 35.4138 33.7557 35.4758 33.791L42.0502 37.5257C42.1119 37.5603 42.1632 37.6106 42.1989 37.6716C42.2345 37.7326 42.2534 37.8019 42.2534 37.8726C42.2534 37.9432 42.2345 38.0126 42.1989 38.0736C42.1632 38.1345 42.1119 38.1849 42.0502 38.2195L27.7035 46.3687C27.6415 46.404 27.5714 46.4225 27.5 46.4225C27.4286 46.4225 27.3585 46.404 27.2965 46.3687L11.516 37.4031C11.4545 37.3684 11.4032 37.3181 11.3675 37.2571C11.3318 37.1962 11.3128 37.1269 11.3125 37.0563V19.1275C11.3125 18.9864 11.3888 18.8546 11.516 18.7806L25.8627 10.6337C25.9242 10.5982 25.9939 10.5794 26.0649 10.5791C26.1358 10.5789 26.2056 10.5972 26.2674 10.6322C26.3291 10.6673 26.3805 10.7179 26.4166 10.779C26.4528 10.8401 26.4723 10.9096 26.4733 10.9805V18.4499C26.4732 18.5206 26.4543 18.59 26.4186 18.651C26.3828 18.7119 26.3314 18.7623 26.2697 18.7968L18.9021 22.9824C18.8409 23.0169 18.7899 23.0669 18.7542 23.1274C18.7185 23.1879 18.6993 23.2567 18.6986 23.327V32.8637C18.6986 33.0071 18.7773 33.1389 18.9021 33.2106L27.2965 37.979C27.4214 38.0483 27.5786 38.0483 27.7035 37.979V37.9766Z" fill="#BCBCC0"/>
<path d="M28.7304 18.7945L36.098 22.9801C36.1592 23.0146 36.2102 23.0646 36.2459 23.1251C36.2816 23.1856 36.3008 23.2544 36.3015 23.3247V31.6959C36.3015 31.8347 36.3778 31.9688 36.505 32.0405L43.0771 35.7752C43.1386 35.8106 43.2082 35.8295 43.2792 35.8297C43.3502 35.8299 43.42 35.8116 43.4817 35.7766C43.5434 35.7415 43.5949 35.6909 43.631 35.6298C43.6671 35.5687 43.6866 35.4992 43.6876 35.4283V19.1275C43.6873 19.0568 43.6684 18.9875 43.6326 18.9266C43.5969 18.8657 43.5456 18.8153 43.4841 18.7806L29.1374 10.6337C29.0759 10.5982 29.0062 10.5794 28.9352 10.5791C28.8643 10.5789 28.7945 10.5972 28.7328 10.6322C28.671 10.6673 28.6196 10.7179 28.5835 10.779C28.5473 10.8401 28.5278 10.9096 28.5269 10.9805V18.4499C28.5269 18.5933 28.6055 18.7228 28.7304 18.7945Z" fill="#BCBCC0"/>
<path d="M23.7559 33.4673H25.8302V28.7798L30.0782 33.4673H32.77L27.4929 27.6721L32.5064 22.5962H29.7267L25.8302 26.5251V22.5962H23.7559V33.4673Z" fill="#BCBCC0"/>
</svg>
