<svg width="56" height="56" viewBox="0 0 56 56" fill="none" xmlns="http://www.w3.org/2000/svg">
<path d="M12 39.2238C12.0591 39.9596 12.3162 40.6996 12.9872 41.6923C13.7847 42.871 15.1542 43.518 16.1539 42.4795C16.8276 41.7784 24.1206 28.9067 27.6351 24.0279C27.7316 23.8884 27.8599 23.7745 28.0093 23.6959C28.1587 23.6172 28.3247 23.5761 28.4931 23.5761C28.6616 23.5761 28.8276 23.6172 28.977 23.6959C29.1263 23.7745 29.2547 23.8884 29.3511 24.0279C32.8656 28.9067 40.1586 41.7784 40.8324 42.4795C41.832 43.518 43.2015 42.871 43.999 41.6923C44.7827 40.533 45 39.7208 45 38.8517C45 38.2602 33.6425 16.918 32.4985 15.1409C31.3985 13.4332 31.063 13.0611 29.2026 13H27.7836C25.9233 13.0611 25.5878 13.4318 24.4864 15.1409C23.3671 16.8805 12.4538 37.3828 12 38.7878V39.2238Z" fill="#BCBCC0"/>
</svg>
