<svg width="57" height="56" viewBox="0 0 57 56" fill="none" xmlns="http://www.w3.org/2000/svg">
<path d="M45 37.4623C44.5052 37.652 43.9589 37.6516 43.4644 37.4611C42.9698 37.2706 42.5611 36.9032 42.3154 36.4282L37.4279 29.5762L36.7196 28.6183L31.0487 36.4369C30.8177 36.8919 30.4312 37.2461 29.9614 37.4333C29.4916 37.6204 28.9706 37.6277 28.4958 37.4537L35.803 27.5153L29.0058 18.5377C29.4946 18.3592 30.0291 18.3568 30.5194 18.531C31.0096 18.7052 31.4257 19.0454 31.6975 19.4942L36.7635 26.431L41.8578 19.5229C42.0906 19.076 42.4772 18.7313 42.9442 18.5544C43.4112 18.3775 43.926 18.3808 44.3908 18.5636L41.753 22.1124L38.1802 26.8274C38.081 26.9171 38.0016 27.0271 37.9472 27.1501C37.8928 27.2731 37.8647 27.4063 37.8647 27.5411C37.8647 27.6759 37.8928 27.8092 37.9472 27.9322C38.0016 28.0552 38.081 28.1652 38.1802 28.2549L44.9858 37.4637L45 37.4623ZM11.0029 27.3918L11.5979 24.4117C13.2327 18.519 19.8967 16.0675 24.481 19.7154C27.1656 21.8539 27.8357 24.8813 27.7039 28.2937H12.581C12.3359 34.3874 16.6738 38.0669 22.22 36.187C23.1191 35.8589 23.9239 35.3098 24.5623 34.5889C25.2006 33.8681 25.6527 32.998 25.8778 32.0565C26.1711 31.1 26.6542 30.9363 27.541 31.212C27.3932 32.3788 26.9864 33.4963 26.3511 34.4807C25.7158 35.465 24.8686 36.2905 23.8733 36.895C22.2291 37.8067 20.3427 38.1681 18.4837 37.9274C16.6248 37.6868 14.8885 36.8564 13.5231 35.555C12.1731 34.0146 11.3571 32.0687 11.1998 30.0142C11.1998 29.6767 11.0864 29.3608 11.0099 29.0577C11.003 28.5029 10.9997 27.9481 11 27.3932L11.0029 27.3918ZM12.5994 26.981H26.2759C26.1909 22.5633 23.4412 19.4296 19.7734 19.4009C15.6906 19.3434 12.7694 22.4082 12.5895 26.9609L12.5994 26.981Z" fill="#BCBCC0"/>
</svg>
