<svg width="57" height="56" viewBox="0 0 57 56" fill="none" xmlns="http://www.w3.org/2000/svg">
<path d="M31.9689 23.1971L28.8511 26.0839L25.957 20.2764L27.4521 16.9372C27.83 16.2711 28.448 16.2623 28.8258 16.9372L31.9689 23.1971Z" fill="#BCBCC0"/>
<path d="M28.8522 26.0829L17.1899 36.8697L25.9581 20.2766L28.8522 26.0829Z" fill="#969699"/>
<path d="M35.3872 18.782C35.9458 18.2529 36.5208 18.4313 36.6661 19.1829L39.698 36.7235L29.642 42.7271C29.2894 42.9232 28.3542 42.9998 28.3542 42.9998C28.3542 42.9998 27.5037 42.8968 27.1776 42.7183L17.1899 36.8693L35.3872 18.782Z" fill="#D5D5D9"/>
<path d="M25.9581 20.2764L17.1899 36.8695L21.0976 12.6164C21.2442 11.8649 21.6726 11.7882 22.0593 12.4543L25.9581 20.2764Z" fill="#BCBCC0"/>
</svg>
