<svg width="56" height="56" viewBox="0 0 56 56" fill="none" xmlns="http://www.w3.org/2000/svg">
<path d="M27.9999 12.4443C19.4082 12.4443 12.4443 19.4082 12.4443 27.9999C12.4443 36.5915 19.4082 43.5554 27.9999 43.5554C36.5915 43.5554 43.5554 36.5915 43.5554 27.9999C43.5554 19.4082 36.5915 12.4443 27.9999 12.4443ZM15.7869 28.1617L27.8381 40.2129C21.2202 40.127 15.8728 34.7796 15.7869 28.1617ZM30.7339 39.908L16.0918 25.2658C17.3338 19.8363 22.1933 15.7844 27.9999 15.7844C32.058 15.7844 35.6545 17.7643 37.8758 20.8107L36.1846 22.3028C34.3826 19.7194 31.3885 18.0282 27.9999 18.0282C23.6854 18.0282 20.0106 20.7684 18.6218 24.6038L31.396 37.3768C34.4984 36.253 36.884 33.6347 37.6829 30.3917H32.389V27.9999H40.2166C40.2154 33.8065 36.1634 38.666 30.7339 39.908Z" fill="#D5D5D9"/>
</svg>
