<svg width="56" height="56" viewBox="0 0 56 56" fill="none" xmlns="http://www.w3.org/2000/svg">
<path d="M19.4582 12C15.899 12 13 14.899 13 18.4582C13 21.5751 15.2235 24.1861 18.1668 24.7865V33.9582C18.1668 36.8087 20.5112 39.125 23.3332 39.125H23.3804C23.6957 41.3103 25.5843 43 27.8543 43C30.3435 43 32.375 40.9685 32.375 38.4793C32.375 35.9901 30.3435 33.9582 27.8543 33.9582C25.5845 33.9582 23.696 35.6479 23.3804 37.8332H23.3332C21.2172 37.8332 19.4582 36.101 19.4582 33.9582V27.4465C19.8761 27.8729 20.3751 28.2116 20.9257 28.4427C21.4764 28.6737 22.0676 28.7924 22.6647 28.7918H23.3804C23.696 30.9771 25.5843 32.6668 27.8543 32.6668C30.1241 32.6668 32.0124 30.9771 32.3275 28.7918H35.0054C35.321 30.9771 37.2093 32.6668 39.4793 32.6668C41.9685 32.6668 44 30.6349 44 28.1457C44 25.6565 41.9685 23.625 39.4793 23.625C37.2093 23.625 35.3207 25.3147 35.0054 27.5H32.3278C32.0127 25.3147 30.1244 23.625 27.8543 23.625C25.5843 23.625 23.6957 25.3147 23.3804 27.5H22.6647C21.1067 27.5 19.8086 26.3886 19.5192 24.9154C23.0503 24.8824 25.9168 21.997 25.9168 18.4582C25.9168 14.899 23.0174 12 19.4582 12ZM19.4582 13.2918C20.137 13.2905 20.8095 13.4232 21.4369 13.6824C22.0643 13.9415 22.6344 14.322 23.1145 14.802C23.5945 15.282 23.9751 15.8521 24.2343 16.4795C24.4935 17.1069 24.6263 17.7793 24.625 18.4582C24.6263 19.137 24.4935 19.8095 24.2343 20.4369C23.9751 21.0644 23.5946 21.6345 23.1145 22.1145C22.6345 22.5946 22.0644 22.9751 21.4369 23.2343C20.8095 23.4935 20.137 23.6263 19.4582 23.625C18.7793 23.6263 18.1069 23.4935 17.4795 23.2343C16.8521 22.9751 16.282 22.5945 15.802 22.1145C15.322 21.6344 14.9415 21.0643 14.6824 20.4369C14.4232 19.8095 14.2905 19.137 14.2918 18.4582C14.2905 17.7793 14.4232 17.1069 14.6824 16.4795C14.9415 15.8521 15.322 15.282 15.802 14.802C16.282 14.322 16.8521 13.9415 17.4795 13.6824C18.1069 13.4232 18.7793 13.2905 19.4582 13.2918ZM18.1952 15.1182C17.5216 15.1216 16.875 15.6626 16.875 16.3996V20.5272C16.875 21.5063 18.0155 22.1409 18.8476 21.625L22.1496 19.5773C22.9384 19.0881 22.9425 17.8815 22.1574 17.3867L18.8551 15.3063C18.6578 15.1816 18.4286 15.1163 18.1952 15.1182ZM18.1668 16.3996L21.4691 18.4795L18.1668 20.5272V16.3996ZM27.8543 24.9168C28.2787 24.9155 28.6992 24.9981 29.0915 25.1599C29.4839 25.3217 29.8404 25.5594 30.1405 25.8595C30.4406 26.1596 30.6783 26.5161 30.8401 26.9085C31.0019 27.3008 31.0845 27.7213 31.0832 28.1457C31.0845 28.5701 31.0019 28.9906 30.8401 29.3829C30.6783 29.7753 30.4405 30.1318 30.1404 30.4319C29.8403 30.732 29.4839 30.9699 29.0915 31.1317C28.6992 31.2936 28.2787 31.3762 27.8543 31.375C27.4299 31.3763 27.0094 31.2936 26.617 31.1318C26.2246 30.97 25.8681 30.7321 25.568 30.432C25.2679 30.1319 25.03 29.7754 24.8682 29.383C24.7064 28.9906 24.6237 28.5701 24.625 28.1457C24.6238 27.7213 24.7064 27.3008 24.8683 26.9085C25.0301 26.5161 25.268 26.1597 25.5681 25.8596C25.8682 25.5595 26.2247 25.3217 26.6171 25.1599C27.0094 24.9981 27.4299 24.9155 27.8543 24.9168ZM39.4793 24.9168C39.9037 24.9155 40.3242 24.9981 40.7165 25.1599C41.1089 25.3217 41.4654 25.5594 41.7655 25.8595C42.0656 26.1596 42.3033 26.5161 42.4651 26.9085C42.6269 27.3008 42.7095 27.7213 42.7082 28.1457C42.7095 28.5701 42.6269 28.9906 42.4651 29.3829C42.3033 29.7753 42.0655 30.1318 41.7654 30.4319C41.4653 30.732 41.1089 30.9699 40.7165 31.1317C40.3242 31.2936 39.9037 31.3762 39.4793 31.375C39.0549 31.3763 38.6344 31.2936 38.242 31.1318C37.8496 30.97 37.4931 30.7321 37.193 30.432C36.8929 30.1319 36.655 29.7754 36.4932 29.383C36.3314 28.9906 36.2487 28.5701 36.25 28.1457C36.2488 27.7213 36.3314 27.3008 36.4933 26.9085C36.6551 26.5161 36.893 26.1597 37.1931 25.8596C37.4932 25.5595 37.8497 25.3217 38.2421 25.1599C38.6344 24.9981 39.0549 24.9155 39.4793 24.9168ZM29.1699 26.6003C29.085 26.6002 29.001 26.6168 28.9226 26.6493C28.8442 26.6817 28.7729 26.7292 28.7129 26.7892L27.1871 28.3135L26.6802 27.8088C26.5589 27.6879 26.3945 27.6201 26.2233 27.6204C26.052 27.6207 25.8878 27.689 25.7669 27.8102C25.7071 27.8703 25.6596 27.9417 25.6273 28.0201C25.595 28.0985 25.5785 28.1826 25.5787 28.2674C25.5788 28.3522 25.5957 28.4362 25.6284 28.5145C25.661 28.5928 25.7087 28.6639 25.7689 28.7238L26.7313 29.6828C26.8524 29.8035 27.0164 29.8713 27.1874 29.8712C27.3584 29.8712 27.5223 29.8033 27.6434 29.6826L29.6257 27.703C29.6857 27.643 29.7333 27.5718 29.7658 27.4935C29.7983 27.4151 29.8151 27.3311 29.8151 27.2463C29.8152 27.1615 29.7985 27.0774 29.7661 26.9991C29.7337 26.9207 29.6861 26.8494 29.6262 26.7894C29.5051 26.6685 29.341 26.6003 29.1699 26.6003ZM40.7949 26.6003C40.71 26.6002 40.626 26.6168 40.5476 26.6493C40.4692 26.6817 40.3979 26.7292 40.3379 26.7892L38.8121 28.3135L38.3052 27.8088C38.1839 27.6879 38.0195 27.6201 37.8483 27.6204C37.677 27.6207 37.5128 27.689 37.3919 27.8102C37.3321 27.8703 37.2846 27.9417 37.2523 28.0201C37.22 28.0985 37.2035 28.1826 37.2037 28.2674C37.2038 28.3522 37.2207 28.4362 37.2534 28.5145C37.286 28.5928 37.3337 28.6639 37.3939 28.7238L38.3563 29.6828C38.4774 29.8035 38.6414 29.8713 38.8124 29.8712C38.9834 29.8712 39.1473 29.8033 39.2684 29.6826L41.2507 27.703C41.3107 27.643 41.3583 27.5718 41.3908 27.4935C41.4233 27.4151 41.4401 27.3311 41.4401 27.2463C41.4402 27.1615 41.4235 27.0774 41.3911 26.9991C41.3587 26.9207 41.3111 26.8494 41.2512 26.7894C41.1301 26.6685 40.966 26.6003 40.7949 26.6003ZM27.8543 35.25C28.2787 35.2488 28.6992 35.3314 29.0915 35.4933C29.4839 35.6551 29.8403 35.893 30.1404 36.1931C30.4405 36.4932 30.6783 36.8497 30.8401 37.2421C31.0019 37.6344 31.0845 38.0549 31.0832 38.4793C31.0845 38.9037 31.0019 39.3242 30.8401 39.7165C30.6783 40.1089 30.4406 40.4654 30.1405 40.7655C29.8404 41.0656 29.4839 41.3033 29.0915 41.4651C28.6992 41.6269 28.2787 41.7095 27.8543 41.7082C27.4299 41.7095 27.0094 41.6269 26.6171 41.4651C26.2247 41.3033 25.8682 41.0655 25.5681 40.7654C25.268 40.4653 25.0301 40.1089 24.8683 39.7165C24.7064 39.3242 24.6238 38.9037 24.625 38.4793C24.6237 38.0549 24.7064 37.6344 24.8682 37.242C25.03 36.8496 25.2679 36.4931 25.568 36.193C25.8681 35.8929 26.2246 35.655 26.617 35.4932C27.0094 35.3314 27.4299 35.2487 27.8543 35.25ZM26.5625 37.5106C26.0314 37.5106 25.5938 37.9482 25.5938 38.4793C25.5938 39.0109 26.0316 39.4481 26.5625 39.4481C27.0934 39.4481 27.5312 39.0109 27.5312 38.4793C27.5312 37.9482 27.0936 37.5106 26.5625 37.5106ZM29.1457 37.5106C28.6146 37.5106 28.1769 37.9482 28.1769 38.4793C28.1769 39.0109 28.6148 39.4481 29.1457 39.4481C29.6765 39.4481 30.1144 39.0109 30.1144 38.4793C30.1144 37.9482 29.6768 37.5106 29.1457 37.5106ZM26.5625 38.1562C26.7441 38.1562 26.8856 38.2979 26.8856 38.4793C26.8856 38.6617 26.7444 38.8019 26.5625 38.8019C26.3809 38.8019 26.2394 38.6615 26.2394 38.4793C26.2394 38.2977 26.3811 38.1562 26.5625 38.1562ZM29.1457 38.1562C29.3273 38.1562 29.4688 38.2979 29.4688 38.4793C29.4688 38.6617 29.3276 38.8019 29.1457 38.8019C28.964 38.8019 28.8231 38.6615 28.8231 38.4793C28.8231 38.2977 28.9643 38.1562 29.1457 38.1562Z" fill="#BCBCC0"/>
<path d="M39.4814 33.9583C37.21 33.9583 35.3207 35.6518 35.0086 37.8407C34.9873 37.8387 34.9659 37.8378 34.9445 37.838L34.2909 37.8598C34.1199 37.8654 33.958 37.9388 33.841 38.0637C33.724 38.1886 33.6614 38.3549 33.6668 38.5261C33.6725 38.6972 33.7458 38.8592 33.8707 38.9762C33.9956 39.0933 34.1619 39.156 34.333 39.1504L34.9866 39.1293C34.9944 39.129 35.0023 39.1285 35.0101 39.1279C35.3265 41.3117 37.2134 42.9999 39.4814 42.9999C41.9694 42.9999 43.9998 40.9685 43.9998 38.4793C43.9998 35.9902 41.9694 33.9583 39.4814 33.9583ZM39.4814 35.2501C39.9056 35.2488 40.3258 35.3315 40.718 35.4933C41.1101 35.6552 41.4664 35.893 41.7663 36.1931C42.0663 36.4933 42.3039 36.8497 42.4657 37.2421C42.6274 37.6345 42.7099 38.0549 42.7086 38.4793C42.71 38.9037 42.6274 39.3242 42.4657 39.7165C42.304 40.1089 42.0663 40.4653 41.7664 40.7654C41.4664 41.0655 41.1101 41.3033 40.718 41.4651C40.3258 41.6269 39.9055 41.7095 39.4814 41.7081C39.0572 41.7094 38.6369 41.6268 38.2447 41.465C37.8525 41.3032 37.4962 41.0655 37.1962 40.7654C36.8963 40.4653 36.6585 40.1088 36.4968 39.7165C36.335 39.3242 36.2523 38.9037 36.2536 38.4793C36.2523 38.0549 36.3349 37.6344 36.4967 37.242C36.6584 36.8497 36.8962 36.4932 37.1961 36.193C37.4961 35.8929 37.8524 35.6551 38.2446 35.4933C38.6368 35.3314 39.0571 35.2488 39.4814 35.2501Z" fill="#D5D5D9"/>
</svg>
