<svg width="100" height="100" viewBox="0 0 100 100" fill="none" xmlns="http://www.w3.org/2000/svg">
<path d="M18.5797 65.2407C15.5686 69.7958 15.8493 76.1371 18.669 79.5246C19.9258 81.0366 21.7057 81.649 21.7057 81.649C23.8748 82.523 25.8397 82.2104 26.6754 82.0318C27.0837 82.8101 27.8493 84.0286 29.1762 85.1068C33.1124 88.3029 38.0311 87.078 38.3246 86.9951C40.2512 86.4784 41.6802 85.4768 42.6116 84.6347C43.9513 85.1387 45.1124 85.3938 45.9418 85.5278C47.6324 85.8085 50.1268 86.1849 52.7998 85.1259C53.7823 84.7367 54.5287 84.2519 55.0072 83.9074C55.7089 84.8069 57.0104 86.2487 59.0646 87.3077C59.575 87.5693 65.7121 90.6379 70.0885 87.2886C70.7201 86.8037 72.3214 85.4194 73.0805 82.5358C73.5654 82.6698 76.6786 83.4927 79.3708 81.6107C81.7249 79.9712 82.1842 77.3683 82.4202 76.035C82.9498 73.0366 81.9928 70.6379 81.5462 69.6809C82.1459 69.1833 84.1108 67.4098 84.6467 64.3922C84.7743 63.665 85.2719 60.3795 83.0135 57.5469C81.3612 55.4736 79.1794 54.8356 78.4202 54.6506C78.618 53.8277 79.3453 50.4401 77.9673 46.7782C77.4187 45.3109 76.4745 43.0015 73.9737 41.6809C71.1411 40.1881 68.2703 41.0302 67.6068 41.2471C67.5048 40.4879 67.2177 39.2631 66.3182 38.1403C64.3022 35.6203 60.3979 35.1227 57.5335 36.3348C55.5239 37.1833 54.3883 38.7208 53.8525 39.582C53.3612 39.1801 52.5064 38.5868 51.3006 38.2296C50.6371 38.0318 48.8572 37.5342 46.8732 38.3316C45.425 38.9186 44.5638 39.9202 44.1683 40.4688C43.8238 40.0095 42.5542 38.4018 40.2576 37.8851C37.693 37.3109 35.6834 38.5039 35.1411 38.8356C33.9801 39.5501 33.2719 40.4497 32.8891 41.0174C32.6914 40.8962 28.8126 38.5549 25.5526 40.3795C23.1411 41.732 22.4202 44.5836 22.2416 45.3811C21.878 46.9696 21.8844 50.3189 21.8844 50.3189C18.7903 50.2359 16.0981 52.909 15.4601 56.5709C14.8796 59.9202 16.1427 63.4544 18.5861 65.2216L18.5797 65.2407Z" fill="#FFC83F"/>
<path d="M20.4107 72.8135C20.0343 73.6237 18.7329 76.1691 15.7919 77.5089C10.8924 79.7353 6.17146 76.4435 5.96094 76.2904" stroke="#F4F3EF" stroke-width="1.5" stroke-linecap="round" stroke-linejoin="round"/>
<path d="M67.139 87.0396C69.0656 91.5499 69.3527 94.5228 68.0002 95.9582C65.5505 98.5675 57.71 96.1113 44.4723 88.5898L41.0273 91.2246" stroke="#F4F3EF" stroke-width="1.5" stroke-linecap="round" stroke-linejoin="round"/>
<path d="M34.7108 85.9233C32.1972 93.5725 34.2514 95.6905 34.7108 96.1052C37.6135 98.7399 45.7474 95.7734 55.0616 88.3284C56.1143 89.3875 57.1669 90.4465 58.2195 91.5055" stroke="#F4F3EF" stroke-width="1.5" stroke-linecap="round" stroke-linejoin="round"/>
<path d="M5.05347 71.4097C2.91631 71.4097 2.08058 72.2518 2.08058 72.2518C2.08058 72.2518 1.34693 75.9966 4.30706 76.2709C7.26718 76.5452 6.77595 72.5452 6.77595 72.5452" stroke="#F4F3EF" stroke-width="1.5" stroke-linecap="round" stroke-linejoin="round"/>
<path d="M78.9219 72.4814C79.2345 73.1385 80.7528 76.1242 84.2743 77.4001C88.9889 79.1035 93.0463 76.2007 93.3716 75.9583" stroke="#F4F3EF" stroke-width="1.5" stroke-linecap="round" stroke-linejoin="round"/>
<path d="M94.3345 70.6251C96.6311 70.4784 97.2436 71.933 97.2436 71.933C97.2436 71.933 97.9709 75.665 95.0235 75.9393C92.0761 76.2137 92.561 72.22 92.561 72.22" stroke="#F4F3EF" stroke-width="1.5" stroke-linecap="round" stroke-linejoin="round"/>
<path d="M48.3711 70.6187C48.5114 71.5373 49.3089 72.2135 50.2276 72.2135C51.1398 72.2135 51.9245 71.5309 52.0649 70.6187" stroke="#212121" stroke-width="1.5" stroke-linecap="round" stroke-linejoin="round"/>
<path d="M42.293 65.8788C42.9564 67.0845 44.2451 67.8182 45.6104 67.7544C46.9309 67.697 48.1239 66.9059 48.6981 65.7065" stroke="#212121" stroke-width="1.5" stroke-linecap="round" stroke-linejoin="round"/>
<path d="M51.5859 66.223C52.3642 67.4288 53.7805 68.0412 55.133 67.7733C56.9448 67.4096 57.6146 65.668 57.6529 65.5659" stroke="#212121" stroke-width="1.5" stroke-linecap="round" stroke-linejoin="round"/>
<path d="M21.2578 78.2231C23.1589 79.6649 25.883 79.9265 28.0202 78.8675C28.1414 79.3587 28.6709 81.2598 30.5465 82.5421C31.9691 83.5118 33.4109 83.6011 33.9915 83.6075" stroke="#212121" stroke-width="1.5" stroke-linecap="round" stroke-linejoin="round"/>
<path d="M65.1367 84.0284C65.7492 83.9774 66.9996 83.7987 68.2755 82.9439C69.8704 81.8721 70.5211 80.4048 70.7444 79.8498C72.722 80.3984 74.7444 79.7604 75.7906 78.2995C76.7603 76.9534 76.5307 75.4096 76.4669 75.0396" stroke="#212121" stroke-width="1.5" stroke-linecap="round" stroke-linejoin="round"/>
<path d="M59.2617 44.0225C59.6317 43.8885 61.1373 43.4036 62.7769 44.1118C65.0352 45.0815 65.552 47.4611 65.5966 47.6843C66.1006 47.4674 67.4467 46.9698 69.0863 47.3462C71.5998 47.9204 72.7482 50.0703 72.914 50.3957" stroke="#212121" stroke-width="1.5" stroke-linecap="round" stroke-linejoin="round"/>
<path d="M26.737 51.6585C26.6477 49.9041 27.4771 48.2582 28.8997 47.4097C30.686 46.3443 33.1357 46.7207 34.6987 48.3985C35.0177 47.0588 36.115 46.0445 37.4675 45.8467C38.7753 45.6553 40.0831 46.2677 40.7849 47.3969" stroke="#212121" stroke-width="1.5" stroke-linecap="round" stroke-linejoin="round"/>
<path d="M41.1875 29.2729C41.1875 29.2729 43.0631 29.3622 44.02 30.3446C44.977 31.3271 45.2066 33.1325 45.2066 33.1325C45.2066 33.1325 44.9706 31.4674 46.0998 30.3382C46.9036 29.3558 48.843 29.3047 48.843 29.3047C48.843 29.3047 47.0376 29.3558 46.087 28.3797C45.1365 27.4036 45.1492 25.5854 45.1492 25.5854C45.1492 25.5854 45.0216 27.6142 43.835 28.5966C42.8526 29.4068 41.1939 29.2729 41.1939 29.2729H41.1875Z" stroke="#F4F3EF" stroke-width="1.5" stroke-linecap="round" stroke-linejoin="round"/>
<path d="M44.4805 7.36523C44.4805 7.36523 47.2109 7.49282 48.6017 8.92185C49.9924 10.3509 50.3242 12.9729 50.3242 12.9729C50.3242 12.9729 49.9861 10.555 51.6256 8.91547C52.7931 7.48644 55.6128 7.40989 55.6128 7.40989C55.6128 7.40989 52.9908 7.48644 51.6065 6.0638C50.2221 4.64115 50.2412 2 50.2412 2C50.2412 2 50.0499 4.94737 48.3274 6.3764C46.8983 7.55662 44.4868 7.35885 44.4868 7.35885L44.4805 7.36523Z" stroke="#F4F3EF" stroke-width="1.5" stroke-linecap="round" stroke-linejoin="round"/>
<path d="M39.3945 14.3765V22.0894" stroke="#F4F3EF" stroke-width="1.5" stroke-linecap="round" stroke-linejoin="round"/>
<path d="M36.543 20.9604L41.8891 15.6079" stroke="#F4F3EF" stroke-width="1.5" stroke-linecap="round" stroke-linejoin="round"/>
<path d="M36.5039 15.5693L41.6841 20.7432" stroke="#F4F3EF" stroke-width="1.5" stroke-linecap="round" stroke-linejoin="round"/>
<path d="M35.4648 18.2809L42.929 18.1533" stroke="#F4F3EF" stroke-width="1.5" stroke-linecap="round" stroke-linejoin="round"/>
</svg>
