<svg width="57" height="56" viewBox="0 0 57 56" fill="none" xmlns="http://www.w3.org/2000/svg">
<g clip-path="url(#clip0_4601_15780)">
<path d="M12.8271 12.5139H44.1121V43.7988H12.8271V12.5139Z" fill="#969699"/>
<path d="M30.5658 37.1651V27.3116C30.5658 27.3116 31.2065 24.954 22.6708 28.2764C22.6558 28.319 22.6558 19.1638 22.6558 19.1638L25.4451 19.1462V25.0115C25.4451 25.0115 33.2538 21.9356 33.2538 27.3441V37.1651H30.5658ZM32.1551 22.6965H29.1968C30.2617 21.395 31.2253 19.1638 31.2253 19.1638H34.2837C34.285 19.1638 33.7606 20.6179 32.1551 22.6965ZM22.7058 37.1488V31.5376L25.5114 34.3432L22.7058 37.1488Z" fill="#242425"/>
</g>
<defs>
<clipPath id="clip0_4601_15780">
<rect width="31.2849" height="31.2849" fill="white" transform="translate(12.8271 12.5139)"/>
</clipPath>
</defs>
</svg>
