<svg width="100" height="100" viewBox="0 0 100 100" fill="none" xmlns="http://www.w3.org/2000/svg">
<path d="M51.0255 45.5871C51.0255 45.5871 46.4919 30.4576 33.1317 30.1519C19.7714 29.8462 9.91707 49.7305 21.6707 68.2878C33.4244 86.8452 52.2419 98.0004 52.2419 98.0004C55.1884 96.6475 79.6063 84.9979 83.483 61.5817C84.153 57.5424 85.4084 49.9777 82.3382 42.3674C82.2016 42.0226 78.9559 34.2237 72.8612 31.4853C65.368 28.116 56.2031 33.5733 51.0255 45.5871Z" fill="#FFC83F"/>
<path d="M52.8504 25.5144C52.8504 25.5144 52.0243 24.0639 50.6779 24.3436C49.3315 24.6233 48.8371 26.8999 50.4698 28.5325C52.1024 30.1651 54.2619 30.8741 54.2619 30.8741C54.2619 30.8741 56.5059 27.9471 56.4929 26.399C56.4799 24.8509 56.0181 23.6996 54.6912 23.55C53.3643 23.4004 52.974 24.89 52.8504 25.5079V25.5144Z" fill="#F4F3EF"/>
<path d="M60.7532 14.2941C60.7532 14.2941 61.7679 12.8241 63.238 13.2599C64.708 13.6957 65.1048 16.1804 63.1859 17.7741C61.2671 19.3677 58.8344 19.9075 58.8344 19.9075C58.8344 19.9075 56.5513 16.5447 56.6684 14.8926C56.7855 13.2404 57.3774 12.0501 58.8539 12.0176C60.3305 11.985 60.6622 13.6307 60.7597 14.3006L60.7532 14.2941Z" stroke="#F4F3EF" stroke-width="1.5" stroke-linecap="round" stroke-linejoin="round"/>
<path d="M48.0888 4.36815C48.0888 4.36815 47.3928 2.05254 45.3634 2.00051C43.334 1.95497 41.838 4.99258 43.6267 7.83505C45.4154 10.6775 48.2774 12.3882 48.2774 12.3882C48.2774 12.3882 52.5054 8.99935 53.0192 6.82034C53.5331 4.64133 53.2599 2.8591 51.3996 2.21515C49.5393 1.57121 48.4726 3.54207 48.0823 4.37465L48.0888 4.36815Z" fill="#F4F3EF"/>
<path d="M2 33.5537L12.765 37.7556" stroke="#F4F3EF" stroke-width="1.5" stroke-linecap="round" stroke-linejoin="round"/>
<path d="M6.53125 22.854L14.7725 30.6204" stroke="#F4F3EF" stroke-width="1.5" stroke-linecap="round" stroke-linejoin="round"/>
<path d="M17.043 18.3789L21.388 26.3925" stroke="#F4F3EF" stroke-width="1.5" stroke-linecap="round" stroke-linejoin="round"/>
<path d="M79.8975 18.0083L78.8828 25.6901" stroke="#F4F3EF" stroke-width="1.5" stroke-linecap="round" stroke-linejoin="round"/>
<path d="M89.7899 22.1387L83.5195 28.6562" stroke="#F4F3EF" stroke-width="1.5" stroke-linecap="round" stroke-linejoin="round"/>
<path d="M86.9336 35.2257L97.0286 32.3442" stroke="#F4F3EF" stroke-width="1.5" stroke-linecap="round" stroke-linejoin="round"/>
<path d="M45.7461 67.1367C45.7461 67.1367 63.7506 77.9927 80.8639 70.5841" stroke="#212121" stroke-width="1.5" stroke-linecap="round" stroke-linejoin="round"/>
<path d="M45.6564 61.8813C45.6564 61.8813 47.211 66.1808 44.9149 67.2215C42.6188 68.2688 40.4268 67.9175 38.6641 64.6197" stroke="#212121" stroke-width="1.5" stroke-linecap="round" stroke-linejoin="round"/>
<path d="M39.8164 61.3413C39.8164 61.3413 40.8181 64.5285 43.602 67.358" stroke="#212121" stroke-width="1.5" stroke-linecap="round" stroke-linejoin="round"/>
<path d="M42.8281 60.0273C42.8281 60.0273 42.9517 64.1642 45.6186 65.9529" stroke="#212121" stroke-width="1.5" stroke-linecap="round" stroke-linejoin="round"/>
<path d="M26.2344 74.9421C26.2344 74.9421 45.7089 79.4562 61.3457 65.8618" stroke="#212121" stroke-width="1.5" stroke-linecap="round" stroke-linejoin="round"/>
<path d="M61.1892 60.2095C61.1892 60.2095 59.9208 64.7106 62.1909 65.7708C64.461 66.8311 67.3034 65.4521 68.4222 61.9332" stroke="#212121" stroke-width="1.5" stroke-linecap="round" stroke-linejoin="round"/>
<path d="M64.1878 58.3101C64.1878 58.3101 64.0967 62.5575 61.6641 64.6389" stroke="#212121" stroke-width="1.5" stroke-linecap="round" stroke-linejoin="round"/>
<path d="M66.3801 59.0386C66.3801 59.0386 66.9135 62.8957 63.4141 66.1025" stroke="#212121" stroke-width="1.5" stroke-linecap="round" stroke-linejoin="round"/>
<path d="M50.5742 57.6273C50.5742 57.6273 51.4068 59.2535 53.0785 59.3575C54.7501 59.4616 55.277 58.1867 55.1404 57.146" stroke="#212121" stroke-width="1.5" stroke-linecap="round" stroke-linejoin="round"/>
<path d="M44.0586 53.5031C44.0586 53.5031 45.1253 55.1422 47.5905 54.5503C50.0557 53.9584 50.6086 52.0591 50.6086 52.0591" stroke="#212121" stroke-width="1.5" stroke-linecap="round" stroke-linejoin="round"/>
<path d="M53.7031 52.2805C53.7031 52.2805 55.0756 54.1668 57.5993 53.5163C60.1231 52.8659 60.5719 50.895 60.5719 50.895" stroke="#212121" stroke-width="1.5" stroke-linecap="round" stroke-linejoin="round"/>
</svg>
