<svg width="100" height="100" viewBox="0 0 100 100" fill="none" xmlns="http://www.w3.org/2000/svg">
<path d="M68.8164 49.0944C68.8164 49.0944 76.5123 46.8723 79.4382 51.0102" stroke="#F4F3EF" stroke-width="1.5" stroke-linecap="round" stroke-linejoin="round"/>
<path d="M90.6806 47.1391C90.6806 47.1391 83.0889 42.7862 78.4297 49.9086" stroke="#F4F3EF" stroke-width="1.5" stroke-linecap="round" stroke-linejoin="round"/>
<path d="M81.3281 42.0176C81.3281 42.0176 84.5407 42.982 84.9187 45.8297" stroke="#F4F3EF" stroke-width="1.5" stroke-linecap="round" stroke-linejoin="round"/>
<path d="M81.3269 39.4043C81.3269 39.4043 81.5159 42.1933 80.1931 43.451C78.8702 44.7087 78.4271 45.5167 78.4271 45.5167L76.3223 44.9758L76.7003 40.4795L75.5664 42.0109" stroke="#F4F3EF" stroke-width="1.5" stroke-linecap="round" stroke-linejoin="round"/>
<path d="M68.8164 60.2568C68.8164 60.2568 82.5595 62.7005 89.6429 58.1129C96.7263 53.5254 98.616 47.048 98.616 47.048C98.616 47.048 86.7301 36.6152 81.341 35.8072C75.9454 34.9992 72.3548 37.3386 72.2636 40.5707C72.1724 43.8094 73.2085 45.7382 76.3233 44.9758" stroke="#F4F3EF" stroke-width="1.5" stroke-linecap="round" stroke-linejoin="round"/>
<path d="M30.7741 49.0944C30.7741 49.0944 23.1043 47.1525 20.1719 51.2904" stroke="#F4F3EF" stroke-width="1.5" stroke-linecap="round" stroke-linejoin="round"/>
<path d="M8.9375 47.4258C8.9375 47.4258 16.5291 43.0728 21.1884 50.1952" stroke="#F4F3EF" stroke-width="1.5" stroke-linecap="round" stroke-linejoin="round"/>
<path d="M18.2898 42.2974C18.2898 42.2974 15.0772 43.2618 14.6992 46.1095" stroke="#F4F3EF" stroke-width="1.5" stroke-linecap="round" stroke-linejoin="round"/>
<path d="M18.2867 39.6909C18.2867 39.6909 18.0977 42.48 19.4205 43.7376C20.7434 44.9953 21.1865 45.8033 21.1865 45.8033L23.2913 45.2625L22.9133 40.7661L24.0472 42.2975" stroke="#F4F3EF" stroke-width="1.5" stroke-linecap="round" stroke-linejoin="round"/>
<path d="M31.2884 60.4587C31.2884 60.4587 17.0565 62.9806 9.97312 58.393C2.88976 53.8055 1 47.3347 1 47.3347C1 47.3347 12.886 36.9019 18.275 36.0938C23.6706 35.2858 27.2612 37.6252 27.3524 40.8573C27.4437 44.0895 26.4075 46.0249 23.2927 45.2624" stroke="#F4F3EF" stroke-width="1.5" stroke-linecap="round" stroke-linejoin="round"/>
<path d="M30.1742 21.5689C30.1742 21.5689 31.3602 16.7337 38.4761 15.8605C45.592 14.9808 63.1212 16.7402 65.7539 17.3267C68.3865 17.9132 69.4422 19.816 69.5725 25.6742C69.7028 31.5325 69.5725 90.3954 69.5725 93.028C69.5725 95.6607 66.9399 96.397 64.5679 96.5404C62.1959 96.6837 43.2201 97.8567 37.8179 97.4201C32.4158 96.9835 30.3045 92.0049 30.1742 88.0495C30.0438 84.094 29.7767 24.6446 30.1742 21.5689Z" fill="#FFC83F"/>
<path d="M46.5234 53.897C46.5234 53.897 47.4944 56.295 49.9315 56.6795C52.3687 57.064 53.3396 55.3632 53.3005 53.897" stroke="#212121" stroke-width="1.5" stroke-linecap="round" stroke-linejoin="round"/>
<path d="M54.6976 42.6948C52.5212 42.6948 50.7617 44.4934 50.7617 46.7155C50.7617 48.5205 51.9347 50.0258 53.5377 50.5341L55.3428 42.76C55.1342 42.7274 54.9192 42.6948 54.7042 42.6948H54.6976Z" fill="#F4F3EF" stroke="#212121" stroke-width="1.5" stroke-linecap="round" stroke-linejoin="round"/>
<path d="M55.3363 42.7598L53.5312 50.5339C53.9027 50.6512 54.2872 50.7294 54.6912 50.7294C56.8677 50.7294 58.6271 48.9308 58.6271 46.7087C58.6271 44.7147 57.2 43.0726 55.3298 42.7598H55.3363Z" fill="#212121" stroke="#212121" stroke-width="1.5" stroke-linecap="round" stroke-linejoin="round"/>
<path d="M44.0039 43.1577C41.671 43.1577 39.7812 45.1126 39.7812 47.5237C39.7812 49.5829 41.1692 51.3032 43.0264 51.7594L44.9618 43.2815C44.6555 43.2098 44.3362 43.1577 44.0039 43.1577Z" fill="#F4F3EF" stroke="#212121" stroke-width="1.5" stroke-linecap="round" stroke-linejoin="round"/>
<path d="M44.9627 43.2817L43.0273 51.7596C43.3401 51.8378 43.666 51.8899 44.0048 51.8899C46.3377 51.8899 48.2275 49.935 48.2275 47.5239C48.2275 45.4517 46.8329 43.7314 44.9627 43.2817Z" fill="#212121" stroke="#212121" stroke-width="1.5" stroke-linecap="round" stroke-linejoin="round"/>
<path d="M21.1641 7.88428L26.8073 14.72" stroke="#F4F3EF" stroke-width="1.5" stroke-linecap="round" stroke-linejoin="round"/>
<path d="M34.2148 2.71045L36.6324 11.0971" stroke="#F4F3EF" stroke-width="1.5" stroke-linecap="round" stroke-linejoin="round"/>
<path d="M48.3682 2L45.8203 10.2368" stroke="#F4F3EF" stroke-width="1.5" stroke-linecap="round" stroke-linejoin="round"/>
<path d="M32.6784 25.9609H66.1468C66.1468 25.9609 67.0721 30.9395 66.8049 36.5045C66.5443 42.0695 66.8505 85.7035 66.8505 85.7035L32.6719 86.4334V25.9609H32.6784Z" stroke="#212121" stroke-width="1.5" stroke-linecap="round" stroke-linejoin="round"/>
<path d="M40.8483 21.1257C40.8483 21.1257 46.3807 20.6891 48.492 21.1257C50.6034 21.5623 50.6034 23.9082 48.492 23.9082H40.8483C38.6066 23.9082 39.0041 21.243 40.8483 21.1257Z" fill="#F4F3EF" stroke="#212121" stroke-width="1.5" stroke-linecap="round" stroke-linejoin="round"/>
<path d="M44.6925 91.8486C44.5752 89.5092 53.8937 89.0661 53.8937 91.8486C53.8937 94.6311 44.8489 94.9244 44.6925 91.8486Z" fill="#F4F3EF" stroke="#212121" stroke-width="1.5" stroke-linecap="round" stroke-linejoin="round"/>
</svg>
