<svg width="56" height="56" viewBox="0 0 56 56" fill="none" xmlns="http://www.w3.org/2000/svg">
<path d="M27.4359 24.6676C26.1406 26.8603 24.8943 28.9913 23.6234 31.11C23.2935 31.6521 23.1347 32.0955 23.3913 32.7853C24.1122 34.6946 23.098 36.5424 21.1918 37.0474C19.3956 37.5278 17.6482 36.333 17.2938 34.399C16.9761 32.6868 18.2958 30.9992 20.1776 30.7282C20.3365 30.7035 20.4953 30.7035 20.7641 30.6789C21.6806 29.1268 22.6215 27.5378 23.6234 25.8502C21.8272 24.0517 20.7641 21.9453 20.9963 19.3462C21.1674 17.4984 21.8761 15.9094 23.1958 14.6037C25.7129 12.1031 29.5498 11.6966 32.5069 13.6182C35.354 15.4659 36.6492 19.0505 35.5495 22.1178C34.7064 21.8837 33.8632 21.662 32.9468 21.4033C33.3011 19.6911 33.0323 18.1636 31.8959 16.8456C31.1383 15.9833 30.173 15.5275 29.0733 15.3551C26.8616 15.0225 24.6987 16.4514 24.0511 18.6317C23.318 21.12 24.4177 23.1402 27.4359 24.6676Z" fill="#969699"/>
<path d="M31.1384 22.0684C32.0549 23.6944 32.9835 25.345 33.9 26.971C38.5433 25.5175 42.0502 28.1166 43.3088 30.8882C44.824 34.2388 43.7854 38.2176 40.8039 40.2747C37.7491 42.3934 33.8755 42.0362 31.1629 39.3016C31.8594 38.7226 32.5436 38.1313 33.289 37.5031C35.965 39.2523 38.3111 39.1661 40.0463 37.0966C41.5248 35.3351 41.5004 32.699 39.973 30.9621C38.2134 28.9666 35.8551 28.905 33.008 30.8266C31.8227 28.7079 30.6252 26.6138 29.4766 24.4828C29.0856 23.7683 28.6701 23.3495 27.7903 23.2017C26.3362 22.943 25.3953 21.6865 25.3465 20.2823C25.2854 18.8903 26.1041 17.6338 27.3749 17.1411C28.6335 16.6607 30.112 17.0426 30.9673 18.1266C31.6638 19.0135 31.8838 19.9989 31.5172 21.0953C31.4195 21.4155 31.285 21.7112 31.1384 22.0684Z" fill="#BCBCC0"/>
<path d="M33.3259 35.3474H27.7294C27.1918 37.5647 26.0309 39.3631 24.0392 40.5087C22.4873 41.3956 20.8133 41.6913 19.0415 41.408C15.7667 40.8783 13.0907 37.8973 12.8463 34.559C12.5775 30.765 15.168 27.4022 18.6138 26.6384C18.846 27.513 19.0904 28.3876 19.3348 29.2622C16.17 30.8882 15.0825 32.933 15.9622 35.4952C16.7443 37.7495 18.956 38.9813 21.351 38.5132C23.807 38.0205 25.0412 35.9756 24.8946 32.6743C27.2162 32.6743 29.5501 32.6497 31.8718 32.6867C32.776 32.699 33.4847 32.6004 34.169 31.7998C35.2932 30.4694 37.3705 30.5926 38.5802 31.849C39.8143 33.1301 39.7654 35.1996 38.4458 36.4191C37.175 37.6016 35.1832 37.54 33.9979 36.2589C33.7535 35.9879 33.5703 35.6677 33.3259 35.3474Z" fill="#BCBCC0"/>
</svg>
