<svg width="56" height="56" viewBox="0 0 56 56" fill="none" xmlns="http://www.w3.org/2000/svg">
<path d="M36.0395 23.8004C36.4606 23.6531 36.9245 23.9882 36.988 24.4129C37.0617 24.8579 36.6334 25.2976 36.1879 25.2447C35.8308 25.215 35.5256 24.8876 35.5261 24.5288C35.5107 24.2062 35.7441 23.9092 36.0395 23.8004Z" fill="#969699"/>
<path d="M21.8936 26.2426C21.8888 25.6229 21.8913 25.0027 21.893 24.3831C22.3475 24.389 22.8025 24.3884 23.2569 24.3848C23.254 25.0039 23.2617 25.6224 23.2534 26.2414C23.6609 26.2414 24.069 26.245 24.4771 26.2396C24.4729 26.5842 24.5092 26.9293 24.4783 27.274C24.0695 27.2811 23.6537 27.2442 23.2492 27.2906L23.1939 27.3221C23.172 28.4295 23.2124 29.5374 23.1749 30.6449C23.172 30.8333 23.1981 31.021 23.2338 31.2058C23.2528 31.1974 23.2896 31.1808 23.3086 31.1725C23.3995 31.2509 23.4726 31.3655 23.6008 31.3851C23.8961 31.4416 24.1996 31.4101 24.4973 31.384C24.4682 31.7351 24.486 32.088 24.4771 32.4397C23.8706 32.505 23.2343 32.5829 22.6462 32.3756C22.3831 32.2887 22.1532 32.0969 22.0481 31.8373C21.9156 31.5201 21.8989 31.1695 21.8918 30.8303C21.8918 29.6438 21.8894 28.4574 21.893 27.2711C21.5889 27.2705 21.2847 27.2716 20.9812 27.2705C20.98 26.9277 20.98 26.5848 20.9835 26.2427C21.2871 26.242 21.59 26.242 21.8936 26.2426Z" fill="#969699"/>
<path d="M48.4766 25.7656C48.6725 25.7644 48.8686 25.7661 49.0653 25.7656C49.0587 25.8101 49.0539 25.8553 49.0498 25.9005C48.9986 25.898 48.8977 25.8933 48.8472 25.891C48.7972 25.8897 48.748 25.8897 48.6993 25.8903C48.6256 25.8921 48.552 25.8945 48.4795 25.898C48.4789 25.8648 48.4772 25.7988 48.4766 25.7656Z" fill="#969699"/>
<path d="M50 25.7676C49.9406 25.7652 49.8823 25.7628 49.8241 25.7605C49.7415 25.9321 49.6786 26.1122 49.5971 26.2838C49.5378 26.1074 49.4759 25.9316 49.3969 25.7623C49.337 25.7634 49.2775 25.7646 49.2188 25.7652C49.2134 26.0117 49.2158 26.2583 49.2163 26.5049C49.2467 26.5049 49.3072 26.5042 49.3375 26.5042C49.3333 26.3022 49.3279 26.1002 49.3357 25.8988C49.4225 26.1181 49.4836 26.3498 49.6108 26.5511C49.7206 26.342 49.7931 26.1169 49.8739 25.8952C49.8781 26.0985 49.8715 26.301 49.8697 26.5036C49.9024 26.5049 49.9672 26.5072 49.9999 26.5078C49.997 26.2612 49.9987 26.0141 50 25.7676Z" fill="#969699"/>
<path d="M48.6995 25.8905C48.7482 25.8899 48.7975 25.8899 48.8474 25.8912C48.8296 26.0949 48.8343 26.2993 48.8343 26.5036C48.7999 26.5042 48.7315 26.5049 48.6978 26.5049C48.6995 26.3005 48.6995 26.0955 48.6995 25.8905Z" fill="#969699"/>
<path d="M18.9913 26.9931C18.3937 26.3966 17.5496 26.0579 16.7049 26.0889C16.0538 26.09 15.414 26.3157 14.8942 26.7049C14.1933 27.2229 13.7323 28.044 13.6302 28.9072C13.6195 29.1585 13.6236 29.4098 13.6361 29.6611C13.7768 30.8611 14.6566 31.9406 15.8138 32.2989C16.4251 32.4855 17.1053 32.5217 17.7094 32.2888C17.7617 32.287 17.8091 32.2724 17.8518 32.2448C18.9523 31.8856 19.7561 30.8309 19.9103 29.695C20.0481 28.7171 19.6947 27.6858 18.9913 26.9931Z" fill="#D5D5D9"/>
<path d="M20.8826 26.241L20.9836 26.2427C20.9801 26.5849 20.9801 26.9277 20.9813 27.2705L20.882 27.2753C20.882 26.9307 20.8802 26.5855 20.8826 26.241Z" fill="#969699"/>
<path d="M25.3022 26.2399C25.784 26.2441 26.2652 26.2435 26.747 26.2393C26.9192 26.8352 27.047 27.443 27.221 28.0383C27.4527 28.9959 27.7289 29.9429 27.9534 30.9024C28.1239 30.3731 28.2261 29.8247 28.3711 29.2889C28.6301 28.2736 28.8712 27.2547 29.1374 26.2411C29.5912 26.2417 30.0451 26.2447 30.4989 26.2399C30.8749 27.7935 31.2362 29.3512 31.6204 30.9018C32.0487 29.3488 32.4534 27.7887 32.8888 26.2375C33.3492 26.2471 33.8096 26.2417 34.2705 26.2405C33.6142 28.3062 32.9843 30.3802 32.3321 32.4471C31.87 32.4482 31.4072 32.4441 30.9444 32.4506C30.5483 30.9101 30.1824 29.3625 29.7873 27.822C29.7326 27.9895 29.7029 28.1642 29.6614 28.3347L29.6477 28.343C29.627 28.3555 29.5848 28.3811 29.564 28.3941C29.4369 28.7369 29.3775 29.1 29.2812 29.4516C29.226 29.6453 29.2094 29.8467 29.22 30.0469C29.0597 30.8537 28.8298 31.6462 28.6462 32.4482C28.1703 32.4465 27.6946 32.4482 27.2182 32.4465C26.5687 30.3807 25.9497 28.3056 25.3022 26.2399Z" fill="#969699"/>
<path d="M35.5761 26.2393C36.0311 26.2435 36.4861 26.2446 36.9418 26.2398C36.9413 28.3097 36.9383 30.3796 36.943 32.4494C36.4861 32.4458 36.03 32.4464 35.5737 32.4499C35.5797 30.3795 35.5743 28.3097 35.5761 26.2393Z" fill="#969699"/>
<path d="M42.4394 26.1155C42.1502 26.0889 41.8549 26.0603 41.5686 26.1238C40.889 26.2801 40.3259 26.8171 40.0972 27.4713C40.1001 27.0614 40.0996 26.6515 40.1014 26.2421C39.714 26.2421 39.3267 26.2427 38.94 26.2421L38.8367 26.2397C38.8378 28.3084 38.8408 30.3776 38.8354 32.4469C39.2863 32.4444 39.7378 32.4444 40.1893 32.4463C40.1828 31.4298 40.1863 30.4132 40.1868 29.3968C40.1822 29.1621 40.2279 28.9304 40.2742 28.7017L40.2878 28.6964C40.4221 28.186 40.7524 27.7078 41.2484 27.4963C41.4558 27.3947 41.691 27.4042 41.9149 27.3769C42.0896 27.3983 42.2655 27.4137 42.4413 27.428C42.4359 26.9907 42.44 26.5528 42.4394 26.1155Z" fill="#969699"/>
<path d="M23.194 27.3222L23.2492 27.2908C23.2629 28.4279 23.2492 29.5662 23.2558 30.7033C23.254 30.8619 23.2902 31.0163 23.3087 31.1726C23.2897 31.1809 23.2528 31.1976 23.2339 31.2059C23.1982 31.0211 23.1721 30.8334 23.175 30.645C23.2124 29.5376 23.172 28.4296 23.194 27.3222Z" fill="#969699"/>
<path d="M12.3671 27.7552C12.3326 27.2206 12.0308 26.6912 11.5651 26.4149C11.1374 26.1381 10.6082 26.0745 10.1086 26.0864C9.42487 26.1096 8.734 26.4655 8.38709 27.0655C8.37756 27.0602 8.358 27.0495 8.34847 27.0442C8.37335 25.9944 8.34784 24.944 8.36154 23.8942C7.90768 23.8942 7.45386 23.896 7 23.8931C7.00177 26.7447 7.0024 29.5958 7 32.4475C7.45323 32.4433 7.90713 32.4439 8.36036 32.4475C8.3556 31.2331 8.36036 30.0194 8.35737 28.8051C8.3526 28.5359 8.41736 28.2721 8.49754 28.0173C8.61756 27.8776 8.68767 27.7006 8.82253 27.5729C8.99238 27.3935 9.21935 27.2883 9.44506 27.198L9.45577 27.1862C9.78548 27.1404 10.1229 27.1469 10.4407 27.2533C10.5613 27.3655 10.7181 27.4398 10.8078 27.583C10.9106 27.7411 10.9426 27.9311 11.0127 28.1034C11.0626 28.4741 11.0442 28.8484 11.0471 29.2209C11.0454 30.2962 11.0507 31.3716 11.0448 32.4469C11.4957 32.4451 11.9459 32.4426 12.3968 32.4475C12.3963 31.1535 12.3963 29.8596 12.3963 28.5656C12.395 28.2953 12.4069 28.0238 12.3671 27.7552Z" fill="#969699"/>
<path d="M29.5638 28.3941C29.5847 28.381 29.6268 28.3555 29.6475 28.343C29.4973 28.9086 29.388 29.4855 29.2198 30.0469C29.2092 29.8467 29.2258 29.6453 29.281 29.4516C29.3773 29.0999 29.4368 28.7369 29.5638 28.3941Z" fill="#969699"/>
<path d="M13.6361 29.6614C13.5701 29.4154 13.5666 29.154 13.6302 28.9075C13.6195 29.1588 13.6236 29.41 13.6361 29.6614Z" fill="#D5D5D9"/>
<path d="M48.6861 29.6887H48.8072C48.8346 29.3554 48.8441 29.0143 48.7776 28.6847C48.6529 27.7057 48.0161 26.7667 47.1227 26.3437C47.1187 26.3416 47.115 26.3397 47.111 26.3376C46.0265 25.787 44.8726 26.2553 44.8726 26.2553L44.8728 26.2554C44.1389 26.5261 43.5314 27.1277 43.237 27.8512C42.8972 28.611 42.8478 29.4808 43.0219 30.2893L43.0195 30.3007C43.1294 30.8092 43.3408 31.3047 43.6932 31.6932C44.2176 32.2963 45.0231 32.6171 45.8162 32.6111C46.7869 32.6664 47.843 32.2493 48.351 31.3891C48.5464 31.1288 48.6397 30.8134 48.7217 30.5033C48.2898 30.502 47.8573 30.5015 47.4255 30.5039C47.4141 30.5478 47.3904 30.6357 47.3786 30.6797C47.2879 30.8212 47.2054 30.9704 47.0941 31.0963C46.9987 31.1878 46.9038 31.2644 46.8097 31.328C46.7937 31.3368 46.7778 31.3455 46.7614 31.3535C46.7599 31.3566 46.7581 31.3597 46.7565 31.3627C46.1791 31.7247 45.639 31.6051 45.2615 31.4152C45.2591 31.4112 45.2563 31.4076 45.2542 31.4037C45.2287 31.3934 45.2034 31.3823 45.1785 31.3709C44.9351 31.234 44.7738 31.0786 44.7358 31.0403C44.4112 30.6849 44.2924 30.1798 44.283 29.706C45.751 29.6923 47.2194 29.7261 48.6861 29.6887ZM44.2367 28.8337L44.2907 28.8278C44.2926 28.4743 44.3876 28.1161 44.5985 27.8292C44.9888 27.2457 45.811 26.9879 46.4566 27.2736C47.0691 27.5256 47.4219 28.1808 47.4445 28.8225L47.4999 28.8261C47.2961 28.9514 47.0489 28.9003 46.8232 28.9069C46.0718 28.9069 45.3203 28.9003 44.5694 28.9104C44.4524 28.9163 44.3389 28.8884 44.2367 28.8337Z" fill="#969699"/>
</svg>
