<svg width="100" height="100" viewBox="0 0 100 100" fill="none" xmlns="http://www.w3.org/2000/svg">
<path d="M60.6349 51.3424C65.0657 52.0872 69.5029 52.8321 73.9336 53.577C74.3574 51.0984 76.4251 49.3838 78.4864 49.4352C80.9843 49.493 83.296 52.1322 82.7695 55.2402C87.3608 56.0685 91.9585 56.8969 96.5498 57.7317C95.9269 61.424 95.3105 65.1227 94.6876 68.815C91.9136 68.6095 89.4349 70.5937 89.0239 73.2972C88.6258 75.9428 90.3146 78.5178 92.941 79.2113C91.9585 84.3612 90.976 89.5176 89.9936 94.6676C85.3445 93.8264 80.6954 92.9916 76.0398 92.1504C75.8986 95.2455 73.0667 97.4416 70.3248 96.9729C67.6471 96.517 65.7078 93.6402 66.4655 90.7184C61.9128 90.0121 57.3536 89.3057 52.8008 88.5994C55.4079 76.1804 58.0214 63.7678 60.6285 51.3488L60.6349 51.3424Z" stroke="#F4F3EF" stroke-width="1.5" stroke-linecap="round" stroke-linejoin="round"/>
<path d="M9.33723 94.1151C13.6909 93.6399 18.0382 93.1648 22.3919 92.6896C22.0516 90.0311 24.1 87.7001 26.5594 87.6295C28.8647 87.5653 30.9517 89.4981 31.0223 92.0089C35.299 91.8034 39.5692 91.5915 43.8459 91.386C42.8891 79.9431 41.9323 68.4937 40.9755 57.0508C29.8793 57.8727 18.7831 58.6882 7.68693 59.5102C7.85388 63.3759 8.02084 67.2416 8.19422 71.1008C5.95315 71.1907 4.21937 72.764 4.02031 74.4528C3.76987 76.5526 5.86325 78.9542 8.79141 78.8001C8.97763 83.9051 9.16385 89.0101 9.35007 94.1151H9.33723Z" fill="#F4F3EF" stroke="#F4F3EF" stroke-width="1.5" stroke-linecap="round" stroke-linejoin="round"/>
<path d="M35.1644 13.6035C33.9379 17.9315 32.7114 22.2596 31.4785 26.594C28.409 25.5602 25.2561 27.082 24.3058 29.5029C23.2141 32.2705 25.0828 36.0656 28.7622 36.8683C27.144 43.0713 25.5323 49.2744 23.9141 55.4775C29.8089 56.1838 36.2432 57.2305 43.1012 58.7717C51.3206 60.621 58.7052 62.8557 65.1973 65.1674C66.9439 59.2854 68.6841 53.4098 70.4307 47.5278C66.5907 46.6994 64.812 42.9236 65.7816 40.5477C66.6357 38.4479 69.8078 37.0352 72.9543 38.2232C74.1808 34.152 75.4073 30.0808 76.6402 26.0097C71.3426 24.1988 66.0449 22.3944 60.7472 20.5836C60.1051 23.6723 57.01 25.5666 54.1589 24.8474C51.1986 24.1025 49.3685 20.757 50.473 17.6747C45.368 16.3198 40.263 14.9584 35.1579 13.6035H35.1644Z" fill="#FFC83F"/>
<path d="M19.8939 70.1055C19.361 70.1633 18.8344 70.3238 18.3528 70.6063C16.375 71.775 15.8292 74.5234 17.1392 76.7388C18.3785 78.8322 20.8186 79.6798 22.7515 78.7808C20.2343 75.5894 19.9068 71.7622 19.8939 70.1055Z" fill="#F4F3EF" stroke="#212121" stroke-width="1.5" stroke-linecap="round" stroke-linejoin="round"/>
<path d="M19.8945 70.1055C19.9074 71.7622 20.2349 75.5894 22.7521 78.7808C22.8676 78.7295 22.9832 78.6909 23.0924 78.6267C25.0702 77.458 25.616 74.7097 24.306 72.4943C23.3171 70.8183 21.5513 69.9321 19.8945 70.0991V70.1055Z" fill="#212121" stroke="#212121" stroke-width="1.5" stroke-linecap="round" stroke-linejoin="round"/>
<path d="M30.6755 68.1792C30.2325 68.2241 29.8022 68.359 29.3977 68.5966C27.7474 69.5726 27.2915 71.8651 28.3831 73.7145C29.4747 75.5574 31.6837 76.2637 33.334 75.307C30.5664 72.0449 30.5279 69.3158 30.6755 68.1792Z" fill="#F4F3EF" stroke="#212121" stroke-width="1.5" stroke-linecap="round" stroke-linejoin="round"/>
<path d="M34.374 70.1762C33.5456 68.7763 32.0623 68.0314 30.6752 68.1791C30.5275 69.3093 30.5725 72.0448 33.3337 75.3069C33.3401 75.3069 33.353 75.3069 33.3594 75.294C35.0097 74.318 35.4656 72.0255 34.374 70.1762Z" fill="#212121" stroke="#212121" stroke-width="1.5" stroke-linecap="round" stroke-linejoin="round"/>
<path d="M26.25 80.1102C26.25 80.1102 27.5214 81.3046 29.1396 81.0927C30.7578 80.8808 30.8156 78.8901 30.8156 78.8901" stroke="#212121" stroke-width="1.5" stroke-linecap="round" stroke-linejoin="round"/>
<path d="M71.9536 64.6602C71.7031 64.6602 71.4655 64.6923 71.2344 64.7501C72.4865 67.2159 73.103 70.0028 73.0131 72.764C74.4194 72.2246 75.4468 70.6771 75.4468 68.8213C75.4468 66.5224 73.88 64.6538 71.9536 64.6538V64.6602Z" fill="#F4F3EF" stroke="#F4F3EF" stroke-width="1.5" stroke-linecap="round" stroke-linejoin="round"/>
<path d="M71.2272 64.75C71.0088 64.8078 70.7969 64.8848 70.5915 64.9876C69.3329 65.6169 68.4531 67.1002 68.4531 68.8276C68.4531 71.1265 70.0199 72.9951 71.9464 72.9951C72.2803 72.9951 72.5949 72.9244 72.9032 72.8153C72.9417 72.8024 72.9674 72.7832 73.0059 72.7703C73.0958 70.0091 72.4793 67.2222 71.2272 64.7564V64.75Z" fill="#212121" stroke="#F4F3EF" stroke-width="1.5" stroke-linecap="round" stroke-linejoin="round"/>
<path d="M81.1948 66.1436C81.1948 66.1436 81.1756 66.1436 81.1691 66.1436C80.3344 66.1436 79.5702 66.4967 78.9473 67.0682C78.0676 67.8838 77.4961 69.1488 77.4961 70.5872C77.4961 73.0401 79.14 75.0372 81.1691 75.0372C81.182 75.0372 81.1948 75.0372 81.2077 75.0372C81.503 75.0372 81.792 74.9794 82.0681 74.8959C82.7103 71.987 82.3956 68.8727 81.2012 66.15L81.1948 66.1436Z" fill="#212121" stroke="#F4F3EF" stroke-width="1.5" stroke-linecap="round" stroke-linejoin="round"/>
<path d="M84.8323 70.5872C84.8323 68.1406 83.2013 66.1628 81.1914 66.1436C82.3922 68.8727 82.7004 71.9806 82.0583 74.8895C83.6508 74.4015 84.8323 72.6677 84.8323 70.5872Z" fill="#F4F3EF" stroke="#F4F3EF" stroke-width="1.5" stroke-linecap="round" stroke-linejoin="round"/>
<path d="M72.9149 76.0903C72.9149 76.0903 72.5361 80.9578 75.933 80.9578C78.8291 80.9578 78.797 77.426 78.797 77.426" stroke="#F4F3EF" stroke-width="1.5" stroke-linecap="round" stroke-linejoin="round"/>
<path d="M44.8906 41.0166L54.4457 41.4276C54.4457 41.4276 52.8788 45.3832 49.6681 44.8887C46.4574 44.3943 44.8906 41.0166 44.8906 41.0166Z" fill="#F4F3EF" stroke="#212121" stroke-width="1.5" stroke-linecap="round" stroke-linejoin="round"/>
<path d="M38.0586 36.3227C38.0586 36.3227 39.7025 33.6065 41.9307 33.8505C44.1589 34.0945 44.8974 36.3227 44.8974 36.3227" stroke="#212121" stroke-width="1.5" stroke-linecap="round" stroke-linejoin="round"/>
<path d="M52.4688 37.6389C52.4688 37.6389 53.4576 34.9226 56.0069 35.4171C58.5627 35.9115 58.8067 38.7113 58.8067 38.7113" stroke="#212121" stroke-width="1.5" stroke-linecap="round" stroke-linejoin="round"/>
<path d="M57.9844 13.0256C59.1017 12.3641 60.5722 12.3449 61.7088 12.9806C62.0941 13.1989 62.4537 13.4943 62.6527 13.8924C62.8518 14.2906 62.8454 14.8043 62.5693 15.151C62.1583 15.6712 61.3042 15.6134 60.7777 15.2088C59.9686 14.586 59.8016 13.3466 60.2576 12.4284C60.7135 11.5165 61.6703 10.9258 62.672 10.7203C63.6737 10.5148 64.714 10.6496 65.7093 10.8808C66.1717 10.99 66.6468 11.1248 67.0129 11.4395C67.3789 11.7541 67.5972 12.2742 67.4174 12.7173C67.2312 13.1861 66.6469 13.4044 66.1524 13.2953C65.658 13.1861 65.2662 12.8136 64.9965 12.3898C64.2709 11.2532 64.3416 9.68642 65.0929 8.5691C65.8442 7.45177 67.2055 6.79679 68.5604 6.81605C69.2732 6.8289 70.0245 7.02796 70.519 7.54167C71.0134 8.05539 71.1868 8.91585 70.7758 9.5002C70.3392 10.1231 69.3888 10.213 68.721 9.84054C68.0531 9.46809 67.655 8.7489 67.4559 8.01686C67.122 6.77753 67.2954 5.40334 67.9376 4.29244C68.5797 3.18154 69.6713 2.33391 70.9107 2" stroke="#F4F3EF" stroke-width="1.5" stroke-linecap="round" stroke-linejoin="round"/>
<path d="M27.2137 17.6812C28.4017 17.6812 29.3648 16.7181 29.3648 15.5301C29.3648 14.342 28.4017 13.3789 27.2137 13.3789C26.0256 13.3789 25.0625 14.342 25.0625 15.5301C25.0625 16.7181 26.0256 17.6812 27.2137 17.6812Z" stroke="#F4F3EF" stroke-width="1.5" stroke-linecap="round" stroke-linejoin="round"/>
<path d="M52.2186 12.8781C53.0555 12.8781 53.734 12.1996 53.734 11.3626C53.734 10.5257 53.0555 9.84717 52.2186 9.84717C51.3816 9.84717 50.7031 10.5257 50.7031 11.3626C50.7031 12.1996 51.3816 12.8781 52.2186 12.8781Z" stroke="#F4F3EF" stroke-width="1.5" stroke-linecap="round" stroke-linejoin="round"/>
</svg>
