<svg width="100" height="100" viewBox="0 0 100 100" fill="none" xmlns="http://www.w3.org/2000/svg">
<path d="M25.5931 97.9304C27.7265 99.5656 51.4308 73.3408 51.4308 73.3408C51.4308 73.3408 74.661 95.1403 76.2119 93.5956C77.7629 92.0579 69.9269 63.2864 69.9269 63.2864C69.9269 63.2864 98.2569 50.2262 98.1689 47.4221C98.0741 44.618 64.4682 39.6082 64.4682 39.6082C64.4749 39.6082 52.257 1.95829 49.8798 2.00003C47.5026 2.04178 41.0619 39.3368 41.0619 39.3368C41.0619 39.3368 6.81252 43.4838 6.48744 46.3227C6.16235 49.1616 31.8375 63.3073 31.8375 63.3073C31.8375 63.3073 23.6494 96.4484 25.5931 97.9374V97.9304Z" fill="#FFC83F"/>
<path d="M5.48828 71.1073C5.48828 71.1073 6.92408 75.7066 10.947 78.2254L24.6549 66.4663L5.48828 71.1073Z" stroke="#F4F3EF" stroke-width="1.5" stroke-linecap="round" stroke-linejoin="round"/>
<path d="M78.8672 68.4634L96.4558 75.491C96.4558 75.491 94.7491 79.7563 89.3716 81.2662L78.8672 68.4703V68.4634Z" fill="#F4F3EF"/>
<path d="M69.8974 30.8062L78.1465 11.2959C78.1465 11.2959 83.165 14.9002 84.0793 20.0491L69.8906 30.8062H69.8974Z" stroke="#F4F3EF" stroke-width="1.5" stroke-linecap="round" stroke-linejoin="round"/>
<path d="M35.7361 32.7059C32.9052 27.049 30.0742 21.3921 27.25 15.7422C26.2138 16.5702 24.9202 17.8018 23.7688 19.5413C23.2067 20.3902 22.7733 21.2042 22.4414 21.9418L35.7361 32.7059Z" fill="#F4F3EF"/>
<path d="M3.6875 27.7935V33.8191" stroke="#F4F3EF" stroke-width="1.5" stroke-linecap="round" stroke-linejoin="round"/>
<path d="M1 30.8062H6.1269" stroke="#F4F3EF" stroke-width="1.5" stroke-linecap="round" stroke-linejoin="round"/>
<path d="M96.0654 33.8191C97.685 33.8191 98.9979 32.4702 98.9979 30.8063C98.9979 29.1423 97.685 27.7935 96.0654 27.7935C94.4458 27.7935 93.1328 29.1423 93.1328 30.8063C93.1328 32.4702 94.4458 33.8191 96.0654 33.8191Z" stroke="#F4F3EF" stroke-width="1.5" stroke-linecap="round" stroke-linejoin="round"/>
<path d="M41.7753 49.1057C39.8248 50.1216 39.1205 52.7239 40.2041 54.9157C41.1658 56.8639 43.2179 57.8241 45.033 57.3023L43.4617 48.7021C42.8861 48.7021 42.3104 48.8274 41.7753 49.1057Z" fill="#F4F3EF" stroke="#212121" stroke-width="1.5" stroke-linecap="round" stroke-linejoin="round"/>
<path d="M43.4609 48.7021L45.0322 57.3023C45.2557 57.2397 45.4792 57.1492 45.6959 57.0379C47.6464 56.022 48.3508 53.4197 47.2672 51.2279C46.4815 49.6415 44.9712 48.7091 43.4609 48.7021Z" fill="#212121" stroke="#212121" stroke-width="1.5" stroke-linecap="round" stroke-linejoin="round"/>
<path d="M52.6361 50.1843C50.7127 51.1862 50.049 53.8025 51.1462 56.0221C52.2162 58.193 54.5799 59.1741 56.4762 58.2904L54.5189 49.8016C53.8823 49.7529 53.2321 49.8712 52.6429 50.1843H52.6361Z" fill="#F4F3EF" stroke="#212121" stroke-width="1.5" stroke-linecap="round" stroke-linejoin="round"/>
<path d="M58.1051 52.3901C57.3466 50.8594 55.9447 49.9131 54.5156 49.8018L56.4729 58.2906C56.5203 58.2697 56.5677 58.2488 56.6084 58.2279C58.5318 57.226 59.1955 54.6098 58.0984 52.3901H58.1051Z" fill="#212121" stroke="#212121" stroke-width="1.5" stroke-linecap="round" stroke-linejoin="round"/>
<path d="M45.4766 59.8977C45.4766 59.8977 46.0861 63.2445 49.2151 62.8618C51.8429 62.5418 51.7751 59.7725 51.7751 59.7725" stroke="#212121" stroke-width="1.5" stroke-linecap="round" stroke-linejoin="round"/>
</svg>
