<svg width="57" height="56" viewBox="0 0 57 56" fill="none" xmlns="http://www.w3.org/2000/svg">
<path d="M40.5018 27.263C40.5018 25.6694 39.21 24.3776 37.6163 24.3776C37.5138 24.3776 37.4127 24.3831 37.313 24.3935L41.2762 12.7046H24.434L28.3917 24.3834C28.3336 24.3799 28.2753 24.3776 28.2164 24.3776C26.6228 24.3776 25.3309 25.6694 25.3309 27.263C25.3309 28.5512 26.1751 29.6417 27.3402 30.0127C26.7248 31.0787 25.9505 32.0388 25.0713 32.8682C23.8759 33.996 22.5077 34.8511 21.0279 35.3781C19.2662 34.473 18.4342 32.4603 19.1849 30.6954C19.2697 30.4961 19.3563 30.2941 19.4389 30.093C20.7153 29.7951 21.6664 28.6509 21.6664 27.2838C21.6664 25.6902 20.3745 24.3983 18.7809 24.3983C17.1873 24.3983 15.8954 25.6902 15.8954 27.2838C15.8954 28.261 16.3816 29.1242 17.1248 29.6461C16.4106 31.2722 15.3608 32.974 15.0338 34.9464C14.6418 37.3102 15.0325 39.8193 17.0769 41.2363C21.8382 44.5362 27.0065 39.1905 32.4558 37.8468C34.4307 37.3597 36.5985 37.4382 38.3385 36.4305C39.6451 35.6737 40.5065 34.4195 40.751 33.0115C40.9925 31.6205 40.6404 30.2356 39.8307 29.1126C40.2495 28.6117 40.5018 27.967 40.5018 27.263Z" fill="#969699"/>
<path d="M40.0569 32.891C39.8446 34.1134 39.0896 35.1812 37.9855 35.8207C36.9562 36.4169 35.7228 36.5948 34.4169 36.7831C33.7173 36.884 32.9939 36.9883 32.2872 37.1626C30.4187 37.6234 28.6088 38.5224 26.8585 39.3917C23.3558 41.1316 20.3309 42.6339 17.4785 40.6571C15.3892 39.2091 15.4857 36.5299 15.7291 35.0618C15.9547 33.7016 16.5646 32.4489 17.1544 31.2374C17.2563 31.028 17.3561 30.8224 17.4533 30.6186C17.7456 30.7354 18.0566 30.8151 18.3807 30.8513C17.7803 32.8326 18.7244 34.987 20.7061 36.005L20.9773 36.1444L21.2645 36.0421C22.8312 35.4842 24.2747 34.5889 25.5551 33.3808C26.3828 32.6 27.0944 31.7361 27.6793 30.8131C27.8546 30.8395 28.0339 30.8534 28.2165 30.8534C30.0353 30.8534 31.5414 29.4937 31.7745 27.7376C32.519 27.7103 33.3097 27.7101 34.0585 27.7373C34.2914 29.4936 35.7976 30.8534 37.6165 30.8534C38.3769 30.8534 39.0824 30.6151 39.6635 30.2102C40.0669 31.0361 40.2175 31.9653 40.0569 32.891ZM18.781 25.1031C19.9836 25.1031 20.9618 26.0814 20.9618 27.2839C20.9618 27.7158 20.8351 28.1186 20.6175 28.4578C20.2549 29.0231 19.6389 29.4106 18.9308 29.459C18.8813 29.4623 18.8314 29.4647 18.781 29.4647C18.5131 29.4647 18.2564 29.4158 18.019 29.327C17.5389 29.1473 17.1388 28.8029 16.8871 28.363C16.705 28.0445 16.6002 27.6763 16.6002 27.2839C16.6002 26.0814 17.5785 25.1031 18.781 25.1031ZM26.0358 27.2632C26.0358 26.1706 26.8434 25.2634 27.8929 25.1066C27.9985 25.0907 28.1066 25.0824 28.2165 25.0824C28.9156 25.0824 29.538 25.4136 29.9373 25.9268C30.0365 26.0543 30.1225 26.1926 30.1918 26.3403C30.3234 26.6208 30.3973 26.9334 30.3973 27.2632C30.3973 27.4375 30.3762 27.607 30.3373 27.7696C30.1248 28.6593 29.3662 29.3393 28.4366 29.4329C28.3642 29.4401 28.2908 29.444 28.2165 29.444C27.7812 29.444 27.3755 29.3152 27.0346 29.0945C26.4342 28.7055 26.0358 28.0302 26.0358 27.2632ZM35.1375 24.67C34.6703 25.117 34.3229 25.6881 34.1499 26.3303C33.3424 26.3 32.486 26.3 31.6832 26.3303C31.4987 25.6458 31.1162 25.042 30.6017 24.5832L32.8582 20.0204L35.1375 24.67ZM25.4171 13.4095H40.2933L36.7797 23.7722C36.6274 23.8087 36.4789 23.8548 36.3347 23.9101L32.8638 16.8296L29.3831 23.8678C29.2326 23.816 29.0776 23.7743 28.9189 23.7426L25.4171 13.4095ZM39.7972 27.2632C39.7972 27.4819 39.7645 27.6929 39.7044 27.8922C39.5612 28.3664 39.2607 28.7726 38.8639 29.0504C38.5101 29.2981 38.0801 29.444 37.6165 29.444C36.6095 29.444 35.7601 28.7578 35.5105 27.8285C35.462 27.6481 35.4357 27.4587 35.4357 27.2632C35.4357 26.9651 35.4959 26.6809 35.6047 26.4219C35.6607 26.2884 35.7306 26.1623 35.8109 26.0437C36.2033 25.4645 36.8656 25.0824 37.6165 25.0824C37.6853 25.0824 37.7532 25.086 37.8205 25.0923C38.9277 25.1954 39.7972 26.1295 39.7972 27.2632ZM41.2067 27.2632C41.2067 25.5104 39.9438 24.0479 38.2805 23.7355L42.2594 12H23.4513L27.4363 23.7593C25.8307 24.1166 24.6263 25.5515 24.6263 27.2632C24.6263 28.5485 25.3056 29.6775 26.3236 30.3119C25.8339 31.0414 25.2532 31.7279 24.5879 32.3557C23.5326 33.3512 22.3569 34.1062 21.0895 34.603C19.8129 33.8011 19.2732 32.2888 19.8337 30.9713L19.8776 30.8681C19.9051 30.8036 19.9325 30.739 19.96 30.6743C21.3622 30.1853 22.3713 28.8506 22.3713 27.2839C22.3713 25.3042 20.7607 23.6937 18.781 23.6937C16.8014 23.6937 15.1908 25.3042 15.1908 27.2839C15.1908 28.2831 15.6015 29.188 16.2625 29.8395C16.1427 30.0948 16.0166 30.3545 15.8871 30.6204C15.2828 31.8618 14.5978 33.2688 14.3387 34.8312C13.8242 37.9341 14.6541 40.4145 16.6757 41.8156C17.9024 42.6658 19.148 43 20.4017 43C22.7622 43 25.1501 41.8141 27.4855 40.654C29.1675 39.8187 30.9068 38.9547 32.6247 38.5311C33.2639 38.3734 33.9217 38.2785 34.6181 38.1781C35.999 37.9789 37.427 37.773 38.6919 37.0404C40.1581 36.1911 41.1617 34.7666 41.4455 33.1321C41.6891 31.729 41.396 30.3235 40.6809 29.1317C41.0142 28.587 41.2067 27.9472 41.2067 27.2632Z" fill="#242425"/>
</svg>
