<svg width="56" height="56" viewBox="0 0 56 56" fill="none" xmlns="http://www.w3.org/2000/svg">
<path d="M36.2651 23.2296C36.2651 22.8939 36.3927 22.6052 36.6478 22.3635C36.9164 22.1218 37.2386 22.001 37.6146 22.001H46.5974C46.5974 22.8066 46.4564 23.3974 46.1744 23.7734C45.9059 24.1359 45.4628 24.3172 44.8451 24.3172H38.964V27.8217H44.3215C44.3215 28.6273 44.1805 29.2181 43.8985 29.5941C43.63 29.9566 43.1869 30.1379 42.5692 30.1379H38.964V33.7833H45.2681C45.8723 33.7833 46.3087 33.9713 46.5772 34.3473C46.8592 34.7098 47.0002 35.2939 47.0002 36.0995H37.6146C37.2386 36.0995 36.9164 35.9854 36.6478 35.7571C36.3927 35.5155 36.2651 35.2201 36.2651 34.8709V23.2296Z" fill="#BCBCC0"/>
<path d="M28.0626 36.2807C26.9347 36.2807 25.9143 36.0524 25.0012 35.5959C24.1016 35.1394 23.3967 34.5083 22.8864 33.7026C22.3762 32.897 22.1211 31.984 22.1211 30.9635V23.8135C22.1211 23.169 22.3494 22.6789 22.8059 22.3432C23.2624 21.9941 23.9338 21.8196 24.82 21.8196V30.9635C24.82 31.8631 25.1154 32.5815 25.7062 33.1186C26.297 33.6557 27.0824 33.9242 28.0626 33.9242C29.0428 33.9242 29.8283 33.6557 30.4191 33.1186C31.0099 32.5815 31.3053 31.8631 31.3053 30.9635V23.8135C31.3053 23.1556 31.5336 22.6588 31.9901 22.3231C32.4466 21.9874 33.118 21.8196 34.0042 21.8196V30.9635C34.0042 31.984 33.749 32.897 33.2388 33.7026C32.7286 34.5083 32.0169 35.1394 31.1039 35.5959C30.2043 36.0524 29.1905 36.2807 28.0626 36.2807Z" fill="#BCBCC0"/>
<path d="M9.04346 23.8538C9.04346 23.1959 9.27843 22.6923 9.74838 22.3432C10.2183 21.9941 10.883 21.8196 11.7423 21.8196V28.2848L18.4895 21.8196C18.8252 22.0613 19.0937 22.3365 19.2951 22.6454C19.51 22.9408 19.6174 23.2026 19.6174 23.4308C19.6174 23.6323 19.5435 23.8337 19.3958 24.0351C19.2616 24.223 19.0534 24.4513 18.7715 24.7199L14.7433 28.5265L20.282 35.4348C19.8658 35.9987 19.322 36.2807 18.6506 36.2807C18.0061 36.2807 17.4892 36.039 17.0998 35.5556L12.8903 30.2183L11.7423 31.3462V34.3673C11.7423 35.0252 11.5275 35.5086 11.0978 35.8174C10.6681 36.1263 9.98336 36.2807 9.04346 36.2807V23.8538Z" fill="#BCBCC0"/>
</svg>
