<svg width="56" height="56" viewBox="0 0 56 56" fill="none" xmlns="http://www.w3.org/2000/svg">
<path fill-rule="evenodd" clip-rule="evenodd" d="M36.8519 19.0004H19.1485C14.1033 19.0004 10 23.0934 10 28.1238C10 33.1547 14.1038 37.2472 19.1481 37.2472H36.8515C41.8962 37.2472 46 33.1542 46 28.1243C46 23.0925 41.8962 19 36.8519 19V19.0004ZM28.1199 33.3044C27.8281 33.3645 27.4995 33.3753 27.2762 33.143C27.2103 33.2944 27.0731 33.2601 26.9447 33.228C26.9134 33.2201 26.8826 33.2124 26.8535 33.2076L26.8472 33.2254C26.8362 33.2565 26.8259 33.2854 26.8154 33.3179C26.3222 33.3506 25.9524 32.8489 25.7175 32.4706C25.4911 32.3482 25.2497 32.2492 25.0067 32.1494L25.0067 32.1494L25.0067 32.1494C24.7492 32.0437 24.49 31.9373 24.2448 31.8017C24.2394 31.8862 24.2386 31.9747 24.2379 32.0645V32.0645C24.2347 32.4358 24.2314 32.829 23.8978 33.0543C23.8865 33.502 24.2515 33.4978 24.6107 33.4937C24.9212 33.4901 25.2273 33.4866 25.2822 33.7751C25.2578 33.7778 25.2327 33.7779 25.2077 33.7781C25.1387 33.7786 25.0698 33.7791 25.0159 33.8307C24.8411 34.0001 24.653 33.9264 24.4582 33.85C24.2787 33.7797 24.0936 33.7071 23.9081 33.8204C23.7399 33.9048 23.6206 33.9843 23.5145 34.055C23.2926 34.2029 23.1281 34.3126 22.6932 34.349C22.6574 34.2952 22.6722 34.2593 22.7022 34.2266C22.7619 34.1574 22.8033 34.0842 22.8431 34.0138C22.924 33.8708 22.9981 33.7398 23.2052 33.6797C22.928 33.6363 22.6905 33.7637 22.4568 33.8891L22.4567 33.8891C22.4221 33.9077 22.3875 33.9262 22.353 33.9441C22.2067 34.0038 22.1222 33.9568 22.0339 33.9077C21.9116 33.8398 21.782 33.7677 21.4707 33.9684C21.4115 33.9199 21.4398 33.876 21.4738 33.8388C21.6101 33.6729 21.7894 33.6483 21.9916 33.6572C21.4644 33.3643 21.0851 33.5718 20.7766 33.7406C20.5031 33.8902 20.2853 34.0094 20.0693 33.7222C19.9715 33.748 19.9169 33.8178 19.8624 33.8874C19.84 33.916 19.8176 33.9447 19.7923 33.9701C19.7393 33.9121 19.7523 33.8454 19.7655 33.7772C19.771 33.7489 19.7765 33.7204 19.7775 33.6922C19.7641 33.6859 19.7502 33.6801 19.7363 33.6743C19.6571 33.6413 19.5783 33.6085 19.6008 33.4864C19.4349 33.4304 19.316 33.5206 19.1928 33.614L19.1718 33.6299C19.0911 33.5676 19.1582 33.4856 19.2204 33.4096C19.2491 33.3745 19.2768 33.3407 19.2884 33.3107C19.3453 33.2118 19.4418 33.209 19.5377 33.2064C19.6186 33.2041 19.699 33.2018 19.7546 33.1417C19.9547 33.0284 20.2002 33.087 20.4482 33.1463C20.6291 33.1895 20.8112 33.233 20.978 33.2103C21.2829 33.2484 21.6594 32.9368 21.5066 32.6252C21.228 32.2699 21.2299 31.821 21.2317 31.3878V31.3877C21.232 31.3148 21.2323 31.2424 21.2313 31.171C21.2084 31.0069 20.9743 30.8172 20.7393 30.6268C20.5602 30.4817 20.3805 30.3362 20.2935 30.2013C20.0547 29.9315 19.8666 29.6208 19.6803 29.3128L19.6569 29.2742C19.339 28.6605 19.2109 27.9674 19.0832 27.2761C18.9297 26.4454 18.7767 25.6172 18.2954 24.9324C17.8964 25.152 17.3773 25.0485 17.033 24.7535C16.8532 24.9172 16.84 25.1296 16.8259 25.3553L16.8245 25.3775C16.3789 24.9337 16.4345 24.0941 16.7909 23.5996C16.9356 23.4087 17.1086 23.2409 17.3037 23.102C17.3477 23.0706 17.3625 23.0392 17.3616 22.9899C17.7139 21.4101 20.1159 21.7145 20.8754 22.8339C21.1259 23.1473 21.297 23.5067 21.4678 23.8656C21.6725 24.2958 21.8769 24.7253 22.2176 25.074C22.5473 25.434 22.8951 25.7771 23.2428 26.1202L23.2428 26.1202C23.7816 26.6518 24.3204 27.1834 24.7917 27.7773C25.5256 28.6703 26.0497 29.7176 26.5069 30.7733C26.5814 30.9132 26.6264 31.0657 26.6712 31.2174C26.7386 31.446 26.8056 31.6729 26.9718 31.8528C27.0119 31.906 27.0979 31.9861 27.1957 32.0771L27.1957 32.0771C27.43 32.2954 27.7317 32.5765 27.6295 32.6992C27.6609 32.7672 27.7685 32.8449 27.879 32.9247C28.0622 33.057 28.2535 33.1951 28.119 33.3044H28.1199ZM39.7874 27.914L38.4345 29.2634C38.0745 29.6229 37.632 29.8889 37.1456 30.0381L37.1205 30.0453L37.1115 30.069C36.9559 30.4812 36.7136 30.8551 36.401 31.1656L35.0475 32.515C34.7575 32.8055 34.4127 33.0356 34.0332 33.1922C33.6538 33.3488 33.247 33.4287 32.8365 33.4273C32.426 33.4287 32.0193 33.3488 31.6398 33.1922C31.2603 33.0356 30.9156 32.8055 30.6255 32.515C30.3355 32.2256 30.1055 31.8818 29.9486 31.5034C29.7916 31.125 29.7108 30.7194 29.7108 30.3098C29.7108 29.9001 29.7916 29.4945 29.9486 29.1161C30.1055 28.7377 30.3355 28.394 30.6255 28.1046L31.9785 26.7552C32.3374 26.396 32.7795 26.131 33.2655 25.9836L33.2902 25.976L33.2992 25.9523C33.4558 25.539 33.6988 25.164 34.012 24.8521L35.3654 23.5027C35.6555 23.2123 36.0002 22.9821 36.3797 22.8255C36.7591 22.6689 37.1659 22.589 37.5764 22.5905C38.4125 22.5905 39.1975 22.9146 39.7874 23.5027C40.0784 23.7914 40.3092 24.1351 40.4662 24.5137C40.6232 24.8924 40.7033 25.2985 40.702 25.7084C40.702 26.5422 40.3774 27.3254 39.7874 27.9131V27.914ZM37.5768 23.9353C37.3432 23.9344 37.1118 23.9799 36.8959 24.069C36.6799 24.1581 36.4838 24.2891 36.3188 24.4544L34.9659 25.8038C34.7852 25.9844 34.6457 26.2018 34.5569 26.4413C34.4682 26.6808 34.4323 26.9367 34.4517 27.1913L34.4602 27.277C34.5063 27.6701 34.6846 28.0359 34.9659 28.3143C35.1609 28.5089 35.3756 28.6322 35.6365 28.7178C35.65 28.7963 35.6576 28.8756 35.6576 28.9554C35.6576 29.3127 35.5186 29.6485 35.2658 29.9L35.1824 29.9834C34.7305 29.8291 34.3539 29.6036 34.0137 29.2643C33.5636 28.8176 33.262 28.2431 33.1498 27.619L33.1346 27.5325L33.066 27.5881C33.0199 27.6253 32.9759 27.6649 32.9342 27.7069L31.5812 29.0563C31.3325 29.3046 31.1632 29.6211 31.0947 29.9657C31.0263 30.3104 31.0617 30.6676 31.1965 30.9921C31.3313 31.3166 31.5594 31.5937 31.8519 31.7884C32.1444 31.983 32.4882 32.0864 32.8396 32.0854C33.0731 32.0859 33.3044 32.0403 33.5203 31.9512C33.7361 31.8621 33.9323 31.7313 34.0975 31.5663L35.4509 30.2169C35.6158 30.0521 35.7466 29.8565 35.8358 29.6412C35.9251 29.4258 35.971 29.195 35.971 28.9619C35.971 28.7288 35.9251 28.498 35.8358 28.2826C35.7466 28.0673 35.6158 27.8717 35.4509 27.7069C35.2658 27.5224 35.0419 27.3816 34.7955 27.2944C34.7567 27.0635 34.7741 26.8266 34.8462 26.6039C34.9183 26.3811 35.043 26.1789 35.2097 26.0145C35.6597 26.1668 36.0684 26.4208 36.404 26.7569C36.8535 27.204 37.1549 27.7783 37.2675 28.4022L37.2831 28.4887L37.3517 28.4331C37.3984 28.3959 37.4423 28.3556 37.4844 28.3134L38.8374 26.964C39.0861 26.7158 39.2555 26.3992 39.324 26.0546C39.3925 25.7099 39.3571 25.3526 39.2222 25.0281C39.0874 24.7036 38.8591 24.4265 38.5665 24.2319C38.2738 24.0374 37.93 23.9341 37.5786 23.9353H37.5768ZM22.5596 31.9281C22.5782 31.8367 22.596 31.7493 22.6161 31.6712L22.617 31.6703C22.6484 31.7437 22.6786 31.818 22.7087 31.8922C22.8808 32.3167 23.0517 32.7381 23.467 32.9766C23.4486 33.3626 22.9658 33.5186 22.6389 33.4711C22.5677 33.2985 22.4672 33.1255 22.2556 33.2219C22.0418 33.3079 21.8073 33.2075 21.8567 32.9408C22.3572 32.9222 22.4682 32.3769 22.5596 31.9281Z" fill="#BCBCC0"/>
</svg>
