<svg width="56" height="56" viewBox="0 0 56 56" fill="none" xmlns="http://www.w3.org/2000/svg">
<g clip-path="url(#clip0_6044_28069)">
<path d="M46.4909 5.94043H9.43781C7.42967 5.94043 5.80176 7.56834 5.80176 9.57648V46.6296C5.80176 48.6377 7.42967 50.2656 9.43781 50.2656H46.4909C48.499 50.2656 50.1269 48.6377 50.1269 46.6296V9.57648C50.1269 7.56834 48.499 5.94043 46.4909 5.94043Z" fill="#BCBCC0"/>
<path d="M39.5775 14.6802C40.7933 14.8602 41.6325 15.9925 41.4531 17.2088C41.2736 18.4256 40.1426 19.2669 38.9264 19.0868C36.7729 18.768 33.5465 22.1194 29.9344 29.0108C25.323 37.8085 21.0309 42.0001 16.5122 41.6657C15.2863 41.5749 14.3669 40.5067 14.4573 39.2805C14.5478 38.054 15.6143 37.1324 16.8404 37.2232C19.0718 37.3884 22.3494 33.8941 25.9939 26.941C30.6347 18.0872 34.9851 14.0001 39.5775 14.6802Z" fill="#242425"/>
</g>
<defs>
<clipPath id="clip0_6044_28069">
<rect width="28" height="28" fill="white" transform="translate(14 14)"/>
</clipPath>
</defs>
</svg>
