<?xml version="1.0" encoding="utf-8"?>
<!-- Generator: Adobe Illustrator 27.9.0, SVG Export Plug-In . SVG Version: 6.00 Build 0)  -->
<svg version="1.1" id="Map" xmlns="http://www.w3.org/2000/svg" xmlns:xlink="http://www.w3.org/1999/xlink" x="0px" y="0px"
	 viewBox="63.088 646.203 326.201 251.022" enable-background="new 63.088 646.203 326.201 251.022" xml:space="preserve">
<rect x="63.088" y="646.255" fill="none" width="326.217" height="250.97"/>
<path opacity="0.05" fill="#FFFFFF" d="M389.141,789.273l-0.66-0.659c0,0-5.847,0-6.507,0c-0.66,0-1.132-0.096-1.697-0.471
	c-0.566-0.378-1.131-0.378-1.792-0.096c-0.659,0.284-0.376-0.376-0.847-0.376c-0.472,0-0.661,0.472-0.661,0.472l-0.589,0.153
	c-0.062,0.577,0.446,1.636,1.062,2.466c0.643,0.864,1.422,2.482,1.84,3.849c0.419,1.364,1.619,2.898,1.925,3.93
	c0.307,1.031-0.222,2.51,0.084,3.179c0.306,0.67,0.5,1.812,0.669,2.956c0.167,1.144,0.25,3.567,1.281,4.571
	c0.392,0.383,0.797,0.912,1.172,1.506c0.459,0.045,0.809,0.099,0.809-0.196c0-0.389,0.67-1.113,1.059-0.557
	c0.392,0.557,0.224,1.339,1.004,1.339c0.78,0,2.176,0.279,2.398-0.057c0.086-0.13,0.29-0.252,0.507-0.387v-21.69
	C389.592,789.237,389.141,789.273,389.141,789.273z"/>
<path opacity="0.05" fill="#FFFFFF" d="M389.828,770.076c-0.335-0.086-1.339,0.082-2.175,0.333c-0.836,0.25-1.17-0.167-1.59-1.171
	c-0.417-1.004-0.92-0.669-0.752-1.422c0.167-0.753-0.334-1.59-0.334-1.59s-5.521-0.083-6.106,0
	c-0.237,0.034-0.654,0.289-1.065,0.581c0.341,1.287,1.411,3.433,1.651,3.937c0.251,0.531-0.307,1.004-0.307,1.979
	c0,0.976,1.06,2.76,1.17,3.96c0.113,1.197-0.668,1.951-1.338,2.731c-0.669,0.779-1.364,2.537-1.364,3.623
	c0,1.089-1.005,2.149-0.978,2.648c0.029,0.503-0.139,1.982-0.25,2.538c-0.004,0.023-0.002,0.049-0.003,0.071l0.589-0.153
	c0,0,0.189-0.472,0.661-0.472c0.471,0,0.188,0.66,0.847,0.376c0.661-0.282,1.226-0.282,1.792,0.096
	c0.565,0.375,1.037,0.471,1.697,0.471c0.66,0,6.507,0,6.507,0l0.66,0.659c0,0,0.452-0.035,1.056-0.068v-20.08
	C390.08,769.604,390.029,770.125,389.828,770.076z"/>
<path opacity="0.05" fill="#FFFFFF" d="M337.807,701.765c-0.031-1.233-0.073-2.452-0.043-2.572c0.061-0.246,2.581-1.721,3.013-1.967
	c0.43-0.246,1.228,0.123,1.228-0.368c0-0.493,1.045-0.246,1.661-0.37c0.614-0.123,0.983-0.553,0.983-1.106s0.861-0.431,1.414-0.492
	c0.554-0.062,0.491-0.552,0.861-0.552c0.369,0,0.184-0.553,0.246-1.169c0.062-0.614,0.062-0.491,0.614-0.491
	c0.553,0,1.107-0.308,1.107-0.677c0-0.369,2.396-0.124,2.767-0.124c0.368,0,0.491-0.429,0.43-0.736
	c-0.061-0.307-0.368-1.229-0.738-1.291c-0.369-0.062-0.122-0.982-0.122-1.721c0-0.738-0.123-1.414-0.553-1.967
	c-0.09-0.117-0.198-0.328-0.31-0.581c-0.672,0.012-1.487-0.493-2.188-0.514c-0.976-0.027-2.481,0.478-3.205-0.333
	c-0.726-0.81-1.227-1.06-1.756-0.81c-0.53,0.251-1.505,3.041-2.063,3.847c-0.558,0.81-2.119,1.369-2.872,1.369
	c-0.753,0-0.836,1.142-1.421,1.615c-0.586,0.475-0.362,1.227-1.06,1.785c-0.697,0.557-0.362,2.259,0,2.872
	c0.361,0.611-1.283,2.537-2.23,3.095c-0.949,0.556-1.255,1.615-2.76,1.867c-0.585,0.098-1.025,0.35-1.366,0.67
	c2.344,0,5.821,0,7.012,0C337.907,701.044,337.573,701.369,337.807,701.765z"/>
<path opacity="0.05" fill="#FFFFFF" d="M370.34,684.317c0.447,0.668-0.11,1.781-0.557,2.006c-0.446,0.223-0.781,1.227-1.227,1.227
	c-0.445,0,0,1.673,0.78,2.008c0.78,0.335,0.78,0.891,0.78,1.226c0,0.335,1.117,0.669,1.45,1.115
	c0.335,0.448,0.892,2.565,0.892,3.348c0,0.2,0.068,0.362,0.167,0.495c0.287-0.195,0.638-0.42,0.783-0.69
	c0.25-0.476,0.445-1.283,0.333-1.507c-0.112-0.223-0.083-0.614,0.168-0.837c0.25-0.222,1.254-1.281,1.449-1.365
	s0.835,0.029,0.808-0.586c-0.012-0.243,0.018-0.618,0.057-0.982c-0.452-0.291-0.726-0.634-0.726-0.803
	c0-0.361-0.501-0.976-0.78-0.641c-0.279,0.335-1.338,0.057-1.479-0.642c-0.139-0.696,0.697-0.669,1.479-1.31
	c0.78-0.642,0.892-1.868,0.055-2.537c-0.836-0.671-0.251-1.032,0.335-1.646c0.586-0.611,0.056-0.947-0.251-0.669
	c-0.307,0.279-0.808,0.363-0.892-0.307c-0.082-0.669-1.896-0.778-2.592-0.141c-0.244,0.227-0.618,0.294-1.014,0.292
	C370.193,682.481,370.043,683.869,370.34,684.317z"/>
<path opacity="0.05" fill="#FFFFFF" d="M351.226,688.128c0,0.738-0.247,1.659,0.122,1.721c0.37,0.062,0.677,0.984,0.738,1.291
	c0.061,0.308-0.061,0.736-0.43,0.736c-0.37,0-2.767-0.245-2.767,0.124c0,0.369-0.555,0.677-1.107,0.677
	c-0.553,0-0.553-0.123-0.614,0.491c-0.061,0.616,0.123,1.169-0.246,1.169c-0.37,0-0.307,0.49-0.861,0.552
	c-0.553,0.061-1.414-0.062-1.414,0.492s-0.369,0.983-0.983,1.106c-0.616,0.124-1.661-0.123-1.661,0.37
	c0,0.491-0.798,0.122-1.228,0.368c-0.432,0.246-2.951,1.721-3.013,1.967c-0.03,0.12,0.012,1.339,0.043,2.572
	c0.065,0.11,0.169,0.224,0.37,0.339c0.928,0.53,17.766,11.669,18.297,12.198c0.53,0.529,1.192,1.724,1.192,1.724
	s1.193,0.133,2.121,0.663c0.929,0.532,0.928,1.988,0.928,1.988s1.194-0.264,1.857-0.398c0.663-0.131,2.917-0.929,2.917-0.929
	l3.447-2.782l8.089-5.04c0,0,0.007,0,0.02,0c-0.248-0.89-0.517-1.607-0.95-1.607c-0.487,0-0.833-0.417-1.391-0.417
	c-0.557,0-1.253-0.279-1.322-0.767c-0.07-0.485,0.208-0.836-0.209-1.461c-0.416-0.627-0.834-0.904-0.834-1.181
	c0-0.278,0.707-0.821,0.819-0.935c0.111-0.11-0.28-0.557-0.28-0.862c0-0.309-0.278-0.838,0-1.171
	c0.28-0.336,0.447-0.671,0.139-1.283c-0.306-0.613,0.42-1.172,0.057-1.98c-0.363-0.81-0.919-1.448-0.865-1.729
	c0.024-0.118,0.203-0.248,0.417-0.395c-0.099-0.133-0.167-0.295-0.167-0.495c0-0.782-0.557-2.899-0.892-3.348
	c-0.333-0.446-1.45-0.78-1.45-1.115c0-0.335,0-0.891-0.78-1.226c-0.78-0.335-1.226-2.008-0.78-2.008c0.446,0,0.78-1.004,1.227-1.227
	c0.447-0.225,1.003-1.338,0.557-2.006c-0.297-0.447-0.146-1.836,0.02-2.944c-0.738-0.005-1.556-0.275-1.775-0.347
	c-0.334-0.112-1.309,0.167-1.924,0.195c-0.612,0.028-2.119,1.003-2.62,0.528c-0.502-0.473-5.632,0.363-7.082,0.418
	c-1.45,0.057-2.064,1.564-2.927,1.564c-0.864,0-2.232,0.724-2.956,1.532c-0.205,0.229-0.448,0.314-0.712,0.317
	c0.113,0.253,0.22,0.464,0.31,0.581C351.103,686.714,351.226,687.39,351.226,688.128z"/>
<path opacity="0.05" fill="#FFFFFF" d="M388.406,694.603c-0.947-0.863-2.342-1.255-3.483-1.255c-1.144,0-1.952-0.724-1.87-1.337
	c0.085-0.612-0.277-0.893-1.225-1.087c-0.948-0.195-1.755-0.976-3.428-0.698c-0.896,0.148-1.655-0.119-2.176-0.452
	c-0.038,0.363-0.068,0.738-0.057,0.982c0.027,0.615-0.613,0.502-0.808,0.586s-1.199,1.144-1.449,1.365
	c-0.252,0.223-0.28,0.614-0.169,0.837c0.112,0.224-0.083,1.031-0.333,1.507c-0.251,0.474-1.145,0.808-1.2,1.085
	c-0.055,0.281,0.502,0.92,0.865,1.729c0.363,0.809-0.363,1.367-0.057,1.98c0.308,0.612,0.142,0.947-0.139,1.283
	c-0.278,0.333,0,0.862,0,1.171c0,0.306,0.391,0.752,0.28,0.862c-0.112,0.113-0.819,0.656-0.819,0.935
	c0,0.276,0.418,0.554,0.834,1.181c0.418,0.625,0.14,0.976,0.209,1.461c0.069,0.487,0.765,0.767,1.322,0.767
	c0.557,0,0.903,0.417,1.391,0.417c0.433,0,0.702,0.717,0.95,1.607c0.208,0.004,2.015,0.032,2.763,0.531
	c0.796,0.532,1.194,1.193,1.194,1.193l3.181-1.725l6.015,3.235v-17.574C389.61,695.27,388.946,695.095,388.406,694.603z"/>
<path opacity="0.05" fill="#FFFFFF" d="M325.404,729.365c0.388-0.351,1.023,0.354,1.586,0.424c0.565,0.071,1.165-0.317,1.165-0.317
	s-0.106-0.069-1.024-0.141c-0.916-0.07-0.986-1.166-1.798-0.776c-0.808,0.389-1.372,0.492-2.388,0.39
	c-0.015,0.31-0.189,0.726-0.244,1.136c0.26-0.065,0.459-0.107,0.551-0.115C323.817,729.93,325.015,729.718,325.404,729.365z"/>
<path opacity="0.05" fill="#FFFFFF" d="M324.063,731.447c0.353,0.034,1.059-0.424,1.059-0.424s2.362-0.176,2.751-0.211
	c0.137-0.013,0.309,0.047,0.476,0.125c0.007-0.099,0.005-0.174,0.005-0.174s1.254,0.251,1.338,0.544
	c0.083,0.293,1.798,0.502,2.76,0.166c0.071-0.022,0.139-0.049,0.208-0.073c0.011-0.382,0.026-1.005-0.012-1.193
	c-0.056-0.279-0.669-0.893-1.004-1.228c-0.335-0.333-0.28-1.171-0.28-1.171l-0.346-0.513c0,0-0.266-1.062-1.061-1.326
	c-0.796-0.266-1.326-1.725-1.326-1.725h-0.663c0,0-0.531-0.663-1.06-0.929c-0.531-0.264-1.458,0.135-1.458,0.135
	s-1.061,0.131-1.723,0c-0.663-0.135-0.531,0.794-1.061,0.927c-0.021,0.005-0.061,0.016-0.097,0.024
	c-0.06,0.539-0.152,1.093-0.432,1.51c-0.613,0.92,0.251,2.26,0.697,2.677c0.092,0.086,0.12,0.211,0.112,0.355
	c1.015,0.103,1.58-0.001,2.388-0.39c0.812-0.39,0.882,0.706,1.798,0.776c0.917,0.071,1.024,0.141,1.024,0.141
	s-0.6,0.389-1.165,0.317c-0.563-0.069-1.198-0.774-1.586-0.424c-0.389,0.353-1.587,0.564-2.151,0.6
	c-0.092,0.008-0.291,0.05-0.551,0.115c-0.04,0.313-0.014,0.621,0.215,0.879c0.071,0.081,0.132,0.155,0.19,0.226
	C324.061,730.944,323.767,731.418,324.063,731.447z"/>
<path opacity="0.05" fill="#FFFFFF" d="M325.844,733.734c0.418-0.293,1.255-1.047,1.547-0.921c0.293,0.126,0.67-0.126,0.67-0.292
	c0-0.167-0.586-0.711-0.126-0.879c0.316-0.114,0.393-0.48,0.413-0.704c-0.166-0.078-0.338-0.138-0.476-0.125
	c-0.389,0.035-2.751,0.211-2.751,0.211s-0.706,0.458-1.059,0.424c-0.295-0.029-0.001-0.504-0.957-0.263
	c0.478,0.598,0.54,0.894,1.512,1.169c1.087,0.306-0.084,0.865,0.808,1.422c0.083,0.051,0.149,0.106,0.215,0.159
	C325.725,733.839,325.797,733.766,325.844,733.734z"/>
<path opacity="0.05" fill="#FFFFFF" d="M389.634,737.789c-0.503,0.28,0.223,0.726-0.112,1.004c-0.334,0.278-1.338,0.726-1.672,0.893
	c-0.334,0.169-1.674,0.111-2.064,0.613c-0.39,0.502-0.837-0.557-1.228,0c-0.389,0.559-0.835,0.613-1.057,0.447
	c-0.055-0.04-0.108-0.108-0.167-0.198c-0.361,0.334-0.803,0.709-0.95,1.172c-0.25,0.796-0.919,1.507-0.919,1.882
	c0,0.378,0.251,0.88,0.251,1.548c0,0.67,0.167,1.005,0.543,1.506c0.377,0.501,0.294,1.129,0.294,1.129s0.124,0.251,0.417,0.627
	c0.292,0.377,1.129,0.921,1.212,1.215c0.039,0.133,0.183,0.239,0.326,0.315c0.037-0.06,0.073-0.126,0.114-0.177
	c0.466-0.582,0.35-1.396,0.35-1.396l1.046-0.233l0.814-0.23l1.628,0.23v-1.276c0,0,0.952-1.229,1.737-1.464v-7.701
	C389.962,737.698,389.763,737.718,389.634,737.789z"/>
<path opacity="0.05" fill="#FFFFFF" d="M373.24,741.86c0.225-0.055,0.725,0.112,1.116-0.166c0.39-0.279,1.228,0.39,1.338,0.946
	c0.113,0.559,0.447-0.222,0.781-0.835c0.334-0.613,1.394-2.453,1.394-2.899c0-0.447,0.892-0.836,0.892-1.116
	c0-0.278-0.056-0.891,0.224-1.004c0.279-0.11,0.501-0.947,0.445-1.226c-0.056-0.278,0.947-1.84,1.114-2.065
	c0.168-0.224,1.06-0.11,1.117-0.611c0.055-0.503,0.222-1.061-0.113-1.171c-0.334-0.112-0.78-0.502-0.78-0.782
	c0-0.156,0.021-0.616,0.117-1.016c-0.447-0.064-0.471-0.509-0.732-0.769c-0.278-0.275-0.278-0.499-0.668-0.391
	c-0.391,0.115-0.836,1.061-1.339,1.228c-0.501,0.166-1.226-0.224-1.561-0.391c-0.335-0.168-1.896,0-2.398-0.055
	c-0.501-0.057-1.003,0.669-1.394,0.891c-0.39,0.223-1.505,0.113-1.839,0c-0.335-0.11-1.116-0.778-1.45-0.778
	c-0.336,0-1.004,0.109-1.561,0.444c-0.558,0.334-0.726-0.613-1.059-1.003c-0.336-0.391-1.061-0.056-1.506-0.445
	c-0.447-0.393-0.726,0.445-1.116,0.39c-0.39-0.057-1.394-0.281-1.729,0c-0.335,0.278-0.279,1.337-0.446,1.506
	c-0.167,0.166-0.836,0.947-0.836,1.337c0,0.182-0.067,0.307-0.179,0.374c0.074,0.464,0.169,1.054,0.193,1.271
	c0.041,0.375,0.208,2.257-0.21,2.674c-0.418,0.42-0.711,1.089-0.711,1.089s-0.669,0.459-0.795,1.381
	c-0.125,0.92,0.042,1.506,0.042,2.218c0,0.501,0.373,0.862,0.578,1.485c0.007,0.009,0.016,0.009,0.022,0.018
	c0.335,0.448,1.923,0.532,2.814,0.726c0.894,0.196,1.813,1.449,1.786,1.924c-0.027,0.475,0.586,1.394,1.003,1.617
	c0.418,0.224,1.449-0.417,1.924-0.417s2.175,0.027,2.51-0.281c0.097-0.089,0.198-0.078,0.301-0.014
	c0.402-1.071,0.549-2.023,0.549-2.023S373.016,741.917,373.24,741.86z"/>
<path opacity="0.05" fill="#FFFFFF" d="M359.551,738.668c0.125-0.922,0.795-1.381,0.795-1.381s0.293-0.669,0.711-1.089
	c0.418-0.417,0.251-2.299,0.21-2.674c-0.024-0.218-0.119-0.808-0.193-1.271c-0.132,0.081-0.332,0.083-0.602-0.039
	c-0.502-0.224-0.055-0.725-0.613-0.892c-0.558-0.168-0.78,0.445-0.669,0.892c0.112,0.445-0.278,0.445-0.502,0.725
	c-0.223,0.28-1.227,0.333-1.561,0.333c-0.335,0-0.724,0.616-1.059,0.727c-0.076,0.023-0.181,0.027-0.301,0.02
	c0.078,1.47,0.323,1.357,1.024,1.763c0.795,0.462,0.042,1.089,0.376,1.422c0.334,0.335,0.209,1.173,0.293,2.217
	c0.05,0.634,0.116,2.275,0.161,3.475c0.458-0.089,0.938-0.113,1.261-0.113c0.6,0,0.961-0.793,1.289-0.41
	c-0.205-0.623-0.578-0.984-0.578-1.485C359.593,740.174,359.425,739.588,359.551,738.668z"/>
<path opacity="0.05" fill="#FFFFFF" d="M357.167,737.203c-0.335-0.333,0.418-0.96-0.376-1.422c-0.702-0.405-0.947-0.293-1.024-1.763
	c-0.403-0.024-0.997-0.201-1.429-0.243c-0.09-0.012-0.162,0.011-0.227,0.04c0.091,0.531,0.223,1.125,0.379,1.213
	c0.293,0.168,0.502,0.504,0.461,1.13c-0.042,0.627-0.21,2.007,0.041,2.635c0.251,0.627,0.502,1.631,0.502,2.592
	c0,0.601,0.341,1.494,0.69,2.171c0.145-0.076,0.277-0.155,0.383-0.247c0.249-0.208,0.645-0.335,1.054-0.414
	c-0.044-1.199-0.11-2.841-0.161-3.475C357.376,738.376,357.501,737.538,357.167,737.203z"/>
<path opacity="0.05" fill="#FFFFFF" d="M376.365,750.578c0,0,4.421,0.232,5.003,0.117c0.58-0.117,2.673,0.931,2.673,0.931
	s0.101-1.056,0.468-1.685c-0.143-0.076-0.287-0.183-0.326-0.315c-0.083-0.294-0.92-0.838-1.212-1.215
	c-0.293-0.376-0.417-0.627-0.417-0.627s0.083-0.628-0.294-1.129c-0.376-0.501-0.543-0.836-0.543-1.506
	c0-0.668-0.251-1.17-0.251-1.548c0-0.375,0.669-1.086,0.919-1.882c0.147-0.463,0.589-0.838,0.95-1.172
	c-0.186-0.289-0.388-0.811-0.56-1.365c-0.222-0.725-0.835-0.946-1.56-1.615c-0.726-0.669-0.446-1.061-0.446-1.34
	c0-0.277,0.948-0.277,1.616-0.223c0.668,0.057,1.06-0.11,0.782-0.276c-0.28-0.169-0.837-1.451-0.782-2.344
	c0.057-0.892-0.277-1.171-0.223-1.672c0.056-0.502-0.613-1.785-1.171-1.785c-0.04,0-0.071-0.009-0.105-0.013
	c-0.097,0.4-0.117,0.859-0.117,1.016c0,0.28,0.446,0.67,0.78,0.782c0.335,0.109,0.168,0.668,0.113,1.171
	c-0.058,0.501-0.949,0.388-1.117,0.611c-0.167,0.225-1.17,1.786-1.114,2.065c0.056,0.278-0.166,1.115-0.445,1.226
	c-0.279,0.113-0.224,0.726-0.224,1.004c0,0.28-0.892,0.669-0.892,1.116c0,0.446-1.06,2.286-1.394,2.899
	c-0.334,0.613-0.668,1.394-0.781,0.835c-0.11-0.557-0.948-1.226-1.338-0.946c-0.391,0.278-0.891,0.111-1.116,0.166
	c-0.224,0.058-2.16,2.061-2.16,2.061s-0.146,0.951-0.549,2.023c0.247,0.153,0.51,0.654,0.786,1.046
	c0.39,0.559,1.142,0.141,1.449,0.308c0.307,0.167,0.642,1.478,0.529,1.842c-0.106,0.348-0.568,1.234-0.355,1.672h2.612
	L376.365,750.578z"/>
<path opacity="0.05" fill="#FFFFFF" d="M348.97,744.524c-0.251-0.336-0.836-1.757-0.795-2.092c0.042-0.336,0.753-1.34,0.712-1.839
	c-0.042-0.503,0.711-0.838,0.711-1.255c0-0.319-0.195-1.9-0.658-2.931c-0.095,0.006-0.212-0.043-0.346-0.18
	c-0.335-0.333-1.728-0.277-2.229,0.279c-0.502,0.559-1.506-0.502-1.673-0.778c-0.168-0.28-0.892-0.895-1.45-0.504
	c-0.559,0.391-0.725,0.28-0.669-0.224c0.056-0.502-0.836-0.333-0.947,0.111c-0.111,0.447-0.837,0.838-1.06,0.503
	c-0.224-0.334-0.724-0.781-0.948-0.279c-0.155,0.349-0.418,0.319-0.639,0.154c-0.14,0.621-0.313,1.331-0.003,1.504
	c0.376,0.209,0.418,0.628,0.335,0.879c-0.083,0.252,0.627,0.878,0.334,1.171c-0.293,0.294-0.669-0.293-0.878,0.125
	c-0.21,0.419,0.418,0.795,0.168,1.13c-0.251,0.334-0.627,0.376-0.544,1.046c0.083,0.669,0.041,1.129-0.209,1.337
	c-0.251,0.209,0.042,0.209,0.627,0.587c0.585,0.375,1.547,0.793,1.463,1.422c-0.076,0.571-0.325,0.701-0.558,1.759
	c1.135,0.023,3.169-0.805,5.564-1.215c1.496-0.257,2.762-0.047,3.661,0.214C349.033,745.092,349.097,744.693,348.97,744.524z"/>
<path opacity="0.05" fill="#FFFFFF" d="M354.992,738.793c-0.25-0.628-0.083-2.008-0.041-2.635c0.041-0.626-0.168-0.962-0.461-1.13
	c-0.156-0.088-0.289-0.682-0.379-1.213c-0.332,0.15-0.359,0.694-0.499,0.462c-0.167-0.278-4.517-0.447-4.738-0.112
	c-0.224,0.334,0.389,1.564,0.335,1.897c-0.034,0.199-0.128,0.336-0.268,0.346c0.463,1.03,0.658,2.611,0.658,2.931
	c0,0.417-0.753,0.752-0.711,1.255c0.042,0.499-0.669,1.503-0.712,1.839c-0.041,0.335,0.544,1.756,0.795,2.092
	c0.126,0.169,0.063,0.568-0.033,0.925c0.76,0.218,1.26,0.473,1.413,0.509c0.335,0.085,2.704-1.001,3.653-1.476
	c0.757-0.379,1.6-0.618,2.181-0.926c-0.349-0.677-0.69-1.57-0.69-2.171C355.494,740.424,355.243,739.42,354.992,738.793z"/>
<path opacity="0.05" fill="#FFFFFF" d="M330.403,736.491c0.042-0.459,0.418-0.293,0.878-0.208c0.46,0.084,1.004-0.291,1.422-0.291
	c0.418,0,1.505,1.462,1.505,1.881c0,0.418,0.043,0.795,0.251,1.128c0.027,0.045,0.045,0.089,0.059,0.133
	c0.675-0.154,1.233-0.236,1.363-0.236c0.205,0,0.617,0.985,0.534,1.602c-0.082,0.618,0.617,1.072,0.906,0.66
	c0.287-0.412,0.657-0.947,0.74-0.578c0.025,0.11,0.179,0.206,0.375,0.284c0.103-0.242,0.327-0.34,0.498-0.567
	c0.25-0.335-0.377-0.711-0.168-1.13c0.209-0.418,0.585,0.169,0.878-0.125c0.293-0.293-0.418-0.919-0.334-1.171
	c0.084-0.251,0.042-0.67-0.335-0.879c-0.31-0.173-0.137-0.883,0.003-1.504c-0.096-0.07-0.186-0.165-0.254-0.266
	c-0.224-0.334-0.055-1.06-0.446-1.06s-0.335-0.558,0-0.67c0.335-0.11-0.669-0.5-0.669-0.891c0-0.391-0.502-1.339-0.725-1.394
	c-0.224-0.057-1.004,0.947-1.338,0.947c-0.335,0-1.059-0.669-1.282-0.112c-0.224,0.559-0.725-0.278-1.06,0.168
	c-0.335,0.445-0.557-0.501-0.557-0.501s0.005-0.133,0.012-0.312c-0.069,0.024-0.137,0.051-0.208,0.073
	c-0.962,0.336-2.676,0.127-2.76-0.166c-0.084-0.293-1.338-0.544-1.338-0.544s0.042,0.71-0.418,0.878
	c-0.46,0.168,0.126,0.712,0.126,0.879c0,0.166-0.377,0.418-0.67,0.292c-0.292-0.126-1.129,0.628-1.547,0.921
	c-0.047,0.032-0.119,0.106-0.203,0.201c0.646,0.518,0.588,1.098,1.347,1.652c0.699,0.514,1.589,1.208,2.123,2.316
	C329.651,737.446,330.373,736.808,330.403,736.491z"/>
<path opacity="0.05" fill="#FFFFFF" d="M338.808,743.269c-0.586-0.378-0.878-0.378-0.627-0.587c0.25-0.208,0.292-0.668,0.209-1.337
	c-0.026-0.215-0.002-0.361,0.046-0.479c-0.196-0.078-0.35-0.174-0.375-0.284c-0.083-0.369-0.453,0.166-0.74,0.578
	c-0.289,0.412-0.988-0.042-0.906-0.66c0.083-0.617-0.33-1.602-0.534-1.602c-0.13,0-0.689,0.082-1.363,0.236
	c0.089,0.3-0.111,0.626-0.184,0.956c-0.083,0.376-1.088,0.92-1.505,1.255c-0.116,0.094-0.269,0.333-0.429,0.634
	c0.787,0.497,1.704,1.073,2.45,1.639c1.366,1.031,3.429,2.398,4.405,2.761c0.13,0.047,0.285,0.066,0.459,0.071
	c0.233-1.058,0.482-1.188,0.558-1.759C340.355,744.062,339.394,743.644,338.808,743.269z"/>
<path opacity="0.05" fill="#FFFFFF" d="M334.333,740.09c0.083-0.377,0.334-0.752,0.125-1.089c-0.208-0.333-0.251-0.71-0.251-1.128
	c0-0.419-1.087-1.881-1.505-1.881c-0.418,0-0.962,0.375-1.422,0.291c-0.46-0.085-0.837-0.251-0.878,0.208
	c-0.029,0.316-0.752,0.955-1.292,1.412c0.104,0.218,0.201,0.444,0.275,0.696c0.445,1.53,0.863,1.839,1.505,2.368
	c0.29,0.239,0.857,0.599,1.508,1.011c0.16-0.301,0.312-0.54,0.429-0.634C333.245,741.01,334.25,740.466,334.333,740.09z"/>
<path opacity="0.05" fill="#FFFFFF" d="M329.464,710.935c0-0.431,1.968-0.982,1.968-1.412c0-0.431,0-5.042,0-5.042
	s6.148,0.122,6.332,0c0.096-0.065,0.076-1.401,0.043-2.716c-0.234-0.396,0.101-0.721-1.353-0.721c-1.19,0-4.668,0-7.012,0
	c-0.537,0.503-0.827,1.183-1.032,1.729c-0.335,0.89-2.426,2.201-2.51,3.456c-0.083,1.255-2.036,3.206-3.318,5.883
	c-0.353,0.738-0.514,1.312-0.555,1.773h7.437C329.464,713.886,329.464,711.365,329.464,710.935z"/>
<path opacity="0.05" fill="#FFFFFF" d="M323.726,723.451c0.662,0.131,1.723,0,1.723,0s0.928-0.398,1.458-0.135
	c0.529,0.266,1.06,0.929,1.06,0.929h0.663c0,0,0.53,1.459,1.326,1.725c0.457,0.151,0.736,0.565,0.893,0.89
	c0.567-0.014,1.006-0.201,1.006-0.607c0-0.508,0.255-1.187,1.1-0.424c0.846,0.761,0.846,0.084,1.015-0.171
	c0.17-0.252,0.762,0.087,1.269,0.087c0.508,0,1.185-0.339,1.185-0.339s7.021,0.084,7.359-0.085c0.337-0.168,0.254-1.605,0.254-1.605
	l-0.592-0.592l-1.777-16.664h3.178c-3.392-2.24-6.298-4.144-6.668-4.355c-0.201-0.115-0.306-0.229-0.37-0.339
	c0.033,1.314,0.053,2.651-0.043,2.716c-0.184,0.122-6.332,0-6.332,0s0,4.611,0,5.042c0,0.43-1.968,0.981-1.968,1.412
	c0,0.431,0,2.951,0,2.951h-7.437c-0.108,1.215,0.634,1.646,1.057,2.131c0.585,0.669-0.446,1.839,0.418,3.037
	c0.864,1.2-0.194,3.039-0.613,3.71c-0.227,0.364-0.25,0.994-0.321,1.639c0.036-0.009,0.076-0.02,0.097-0.024
	C323.195,724.245,323.063,723.317,323.726,723.451z"/>
<path opacity="0.05" fill="#FFFFFF" d="M360.716,718.677c0,0,0.001-1.456-0.928-1.988c-0.928-0.53-2.121-0.663-2.121-0.663
	s-0.663-1.194-1.192-1.724c-0.319-0.318-6.524-4.467-11.629-7.843h-3.178l1.777,16.664l0.592,0.592c0,0,0.083,1.438-0.254,1.605
	c-0.338,0.169-7.359,0.085-7.359,0.085s-0.677,0.339-1.185,0.339c-0.506,0-1.098-0.339-1.269-0.087
	c-0.169,0.255-0.169,0.932-1.015,0.171c-0.845-0.763-1.1-0.084-1.1,0.424c0,0.406-0.44,0.594-1.006,0.607
	c0.116,0.242,0.168,0.436,0.168,0.436l0.346,0.513c0,0-0.055,0.838,0.28,1.171c0.334,0.335,0.948,0.948,1.004,1.228
	c0.055,0.277,0,1.506,0,1.506s0.222,0.946,0.557,0.501c0.335-0.446,0.836,0.391,1.06-0.168c0.224-0.557,0.947,0.112,1.282,0.112
	c0.335,0,1.115-1.004,1.338-0.947c0.223,0.055,0.725,1.003,0.725,1.394c0,0.391,1.004,0.78,0.669,0.891
	c-0.335,0.111-0.391,0.67,0,0.67s0.222,0.726,0.446,1.06c0.223,0.335,0.669,0.613,0.893,0.111c0.224-0.502,0.724-0.055,0.948,0.279
	c0.223,0.335,0.949-0.056,1.06-0.503c0.111-0.444,1.003-0.613,0.947-0.111c-0.055,0.504,0.111,0.614,0.669,0.224
	c0.17-0.117,0.353-0.138,0.533-0.11c0.198-0.648,0.425-1.247,0.526-1.45c0.167-0.335-0.391-1.115-0.112-1.229
	c0.279-0.111,1.227,0.113,1.505-0.668c0.28-0.78,0.614-1.173,0.614-1.173s0.111-1.671,0.613-1.392
	c0.502,0.278,1.115,0.725,1.171,0.055c0.057-0.669,0.669-0.278,0.836-0.891c0.167-0.615,0.501-0.559,0.893-0.446
	c0.39,0.111,0.725-0.056,0.725-0.391c0-0.334,0.892-0.167,1.618-0.669c0.724-0.501,1.114-0.892,1.392-0.616
	c0.281,0.281,2.12,0.224,2.399,0.115c0.279-0.115,0.836-0.614,1.506-0.503c0.668,0.112,2.285-0.28,2.954-0.28
	c0.67,0,0.949-0.611,1.172-0.835c0.224-0.222,0.391-1.227,0.614-1.394c0.179-0.134,0.143-3.637,0.122-5.018
	C361.647,718.469,360.716,718.677,360.716,718.677z"/>
<path opacity="0.05" fill="#FFFFFF" d="M359.187,732.194c-0.284-0.264-0.665-0.345-0.766-0.345c-0.167,0-0.042-0.919-0.125-1.044
	c-0.084-0.126-0.627,0.251-0.961,0.125c-0.336-0.125-0.46-0.669-0.753-0.669c-0.293,0-0.336-0.334-0.336-0.711
	c0-0.377-0.542-0.753-0.877-1.004c-0.336-0.251-0.418-0.962-0.627-1.087c-0.121-0.073-0.073-0.586-0.014-1.013
	c-0.52-0.007-1.035-0.062-1.172-0.202c-0.278-0.275-0.669,0.115-1.392,0.616c-0.726,0.502-1.618,0.335-1.618,0.669
	c0,0.335-0.335,0.502-0.725,0.391c-0.391-0.112-0.726-0.169-0.893,0.446c-0.168,0.612-0.78,0.222-0.836,0.891
	c-0.056,0.67-0.669,0.224-1.171-0.055c-0.502-0.279-0.613,1.392-0.613,1.392s-0.335,0.393-0.614,1.173
	c-0.279,0.781-1.226,0.557-1.505,0.668c-0.278,0.113,0.279,0.893,0.112,1.229c-0.102,0.203-0.329,0.802-0.526,1.45
	c0.413,0.068,0.8,0.418,0.917,0.614c0.168,0.276,1.171,1.337,1.673,0.778c0.502-0.557,1.895-0.612,2.229-0.279
	c0.334,0.336,0.558,0.168,0.614-0.166c0.055-0.333-0.558-1.562-0.335-1.897c0.222-0.335,4.572-0.166,4.738,0.112
	c0.167,0.278,0.167-0.558,0.726-0.502c0.558,0.055,1.394,0.334,1.729,0.224c0.335-0.111,0.724-0.727,1.059-0.727
	c0.335,0,1.338-0.053,1.561-0.333c0.224-0.279,0.614-0.279,0.502-0.725C359.188,732.207,359.188,732.201,359.187,732.194z"/>
<path opacity="0.05" fill="#FFFFFF" d="M382.608,712.863c0-0.273-0.062-1.503-0.11-2.421l-1.496,0.81c0,0-0.399-0.661-1.194-1.193
	c-0.794-0.531-2.782-0.531-2.782-0.531l-8.089,5.04l-3.447,2.782c0,0-2.253,0.798-2.917,0.929c-0.077,0.018-0.163,0.033-0.251,0.052
	c0.021,1.381,0.058,4.884-0.122,5.018c-0.223,0.168-0.391,1.173-0.614,1.394c-0.223,0.224-0.502,0.835-1.172,0.835
	c-0.669,0-2.285,0.393-2.954,0.28c-0.669-0.111-1.227,0.388-1.506,0.503c-0.141,0.054-0.688,0.096-1.227,0.087
	c-0.059,0.427-0.106,0.939,0.014,1.013c0.21,0.125,0.292,0.836,0.627,1.087c0.335,0.251,0.877,0.627,0.877,1.004
	c0,0.377,0.043,0.711,0.336,0.711c0.292,0,0.417,0.544,0.753,0.669c0.334,0.126,0.877-0.251,0.961-0.125
	c0.083,0.125-0.042,1.044,0.125,1.044c0.1,0,0.481,0.081,0.766,0.345c-0.101-0.445,0.121-1.036,0.671-0.872
	c0.558,0.167,0.111,0.668,0.613,0.892c0.501,0.222,0.781,0.056,0.781-0.335c0-0.39,0.669-1.171,0.836-1.337
	c0.167-0.169,0.111-1.227,0.446-1.506c0.335-0.281,1.338-0.057,1.729,0c0.391,0.056,0.669-0.782,1.116-0.39
	c0.445,0.39,1.17,0.055,1.506,0.445c0.333,0.39,0.501,1.337,1.059,1.003c0.557-0.335,1.225-0.444,1.561-0.444
	c0.334,0,1.115,0.668,1.45,0.778c0.334,0.113,1.449,0.223,1.839,0c0.39-0.222,0.893-0.947,1.394-0.891
	c0.502,0.055,2.064-0.113,2.398,0.055c0.335,0.167,1.06,0.557,1.561,0.391c0.503-0.167,0.948-1.113,1.339-1.228
	c0.123-0.033,0.201-0.026,0.268-0.005c0.006-0.216,0.01-0.423,0.01-0.606c0-1.003,0.224-0.613,0.392-1.617
	c0.166-1.004,2.788-3.625,3.011-3.792c0.224-0.167,0.222-4.126,0.222-4.685c0-0.557,0.113-1.226,0.335-2.006
	c0.223-0.782-0.391-0.726-0.335-1.451C383.444,713.87,382.608,713.312,382.608,712.863z"/>
<path opacity="0.05" fill="#FFFFFF" d="M384.182,709.528l-1.685,0.915c0.048,0.918,0.11,2.148,0.11,2.421
	c0,0.448,0.836,1.007,0.78,1.729c-0.056,0.726,0.558,0.669,0.335,1.451c-0.222,0.78-0.335,1.449-0.335,2.006
	c0,0.559,0.002,4.518-0.222,4.685c-0.223,0.167-2.845,2.788-3.011,3.792c-0.168,1.004-0.392,0.614-0.392,1.617
	c0,0.184-0.004,0.391-0.01,0.606c0.144,0.05,0.209,0.205,0.399,0.396c0.28,0.279,0.28,0.782,0.837,0.782
	c0.558,0,1.227,1.283,1.171,1.785c-0.055,0.501,0.279,0.78,0.223,1.672c-0.055,0.893,0.502,2.175,0.782,2.344
	c0.277,0.166-0.114,0.333-0.782,0.276c-0.668-0.055-1.616-0.055-1.616,0.223c0,0.279-0.279,0.671,0.446,1.34
	c0.726,0.669,1.339,0.891,1.561,1.615c0.224,0.726,0.502,1.395,0.727,1.564c0.222,0.166,0.668,0.111,1.057-0.447
	c0.392-0.557,0.839,0.502,1.228,0c0.39-0.502,1.729-0.444,2.064-0.613c0.334-0.167,1.338-0.614,1.672-0.893
	c0.335-0.278-0.391-0.724,0.112-1.004c0.129-0.071,0.328-0.091,0.563-0.095v-24.932L384.182,709.528z"/>
<path opacity="0.05" fill="#FFFFFF" d="M376.172,761.853c0.932,0,0.584-0.583,0.232-1.518c-0.349-0.931,0.584-0.815,1.167-0.815
	c0.584,0,0.349-1.049,0.815-1.049s0.582,1.282,1.049,1.166c0.467-0.117,0.816,0.351,1.398,0.233
	c0.583-0.117,0.583-1.283,0.583-2.215c0-0.934,0.116-1.633-0.467-1.982c-0.582-0.351-1.048-1.166-0.348-1.515
	c0.699-0.351,0.815-1.051,0.232-1.516c-0.583-0.467-1.865,0.465-1.865,0c0-0.255,0.104-1.165,0.199-1.943
	c-1.35-0.044-2.804-0.121-2.804-0.121l-0.347,0.101c0.081,1.366-0.079,2.429-0.079,2.429s-2.098,0.117-2.565,0.117
	c-0.101,0-0.421,0.045-0.872,0.116c-0.095,0.15-0.224,0.301-0.32,0.396c-0.251,0.25,0.585,0.585,0.725,0.948
	c0.14,0.362-1.061,0.251-1.033,0.779c0.03,0.53-0.417,0.949-0.752,1.199c-0.335,0.251,0.893,1.31,0.92,1.672
	c0.028,0.363,0.307,0.698,1.368,1.729c1.011,0.986,0.527,1.237,1.865,2.323C375.45,762.114,375.732,761.853,376.172,761.853z"/>
<path opacity="0.05" fill="#FFFFFF" d="M375.939,753.108c0,0,0.16-1.062,0.079-2.429l-0.466,0.132h-2.612
	c0.007,0.018,0.01,0.04,0.021,0.055c0.278,0.418,0.139,1.031-0.446,1.228c-0.585,0.196-0.558,0.724-0.083,0.751
	c0.291,0.018,0.224,0.257,0.069,0.497c0.452-0.071,0.771-0.116,0.872-0.116C373.841,753.225,375.939,753.108,375.939,753.108z"/>
<path opacity="0.05" fill="#FFFFFF" d="M378.854,763.6c0.349,0.117,0.582,0.699,1.281,0.117c0.699-0.583,1.516-0.466,1.516,0.117
	c0,0.582,0.234,0.465,0.817-0.117c0.58-0.583,1.164,0.117,1.164-1.05c0-1.165,0.7-0.115,0.7-1.397c0-1.282,0.116-2.567,0.116-3.149
	c0-0.583,1.633-1.165,1.633-2.098s1.398-2.798,1.398-3.962c0-1.168,0.351-1.4,0.701-1.982c0.241-0.403,0.419-1.198,0.278-1.957
	v0.015l-1.628-0.23l-0.814,0.23l-1.046,0.233c0,0,0.116,0.813-0.35,1.396c-0.466,0.582-0.582,1.861-0.582,1.861
	s-2.093-1.048-2.673-0.931c-0.249,0.049-1.196,0.035-2.199,0.004c-0.096,0.778-0.199,1.688-0.199,1.943c0,0.465,1.282-0.467,1.865,0
	c0.583,0.465,0.468,1.165-0.232,1.516c-0.7,0.349-0.234,1.164,0.348,1.515c0.583,0.35,0.467,1.049,0.467,1.982
	c0,0.932,0,2.098-0.583,2.215c-0.583,0.117-0.932-0.351-1.398-0.233c-0.467,0.116-0.582-1.166-1.049-1.166s-0.231,1.049-0.815,1.049
	c-0.583,0-1.516-0.115-1.167,0.815c0.352,0.935,0.699,1.518-0.232,1.518c-0.441,0-0.722,0.262-0.899,0.536
	c0.062,0.051,0.125,0.102,0.198,0.157c0.781,0.604,1.278,1.295,1.616,1.991C377.863,764.008,378.66,763.537,378.854,763.6z"/>
<path opacity="0.05" fill="#FFFFFF" d="M381.76,645.255c0.064,0.15,0.177,0.276,0.207,0.781c0.041,0.711,0.209,1.212,0.459,1.506
	c0.197,0.229,0.161,0.581,0.058,0.845c0.352,0.258,0.744,0.509,1.092,0.632c0.871,0.313,1.184,0.56,1.243,0.873
	c0.063,0.312,0.811,0.872,1,0.436c0.185-0.436,0.684-0.187,1.057-0.187c0.375,0,0.438,0.436,0.498,0.685
	c0.062,0.249,0.935,0.125,1.248,0.312c0.31,0.186,0.435,0.872,0.87,1.121c0.258,0.145,0.492,0.012,0.705-0.084v-6.92H381.76z"/>
<path opacity="0.05" fill="#FFFFFF" d="M388.602,668.299c-0.074-0.375,1.125-2.099,1.425-2.099c0.248,0,0.342-1.656,0.236-2.517
	c-0.93-0.641-1.702-0.861-1.702-0.861s-2.497-0.123-2.913-0.292c-0.416-0.165-0.833,0.542-1.208,0.251
	c-0.374-0.291-0.917,0.083-0.832,0.5c0.084,0.417,0.874,0.667,0.874,1.29c0,0.625,1.582,1.541,1.54,1.874
	c-0.028,0.232,0.949,0.868,1.534,1.724c0.31,0.196,0.641,0.453,0.968,0.715C388.589,668.609,388.621,668.394,388.602,668.299z"/>
<path opacity="0.05" fill="#FFFFFF" d="M386.022,666.445c0.042-0.333-1.54-1.25-1.54-1.874c0-0.623-0.79-0.873-0.874-1.29
	c-0.085-0.417,0.458-0.791,0.832-0.5c0.375,0.292,0.792-0.416,1.208-0.251c0.416,0.168,2.913,0.292,2.913,0.292
	s0.773,0.22,1.702,0.861c-0.02-0.172-0.049-0.317-0.088-0.405c-0.223-0.526,0-1.123-0.6-1.348c-0.309-0.116-0.436-0.651-0.491-1.141
	c-0.282,0.085-0.521,0.157-0.651,0.19c-0.498,0.125-1.558,0.061-1.931-0.438c-0.279-0.37-1.145-0.914-1.567-1.167
	c-0.175,0.152-0.839,0.72-1.128,0.755c-0.336,0.042-0.127,0.919-0.462,0.919c-0.334,0-0.584,0.586-0.668,0.837
	c-0.083,0.251-0.835-0.169-1.17-0.042c-0.24,0.09-0.945,0.2-1.33,0.257c0.059,0.381,0.035,0.802,0.341,0.802
	c0.501,0,1.422-0.055,1.449,0.614c0.027,0.669,1.227,2.147,1.671,2.648c0.445,0.502,1.451,0.393,1.506,0.81
	c0.057,0.417,0.781,0.808,1.618,0.863c0.228,0.017,0.501,0.147,0.794,0.332C386.971,667.314,385.993,666.678,386.022,666.445z"/>
<path opacity="0.05" fill="#FFFFFF" d="M384.259,653.879c-0.497-0.561-1.742-0.561-1.742-0.561s-0.125,0.561-0.312,0.872
	c-0.157,0.26-1.062,0.256-1.642,0.1c-0.165,0.215-0.918,0.383-1.022,0.695c-0.125,0.377-1.045,0.168-0.751,1.17
	c0.292,1.004-0.461,0.671-0.754,0.544c-0.293-0.125-1.589,0.042-1.924,0.375c-0.335,0.335-0.794,0.251-1.088,0.085
	c-0.292-0.167-0.877-0.251-1.128,0.167c-0.251,0.42-0.711-0.333-1.088-0.291c-0.376,0.04-0.208,0.835-0.208,1.003
	c0,0.167,0.585,0.669,0.961,0.502c0.376-0.168,0.837,0.04,1.171,0.25c0.335,0.209,0.962-0.168,1.17-0.377
	c0.21-0.208,1.381-0.208,1.507-0.208c0.126,0,0.167,0.668,0.377,0.795c0.208,0.124,1.004,0.208,1.714,0.251
	c0.711,0.04,1.757,0.376,2.092,0.376c0.334,0,0.878-0.586,1.629-0.586c0.753,0,1.172-0.46,1.297-0.418
	c0.003,0.002,0.006,0.005,0.007,0.008c0.055-0.235,0.143-0.421,0.306-0.446c0.307-0.042,0.087-0.567,0.307-0.828
	c0.218-0.262-0.176-0.785,0.218-0.742c0.393,0.044,0.827,0.088,0.827-0.48c0-0.19,0.103-0.359,0.253-0.5
	c-0.431-0.604-0.74-1.57-0.74-1.57S384.759,654.439,384.259,653.879z"/>
<path opacity="0.05" fill="#FFFFFF" d="M389.241,655.932c0,0.438-1.991,0.5-2.553,0c-0.088-0.079-0.173-0.183-0.255-0.297
	c-0.149,0.141-0.253,0.31-0.253,0.5c0,0.568-0.435,0.524-0.827,0.48c-0.393-0.043,0,0.48-0.218,0.742
	c-0.22,0.261,0,0.786-0.307,0.828c-0.163,0.024-0.251,0.211-0.306,0.446c0.132,0.062,0.454,0.703,0.454,0.703
	s-0.017,0.017-0.043,0.04c0.423,0.253,1.288,0.797,1.567,1.167c0.373,0.499,1.433,0.563,1.931,0.438
	c0.289-0.072,1.115-0.331,1.764-0.537v-5.002C389.707,655.539,389.241,655.699,389.241,655.932z"/>
<path opacity="0.05" fill="#FFFFFF" d="M388.621,651.138c-0.314-0.187-1.186-0.062-1.248-0.311c-0.06-0.249-0.123-0.685-0.498-0.685
	c-0.373,0-0.871-0.25-1.057,0.187c-0.189,0.436-0.937-0.125-1-0.436c-0.06-0.313-0.372-0.56-1.243-0.873
	c-0.348-0.123-0.74-0.374-1.092-0.632c-0.028,0.075-0.062,0.144-0.1,0.2c-0.167,0.253-0.752-0.209-1.003,0.042
	c-0.252,0.25-1.087,0.293-1.548,0.711c-0.459,0.419-1.422,0.628-1.965,0.753c-0.544,0.127-0.083,0.628,0.125,1.004
	c0.21,0.375,0.21,1.296,0.628,1.59c0.419,0.292,1.798,1.171,1.966,1.463c0.027,0.05,0.011,0.098-0.024,0.141
	c0.58,0.156,1.484,0.16,1.642-0.1c0.188-0.312,0.312-0.872,0.312-0.872s1.245,0,1.742,0.561c0.5,0.56,1.435,0.187,1.435,0.187
	s0.052,0.157,0.136,0.379c0.134-0.307,0.31-0.577,0.523-0.61c0.525-0.073,1.275-0.148,1.799-0.897
	c0.272-0.386,0.72-0.694,1.093-0.899C388.993,651.728,388.863,651.282,388.621,651.138z"/>
<path opacity="0.05" fill="#FFFFFF" d="M389.491,652.259c-0.096-0.055-0.177-0.134-0.247-0.222c-0.373,0.205-0.82,0.513-1.093,0.899
	c-0.524,0.749-1.273,0.824-1.799,0.898c-0.214,0.033-0.39,0.303-0.523,0.61c0.17,0.441,0.485,1.156,0.859,1.488
	c0.562,0.5,2.553,0.438,2.553,0c0-0.233,0.466-0.392,0.955-0.492v-3.265C389.983,652.271,389.749,652.404,389.491,652.259z"/>
<path opacity="0.05" fill="#FFFFFF" d="M340.87,679.184c0.746-0.134-0.204-0.744-0.408-0.948c-0.204-0.203,0.068-1.019,0.476-1.019
	c0.407,0,0-0.475-0.543-1.019c-0.542-0.542,0-0.746,0.476-0.746c0.475,0-0.136-0.812,0.338-1.288
	c0.475-0.475-0.136-1.357-0.136-1.763c0-0.407,0.679-0.543,1.222-1.085c0.542-0.544-0.476-0.34-0.476-0.747
	c0-0.407-0.678-0.544-1.152-0.204c-0.476,0.341-0.34,0-0.747,0c-0.408,0-1.154,0.136-1.154-0.271c0-0.409-0.339-0.475-0.679-0.07
	c-0.099,0.121-0.271,0.185-0.501,0.214c-0.05,0.531-0.105,1.027,0.051,1.279c0.362,0.586-0.446,3.679-1.171,4.518
	c-0.726,0.835-0.027,1.059,0.725,1.645c0.753,0.585,0.251,2.703,0.251,3.206c0,0.502,0.668,0.362,1.449,0.362
	c0.465,0,0.99-0.207,1.505-0.297c-0.153-0.234-0.273-0.463-0.273-0.613C340.124,679.931,340.124,679.32,340.87,679.184z"/>
<path opacity="0.05" fill="#FFFFFF" d="M365.948,650.679c-0.371,0.21-0.711,0.656-0.66,1.602c0.363-0.011,0.874,0.033,1.244,0.141
	c-0.089-1.031-0.492-1.351-0.596-1.563C365.907,650.8,365.916,650.74,365.948,650.679z"/>
<path opacity="0.05" fill="#FFFFFF" d="M359.301,648.586c0.041,0.292,0.502,1.003,0.668,0.712c0.167-0.293,0.586,0.375,0.962,0.584
	c0.376,0.208,1.128,0.46,1.17,0.711c0.042,0.251,0.168,0.795,0.544,0.629c0.377-0.169,0.836-0.753,0.836-0.42
	c0,0.335,0.126,0.963,0.543,0.879c0.419-0.084,0.544,0.71,0.963,0.626c0.076-0.014,0.18-0.023,0.301-0.027
	c-0.051-0.945,0.288-1.392,0.66-1.602c0.086-0.167,0.337-0.34,0.378-0.545c0.056-0.279-0.557-0.835-0.502-1.171
	c0.003-0.017,0.005-0.04,0.007-0.06c-0.138-0.106-0.28-0.226-0.411-0.358c-0.512-0.511-1.023-0.595-1.364-0.935
	c-0.341-0.341-0.938-0.511-1.278-0.171c-0.341,0.341-1.278,0.596-1.789,0.596c-0.118,0-0.364-0.094-0.673-0.236
	c-0.403,0.232-0.831,0.452-1.258,0.539C359.142,648.454,359.273,648.392,359.301,648.586z"/>
<path opacity="0.05" fill="#FFFFFF" d="M373.56,658.541c-0.376,0.167-0.961-0.335-0.961-0.502c0-0.117-0.078-0.533,0.001-0.793
	c-0.311-0.159-0.756-0.375-1.089-0.474c-0.558-0.167-0.836-0.167-1.282,0.055c-0.285,0.141-1.07,0.102-1.6,0.055
	c-0.046,0.167-0.122,0.278-0.255,0.278c-0.376,0-0.878,0.377-0.961,0.795c-0.083,0.418-0.962,0.753-1.214,1.506
	c-0.25,0.752-0.125,1.086,0.252,0.626c0.377-0.46,0.836-0.292,0.836,0.084c0,0.376,0.503,0.418,0.335,0.919
	c-0.003,0.013-0.003,0.019-0.005,0.031c0.571-0.051,1.366-0.116,1.609-0.116c0.39,0,0.78-1.225,0.947-1.337
	c0.167-0.112,0.614,0.892,1.061,1.284c0.445,0.39,0.501-0.335,0.501-0.671c0-0.335,0.39-0.447,0.668-0.39
	c0.279,0.055,0.892,0.167,0.892-0.223c0-0.388,0.336-0.222,0.558-0.222c0.223,0,0.28-0.447,0.28-0.447l0.365-0.339
	C374.202,658.511,373.855,658.409,373.56,658.541z"/>
<path opacity="0.05" fill="#FFFFFF" d="M381.967,646.036c-0.03-0.506-0.143-0.631-0.207-0.781h-14.146
	c0.022,0.072,0.028,0.139-0.005,0.195c-0.167,0.28-0.391,0.113-0.391,0.616c0,0.5-0.781,0.5-1.059,0.5
	c-0.279,0,0.055,0.503-0.111,0.892c-0.168,0.39-0.168,1.171-0.224,1.506c-0.055,0.335,0.558,0.892,0.502,1.171
	c-0.055,0.28-0.502,0.502-0.389,0.725c0.104,0.212,0.507,0.532,0.596,1.563c0.193,0.055,0.351,0.128,0.42,0.222
	c0.252,0.333,0.67,0.584,1.213,0.584c0.544,0,0.753,0.378,1.004,0.335c0.251-0.042,0.921,0.169,0.378,0.628
	c-0.544,0.46-0.628,1.002-0.753,1.546c-0.082,0.352-0.077,0.84-0.164,1.143c0.53,0.047,1.315,0.086,1.6-0.055
	c0.445-0.222,0.724-0.222,1.282-0.055c0.333,0.099,0.777,0.315,1.089,0.474c0.034-0.112,0.094-0.198,0.207-0.21
	c0.377-0.042,0.837,0.711,1.088,0.291c0.251-0.418,0.836-0.333,1.128-0.167c0.294,0.167,0.753,0.25,1.088-0.085
	c0.335-0.333,1.631-0.5,1.924-0.375c0.293,0.127,1.046,0.46,0.754-0.544c-0.294-1.002,0.626-0.793,0.751-1.17
	c0.126-0.376,1.213-0.542,1.047-0.836c-0.168-0.292-1.547-1.172-1.966-1.463c-0.418-0.293-0.418-1.215-0.628-1.59
	c-0.208-0.376-0.669-0.878-0.125-1.004c0.543-0.124,1.506-0.333,1.965-0.753c0.461-0.418,1.296-0.46,1.548-0.711
	c0.251-0.251,0.836,0.211,1.003-0.042c0.169-0.251,0.293-0.753,0.042-1.044C382.176,647.248,382.008,646.747,381.967,646.036z"/>
<path opacity="0.05" fill="#FFFFFF" d="M369.169,653.563c-0.251,0.042-0.459-0.335-1.004-0.335c-0.543,0-0.961-0.25-1.213-0.584
	c-0.251-0.336-1.546-0.418-1.964-0.336c-0.419,0.084-0.544-0.71-0.963-0.626c-0.417,0.084-0.543-0.544-0.543-0.879
	c0-0.333-0.459,0.251-0.836,0.42c-0.376,0.167-0.502-0.378-0.544-0.629c-0.042-0.251-0.794-0.502-1.17-0.711
	c-0.375-0.209-0.794-0.878-0.962-0.584c-0.167,0.291-0.628-0.42-0.668-0.712c-0.028-0.194-0.159-0.132-0.244-0.25
	c-0.143,0.031-0.285,0.048-0.426,0.04c-0.67-0.027-1.255,0.502-1.143,1.62c0.111,1.114-0.81,1.226-1.953,1.308
	c-1.143,0.085-0.752,0.977-1.225,1.339c-0.474,0.362-2.147-0.194-2.371-0.808c-0.224-0.612-1.728,0-1.087,0.724
	c0.641,0.725,0.612,1.729,0.251,2.008c-0.361,0.28-1.143-0.445-1.646-0.084c-0.501,0.365-0.529-0.333-1.142-0.555
	c-0.613-0.225-0.865,0.277-1.84,0.194c-0.977-0.085-1.534,0.473-1.171,0.892c0.361,0.418-0.057,0.808,0.222,1.171
	c0.279,0.363,1.561,0.306,2.509,0.808c0.948,0.501,1.17,0.082,1.645,0.447c0.475,0.363,0.585,0.139,0.613,0.837
	c0.029,0.696,0.559,1.365,1.479,1.616c0.919,0.252,0.223,0.865,0.502,1.479c0.277,0.614-0.419,1.504-0.279,2.259
	c0.14,0.752-0.447,3.177-0.893,3.4c-0.028,0.015-0.075,0.015-0.111,0.023c0.418,0.207,0.857,0.39,1.072,0.531
	c0.407,0.273,1.288,0.542,1.832,0.883c0.542,0.339,1.492,0.271,1.492-0.137c0-0.405,0.542-0.134,0.882,0.205
	c0.338,0.339,1.628,0.407,2.238,0.542c0.515,0.114,1.266,0.042,1.937,0.057c-0.026-0.154-0.06-0.312-0.113-0.486
	c-0.335-1.088,0.64-1.729,1.56-1.868c0.919-0.14,2.928,0.417,3.459,0.753c0.528,0.333,1.254,0.25,2.174-0.726
	c0.464-0.493,0.845-0.672,1.181-0.769c0.025-0.218,0.139-0.442,0.212-0.638c0.126-0.335-0.46-0.253-0.878-0.293
	c-0.418-0.042-0.71-0.461-0.418-0.921c0.293-0.46-0.251-0.502-0.544-0.961c-0.293-0.46,0.126-0.333,0.376-0.46
	c0.251-0.125,0.586-0.627,0.376-0.752c-0.208-0.126-0.376-0.419-0.208-0.921c0.167-0.502-0.335-0.544-0.335-0.919
	c0-0.375-0.459-0.544-0.836-0.084c-0.377,0.46-0.502,0.126-0.252-0.626c0.252-0.753,1.13-1.088,1.214-1.506
	c0.083-0.418,0.585-0.795,0.961-0.795c0.377,0,0.293-0.878,0.419-1.421c0.125-0.544,0.208-1.086,0.753-1.546
	C370.09,653.732,369.42,653.521,369.169,653.563z M372.154,667.756c-0.308-0.028-0.392,0.527-1.171,1.003
	c-0.78,0.475,0.005,2.614,0.779,2.508C372.571,671.155,372.459,667.782,372.154,667.756z"/>
<path opacity="0.05" fill="#FFFFFF" d="M187.25,728.406c-0.323-0.443-1.17,0.078-2.059-0.526c-0.233-0.159-0.521-0.291-0.82-0.402
	c-0.021,0.014-0.039,0.031-0.068,0.04c-0.19,0.055-0.775,0.581-1.341,1.119c0.638,0.502,3.013,1.249,3.663,1.249
	c0.306,0,0.47-0.138,0.608-0.251C187.324,729.049,187.359,728.555,187.25,728.406z"/>
<path opacity="0.05" fill="#FFFFFF" d="M189.228,729.657c0.081-0.161-0.484-1.091,0.605-1.173c1.09-0.078,1.898-0.201,2.059-0.887
	c0.162-0.688,1.453-0.362,1.817-0.403c0.3-0.034,1.262-0.921,2.203-0.885c0.013-0.919-1.234-0.623-2.096-1.483
	c-0.92-0.92-2.927-0.502-4.015-0.082c-1.087,0.417-2.342-0.462-3.513,0.208c-0.015,0.008-0.026,0.012-0.041,0.018
	c-0.255,0.323-0.607,0.72-1.017,1.052c-0.788,0.64-0.571,1.271-0.86,1.455c0.299,0.111,0.587,0.243,0.82,0.402
	c0.889,0.604,1.736,0.083,2.059,0.526c0.108,0.148,0.074,0.643-0.017,1.229c0.164-0.132,0.29-0.228,0.562,0
	c0.245,0.206,0.201,0.46,0.17,0.712l0.698-0.166C188.663,730.181,189.147,729.819,189.228,729.657z"/>
<path opacity="0.05" fill="#FFFFFF" d="M179.741,724.326c0.202-0.041,2.301,0.244,2.503-0.282c0.202-0.524-1.574-1.694-1.372-1.815
	c0.201-0.121,0.283-1.414,0.605-1.414c0.323,0,3.271,0.082,3.432,0c0.162-0.079,0.727-1.131,1.211-1.171
	c0.221-0.017,0.567,0.253,0.879,0.55c0.543-0.505,0.735-1.64,0.838-2.56c0.126-1.13-0.251-1.506,0.335-2.132
	c0.585-0.629,1.212-0.671,1.044-1.548c-0.167-0.88-0.961,0-1.63-0.418c-0.669-0.42-1.254-0.127-2.969,0.124
	c-1.715,0.252-2.509,0.962-2.426,2.175c0.083,1.213-0.585,0.669-0.543,1.714c0.042,1.047-1.338,1.087-1.255,1.716
	c0.085,0.626-1.087,0-1.422-0.209c-0.334-0.209-3.931,0.877-4.433,0.961c-0.502,0.084-1.422-1.045-2.133-1.003
	c-0.711,0.042-1.004-1.046-1.088-1.924c-0.083-0.878-1.421-1.672-2.007-2.468c-0.586-0.795-0.669-2.552-0.711-3.681
	c-0.042-1.128-0.167-3.054,0.628-5.268c0.106-0.299,0.156-0.558,0.169-0.788c-0.29-0.177-0.572-0.305-0.785-0.293
	c-0.715,0.044-2.323-0.938-2.636-0.938c-0.312,0-0.268-0.759-0.536-1.162c-0.268-0.401-0.09-1.162-0.447-1.43
	c-0.358-0.268-1.429-1.295-1.787-2.547c-0.358-1.25-2.546-1.876-3.351-1.919c-0.804-0.046-1.251,1.652-1.474,1.74
	c-0.223,0.09-1.742-0.893-2.189-1.115c-0.447-0.224-0.67-0.671-0.67-1.208c0-0.536-0.938-1.384-1.206-1.473
	c-0.268-0.09-2.144-1.922-2.144-1.922h-2.949l-0.626,0.803l-5.361,0.046c0,0-4.11-1.519-4.87-1.697c-0.76-0.179-2.1-1.117-2.1-1.117
	l-4.337,0.567c0.223,0.478,0.533,0.993,0.998,1.573c0.878,1.085,1.506,3.009,1.59,3.677c0.083,0.672,1.296,1.217,2.341,1.885
	c1.046,0.668,1.046,2.133,0.92,2.508c-0.126,0.377-1.422-0.249-1.505,0.126c-0.084,0.375,1.672,1.84,2.341,1.758
	c0.669-0.085,1.004,0.333,2.049,1.254c1.046,0.92,0.963,2.006,0.544,2.341c-0.418,0.336,0.837,1.047,2.175,1.925
	c1.338,0.877,1.882,1.966,2.007,2.425c0.125,0.46,0.71,0.043,0.92-0.586c0.209-0.627-0.418-0.793-0.418-1.504
	c0-0.713-1.088-0.586-1.59-0.668c-0.502-0.085,0.042-1.173-0.46-1.676c-0.502-0.502-0.962-1.757-1.213-2.677
	c-0.251-0.919-1.547-1.839-2.09-2.843c-0.544-1.004-1.129-1.797-1.506-2.05c-0.376-0.251,0.544-0.626,0.209-1.001
	c-0.335-0.379-0.836-0.337-1.463-0.63c-0.627-0.292-1.046-0.793-1.046-1.463c0-0.668-0.418-2.258-0.627-2.801
	c-0.209-0.545,0.46-0.461,0.669-0.211c0.21,0.251,0.377,0.502,0.67,0.335c0.293-0.166,0.794-0.042,1.003,0.419
	c0.209,0.458,0.92,0.041,1.254,0.251c0.334,0.207-0.753,0.46,0.334,2.384c1.088,1.924,0.335,0.836,0.335,2.133
	s0.669,0.71,0.878,0.501c0.21-0.208,0.795,0.418,1.338,1.087c0.544,0.671,1.589,0.711,1.589,1.088c0,0.376,0.209,1.129,0.92,1.255
	c0.711,0.125,0.836,0.92,1.296,1.005c0.46,0.082,0.544,0.584,0.293,1.127c-0.25,0.545,0,1.006,1.171,1.465
	c1.17,0.46,0.628,0.544,1.547,1.422c0.92,0.88,3.513,3.723,4.056,4.518c0.544,0.793,0.711,1.462,0.921,2.048
	c0.209,0.585-0.419,0.88-0.084,1.38c0.334,0.504-0.628,0.293-0.585,0.67c0.042,0.376,0.585,2.258,1.505,2.342
	c0.92,0.084,1.966,1.213,2.719,1.841c0.753,0.627,1.881,0.5,3.011,0.92c1.129,0.417,2.09,1.421,3.722,1.881
	c1.631,0.46,3.221,1.171,4.266,1.842c1.045,0.668,2.342,0.375,3.805-0.211c1.464-0.585,2.593,0.167,3.43,0.502
	c0.413,0.165,1.22,0.857,2.03,1.579C178.938,725.305,179.648,724.347,179.741,724.326z"/>
<path opacity="0.05" fill="#FFFFFF" d="M185.231,726.023c0.411-0.332,0.762-0.729,1.017-1.052c-0.655,0.356-0.855,0.017-0.759-0.444
	l-0.944,0.124l0.097-3.809c-0.761,0.031-2.893-0.027-3.165-0.027c-0.322,0-0.404,1.293-0.605,1.414
	c-0.202,0.121,1.575,1.291,1.372,1.815c-0.202,0.526-2.301,0.241-2.503,0.282c-0.094,0.021-0.804,0.978-1.542,2.037
	c0.833,0.74,1.666,1.512,2.069,1.768c0.794,0.499,2.091-0.045,2.634,0.459c0.016,0.013,0.04,0.029,0.06,0.046
	c0.566-0.538,1.15-1.064,1.341-1.119C184.707,727.397,184.384,726.709,185.231,726.023z"/>
<path opacity="0.05" fill="#FFFFFF" d="M184.908,720.815c-0.025,0.014-0.125,0.022-0.266,0.027l-0.097,3.809l0.944-0.124
	c0.068-0.328,0.282-0.716,0.591-0.955c0.753-0.584-0.376-2.928,0.501-3.136c0.162-0.04,0.296-0.131,0.418-0.244
	c-0.312-0.297-0.659-0.564-0.881-0.548C185.636,719.684,185.07,720.736,184.908,720.815z"/>
<path opacity="0.05" fill="#FFFFFF" d="M214.853,716.464c-0.836,0.584,1.254,1.839,1.254,2.592c0,0.751-3.356-0.144-3.68,0.668
	c-0.167,0.419,1.171,1.005,2.425,0.587c1.169-0.39,1.97,0.017,2.617,0.345c0.094-1.269,0.239-2.696,0.371-3.666
	C216.781,716.717,215.462,716.034,214.853,716.464z"/>
<path opacity="0.05" fill="#FFFFFF" d="M219.955,719.891c1.506-0.502,3.932,0.42,3.932-0.75c0-1.173-4.015-2.428-5.019-2.093
	c-0.273,0.09-0.632,0.044-1.028-0.059c-0.132,0.97-0.276,2.397-0.371,3.666c0.048,0.024,0.097,0.049,0.144,0.073
	C218.283,721.062,218.449,720.394,219.955,719.891z"/>
<path opacity="0.05" fill="#FFFFFF" d="M192.24,734.099c0.415,0.21,1.451,0,1.867,0.312c0.2,0.15,0.541,0.153,0.933,0.103
	c-0.121-0.174-0.214-0.317-0.26-0.403c-0.293-0.544,0.208-1.63,0.46-2.426c0.251-0.795-0.209-2.719,0.251-3.22
	c0.46-0.502,0.209-0.796,0.418-1.967c0.013-0.074,0.004-0.126,0.004-0.188c-0.941-0.036-1.903,0.851-2.203,0.885
	c-0.364,0.041-1.655-0.284-1.817,0.403c-0.162,0.685-0.969,0.809-2.059,0.887c-1.089,0.082-0.525,1.012-0.605,1.173
	c-0.081,0.161-0.565,0.523-0.565,0.523l-0.698,0.166c-0.033,0.26-0.05,0.518,0.291,0.712c0.668,0.375,1.588,1.839,2.299,2.215
	c0.342,0.182,0.554,0.478,0.645,0.766C191.61,734.006,192.026,733.994,192.24,734.099z"/>
<path opacity="0.05" fill="#FFFFFF" d="M253.244,821.097c1.171-0.837,0.878-1.339,1.421-2.342c0.544-1.005,0.085-1.423,1.004-2.3
	c0.92-0.88-0.167-1.464,1.004-2.008c1.171-0.544,1.003,0.502,0.042,1.714c-0.962,1.213-1.129,1.549,0.126,0.629
	c1.254-0.922,1.715-2.217,2.426-3.683c0.711-1.461,1.255-1.922,1.882-2.006c0.628-0.084,0.628-1.632,0.543-2.719
	c-0.083-1.087-0.417-2.09,0.042-2.801c0.46-0.71,0-1.381,0.586-1.381c0.586,0,1.464-0.878,2.384-1.799
	c0.921-0.92,1.505-1.002,2.468-1.087c0.962-0.084,0.418-0.418,1.046-0.587c0.626-0.166,1.045-0.75,1.463-1.127
	c0.418-0.378,2.132,0.042,3.136,0.042c1.003,0,1.673,0.084,1.673-0.545c0-0.626,0.46-1.131,1.045-1.131
	c0.585,0,0.837-0.166,0.837-1.002c0-0.836,0.25-1.339,0.752-1.714c0.502-0.377,0.585-1.213,0.753-1.757
	c0.168-0.545,0.711-0.209,0.711-1.004c0-0.794,0.293-1.673,0.293-2.3c0-0.628,0.669-0.543,0.962-1.004
	c0.293-0.459-0.251-1.045,0.209-2.342c0.46-1.296,0-2.508,0-3.679s0-2.386,0.419-2.762c0.418-0.375,0.208-0.586-0.125-0.752
	c-0.335-0.167,0.042-0.629,0.334-0.544c0.293,0.084,0.628,0.71,1.171,0.377c0.544-0.335,1.046-1.758,1.505-2.928
	c0.46-1.172,1.213-1.13,1.798-1.382c0.586-0.251,1.84-1.672,2.635-3.722c0.794-2.048-0.042-4.057-0.376-5.479
	c-0.335-1.421-0.795-1.129-1.631-1.086c-0.836,0.041-2.426-0.169-4.517-2.427c-2.09-2.257-4.14-2.091-5.52-1.715
	c-1.38,0.378-2.802-0.669-3.722-0.877c-0.92-0.21-1.799,0.961-2.467,1.213c-0.669,0.25,0.333-1.005,0.375-1.798
	c0.042-0.796-2.509-1.925-4.433-2.677c-1.924-0.754-2.76-0.377-2.76,0.836c0,1.213-0.753-0.376-1.339,0.919
	c-0.585,1.297-1.673,0.46-0.962,0.042c0.711-0.417,1.38-1.379,1.631-2.174c0.25-0.795-2.76-1.422-3.806-1.004
	c-1.046,0.419-0.377,1.925-1.213,1.464c-0.836-0.46-0.167-1.589,0.502-1.548c0.669,0.044,1.422-1.338,1.882-2.342
	c0.46-1.004-0.794-1.171-1.547-2.007c-0.744-0.827-0.59-3.241-1.353-3.621c-0.818,0.808-1.919,2.076-2.229,3.005
	c-0.397,1.19-0.906,0.511-1.982,0.85c-1.076,0.341-1.585-0.113-1.868-0.565c-0.283-0.455-1.359,0-2.095-0.058
	c-0.736-0.057-0.283,0.905-0.792,1.19c-0.509,0.284-1.812-0.566-2.265-0.057c-0.453,0.51-0.735,0-0.962,0.452
	c-0.228,0.454-1.02,0.171-1.246,0.454c-0.227,0.282-1.019,0.453-2.038-0.68c-1.02-1.132-0.85-3.001-0.396-3.342
	c0.452-0.338,0.452-1.3-0.17-1.584c-0.624-0.282,0-1.472-0.792-1.585c-0.792-0.113-0.68,0.905-1.189,1.075
	c-0.51,0.171-1.755,1.018-2.322,0.907c-0.566-0.113-1.303,0.111-1.303,0.734c0,0.623-0.622,0.452-0.735-0.057
	c-0.113-0.507-1.302-0.226-1.642-0.566c-0.339-0.338-1.925-0.17-1.246,0.228c0.679,0.396,0.736,0.794,0.736,1.415
	c0,0.622,0.51,0.454,0.51,1.189c0,0.736,0.566,0.227,0.962,0.227c0.396,0,0.396,0.68-0.227,0.793
	c-0.623,0.114-0.906,0.451-1.075,1.019c-0.17,0.567-0.736,0.171-1.246,0.623c-0.509,0.454-0.962,0.906-1.302,0.681
	c-0.339-0.227-0.622-0.058-1.018,0.168c-0.396,0.227-0.566,0-1.133-0.452c-0.424-0.339-0.69-1.156-1.441-1.902
	c-0.448,0.211-1.357,0.539-1.846,0.539c-0.66,0-2.735-0.15-2.848,0.208c-0.113,0.357,0.151,0.963,0.49,1.038
	c0.339,0.075,1.056,0.283,0.377,0.773c-0.68,0.488-1.283-0.171-1.283,1.018c0,1.187,1.523,1.958,1.207,3.056
	c-0.164,0.564-0.387,2.016-0.387,2.574c0,0.555-0.222,2.45-0.724,2.562c-0.502,0.114-0.949-0.445-1.618,0.114
	c-0.669,0.555-1.505,0.222-2.285,0.835c-0.78,0.614-1.617,0.391-1.673,1.113c-0.056,0.726-0.78,1.116-0.613,1.785
	c0.168,0.67-0.335,0.502-0.837,1.004c-0.501,0.502,0.056,0.837-0.279,1.227c-0.335,0.391,0.112,1.005,0.502,1.616
	c0.39,0.615,0.837,1.061,0.782,1.617c-0.057,0.559,0.389,0.782,0.947,0.727c0.558-0.056,0.111,1.059,1.004,1.059
	c0.892,0,1.784,0.226,2.007-0.278c0.223-0.503,0.836-0.893,0.836-0.168c0,0.725-0.167,2.677,0.445,2.454
	c0.615-0.224,1.841-0.167,2.455,0.057c0.612,0.222,1.225,0,1.616-0.391c0.391-0.392,0.836-0.391,1.616-0.837
	c0.781-0.445,1.506-1.004,2.232-1.004c0.725,0,1.951-0.445,1.784,0.111c-0.167,0.558-0.278,2.622,0.614,3.679
	c0.892,1.062,1.394,1.451,2.23,1.339c0.836-0.111,0.726,0.336,1.338,0.281c0.614-0.058,0.224,0.668,0.781,0.668
	c0.557,0,1.561,0.112,1.561,0.725c0,0.614,1.673,0.113,2.063,0.446c0.391,0.335,0.837,0.613,0.725,1.283
	c-0.112,0.668,0.837,1.17,0.279,1.448c-0.558,0.28,0.167,0.838,0.223,1.562c0.055,0.724,0.836,1.004,2.063,0.947
	c1.227-0.056,1.562,0.057,1.562,0.949c0,0.891,0.836,1.004,1.115,1.84c0.279,0.836-0.334,1.783-0.223,2.452
	c0.085,0.515-0.225,1.058-0.575,1.284c0.43,0.546,0.466,0.794,0.081,1.006c-0.509,0.282,0.624,1.076,0.34,2.32
	c-0.282,1.246-0.339,1.472,0.964,1.53c1.301,0.057,1.188,0.452,1.641,0.168c0.453-0.281,1.131,0.964,1.301,1.587
	c0.17,0.621,0.68,2.092,0.906,2.092c0.228,0,0.907-0.677,1.585-0.339c0.632,0.317-0.155,2.444-0.178,3.377
	c0.472-0.017,1.05-0.017,1.24,0.081c0.339,0.168,0.509,2.455,0.34,2.879c-0.17,0.423-1.569,0.805-2.289,1.271
	c-0.72,0.467-2.457,2.118-3.263,3.432c-0.477,0.778-1.172,1.421-1.664,1.985c0.234,0.033,0.43,0.022,0.563-0.035
	c0.381-0.17,0.974-0.17,1.61,0.593c0.635,0.762,0.593,1.354,0.847,1.312c0.255-0.042,0.551-1.016,1.06-0.296
	c0.508,0.722,1.821,1.271,2.118,1.612c0.297,0.337,1.271,0.591,1.271,1.479c0,0.638-0.3,1.841,0.198,2.864
	C252.602,821.661,252.875,821.359,253.244,821.097z"/>
<path opacity="0.05" fill="#FFFFFF" d="M252.166,819.106c0-0.889-0.974-1.143-1.271-1.479c-0.297-0.341-1.61-0.891-2.118-1.612
	c-0.508-0.72-0.805,0.254-1.06,0.296c-0.254,0.042-0.212-0.551-0.847-1.312c-0.637-0.763-1.229-0.763-1.61-0.593
	c-0.133,0.058-0.329,0.068-0.563,0.035c-0.337,0.387-0.582,0.738-0.582,1.066c0,0.804-0.593,1.692-0.634,3.221
	c-0.044,1.524-0.467,1.269-0.509,2.456c-0.042,1.187,0.381,0.976,0.55,1.146c0.094,0.092-0.02,0.471-0.14,0.79
	c0.178,0.157,0.356,0.404,0.746,0.362c0.753-0.085,1.505,0.208,2.426,0.629c0.92,0.417,0.585-0.127,1.463,0
	c0.878,0.124,1.882,0.206,2.844-0.379c0.659-0.4,0.99-1.095,1.504-1.761C251.866,820.946,252.166,819.743,252.166,819.106z"/>
<path opacity="0.05" fill="#FFFFFF" d="M228.403,870.903c-1.045-0.042-3.094-1.965-3.722-2.465c-0.627-0.504-0.167-1.005-0.92-0.879
	c-0.753,0.124-0.251-0.587,0.167-0.796c0.384-0.192-0.149-0.907-0.661-1.023c-0.056,1.123-0.29,6.163,0.013,6.213
	c0.305,0.051,2.524-0.261,3.178,0.168c0.252,0.079,0.596,0.282,0.858-0.006c0.418-0.459,1.672-0.208,2.342-0.626
	C230.326,871.07,229.448,870.946,228.403,870.903z M251.572,804.872c-0.19-0.098-0.768-0.098-1.24-0.081
	c-0.001,0.069,0,0.135,0.007,0.192c0.114,0.791-0.396,2.829-0.961,2.772c-0.566-0.055-1.02,0.85-1.473,0.736
	c-0.453-0.111-1.076,0.68-1.642,0.339c-0.566-0.339-1.358,0.115-1.811-0.168c-0.454-0.282-1.756-0.058-1.756-0.396
	c0-0.341,0.624-0.226,0.624-1.246c0-1.019,1.698-2.15,1.472-2.547c-0.226-0.397-3.114-1.247-3.51-1.757
	c-0.396-0.509-0.963-0.964-2.095-1.075c-1.133-0.113-1.075-0.678-2.094-1.302c-0.851-0.519-2.172-1.906-2.619-2.679
	c-0.69-0.073-1.667-0.219-1.862,0.017c-0.278,0.335-0.724,1.894-1.115,1.113c-0.391-0.778-1.338-0.778-2.174-0.892
	c-0.837-0.11-0.78-0.893-1.673,0.057c-0.397,0.422-0.913,0.837-1.381,1.141c-0.055,0.902-0.22,1.917-0.385,2.206
	c-0.227,0.396-2.094,1.246-2.151,1.698c-0.057,0.452,0.227,1.075-0.113,1.357c-0.34,0.284,0.792,1.698,0.17,2.039
	c-0.623,0.339,0.453,0.905,0.056,1.246c-0.396,0.338-1.131,0.509-1.131,0.905c0,0.396-0.057,1.358-0.567,1.583
	c-0.509,0.229-0.85,1.076-0.85,1.699c0,0.623-0.792,0.227-0.508,1.018c0.282,0.795,0.622,1.757,0,1.925
	c-0.624,0.173-0.454,1.473-0.794,1.473c-0.34,0-0.509,1.359,0,2.038c0.51,0.68,0.624,1.246,0.624,1.87
	c0,0.621,0.679,0.961,0.452,1.642c-0.226,0.678-0.112,1.302-0.509,1.585c-0.396,0.284-0.057,1.13-0.566,1.359
	c-0.509,0.225,0.396,2.036,0,2.375c-0.396,0.342-1.415,0.625-1.415,1.869c0,1.246,0.192,1.951,0.057,2.492
	c-0.113,0.452,0.566,0.338,0.453,1.075c-0.113,0.734-1.019,0.284-1.075,0.734c-0.056,0.454,0.227,1.361-0.113,1.416
	c-0.34,0.057-0.51,0.396-0.51,1.19c0,0.792-0.452,0.905-0.508,1.301c-0.058,0.396,0.395,0.851,0.395,1.303
	c0,0.452,0.282,1.98-0.113,2.036c-0.396,0.058-0.622,1.758-0.282,1.982c0.339,0.226,0.339,0.681,0.169,1.02
	c-0.169,0.339,0.792,0.677,0.282,1.188c-0.509,0.51-0.105,1.164,0.567,0.963c0.566-0.169,0.905,0.849,0.283,0.849
	c-0.623,0-1.245,0-0.736,0.397c0.51,0.396,1.019,0.962,0.283,1.244c-0.736,0.283-0.113,0.793-0.283,1.474
	c-0.17,0.679,0.51,1.302-0.056,1.471c-0.567,0.168,0.226,1.189-0.567,1.302c-0.792,0.114-0.283,0.849-0.792,1.246
	c-0.51,0.396,0.679,1.075,0.056,1.472c-0.622,0.395-0.17,1.302-0.792,1.302c-0.624,0-0.963,0.849-1.02,1.246
	c-0.056,0.395-0.452,1.188,0.057,1.754c0.509,0.567-0.114,1.02,0.339,1.246c0.454,0.226,1.982-0.113,1.755,0.567
	c-0.226,0.677-0.17,2.15,0.114,2.15c0.283,0,0.453,0.85,0.906,0.792c0.453-0.058,2.491-0.283,3.341-0.058
	c0.419,0.113,0.769,0.362,1.017,0.588c0.485-0.215,1.547,0.479,1.788,0.237c0.293-0.293-1.045-1.38-1.004-1.756
	c0.041-0.378-0.209-1.005-0.209-1.422c0-0.419-0.209-1.339,0.376-1.757c0.586-0.418,0.628-0.837,1.004-0.753
	c0.376,0.084,1.129-0.335,1.171-1.339c0.042-1.003,0.502-1.38,1.339-2.091c0.911-0.774,2.425-1.506,2.216-1.839
	c-0.209-0.335,0.334-1.422,0.334-1.841c0-0.418-1.421-0.336-1.882-0.503c-0.46-0.166-2.132-1.337-1.296-2.885
	c0.836-1.546,2.593-1.714,3.095-1.756c0.502-0.043,0.042-0.752,0.46-1.005c0.418-0.251,0.501-0.669,0.501-1.295
	c0-0.711,0-1.842,0.753-1.924c0.753-0.084,0.962-0.504,0.501-0.628c-0.459-0.124-0.669-0.669,0.085-0.754
	c0.752-0.082,0.501,0.63,1.044,0.63c0.544,0,1.464-0.922,0.753-1.464c-0.71-0.545-0.92,0.251-1.296,0.335
	c-0.377,0.082-0.669-0.505-1.045-0.505c-0.377,0-0.126-1.043-0.293-1.421c-0.168-0.376-0.418-1.295-0.084-1.757
	c0.335-0.459,1.757,0.711,3.011,0.796c1.255,0.084,2.174-0.627,2.174-1.089c0-0.458-0.585-1.295,0.167-1.798
	c0.753-0.501,0.126-0.668-0.083-1.337c-0.209-0.67,0.335-1.089,0.669-0.752c0.335,0.333,2.802,0.124,4.852-0.294
	c2.049-0.42,3.471-1.171,3.596-1.757c0.125-0.584,1.423-1.965,1.714-2.468c0.293-0.502,0.042-1.129-0.794-1.255
	c-0.836-0.124-0.795-1.087-0.334-1.63c0.46-0.544-0.251-1.047-1.046-1.129c-0.794-0.084-2.049-0.628-1.338-1.297
	c0.342-0.322,0.51-0.259,0.676-0.111c0.12-0.319,0.234-0.698,0.14-0.79c-0.169-0.17-0.592,0.041-0.55-1.146
	c0.042-1.187,0.466-0.932,0.509-2.456c0.041-1.528,0.634-2.417,0.634-3.221s1.441-1.737,2.246-3.052
	c0.805-1.313,2.542-2.965,3.263-3.432c0.72-0.467,2.118-0.849,2.289-1.271C252.081,807.327,251.911,805.04,251.572,804.872z"/>
<path opacity="0.05" fill="#FFFFFF" d="M217.448,864.198c-0.453,0.058-0.623-0.792-0.906-0.792c-0.284,0-0.34-1.474-0.114-2.15
	c0.227-0.681-1.302-0.342-1.755-0.567c-0.453-0.227,0.171-0.679-0.339-1.246c-0.509-0.565-0.113-1.358-0.057-1.754
	c0.057-0.398,0.396-1.246,1.02-1.246c0.622,0,0.17-0.907,0.792-1.302c0.623-0.396-0.566-1.075-0.056-1.472
	c0.51-0.398,0-1.132,0.792-1.246c0.793-0.113,0-1.134,0.567-1.302c0.566-0.169-0.114-0.792,0.056-1.471
	c0.17-0.681-0.453-1.19,0.283-1.474c0.736-0.282,0.227-0.848-0.283-1.244c-0.509-0.397,0.113-0.397,0.736-0.397
	c0.622,0,0.284-1.018-0.283-0.849c-0.672,0.201-1.076-0.453-0.567-0.963c0.51-0.512-0.452-0.85-0.282-1.188
	c0.17-0.339,0.17-0.794-0.169-1.02c-0.34-0.225-0.114-1.925,0.282-1.982c0.396-0.056,0.113-1.584,0.113-2.036
	c0-0.452-0.453-0.906-0.395-1.303c0.056-0.396,0.508-0.509,0.508-1.301c0-0.795,0.17-1.134,0.51-1.19
	c0.339-0.055,0.057-0.962,0.113-1.416c0.056-0.45,0.962,0,1.075-0.734c0.114-0.737-0.566-0.623-0.453-1.075
	c0.136-0.541-0.057-1.246-0.057-2.492c0-1.244,1.02-1.527,1.415-1.869c0.396-0.339-0.509-2.15,0-2.375
	c0.51-0.229,0.17-1.075,0.566-1.359c0.398-0.283,0.283-0.907,0.509-1.585c0.227-0.681-0.452-1.021-0.452-1.642
	c0-0.624-0.114-1.19-0.624-1.87c-0.509-0.679-0.34-2.038,0-2.038c0.34,0,0.17-1.3,0.794-1.473c0.622-0.168,0.282-1.13,0-1.925
	c-0.284-0.791,0.508-0.396,0.508-1.018c0-0.623,0.34-1.471,0.85-1.699c0.51-0.225,0.567-1.187,0.567-1.583
	c0-0.396,0.735-0.567,1.131-0.905c0.396-0.341-0.679-0.907-0.056-1.246c0.622-0.341-0.51-1.755-0.17-2.039
	c0.34-0.282,0.056-0.905,0.113-1.357c0.057-0.452,1.924-1.302,2.151-1.698c0.165-0.289,0.33-1.304,0.385-2.206
	c-0.583,0.378-1.091,0.581-1.184,0.365c-0.167-0.393,0.056-1.562-0.446-2.064c-0.502-0.503-0.167-1.507-0.669-1.729
	c-0.502-0.223-1.115-1.227-0.669-1.56c0.446-0.336,0-1.005,0.391-1.34c0.39-0.334-0.223-0.39-0.781-1.059
	c-0.558-0.671,0.223-1.506-0.447-2.008c-0.669-0.502-0.669-1.116-0.836-0.838c-0.167,0.28-0.223,1.229-0.78,1.506
	c-0.092,0.047-0.237,0.156-0.41,0.299c0.005,0.462-0.162,1.24,0.02,1.696c0.25,0.626,0.376,3.681,0.125,4.852
	c-0.251,1.171-0.502,2.132-0.753,2.843c-0.251,0.71,0.585,0.753,0.25,1.089c-0.333,0.333-0.208,1.171-0.208,2.508
	c0,1.339-0.794,3.597-0.837,4.309c-0.041,0.711-0.585,1.17-0.501,1.966c0.084,0.793-0.376,1.254-0.836,1.63
	c-0.46,0.375,0.752,1.59,0.711,2.258c-0.042,0.67-0.921,0.962-0.711,2.049c0.261,1.359,0,3.681,0,4.141
	c0,0.46-0.544,0.418-0.419,1.297c0.126,0.877-0.543,1.086-0.669,2.341c-0.125,1.255-1.088,3.055-1.464,4.016
	c-0.376,0.962-0.376,1.507-0.878,1.507c-0.503,0-0.628,0.544-0.251,1.379c0.376,0.837-0.251,1.548,0.251,2.384
	c0.501,0.837,0.334,1.13,0.083,1.923c-0.251,0.796-0.586,0.838-0.586,1.59c0,0.754-0.585,1.38-0.251,2.216
	c0.335,0.837,0.251,1.13-0.167,1.13c-0.418,0-0.628,0.668-0.795,2.05c-0.168,1.38-0.125,1.338,0.878,1.254
	c1.004-0.083,0.209-3.388,0.837-3.388c0.627,0,0.083-0.545,0.71-0.711c0.628-0.167,0.084,0.587,0.502,0.711
	c0.418,0.126,0.711,0.459,0.126,0.837c-0.585,0.378,0.126,1.128-0.167,1.589c-0.293,0.459-0.711,0.962-0.46,1.506
	c0.251,0.543-0.293,0.501-0.334,1.213c-0.042,0.71,0.377,0.752,0.084,0.919c-0.292,0.169,0.377,0.711-0.042,0.795
	c-0.417,0.084-0.167,0.627,0.084,1.131c0.251,0.5-0.544,0.206-0.961,0.542c-0.418,0.336,0.417,0.795,0.167,1.254
	c-0.251,0.461-0.92-0.25-1.213-0.501c-0.292-0.251,0.461-0.753,0.836-1.255c0.377-0.5-0.376-1.63-1.003-1.38
	c-0.627,0.251,0.628,0.962,0.628,1.506c0,0.545-1.046-0.126-1.004,0.461c0.042,0.584-0.71,0.375-1.087,0.794
	c-0.376,0.418,0.502,0.796,0.084,0.92c-0.419,0.125-1.129,0.711-1.171,1.129c-0.041,0.419,0.46,0.501,0.46,0.084
	c0-0.418,0.67-0.545,0.878,0c0.209,0.544,0.502,0,1.088,0.125c0.585,0.126,0.501,1.004,0.167,0.962
	c-0.334-0.04-0.669,0.543-0.585,1.17c0.083,0.628,1.254,0,1.757,0.169c0.501,0.166,0.334,1.045,0.042,0.752
	c-0.293-0.293-0.962-0.794-1.255-0.293c-0.293,0.502-0.753,0.251-1.129,0.085c-0.377-0.169-1.716,0.711-1.255,1.046
	c0.46,0.333,0.418,0.878,0.711,0.836c0.293-0.042,0.752-0.252,0.92-0.585c0.167-0.335,0.753-0.67,0.794,0.082
	c0.042,0.754-0.794,0.377-0.962,0.796c-0.167,0.417-0.501,0.752-1.004,1.128c-0.502,0.378,0,1.005,0.418,0.795
	c0.419-0.209-0.125,0.503,0.46,0.587c0.54,0.076,0.711-0.335,0.585-0.756c-0.126-0.417,0.293-1.337,0.795-0.876
	c0.501,0.459-0.251,0.921-0.251,1.339c0,0.417-0.293,0.961-0.293,1.421c0,0.46-0.543,0.209-0.501,0.711
	c0.042,0.502-1.171,0.166-0.627,0.502c0.543,0.335-0.334,0.795-0.042,1.129c0.293,0.335,0.543-0.461,1.003-0.294
	c0.46,0.169,0.377,0.294,0.962,0.042c0.585-0.251,0.92,0.461,0.376,0.629c-0.544,0.167-1.129,0.794-0.878,0.878
	c0.251,0.084,0.962-0.418,1.129,0.124c0.167,0.544,0.585,0.378,0.627-0.208c0.042-0.585,1.045-0.084,1.212,0.419
	c0.167,0.5-1.046,0.793-1.673,0.668c-0.627-0.124-0.962,0.587-0.544,1.129c0.419,0.545,0.92,0,1.38-0.46
	c0.46-0.46,2.719-0.334,2.886,0.169c0.167,0.5-1.046,0.082-1.171,0.375c-0.126,0.293-1.046,0.545-1.171,0.209
	c-0.126-0.335-1.004,0.126-1.046,0.669c-0.042,0.544-0.711,0.544,0.042,0.753c0.753,0.209,0.544-0.795,1.715-0.711
	c1.171,0.084,1.798-1.086,2.133-0.417c0.334,0.668-0.962,1.213-1.422,0.792c-0.46-0.417-1.004,0.295-0.962,0.922
	c0.042,0.627-1.338-0.166-2.007-0.251c-0.669-0.084-0.377,0.629,0.208,1.256c0.585,0.626,0.92-0.085,1.631,0.375
	c0.711,0.459,0.711,0.962,1.212,0.501c0.503-0.459,0-0.417-0.333-0.626c-0.335-0.21-0.042-0.922,0.752-0.543
	c0.795,0.375,1.715-0.334,1.463-1.339c-0.251-1.005,0.711-1.465,1.673-1.799c0.962-0.335,0.46,0.627-0.25,0.92
	c-0.712,0.293-0.837,0.502-0.294,1.089c0.544,0.584,1.254-0.378,1.715,0.082c0.46,0.46-0.837,0.377-1.046,0.837
	c-0.208,0.46,0.794,1.004,0.084,1.337c-0.711,0.336-0.376-1.379-0.795-1.546c-0.418-0.168-0.795,0.209-0.377,1.171
	c0.419,0.962-0.501,0.124-0.92-0.335c-0.418-0.46-1.003,0.211-0.502,0.71c0.502,0.503-0.961-0.04-0.961,0.754
	c0,0.795,0.627,0.126,1.379,0.293c0.753,0.166,0.419,1.255,0.962,1.673c0.543,0.417,0.083-1.338,0.668-1.465
	c0.586-0.124,0.043,1.34,1.339,1.758c1.296,0.417,0.083-0.251,0.669-0.669c0.585-0.418,1.338,1.255,1.966,1.421
	c0.627,0.168,0.208-0.752-0.252-1.255c-0.459-0.501,0.46-0.208,1.088,0c0.628,0.21,1.129,0.294,1.254-0.166
	c0.047-0.172,0.164-0.169,0.313-0.121c-0.653-0.429-2.873-0.117-3.178-0.168c-0.301-0.05-0.069-5.061-0.012-6.213
	c-0.045-0.009-0.09-0.023-0.134-0.023c-0.544,0-1.757,0.126-1.547-0.711c0.037-0.146,0.116-0.232,0.22-0.278
	c-0.248-0.226-0.598-0.475-1.017-0.588C219.939,863.915,217.902,864.141,217.448,864.198z"/>
<path opacity="0.05" fill="#FFFFFF" d="M250.51,801.414c-0.679-0.338-1.357,0.339-1.585,0.339c-0.226,0-0.736-1.471-0.906-2.092
	c-0.17-0.623-0.848-1.868-1.301-1.587c-0.453,0.284-0.34-0.111-1.641-0.168c-1.303-0.059-1.246-0.284-0.964-1.53
	c0.284-1.244-0.849-2.038-0.34-2.32c0.385-0.212,0.35-0.46-0.081-1.006c-0.105,0.068-0.214,0.11-0.317,0.11
	c-0.446,0-1.004-0.78-1.784-0.78c-0.781,0-1.617-0.058-2.175,0.223c-0.558,0.278-1.618-0.057-2.287,0.39
	c-0.669,0.448-1.505,1.393-1.449,1.785c0.056,0.39-0.224,2.789-0.559,2.9c-0.101,0.032-0.35,0.015-0.647-0.017
	c0.447,0.772,1.769,2.16,2.619,2.679c1.019,0.624,0.961,1.188,2.094,1.302c1.132,0.111,1.698,0.566,2.095,1.075
	c0.396,0.51,3.284,1.359,3.51,1.757c0.226,0.396-1.472,1.527-1.472,2.547c0,1.021-0.624,0.905-0.624,1.246
	c0,0.338,1.302,0.113,1.756,0.396c0.453,0.283,1.245-0.171,1.811,0.168c0.566,0.341,1.189-0.45,1.642-0.339
	c0.453,0.113,0.906-0.791,1.473-0.736c0.565,0.058,1.075-1.981,0.961-2.772C250.227,804.19,251.189,801.753,250.51,801.414z"/>
<path opacity="0.05" fill="#FFFFFF" d="M196.617,738.038c-0.062-0.217-0.026-0.773,0.287-1.198
	c-0.685-0.736-1.454-1.732-1.865-2.326c-0.392,0.051-0.733,0.048-0.933-0.103c-0.415-0.312-1.452-0.103-1.867-0.312
	c-0.214-0.104-0.63-0.093-1.04-0.06c0.098,0.31,0.052,0.607-0.143,0.74c-0.376,0.251-0.418,1.255,0.502,1.632
	c0.919,0.375,0.627-0.21,1.087-0.21c0.46,0,0.418,0.711,0.836,0.711c0.419,0,1.38,0.501,1.338,1.172
	c-0.041,0.669,0.335,0.962,1.088,0.962c0.138,0,0.294,0.013,0.457,0.033C196.493,738.631,196.683,738.272,196.617,738.038z"/>
<path opacity="0.05" fill="#FFFFFF" d="M206.197,738.041c-0.669-1.003-1.882-0.918-2.635-1.255
	c-0.753-0.335-1.714,0.126-2.677,1.005c-0.961,0.877-2.174,0.376-3.01-0.085c-0.248-0.135-0.597-0.465-0.97-0.866
	c-0.314,0.425-0.349,0.981-0.287,1.198c0.066,0.233-0.125,0.593-0.253,1.041c0.829,0.104,1.905,0.465,2.429,1.095
	c0.627,0.754,1.003,0.251,1.38,0.92c0.376,0.67,1.254,0.042,1.463-0.375c0.21-0.42-0.46-0.587-0.543-1.046
	c-0.083-0.461,0.836-0.293,1.003-0.92c0.167-0.628,1.506-0.92,2.092-0.669c0.585,0.249,1.087,0.669,0.543,1.296
	c-0.405,0.466,0.421,1.307,1.111,1.963c0.484-0.497,1.04-1.066,1.271-1.234c0.126-0.094,0.206-0.315,0.26-0.59
	C207.043,739.361,206.66,738.737,206.197,738.041z"/>
<path opacity="0.05" fill="#FFFFFF" d="M207.361,754.429c0.523,0.308,1.264,0.22,1.439,0c0.174-0.218,0.652,0.262,1.351,1.048
	c0.031,0.034,0.056,0.063,0.085,0.097c0.585-0.129,1.325-0.239,1.623-0.053c0.524,0.33,0.393,1.512,1.115,1.575
	c0.722,0.066,1.247,0.788,1.182,1.183c-0.067,0.393,0.786,0.59,0.722,1.182c-0.066,0.59,1.904,0.459,2.166,0.262
	c0.262-0.198,0.787-0.328,1.115-0.131c0.329,0.197,0.919-0.197,1.247-0.067c0.328,0.134,1.641,0.657,1.378,1.118
	c-0.262,0.459-1.181,1.181-0.984,1.574c0.156,0.312,0.842,0.504,1.122,0.896c0.03-0.002,0.061,0,0.092-0.008
	c0.502-0.112,0.724-2.008,0.724-2.562c0-0.559,0.223-2.01,0.387-2.574c0.316-1.098-1.207-1.869-1.207-3.056
	c0-1.188,0.603-0.529,1.283-1.018c0.678-0.49-0.038-0.698-0.377-0.773c-0.339-0.075-0.603-0.681-0.49-1.038
	c0.113-0.358,2.188-0.208,2.848-0.208c0.659,0,2.093-0.603,2.112-0.696c0.019-0.094,0.169-0.565-0.34-0.962
	c-0.509-0.396-0.32-0.961,0.076-1.414c0.396-0.454-0.245-0.906-0.736-1.453c-0.49-0.548-0.112-2.528,0.453-3.451
	c0.565-0.924-1.15-0.716-2.206-0.584c-1.056,0.132-1.961-0.284-2.64-1.151c-0.679-0.865-1.603-0.319-3.225-0.281
	c-1.622,0.039-1.301-1.792-1.227-2.49c0.075-0.697-0.829-0.791-0.829-1.244c0-0.452-0.472-0.452-0.887-0.415
	c-0.414,0.036,0-0.51,0.284-0.866c0.283-0.359,0.264-0.643,0.283-1.396c0.02-0.755,1.112-1.396,1.659-2.132
	c0.133-0.178,0.339-0.293,0.573-0.365c0.066-0.178,0.2-0.317,0.458-0.368c0.836-0.167,1.254-0.71,0.459-1.171
	c-0.794-0.459-1.255,0.88-2.132,1.004c-0.879,0.125-1.046,0.67-1.632,0.963c-0.585,0.29-1.672,0.042-1.714,0.543
	c-0.045,0.548-0.376,0-0.877-0.126c-0.503-0.127-1.799,1.004-1.757,1.632c0.042,0.627,0.252,1.213-0.669,1.798
	c-0.92,0.586-1.463,1.672-1.882,2.175c-0.128,0.153-0.265,0.166-0.411,0.097c-0.055,0.274-0.134,0.496-0.26,0.59
	c-0.231,0.168-0.788,0.737-1.271,1.234c0.235,0.226,0.455,0.428,0.604,0.588c0.585,0.627,0.209,1.129,0.377,1.465
	c0.167,0.333,0.334,0.834,0,1.045c-0.334,0.208-0.042,2.508,0.334,2.929c0.376,0.417,0,0.792-0.418,1.63
	c-0.418,0.835-0.795,1.213-1.548,1.253c-0.753,0.044-0.71,1.215-0.961,1.215c-0.2,0-0.345,0.423-0.375,0.785
	c0.703,0.592,1.963,1.306,2.328,1.306C206.576,753.558,206.838,754.127,207.361,754.429z"/>
<path opacity="0.05" fill="#FFFFFF" d="M244.49,789.314c-0.279-0.836-1.115-0.949-1.115-1.84c0-0.893-0.335-1.005-1.562-0.949
	c-1.227,0.057-2.008-0.224-2.063-0.947c-0.056-0.725-0.781-1.282-0.223-1.562c0.558-0.278-0.391-0.78-0.279-1.448
	c0.111-0.67-0.334-0.948-0.725-1.283c-0.391-0.333-2.063,0.168-2.063-0.446c0-0.612-1.004-0.725-1.561-0.725
	c-0.558,0-0.167-0.726-0.781-0.668c-0.613,0.055-0.502-0.393-1.338-0.281c-0.836,0.112-1.338-0.277-2.23-1.339
	c-0.892-1.057-0.781-3.121-0.614-3.679c0.167-0.557-1.059-0.111-1.784-0.111c-0.725,0-1.45,0.559-2.232,1.004
	c-0.78,0.446-1.225,0.445-1.616,0.837c-0.391,0.391-1.004,0.612-1.616,0.391c-0.172-0.064-0.393-0.109-0.632-0.143
	c0.329,0.818,1.123,2.167,1.301,2.652c0.223,0.611-0.279,0.778-0.502,1.004c-0.224,0.222,0.111,2.228,0.167,2.675
	c0.056,0.447-0.781,1.282-0.447,1.561c0.336,0.28-0.445,1.115-0.445,1.619c0,0.5,0.725,0.5,0.725,0.891
	c0,0.391-0.614,1.282-1.004,1.506c-0.206,0.117-0.209,0.433-0.159,0.773c0.117-0.038,0.198,0.469,0.771,0.899
	c0.67,0.502-0.111,1.337,0.447,2.008c0.558,0.669,1.17,0.725,0.781,1.059c-0.391,0.335,0.055,1.004-0.391,1.34
	c-0.445,0.333,0.167,1.337,0.669,1.56c0.501,0.222,0.167,1.226,0.669,1.729c0.501,0.502,0.279,1.672,0.446,2.064
	c0.168,0.389,1.673-0.559,2.565-1.506c0.893-0.949,0.837-0.167,1.673-0.057c0.836,0.113,1.783,0.113,2.174,0.892
	c0.391,0.78,0.836-0.778,1.115-1.113c0.279-0.336,2.174,0.111,2.509,0c0.335-0.111,0.614-2.511,0.559-2.9
	c-0.057-0.393,0.78-1.337,1.449-1.785c0.67-0.446,1.729-0.111,2.287-0.39c0.558-0.28,1.394-0.223,2.175-0.223
	c0.78,0,1.338,0.78,1.784,0.78c0.445,0,1.003-0.725,0.892-1.395C244.156,791.097,244.769,790.15,244.49,789.314z"/>
<path opacity="0.05" fill="#FFFFFF" d="M221.628,788.865c0.023-0.038,0.044-0.055,0.064-0.062c-0.05-0.341-0.046-0.656,0.159-0.773
	c0.39-0.224,1.004-1.115,1.004-1.506c0-0.391-0.725-0.391-0.725-0.891c0-0.504,0.78-1.339,0.445-1.619
	c-0.334-0.278,0.503-1.113,0.447-1.561c-0.056-0.447-0.391-2.453-0.167-2.675c0.223-0.226,0.725-0.393,0.502-1.004
	c-0.177-0.485-0.971-1.834-1.301-2.652c-0.621-0.089-1.38-0.073-1.823,0.086c-0.612,0.223-0.445-1.729-0.445-2.454
	c0-0.725-0.613-0.335-0.836,0.168c-0.224,0.504-1.115,0.278-2.007,0.278c-0.893,0-0.446-1.114-1.004-1.059
	c-0.558,0.056-1.004-0.168-0.947-0.727c0.055-0.557-0.392-1.002-0.782-1.617c-0.391-0.611-0.837-1.226-0.502-1.616
	c0.335-0.39-0.222-0.725,0.279-1.227c0.502-0.502,1.005-0.334,0.837-1.004c-0.167-0.669,0.557-1.06,0.613-1.785
	c0.056-0.723,0.893-0.499,1.673-1.113c0.78-0.613,1.616-0.28,2.285-0.835c0.629-0.526,1.061-0.073,1.526-0.107
	c-0.28-0.393-0.966-0.584-1.122-0.896c-0.197-0.393,0.722-1.115,0.984-1.574c0.263-0.461-1.05-0.984-1.378-1.118
	c-0.329-0.13-0.918,0.265-1.247,0.067c-0.329-0.197-0.853-0.067-1.115,0.131c-0.262,0.197-2.232,0.328-2.166-0.262
	c0.064-0.592-0.788-0.789-0.722-1.182c0.065-0.395-0.46-1.116-1.182-1.183c-0.722-0.063-0.591-1.245-1.115-1.575
	c-0.298-0.187-1.038-0.076-1.623,0.053c0.63,0.709,0.854,1.008,0.438,1.342c-0.554,0.443,0,0.524-1.046,1.918
	c-1.047,1.396-2.834,1.744-3.706,2.006c-0.872,0.262-1.222,1.874-1.701,3.008c-0.479,1.134-0.871,0.742-1.351,0.088
	c-0.479-0.654-0.872,0.129-1.439-0.393c-0.567-0.523-0.305-0.523,0-0.96c0.165-0.233-0.018-0.607-0.366-0.971
	c-0.622,0.128-1.251,0.99-1.561,1.647c-0.335,0.711,0.585,2.092,0.71,2.594c0.126,0.501-0.501,0.04-0.585,0.501
	c-0.084,0.459,1.38,1.129,2.049,1.632c0.669,0.502,1.254,1.923,1.882,2.592c0.628,0.668,0.669,1.255,1.338,2.886
	c0.669,1.63,2.008,4.392,2.927,5.562c0.92,1.172,1.338,2.092,1.129,2.427c-0.209,0.334,0.042,1.255,0.711,1.716
	c0.669,0.457,1.213,1.213,2.969,2.09c1.756,0.877,4.977,2.55,5.437,3.345c0.46,0.796,1.966,1.548,2.259,1.715
	c0.08,0.046,0.104,0.178,0.106,0.354c0.173-0.143,0.318-0.252,0.41-0.299C221.405,790.094,221.461,789.146,221.628,788.865z"/>
<path opacity="0.05" fill="#FFFFFF" d="M216.958,733.338c-0.547,0.736-1.64,1.377-1.659,2.132c-0.019,0.753,0,1.037-0.283,1.396
	c-0.284,0.357-0.698,0.902-0.284,0.866c0.415-0.037,0.887-0.037,0.887,0.415c0,0.453,0.904,0.547,0.829,1.244
	c-0.075,0.698-0.396,2.529,1.227,2.49c1.622-0.038,2.546-0.584,3.225,0.281c0.679,0.867,1.584,1.283,2.64,1.151
	c1.056-0.132,2.771-0.34,2.206,0.584c-0.565,0.923-0.943,2.903-0.453,3.451c0.491,0.547,1.132,0.999,0.736,1.453
	c-0.396,0.453-0.585,1.019-0.076,1.414c0.51,0.397,0.359,0.868,0.34,0.962c-0.005,0.024-0.107,0.082-0.266,0.157
	c0.751,0.746,1.017,1.563,1.441,1.902c0.566,0.452,0.736,0.679,1.133,0.452c0.396-0.226,0.679-0.395,1.018-0.168
	c0.34,0.226,0.793-0.227,1.302-0.681c0.51-0.452,1.076-0.056,1.246-0.623c0.169-0.567,0.453-0.904,1.075-1.019
	c0.622-0.113,0.622-0.793,0.227-0.793c-0.396,0-0.962,0.51-0.962-0.227c0-0.734-0.51-0.566-0.51-1.189
	c0-0.621-0.057-1.019-0.736-1.415c-0.679-0.398,0.906-0.565,1.246-0.228c0.34,0.341,1.529,0.06,1.642,0.566
	c0.114,0.509,0.735,0.68,0.735,0.057c0-0.623,0.736-0.848,1.303-0.734c0.566,0.111,1.812-0.736,2.322-0.907
	c0.266-0.089,0.363-0.408,0.508-0.678c-0.373-0.508-0.967-1.295-1.236-1.52c-0.406-0.337,0.271-0.541,0.203-1.016
	c-0.068-0.475,0-0.812,0.881-0.88c0.881-0.069,0.746-0.747,0.271-1.018c-0.475-0.271,0.203-1.018,0.677-1.286
	c0.194-0.112,0.455-0.445,0.693-0.905c-0.901-0.339-2.194-0.31-2.735-0.276c-0.711,0.042,0.46-0.796,0.502-1.548
	c0.042-0.754-2.007-0.878-2.802-1.045c-0.794-0.168-0.585-1.004,0.251-1.046c0.836-0.042-0.46-0.628-1.589-0.459
	c-1.129,0.166-2.718,0.794-3.638,1.295c-0.921,0.501-2.509-1.464-3.555-1.045c-1.045,0.418-2.509,0.418-2.467-0.419
	c0.042-0.836-0.417-1.547-1.463-1.463c-1.046,0.084-0.794-1.045-1.589-1.045c-0.795,0,0,0.961-0.544,1.213
	c-0.544,0.251-2.426,0.71-2.551,1.464c-0.125,0.752,1.004,2.007,0.627,2.758c-0.376,0.754-1.631,0.127-2.007-0.669
	c-0.377-0.794,1.087-2.007,0.836-2.466c-0.174-0.319-0.397-0.913-0.249-1.306C217.297,733.045,217.092,733.16,216.958,733.338z"/>
<path opacity="0.05" fill="#FFFFFF" d="M245.572,744.948c0.271,0.541-0.338,0.813-0.88,0.88c-0.542,0.067-0.406,1.289-0.745,1.626
	c-0.339,0.339,1.288,1.221,1.558,1.964c0.16,0.441,0.701,1.405,1.115,2.118c0.375,0.097,0.731,0.182,0.947,0.061
	c0.509-0.284,0.057-1.246,0.792-1.19c0.736,0.058,1.812-0.397,2.095,0.058c0.052,0.082,0.115,0.163,0.184,0.241
	c0.237-0.356,0.491-0.745,0.559-0.881c0.136-0.269,0.136-1.693-0.204-2.507c-0.339-0.812-0.067-1.898,0.34-2.234
	c0.086-0.073,0.218-0.441,0.368-0.968c-0.673-0.264-1.32-0.499-1.886-0.428c-1.004,0.124-2.049,0.584-2.425,0.04
	c-0.376-0.543-0.92-0.459-1.422-0.04c-0.057,0.045-0.12,0.06-0.187,0.053C245.609,744.229,245.436,744.673,245.572,744.948z"/>
<path opacity="0.05" fill="#FFFFFF" d="M239.813,739.935c-0.474,0.268-1.152,1.016-0.677,1.286c0.475,0.271,0.61,0.948-0.271,1.018
	c-0.881,0.068-0.949,0.405-0.881,0.88c0.068,0.475-0.609,0.679-0.203,1.016c0.269,0.225,0.863,1.012,1.236,1.52
	c0.132-0.245,0.301-0.452,0.68-0.397c0.792,0.113,0.169,1.303,0.792,1.585c0.622,0.284,0.622,1.246,0.17,1.584
	c-0.454,0.341-0.624,2.21,0.396,3.342c1.02,1.133,1.811,0.962,2.038,0.68c0.227-0.283,1.018,0,1.246-0.454
	c0.227-0.452,0.509,0.058,0.962-0.452c0.261-0.293,0.807-0.136,1.318-0.004c-0.415-0.713-0.955-1.677-1.115-2.118
	c-0.271-0.743-1.897-1.625-1.558-1.964c0.339-0.337,0.203-1.559,0.745-1.626c0.542-0.066,1.151-0.339,0.88-0.88
	c-0.136-0.275,0.037-0.72,0.208-1.207c-0.52-0.051-1.292-1.559-1.737-1.559c-0.502,0-1.087-0.419-0.962-1.129
	c0.126-0.713-1.171-0.795-1.882-1.59c-0.168-0.19-0.413-0.328-0.693-0.435C240.268,739.489,240.008,739.822,239.813,739.935z"/>
<path opacity="0.05" fill="#FFFFFF" d="M250.992,747.319c0.34,0.813,0.34,2.237,0.204,2.507c-0.068,0.136-0.322,0.525-0.559,0.881
	c0.308,0.351,0.806,0.601,1.685,0.324c1.076-0.339,1.585,0.341,1.982-0.85c0.31-0.929,1.41-2.197,2.229-3.005
	c-0.009-0.006-0.017-0.015-0.026-0.018c-0.795-0.334-2.008-2.257-3.22-2.51c-0.529-0.108-1.065-0.328-1.585-0.532
	c-0.15,0.526-0.282,0.895-0.368,0.968C250.926,745.421,250.654,746.506,250.992,747.319z"/>
<path opacity="0.05" fill="#FFFFFF" d="M209.249,714.12c-1.254,0-5.352-2.843-9.117-3.68c-3.764-0.836-7.046,1.869-6.691,2.341
	c0.502,0.67,2.342-0.836,3.262-1.504c0.92-0.669,1.757,0.333,1.84,0.753c0.085,0.417,1.255,0.669,3.179,0.751
	c1.923,0.084,2.174,1.675,4.014,2.092c1.84,0.418,0,1.171,0.92,1.506c0.92,0.334,5.771,0.252,6.106-0.167
	C213.097,715.793,210.504,714.12,209.249,714.12z"/>
<path opacity="0.05" fill="#FFFFFF" d="M204.984,719.891c0.334,0.587,3.512,1.422,3.848,0.671
	C209.165,719.807,204.569,719.165,204.984,719.891z"/>
<path opacity="0.05" fill="#FFFFFF" d="M226.479,720.06c0.753,1.17,2.906,0.471,3.095,0
	C229.908,719.223,225.726,718.889,226.479,720.06z"/>
<path opacity="0.05" fill="#FFFFFF" d="M244.043,863.085c-0.669-1.255-3.764,1.087-3.094,1.422
	C241.618,864.84,244.367,863.692,244.043,863.085z M240.614,862.163c-0.92-0.166-3.126,1.698-2.175,2.175
	C239.443,864.84,241.534,862.331,240.614,862.163z"/>
<path opacity="0.05" fill="#FFFFFF" d="M210.151,755.477c-0.698-0.786-1.177-1.266-1.351-1.048c-0.175,0.22-0.916,0.308-1.439,0
	c-0.523-0.302-0.785-0.871-1.178-0.871c-0.365,0-1.625-0.714-2.328-1.306c-0.008,0.094-0.01,0.182-0.001,0.259
	c0.042,0.377-0.585,0.628-1.296,0.67c-0.71,0.042-0.627,0.836-0.627,1.38c0,0.544-0.586,0.544-0.836,1.128
	c-0.251,0.587,0.083,0.712-0.502,1.005c-0.586,0.292-0.753,0.795-0.419,1.297c0.335,0.501-0.042,0.962-0.126,1.253
	c-0.083,0.295,0.502,0.419,1.087,0.964c0.586,0.542,0.669-0.209,0.92,0.209c0.251,0.417-0.167,1.17-0.836,1.17
	c-0.051,0-0.103,0.015-0.154,0.025c0.348,0.363,0.531,0.737,0.366,0.971c-0.305,0.437-0.567,0.437,0,0.96
	c0.567,0.522,0.96-0.262,1.439,0.393c0.479,0.654,0.871,1.046,1.351-0.088c0.48-1.134,0.829-2.746,1.701-3.008
	c0.872-0.262,2.659-0.61,3.706-2.006c1.046-1.394,0.492-1.475,1.046-1.918C211.11,756.567,210.849,756.261,210.151,755.477z
	 M180.393,754.939c-0.836,1.253,0.825,2.476,1.171,1.921C181.982,756.192,181.23,753.684,180.393,754.939z"/>
<path opacity="0.05" fill="#FFFFFF" d="M225.252,658.053c-0.055-0.559-1.728-0.111-2.509-0.725
	c-0.781-0.614-2.119,2.176-2.398,3.347c-0.279,1.17-2.342,2.451-2.342,2.451s-5.966,0.057-6.468,0.057
	c-0.349,0-1.719,1.184-2.525,1.905c0.025,0.031,0.048,0.065,0.071,0.103c0.604,1.088-1.589,1.757-3.68,1.839
	c-0.644,0.026-1.128,0.092-1.501,0.145c0.073,0.255,0.13,0.537,0.107,0.748c-0.015,0.134-0.24,0.298-0.559,0.467
	c-0.32,0.648-2.886,1.902-4.321,2.656c-1.589,0.837-3.764,0.418-3.764-0.837c0-1.253,1.171-1.002,1.421-0.418
	c0.094,0.22,0.377,0.061,0.759-0.214c-0.397-0.386-0.391-1.004-0.305-1.479c-0.479-0.211,0.267-2.083-0.705-2.405
	c-1.003-0.335-2.175,1.421-2.008,0.333c0.168-1.086,1.673-2.006,0.753-3.428c-0.92-1.421-2.592-1.421-2.928-0.335
	c-0.334,1.088-1.505,0.584-1.923,1.421c-0.419,0.837-0.836,2.676-0.502,4.016c0.334,1.337-0.084,2.006-1.338,2.759
	c-1.255,0.753-1.911-1.15-1.422-3.596c0.335-1.672,1.255-3.261,0.418-3.261c-0.837,0,1.087-2.008,2.844-2.425
	c1.756-0.42,3.931-0.252,3.931-0.755c0-0.101,0.08-0.169,0.213-0.214c-0.358-0.284-0.756-0.548-1.075-0.747
	c-0.033,0.105-0.101,0.206-0.226,0.292c-0.689,0.482-0.502-0.752-1.756-0.752c-1.255,0-2.509,1.17-3.513,0.67
	c-1.003-0.502-0.501-1.173-1.422-1.173c-0.92,0,0.67-1.755-0.669-1.004c-1.338,0.755-3.346,2.594-4.266,1.757
	c-0.92-0.835-1.756,0.253-2.425-0.418c-0.669-0.669,2.341-2.51,3.764-2.425c0.35,0.02,0.669-0.134,0.969-0.374
	c-0.748-0.274-2.291-0.878-2.698-0.379c-0.501,0.614-1.226,0.222-1.617-0.278c-0.391-0.502-0.892,0.167-1.561-0.613
	c-0.67-0.781-1.339-0.224-1.729-0.057c-0.39,0.169-0.892-0.278-1.617-0.557c-0.725-0.278-0.167-1.003-0.78-1.451
	c-0.613-0.445-0.648,0.845-0.648,0.845l-51.979,0.28c0.058,0.088,0.118,0.172,0.185,0.244c0.627,0.669,0.125,1.17,0.334,1.966
	c0.209,0.795,0.042,1.923-0.585,1.923c-0.627,0-0.71-0.711-0.25-0.962c0.46-0.251,0.209-1.172-0.251-1.172
	c-0.268,0-0.376-0.315-0.365-0.684c-0.853,0.237-1.834,0.128-2.979-0.007c0.018,0.047,0.037,0.095,0.04,0.148
	c0.042,0.501,0.293,1.63,0.962,2.508c0.669,0.879,0.209,1.423,0.837,1.757c0.627,0.335,0.585,0.711,0,0.626
	c-0.586-0.082-0.168,0.461-0.377,1.716s-0.167,3.847-0.293,4.642c-0.125,0.794-1.046,2.091-0.501,2.928
	c0.543,0.835,0.92,2.006,0.627,3.052c-0.293,1.045-0.251,1.672,0.209,2.467c0.46,0.795,0.084,2.175,0.585,2.466
	c0.502,0.295,0.962,0.879,1.422,1.633c0.46,0.753,0.878,0.292,0.961,1.046c0.083,0.752,0.083,0.877,0.752,1.17
	c0.67,0.294,0.251,1.045,0.251,1.464c0,0.418,0.879,1.171,1.966,2.133c1.087,0.961,0.167,1.757,0.961,1.757
	c0.794,0,1.548,0.459,2.342,0.962c0.794,0.502,1.045,0.209,1.589,0.333c0.543,0.126,1.547,1.297,1.756,2.093
	c0.099,0.371,0.227,0.766,0.424,1.188l4.337-0.567c0,0,1.34,0.938,2.1,1.117c0.759,0.179,4.87,1.697,4.87,1.697l5.361-0.046
	l0.626-0.803h2.949c0,0,1.876,1.832,2.144,1.922c0.268,0.089,1.206,0.937,1.206,1.473c0,0.537,0.223,0.984,0.67,1.208
	c0.447,0.223,1.967,1.205,2.189,1.115c0.223-0.088,0.67-1.786,1.474-1.74c0.805,0.043,2.993,0.669,3.351,1.919
	c0.357,1.252,1.429,2.279,1.787,2.547c0.357,0.268,0.179,1.028,0.447,1.43c0.268,0.403,0.223,1.162,0.536,1.162
	c0.314,0,1.921,0.982,2.636,0.938c0.213-0.012,0.495,0.116,0.785,0.293c0.086-1.495-1.451-1.746-0.546-2.433
	c1.046-0.796-0.042-1.464,0.46-1.799c0.502-0.333,1.38-0.668,1.38-1.171c0-0.502,0.46-0.502,1.129-0.418
	c0.67,0.082,1.924-1.088,1.841-1.547c-0.084-0.461,0.125-0.543,0.919-0.376c0.795,0.166,0.669-0.922,1.171-0.754
	c0.502,0.167,0.92,0.461,0.962,0.082c0.042-0.375,0.543-0.29,0.92,0.211c0.376,0.503,1.463,0.627,1.547,0.042
	c0.084-0.586,0.711,0,1.255,0.585c0.543,0.587,0.794,0.419,1.589,0.461c0.794,0.042,0.794-0.167,0.836-0.669
	c0.042-0.503,0.879,1.086,1.673,1.17c0.794,0.085,0.167-0.501-0.419-0.962c-0.585-0.459,0.125-0.669-0.376-1.044
	c-0.502-0.377,0.627-0.879,1.63-0.837c1.004,0.042,0.962,0.293,1.338-0.293c0.377-0.587,0.753,0,0.753,0.502
	c0,0.501,1.631-0.293,2.509-0.293c0.879,0,1.673,0.752,1.756,1.254c0.084,0.503,0.67,0.753,1.297,0.21
	c0.627-0.543,1.171-1.171,1.756-0.587c0.585,0.587,1.171,1.382,1.882,2.092c0.711,0.711-0.335,1.591,0.041,2.133
	c0.377,0.544-0.041,1.297,0.795,1.883c0.836,0.585,0.084,1.797,0.752,1.966c0.67,0.167,1.213,1.212,1.297,1.629
	c0.084,0.419,1.338,0.964,1.422,0.253c0.083-0.71,0.753-1.548,0.836-2.217c0.084-0.668-0.502-3.054-1.045-3.807
	c-0.544-0.751,0.125-0.92-0.544-1.797c-0.669-0.879-1.087-2.426-1.045-3.681c0.043-1.255,1.506-3.304,2.217-3.932
	c0.711-0.626,1.505-0.293,1.673-0.961c0.167-0.669,1.045-1.507,1.547-1.507c0.503,0,1.046,0.127,1.129-0.417
	c0.083-0.544,0.92-1.213,2.007-1.381c1.088-0.168,0.46-0.754,0.167-1.254c-0.292-0.501,0.251-1.004,0.46-0.67
	c0.209,0.335,0.878,0.377,1.296,0.084c0.418-0.291,1.38-1.087,0.46-1.129c-0.921-0.042-1.129-0.418-0.586-0.628
	c0.544-0.209,0.084-1.211-0.669-1.295c-0.753-0.085-0.502-0.461-0.041-0.922c0.46-0.46-0.67-1.211-1.213-1.588
	c-0.544-0.378,0.334-0.587,0.752-0.67c0.419-0.084,0.084-2.007,0.294-2.468c0.208-0.459,0.919-0.459,0.627,0
	c-0.293,0.461-0.711,1.214-0.168,1.84c0.544,0.628,0.711,1.298,0.502,2.26c-0.209,0.961,0.209,0.71,0.836-0.544
	c0.627-1.256,0.712-2.342,0.294-2.468c-0.419-0.126-0.377-1.381,0.083-0.795c0.46,0.585,0.627,0.669,1.338-0.084
	c0.711-0.752,1.464-2.048,1.004-2.34c-0.46-0.294,0.209-0.587,1.045-0.545c0.837,0.042,2.634-0.502,2.76-0.752
	c0.408-0.817-2.885,0.375-2.885-0.085c0-0.46,2.091-0.92,3.053-0.962c0.961-0.04,0.502-1.337,0.92-0.795
	c0.418,0.544,1.046,0.46,1.589,0.126c0.545-0.335,0.126-1.297-0.501-1.464c-0.628-0.169,0.46-0.586,0.251-0.962
	c-0.209-0.377,0.418-1.883,1.213-2.05c0.795-0.167,0.418-0.669,1.087-0.669c0.669,0,0.794-0.795,1.379-1.379
	c0.586-0.586,1.422,0.919,2.343,0.082c0.376-0.342,0.886-0.724,1.408-1.055C224.697,660.464,225.304,658.568,225.252,658.053z"/>
<path opacity="0.05" fill="#FFFFFF" d="M360.446,669.133c-0.671-0.015-1.422,0.057-1.937-0.057c-0.61-0.135-1.9-0.203-2.238-0.542
	c-0.34-0.339-0.882-0.61-0.882-0.205c0,0.408-0.95,0.476-1.492,0.137c-0.544-0.341-1.425-0.61-1.832-0.883
	c-0.215-0.141-0.654-0.324-1.072-0.531c-0.566,0.11-2.19-0.487-3.262-0.357c-1.144,0.139-4.796-0.167-6.218-0.055
	c-1.422,0.112-1.506-0.585-2.286-0.585c-0.781,0-0.446,0.946-1.562,0.975c-1.115,0.028-1.226,0.726-0.418,1.367
	c0.461,0.366,0.405,1.135,0.34,1.843c0.231-0.029,0.402-0.094,0.501-0.214c0.34-0.405,0.679-0.339,0.679,0.07
	c0,0.407,0.746,0.271,1.154,0.271c0.406,0,0.271,0.341,0.747,0c0.474-0.34,1.152-0.203,1.152,0.204c0,0.407,1.018,0.204,0.476,0.747
	c-0.543,0.542-1.222,0.678-1.222,1.085c0,0.407,0.611,1.288,0.136,1.763c-0.474,0.476,0.137,1.288-0.338,1.288
	c-0.476,0-1.018,0.204-0.476,0.746c0.543,0.544,0.95,1.019,0.543,1.019c-0.408,0-0.679,0.815-0.476,1.019
	c0.204,0.204,1.154,0.814,0.408,0.948c-0.747,0.137-0.747,0.747-0.747,1.155c0,0.15,0.121,0.379,0.273,0.613
	c0.347-0.062,0.689-0.073,1.004,0.073c0.78,0.363,1.232,2.305,2.286,2.175c0.447-0.057,0.224-0.391,0.447-0.613
	c0.224-0.224,0.641-0.056,1.087-0.056c0.445,0,0.669-0.641,1.727-0.669c1.06-0.027,1.73-0.113,2.398-0.084
	c0.669,0.028,1.199-0.195,1.366-0.668c0.167-0.475,0.725-0.893,1.478-1.004c0.753-0.112,0.641-0.895,0.696-1.34
	c0.057-0.445,1.311-1.115,1.394-1.448c0.084-0.335-0.726-1.618,0.027-2.761c0.753-1.143,1.562-1.199,1.562-1.842
	c0-0.588,0.78-0.806,1.729-0.919c0.948-0.11,1.254-0.753,2.064-1.086C360.341,670.428,360.583,669.928,360.446,669.133z
	 M360.61,675.226c-0.139-0.947-2.055,0.284-1.645,0.559C359.802,676.341,360.75,676.175,360.61,675.226z"/>
<path opacity="0.05" fill="#FFFFFF" d="M378.645,661.692c0.45-0.181,0.956-0.253,1.204-0.154c0.217,0.088,0.289,0.317,0.328,0.563
	c0.385-0.057,1.09-0.167,1.33-0.257c0.335-0.127,1.087,0.293,1.17,0.042c0.084-0.25,0.334-0.837,0.668-0.837
	c0.335,0,0.126-0.877,0.462-0.919c0.334-0.042,1.171-0.795,1.171-0.795s-0.335-0.669-0.461-0.711
	c-0.125-0.042-0.544,0.418-1.297,0.418c-0.751,0-1.295,0.586-1.629,0.586c-0.335,0-1.381-0.336-2.092-0.376
	c-0.251-0.015-0.512-0.035-0.755-0.06C378.675,659.823,378.6,660.798,378.645,661.692z"/>
<path opacity="0.05" fill="#FFFFFF" d="M388.459,746.86v1.262c0.141,0.759-0.037,1.554-0.278,1.957
	c-0.351,0.582-0.701,0.815-0.701,1.982c0,1.164-1.398,3.029-1.398,3.962s-1.633,1.515-1.633,2.098c0,0.582-0.116,1.867-0.116,3.149
	c0,1.282-0.7,0.232-0.7,1.397c0,1.167-0.584,0.467-1.164,1.05c-0.583,0.582-0.817,0.699-0.817,0.117c0-0.583-0.816-0.7-1.516-0.117
	c-0.699,0.582-0.933,0-1.281-0.117c-0.193-0.062-0.991,0.408-1.767,0.938c0.349,0.721,0.529,1.442,0.67,2.08
	c0.013,0.06,0.031,0.126,0.049,0.19c0.411-0.292,0.828-0.547,1.065-0.581c0.586-0.083,6.106,0,6.106,0s0.501,0.837,0.334,1.59
	c-0.168,0.753,0.335,0.418,0.752,1.422c0.42,1.004,0.754,1.421,1.59,1.171c0.836-0.251,1.84-0.419,2.175-0.333
	c0.2,0.049,0.252-0.472,0.368-0.952v-23.729C389.411,745.63,388.459,746.86,388.459,746.86z"/>
<path opacity="0.05" fill="#FFFFFF" d="M206.587,708.956c-0.121,0.247-0.741-0.32-0.757-0.757c-0.016-0.434-0.644-0.515-0.644-1.27
	c0-0.759,0.306-1.21,0.692-0.551c0.386,0.662,0.129,1.097,0.193,1.42C206.135,708.119,206.796,708.523,206.587,708.956z"/>
<path opacity="0.05" fill="#FFFFFF" d="M236.715,735.948c-0.251-0.233,0.371-0.692-0.048-0.887
	c-0.419-0.193,0.951-0.757,1.385-0.387c0.435,0.372,0.483,0.934,0.097,1.098C237.761,735.932,236.94,736.156,236.715,735.948z"/>
<path opacity="0.05" fill="#FFFFFF" d="M381.883,678.713c-1.143,0.251-1.617,0.333-2.285,0c-0.67-0.336-1.754,0.303-1.589,0.75
	c0.11,0.308,0.558,0.698,1.951,1.062c1.392,0.362,1.56,1.309,2.146,1.338c0.585,0.028,0.641-0.53,0.501-1.284
	c-0.139-0.752,0.696-1.614,0.78-1.756C383.471,678.685,383.026,678.461,381.883,678.713z M371.093,672.383
	c-0.612,0.53-1.118-0.092-1.365,0.333c-0.308,0.532,0.947,1.339,0.696,2.426c-0.251,1.088,0.139,2.454,0.78,1.814
	c0.641-0.641,0.949-0.335,1.31-0.81c0.362-0.473,0.056-2.229,0.307-3.064C373.073,672.243,371.706,671.853,371.093,672.383z
	 M384.755,671.49c-0.726-0.445-0.252-1.17-1.395-1.115c-1.144,0.057-2.509-1.365-2.927-3.012c-0.419-1.644-2.202-1.728-2.648-2.704
	c-0.447-0.977,0.418-1.086,0.028-1.896c-0.218-0.449,0.263-0.847,0.831-1.072c-0.045-0.894,0.03-1.869,0.1-2.5
	c-0.442-0.046-0.824-0.11-0.959-0.19c-0.21-0.126-0.251-0.795-0.377-0.795c-0.126,0-1.297,0-1.507,0.208
	c-0.208,0.208-0.836,0.586-1.17,0.377c-0.072-0.045-0.152-0.09-0.233-0.13l-0.365,0.339c0,0-0.057,0.447-0.28,0.447
	c-0.222,0-0.558-0.167-0.558,0.222c0,0.39-0.613,0.278-0.892,0.223c-0.278-0.057-0.668,0.055-0.668,0.39
	c0,0.336-0.057,1.061-0.501,0.671c-0.447-0.392-0.895-1.396-1.061-1.284c-0.167,0.112-0.557,1.337-0.947,1.337
	c-0.243,0-1.038,0.064-1.609,0.116c-0.15,0.48,0.01,0.766,0.213,0.89c0.209,0.125-0.126,0.627-0.376,0.752
	c-0.25,0.126-0.669,0-0.376,0.46c0.293,0.459,0.836,0.501,0.544,0.961c-0.293,0.46,0,0.879,0.418,0.921
	c0.418,0.041,1.004-0.042,0.878,0.293c-0.073,0.196-0.187,0.419-0.212,0.638c0.329-0.096,0.62-0.112,0.91-0.263
	c0.586-0.306,0.335-0.837,1.31-1.115c0.977-0.278,2.258,0.529,2.649,1.115c0.39,0.586,0.502,0.642,0.585,1.116
	c0.084,0.473,0.447,1.421,1.785,2.286c1.338,0.865,1.869,1.839,2.564,2.202c0.697,0.363,1.396,0.281,1.812,0.781
	c0.419,0.502,0.977,0.78,1.646,1.088c0.669,0.307,0.696,1.031,1.337,1.116c0.642,0.082,0.224,0.641,0.614,1.113
	c0.39,0.476,0.502,1.479,0.084,2.037c-0.418,0.557-0.195,1.504,0.084,1.504c0.278,0,0.863-1.003,0.947-1.561
	c0.082-0.559,0.642-0.53,1.087-1.116c0.446-0.584-0.669-0.725-0.863-1.479c-0.195-0.752,0.837-1.42,1.811-0.808
	c0.977,0.614,1.366,1.032,1.422,0.085C388.547,673.193,385.479,671.938,384.755,671.49z"/>
<path opacity="0.05" fill="#FFFFFF" d="M389.197,663.362v2.493C389.336,665.211,389.344,663.845,389.197,663.362z"/>
<path opacity="0.05" fill="#FFFFFF" d="M390.027,666.2c-0.128,0-0.419,0.313-0.703,0.7c0.242,0.244,0.562,0.604,0.873,0.968v-2.012
	C390.152,666.061,390.096,666.2,390.027,666.2z"/>
<path opacity="0.05" fill="#FFFFFF" d="M389.084,660.789c0.055,0.49,0.183,1.025,0.491,1.141c0.6,0.225,0.377,0.822,0.6,1.348
	c0.009,0.02,0.014,0.059,0.022,0.084v-2.921C389.839,660.554,389.431,660.683,389.084,660.789z"/>
<path opacity="0.05" fill="#FFFFFF" d="M200.3,646.371c0.753,0.586,0.376,1.339,0.669,1.297c0.292-0.042,1.589,1.045,1.589,0.584
	c0-0.46,0.502-1.546,1.045-1.17c0.543,0.377,0.878,0.795,0.836,0.084c-0.041-0.71-0.92-0.417-0.293-0.961
	c0.527-0.457,0.84-0.74,0.607-1.264h-5.828c0.015,0.045,0.036,0.089,0.036,0.136C198.961,645.66,199.547,645.787,200.3,646.371z"/>
<path opacity="0.05" fill="#FFFFFF" d="M168.85,646.537c1.673,0.921,0.675,3.448,1.59,3.347c0.752-0.085,0.752-1.841,0.167-2.927
	c-0.225-0.419-0.513-1.185-0.819-2.017h-2.76C167.477,645.541,168.076,646.112,168.85,646.537z"/>
<path opacity="0.05" fill="#FFFFFF" d="M252.966,656.548c-0.335,0.614-0.836-0.447-0.111-1.004c0.725-0.557-0.113-0.78-0.782-0.445
	c-0.668,0.333-0.501-1.506,0.112-1.841c0.614-0.335-1.505-1.003-1.505-0.39c0,0.614-1.506,0.224-1.673-0.335
	c-0.167-0.557-1.227-0.724-0.837-1.114c0.391-0.39-1.282-0.613-1.45,0.055c-0.167,0.668-0.669-0.445,0.168-1.337
	c0.836-0.895,0.558-1.673,1.338-2.12c0.78-0.447-0.056-0.948-0.892-0.614c-0.837,0.335-3.067,3.402-3.067,4.239
	c0,0.836-0.056,1.839-0.836,1.783c-0.781-0.055-1.673,0.67-1.06,1.116c0.613,0.447-1.619,1.715-0.558,2.288
	c0.726,0.388,1.896-0.168,2.9-0.057c1.003,0.111,1.84,0.167,2.676-0.447c0.836-0.614,0.836,0.557,1.729,0.447
	c0.892-0.112-0.502,0.723-0.446,1.337c0.056,0.614,0.948-0.333,1.617-0.668c0.669-0.336,1.505,0,1.171,0.559
	c-0.335,0.555,1.84,1.114,2.342,0.222C254.304,657.328,253.301,655.934,252.966,656.548z"/>
<path opacity="0.05" fill="#FFFFFF" d="M119.42,653.607c-0.544-0.586-1.966-0.461-2.174-1.006c-0.21-0.542-1.506-2.508-2.217-2.465
	c-0.711,0.042-1.63,0.082-2.467-0.544c-0.836-0.628-1.38-0.668-1.965-0.293c-0.585,0.378,0.627,0.459,0.586,0.879
	c-0.042,0.417,0.376,0.669,0.878,0.584c0.501-0.083,0.794,0.961,1.296,1.003c0.502,0.042,0.669,0.836,1.254,0.836
	c0.585,0,0.71,0.671,1.003,1.046c0.293,0.378,0.962,0.042,0.962,0.42c0,0.337,0.669,0.641,0.838,1.064
	c1.145,0.135,2.126,0.244,2.979,0.007c0.009-0.263,0.075-0.553,0.198-0.78C120.883,653.816,119.963,654.192,119.42,653.607z"/>
<path opacity="0.05" fill="#FFFFFF" d="M239.611,660.256c-0.586,0.084-0.125-0.836-0.042-1.296c0.083-0.461-1.254,0.209-1.296,0.751
	c-0.042,0.544-0.962,0.753-0.962,1.088c0,0.977-0.126,0.46-0.794,0.795c-0.669,0.333-3.262,0-3.346-0.586
	c-0.083-0.586-1.965-0.878-2.049-1.673c-0.083-0.795-1.004-1.046-0.252-1.923c0.753-0.879-0.125-1.297-0.836-0.629
	c-0.71,0.671-1.129-0.375-0.167-0.75c0.962-0.378,2.76-0.753,1.84-2.426c-0.92-1.673-6.691,0.5-8.155,1.337
	c-1.463,0.837-3.304,3.514-4.099,3.514c-0.794,0,1.38-1.423,1.715-1.965c0.335-0.544-0.083-1.088,0.377-0.88
	c0.46,0.209,1.756-1.797,2.634-2.467c0.878-0.669,1.84-0.04,1.965-0.585c0.126-0.543,0.544-0.919,1.38-1.672
	c0.836-0.753,10.832-0.629,11.793-0.586c0.962,0.042,2.844-1.255,3.388-2.09c0.544-0.837,1.255-0.837,2.593-0.753
	c1.338,0.083,1.965-1.128,2.634-1.59c0.669-0.46,0.418-0.669-0.168-0.793c-0.149-0.032-0.295-0.081-0.42-0.136h-42.591
	c0.233,0.524-0.08,0.807-0.607,1.264c-0.628,0.544,0.251,0.251,0.293,0.961c0.042,0.711-0.293,0.293-0.836-0.084
	c-0.543-0.375-1.045,0.71-1.045,1.17c0,0.461-1.296-0.626-1.589-0.584c-0.293,0.042,0.083-0.711-0.669-1.297
	c-0.753-0.584-1.338-0.71-1.338-1.295c0-0.047-0.02-0.091-0.036-0.136h-29.138c0.306,0.831,0.594,1.598,0.819,2.017
	c0.586,1.086,0.586,2.843-0.167,2.927c-0.915,0.101,0.083-2.426-1.59-3.347c-0.774-0.425-1.373-0.996-1.822-1.597h-56.066
	c0.097,0.095,0.188,0.178,0.26,0.218c0.376,0.208,0.753,0.837,0.126,0.837c-0.627,0-0.544,1.086-0.084,1.128
	c0.46,0.042,0.418,0.628,0.418,1.004c0,0.375,1.463,0.919,2.008,0.753c0.544-0.167,1.045,0.333,1.296,0.795
	c0.252,0.46,1.254,0.793,1.632,0.502c0.376-0.293,0.627,0.542,0.71,1.128c0.083,0.584,0.92,0.251,1.421,0.208
	c0.503-0.042,0.794,0.669,1.13,0.544c0.736-0.277,0.959,1.009,1.446,1.764l51.979-0.28c0,0,0.036-1.29,0.648-0.845
	c0.613,0.447,0.056,1.172,0.78,1.451c0.726,0.279,1.227,0.726,1.617,0.557c0.39-0.167,1.059-0.724,1.729,0.057
	c0.669,0.78,1.17,0.112,1.561,0.613c0.391,0.5,1.115,0.892,1.617,0.278c0.407-0.498,1.95,0.105,2.698,0.379
	c0.916-0.734,1.641-2.303,2.46-2.303c1.088,0,3.848,0.251,4.015,1.673c0.167,1.423,1.84,0.084,2.007,1.423
	c0.142,1.135,1.248,2.032,1.062,2.633c0.318,0.199,0.717,0.463,1.075,0.747c0.531-0.178,1.946,0.048,2.881,0.383
	c1.171,0.418,2.928-0.502,3.513,0.92c0.585,1.421,1.944,2.495,0.668,2.592c-1.087,0.084-2.509-1.422-2.425-0.584
	c0.083,0.835-0.585,0.417-0.585,1.672c0,1.255-0.837,3.012-1.339,2.927c-0.019-0.003-0.032-0.014-0.048-0.02
	c-0.085,0.475-0.092,1.092,0.305,1.479c0.637-0.464,1.551-1.261,2.336-1.208c1.254,0.083,1.588,0.837,2.426,0.251
	c0.836-0.586,1.003-0.836,1.17-0.418c0.022,0.053,0.005,0.119-0.028,0.187c0.318-0.169,0.543-0.333,0.559-0.467
	c0.023-0.211-0.034-0.493-0.107-0.748c-0.838,0.121-1.112,0.185-1.343-0.396c-0.335-0.836,2.509-1.671,3.847-1.504
	c1.269,0.158,2.161-0.733,2.606-0.186c0.805-0.722,2.176-1.905,2.525-1.905c0.502,0,6.468-0.057,6.468-0.057
	s2.063-1.281,2.342-2.451c0.279-1.171,1.617-3.961,2.398-3.347c0.781,0.614,2.454,0.167,2.509,0.725
	c0.052,0.515-0.555,2.411,1.59,5.245c0.754-0.478,1.534-0.85,1.979-0.826c0.753,0.042,1.882-0.961,2.217-1.59
	c0.334-0.626,0.794,0.586,0.125,0.795c-0.668,0.21,0.544,0.711,1.715,0.67c1.171-0.042-0.544,0.417-1.422,0.375
	c-0.878-0.042-1.255,0.084-2.426,1.255c-1.171,1.17-0.878,1.506-0.209,2.09c0.67,0.586,1.547,0.335,2.468-0.46
	c0.919-0.795,0.878-1.588,1.798-1.546c0.92,0.041,3.304-0.837,4.35-1.17c1.045-0.335,0.376-0.503,0.376-0.963
	c0-0.459,1.84-0.459,2.51-0.919C240.99,660.548,240.196,660.171,239.611,660.256z"/>
<path opacity="0.05" fill="#FFFFFF" d="M231.748,651.557c0.167,0.669,5.019,2.676,5.186,1.757
	C237.101,652.394,231.604,650.984,231.748,651.557z"/>
<path opacity="0.05" fill="#FFFFFF" d="M357.484,645.255h-11.357c-0.316,0.288-0.863,0.563-1.518,0.754
	c-1.061,0.306,0.222,1.143,0.724,0.78c0.502-0.363,0.391,0.251,1.116,0.251c0.724,0,1.171,0.584,1.979,0.278
	c0.809-0.306,0.781,0,0.167,0.474c-0.613,0.475-1.533-0.027-2.09,0.279c-0.559,0.306-2.826,2.433-2.397,2.957
	c0.25,0.306,0.583-0.447,1.392-0.782c0.81-0.333,0.948,0.223,1.396,0.278c0.445,0.057,0.472-0.919,0.836-0.835
	c0.362,0.084,0.697-0.308,1.365-0.194c0.67,0.11,1.144-0.141,1.478-0.419c0.336-0.278,1.226,0.557,1.506,0.363
	c0.277-0.196,1.505-0.419,2.119-0.392c0.612,0.029,2.202-0.696,2.62-1.087c0.418-0.39-0.251-0.473-0.808-0.39
	c-0.558,0.084-0.447-0.557,0.14-1.116C356.572,646.052,357.163,645.721,357.484,645.255z"/>
<path opacity="0.05" fill="#FFFFFF" d="M335.277,645.255c-0.26,0.13-0.523,0.25-0.623,0.475c-0.223,0.502,0.893,1.506,1.869,1.506
	c0.696,0,2.313-0.447,3.262-1.339c0.947-0.893,1.449-0.029,2.314-0.473c0.071-0.037,0.129-0.098,0.182-0.169H335.277z"/>
<path opacity="0.05" fill="#FFFFFF" d="M362.352,645.255c-0.145,0.168-0.255,0.359-0.236,0.613c0.057,0.727-0.892,1.396-1.506,1.756
	c-0.095,0.059-0.194,0.116-0.295,0.174c0.309,0.143,0.555,0.236,0.673,0.236c0.512,0,1.449-0.254,1.789-0.596
	c0.34-0.34,0.937-0.17,1.278,0.171c0.341,0.34,0.852,0.425,1.364,0.935c0.131,0.132,0.273,0.252,0.411,0.358
	c0.048-0.359,0.058-1.076,0.216-1.446c0.167-0.389-0.168-0.892,0.111-0.892c0.278,0,1.059,0,1.059-0.5
	c0-0.502,0.224-0.335,0.391-0.616c0.033-0.055,0.027-0.123,0.005-0.195H362.352z"/>
<path opacity="0.05" fill="#FFFFFF" d="M389.69,811.281c-0.223,0.336-1.618,0.057-2.398,0.057c-0.78,0-0.612-0.782-1.004-1.339
	c-0.389-0.557-1.059,0.168-1.059,0.557c0,0.295-0.35,0.241-0.809,0.196c0.611,0.968,1.145,2.096,1.422,3.012
	c0.445,1.479,1.533,2.871,1.812,3.735c0.278,0.865,0.585,1.673,0,1.755c-0.586,0.084-0.586,0.587,0.027,1.535
	c0.615,0.947,0.084,1.507,0.615,1.618c0.528,0.11,0.361,0.445,0.779,0.474c0.418,0.027,0.726,0.446,1.004,0.807
	c0.031,0.04,0.079,0.059,0.117,0.09v-12.883C389.979,811.03,389.776,811.151,389.69,811.281z"/>
<circle fill="#FFC83F" cx="242.969" cy="824.27" r="0.64"/>
<circle fill="#FFC83F" cx="247.207" cy="824.083" r="0.64"/>
<circle fill="#FFC83F" cx="210.041" cy="742.879" r="0.64"/>
<circle fill="#FFC83F" cx="130.098" cy="688.146" r="0.64"/>
</svg>
