<svg width="56" height="56" viewBox="0 0 56 56" fill="none" xmlns="http://www.w3.org/2000/svg">
<path d="M44.0001 24.3863C44.0001 25.132 44.0001 25.9216 44.0001 26.6673C44.0001 26.7112 44.0001 26.7112 44.0001 26.755C44.0001 26.9305 44.0001 27.0621 43.9562 27.2375C43.9124 27.6762 43.8246 28.1148 43.7369 28.5096C43.5615 29.1676 43.3421 29.7817 43.0351 30.352C42.7719 30.8345 42.421 31.2731 42.0262 31.624C41.8069 31.8434 41.5437 32.0188 41.2805 32.1943C40.7541 32.5013 40.1839 32.7207 39.5697 32.8084C39.482 32.8084 39.4382 32.8084 39.3504 32.8523C38.9118 32.8523 38.4293 32.8523 37.9906 32.8523C37.9467 32.8523 37.9467 32.8523 37.9029 32.8523C37.7274 32.8084 37.5081 32.8084 37.3326 32.7645C36.894 32.6768 36.4992 32.5452 36.1483 32.3259C35.6658 32.0627 35.271 31.7556 34.8762 31.4047C34.5692 31.0977 34.2621 30.7906 33.955 30.4397C33.5164 29.9133 33.1216 29.3431 32.7268 28.8167C32.1566 27.9394 31.5863 27.0621 31.06 26.1409C30.4459 25.0882 29.8317 24.0354 29.2176 23.0265C29.0422 22.7195 28.8229 22.4124 28.6474 22.1054C28.6474 22.1054 28.6474 22.0615 28.6035 22.0615C28.5597 22.0176 28.5597 22.0176 28.5158 22.0615C28.5158 22.0615 28.5158 22.1054 28.4719 22.1054C28.4281 22.1931 28.3403 22.3247 28.2965 22.4124C28.0333 22.8511 27.7701 23.3336 27.5069 23.7722C27.0683 24.5179 26.6735 25.2636 26.2348 25.9655C25.84 26.6673 25.4453 27.3253 25.0066 27.9833C24.6118 28.6412 24.1732 29.2553 23.6907 29.8694C23.2959 30.352 22.9011 30.8345 22.4624 31.2293C22.1554 31.5363 21.8045 31.7995 21.4536 32.0188C20.8394 32.4136 20.1815 32.6768 19.4796 32.7645C19.4358 32.7645 19.348 32.7645 19.3042 32.8084C18.8217 32.8084 18.383 32.8084 17.9005 32.8084C17.8566 32.8084 17.8566 32.8084 17.8128 32.8084C17.5496 32.7645 17.2425 32.7207 16.9793 32.6329C15.9266 32.3259 15.0931 31.7556 14.4352 30.9222C14.0843 30.4836 13.7772 29.9572 13.5579 29.4308C13.2947 28.7728 13.1192 28.071 13.0315 27.3691C12.9876 27.106 12.9438 26.8428 12.9438 26.5357C12.9438 26.2725 12.8999 26.0093 12.8999 25.79C12.8999 25.5707 12.8999 25.3075 12.8999 25.0882C12.8999 24.9127 12.8999 24.7373 12.8999 24.6057C12.8999 24.3425 12.9438 24.0793 12.9438 23.8161C12.9876 23.4652 13.0315 23.1142 13.0754 22.7633C13.207 22.0176 13.3386 21.2719 13.5579 20.5701C13.8211 19.6489 14.1281 18.7278 14.5668 17.8943C14.9177 17.1486 15.3125 16.4468 15.7511 15.7888C16.1898 15.1747 16.6284 14.6483 17.1548 14.122C17.5496 13.771 17.9444 13.4201 18.383 13.1569C18.9094 12.806 19.4796 12.5428 20.0937 12.3674C20.5763 12.2358 21.1026 12.1042 21.629 12.1042C21.6729 12.1042 21.7167 12.1042 21.7606 12.1042C21.8483 12.1042 21.8922 12.1042 21.9799 12.1042C22.0238 12.1042 22.0677 12.1042 22.1115 12.1042C22.3747 12.1042 22.6379 12.148 22.8572 12.1919C23.6907 12.3235 24.4802 12.5867 25.1821 13.0253C25.84 13.4201 26.4103 13.8588 26.9805 14.3851C27.3314 14.6922 27.6385 15.0431 27.9456 15.3502C28.2526 15.7011 28.5158 16.0081 28.779 16.3591C28.8667 16.4468 28.8667 16.4468 28.9106 16.3591C29.0422 16.1836 29.2176 15.9643 29.3492 15.7888C29.6563 15.394 29.9633 15.0431 30.3143 14.6483C30.6213 14.3413 30.9284 14.0342 31.2354 13.7272C31.5863 13.4201 31.9811 13.1131 32.4198 12.8499C32.8584 12.5867 33.3409 12.3674 33.8235 12.2358C34.1744 12.148 34.4814 12.0603 34.8323 12.0603C35.0955 12.0603 35.3587 12.0603 35.6658 12.0603C35.8851 12.0603 36.1044 12.1042 36.3676 12.148C37.0694 12.2796 37.7274 12.5867 38.3854 12.9376C38.9556 13.2885 39.482 13.7272 39.9645 14.1658C40.0961 14.2974 40.2716 14.4729 40.4032 14.6483C40.7102 14.9992 40.9734 15.3502 41.2366 15.7449C41.763 16.5345 42.2016 17.3241 42.5526 18.2014C42.7719 18.6839 42.9473 19.1664 43.0789 19.6928C43.2544 20.2192 43.386 20.7894 43.5176 21.3158C43.6053 21.7544 43.693 22.1492 43.7369 22.5879C43.7808 22.8949 43.8246 23.1581 43.8246 23.4652C43.8685 23.6845 43.8685 23.9038 43.8685 24.1231C44.0001 24.2986 44.0001 24.3425 44.0001 24.3863ZM41.0612 25.5268C41.0612 25.4391 41.0612 25.3952 41.0612 25.3514C41.0612 25.0443 41.0612 24.7373 41.0173 24.4302C41.0173 24.167 40.9734 23.9038 40.9296 23.6406C40.8857 23.2458 40.8418 22.8072 40.7541 22.4124C40.5786 21.4035 40.3154 20.3946 39.9207 19.4735C39.6575 18.8155 39.3504 18.1575 38.9556 17.5434C38.6486 17.017 38.2538 16.5784 37.8152 16.1397C37.5081 15.8327 37.201 15.5695 36.8063 15.394C36.236 15.0431 35.578 14.8677 34.9201 14.8677C34.7446 14.8677 34.5692 14.9115 34.3937 14.9115C34.0428 14.9992 33.6919 15.1308 33.3848 15.3063C33.0339 15.5256 32.7268 15.745 32.4636 16.0081C32.0689 16.4029 31.6741 16.8416 31.3232 17.2802C31.0161 17.675 30.7529 18.0698 30.4897 18.5084C30.402 18.64 30.402 18.5962 30.4897 18.7278C31.06 19.6051 31.6302 20.4824 32.1566 21.3597C32.683 22.237 33.1655 23.0704 33.6919 23.9477C33.955 24.3863 34.2182 24.825 34.5253 25.2636C34.9639 25.9216 35.3587 26.5796 35.8412 27.2375C36.1483 27.6762 36.4992 28.1148 36.8501 28.5535C37.0256 28.7728 37.2449 28.9483 37.5081 29.1237C37.7713 29.2992 38.0345 29.3869 38.2977 29.4308C38.5609 29.4747 38.7802 29.4747 39.0434 29.4308C39.5697 29.3869 40.0084 29.1237 40.3155 28.729C40.4909 28.4658 40.6225 28.2026 40.7541 27.8955C40.9296 27.3691 41.0173 26.8428 41.0173 26.3164C41.0173 26.2287 41.0173 26.1848 41.0173 26.0971C41.0612 25.9655 41.0612 25.7461 41.0612 25.5268ZM16.2775 25.7023C16.2775 25.8339 16.2775 25.9655 16.2775 26.0971C16.2775 26.4041 16.3214 26.7112 16.3652 27.0182C16.4091 27.3691 16.4968 27.7201 16.6723 28.071C16.8039 28.378 16.9793 28.6851 17.2425 28.9483C17.418 29.1237 17.6373 29.2553 17.8566 29.3431C18.1198 29.4308 18.3391 29.4747 18.6023 29.5185C18.7339 29.5185 18.8655 29.5185 18.9971 29.5185C19.3042 29.4747 19.5674 29.3869 19.8306 29.2553C20.1376 29.0799 20.3569 28.9044 20.6201 28.6851C20.8833 28.4658 21.1026 28.2026 21.2781 27.9394C21.7167 27.413 22.0677 26.8866 22.4624 26.3603C22.945 25.6584 23.4275 24.9127 23.8661 24.2109C24.1732 23.7284 24.5241 23.202 24.8311 22.7195C25.1821 22.1492 25.5769 21.579 25.9278 21.0087C26.191 20.5701 26.498 20.1314 26.7612 19.7367C26.8489 19.6051 26.8489 19.6051 26.7612 19.5173C26.3664 18.9471 25.9278 18.3768 25.4891 17.8943C25.1382 17.4995 24.7873 17.1486 24.4364 16.7977C24.1732 16.5784 23.91 16.3591 23.6029 16.1836C23.2959 16.0081 22.945 15.8765 22.5502 15.7888C22.287 15.745 22.0238 15.7011 21.7606 15.7011C21.5413 15.7011 21.322 15.745 21.1026 15.7888C20.7079 15.9204 20.3569 16.0959 20.006 16.3152C19.699 16.5345 19.4358 16.7538 19.2164 17.017C18.9971 17.2364 18.8217 17.4995 18.6023 17.7627C18.2076 18.2891 17.9005 18.8594 17.6373 19.4735C17.2864 20.263 17.0232 21.0526 16.8039 21.8422C16.6723 22.4124 16.5407 23.0265 16.453 23.5968C16.4091 23.86 16.3652 24.167 16.3652 24.4302C16.3652 24.6495 16.3214 24.8688 16.3214 25.132C16.2775 25.2636 16.2775 25.483 16.2775 25.7023Z" fill="#BCBCC0"/>
<path d="M37.6444 44.9459H36.0962L38.4552 38.1125H40.317L42.6726 44.9459H41.1244L39.4128 39.6741H39.3594L37.6444 44.9459ZM37.5476 42.2599H41.2045V43.3877H37.5476V42.2599Z" fill="#BCBCC0"/>
<path d="M27.8687 38.1125H29.6504L31.5322 42.7037H31.6123L33.4941 38.1125H35.2759V44.9459H33.8745V40.4982H33.8178L32.0494 44.9125H31.0951L29.3267 40.4815H29.27V44.9459H27.8687V38.1125Z" fill="#BCBCC0"/>
<path d="M23.853 45.0426C23.526 45.0426 23.2346 44.9859 22.9788 44.8725C22.723 44.7568 22.5206 44.5866 22.3716 44.362C22.2248 44.1351 22.1514 43.8526 22.1514 43.5145C22.1514 43.2298 22.2036 42.9906 22.3082 42.7971C22.4127 42.6036 22.5551 42.4479 22.7353 42.33C22.9154 42.2121 23.1201 42.1231 23.3492 42.0631C23.5805 42.003 23.823 41.9607 24.0766 41.9363C24.3746 41.9051 24.6149 41.8762 24.7973 41.8495C24.9797 41.8206 25.112 41.7783 25.1943 41.7227C25.2766 41.6671 25.3178 41.5848 25.3178 41.4758V41.4558C25.3178 41.2445 25.2511 41.081 25.1176 40.9653C24.9864 40.8497 24.7995 40.7918 24.557 40.7918C24.3012 40.7918 24.0977 40.8486 23.9465 40.962C23.7952 41.0732 23.6951 41.2134 23.6462 41.3824L22.3315 41.2756C22.3983 40.9642 22.5295 40.6951 22.7253 40.4682C22.921 40.2391 23.1735 40.0633 23.4827 39.941C23.7941 39.8164 24.1544 39.7542 24.5637 39.7542C24.8484 39.7542 25.1209 39.7875 25.3812 39.8542C25.6437 39.921 25.8761 40.0244 26.0785 40.1646C26.2832 40.3047 26.4444 40.4849 26.5623 40.7051C26.6802 40.9231 26.7392 41.1844 26.7392 41.4892V44.9459H25.3912V44.2352H25.3512C25.2689 44.3953 25.1587 44.5366 25.0208 44.6589C24.8829 44.7791 24.7172 44.8736 24.5237 44.9425C24.3302 45.0093 24.1066 45.0426 23.853 45.0426ZM24.2601 44.0617C24.4692 44.0617 24.6538 44.0205 24.814 43.9382C24.9741 43.8537 25.0998 43.7403 25.191 43.5979C25.2822 43.4555 25.3278 43.2943 25.3278 43.1141V42.5702C25.2833 42.5991 25.2221 42.6258 25.1443 42.6503C25.0687 42.6726 24.983 42.6937 24.8874 42.7137C24.7917 42.7315 24.6961 42.7482 24.6004 42.7638C24.5048 42.7771 24.418 42.7893 24.3402 42.8005C24.1733 42.8249 24.0276 42.8639 23.9031 42.9172C23.7785 42.9706 23.6817 43.0429 23.6128 43.1341C23.5438 43.2231 23.5094 43.3343 23.5094 43.4678C23.5094 43.6613 23.5794 43.8092 23.7196 43.9115C23.8619 44.0116 24.0421 44.0617 24.2601 44.0617Z" fill="#BCBCC0"/>
<path d="M21.2529 38.1125V44.9459H19.8315V38.1125H21.2529Z" fill="#BCBCC0"/>
<path d="M14.5273 44.9459V38.1125H15.9721V43.7547H18.9016V44.9459H14.5273Z" fill="#BCBCC0"/>
</svg>
