<svg width="57" height="22" viewBox="0 0 57 22" fill="none" xmlns="http://www.w3.org/2000/svg" id="SVG 0" xmlns:xlink="http://www.w3.org/1999/xlink">
<path d="M51.8669 0.27002L36.3922 15.5978C34.8544 11.5509 31.9428 8.16032 28.1568 6.00751C24.3709 3.85472 19.9467 3.07394 15.6431 3.79911C11.3395 4.52429 7.42471 6.71023 4.57046 9.98192C1.7162 13.2537 0.100314 17.4072 0 21.73H6.57106C6.69027 18.6665 7.97665 15.7613 10.1713 13.5995C12.3659 11.4375 15.3058 10.1794 18.3994 10.0781C21.4929 9.9768 24.5103 11.04 26.8443 13.0536C29.1782 15.0673 30.6555 17.8818 30.9786 20.9309L30.9143 21.0062H30.9962C30.9962 21.2552 31.0371 21.701 31.043 21.701H39.362L56.4737 4.80406L51.8669 0.27002Z" fill="white"></path>
<path d="M54.4082 17.5884C54.8066 17.5884 55.1596 17.6779 55.4672 17.8569C55.7817 18.0359 56.0263 18.2838 56.2011 18.6005C56.3828 18.9172 56.4737 19.2718 56.4737 19.6642C56.4737 20.0567 56.3828 20.4113 56.2011 20.728C56.0263 21.0378 55.7817 21.2822 55.4672 21.4613C55.1596 21.6403 54.8066 21.7298 54.4082 21.7298C54.0098 21.7298 53.6533 21.6403 53.3388 21.4613C53.0243 21.2822 52.7761 21.0378 52.5944 20.728C52.4196 20.4113 52.3323 20.0567 52.3323 19.6642C52.3323 19.2718 52.4196 18.9172 52.5944 18.6005C52.7761 18.2838 53.0243 18.0359 53.3388 17.8569C53.6533 17.6779 54.0098 17.5884 54.4082 17.5884ZM54.4082 21.389C54.9115 21.389 55.3169 21.2272 55.6244 20.9036C55.939 20.58 56.0962 20.1669 56.0962 19.6642C56.0962 19.1616 55.939 18.7485 55.6244 18.4249C55.3169 18.1013 54.9115 17.9395 54.4082 17.9395C53.898 17.9395 53.4856 18.1013 53.171 18.4249C52.8635 18.7485 52.7097 19.1616 52.7097 19.6642C52.7097 20.1669 52.8635 20.58 53.171 20.9036C53.4856 21.2272 53.898 21.389 54.4082 21.389ZM55.3204 19.2098C55.3204 19.382 55.2714 19.5265 55.1736 19.6436C55.0757 19.7538 54.9394 19.826 54.7647 19.8605L55.3938 20.7487L54.8591 20.759L54.2824 19.8811H54.0413V20.759H53.5904V18.5385H54.5655C54.7961 18.5385 54.9779 18.6005 55.1107 18.7244C55.2505 18.8415 55.3204 19.0033 55.3204 19.2098ZM54.0413 19.5093H54.534C54.6319 19.5093 54.7123 19.4852 54.7752 19.437C54.8381 19.3888 54.8695 19.3165 54.8695 19.2202C54.8695 19.1238 54.8381 19.0549 54.7752 19.0136C54.7123 18.9654 54.6319 18.9413 54.534 18.9413H54.0413V19.5093Z" fill="white"></path>
</svg>