<svg width="57" height="56" viewBox="0 0 57 56" fill="none" xmlns="http://www.w3.org/2000/svg">
<path fill-rule="evenodd" clip-rule="evenodd" d="M31.4431 12C31.2189 12 31.0108 12.0482 30.8186 12.1125C31.2269 12.3858 31.4511 12.7475 31.5632 13.1574C31.5712 13.2136 31.5872 13.2538 31.5952 13.3101C31.6032 13.3583 31.6112 13.4065 31.6112 13.4548C31.6433 14.162 31.4271 14.2504 31.275 14.6684C31.0428 15.2069 31.1069 15.7856 31.3871 16.2517C31.4111 16.308 31.4431 16.3723 31.4831 16.4286C31.1789 14.3951 32.8681 14.0897 33.1804 13.4548C33.2044 12.9002 32.748 12.5305 32.3878 12.2733C32.0435 12.0643 31.7313 12 31.4431 12ZM33.9889 12.4581C33.9569 12.643 33.9809 12.5948 33.9729 12.6912C33.9649 12.7555 33.9649 12.8359 33.9569 12.9002C33.9409 12.9645 33.9249 13.0288 33.9009 13.0931C33.8849 13.1574 33.8609 13.2217 33.8369 13.286C33.8048 13.3503 33.7808 13.4065 33.7488 13.4708C33.7248 13.503 33.7088 13.5351 33.6847 13.5673C33.6687 13.5914 33.6527 13.6155 33.6367 13.6396C33.5967 13.6959 33.5567 13.7521 33.5166 13.8004C33.4686 13.8486 33.4286 13.9048 33.3725 13.945V13.9531C33.3245 13.9933 33.2764 14.0415 33.2204 14.0817C33.0523 14.2103 32.8601 14.3067 32.684 14.4273C32.628 14.4675 32.5719 14.4996 32.5239 14.5478C32.4679 14.588 32.4198 14.6282 32.3718 14.6764C32.3158 14.7247 32.2757 14.7729 32.2277 14.8291C32.1877 14.8774 32.1396 14.9336 32.1076 14.9899C32.0676 15.0462 32.0275 15.1024 31.9955 15.1587C31.9635 15.223 31.9395 15.2792 31.9075 15.3435C31.8834 15.4078 31.8594 15.4641 31.8434 15.5284C31.8194 15.6007 31.8034 15.665 31.7874 15.7293C31.7794 15.7615 31.7794 15.8017 31.7714 15.8338C31.7633 15.866 31.7633 15.8981 31.7554 15.9303C31.7554 15.9946 31.7474 16.0669 31.7474 16.1312C31.7474 16.1794 31.7474 16.2276 31.7554 16.2759C31.7554 16.3402 31.7634 16.4045 31.7794 16.4768C31.7874 16.5411 31.8034 16.6054 31.8194 16.6697C31.8434 16.734 31.8595 16.7983 31.8835 16.8626C31.8995 16.9028 31.9235 16.943 31.9395 16.9751L30.0982 16.2598C29.7859 16.1714 29.4817 16.091 29.1695 16.0187C29.0014 15.9785 28.8333 15.9383 28.6651 15.8981C28.1848 15.8017 27.6964 15.7293 27.2081 15.6811C27.1921 15.6811 27.1841 15.6731 27.1681 15.6731C26.6877 15.6248 26.2154 15.6007 25.735 15.6007C25.3828 15.6007 25.0305 15.6168 24.6863 15.6409C24.1979 15.6731 23.7095 15.7374 23.2212 15.8177C23.1011 15.8338 22.981 15.8579 22.8609 15.882C22.6128 15.9302 22.3726 15.9865 22.1404 16.0428C22.0203 16.0749 21.9002 16.1071 21.7801 16.1392C21.6601 16.1874 21.548 16.2437 21.4359 16.2919C21.3478 16.3321 21.2598 16.3723 21.1717 16.4125C21.1557 16.4205 21.1397 16.4205 21.1317 16.4286C21.0516 16.4687 20.9796 16.5009 20.9075 16.5411C20.8835 16.5491 20.8675 16.5571 20.8515 16.5652C20.7634 16.6054 20.6754 16.6536 20.6033 16.6938C20.5473 16.7179 20.4912 16.75 20.4432 16.7742C20.4192 16.7902 20.3871 16.8063 20.3711 16.8143C20.2991 16.8545 20.227 16.8947 20.163 16.9349C20.0909 16.9751 20.0269 17.0153 19.9708 17.0555C19.9148 17.0956 19.8588 17.1278 19.8107 17.168C19.8027 17.176 19.7947 17.176 19.7867 17.184C19.7387 17.2162 19.6826 17.2564 19.6346 17.2966C19.6346 17.2966 19.6266 17.3046 19.6186 17.3126C19.5786 17.3448 19.5385 17.3769 19.4985 17.4091C19.4825 17.4171 19.4665 17.4332 19.4505 17.4412C19.4104 17.4734 19.3704 17.5136 19.3304 17.5457C19.3224 17.5618 19.3064 17.5698 19.2984 17.5779C19.2503 17.6261 19.2023 17.6663 19.1542 17.7145C19.1462 17.7145 19.1462 17.7226 19.1382 17.7306C19.0902 17.7708 19.0422 17.819 18.9941 17.8672C18.9861 17.8753 18.9861 17.8833 18.9781 17.8833C18.9381 17.9235 18.8981 17.9637 18.8581 18.0119C18.8421 18.0279 18.818 18.044 18.802 18.0601C18.762 18.1083 18.714 18.1565 18.6659 18.2048C18.6579 18.2208 18.6419 18.2289 18.6339 18.245C18.5698 18.3093 18.5138 18.3736 18.4498 18.4379C18.4417 18.4459 18.4338 18.4539 18.4257 18.462C18.2976 18.5986 18.1615 18.7352 18.0174 18.8558C17.8733 18.9844 17.7212 19.105 17.5691 19.2094C17.409 19.322 17.2569 19.4184 17.0888 19.5149C16.9286 19.6033 16.7605 19.6836 16.5844 19.756C16.4163 19.8283 16.2401 19.8926 16.064 19.9489C15.7278 20.0212 15.3835 20.1578 15.0873 20.182C15.0233 20.182 14.9512 20.198 14.8872 20.2061C14.8151 20.2221 14.7511 20.2382 14.687 20.2543C14.623 20.2784 14.5589 20.3025 14.4949 20.3266C14.4308 20.3507 14.3668 20.3829 14.3027 20.415C14.2467 20.4552 14.1827 20.4874 14.1266 20.5276C14.0706 20.5677 14.0145 20.616 13.9665 20.6642C13.9105 20.7044 13.8544 20.7606 13.8064 20.8089C13.7584 20.8651 13.7103 20.9134 13.6703 20.9696C13.6303 21.0339 13.5822 21.0902 13.5502 21.1545C13.5102 21.2107 13.4701 21.275 13.4381 21.3393C13.4061 21.4117 13.3741 21.476 13.3501 21.5483C13.326 21.6126 13.302 21.6849 13.278 21.7573C13.262 21.8216 13.246 21.8859 13.238 21.9502C13.238 21.9582 13.23 21.9662 13.23 21.9743C13.214 22.0466 13.214 22.1431 13.2059 22.1913C13.1979 22.2475 13.1899 22.2958 13.1899 22.352C13.1899 22.3842 13.1899 22.4244 13.198 22.4565C13.206 22.5128 13.214 22.561 13.23 22.6092C13.246 22.6574 13.262 22.7057 13.286 22.7539V22.7619C13.3101 22.8102 13.3421 22.8584 13.3741 22.9066C13.4061 22.9548 13.4381 23.0031 13.4782 23.0513C13.5182 23.0915 13.5662 23.1397 13.6143 23.1799C13.6623 23.2281 13.7103 23.2683 13.7664 23.3085C13.9585 23.4773 14.0066 23.5335 14.2547 23.6621C14.2948 23.6862 14.3348 23.7023 14.3828 23.7264C14.3909 23.7264 14.3988 23.7345 14.4068 23.7345C14.4068 23.7505 14.4068 23.7586 14.4149 23.7747C14.4229 23.839 14.4389 23.9033 14.4549 23.9676C14.4709 24.0399 14.4949 24.1042 14.5189 24.1605C14.543 24.2087 14.559 24.2569 14.583 24.3051C14.591 24.3212 14.599 24.3373 14.607 24.3453C14.639 24.4096 14.6711 24.4659 14.7031 24.5221C14.7431 24.5784 14.7831 24.6347 14.8232 24.6909C14.8632 24.7391 14.9112 24.7954 14.9593 24.8436C15.0073 24.8918 15.0553 24.932 15.1114 24.9803C15.1114 24.9803 15.1194 24.9883 15.1274 24.9883C15.1754 25.0285 15.2234 25.0687 15.2715 25.1008C15.3275 25.141 15.3836 25.1732 15.4476 25.2053C15.5036 25.2375 15.5677 25.2696 15.6317 25.2937C15.6798 25.3178 15.7358 25.3339 15.7919 25.35C15.7999 25.3581 15.8079 25.3581 15.8239 25.3661C15.8559 25.3741 15.8959 25.3821 15.928 25.3902C15.9039 25.8242 15.8959 26.2341 15.96 26.3788C16.032 26.5395 16.3843 26.0492 16.7366 25.4866C16.6885 26.0412 16.6565 26.6922 16.7366 26.8851C16.8246 27.086 17.305 26.4591 17.7213 25.7679C23.3974 24.4498 28.5771 28.3881 29.1215 33.9499C29.0175 33.0819 27.9527 32.5996 27.4643 32.7202C27.2242 33.315 26.8159 34.0785 26.1594 34.5527C26.2154 34.0222 26.1914 33.4757 26.0793 32.9452C25.9032 33.6847 25.559 34.3759 25.0866 34.9707C24.3261 35.0269 23.5655 34.6572 23.1652 34.1026C23.1332 34.0785 23.1252 34.0303 23.1012 33.9981C23.0771 33.9419 23.0531 33.8856 23.0371 33.8294C23.0131 33.7731 22.9971 33.7168 22.9891 33.6606C22.9811 33.6043 22.9811 33.548 22.9811 33.4837C22.9811 33.4436 22.9811 33.4034 22.9811 33.3632C22.9891 33.3069 23.0051 33.2507 23.0211 33.1944C23.0371 33.1381 23.0531 33.0819 23.0771 33.0256C23.1092 32.9694 23.1332 32.9131 23.1732 32.8568C23.3093 32.471 23.3093 32.1576 23.0611 31.9727C23.0131 31.9406 22.9651 31.9165 22.909 31.8924C22.877 31.8843 22.837 31.8682 22.8049 31.8602C22.7809 31.8521 22.7649 31.8441 22.7409 31.8361C22.6849 31.82 22.6288 31.8039 22.5728 31.7959C22.5167 31.7798 22.4607 31.7718 22.4046 31.7718C22.3486 31.7637 22.2846 31.7557 22.2285 31.7557C22.1885 31.7557 22.1485 31.7638 22.1084 31.7638C22.0444 31.7638 21.9883 31.7718 21.9323 31.7879C21.8763 31.7959 21.8202 31.8039 21.7642 31.82C21.7081 31.8361 21.6521 31.8522 21.5961 31.8763C21.54 31.9004 21.492 31.9245 21.4359 31.9486C21.3879 31.9728 21.3399 32.0049 21.2838 32.029C19.4185 33.2507 20.5313 36.112 21.8042 36.9398C21.3239 37.0282 20.8355 37.1327 20.6994 37.2372C20.6914 37.2452 20.6834 37.2533 20.6834 37.2533C21.0277 37.4622 21.3879 37.639 21.7642 37.7918C22.2766 37.9605 22.821 38.1133 23.0611 38.1776V38.1856C23.7256 38.3222 24.3981 38.3705 25.0786 38.3303C28.6252 38.0811 31.5313 35.3725 32.0597 31.804C32.0757 31.8763 32.0917 31.9406 32.1077 32.0129C32.1317 32.1576 32.1637 32.3103 32.1797 32.463V32.4711C32.1957 32.5434 32.2038 32.6158 32.2118 32.6801V32.7122C32.2198 32.7846 32.2278 32.8569 32.2278 32.9212C32.2358 33.0096 32.2438 33.098 32.2438 33.1864V33.315C32.2438 33.3552 32.2518 33.4034 32.2518 33.4436C32.2518 33.4918 32.2438 33.5401 32.2438 33.5883V33.7008C32.2438 33.7571 32.2358 33.8053 32.2358 33.8616C32.2358 33.8937 32.2358 33.9259 32.2277 33.966C32.2277 34.0223 32.2197 34.0786 32.2197 34.1429C32.2117 34.167 32.2117 34.1911 32.2117 34.2152C32.2037 34.2795 32.1957 34.3358 32.1877 34.4001C32.1877 34.4242 32.1877 34.4483 32.1797 34.4724C32.1716 34.5528 32.1556 34.6251 32.1476 34.7055V34.7135V34.7216C32.1316 34.7939 32.1156 34.8743 32.0996 34.9466V34.9707C32.0836 35.0431 32.0675 35.1154 32.0516 35.1877C32.0516 35.1958 32.0435 35.2119 32.0435 35.2199C32.0275 35.2922 32.0115 35.3646 31.9875 35.4369V35.461C31.9635 35.5414 31.9395 35.6137 31.9234 35.6861C31.9154 35.6941 31.9154 35.7021 31.9154 35.7021C31.8914 35.7825 31.8674 35.8629 31.8434 35.9433C31.8113 36.0236 31.7873 36.096 31.7553 36.1763C31.7233 36.2567 31.6993 36.3371 31.6673 36.4094C31.6352 36.4898 31.6032 36.5621 31.5712 36.6425H31.5632C31.5311 36.7148 31.4991 36.7952 31.4591 36.8675C31.4511 36.8917 31.4431 36.9077 31.4351 36.9238C31.427 36.9319 31.427 36.9399 31.4191 36.9479C30.8987 38.0008 30.1301 38.9251 29.1694 39.6485C29.1054 39.6886 29.0413 39.7369 28.9773 39.7851C28.9613 39.8011 28.9373 39.8092 28.9213 39.8253C28.8652 39.8655 28.8092 39.9056 28.7451 39.9458L28.7691 39.9941H28.7772C28.8892 39.978 29.0013 39.9619 29.1134 39.9458H29.1214C29.3296 39.9137 29.5377 39.8735 29.7459 39.8333C29.8019 39.8253 29.866 39.8092 29.922 39.7931C29.962 39.7851 29.9941 39.7771 30.0341 39.769C30.0901 39.761 30.1462 39.7449 30.2022 39.7369C30.2502 39.7208 30.2983 39.7127 30.3463 39.6967C31.1469 39.5038 31.9235 39.2385 32.668 38.9251C31.3951 40.6692 29.6898 42.0757 27.6964 43C28.6171 42.9357 29.5377 42.783 30.4264 42.5258C33.6527 41.5694 36.3667 39.3912 37.9918 36.4576C37.6636 38.3142 36.9271 40.0825 35.8383 41.6256C36.6148 41.1112 37.3274 40.5165 37.9758 39.8413C39.7691 37.9606 40.946 35.5735 41.3463 33.0096C41.6185 34.2795 41.6985 35.5896 41.5784 36.8836C47.3586 28.79 42.0588 20.3991 39.8412 18.1888C39.8332 18.1727 39.8252 18.1647 39.8252 18.1486C39.8172 18.1567 39.8172 18.1567 39.8172 18.1647C39.8172 18.1566 39.8172 18.1566 39.8091 18.1486C39.8091 18.2451 39.8011 18.3415 39.7931 18.438C39.7691 18.6228 39.7451 18.7996 39.7131 18.9765C39.6731 19.1533 39.625 19.3301 39.577 19.5069C39.5209 19.6757 39.4569 19.8525 39.3848 20.0213C39.3128 20.1821 39.2327 20.3508 39.1447 20.5116C39.0566 20.6643 38.9605 20.825 38.8565 20.9697C38.7524 21.1224 38.6403 21.2671 38.5282 21.4037C38.4081 21.5484 38.28 21.677 38.152 21.8056C38.0719 21.8779 37.9998 21.9422 37.9198 22.0065C37.8557 22.0628 37.7997 22.111 37.7356 22.1673C37.5915 22.2798 37.4474 22.3843 37.2873 22.4807C37.1352 22.5772 36.9751 22.6736 36.815 22.754C36.6469 22.8344 36.4787 22.9067 36.3106 22.979C36.1425 23.0433 35.9664 23.0996 35.7902 23.1478C35.6141 23.196 35.43 23.2362 35.2539 23.2684C35.0697 23.3005 34.8856 23.3166 34.7095 23.3327C34.5814 23.3407 34.4533 23.3488 34.3252 23.3488C34.141 23.3488 33.9569 23.3327 33.7808 23.3166C33.5967 23.3005 33.4125 23.2764 33.2364 23.2362C33.0523 23.2041 32.8761 23.1558 32.7 23.0996H32.692C32.8681 23.0835 33.0442 23.0674 33.2204 23.0353C33.4045 23.0031 33.5806 22.9629 33.7568 22.9147C33.9329 22.8665 34.109 22.8102 34.2771 22.7459C34.4533 22.6816 34.6214 22.6013 34.7815 22.5209C34.9496 22.4405 35.1017 22.3521 35.2619 22.2557C35.414 22.1512 35.5661 22.0467 35.7102 21.9342C35.8543 21.8216 35.9904 21.7011 36.1185 21.5725C36.2546 21.4519 36.3747 21.3153 36.4947 21.1787C36.6148 21.034 36.7269 20.8893 36.831 20.7446C36.847 20.7205 36.863 20.6884 36.879 20.6643C36.9591 20.5357 37.0391 20.4071 37.1112 20.2785C37.1993 20.1177 37.2793 19.957 37.3514 19.7882C37.4234 19.6194 37.4875 19.4506 37.5435 19.2738C37.5995 19.105 37.6396 18.9282 37.6796 18.7514C37.7116 18.5665 37.7436 18.3897 37.7597 18.2129C37.7757 18.028 37.7917 17.8432 37.7917 17.6664C37.7917 17.5378 37.7837 17.4092 37.7757 17.2806C37.7597 17.0957 37.7357 16.9189 37.7116 16.7421C37.6796 16.5572 37.6396 16.3804 37.5916 16.2036C37.5355 16.0348 37.4795 15.858 37.4154 15.6892C37.3514 15.5204 37.2713 15.3516 37.1913 15.1909C37.1032 15.0301 37.0151 14.8694 36.9191 14.7167C36.815 14.564 36.7109 14.4193 36.5988 14.2746C36.4788 14.138 36.3587 14.0013 36.2306 13.8647C36.1665 13.8004 36.0945 13.7281 36.0224 13.6638C35.6622 13.3825 35.2859 13.1172 34.9096 12.8761C34.8536 12.844 34.8055 12.8199 34.7495 12.7957C34.4853 12.627 34.2371 12.5385 33.9889 12.4581Z" fill="#D5D5D9"/>
</svg>
