<svg width="57" height="56" viewBox="0 0 57 56" fill="none" xmlns="http://www.w3.org/2000/svg">
<path d="M35.0847 12L33.7027 14.3694C33.5449 14.6399 33.2606 14.7906 32.9682 14.7906C32.823 14.7906 32.6756 14.7535 32.541 14.6749C32.1359 14.4386 31.9991 13.9184 32.2355 13.5133L33.1181 12H30.6364C30.6366 12.1448 30.6035 12.2913 30.5258 12.4255L26.7077 19.02C25.7714 20.6438 23.7623 21.5851 22.2002 21.5851C22.2002 21.5851 21.7928 21.5851 20.9778 21.5851C20.5088 21.5851 20.1285 21.2049 20.1285 20.7358C20.1285 20.2668 20.5088 19.8865 20.9778 19.8865H22.2002C23.3074 19.8865 24.5762 19.0996 25.2063 18.2253C25.6265 17.6423 26.8274 15.5673 28.8091 12H26.5534C22.9896 19.6742 20.8664 18.1879 14.4965 18.1879C14.0748 18.8266 13.6508 19.4676 13.2361 20.0988H17.6814C18.1505 20.0988 18.5307 20.4791 18.5307 20.9481C18.5307 21.4172 18.1505 21.7975 17.6814 21.7975H12.1288C11.7498 22.3856 11.3895 22.9532 11.0593 23.4878L25.0133 23.3897L24.3889 23.3901C25.2339 23.4073 26.6009 22.9126 27.2627 21.8722L30.5528 16.6721C30.8035 16.2757 31.328 16.1576 31.7246 16.4086C32.1208 16.6593 32.2389 17.1838 31.9881 17.5804L28.697 22.7825C27.7048 24.3414 25.8268 25.1134 24.364 25.0885L10.0508 25.1934C9.38725 26.3869 9.19014 27.1666 9.19849 27.5303H28.1719L37.8526 12.6673C37.2415 12.3151 36.3663 12.0304 35.2463 12H35.0847Z" fill="#D5D5D9"/>
<path d="M28.1718 27.5303H9.19816C9.13723 28.4301 9.41785 29.3648 9.94591 30.1861C10.1614 30.1861 10.3188 30.1861 10.4182 30.1861H10.4252H22.649C24.6256 29.969 26.3793 30.791 27.9102 32.6521L31.0958 37.8021C31.3459 38.1989 31.2266 38.7234 30.8297 38.9733C30.6892 39.0618 30.5327 39.1041 30.3781 39.1041C30.0957 39.1041 29.8199 38.9635 29.6585 38.707C27.6944 35.5233 26.4984 33.7225 26.0705 33.3045C25.4286 32.6775 24.6065 31.8896 22.649 31.8896H11.0127L12.1461 33.6895H16.6821C17.1511 33.6895 17.5314 34.0698 17.5314 34.5388C17.5314 35.0078 17.1511 35.3881 16.6821 35.3881H13.2156L14.2841 37.085C21.9279 37.085 22.9895 37.9344 25.6139 42.9999H27.8406C25.939 39.6041 24.7374 37.601 24.2358 36.9905C23.4834 36.0748 22.4695 35.3881 21.1568 35.3881H19.9785C19.5095 35.3881 19.1292 35.0078 19.1292 34.5388C19.1292 34.0698 19.5095 33.6895 19.9785 33.6895H21.1568C22.9577 33.6895 24.9786 34.8465 25.7082 36.2546L29.7386 42.8491C29.7668 42.898 29.7891 42.9485 29.8067 42.9999H32.8432L31.8731 41.3367C31.6366 40.9316 31.7735 40.4116 32.1787 40.1751C32.3133 40.0967 32.4606 40.0593 32.6059 40.0593C32.898 40.0593 33.1825 40.2101 33.3403 40.4808L34.8098 42.9999H35.5569C36.1487 43.0018 36.5822 42.9388 37.4278 42.3932L28.1718 27.5303Z" fill="#BCBCC0"/>
<path d="M37.8525 12.6672L36.6729 14.4625L38.1345 16.655C38.3946 17.0452 38.2893 17.5727 37.8988 17.8328C37.7542 17.9294 37.5905 17.9754 37.4287 17.9754C37.1542 17.9754 36.8848 17.8427 36.7213 17.5973L35.6594 16.0046L34.4869 17.7886L38.6755 24.644C39.6548 26.2463 39.6501 28.2341 38.6636 29.8321C38.6509 29.8522 38.6375 29.8722 38.6233 29.8915L38.1103 30.5839C37.9436 30.8086 37.6869 30.9275 37.4273 30.9275C37.2514 30.9275 37.0742 30.8731 36.9221 30.7606C36.5452 30.4811 36.4663 29.9493 36.7455 29.5724L37.2359 28.9108C37.8668 27.8655 37.8638 26.5732 37.2262 25.5297L33.4554 19.3583L28.0854 27.5302L32.3084 21.1644L34.3939 24.3863C35.4641 26.0397 35.4598 28.1685 34.3831 29.8178L31.9074 33.6104L28.0854 27.5302L32.9985 35.3467L35.2621 32.3286C35.5437 31.9536 36.0758 31.8776 36.4512 32.159C36.8264 32.4403 36.9024 32.9728 36.621 33.348L33.9667 36.8871L35.2577 38.9407L41.5152 29.0607C42.2288 27.9341 42.2371 26.4728 41.5362 25.3383L38.5099 20.4389C38.2636 20.0399 38.3872 19.5165 38.7864 19.27C39.1858 19.0235 39.7087 19.1473 39.9552 19.5462L42.9813 24.4457C44.0213 26.1295 44.009 28.2976 42.9503 29.9697L36.3406 40.4058C36.314 40.4478 36.2834 40.4854 36.2512 40.5211L37.4273 42.3932C37.9397 41.9883 38.3045 41.6484 38.5217 41.3733C41.014 38.2165 43.608 34.4238 46.3036 29.9951C47.2267 28.4787 47.2508 26.5996 46.3376 25.0876C42.8635 19.336 39.0038 13.2378 37.8525 12.6672Z" fill="#969699"/>
</svg>
