<svg width="58" height="56" viewBox="0 0 58 56" fill="none" xmlns="http://www.w3.org/2000/svg">
<path d="M44.0229 31.0806C43.841 30.5312 43.3645 30.1486 42.7484 30.0568C42.4578 30.0136 42.1251 30.032 41.7313 30.113C41.045 30.2542 40.5359 30.3079 40.1643 30.3183C41.5669 27.9569 42.7074 25.2641 43.3639 22.7292C44.4256 18.6304 43.8583 16.7631 43.1953 15.9185C41.4408 13.6829 38.881 12.482 35.7929 12.4452C34.1455 12.4251 32.6993 12.7495 31.9449 12.9827C31.2425 12.8591 30.4872 12.7901 29.6947 12.7774C28.2092 12.7537 26.8967 13.0767 25.7752 13.7404C25.1543 13.531 24.1578 13.2358 23.007 13.0475C20.3004 12.6044 18.119 12.9496 16.5233 14.0737C14.5912 15.4347 13.6955 17.7992 13.8612 21.1018C13.9138 22.1503 14.502 25.3406 15.4281 28.3662C15.9604 30.1053 16.528 31.5494 17.1151 32.6589C17.9477 34.2322 18.8387 35.1587 19.8389 35.4914C20.3994 35.6777 21.418 35.8081 22.4893 34.9184C22.6251 35.0824 22.8062 35.2453 23.0467 35.3967C23.352 35.5887 23.7254 35.7456 24.0983 35.8386C25.4421 36.1736 26.7008 36.0898 27.7747 35.6202C27.7813 35.8107 27.7864 35.9927 27.7907 36.1498C27.7978 36.4047 27.8049 36.6546 27.8143 36.8883C27.8779 38.4686 27.9857 39.6973 28.3052 40.557C28.3227 40.6043 28.3463 40.6764 28.3712 40.7528C28.5306 41.2394 28.7971 42.054 29.4751 42.6919C30.1771 43.3528 31.0264 43.5554 31.8041 43.5554C32.1942 43.5554 32.5664 43.5044 32.8928 43.4347C34.0564 43.186 35.3779 42.8071 36.3339 41.4497C37.2378 40.1665 37.6772 38.2338 37.7567 35.1885C37.767 35.1023 37.7765 35.0201 37.7856 34.9418L37.8045 34.7808L38.0175 34.7995L38.0723 34.8032C39.2575 34.857 40.7066 34.6064 41.5966 34.1942C42.2999 33.8688 44.5535 32.6823 44.0229 31.0806Z" fill="#242425"/>
<path d="M41.9965 31.3921C38.4726 32.117 38.2302 30.9272 38.2302 30.9272C41.9509 25.4218 43.5063 18.4335 42.1642 16.7232C38.5023 12.0577 32.1636 14.2642 32.0578 14.3214L32.0238 14.3275C31.3275 14.1833 30.5484 14.0976 29.6727 14.0833C28.0782 14.0573 26.8687 14.5001 25.9508 15.1942C25.9508 15.1942 14.6432 10.5489 15.1692 21.0365C15.281 23.2675 18.376 37.9182 22.0675 33.493C23.4168 31.8749 24.7205 30.5067 24.7205 30.5067C25.368 30.9356 26.1431 31.1544 26.9558 31.0759L27.0189 31.0225C26.9992 31.2233 27.0083 31.4198 27.0442 31.6525C26.0931 32.712 26.3727 32.898 24.4716 33.2883C22.5479 33.6836 23.6779 34.3874 24.4158 34.5715C25.3103 34.7945 27.3796 35.1104 28.7778 33.1585L28.7221 33.3813C29.0947 33.6789 29.3563 35.3171 29.3124 36.8022C29.2686 38.2872 29.2393 39.3068 29.5328 40.1032C29.8266 40.8996 30.1191 42.6915 32.6184 42.1575C34.7065 41.7113 35.7887 40.5548 35.9393 38.6258C36.0461 37.2544 36.2879 37.4572 36.3031 36.231L36.4971 35.6506C36.7207 33.7916 36.5326 33.1919 37.8191 33.4708L38.1319 33.4982C39.0786 33.5411 40.3181 33.3463 41.0455 33.0092C42.6117 32.2844 43.5407 31.0741 41.9963 31.3921H41.9965Z" fill="#969699"/>
<path d="M26.6126 22.0343C26.295 21.9902 26.0075 22.031 25.862 22.1409C25.7802 22.2027 25.7548 22.2743 25.748 22.3236C25.7297 22.4541 25.8214 22.5985 25.8778 22.6729C26.0373 22.8837 26.2703 23.0286 26.5009 23.0605C26.5343 23.0652 26.5676 23.0674 26.6006 23.0674C26.9851 23.0674 27.3348 22.7688 27.3656 22.5484C27.4041 22.2724 27.0023 22.0884 26.6126 22.0344V22.0343ZM37.1328 22.043C37.1024 21.8267 36.7164 21.765 36.35 21.8158C35.9841 21.8666 35.6293 22.0313 35.659 22.2482C35.6827 22.4168 35.988 22.7046 36.3494 22.7046C36.38 22.7046 36.4108 22.7026 36.4418 22.6982C36.6831 22.6649 36.8601 22.5121 36.9442 22.4241C37.0722 22.2899 37.1464 22.1403 37.1328 22.043Z" fill="#E3E3E6"/>
<path d="M43.1693 31.3097C43.0349 30.9045 42.6024 30.7742 41.8839 30.9221C39.7505 31.3612 38.9864 31.0571 38.7356 30.8728C40.3939 28.3537 41.7581 25.3085 42.494 22.4673C42.8426 21.1215 43.0352 19.8716 43.0509 18.8529C43.0683 17.7347 42.8773 16.913 42.4835 16.4111C40.8954 14.3876 38.5647 13.3022 35.7434 13.2724C33.8038 13.2507 32.1651 13.7457 31.8474 13.8848C31.1784 13.7189 30.4491 13.6171 29.6551 13.6041C28.199 13.5806 26.9404 13.9282 25.8984 14.6368C25.4458 14.4688 24.276 14.0683 22.8455 13.8385C20.3723 13.4415 18.407 13.7423 17.0045 14.7331C15.3311 15.9154 14.5585 18.0288 14.7082 21.0145C14.7585 22.0189 15.3325 25.109 16.2383 28.0683C17.4305 31.9633 18.7266 34.1683 20.0902 34.6219C20.2498 34.675 20.4338 34.7121 20.6368 34.7121C21.1342 34.7121 21.7441 34.4885 22.3786 33.7278C23.1525 32.802 23.9531 31.8986 24.7794 31.0189C25.3154 31.3058 25.9043 31.466 26.5066 31.4821C26.5078 31.4978 26.5094 31.5135 26.5108 31.5291C26.4071 31.6524 26.3056 31.7775 26.2063 31.9043C25.7889 32.4326 25.7021 32.5426 24.3587 32.8183C23.9766 32.897 22.9617 33.1056 22.9468 33.815C22.9307 34.5901 24.1465 34.9157 24.285 34.9502C24.7678 35.0707 25.2328 35.1301 25.6764 35.1301C26.755 35.1301 27.7042 34.7766 28.4628 34.0926C28.4395 36.8558 28.555 39.5787 28.8877 40.4083C29.1603 41.0875 29.8259 42.7473 31.9287 42.7472C32.2372 42.7472 32.5768 42.7114 32.9504 42.6315C35.145 42.1624 36.0981 41.1951 36.4667 39.0627C36.664 37.9231 37.0025 35.2017 37.1618 33.742C37.4978 33.8466 37.9304 33.8944 38.3981 33.8943C39.3735 33.8943 40.4991 33.6876 41.2049 33.3609C41.9979 32.9937 43.4288 32.0926 43.1693 31.3097ZM37.9431 21.4457C37.9359 21.8767 37.8764 22.2679 37.8133 22.6763C37.7455 23.1155 37.6753 23.5695 37.6576 24.1208C37.6402 24.6572 37.7074 25.2149 37.7724 25.7543C37.9036 26.8437 38.0384 27.9653 37.5169 29.072C37.4303 28.9189 37.3531 28.7607 37.2858 28.5983C37.221 28.4416 37.0802 28.1899 36.8853 27.8416C36.1271 26.4856 34.3515 23.3102 35.2604 22.0144C35.5312 21.6288 36.2183 21.2322 37.9431 21.4457ZM35.8524 14.145C38.3803 14.2007 40.38 15.1437 41.7957 16.9478C42.8816 18.3315 41.6859 24.6279 38.2244 30.0598C38.1896 30.0157 38.1546 29.9717 38.1194 29.9278L38.0756 29.8732C38.9701 28.4001 38.7952 26.9426 38.6395 25.6504C38.5755 25.1201 38.5151 24.6193 38.5305 24.1488C38.5463 23.6501 38.6125 23.2224 38.6764 22.8088C38.755 22.2992 38.835 21.7719 38.8129 21.1502C38.8294 21.085 38.8361 21.008 38.8274 20.9165C38.7711 20.3204 38.0886 18.5363 36.6975 16.9215C35.9366 16.0383 34.8269 15.0499 33.3117 14.3832C33.9634 14.2485 34.8546 14.1229 35.8524 14.145ZM21.7071 33.171C21.008 34.0093 20.5253 33.8486 20.3665 33.7959C19.3321 33.4518 18.1317 31.2715 17.0735 27.8142C16.1578 24.8226 15.6227 21.8144 15.5803 20.9709C15.4466 18.3031 16.0951 16.4438 17.5079 15.4447C19.8071 13.8188 23.5872 14.792 25.1062 15.2855C25.0844 15.307 25.0616 15.3271 25.0401 15.349C22.5475 17.8591 22.6066 22.1478 22.6128 22.41C22.6125 22.5112 22.621 22.6544 22.6327 22.8514C22.6756 23.5727 22.7554 24.9153 22.5421 26.4356C22.344 27.8484 22.7808 29.2313 23.7402 30.2296C23.8387 30.3318 23.9422 30.4292 24.0503 30.5212C23.6232 30.9773 22.6951 31.9859 21.7071 33.171ZM24.3707 29.6271C23.5974 28.8224 23.2462 27.7032 23.407 26.5561C23.6321 24.9501 23.5491 23.5513 23.5044 22.7998C23.4981 22.6947 23.4926 22.6025 23.4894 22.5299C23.8535 22.2079 25.5409 21.3063 26.7443 21.5813C27.2934 21.7066 27.628 22.0795 27.7671 22.7209C28.4871 26.0415 27.8624 27.4255 27.3605 28.5378C27.257 28.7669 27.1593 28.9835 27.0759 29.2075L27.0112 29.3807C26.8474 29.8186 26.695 30.2258 26.6006 30.6124C25.7785 30.6101 24.9788 30.2598 24.3707 29.627V29.6271ZM24.4969 34.1053C24.2568 34.0455 24.0409 33.9417 23.9143 33.8555C24.0201 33.8059 24.2084 33.7383 24.5349 33.6712C26.1152 33.3469 26.3593 33.1179 26.8923 32.4431C27.0145 32.2883 27.153 32.1129 27.3448 31.8993L27.3451 31.8991C27.6308 31.58 27.7615 31.6341 27.9984 31.7322C28.1905 31.8114 28.3776 32.0515 28.4534 32.3157C28.4894 32.4405 28.5296 32.6773 28.3978 32.8616C27.2844 34.4161 25.662 34.3961 24.4969 34.1053ZM32.7675 41.78C30.8342 42.1931 30.1497 41.2094 29.6986 40.0849C29.4074 39.3589 29.2643 36.0852 29.3658 32.4699C29.3671 32.4218 29.3603 32.3754 29.347 32.3316C29.3351 32.2453 29.3171 32.1599 29.293 32.0762C29.142 31.5501 28.7741 31.1101 28.3327 30.9277C28.1573 30.8552 27.8355 30.7223 27.4488 30.821C27.5312 30.4821 27.6742 30.0994 27.8294 29.685L27.8944 29.5107C27.9676 29.3142 28.0596 29.1106 28.1567 28.8951C28.682 27.7315 29.4014 26.1376 28.6206 22.5369C28.3282 21.1883 27.3516 20.5297 25.8712 20.6827C24.9837 20.7742 24.1716 21.1313 23.7666 21.3361C23.6795 21.38 23.5999 21.4226 23.5255 21.4639C23.6385 20.1051 24.0656 17.5656 25.6631 15.9589C26.669 14.9474 28.0085 14.4479 29.6406 14.4748C32.8565 14.5273 34.9187 16.173 36.0825 17.5445C37.0855 18.7262 37.6285 19.9166 37.8452 20.5587C36.2154 20.3934 35.1069 20.7142 34.545 21.5153C33.3225 23.258 35.2138 26.6401 36.1227 28.2657C36.2894 28.5635 36.4333 28.821 36.4785 28.9304C36.7745 29.6458 37.1577 30.1234 37.4375 30.4719C37.5233 30.5787 37.6065 30.6824 37.6697 30.7729C37.1761 30.9148 36.2894 31.2427 36.3702 32.8817C36.3051 33.7041 35.8416 37.5544 35.6062 38.9148C35.2954 40.712 34.6322 41.3813 32.7675 41.7801V41.78ZM40.8373 32.5712C40.3325 32.8048 39.4878 32.98 38.6853 33.0177C37.799 33.059 37.3478 32.9187 37.2416 32.8323C37.1919 31.8109 37.573 31.7042 37.9765 31.5913C38.0399 31.5735 38.1018 31.5562 38.1615 31.5354C38.1986 31.5655 38.2392 31.5954 38.2838 31.6247C38.9961 32.0936 40.2667 32.1441 42.0606 31.7749L42.0802 31.771C41.8383 31.9965 41.4243 32.2993 40.8373 32.5712Z" fill="#E3E3E6"/>
</svg>
