<svg width="56" height="56" viewBox="0 0 56 56" fill="none" xmlns="http://www.w3.org/2000/svg">
<path d="M42.6345 31.7178V33.4692H45.7987C46.447 33.4692 47.5597 32.9951 47.5984 31.6694V30.9921C47.5984 29.86 46.6695 29.1923 45.7987 29.1923H44.2214V28.3795H47.3468V26.6184H44.3472C43.5731 26.6184 42.5378 27.2571 42.5378 28.4473V29.0569C42.5378 30.247 43.5634 30.8566 44.3472 30.8566C46.5244 30.8663 43.8247 30.8566 45.8374 30.8566V31.7081L42.6345 31.7178ZM25.6818 31.2921C25.6818 31.2921 27.3751 31.1469 27.3751 28.9601C27.3751 26.7733 25.3238 26.5701 25.3238 26.5701H21.6274V33.4692H23.4853V31.8049L25.0915 33.4692H27.8396L25.6818 31.2921ZM24.9657 29.8793H23.4853V28.3021H24.9754C24.9754 28.3021 25.3915 28.4569 25.3915 29.0859C25.3915 29.7148 24.9657 29.8793 24.9657 29.8793ZM31.9617 26.6184H30.0748C28.7298 26.6184 28.275 27.8377 28.275 28.4182V33.4692H30.1619V32.2597H31.9326V33.4692H33.7614V28.4182C33.7614 26.9474 32.4261 26.6184 31.9617 26.6184ZM31.9326 30.3051H30.1522V28.6311C30.1522 28.6311 30.1522 28.2537 30.7424 28.2537H31.3908C31.9133 28.2537 31.9229 28.6311 31.9229 28.6311V30.3051H31.9326ZM34.6226 26.6184H36.5869V33.4692H34.6226V26.6184ZM39.3446 31.6985V26.6184H37.39V33.4692H41.9862V31.6985H39.3446Z" fill="#D5D5D9"/>
<path d="M9.96777 33.4692H17.612C17.612 33.4692 16.1509 26.8023 20.989 24.1026C22.0437 23.5898 25.4014 21.6739 30.8975 25.7379C31.0716 25.5928 31.2361 25.4767 31.2361 25.4767C31.2361 25.4767 26.2045 20.4547 20.6019 21.0159C17.7862 21.2675 14.3221 23.8317 12.2901 27.2184C10.2581 30.6051 9.96777 33.4692 9.96777 33.4692Z" fill="#D5D5D9"/>
<path d="M9.96777 33.4692H17.612C17.612 33.4692 16.1509 26.8023 20.989 24.1026C22.0437 23.5898 25.4014 21.6739 30.8975 25.7379C31.0716 25.5928 31.2361 25.4767 31.2361 25.4767C31.2361 25.4767 26.2045 20.4547 20.6019 21.0159C17.7862 21.2675 14.3221 23.8317 12.2901 27.2184C10.2581 30.6051 9.96777 33.4692 9.96777 33.4692Z" fill="#D5D5D9"/>
<path d="M9.96777 33.4692H17.612C17.612 33.4692 16.1509 26.8023 20.989 24.1026C22.0437 23.5898 25.4014 21.6739 30.8975 25.7379C31.0716 25.5928 31.2361 25.4766 31.2361 25.4766C31.2361 25.4766 26.2045 20.4547 20.6019 21.0159C17.7765 21.2675 14.3124 23.8317 12.2804 27.2184C10.2484 30.605 9.96777 33.4692 9.96777 33.4692ZM25.8948 21.5578L25.9335 20.9095C25.8465 20.8611 25.6046 20.745 24.995 20.5708L24.9562 21.2094C25.2756 21.3159 25.5852 21.432 25.8948 21.5578Z" fill="#D5D5D9"/>
<path d="M24.9752 23.6092L24.9365 24.2188C25.2558 24.2285 25.5751 24.2672 25.8944 24.3349L25.9331 23.735C25.6042 23.6673 25.2848 23.6286 24.9752 23.6092ZM21.395 20.5902H21.4918L21.2982 20C20.9983 20 20.6886 20.0194 20.3693 20.0581L20.5532 20.629C20.8338 20.5999 21.1144 20.5902 21.395 20.5902ZM21.8595 24.1511L22.082 24.8188C22.3626 24.6833 22.6432 24.5672 22.9238 24.4801L22.711 23.8415C22.382 23.9382 22.1014 24.0447 21.8595 24.1511ZM17.4665 21.6063L17.031 20.9386C16.7891 21.0644 16.5375 21.1999 16.2763 21.3547L16.7214 22.032C16.973 21.8772 17.2149 21.732 17.4665 21.6063ZM19.4501 25.9606L19.9145 26.6572C20.079 26.4153 20.2726 26.1928 20.4854 25.9702L20.05 25.3122C19.8274 25.5154 19.6242 25.738 19.4501 25.9606ZM18.047 29.0763L18.8308 29.6956C18.8695 29.3182 18.9372 28.9408 19.034 28.5635L18.3373 28.0119C18.2115 28.3699 18.1244 28.728 18.047 29.0763ZM13.8088 24.4801L13.1218 23.8802C12.8702 24.1221 12.6283 24.364 12.4058 24.6059L13.1509 25.2445C13.3541 24.9833 13.5766 24.722 13.8088 24.4801ZM10.8866 28.8054L9.77385 28.399C9.59 28.815 9.3868 29.2989 9.29004 29.5601L10.4028 29.9665C10.5286 29.6375 10.7318 29.1634 10.8866 28.8054ZM17.9019 31.5341C17.9212 32.0469 17.9696 32.463 18.018 32.7533L19.1791 33.1693C19.0921 32.792 19.005 32.3662 18.9469 31.9114L17.9019 31.5341Z" fill="#D5D5D9"/>
</svg>
