<svg width="57" height="56" viewBox="0 0 57 56" fill="none" xmlns="http://www.w3.org/2000/svg">
<path d="M28.4076 30.743C29.9309 30.743 31.1657 29.515 31.1657 28.0002C31.1657 26.4853 29.9309 25.2573 28.4076 25.2573C26.8843 25.2573 25.6494 26.4853 25.6494 28.0002C25.6494 29.515 26.8843 30.743 28.4076 30.743Z" fill="#D5D5D9"/>
<path fill-rule="evenodd" clip-rule="evenodd" d="M15.439 26.5569C14.8135 27.1184 14.6079 27.6079 14.6079 28.0001C14.6079 28.3922 14.8135 28.8818 15.439 29.4433C16.064 30.0044 17.0249 30.5555 18.2977 31.0387C20.8361 32.0026 24.4103 32.6195 28.4077 32.6195C32.4052 32.6195 35.9794 32.0026 38.5178 31.0387C39.7906 30.5555 40.7515 30.0044 41.3765 29.4433C42.002 28.8818 42.2076 28.3922 42.2076 28.0001C42.2076 27.6079 42.002 27.1184 41.3765 26.5569C40.7515 25.9958 39.7906 25.4446 38.5178 24.9614C35.9794 23.9976 32.4052 23.3806 28.4077 23.3806C24.4103 23.3806 20.8361 23.9976 18.2977 24.9614C17.0249 25.4446 16.064 25.9958 15.439 26.5569ZM17.5877 23.0916C20.4058 22.0216 24.2315 21.3806 28.4077 21.3806C32.584 21.3806 36.4097 22.0216 39.2278 23.0916C40.6333 23.6253 41.8398 24.2851 42.7126 25.0686C43.5849 25.8517 44.2076 26.8404 44.2076 28.0001C44.2076 29.1597 43.5849 30.1484 42.7126 30.9316C41.8398 31.715 40.6333 32.3748 39.2278 32.9085C36.4097 33.9785 32.584 34.6195 28.4077 34.6195C24.2315 34.6195 20.4058 33.9785 17.5877 32.9085C16.1822 32.3748 14.9757 31.715 14.1029 30.9316C13.2306 30.1484 12.6079 29.1597 12.6079 28.0001C12.6079 26.8404 13.2306 25.8517 14.1029 25.0686C14.9757 24.2851 16.1822 23.6253 17.5877 23.0916Z" fill="#D5D5D9"/>
<path fill-rule="evenodd" clip-rule="evenodd" d="M23.1881 16.1117C22.3874 15.8541 21.8555 15.9205 21.5098 16.1191C21.164 16.3176 20.8402 16.7424 20.6642 17.5608C20.4882 18.3792 20.4887 19.4816 20.7041 20.8184C21.1337 23.485 22.3829 26.8702 24.3811 30.3119C26.3792 33.7535 28.7027 36.522 30.8101 38.2253C31.8666 39.0792 32.8263 39.6308 33.6271 39.8884C34.4278 40.146 34.9597 40.0796 35.3054 39.8811C35.6512 39.6826 35.975 39.2577 36.151 38.4393C36.327 37.6209 36.3265 36.5186 36.1111 35.1817C35.6815 32.5152 34.4323 29.1299 32.4342 25.6883C30.436 22.2466 28.1125 19.4781 26.0051 17.7749C24.9486 16.9209 23.9889 16.3693 23.1881 16.1117ZM27.2659 16.2264C29.6079 18.1193 32.0799 21.0948 34.1686 24.6924C36.2573 28.2901 37.6125 31.9067 38.09 34.8702C38.3281 36.3483 38.3568 37.718 38.1108 38.8618C37.8647 40.0057 37.3152 41.0333 36.3096 41.6107C35.304 42.1881 34.1343 42.1475 33.0152 41.7875C31.896 41.4274 30.7175 40.7179 29.5494 39.7737C27.2073 37.8808 24.7353 34.9054 22.6466 31.3077C20.5579 27.71 19.2027 24.0934 18.7252 21.1299C18.4871 19.6518 18.4584 18.2821 18.7044 17.1383C18.9505 15.9944 19.5 14.9668 20.5056 14.3894C21.5112 13.8121 22.6809 13.8526 23.8001 14.2127C24.9192 14.5727 26.0977 15.2822 27.2659 16.2264Z" fill="#D5D5D9"/>
<path fill-rule="evenodd" clip-rule="evenodd" d="M36.1512 17.5608C35.9752 16.7424 35.6514 16.3175 35.3056 16.119C34.9599 15.9205 34.428 15.8541 33.6273 16.1117C32.8265 16.3693 31.8668 16.9209 30.8103 17.7748C28.7029 19.4781 26.3794 22.2466 24.3812 25.6882C22.3831 29.1299 21.1339 32.5151 20.7043 35.1817C20.4889 36.5185 20.4884 37.6209 20.6644 38.4393C20.8404 39.2577 21.1642 39.6825 21.51 39.881C21.8557 40.0796 22.3876 40.146 23.1883 39.8884C23.9891 39.6308 24.9488 39.0792 26.0053 38.2252C28.1127 36.522 30.4362 33.7535 32.4343 30.3118C34.4325 26.8702 35.6817 23.4849 36.1113 20.8184C36.3267 19.4815 36.3272 18.3792 36.1512 17.5608ZM38.0902 21.1299C37.6127 24.0934 36.2575 27.71 34.1688 31.3077C32.0801 34.9053 29.6081 37.8808 27.266 39.7737C26.0978 40.7179 24.9194 41.4274 23.8002 41.7874C22.6811 42.1475 21.5114 42.188 20.5058 41.6107C19.5002 41.0333 18.9507 40.0057 18.7046 38.8618C18.4586 37.718 18.4873 36.3483 18.7254 34.8701C19.2029 31.9067 20.5581 28.2901 22.6468 24.6924C24.7355 21.0947 27.2075 18.1193 29.5495 16.2264C30.7177 15.2822 31.8962 14.5727 33.0153 14.2126C34.1345 13.8526 35.3042 13.812 36.3098 14.3894C37.3154 14.9668 37.8649 15.9944 38.1109 17.1382C38.357 18.2821 38.3283 19.6518 38.0902 21.1299Z" fill="#D5D5D9"/>
</svg>
