<svg width="56" height="56" viewBox="0 0 56 56" fill="none" xmlns="http://www.w3.org/2000/svg">
<g clip-path="url(#clip0_6044_28067)">
<path d="M28.5 43C37.0604 43 44 36.0604 44 27.5C44 18.9396 37.0604 12 28.5 12C19.9396 12 13 18.9396 13 27.5C13 36.0604 19.9396 43 28.5 43Z" fill="white"/>
<mask id="mask0_6044_28067" style="mask-type:luminance" maskUnits="userSpaceOnUse" x="13" y="12" width="31" height="31">
<path d="M28.5 43C37.0604 43 44 36.0604 44 27.5C44 18.9396 37.0604 12 28.5 12C19.9396 12 13 18.9396 13 27.5C13 36.0604 19.9396 43 28.5 43Z" fill="white"/>
</mask>
<g mask="url(#mask0_6044_28067)">
<path d="M35.2313 13.3902C33.1925 12.4212 30.9116 11.8789 28.504 11.8789C24.304 11.8789 20.4894 13.5292 17.6734 16.2167C14.6794 19.0739 40.5305 15.909 35.2313 13.3902Z" fill="#F5F5F5"/>
<path d="M40.7789 17.7794C40.7968 17.8018 39.4992 19.5361 35.5993 20.0285C27.7275 21.0223 14.2131 21.1273 14.2334 21.0826C15.0694 19.2456 16.2493 17.5981 17.6908 16.2224C19.3893 16.7527 21.238 16.8848 22.9867 16.5626C25.874 16.0344 28.4429 14.366 31.2989 13.6861C32.5666 13.3816 33.9477 13.2926 35.2485 13.3959C37.41 14.4233 39.2993 15.9303 40.7789 17.7794Z" fill="#E3E3E6"/>
<path d="M43.9955 25.1197C44.0055 25.1829 26.2448 26.8524 17.5913 26.3657C14.7719 26.2072 13.108 24.5026 13.1271 24.4095C13.3649 23.2497 13.7307 22.1365 14.2091 21.0854C16.7091 19.717 19.6503 18.9273 22.5024 18.9585C26.079 18.9951 29.5876 20.1875 33.1642 20.0986C35.8203 20.031 38.4975 19.1833 40.7545 17.7822C42.4177 19.8609 43.5633 22.3719 43.9955 25.1197Z" fill="#D5D5D9"/>
<path d="M44.137 27.4892C44.137 27.5761 44.1349 27.7495 44.1349 27.7495C44.1349 27.7495 39.2019 28.9937 32.8487 28.9195C23.9502 28.8155 12.7576 27.3802 12.7578 27.3539C12.7666 26.3129 12.8768 25.296 13.079 24.3127C15.2109 25.6282 17.7964 26.2725 20.285 26.0013C22.2638 25.7869 24.1435 25.0547 25.9762 24.2754C27.8088 23.4961 29.631 22.6593 31.5681 22.2096C34.4137 21.5506 37.4577 21.7807 40.178 22.8529C41.5013 23.3747 42.8144 24.125 43.9454 25.0298C44.0715 25.831 44.137 26.6525 44.137 27.4892Z" fill="#BCBCC0"/>
<path d="M26.3438 32.588C21.6365 33.4573 13.5581 32.4546 13.5378 32.3926C13.0316 30.8512 12.7578 29.2044 12.7578 27.4936C12.7578 27.4484 12.758 27.4033 12.7584 27.3582C13.473 26.7916 14.3077 26.2863 15.1226 25.8937C17.138 24.9157 19.4249 24.5077 21.6544 24.7274C23.8577 24.9471 25.9619 25.7629 27.9982 26.6416C29.7138 27.3818 31.4182 28.1815 33.199 28.734C33.3734 28.7881 31.5255 31.6311 26.3438 32.588Z" fill="#969699"/>
<path d="M43.5904 31.7203C43.2617 32.2754 40.1355 34.1455 35.8979 34.4658C30.287 34.8898 23.6586 33.1938 25.8574 32.3307C29.3191 30.9709 32.3213 28.5285 35.8979 27.5086C38.5697 26.7432 41.5314 26.8643 44.1543 27.7891C44.1322 29.1486 43.9372 30.466 43.5904 31.7203Z" fill="#969699"/>
<path d="M42.134 35.3194C39.4248 40.0231 19.7755 41.2026 16.905 38.0386C15.4438 36.428 14.3127 34.5124 13.6187 32.3987C16.0317 31.0195 18.8564 30.4337 21.5714 30.8051C25.0853 31.2862 28.2338 33.2475 31.7007 34.011C34.4993 34.6282 37.465 34.4347 40.1591 33.4619C41.377 33.0188 42.5847 32.4249 43.6525 31.6907C43.2978 32.9738 42.7841 34.1908 42.134 35.3194Z" fill="#3D3D3F"/>
<path d="M42.0695 35.2536C39.366 39.9789 34.2756 43.1631 28.4415 43.1631C23.8321 43.1631 19.6869 41.1754 16.8164 38.0104C17.2928 38.1925 17.8255 38.3499 18.3139 38.4875C21.0446 39.2406 23.9842 39.2197 26.6992 38.4195C28.4379 37.907 30.0721 37.0911 31.7795 36.474C35.0375 35.2991 38.6234 34.8854 42.0695 35.2536Z" fill="#3D3D3F"/>
</g>
</g>
<defs>
<clipPath id="clip0_6044_28067">
<rect width="31" height="31" fill="white" transform="translate(13 12)"/>
</clipPath>
</defs>
</svg>
