<svg width="45" height="31" viewBox="0 0 45 31" fill="none" xmlns="http://www.w3.org/2000/svg">
<mask id="path-1-outside-1_5896_18209" maskUnits="userSpaceOnUse" x="-2" y="-2" width="49" height="34" fill="black">
<rect fill="white" x="-2" y="-2" width="49" height="34"/>
<path d="M0.0605469 31L1.57688 22.1619C2.039 19.6203 2.97769 16.9775 4.39293 14.2337C5.80818 11.4609 7.55558 8.84706 9.63512 6.39204C11.7147 3.90814 13.9675 1.81416 16.3936 0.110081L22.8056 4.83238C20.7549 7.40293 18.9209 10.089 17.3034 12.8906C15.686 15.6633 14.6029 18.7249 14.0542 22.0753L12.5378 31H0.0605469ZM22.0257 31L23.5421 22.1619C24.0042 19.6203 24.9429 16.9775 26.3581 14.2337C27.7734 11.4609 29.5208 8.84706 31.6003 6.39204C33.6799 3.90814 35.9327 1.81416 38.3588 0.110081L44.7708 4.83238C42.7201 7.40293 40.8861 10.089 39.2686 12.8906C37.6512 15.6633 36.5681 18.7249 36.0194 22.0753L34.503 31H22.0257Z"/>
</mask>
<path d="M0.0605469 31L-0.925053 30.8309L-1.12563 32H0.0605469V31ZM1.57688 22.1619L0.592964 21.983L0.591284 21.9928L1.57688 22.1619ZM4.39293 14.2337L5.28169 14.6921L5.28362 14.6883L4.39293 14.2337ZM9.63512 6.39204L10.3982 7.0384L10.4019 7.03398L9.63512 6.39204ZM16.3936 0.110081L16.9867 -0.69511L16.4075 -1.12167L15.8189 -0.708233L16.3936 0.110081ZM22.8056 4.83238L23.5873 5.45601L24.2355 4.64353L23.3986 4.02719L22.8056 4.83238ZM17.3034 12.8906L18.1672 13.3945L18.1695 13.3906L17.3034 12.8906ZM14.0542 22.0753L15.04 22.2428L15.041 22.2369L14.0542 22.0753ZM12.5378 31V32H13.3822L13.5237 31.1675L12.5378 31ZM22.0257 31L21.0401 30.8309L20.8396 32H22.0257V31ZM23.5421 22.1619L22.5582 21.983L22.5565 21.9928L23.5421 22.1619ZM26.3581 14.2337L27.2469 14.6921L27.2488 14.6883L26.3581 14.2337ZM31.6003 6.39204L32.3634 7.0384L32.3671 7.03398L31.6003 6.39204ZM38.3588 0.110081L38.9519 -0.69511L38.3727 -1.12167L37.7841 -0.708233L38.3588 0.110081ZM44.7708 4.83238L45.5525 5.45601L46.2007 4.64353L45.3638 4.02719L44.7708 4.83238ZM39.2686 12.8906L40.1324 13.3945L40.1347 13.3906L39.2686 12.8906ZM36.0194 22.0753L37.0052 22.2428L37.0062 22.2369L36.0194 22.0753ZM34.503 31V32H35.3474L35.4889 31.1675L34.503 31ZM1.04615 31.1691L2.56248 22.331L0.591284 21.9928L-0.925053 30.8309L1.04615 31.1691ZM2.56075 22.3408C3.00211 19.9133 3.90323 17.3646 5.28168 14.6921L3.50419 13.7753C2.05214 16.5905 1.07589 19.3272 0.593013 21.983L2.56075 22.3408ZM5.28362 14.6883C6.66269 11.9864 8.36674 9.4366 10.3982 7.03839L8.87208 5.7457C6.74441 8.25752 4.95367 10.9354 3.50225 13.779L5.28362 14.6883ZM10.4019 7.03398C12.4305 4.61086 14.62 2.57791 16.9684 0.928394L15.8189 -0.708233C13.3151 1.0504 10.9988 3.20542 8.86836 5.75011L10.4019 7.03398ZM15.8006 0.915272L22.2126 5.63757L23.3986 4.02719L16.9867 -0.69511L15.8006 0.915272ZM22.0238 4.20876C19.9425 6.81771 18.0802 9.54506 16.4374 12.3906L18.1695 13.3906C19.7615 10.633 21.5673 7.98815 23.5873 5.45601L22.0238 4.20876ZM16.4397 12.3868C14.7572 15.2711 13.6347 18.4496 13.0673 21.9136L15.041 22.2369C15.5712 19.0002 16.6149 16.0556 18.1672 13.3945L16.4397 12.3868ZM13.0683 21.9078L11.5519 30.8325L13.5237 31.1675L15.04 22.2428L13.0683 21.9078ZM12.5378 30H0.0605469V32H12.5378V30ZM23.0113 31.1691L24.5277 22.331L22.5565 21.9928L21.0401 30.8309L23.0113 31.1691ZM24.526 22.3408C24.9673 19.9133 25.8684 17.3646 27.2469 14.6921L25.4694 13.7753C24.0173 16.5905 23.0411 19.3272 22.5582 21.983L24.526 22.3408ZM27.2488 14.6883C28.6279 11.9864 30.3319 9.4366 32.3634 7.03839L30.8373 5.7457C28.7096 8.25752 26.9189 10.9354 25.4674 13.779L27.2488 14.6883ZM32.3671 7.03398C34.3957 4.61086 36.5852 2.57791 38.9336 0.928394L37.7841 -0.708233C35.2803 1.0504 32.964 3.20542 30.8336 5.75011L32.3671 7.03398ZM37.7658 0.915272L44.1778 5.63757L45.3638 4.02719L38.9519 -0.69511L37.7658 0.915272ZM43.9891 4.20876C41.9077 6.81771 40.0454 9.54506 38.4026 12.3906L40.1347 13.3906C41.7267 10.633 43.5325 7.98815 45.5525 5.45601L43.9891 4.20876ZM38.4049 12.3868C36.7224 15.2711 35.5999 18.4496 35.0325 21.9136L37.0062 22.2369C37.5364 19.0002 38.5801 16.0556 40.1324 13.3945L38.4049 12.3868ZM35.0335 21.9078L33.5171 30.8325L35.4889 31.1675L37.0052 22.2428L35.0335 21.9078ZM34.503 30H22.0257V32H34.503V30Z" fill="url(#paint0_linear_5896_18209)" mask="url(#path-1-outside-1_5896_18209)"/>
<defs>
<linearGradient id="paint0_linear_5896_18209" x1="-11" y1="47.5" x2="39" y2="47.5" gradientUnits="userSpaceOnUse">
<stop stop-color="#EF6565" stop-opacity="0"/>
<stop offset="1" stop-color="#EF6565"/>
</linearGradient>
</defs>
</svg>
