<svg width="56" height="56" viewBox="0 0 56 56" fill="none" xmlns="http://www.w3.org/2000/svg">
<path d="M42.3365 35.1782C40.6762 36.0436 32.0754 39.5799 30.2444 40.5345C28.4133 41.4892 27.3961 41.48 25.9496 40.7885C24.5032 40.097 15.3504 36.3999 13.7017 35.6118C12.8777 35.218 12.4443 34.8855 12.4443 34.5715V31.4268C12.4443 31.4268 24.3601 28.8328 26.2838 28.1427C28.2073 27.4525 28.8748 27.4276 30.5117 28.0272C32.149 28.6271 41.9375 30.3931 43.5554 30.9857L43.5547 34.0859C43.555 34.3967 43.1816 34.7377 42.3365 35.1782Z" fill="#969699"/>
<path d="M42.3359 32.0521C40.6757 32.9171 32.0752 36.4536 30.2441 37.4081C28.4132 38.3629 27.396 38.3535 25.9496 37.662C24.503 36.971 15.3506 33.2733 13.702 32.4857C12.0534 31.6976 12.0188 31.1552 13.6383 30.5211C15.2578 29.8867 24.36 26.3156 26.2839 25.6255C28.2074 24.9356 28.8747 24.9104 30.5117 25.5103C32.1488 26.1099 40.6981 29.5128 42.3157 30.1052C43.934 30.6984 43.9961 31.1868 42.3359 32.0521Z" fill="#BCBCC0"/>
<path d="M42.3365 30.0897C40.6762 30.9552 32.0754 34.4914 30.2444 35.4464C28.4133 36.4008 27.3961 36.3915 25.9496 35.7C24.5031 35.0089 15.3504 31.3114 13.7017 30.5233C12.8777 30.1296 12.4443 29.7976 12.4443 29.4834V26.3384C12.4443 26.3384 24.3601 23.7445 26.2838 23.0543C28.2073 22.3642 28.8748 22.3392 30.5117 22.9389C32.1491 23.5386 41.9377 25.3043 43.5554 25.897L43.5547 28.9975C43.555 29.3083 43.1816 29.6493 42.3365 30.0897Z" fill="#969699"/>
<path d="M42.3359 26.9637C40.6757 27.8289 32.0752 31.3652 30.2441 32.32C28.4132 33.2745 27.396 33.2651 25.9496 32.5736C24.503 31.8826 15.3506 28.185 13.702 27.3973C12.0534 26.6094 12.0188 26.0669 13.6383 25.4325C15.2578 24.7985 24.3601 21.2272 26.2839 20.5371C28.2074 19.8471 28.8747 19.8221 30.5117 20.4218C32.1488 21.0214 40.6981 24.4241 42.3157 25.0168C43.934 25.6098 43.9961 26.0984 42.3359 26.9637Z" fill="#BCBCC0"/>
<path d="M42.3365 24.8129C40.6762 25.6781 32.0754 29.2146 30.2444 30.1696C28.4133 31.1241 27.3961 31.1147 25.9496 30.4232C24.5031 29.7321 15.3504 26.0345 13.7017 25.2467C12.8777 24.8526 12.4443 24.5205 12.4443 24.2067V21.0615C12.4443 21.0615 24.3601 18.4678 26.2838 17.7777C28.2073 17.0875 28.8748 17.0627 30.5117 17.6623C32.1491 18.262 41.9377 20.0277 43.5554 20.6204L43.5547 23.7208C43.555 24.0313 43.1816 24.3723 42.3365 24.8129Z" fill="#969699"/>
<path d="M42.3358 21.6869C40.6756 22.5522 32.0751 26.0886 30.2441 27.0431C28.4131 27.9976 27.3959 27.9882 25.9495 27.2971C24.5031 26.6056 15.3506 22.9083 13.7021 22.1204C12.0533 21.3327 12.0189 20.79 13.6383 20.1558C15.2577 19.5216 24.36 15.9508 26.2838 15.2605C28.2074 14.5704 28.8747 14.5456 30.5117 15.1453C32.1488 15.745 40.698 19.1477 42.3157 19.7404C43.9339 20.333 43.996 20.8216 42.3358 21.6869Z" fill="#BCBCC0"/>
<path d="M31.8016 18.6278L29.1268 18.9055L28.528 20.3463L27.5609 18.7385L24.4722 18.4609L26.7769 17.6298L26.0854 16.354L28.2431 17.1979L30.2773 16.5319L29.7275 17.8511L31.8016 18.6278ZM28.3683 25.6178L23.3763 23.5473L30.5294 22.4493L28.3683 25.6178ZM21.4473 19.4287C23.5588 19.4287 25.2706 20.0922 25.2706 20.9106C25.2706 21.7292 23.5588 22.3926 21.4473 22.3926C19.3357 22.3926 17.624 21.729 17.624 20.9106C17.624 20.0922 19.3357 19.4287 21.4473 19.4287Z" fill="#242425"/>
<path d="M34.9629 19.0216L39.1964 20.6946L34.9665 22.3659L34.9629 19.0215" fill="#575759"/>
<path d="M30.2793 20.8742L34.963 19.0215L34.9666 22.3658L34.5074 22.5454L30.2793 20.8742Z" fill="#969699"/>
</svg>
