<svg width="56" height="56" viewBox="0 0 56 56" fill="none" xmlns="http://www.w3.org/2000/svg">
<path d="M34.0011 33.8597C35.1492 33.7408 36.0201 32.7511 35.9805 31.5633C35.941 30.3756 34.9512 29.4254 33.7635 29.4254H33.6844C32.4569 29.465 31.5068 30.4943 31.5465 31.7217C31.5861 32.3156 31.8235 32.8302 32.1799 33.1866C30.8338 35.8393 28.7751 37.7792 25.6871 39.4025C23.5888 40.511 21.4114 40.907 19.234 40.6299C17.4524 40.3923 16.0667 39.6005 15.1956 38.2939C13.9288 36.3539 13.8101 34.2555 14.879 32.1572C15.6313 30.6527 16.8189 29.5441 17.5711 28.9898C17.4128 28.4752 17.1752 27.6042 17.0564 26.9708C11.3158 31.1279 11.9097 36.7499 13.6517 39.4025C14.9581 41.3821 17.6107 42.6095 20.5404 42.6095C21.3322 42.6095 22.1239 42.5302 22.9158 42.3324C27.9834 41.3425 31.8237 38.3335 34.0011 33.8597ZM40.969 28.9503C37.9601 25.4266 33.526 23.4867 28.4584 23.4867H27.825C27.4687 22.7741 26.7165 22.2989 25.8851 22.2989H25.8058C24.5787 22.3385 23.6285 23.3678 23.668 24.5953C23.7077 25.783 24.6974 26.7332 25.8851 26.7332H25.9642C26.8352 26.6936 27.5874 26.1393 27.9041 25.387H28.6168C31.6257 25.387 34.4761 26.258 37.0496 27.9605C39.0291 29.267 40.4543 30.9695 41.2461 33.0282C41.9191 34.6911 41.8795 36.3143 41.1668 37.7001C40.0584 39.7984 38.1977 40.9466 35.7431 40.9466C34.1594 40.9466 32.655 40.4714 31.8632 40.1151C31.4277 40.511 30.6358 41.1444 30.0816 41.5405C31.784 42.3322 33.526 42.7678 35.1888 42.7678C38.9894 42.7678 41.8004 40.6694 42.8693 38.5711C44.0174 36.2747 43.9382 32.3156 40.969 28.9503ZM20.8571 34.5326C20.8967 35.7204 21.8864 36.6705 23.0741 36.6705H23.1534C24.3807 36.631 25.3308 35.6016 25.2912 34.3742C25.2517 33.1864 24.2618 32.2363 23.0741 32.2363H22.995C22.9158 32.2363 22.7969 32.2363 22.7179 32.2758C21.0947 29.5836 20.4217 26.6539 20.6593 23.4866C20.8175 21.1111 21.6094 19.0523 22.995 17.3498C24.1431 15.8849 26.3601 15.1722 27.8646 15.1328C32.0611 15.0535 33.8426 20.2796 33.9615 22.378C34.4761 22.4967 35.3471 22.7739 35.941 22.9719C35.4659 16.5582 31.5068 13.2324 27.7063 13.2324C24.1431 13.2324 20.8571 15.8059 19.5506 19.6067C17.7295 24.6744 18.9172 29.5441 21.1342 33.3845C20.9363 33.6616 20.8175 34.0972 20.8571 34.5327V34.5326Z" fill="#D5D5D9"/>
</svg>
