<svg width="56" height="56" viewBox="0 0 56 56" fill="none" xmlns="http://www.w3.org/2000/svg">
<path fill-rule="evenodd" clip-rule="evenodd" d="M41.2122 35.6935C41.4636 38.943 41.4636 40.4665 41.4636 42.1297H33.9945C33.9945 41.768 34.0014 41.4361 34.0066 41.1007C34.0274 40.0559 34.0482 38.9675 33.88 36.7679C33.658 33.548 32.2811 32.8317 29.7474 32.8317H18V26.972H30.1029C33.3025 26.972 34.9014 25.9919 34.9014 23.3975C34.9014 21.1158 33.3025 19.7339 30.1029 19.7339H18V14H31.4365C38.6803 14 42.2787 17.4435 42.2787 22.945C42.2787 27.0594 39.745 29.7429 36.3252 30.1902C39.2127 30.7719 40.9018 32.4264 41.2139 35.6917L41.2122 35.6935Z" fill="#BCBCC0"/>
<path d="M18 42.1297V37.762H25.8975C27.2172 37.762 27.5034 38.7473 27.5034 39.3343V42.1297H18Z" fill="#BCBCC0"/>
</svg>
