<svg width="217" height="22" viewBox="0 0 217 22" fill="none" xmlns="http://www.w3.org/2000/svg">
<path d="M68.5047 4.64011H74.341C77.8428 4.64011 79.6288 6.65566 79.6288 9.60948C79.6288 11.9725 78.5315 13.8143 76.267 14.3588L80.1307 21.5H77.1016L73.5998 14.8337H71.2653V21.5H68.5047V4.64011ZM73.8741 12.6791C75.8527 12.6791 76.874 11.7351 76.874 9.74848C76.874 8.01094 75.9927 6.85258 73.9967 6.85258H71.3237V12.6444L73.8741 12.6791Z" fill="#1B1B1B"/>
<path d="M85.8444 16.4148V9.89327C85.8444 6.2734 88.4416 4.33894 91.8033 4.33894C95.165 4.33894 97.803 5.95485 97.803 9.70214V16.2295C97.803 19.9884 95.1067 21.7838 91.8208 21.7838C88.535 21.7838 85.8386 20.1969 85.8386 16.4148H85.8444ZM94.9666 16.3222V9.65581C94.9666 7.76189 93.7059 6.65566 91.7508 6.65566C89.7956 6.65566 88.6517 7.95302 88.6517 9.87011V16.3222C88.6517 18.2335 89.819 19.444 91.8442 19.444C92.2641 19.4746 92.6858 19.4146 93.0802 19.2682C93.4746 19.1218 93.8324 18.8925 94.1291 18.5959C94.4257 18.2993 94.6542 17.9425 94.7987 17.5501C94.9433 17.1576 95.0006 16.7387 94.9666 16.3222Z" fill="#1B1B1B"/>
<path d="M103.931 16.4148V9.89327C103.931 6.2734 106.528 4.33894 109.89 4.33894C113.252 4.33894 115.896 5.95485 115.896 9.70214V16.2295C115.896 19.9884 113.205 21.7838 109.919 21.7838C106.633 21.7838 103.937 20.1969 103.937 16.4148H103.931ZM113.065 16.3222V9.65581C113.065 7.76189 111.799 6.65566 109.849 6.65566C107.9 6.65566 106.75 7.95302 106.75 9.87011V16.3222C106.75 18.2335 107.917 19.444 109.943 19.444C110.363 19.4746 110.784 19.4146 111.179 19.2682C111.573 19.1218 111.931 18.8925 112.227 18.5959C112.524 18.2993 112.753 17.9425 112.897 17.5501C113.042 17.1576 113.099 16.7387 113.065 16.3222Z" fill="#1B1B1B"/>
<path d="M125.45 6.91629H120.804V4.64011H132.856V6.91629H128.257V21.5H125.45V6.91629Z" fill="#1B1B1B"/>
<path d="M137.163 19.8204L138.587 17.8338C139.876 18.9 141.508 19.4714 143.186 19.444C144.785 19.444 145.976 18.4999 145.976 17.1736C145.976 15.7082 144.855 15.019 143.571 14.5035L141.184 13.5537C139.042 12.7023 137.969 11.1675 137.969 9.11138C137.969 6.51086 139.97 4.3621 143.332 4.3621C145.109 4.28354 146.854 4.84973 148.24 5.95485L146.787 7.94144C145.521 7.04371 144.546 6.56878 143.186 6.56878C141.686 6.56878 140.589 7.28117 140.589 8.72333C140.589 9.88169 141.307 10.542 142.76 11.1559L144.995 12.1C147.406 13.1193 148.76 14.6078 148.76 16.6871C148.76 19.832 146.116 21.7723 142.924 21.7723C140.815 21.8672 138.748 21.1656 137.14 19.8088" fill="#1B1B1B"/>
<path d="M157.608 6.91629H152.962V4.64011H165.014V6.91629H160.415V21.5H157.608V6.91629Z" fill="#1B1B1B"/>
<path d="M170.652 4.64011H176.488C179.99 4.64011 181.776 6.65566 181.776 9.60948C181.776 11.9725 180.679 13.8143 178.414 14.3588L182.278 21.5H179.249L175.747 14.8337H173.412V21.5H170.599L170.652 4.64011ZM176.01 12.6791C177.988 12.6791 179.01 11.7351 179.01 9.74848C179.01 8.01094 178.128 6.85258 176.126 6.85258H173.459V12.6444L176.01 12.6791Z" fill="#1B1B1B"/>
<path d="M191.768 4.59378H195.1L200.108 21.5H197.295L196.034 16.9593H190.6L189.34 21.4769H186.743L191.768 4.59378ZM195.41 14.8337L193.338 7.36226H193.291L191.184 14.8337H195.41Z" fill="#1B1B1B"/>
<path d="M205.489 4.6459H211.372C214.774 4.6459 216.397 6.91629 216.397 9.74848C216.397 12.8471 214.646 15.187 211.109 15.187H208.296V21.5H205.489V4.6459ZM210.561 13.0382C212.539 13.0382 213.654 11.8799 213.654 9.84115C213.654 8.14415 212.703 6.86416 210.893 6.86416H208.296V13.0382H210.561Z" fill="#1B1B1B"/>
<path d="M52.2798 0.0761719L36.8311 15.4071C35.2958 11.3594 32.3891 7.9681 28.6095 5.81485C24.83 3.66161 20.4132 2.88067 16.1168 3.60599C11.8204 4.33132 7.91224 6.51771 5.06278 9.79008C2.21332 13.0625 0.600145 17.2169 0.5 21.5406H7.06002C7.17903 18.4764 8.46325 15.5707 10.6542 13.4084C12.8451 11.246 15.7801 9.98757 18.8685 9.88627C21.9568 9.78496 24.9691 10.8484 27.2992 12.8624C29.6292 14.8765 31.104 17.6916 31.4266 20.7413L31.3624 20.8166H31.4441C31.4441 21.0657 31.485 21.5116 31.4908 21.5116H39.7959L56.8788 4.61115L52.2798 0.0761719Z" fill="#1B1B1B"/>
</svg>
