<svg width="126" height="104" viewBox="0 0 126 104" fill="none" xmlns="http://www.w3.org/2000/svg" id="SVG 12" xmlns:xlink="http://www.w3.org/1999/xlink">
<path d="M71.1908 42.2538L21.9438 77.3608M31.605 47.682L11.7769 39.325C9.59366 38.4086 9.26714 35.4477 11.1943 34.0699L30.3757 20.3936C31.6626 19.4772 33.2696 19.0926 34.8382 19.349L53.277 22.2842M80.295 4.83324C92.4979 16.5612 102.415 30.4938 109.496 45.8747M53.5843 78.0017L54.9929 99.4966C55.1465 101.861 57.8355 103.137 59.7626 101.765L78.9441 88.0891C80.231 87.1726 81.1145 85.7755 81.3898 84.2118L84.7062 65.4406M2 71.4648L10.9761 69.3755M23.2738 100.701L27.3393 92.4276M114.657 36.7743L123.37 14.3758C125.745 8.28114 121.097 1.75702 114.567 2.00696L90.5708 2.92982C83.5026 3.19899 76.6777 5.53179 70.9219 9.63978L48.7057 25.4757C40.229 31.5192 33.9227 40.1454 30.7279 50.0597L30.587 50.4826C28.5575 56.8144 29.6267 63.7231 33.4745 69.1449C37.3223 74.5538 43.507 77.8287 50.1463 77.9697H50.5944C60.9983 78.2004 71.2036 75.0473 79.6804 69.0039L101.89 53.1679C107.652 49.0663 112.083 43.3689 114.65 36.7743H114.657Z" stroke="url(#paint0_linear_7836_10134)" stroke-width="2.20547" stroke-linecap="round" stroke-linejoin="round"></path>
<defs>
<linearGradient id="paint0_linear_7836_10134" x1="2" y1="52.1645" x2="124" y2="52.1645" gradientUnits="userSpaceOnUse">
<stop stop-color="#F6FF7A"></stop>
<stop offset="1" stop-color="#AB57FF"></stop>
</linearGradient>
</defs>
</svg>