<svg xmlns="http://www.w3.org/2000/svg" viewBox="0 0 270 199.2"><defs><style>.cls-1{fill:#fff;}.cls-2{fill:none;}</style></defs><title>RS-Logo-Main-White</title><g id="Layer_2" data-name="Layer 2"><g id="Layer_1-2" data-name="Layer 1"><path class="cls-1" d="M220.73,31.79,164.31,88.21A68.81,68.81,0,0,0,100.2,43.85c-37.4,0-67.81,30.53-68.57,66.94h24a44.63,44.63,0,0,1,89-3l-.24.29.29.1c.09.91.15,2.56.19,2.56h30.33l62.38-62.2Z"/><path class="cls-1" d="M31.63,143.31h8.15c4.89,0,7.39,2.83,7.39,7,0,3.32-1.53,5.92-4.69,6.69l5.39,10H43.64l-4.86-9.38H35.56V167H31.63Zm7.49,11.31c2.76,0,4.19-1.33,4.19-4.12,0-2.47-1.23-4.06-4-4.06H35.56v8.18Z"/><path class="cls-1" d="M55.85,159.88V150.7c0-5.09,3.63-7.82,8.32-7.82s8.39,2.26,8.39,7.55v9.18c0,5.29-3.76,7.82-8.35,7.82s-8.36-2.23-8.36-7.55m12.75-.13v-9.39c0-2.66-1.76-4.22-4.49-4.22s-4.33,1.83-4.33,4.52v9.09c0,2.69,1.6,4.39,4.46,4.39a4.1,4.1,0,0,0,4.36-4.39"/><path class="cls-1" d="M81.12,159.88V150.7c0-5.09,3.62-7.82,8.32-7.82s8.38,2.26,8.38,7.55v9.18c0,5.29-3.76,7.82-8.35,7.82s-8.35-2.23-8.35-7.55m12.74-.13v-9.39c0-2.66-1.76-4.22-4.49-4.22S85,148,85,150.66v9.09c0,2.69,1.6,4.39,4.46,4.39a4.1,4.1,0,0,0,4.36-4.39"/><polygon class="cls-1" points="111.17 146.5 104.68 146.5 104.68 143.31 121.52 143.31 121.52 146.5 115.09 146.5 115.09 167.03 111.17 167.03 111.17 146.5"/><path class="cls-1" d="M127.53,164.67l2-2.79a9.8,9.8,0,0,0,6.42,2.26c2.23,0,3.9-1.33,3.9-3.19,0-2.07-1.57-3-3.36-3.77l-3.33-1.32c-3-1.2-4.49-3.37-4.49-6.26,0-3.66,2.79-6.69,7.48-6.69a10.22,10.22,0,0,1,6.86,2.26l-2,2.8a8,8,0,0,0-5-1.93c-2.09,0-3.62,1-3.62,3,0,1.63,1,2.56,3,3.42l3.12,1.33c3.36,1.44,5.26,3.53,5.26,6.46,0,4.42-3.69,7.15-8.12,7.15a11.63,11.63,0,0,1-8.08-2.76"/><polygon class="cls-1" points="156.08 146.5 149.59 146.5 149.59 143.31 166.43 143.31 166.43 146.5 160.01 146.5 160.01 167.03 156.08 167.03 156.08 146.5"/><path class="cls-1" d="M174.31,143.31h8.15c4.89,0,7.39,2.83,7.39,7,0,3.32-1.53,5.92-4.69,6.69l5.39,10h-4.23l-4.86-9.38h-3.22V167h-3.93Zm7.49,11.31c2.76,0,4.19-1.33,4.19-4.12,0-2.47-1.23-4.06-4-4.06h-3.72v8.18Z"/><path class="cls-1" d="M203.8,143.24h4.66l7,23.79h-3.92l-1.77-6.35h-7.61L200.37,167h-3.63Zm5.09,14.41L206,147.14h-.06l-3,10.51Z"/><path class="cls-1" d="M223,143.31h8.22c4.76,0,7,3.2,7,7.19,0,4.36-2.43,7.65-7.39,7.65h-3.93V167H223Zm7.09,11.81c2.76,0,4.32-1.63,4.32-4.49,0-2.4-1.33-4.19-3.86-4.19h-3.63v8.68Z"/><rect class="cls-2" width="270" height="199.2"/></g></g></svg>