<svg width="56" height="56" viewBox="0 0 56 56" fill="none" xmlns="http://www.w3.org/2000/svg">
<path d="M21.6731 29.0158C23.4255 29.0158 24.8462 27.5952 24.8462 25.8428C24.8462 24.0903 23.4255 22.6697 21.6731 22.6697C19.9206 22.6697 18.5 24.0903 18.5 25.8428C18.5 27.5952 19.9206 29.0158 21.6731 29.0158ZM14.1731 35.362C15.9255 35.362 17.3462 33.9413 17.3462 32.1889C17.3462 30.4365 15.9255 29.0158 14.1731 29.0158C12.4206 29.0158 11 30.4365 11 32.1889C11 33.9413 12.4206 35.362 14.1731 35.362ZM42.8269 35.362C44.5794 35.362 46 33.9413 46 32.1889C46 30.4365 44.5794 29.0158 42.8269 29.0158C41.0745 29.0158 39.6538 30.4365 39.6538 32.1889C39.6538 33.9413 41.0745 35.362 42.8269 35.362Z" fill="#BCBCC0"/>
<path d="M32.4054 25.9765C32.304 24.9164 32.2523 24.034 31.4402 23.4139C30.4117 22.6285 29.2466 23.1381 27.8115 22.6201C26.4014 22.279 25.3555 21.027 25.3555 19.5347C25.3555 17.7799 26.8017 16.3574 28.5856 16.3574C29.9069 16.3574 31.0429 17.1377 31.5433 18.2554C32.3091 19.7101 31.8114 21.1904 32.7736 21.9361C33.9129 22.819 35.4489 22.1725 37.1628 23.009C37.7135 23.2621 38.1796 23.6635 38.5081 24.1609C38.8366 24.6584 39.0273 25.2519 39.0273 25.8892C39.0273 27.3815 37.9814 28.6335 36.5713 28.9747C35.1362 29.4927 33.9711 28.9831 32.9426 29.7684C31.786 30.6516 32.4052 32.1291 31.4626 33.6899C30.9276 34.7176 29.8401 35.421 28.5856 35.421C26.8017 35.421 25.3555 33.9985 25.3555 32.2438C25.3555 30.9691 26.1186 29.8697 27.22 29.3636C28.9339 28.527 30.4699 29.1736 31.6092 28.2906C32.2665 27.7813 32.4054 26.9955 32.4054 25.9765Z" fill="#969699"/>
</svg>
