<svg width="56" height="56" viewBox="0 0 56 56" fill="none" xmlns="http://www.w3.org/2000/svg">
<path d="M28.7054 37.3644L15.5049 40.5441V16.4556L28.7054 19.5389V37.3644Z" fill="#BCBCC0"/>
<path d="M28.3203 37.4608L41.1354 40.5441V16.4556L28.3203 19.5389V37.4608Z" fill="#969699"/>
<path d="M28.3203 10V19.3464L33.9089 20.6953V12.7943L28.3203 10ZM41.1354 16.4557V40.5443L43.6406 39.2917V17.612L41.1354 16.4557ZM28.3203 23.875V33.2214L33.9089 32.4505V24.5495L28.3203 23.875ZM33.9089 36.3047L28.3203 37.6536V47L33.9089 44.2057V36.3047Z" fill="#BCBCC0"/>
<path d="M28.3203 47V37.6536L22.7318 36.3047V44.2057L28.3203 47ZM15.5052 40.5443L15.5052 16.4557L13 17.7083L13 39.388L15.5052 40.5443ZM28.3203 33.125L28.3203 23.7786L22.7318 24.5495L22.7318 32.4505L28.3203 33.125ZM22.7318 20.6953L28.3203 19.3464V10L22.7318 12.7943V20.6953Z" fill="#969699"/>
<path d="M33.9085 20.6953L28.32 21.7552L22.7314 20.6953L28.32 19.25L33.9085 20.6953Z" fill="#575759"/>
<path d="M33.9085 36.3045L28.32 35.2446L22.7314 36.3045L28.32 37.8462L33.9085 36.3045Z" fill="#D5D5D9"/>
</svg>
