<svg width="56" height="56" viewBox="0 0 56 56" fill="none" xmlns="http://www.w3.org/2000/svg">
<path d="M34.7743 18L34.6537 18.6286C34.4672 19.8198 34.5347 20.1606 35.046 20.6027L35.5395 21.011L35.0283 23.2905C34.7228 24.6506 34.3483 25.7903 34.1103 26.1649C33.9062 26.488 33.6683 26.9639 33.6168 27.2195C33.5316 27.5249 33.2423 27.832 32.8002 28.1036C32.4095 28.3255 31.6427 28.9203 31.0993 29.3977C30.6653 29.7884 30.3663 30.0279 30.2039 30.1308L29.6734 30.5504C29.503 30.8237 29.4066 31.0439 29.3696 31.2111C29.3326 31.3831 29.3535 31.4972 29.4082 31.5808C29.4612 31.6612 29.5529 31.7175 29.6782 31.7528C29.8267 31.7876 29.9795 31.8001 30.1316 31.7898C30.4757 31.7663 30.8163 31.7059 31.1476 31.6098C31.2601 31.5792 31.3485 31.5503 31.4257 31.5246C31.5446 31.3783 31.8195 31.1018 32.3066 30.6211C33.5991 29.3463 34.0927 28.6486 33.5831 28.8367C33.395 28.9042 33.4802 28.7338 33.8033 28.393C34.4849 27.7291 34.8756 26.7259 35.6922 23.5799C36.3384 21.0962 36.3384 21.0608 36.8143 21.0608C37.0377 21.0608 37.6695 21.0994 37.6695 21.0994V18H36.2195H34.7743ZM40.9458 23.088C40.8429 23.088 40.6725 23.2423 40.5712 23.4127C40.3847 23.7182 40.605 23.9046 43.4118 25.6569C45.0789 26.7131 46.4228 27.6133 46.389 27.6824C46.3553 27.7323 44.9937 28.6181 43.362 29.6389C40.4008 31.4747 40.3847 31.4924 40.6564 31.867C40.9972 32.3091 40.6564 32.4618 44.5001 30.0633L47.2909 28.2773V26.9333L44.177 25.0107C42.4939 23.9561 41.031 23.1057 40.9458 23.088ZM15.0879 23.2761C15.0027 23.2761 13.5398 24.1442 11.8566 25.1811L8.70898 27.1037V28.4477L11.8389 30.4041C13.5751 31.4747 15.038 32.3605 15.1055 32.3605C15.1731 32.3605 15.3097 32.2062 15.4463 32.0197C15.6505 31.6966 15.4785 31.5599 12.6041 29.7401C9.86644 28.0216 9.57708 27.7837 9.85037 27.5972C10.0208 27.4783 11.3133 26.6777 12.7086 25.8112C15.89 23.8548 15.7196 23.9898 15.464 23.5815C15.3628 23.4127 15.1907 23.26 15.0895 23.2761H15.0879ZM29.0481 23.313C28.5787 23.3098 27.5691 24.0252 24.5469 26.4928C24.4166 26.8031 24.4054 27.0169 24.4649 27.1552C24.5034 27.25 24.5742 27.3159 24.6722 27.3641C24.7687 27.4124 24.8941 27.4413 25.0323 27.4526C25.3072 27.4767 25.632 27.4333 25.894 27.3818L26.0708 27.3416C26.1314 27.2605 26.2108 27.1953 26.3023 27.1519C26.4888 27.0491 27.2717 26.3353 28.0546 25.5701C29.4323 24.1747 29.7554 23.5445 29.1944 23.3404C29.1483 23.3221 29.0976 23.3128 29.0481 23.313ZM32.5783 24.2824C32.1652 24.2937 31.4209 24.7727 30.1461 25.7903C29.5062 26.3096 29.1011 26.5893 28.8841 26.6472L28.0417 27.3127C27.725 27.8914 27.6784 28.2499 27.762 28.4477C27.7829 28.4964 27.8133 28.5406 27.8514 28.5776C27.8895 28.6145 27.9345 28.6436 27.9839 28.6631C28.1067 28.7116 28.2376 28.7361 28.3697 28.7354C28.6852 28.732 28.9988 28.6861 29.3021 28.5988C29.4601 28.5564 29.6162 28.507 29.7699 28.4509L29.8165 28.4316L29.9017 28.3866C30.0625 28.1792 30.4322 27.7885 30.8952 27.3384C32.3581 25.927 33.1056 24.9238 32.9529 24.5493C32.8838 24.3676 32.7648 24.276 32.5783 24.2824ZM28.6815 26.0186C28.5626 26.0315 28.2957 26.2372 27.8151 26.6584C27.1206 27.2725 26.3634 27.6262 26.1014 27.4686C26.0405 27.4824 25.9794 27.4953 25.9181 27.5072C25.6513 27.5603 25.3185 27.6037 25.0211 27.5796C24.881 27.5711 24.7436 27.5367 24.616 27.4783C24.4956 27.4232 24.3995 27.326 24.3459 27.205C24.2864 27.0603 24.2864 26.8803 24.3539 26.6504L23.309 27.5088L20.9443 29.4653V32.637L28.6928 26.533C28.6913 26.4662 28.7 26.3995 28.7185 26.3353C28.778 26.1199 28.7748 26.0106 28.6815 26.0202V26.0186ZM32.0157 27.0458C31.8983 27.0458 31.7022 27.2114 31.3887 27.5442C30.9627 27.9991 30.2923 28.4396 29.9371 28.5296L29.8824 28.5586C29.8241 28.5827 29.7651 28.6052 29.7056 28.6261C29.6091 28.6582 29.4837 28.6968 29.339 28.7354C29.0497 28.8142 28.6896 28.8865 28.3681 28.8785C28.2165 28.8783 28.0664 28.8488 27.926 28.7917C27.7937 28.7371 27.6876 28.6334 27.6302 28.5023C27.537 28.2789 27.5739 27.9654 27.7781 27.5201L20.9427 32.9039V34.841H23.9456L30.3148 29.8382C30.4804 29.6549 30.7296 29.4042 31.0656 29.0907C31.9658 28.2564 32.17 27.9686 32.17 27.5426C32.17 27.2114 32.133 27.0442 32.0157 27.0442V27.0458ZM33.5316 30.1806L32.9866 30.724C32.6812 31.0134 32.1362 31.3702 31.7633 31.523L31.6893 31.5551L31.6845 31.5631L31.6684 31.5792C31.654 31.5905 31.6475 31.5921 31.6363 31.5969C31.4874 31.6533 31.3361 31.7031 31.1829 31.7464C30.8423 31.8456 30.492 31.9075 30.138 31.9313C29.9707 31.942 29.8026 31.9274 29.6397 31.8879C29.4982 31.8567 29.3734 31.7743 29.2892 31.6564C29.212 31.5374 29.1895 31.3783 29.2329 31.1821C29.2675 31.0425 29.3188 30.9076 29.3857 30.7803L24.2462 34.841H31.0817L31.8983 33.9054C33.0204 32.5968 33.5316 31.6612 33.5316 30.8606V30.1806Z" fill="#BCBCC0"/>
</svg>
