<svg width="56" height="56" viewBox="0 0 56 56" fill="none" xmlns="http://www.w3.org/2000/svg">
<path d="M28.11 42.2201C36.4551 42.2201 43.2201 35.4551 43.2201 27.11C43.2201 18.765 36.4551 12 28.11 12C19.765 12 13 18.765 13 27.11C13 35.4551 19.765 42.2201 28.11 42.2201Z" fill="#969699"/>
<path d="M22.1024 19.933C20.8989 19.9937 20.1141 20.2318 19.7479 20.6476C19.3816 21.0634 19.3536 21.6456 19.6636 22.3942C19.8796 22.7515 20.0667 23.0129 20.2251 23.1786C20.3834 23.3442 20.6267 23.5215 20.9548 23.7105L20.5232 23.9565L20.2251 24.8663L19.499 26.1928L18.2919 29.1631L18.0586 29.8729C18.2159 30.7963 18.354 31.3108 18.473 31.4163C18.592 31.5217 18.81 31.565 19.127 31.5462C19.445 31.9011 19.6519 32.0278 19.7479 31.9261C19.7861 31.8857 19.8464 31.8275 19.8186 31.6314C19.8061 31.5436 19.6835 31.3733 19.6929 31.2591C19.702 31.1491 19.805 31.0267 19.8391 30.7891C19.8537 30.687 19.8537 30.4901 19.8391 30.1986L21.752 28.2401L22.8522 28.4722L24.3063 28.7304L24.6727 28.8293C25.5991 27.0776 26.1234 26.0597 26.2456 25.7758C26.3678 25.4918 26.4423 25.1886 26.4692 24.8663L25.9963 24.4315C27.1283 23.9967 27.7715 23.6791 27.9258 23.4789C28.1573 23.1786 28.5753 22.2723 28.5753 21.9292C28.5753 21.7004 28.6091 20.9068 28.6769 19.5482C28.0148 19.6313 27.6284 19.6313 27.5178 19.5482C27.3518 19.4236 27.196 18.9263 27.196 18.5081C27.196 18.2293 27.1099 17.853 26.9376 17.3791L26.4692 17.2501C26.3986 16.9017 26.3241 16.7275 26.2456 16.7275C26.1671 16.7275 26.084 16.8107 25.9963 16.9769C25.8967 17.3584 25.8469 17.5956 25.8469 17.6885C25.8469 17.8278 25.7469 18.2233 25.9963 18.5081C26.1625 18.6979 26.3579 19.0446 26.5824 19.5482C26.4425 20.0628 26.4425 20.3904 26.5824 20.5307C26.7924 20.7412 26.5824 21.0192 26.5824 21.1802C26.5824 21.2876 26.5447 21.5372 26.4692 21.9292C25.1814 22.1521 24.4439 22.2263 24.2568 22.1518C24.0697 22.0774 23.7734 22.1582 23.3677 22.3942L22.8522 22.8885C22.9409 22.5074 22.9409 22.2277 22.8522 22.0493C22.7191 21.7818 22.6451 21.6131 22.6451 21.37C22.6451 21.2693 22.5055 21.0375 22.5055 20.8701C22.5055 20.802 22.5243 20.6888 22.5621 20.5307L22.1949 20.1833C22.2812 20.1792 22.3297 20.1549 22.3404 20.1104C22.3511 20.0659 22.2718 20.0068 22.1024 19.933Z" fill="#E3E3E6"/>
<path d="M27.615 25.5081C27.2026 26.7137 26.9044 27.5056 26.7204 27.884C26.5364 28.2625 26.2073 28.7799 25.7331 29.4365C26.1251 29.8837 26.321 30.1912 26.321 30.359C26.321 30.6106 26.2777 32.0363 26.1412 32.7041C26.0502 33.1493 25.9577 35.3813 25.8638 39.4C25.8638 40.0971 25.7939 40.5283 25.6539 40.6936C25.444 40.9417 25.2002 41.6095 25.2002 41.7911C25.2002 41.9727 24.4648 42.6202 24.4648 42.6202C24.4648 42.6202 24.6696 43.0002 24.847 43.0002C25.0243 43.0002 25.8138 42.5051 26.1412 42.0926C26.4686 41.68 26.7013 41.7216 26.8917 41.5464C27.0821 41.3712 27.4272 40.8997 27.2547 40.6936C27.1396 40.5563 27.0821 40.2573 27.0821 39.7968C27.3434 39.6422 27.5415 39.5648 27.6767 39.5648C27.8794 39.5648 27.7145 38.8414 27.9779 38.0816C28.1534 37.575 28.5713 34.9367 29.2316 30.1667C29.6365 28.9748 29.9107 28.3215 30.0541 28.2069C30.1974 28.0922 30.7695 27.6068 31.7701 26.7507C33.3592 25.7675 34.2454 25.1962 34.4288 25.037C34.7038 24.7982 37.393 24.0333 37.7606 23.546C38.0058 23.2212 38.5264 22.8451 39.3224 22.4179V22.1148C39.8244 21.9425 40.1534 21.8563 40.3094 21.8563C40.5432 21.8563 40.8561 21.9996 41.0231 21.6336C41.19 21.2676 41.0809 20.86 41.3141 20.6681C41.5474 20.4762 41.9339 20.1387 42.0518 19.9383C42.1697 19.7378 42.4214 19.595 42.2956 19.4323C42.1697 19.2696 41.5055 19.3485 41.4098 19.5022C41.3141 19.6558 40.8109 19.9341 40.4652 20.2412C40.2347 20.446 39.7525 20.697 39.0185 20.9942C38.5571 20.5811 38.2538 20.4086 38.1085 20.4768C37.8905 20.5789 36.302 21.4109 35.5614 21.6336C34.8209 21.8563 32.2611 23.6504 31.5882 23.8169C30.9153 23.9835 30.3483 24.1755 30.0541 24.3976C29.7598 24.6197 29.3923 24.5297 28.9755 24.5747C28.7652 24.5974 28.427 24.9562 27.812 25.1211C27.7332 25.1966 27.6676 25.3256 27.615 25.5081Z" fill="#E3E3E6"/>
<path d="M24.6184 28.926C24.5589 29.2197 24.5942 29.5316 24.6184 29.7C24.7486 30.6084 23.8647 30.84 23.8647 30.84L24.3308 31.2419C25.2676 31.0707 25.2676 29.878 25.2676 29.878C25.2236 29.7129 25.1801 29.173 25.2026 29.0238C25.2047 29.0259 25.7514 28.3781 26.2226 27.3758C26.4646 26.861 26.6933 26.2165 26.8495 25.7918C27.0004 25.3813 27.0293 25.1168 27.0062 25.0423C27.0062 25.0678 26.7249 24.949 26.4585 24.8777C26.4493 25.0425 26.3633 25.3531 26.2398 25.6673C26.1143 25.9867 25.8706 26.3581 25.6684 26.7743C25.1904 27.758 24.5927 28.869 24.6184 28.926Z" fill="#E3E3E6"/>
</svg>
