<svg width="56" height="56" viewBox="0 0 56 56" fill="none" xmlns="http://www.w3.org/2000/svg">
<g clip-path="url(#clip0_6044_28061)">
<path fill-rule="evenodd" clip-rule="evenodd" d="M40.6328 26.1941L37.2568 28.1196L40.6328 30.0288C40.8346 30.1443 41.0116 30.2981 41.1534 30.4813C41.2953 30.6644 41.3993 30.8735 41.4595 31.0965C41.5198 31.3195 41.5351 31.552 41.5045 31.7808C41.474 32.0097 41.3982 32.2303 41.2815 32.4301C41.1648 32.63 41.0095 32.8051 40.8244 32.9455C40.6394 33.0859 40.4282 33.1889 40.2029 33.2485C39.9777 33.3082 39.7427 33.3233 39.5116 33.2931C39.2804 33.2628 39.0575 33.1878 38.8556 33.0723L32.8068 29.623C32.5296 29.4643 32.3008 29.2344 32.1446 28.9576C31.9884 28.6809 31.9106 28.3675 31.9193 28.0506C31.924 27.9133 31.9454 27.777 31.9828 27.6448C32.1067 27.2012 32.401 26.8232 32.8027 26.5917L38.8515 23.1546C39.0543 23.0387 39.2782 22.9634 39.5104 22.9331C39.7426 22.9029 39.9785 22.9183 40.2047 22.9784C40.4308 23.0385 40.6428 23.1422 40.8285 23.2835C41.0141 23.4248 41.1698 23.601 41.2866 23.8019C41.4039 24.0011 41.4801 24.2213 41.5107 24.4499C41.5413 24.6784 41.5257 24.9107 41.4649 25.1333C41.404 25.3558 41.2992 25.5642 41.1563 25.7463C41.0135 25.9284 40.8355 26.0806 40.6328 26.1941ZM37.4372 35.5274L31.3905 32.0842C31.1199 31.9305 30.8135 31.8496 30.5016 31.8494C30.1897 31.8493 29.8831 31.93 29.6125 32.0834C29.3418 32.2369 29.1164 32.4578 28.9587 32.7241C28.801 32.9905 28.7165 33.2931 28.7135 33.6019V40.4801C28.7292 40.9371 28.9236 41.3702 29.2557 41.688C29.5879 42.0058 30.0318 42.1835 30.4937 42.1835C30.9557 42.1835 31.3995 42.0058 31.7317 41.688C32.0638 41.3702 32.2582 40.9371 32.2739 40.4801V36.625L35.658 38.5505C35.8599 38.6662 36.0828 38.7413 36.314 38.7717C36.5453 38.8021 36.7803 38.787 37.0056 38.7275C37.231 38.668 37.4423 38.5651 37.6275 38.4247C37.8127 38.2843 37.9681 38.1092 38.0849 37.9094C38.2017 37.7096 38.2777 37.4889 38.3083 37.26C38.339 37.0311 38.3238 36.7985 38.2637 36.5754C38.2035 36.3524 38.0996 36.1432 37.9578 35.9599C37.816 35.7766 37.6391 35.6227 37.4372 35.5071V35.5274ZM30.4681 28.7993L27.9469 31.2645C27.8607 31.3439 27.7489 31.3906 27.6312 31.3964H26.8913C26.7739 31.3894 26.6625 31.3428 26.5756 31.2645L24.0688 28.7912C23.9904 28.7064 23.944 28.5975 23.9376 28.4827V27.7523C23.9444 27.6371 23.9907 27.5276 24.0688 27.4419L26.5756 24.9686C26.6627 24.8908 26.7742 24.8449 26.8913 24.8387H27.6312C27.7486 24.8441 27.8603 24.8901 27.9469 24.9686L30.4599 27.4419C30.5374 27.5278 30.583 27.6373 30.589 27.7523V28.4827C30.5833 28.5972 30.5377 28.7063 30.4599 28.7912L30.4681 28.7993ZM28.4593 28.1135C28.4497 27.9952 28.3998 27.8836 28.3179 27.797L27.5903 27.0848C27.5031 27.0071 27.3917 26.9613 27.2746 26.9549H27.2479C27.1314 26.961 27.0205 27.0069 26.9343 27.0848L26.2067 27.797C26.1286 27.8841 26.083 27.9951 26.0775 28.1114V28.1378C26.0827 28.2524 26.1284 28.3616 26.2067 28.4462L26.9384 29.1564C27.0248 29.234 27.1356 29.2798 27.252 29.2862H27.2787C27.3958 29.2798 27.5072 29.234 27.5944 29.1564L28.322 28.4401C28.4006 28.3554 28.4476 28.2466 28.4552 28.1317L28.4593 28.1135ZM17.0853 20.7118L23.1341 24.1448C23.405 24.2984 23.7117 24.3792 24.0238 24.3792C24.336 24.3792 24.6427 24.2984 24.9135 24.1448C25.1843 23.9911 25.4099 23.77 25.5677 23.5035C25.7255 23.2369 25.8101 22.9341 25.8131 22.6251V15.7529C25.7975 15.2959 25.603 14.8628 25.2709 14.545C24.9388 14.2272 24.4949 14.0495 24.0329 14.0495C23.571 14.0495 23.1271 14.2272 22.795 14.545C22.4628 14.8628 22.2684 15.2959 22.2527 15.7529V19.608L18.8645 17.6805C18.6626 17.5648 18.4397 17.4897 18.2085 17.4593C17.9773 17.4289 17.7423 17.444 17.5169 17.5035C17.2916 17.563 17.0803 17.6659 16.8951 17.8063C16.7099 17.9467 16.5544 18.1218 16.4376 18.3216C16.3208 18.5215 16.2449 18.7421 16.2142 18.971C16.1835 19.1999 16.1987 19.4325 16.2588 19.6556C16.319 19.8786 16.4229 20.0878 16.5647 20.2711C16.7066 20.4544 16.8835 20.6083 17.0853 20.7239V20.7118ZM30.3595 24.3801C30.7166 24.4081 31.074 24.3282 31.3843 24.1509L37.4311 20.7016C37.6329 20.586 37.8098 20.4321 37.9516 20.2488C38.0934 20.0655 38.1974 19.8563 38.2575 19.6332C38.3177 19.4102 38.3329 19.1775 38.3022 18.9487C38.2715 18.7198 38.1956 18.4991 38.0788 18.2993C37.962 18.0995 37.8065 17.9244 37.6213 17.784C37.4361 17.6436 37.2248 17.5407 36.9995 17.4812C36.5443 17.3609 36.0596 17.4246 35.6519 17.6581L32.2678 19.6019V15.7468C32.2521 15.2898 32.0577 14.8567 31.7255 14.5389C31.3934 14.2211 30.9495 14.0435 30.4876 14.0435C30.0256 14.0435 29.5817 14.2211 29.2496 14.5389C28.9174 14.8567 28.723 15.2898 28.7074 15.7468V22.6251C28.7068 23.0704 28.8771 23.4993 29.1838 23.8251C29.4904 24.1509 29.9107 24.3493 30.3595 24.3801ZM24.1672 31.8549C23.8099 31.8262 23.4524 31.9062 23.1423 32.0842L17.0853 35.5193C16.6776 35.7528 16.3803 36.1371 16.2588 36.5876C16.1374 37.0381 16.2017 37.518 16.4376 37.9216C16.6735 38.3252 17.0618 38.6194 17.5169 38.7397C17.972 38.8599 18.4568 38.7963 18.8645 38.5627L22.2527 36.6372V40.4923C22.2684 40.9493 22.4628 41.3824 22.795 41.7002C23.1271 42.018 23.571 42.1957 24.0329 42.1957C24.4949 42.1957 24.9388 42.018 25.2709 41.7002C25.603 41.3824 25.7975 40.9493 25.8131 40.4923V33.6019C25.8122 33.1588 25.642 32.7325 25.3367 32.4084C25.0314 32.0844 24.6136 31.8867 24.1672 31.8549ZM22.5274 28.6349C22.6442 28.2548 22.6266 27.8467 22.4775 27.4779C22.3285 27.109 22.0569 26.8015 21.7075 26.6059L15.6649 23.1587C15.2568 22.9273 14.7728 22.8651 14.3185 22.9856C13.8643 23.1061 13.4766 23.3995 13.24 23.8019C13.1229 24.001 13.0469 24.2212 13.0163 24.4496C12.9857 24.678 13.0011 24.9101 13.0617 25.1326C13.1223 25.3551 13.2269 25.5634 13.3694 25.7456C13.5119 25.9278 13.6895 26.0802 13.8918 26.1941L17.2678 28.1196L13.8918 30.0288C13.69 30.1441 13.513 30.2975 13.371 30.4805C13.2291 30.6634 13.1249 30.8723 13.0645 31.095C13.004 31.3178 12.9885 31.5502 13.0188 31.779C13.0491 32.0077 13.1246 32.2283 13.241 32.4281C13.3575 32.6279 13.5125 32.8031 13.6973 32.9436C13.8821 33.0842 14.0931 33.1873 14.3182 33.2471C14.5432 33.3069 14.778 33.3223 15.0091 33.2923C15.2401 33.2623 15.463 33.1875 15.6649 33.0723L21.7075 29.623C22.0966 29.408 22.3889 29.0549 22.5253 28.6349H22.5274ZM41.6207 17.228H41.3481V17.5587H41.6187C41.7437 17.5587 41.8237 17.5019 41.8237 17.3964C41.8237 17.2909 41.7499 17.228 41.6187 17.228H41.6207ZM41.0181 16.9236H41.633C41.9651 16.9236 42.1865 17.1042 42.1865 17.3842C42.1875 17.4622 42.1676 17.539 42.1287 17.6067C42.0897 17.6745 42.0333 17.7308 41.9651 17.7697L42.2049 18.1106V18.1796H41.8585L41.6187 17.8549H41.3481V18.1796H41.0161L41.0181 16.9236ZM42.7194 17.577C42.7294 17.4234 42.707 17.2694 42.6537 17.1248C42.6004 16.9802 42.5174 16.8481 42.4099 16.7369C42.3024 16.6257 42.1727 16.5378 42.0291 16.4788C41.8855 16.4198 41.7311 16.391 41.5756 16.3941C40.8972 16.3941 40.4462 16.879 40.4462 17.577C40.4462 18.2425 40.8972 18.7578 41.5756 18.7578C41.7312 18.7615 41.8858 18.7332 42.0296 18.6745C42.1735 18.6158 42.3034 18.5282 42.4112 18.4171C42.5189 18.3061 42.6022 18.174 42.6556 18.0294C42.709 17.8847 42.7314 17.7307 42.7214 17.577H42.7194ZM43.0023 17.577C43.0023 18.3663 42.4693 19.0257 41.5674 19.0257C40.6655 19.0257 40.1552 18.3602 40.1552 17.577C40.1552 16.7938 40.6819 16.1283 41.5674 16.1283C42.4529 16.1283 43.0002 16.7857 43.0002 17.577H43.0023Z" fill="#BCBCC0"/>
</g>
<defs>
<clipPath id="clip0_6044_28061">
<rect width="30" height="28.2353" fill="white" transform="translate(13 14)"/>
</clipPath>
</defs>
</svg>
