<svg width="57" height="56" viewBox="0 0 57 56" fill="none" xmlns="http://www.w3.org/2000/svg">
<path fill-rule="evenodd" clip-rule="evenodd" d="M28.6899 14.5C21.5102 14.5 15.6899 20.3203 15.6899 27.5C15.6899 34.6797 21.5102 40.5 28.6899 40.5C35.8696 40.5 41.6899 34.6797 41.6899 27.5C41.6899 20.3203 35.8696 14.5 28.6899 14.5ZM13.1899 27.5C13.1899 18.9396 20.1295 12 28.6899 12C37.2504 12 44.1899 18.9396 44.1899 27.5C44.1899 36.0604 37.2504 43 28.6899 43C20.1295 43 13.1899 36.0604 13.1899 27.5Z" fill="#D5D5D9"/>
<path d="M24.8945 26.7113C28.3104 23.9206 31.6518 21.0331 35.142 18.3242C33.3113 21.1373 31.4285 23.9131 29.5978 26.7261C28.0275 26.7336 26.4574 26.7337 24.8945 26.7113ZM27.782 28.2666C29.3597 28.2666 30.9299 28.2666 32.5002 28.289C29.062 31.0647 25.7355 33.9745 22.2378 36.676C24.0685 33.8628 25.9513 31.0797 27.782 28.2666Z" fill="#D5D5D9"/>
</svg>
