<svg width="56" height="56" viewBox="0 0 56 56" fill="none" xmlns="http://www.w3.org/2000/svg">
<path d="M21.1357 19.6535C21.1357 21.2361 22.1475 22.3394 23.5497 22.3394C24.9519 22.3394 25.9637 21.2361 25.9637 19.6535C25.9637 18.0709 24.9519 16.9675 23.5497 16.9675C22.1475 16.9675 21.1357 18.0709 21.1357 19.6535ZM25.0393 19.6535C25.0393 20.7861 24.4252 21.5192 23.5504 21.5192C22.6756 21.5192 22.0615 20.7861 22.0615 19.6535C22.0615 18.5209 22.6756 17.7877 23.5504 17.7877C24.4245 17.7877 25.0393 18.5209 25.0393 19.6535Z" fill="#BCBCC0"/>
<path d="M28.5696 22.3394C29.6323 22.3394 30.2391 21.4394 30.2391 20.3573C30.2391 19.2752 29.6323 18.3752 28.5696 18.3752C28.0779 18.3752 27.7166 18.5713 27.4784 18.8545V18.4477H26.6108V23.5657H27.4784V21.8595C27.7166 22.1433 28.0779 22.3394 28.5696 22.3394ZM27.4565 20.2483C27.4565 19.5298 27.8615 19.1376 28.3962 19.1376C29.0248 19.1376 29.3649 19.6315 29.3649 20.3573C29.3649 21.0831 29.0255 21.577 28.3962 21.577C27.8615 21.577 27.4565 21.1775 27.4565 20.4736V20.2483Z" fill="#BCBCC0"/>
<path d="M32.5861 22.3393C33.3451 22.3393 33.9446 21.9398 34.2126 21.2718L33.4682 20.9887C33.3524 21.3808 33.0129 21.5982 32.5861 21.5982C32.0296 21.5982 31.6391 21.1987 31.5743 20.5453H34.2344V20.2549C34.2344 19.2093 33.6488 18.3745 32.5503 18.3745C31.4519 18.3745 30.7432 19.2386 30.7432 20.3566C30.7432 21.5337 31.5022 22.3393 32.5861 22.3393ZM32.5424 19.1083C33.0916 19.1083 33.3517 19.4712 33.359 19.8926H31.6173C31.7477 19.3775 32.0944 19.1083 32.5424 19.1083Z" fill="#BCBCC0"/>
<path d="M34.8848 22.2597H35.7523V20.0237C35.7523 19.4793 36.15 19.1889 36.5404 19.1889C37.0175 19.1889 37.2054 19.5299 37.2054 20.0018V22.2597H38.073V19.7479C38.073 18.9277 37.5959 18.376 36.8011 18.376C36.3095 18.376 35.97 18.6013 35.753 18.8552V18.4484H34.8854V22.2597H34.8848Z" fill="#BCBCC0"/>
<path d="M40.613 17.0466L38.647 22.259H39.5648L40.0055 21.0686H42.2461L42.6941 22.259H43.6265L41.6605 17.0466H40.613ZM41.1185 18.0775L41.9424 20.2557H40.3086L41.1185 18.0775Z" fill="#BCBCC0"/>
<path d="M45.1155 17.0618H44.1904V22.2742H45.1155V17.0618Z" fill="#BCBCC0"/>
<path d="M19.0161 18.9615C19.2344 18.3022 19.1596 17.5803 18.8096 16.9808C18.2835 16.0609 17.2267 15.5883 16.1944 15.811C15.7352 15.2912 15.0755 14.9954 14.3833 15.0001C13.3278 14.9974 12.3915 15.68 12.0673 16.6883C11.3896 16.8279 10.804 17.254 10.4619 17.8582C9.93186 18.7754 10.053 19.9313 10.7603 20.7183C10.542 21.3776 10.6167 22.0995 10.9668 22.699C11.4929 23.6189 12.5497 24.0915 13.5819 23.8688C14.0412 24.3886 14.7009 24.6844 15.3931 24.6797C16.4492 24.6824 17.3856 23.9991 17.7105 22.9901C18.3881 22.8506 18.9737 22.4245 19.3158 21.8203C19.8452 20.9024 19.7241 19.7472 19.0161 18.9615ZM15.3938 24.047C14.9709 24.0476 14.562 23.8987 14.2377 23.6269C14.2523 23.6189 14.2781 23.605 14.2946 23.5943L16.2136 22.481C16.3116 22.4252 16.3718 22.3201 16.3711 22.2065V19.4893L17.1824 19.9599C17.191 19.9639 17.197 19.9725 17.1983 19.9825V22.2331C17.197 23.2334 16.3903 24.0443 15.3938 24.047ZM11.514 22.382C11.3023 22.0144 11.2262 21.5843 11.299 21.1663C11.3129 21.1749 11.338 21.1902 11.3559 21.2002L13.2749 22.3135C13.3722 22.3707 13.4926 22.3707 13.5899 22.3135L15.9324 20.9549V21.8954C15.9331 21.9054 15.9284 21.9147 15.9212 21.9207L13.9816 23.046C13.1174 23.5458 12.0137 23.2487 11.514 22.382ZM11.0085 18.1746C11.2196 17.807 11.5518 17.5252 11.9481 17.3796C11.9481 17.3962 11.9475 17.4255 11.9475 17.4461V19.6727C11.9468 19.7857 12.007 19.8907 12.105 19.9466L14.4475 21.3052L13.6362 21.7758C13.6283 21.7811 13.6177 21.7824 13.6091 21.7784L11.6689 20.6525C10.8073 20.1506 10.5115 19.0426 11.0085 18.1746ZM17.6721 19.7319L15.3296 18.3733L16.1408 17.9034C16.1488 17.898 16.1594 17.8967 16.168 17.9007L18.1082 19.026C18.9717 19.5272 19.2682 20.6372 18.7692 21.5046C18.5581 21.8721 18.226 22.1533 17.8296 22.2995V20.0064C17.8302 19.8934 17.77 19.7884 17.6721 19.7319ZM18.4794 18.5122C18.4655 18.5036 18.4404 18.4883 18.4225 18.4783L16.5035 17.365C16.4062 17.3078 16.2858 17.3078 16.1885 17.365L13.846 18.7236V17.7831C13.8453 17.7731 13.8499 17.7638 13.8572 17.7578L15.7967 16.6338C16.661 16.1333 17.7654 16.4311 18.2637 17.2992C18.4741 17.6654 18.5502 18.0948 18.4794 18.5122ZM13.4046 20.1885L12.5933 19.7179C12.5847 19.7139 12.5788 19.7053 12.5774 19.6953V17.4447C12.5781 16.4431 13.3874 15.6308 14.3846 15.6315C14.8068 15.6315 15.2151 15.7804 15.5393 16.0516C15.5248 16.0595 15.499 16.0735 15.4824 16.0841L13.5634 17.1975C13.4655 17.2533 13.4053 17.3583 13.4059 17.4713L13.4046 20.1885ZM13.8453 19.2347L14.8889 18.6292L15.9324 19.234V20.4444L14.8889 21.0493L13.8453 20.4444V19.2347Z" fill="#BCBCC0"/>
<path d="M14.6453 34.1706C13.1677 33.7439 12.093 33.2201 11.4201 32.598C10.7471 31.9759 10.4109 31.2088 10.4109 30.2956C10.4109 29.262 10.8219 28.4079 11.6444 27.7319C12.4669 27.0559 13.5356 26.7183 14.8518 26.7183C15.7491 26.7183 16.5491 26.8924 17.2519 27.2407C17.9546 27.589 18.4992 28.0695 18.885 28.6824C19.2708 29.2952 19.464 29.9652 19.464 30.6924H17.7323C17.7323 29.8967 17.4808 29.2713 16.9786 28.816C16.4763 28.3607 15.7676 28.1334 14.8524 28.1334C14.0028 28.1334 13.3404 28.3215 12.8653 28.6977C12.3895 29.0739 12.1519 29.5956 12.1519 30.2636C12.1519 30.7994 12.3776 31.2527 12.8295 31.6222C13.2808 31.9925 14.0498 32.3308 15.1357 32.6379C16.2216 32.945 17.0706 33.2833 17.684 33.6528C18.2967 34.0224 18.7513 34.4538 19.0478 34.9463C19.3436 35.4388 19.4918 36.0184 19.4918 36.6858C19.4918 37.7492 19.0789 38.6007 18.2537 39.2408C17.4286 39.8809 16.3248 40.2006 14.9431 40.2006C14.0458 40.2006 13.2087 40.0278 12.4312 39.6821C11.6537 39.3365 11.0541 38.8639 10.6326 38.263C10.2111 37.6622 10 36.9802 10 36.2172H11.7317C11.7317 37.0101 12.0236 37.6369 12.6065 38.0962C13.1895 38.5562 13.969 38.7855 14.9438 38.7855C15.853 38.7855 16.5498 38.5994 17.0342 38.2265C17.5185 37.8543 17.7607 37.3464 17.7607 36.7037C17.7607 36.061 17.5364 35.5638 17.0878 35.2122C16.6371 34.8606 15.8239 34.5136 14.6453 34.1706Z" fill="#BCBCC0"/>
<path d="M20.9977 35.0539C20.9977 34.0988 21.1843 33.2394 21.5582 32.4763C21.9321 31.7133 22.4522 31.1244 23.1192 30.7103C23.7863 30.2955 24.5472 30.0881 25.4029 30.0881C26.725 30.0881 27.7937 30.5481 28.6102 31.4667C29.4268 32.3859 29.8351 33.6089 29.8351 35.1344V35.2513C29.8351 36.2005 29.6545 37.0526 29.2925 37.8064C28.9305 38.5608 28.4131 39.1477 27.7401 39.5684C27.0671 39.9892 26.2942 40.1992 25.4207 40.1992C24.1045 40.1992 23.0385 39.7399 22.2219 38.8207C21.4054 37.9014 20.9971 36.6851 20.9971 35.1709V35.0539H20.9977ZM22.6666 35.252C22.6666 36.3334 22.9161 37.2015 23.4157 37.8562C23.9153 38.5109 24.5836 38.8386 25.4207 38.8386C26.2638 38.8386 26.9341 38.5069 27.4304 37.8429C27.9267 37.1789 28.1748 36.249 28.1748 35.0539C28.1748 33.9845 27.922 33.1177 27.4165 32.4537C26.9109 31.7897 26.2399 31.458 25.4022 31.458C24.583 31.458 23.9219 31.7857 23.4197 32.4404C22.9174 33.0951 22.6666 34.033 22.6666 35.252Z" fill="#BCBCC0"/>
<path d="M36.6088 31.7645C36.3574 31.7226 36.0854 31.7014 35.7922 31.7014C34.7037 31.7014 33.9652 32.1673 33.5761 33.0985V40.0198H31.9165V30.269H33.5318L33.5589 31.3956C34.1035 30.5249 34.8744 30.0889 35.8736 30.0889C36.1966 30.0889 36.4421 30.1307 36.6095 30.2152V31.7645H36.6088Z" fill="#BCBCC0"/>
<path d="M43.7684 40.0199C43.6725 39.8278 43.5951 39.4855 43.5348 38.9923C42.7633 39.7972 41.8421 40.2 40.7715 40.2C39.8146 40.2 39.0291 39.9282 38.4164 39.3845C37.803 38.8408 37.4966 38.1515 37.4966 37.316C37.4966 36.301 37.881 35.5121 38.6493 34.9504C39.4176 34.3888 40.4988 34.1076 41.8924 34.1076H43.5071V33.3412C43.5071 32.7583 43.3337 32.2944 42.9869 31.9487C42.6402 31.6031 42.1287 31.4303 41.453 31.4303C40.8608 31.4303 40.3645 31.5805 39.9635 31.8809C39.5625 32.1814 39.3627 32.545 39.3627 32.9717H37.6938C37.6938 32.4851 37.8658 32.0152 38.2099 31.5612C38.554 31.1079 39.0205 30.749 39.6095 30.4845C40.1984 30.2199 40.8462 30.0876 41.5516 30.0876C42.67 30.0876 43.5461 30.3688 44.1807 30.9305C44.8146 31.4921 45.1435 32.2658 45.1673 33.2508V37.7387C45.1673 38.6341 45.2811 39.3459 45.5081 39.8743V40.0186H43.7684V40.0199ZM41.0143 38.7491C41.5344 38.7491 42.0281 38.6141 42.4946 38.3436C42.9611 38.0731 43.2993 37.7215 43.5084 37.2894V35.2887H42.2074C40.1739 35.2887 39.1569 35.887 39.1569 37.082C39.1569 37.6045 39.3302 38.0133 39.677 38.3077C40.0244 38.6022 40.4697 38.7491 41.0143 38.7491Z" fill="#BCBCC0"/>
</svg>
