<svg width="56" height="56" viewBox="0 0 56 56" fill="none" xmlns="http://www.w3.org/2000/svg">
<path d="M26.6084 12.9999C26.0582 13.0154 25.5186 13.277 25.0642 13.7817C24.8124 14.0646 24.6002 14.3775 24.4239 14.7156C23.9695 15.5729 23.8785 16.5417 23.707 17.4804C23.3893 19.2416 23.0764 21.0018 22.7683 22.763C22.7334 22.9703 22.6472 23.0555 22.4554 23.1108C20.1701 23.8325 17.8838 24.5484 15.6131 25.2904C15.1132 25.4522 14.6143 25.6634 14.1755 25.9414C12.8279 26.7988 12.6264 28.2073 13.6359 29.4435C14.0854 29.9889 14.6598 30.3667 15.2963 30.6496C16.7194 31.2851 18.1425 31.9109 19.5598 32.5522C19.585 32.5619 19.6053 32.5677 19.6257 32.5774H19.6208L21.3113 33.2691C21.3113 33.2991 21.3113 33.3243 21.3113 33.3601C21.0536 35.9835 20.8066 38.6078 20.5595 41.2361C20.5092 41.7757 20.544 42.3056 20.7358 42.8258C21.1447 43.9457 22.1086 44.3041 23.1626 43.7287C23.6421 43.4661 24.0257 43.0883 24.3735 42.6737C26.1444 40.5744 27.9201 38.4809 29.6861 36.3768C29.8276 36.2053 29.9487 36.185 30.155 36.2509C30.6045 36.402 31.053 36.5483 31.5025 36.7004H31.5074C31.5326 36.7159 31.5626 36.7256 31.5984 36.7411L31.7854 36.7963C33.3945 37.331 35.2468 37.7951 36.8559 38.3298C37.3751 38.5013 37.6628 38.542 38.2082 38.4558C38.6122 38.3947 38.9755 38.3753 39.2777 38.1525C40.0547 37.7234 40.5642 36.9164 40.5545 35.9777C40.5497 35.4274 40.353 34.9285 40.1002 34.449C39.0404 32.4359 37.9864 30.4277 36.9217 28.4195C36.821 28.2277 36.8258 28.1066 36.9721 27.9351C38.7536 25.8513 40.5294 23.7569 42.3099 21.6634C42.6577 21.2498 42.9706 20.8158 43.1527 20.2965C43.5509 19.166 43.0365 18.268 41.8614 18.051C41.3315 17.9599 40.787 17.9899 40.2668 18.1372C37.7142 18.8134 35.1654 19.4847 32.6224 20.1658C32.3957 20.2268 32.2843 20.1861 32.1632 19.9788C31.1334 18.2428 30.0891 16.5126 29.0351 14.7921C28.7978 14.3939 28.5159 14.0248 28.1923 13.6926C27.7128 13.2179 27.1577 12.9854 26.6084 12.9999ZM26.8303 17.7836C26.931 17.8543 27.0172 17.9454 27.0724 18.0558C28.1972 19.9226 29.3229 21.7894 30.4427 23.661C30.5338 23.8121 30.619 23.8625 30.8012 23.8121C32.7735 23.2871 34.742 22.763 36.7144 22.2428C37.1891 22.1168 37.6628 21.9957 38.1424 21.8698C38.122 21.9657 38.0765 22.0568 38.0116 22.1275C36.387 24.0398 34.7624 25.9521 33.1329 27.8596C32.9915 28.031 32.977 28.1473 33.0777 28.3391C34.2887 30.6699 35.363 32.6123 36.3066 34.4897L31.5335 33.1732C30.837 32.9407 30.1405 32.7091 29.4449 32.4766C29.2376 32.4059 29.1223 32.4359 28.9809 32.6026C27.3718 34.5246 25.7462 36.4427 24.1274 38.3598C24.0664 38.4354 23.986 38.4964 23.8949 38.5265C23.9405 38.0421 23.9812 37.5529 24.0257 37.0637C24.2224 35.0303 24.4094 33.0017 24.6109 30.9683C24.5702 30.5595 24.762 30.449 24.1924 30.2669C22.2645 29.4997 19.8737 28.5619 17.9759 27.8043C18.0621 27.7239 18.1677 27.6629 18.2839 27.6329C20.6051 26.8966 22.9262 26.1594 25.2522 25.428C25.4139 25.3776 25.5099 25.3118 25.5244 25.1306C25.5399 24.9388 25.5903 24.747 25.6203 24.56C25.9332 22.7988 26.2461 21.0386 26.559 19.2774C26.6501 18.7775 26.7402 18.2835 26.8303 17.7836Z" fill="#BCBCC0"/>
</svg>
