<svg width="56" height="56" viewBox="0 0 56 56" fill="none" xmlns="http://www.w3.org/2000/svg">
<path d="M31.0233 13.9873V19.9753L41.394 25.9633V19.9753L31.0233 13.9873ZM10.2812 19.9753V25.9633L15.4666 28.9567V22.9693L10.2812 19.9753ZM25.8373 22.9693L20.652 25.9633V43.9261L25.8373 46.9201V34.9447L31.0233 37.9387V31.9507L25.8373 28.9567V22.9693Z" fill="#969699"/>
<path d="M31.0235 13.9873L15.4668 22.9693V28.9567L25.8375 22.9693V28.9567L31.0235 25.9633V13.9873ZM46.5802 16.9813L41.3942 19.9753V25.9633L46.5802 22.9693V16.9813ZM36.2088 28.9567L31.0235 31.9507V37.9387L36.2088 34.9447V28.9567ZM31.0235 37.9387L25.8375 34.9447V46.9201L31.0235 43.9261V37.9387Z" fill="#BCBCC0"/>
<path d="M31.0233 8L10.2812 19.9754L15.4666 22.9694L31.0233 13.9874L41.394 19.9754L46.58 16.9814L31.0233 8ZM31.0233 25.9634L25.8373 28.9568L31.0233 31.9508L36.2086 28.9568L31.0233 25.9634Z" fill="#D5D5D9"/>
</svg>
