<svg width="71" height="24" viewBox="0 0 71 24" fill="none" xmlns="http://www.w3.org/2000/svg">
<path fill-rule="evenodd" clip-rule="evenodd" d="M7.55851 1.6828L5.49061 1.67345H2.28573C2.06334 1.67345 0.344587 1.6906 0.344587 1.6906L0.313847 4.54489L0 4.55385L0.018975 1.34609L0.00759 0.0280591C1.09979 0.0826197 5.0466 0.118475 9.14179 0.118475C13.917 0.118475 16.9933 0.0689804 18.2008 0.0319572L18.1864 1.49223L18.2119 4.73702L17.8862 4.73352C17.8885 4.46851 17.8331 3.39171 17.8361 3.28649C17.8377 3.24713 17.7678 1.80089 17.758 1.69255L16.3872 1.67306L12.2791 1.67228L10.705 1.67851L10.7072 21.6956C10.7072 21.7229 10.7368 23.0078 10.7421 23.2743C10.9004 23.2981 12.423 23.4061 12.6981 23.4061L12.8055 23.4045V23.9501C12.7239 23.9501 12.6222 23.9591 12.5372 23.9583C11.6723 23.9486 10.2761 23.8418 9.28372 23.8418C8.30727 23.8418 6.93006 23.9408 5.9111 23.9567C5.88416 23.9575 5.67543 23.9528 5.59687 23.9486L5.5946 23.3679C5.60446 23.3679 5.66746 23.3663 5.76272 23.3632C6.19307 23.3449 7.25264 23.272 7.52929 23.2482L7.5718 23.2412L7.55851 1.6828ZM26.0076 23.9735C25.206 23.9735 23.8433 23.8363 22.8228 23.8363C21.8133 23.8363 20.4433 23.9735 19.4574 23.9735C19.3735 23.9735 19.2255 23.9544 19.1443 23.9544V23.3858C19.339 23.3811 20.2111 23.2997 20.4528 23.2814C20.737 23.2599 20.9997 23.2455 21.1166 23.2061L21.1226 21.4594C21.1332 17.7867 21.1541 7.40542 21.1211 2.70815C21.1173 2.21243 21.1143 0.955978 21.1143 0.774369C20.9295 0.755663 20.6714 0.730331 20.4862 0.704999C20.2551 0.692138 19.3025 0.598997 19.1401 0.589254L19.134 0.0206556C20.079 0.0206556 21.4816 0.119643 22.6201 0.119643C23.7078 0.119643 25.1833 0.0206556 26.3009 0.0206556L26.2986 0.613415C26.1214 0.625886 25.6903 0.653557 25.6759 0.655116C25.3503 0.687073 24.4391 0.793077 24.2152 0.809446V2.63683C24.2144 6.84306 24.2102 17.8471 24.2083 21.5526V22.7537C24.2083 23.037 24.2099 23.2065 24.2125 23.2171C24.2182 23.2385 24.7894 23.2931 24.921 23.3016C25.173 23.332 26.2098 23.3784 26.2413 23.3862H26.3112L26.3104 23.9548C26.2425 23.9544 26.077 23.9735 26.0076 23.9735ZM33.2025 7.99779C33.2025 7.99779 32.6864 10.9269 31.9418 15.0595C31.5471 17.2922 30.7304 22.8753 30.6754 23.2436C31.1464 23.316 32.0739 23.3936 32.3262 23.385C32.3843 23.385 32.4837 23.3874 32.5562 23.3874L32.5555 23.9528C32.435 23.9629 32.3142 23.968 32.1934 23.968C31.3001 23.9489 30.6564 23.8788 29.6925 23.8788C29.439 23.8788 28.0982 23.9505 27.6261 23.9673C27.4292 23.9762 27.1506 23.9544 27.0971 23.9567L27.0979 23.3963C27.1438 23.3963 27.2375 23.3765 27.2971 23.3749C27.724 23.355 28.3817 23.2872 28.9388 23.2128C28.9844 22.938 29.4659 20.1854 29.6189 19.2104C30.2105 15.9839 31.9547 5.20313 32.1729 3.74909C32.3247 2.50404 32.4695 1.25809 32.6071 0.0113016C33.0693 0.0194856 33.867 0.000779008 33.867 0.000779008C33.867 0.000779008 35.4104 4.92564 35.6613 5.64662C35.9121 6.36799 40.629 18.83 40.629 18.83C40.629 18.83 42.843 13.4609 44.816 7.69888C45.2156 6.53245 45.7397 5.01099 46.1256 3.77948C46.6903 1.97704 47.3116 0 47.3116 0H48.5256C48.5256 0 48.8265 2.20113 48.9332 3.18088C49.2429 6.03361 51.2717 17.6242 51.984 21.436C52.1612 22.3897 52.2959 23.2155 52.2959 23.2155C52.5058 23.2307 53.3255 23.3145 53.8117 23.3554C53.9134 23.3644 54.1858 23.3796 54.2481 23.3796L54.2511 23.9544C54.2511 23.9544 54.0295 23.9657 53.9088 23.9657C52.8208 23.9587 51.1263 23.8585 50.0804 23.8585C49.1503 23.8585 48.2554 23.9408 47.3252 23.9614C47.1666 23.9645 47.0072 23.9567 46.8456 23.9567V23.3889C46.9102 23.3844 46.975 23.3825 47.0399 23.3835C47.4941 23.3613 48.6987 23.2397 48.8182 23.2342C48.819 23.0257 48.7529 22.3032 48.655 21.5658C48.5875 21.0452 48.4728 20.1554 48.3495 19.2786C48.085 17.5736 46.8588 10.5099 46.4941 8.54885C46.4342 8.22734 46.397 8.0469 46.397 8.0469C46.397 8.0469 42.5989 18.0529 41.8327 20.0245C41.7587 20.2178 41.7052 20.3542 41.6874 20.399C40.9549 22.2981 40.3413 23.991 40.3413 23.991L39.2605 23.984L33.3429 8.36179L33.2025 7.99779ZM70.7799 4.70273L70.4664 4.70351L70.4634 4.53515C70.4307 4.11815 70.3624 2.93809 70.2759 1.94547C70.2679 1.85701 70.2543 1.78764 70.2543 1.78764C70.0661 1.7814 69.3017 1.75607 69.2892 1.74321C69.2774 1.73152 68.668 1.72294 68.6554 1.71632C68.6486 1.7132 66.6505 1.70073 64.5899 1.69917C63.1838 1.69761 61.7998 1.70696 60.9512 1.70696C60.7429 1.70618 59.9949 1.73619 59.9949 1.73619L59.9903 11.1553L65.8794 11.1759C65.9075 11.1759 67.4395 11.1268 67.4767 11.1276C67.5693 11.1284 68.6213 11.0657 68.6611 11.0512C68.6611 11.0512 68.6767 10.9526 68.7017 10.8805C68.7871 10.3108 68.8953 9.76906 68.9219 9.34661C68.9219 9.34661 68.9492 9.16539 68.9507 9.04302L69.2858 9.03561C69.2858 9.07965 69.3029 9.18799 69.3014 9.34193C69.2983 9.90975 69.2585 11.0883 69.26 11.8615C69.2615 12.9737 69.2904 13.9784 69.2972 14.4815C69.3017 14.6253 69.2926 14.8545 69.2926 14.8545H68.9249C68.9181 14.8011 68.9124 14.7465 68.9048 14.6885C68.8481 14.1038 68.7762 13.5209 68.6892 12.9402C68.6862 12.9067 68.6676 12.7886 68.6596 12.7134C68.3441 12.6962 68.0283 12.6835 67.7124 12.6752C67.5974 12.6705 66.1617 12.66 64.5458 12.6577C63.884 12.6569 62.695 12.6888 62.191 12.6873C61.6002 12.6873 60.6248 12.7262 59.988 12.7496L59.9949 21.2915L60.0199 22.3912L63.5956 22.4552L68.6877 22.4505C68.7109 22.4505 69.8535 22.4033 70.2103 22.4107C70.2858 22.4123 70.4387 22.3986 70.4387 22.3986C70.4721 22.1223 70.5142 21.5635 70.556 21.03C70.5598 20.9668 70.6865 19.5502 70.6865 19.1691L71 19.1652C71 19.5253 70.9332 24 70.9332 24C70.3594 24 68.5978 23.9984 66.4228 23.9657C65.1026 23.9451 63.6328 23.9466 62.1831 23.9248C61.0066 23.9072 59.8431 23.864 58.7846 23.8663C57.2761 23.8679 55.7991 23.9692 55.2253 23.97C55.094 23.97 54.8621 23.961 54.8116 23.961V23.3987H54.9175C55.2712 23.3963 56.3111 23.3332 56.8537 23.2295C56.8537 23.1161 56.8902 21.7233 56.8902 21.6944L56.8871 3.21478C56.8871 2.36052 56.8723 0.936104 56.8723 0.809835C56.5653 0.772422 56.4564 0.752937 56.3919 0.738907C56.0667 0.691751 55.4238 0.634072 55.08 0.609131C54.9938 0.610292 54.9077 0.603508 54.8227 0.588864C54.8227 0.588864 54.8211 0.0358535 54.8181 0.0280591C54.8959 0.0327358 55.0568 0.020265 55.3452 0.0222136C55.9524 0.0249416 57.0693 0.116916 58.4347 0.118475C59.2924 0.119254 60.6761 0.0763857 61.6673 0.0631353C63.081 0.0631353 64.1542 0.049106 65.5231 0.0405322C67.7579 0.0249435 69.6664 0.0085742 70.4122 0.00467702C70.6307 0.00389758 70.7503 0.0027295 70.7503 0.0027295C70.7503 0.0471573 70.7488 0.0974307 70.7488 0.154719C70.7488 0.332431 70.7408 0.644594 70.7442 1.0273C70.7518 2.21789 70.7799 4.09126 70.7799 4.70273Z" fill="#E3E3E6"/>
</svg>
