<svg width="100" height="100" viewBox="0 0 100 100" fill="none" xmlns="http://www.w3.org/2000/svg">
<path d="M26.0195 66.3327C26.0195 66.3327 32.5359 56.8875 50.1602 56.5805C67.6247 56.2736 73.2905 65.1433 73.2905 65.1433L26.0195 66.3391V66.3327Z" fill="#212121" stroke="#F4F3EF" stroke-width="1.5" stroke-linecap="round" stroke-linejoin="round"/>
<path d="M12 65.5334L87.0695 63.9795V81.9939H79.4852L73.4229 97.5207H27.3541L21.0999 83.081L12 82.7677V65.5334Z" fill="#FFC83F"/>
<path opacity="0.3" d="M22.566 86.4576L43.3749 83.2345L21.1016 83.0811L22.566 86.4576Z" fill="#212121"/>
<path d="M47.9453 79.7046C47.9453 79.7046 48.0988 81.6422 50.0045 81.8021C51.9101 81.962 52.2171 79.8645 52.2171 79.8645" stroke="#212121" stroke-width="1.5" stroke-linecap="round" stroke-linejoin="round"/>
<path d="M42.2623 67.2603C40.1072 67.9381 38.5469 69.9525 38.5469 72.3314C38.5469 75.2666 40.9258 77.6519 43.8674 77.6519C44.0657 77.6519 44.2639 77.6391 44.4557 77.62C42.1472 73.2714 42.1472 68.9293 42.2623 67.2666V67.2603Z" fill="#F4F3EF" stroke="#212121" stroke-width="1.5" stroke-linecap="round" stroke-linejoin="round"/>
<path d="M43.867 67.0107C43.3107 67.0107 42.7671 67.1003 42.2619 67.2601C42.1532 68.9228 42.1532 73.2649 44.4554 77.6135C47.1156 77.3193 49.1812 75.0683 49.1812 72.3313C49.1812 69.396 46.8023 67.0107 43.8606 67.0107H43.867Z" fill="#212121" stroke="#212121" stroke-width="1.5" stroke-linecap="round" stroke-linejoin="round"/>
<path d="M61.5678 72.427C61.5678 69.6708 59.3935 67.439 56.7141 67.439C56.2153 67.439 55.7485 67.5349 55.3008 67.682C55.0258 69.1144 54.7764 72.6252 57.1234 77.3766C59.611 77.1592 61.5678 75.0425 61.5678 72.4334V72.427Z" fill="#212121" stroke="#212121" stroke-width="1.5" stroke-linecap="round" stroke-linejoin="round"/>
<path d="M55.3012 67.6758C53.3188 68.3025 51.8672 70.1762 51.8672 72.4208C51.8672 75.177 54.0414 77.4088 56.7209 77.4088C56.8616 77.4088 56.9895 77.3769 57.1238 77.3641C54.7769 72.6127 55.0327 69.1083 55.3012 67.6694V67.6758Z" fill="#F4F3EF" stroke="#212121" stroke-width="1.5" stroke-linecap="round" stroke-linejoin="round"/>
<path d="M48.3687 60.5451L47.4414 23.3589" stroke="#F4F3EF" stroke-width="1.5" stroke-linecap="round" stroke-linejoin="round"/>
<path d="M47.4393 41.7636C47.4393 41.7636 36.9517 43.6245 30.4353 37.6516C24.6415 32.3311 26.6303 23.909 26.6303 23.909C26.6303 23.909 34.01 22.3231 39.6695 26.6269C46.8126 32.0625 47.4329 41.7636 47.4329 41.7636H47.4393Z" fill="#212121" stroke="#F4F3EF" stroke-width="1.5" stroke-linecap="round" stroke-linejoin="round"/>
<path d="M48.9126 50.8442C48.9126 50.8442 50.2939 41.0472 55.1988 36.4813C61.8751 30.2718 70.489 33.61 70.489 33.61C70.489 33.61 73.1301 41.9169 66.2939 47.7363C59.4642 53.5556 48.9062 50.8442 48.9062 50.8442H48.9126Z" fill="#212121" stroke="#F4F3EF" stroke-width="1.5" stroke-linecap="round" stroke-linejoin="round"/>
<path d="M26.6328 23.9092C26.6328 23.9092 39.2883 30.0419 47.4354 41.7637" stroke="#F4F3EF" stroke-width="1.5" stroke-linecap="round" stroke-linejoin="round"/>
<path d="M48.9102 50.8441C48.9102 50.8441 60.7087 37.645 70.4929 33.6099" stroke="#F4F3EF" stroke-width="1.5" stroke-linecap="round" stroke-linejoin="round"/>
<path d="M47.4414 23.3593C47.4414 23.3593 52.9922 25.38 58.8946 21.7286C64.7971 18.0771 63.4734 10.0835 63.4734 10.0835C63.4734 10.0835 49.5773 7.13544 47.4414 23.3593Z" fill="#F4F3EF"/>
<path d="M41.6602 7.58936L45.2861 11.81" stroke="#F4F3EF" stroke-width="1.5" stroke-linecap="round" stroke-linejoin="round"/>
<path d="M48.418 2L50.426 8.52918" stroke="#F4F3EF" stroke-width="1.5" stroke-linecap="round" stroke-linejoin="round"/>
</svg>
