<svg width="56" height="56" viewBox="0 0 56 56" fill="none" xmlns="http://www.w3.org/2000/svg">
<path d="M12.4443 12.4443H43.5554V43.5554H12.4443V12.4443Z" fill="#969699"/>
<path d="M27.3824 23.9652H28.8748V26.5416H24.8401V38.0041L24.7331 38.0333C24.5873 38.0722 22.6672 38.0722 22.254 38.0284L21.9234 37.9992V26.5416H17.8887V23.9652L19.1671 23.9506C19.8671 23.9409 21.6658 23.9409 23.163 23.9506C24.6602 23.9604 26.556 23.9652 27.3824 23.9652ZM38.772 36.7888C38.179 37.4159 37.5422 37.7659 36.4825 38.0527C36.0206 38.1791 35.9429 38.184 34.9026 38.1791C33.8623 38.1742 33.7797 38.1742 33.2741 38.043C31.9665 37.7076 30.9116 37.0513 30.1922 36.1229C29.988 35.8604 29.6526 35.3159 29.6526 35.2479C29.6526 35.2284 29.7012 35.1847 29.7644 35.1555C29.8276 35.1263 29.9588 35.0437 30.0658 34.9805C30.1727 34.9173 30.3672 34.8006 30.4984 34.7326C30.6297 34.6645 31.0088 34.4409 31.3394 34.2416C31.6699 34.0423 31.9713 33.8819 32.0054 33.8819C32.0394 33.8819 32.1026 33.9499 32.1512 34.0326C32.4429 34.5236 33.1234 35.1506 33.6047 35.3645C33.9012 35.4909 34.5574 35.6319 34.8734 35.6319C35.1651 35.6319 35.6998 35.5055 35.9866 35.3742C36.2929 35.2333 36.4484 35.0923 36.6331 34.8104C36.7595 34.6111 36.7741 34.5576 36.7693 34.1784C36.7693 33.8284 36.7498 33.7312 36.6526 33.5708C36.3804 33.1236 36.0109 32.8902 34.5137 32.2291C32.9679 31.5437 32.2727 31.1354 31.7088 30.5861C31.2908 30.1777 31.2081 30.0659 30.9456 29.5555C30.6054 28.8992 30.5616 28.6854 30.5567 27.7083C30.5519 27.0229 30.5665 26.7992 30.6394 26.5659C30.7415 26.2159 31.072 25.5402 31.2227 25.3701C31.5338 25.0055 31.6456 24.8937 31.8644 24.7138C32.5255 24.1694 33.5561 23.8097 34.5429 23.7756C34.6547 23.7756 35.0241 23.7951 35.3693 23.8194C36.3609 23.902 37.0366 24.1451 37.688 24.6652C38.179 25.0541 38.9227 25.968 38.8498 26.0895C38.8012 26.1624 36.8616 27.4555 36.7352 27.4944C36.6575 27.5187 36.604 27.4895 36.497 27.3631C35.8359 26.5708 35.5686 26.4006 34.9269 26.3617C34.4699 26.3326 34.2269 26.3861 33.9206 26.5902C33.5998 26.8041 33.4443 27.1298 33.4443 27.5819C33.4491 28.243 33.7019 28.5541 34.6352 29.0159C35.238 29.3124 35.7533 29.5555 35.7922 29.5555C35.8505 29.5555 37.0998 30.1777 37.4255 30.3722C38.9422 31.2617 39.5595 32.1756 39.72 33.7506C39.8366 34.9367 39.5012 36.0208 38.772 36.7888Z" fill="#E3E3E6"/>
</svg>
