<svg width="140" height="67" viewBox="0 0 140 67" fill="none" xmlns="http://www.w3.org/2000/svg">
<g clip-path="url(#clip0_6722_4636)">
<path d="M48.4149 26.6244C48.4072 27.4902 47.7081 28.1702 46.8118 28.1804C45.8899 28.1906 45.1498 27.4546 45.1755 26.553C45.1985 25.6998 45.936 24.9715 46.7811 24.9663C47.6569 24.9613 48.4225 25.7381 48.4149 26.6269V26.6244Z" fill="#BCBCC0"></path>
<path d="M48.4122 35.1308C48.425 35.9763 47.7156 36.6996 46.8373 36.7327C45.982 36.7658 45.1574 35.9636 45.1651 35.1078C45.1727 34.2725 45.9155 33.5288 46.7605 33.5085C47.6594 33.4881 48.3994 34.2114 48.4122 35.1308Z" fill="#BCBCC0"></path>
<path d="M18.7144 28.1804C17.7797 28.1702 17.0806 27.4495 17.1113 26.5224C17.137 25.6922 17.9078 24.9587 18.7451 24.9664C19.6338 24.974 20.379 25.7558 20.3482 26.6472C20.3201 27.5182 19.603 28.1906 18.7144 28.1804Z" fill="#BCBCC0"></path>
<path d="M46.8147 20.7107C47.7263 20.7285 48.4485 21.485 48.4049 22.3789C48.3639 23.2269 47.6136 23.9426 46.7737 23.9349C45.9158 23.9247 45.1194 23.0894 45.1655 22.2464C45.2116 21.4009 45.9696 20.6954 46.8121 20.7107H46.8147Z" fill="#BCBCC0"></path>
<path d="M18.7072 37.8096C19.5957 37.802 20.3307 38.4743 20.3564 39.3173C20.3871 40.2419 19.6905 40.9625 18.7558 40.9804C17.8185 40.9957 17.1118 40.3055 17.1118 39.3708C17.1118 38.5126 17.8237 37.8173 18.7046 37.8096H18.7072Z" fill="#BCBCC0"></path>
<path d="M15.9998 35.1025C16.0074 36.0499 15.3288 36.7477 14.4095 36.7376C13.5337 36.7299 12.8628 36.0499 12.8474 35.156C12.832 34.2214 13.5388 33.5006 14.453 33.5235C15.357 33.5464 15.9946 34.1959 16.0023 35.1025H15.9998Z" fill="#BCBCC0"></path>
<path d="M34.9912 52.7568C34.0975 52.7822 33.3959 52.143 33.3523 51.2593C33.3062 50.3374 33.9874 49.5784 34.8811 49.5478C35.7723 49.5172 36.5226 50.2507 36.5226 51.1549C36.5226 52.0615 35.8824 52.7288 34.9887 52.7542L34.9912 52.7568Z" fill="#BCBCC0"></path>
<path d="M45.1421 46.8C45.1651 47.7346 44.4865 48.4375 43.5518 48.4554C42.6017 48.4707 41.8795 47.7881 41.8873 46.8814C41.8924 46.0384 42.6171 45.3228 43.4826 45.305C44.3738 45.2871 45.1215 45.9621 45.1421 46.8Z" fill="#BCBCC0"></path>
<path d="M52.6761 35.0948C52.6915 36.0219 51.9872 36.7477 51.0807 36.7375C50.2101 36.7299 49.5391 36.0474 49.5238 35.1534C49.5059 34.2188 50.1819 33.5286 51.1242 33.5107C51.9771 33.4955 52.6633 34.1959 52.6787 35.0923L52.6761 35.0948Z" fill="#BCBCC0"></path>
<path d="M18.7427 32.4131C17.8361 32.4182 17.1242 31.7637 17.1063 30.9105C17.0884 29.9911 17.79 29.2755 18.7197 29.2653C19.6159 29.255 20.3176 29.9096 20.3508 30.7882C20.3867 31.7026 19.685 32.4106 18.7427 32.4131Z" fill="#BCBCC0"></path>
<path d="M46.7784 32.4105C45.8616 32.4054 45.1932 31.7686 45.1728 30.8798C45.1522 29.9783 45.8898 29.2499 46.8117 29.2626C47.7029 29.2754 48.3968 29.9478 48.4121 30.8161C48.4275 31.7305 47.7259 32.413 46.7784 32.4079V32.4105Z" fill="#BCBCC0"></path>
<path d="M43.5671 20.5936C42.6349 20.6139 41.9 19.9263 41.8898 19.0222C41.8796 18.1996 42.6119 17.4559 43.4672 17.428C44.3789 17.3974 45.1267 18.1079 45.1395 19.0171C45.1523 19.8754 44.4583 20.5706 43.5671 20.591V20.5936Z" fill="#BCBCC0"></path>
<path d="M22.0976 52.7567C21.2089 52.7821 20.4151 52.0359 20.4048 51.1751C20.3972 50.327 21.1885 49.5477 22.0591 49.5452C22.8735 49.5452 23.6213 50.2965 23.6392 51.1369C23.6571 51.9621 22.9221 52.7338 22.095 52.7567H22.0976Z" fill="#BCBCC0"></path>
<path d="M18.6711 45.2462C17.8183 45.236 17.0962 44.4974 17.1091 43.6519C17.1218 42.73 17.8414 42.0475 18.7787 42.0678C19.6468 42.0856 20.3536 42.8013 20.3511 43.6571C20.3484 44.5433 19.5931 45.259 18.6711 45.2462Z" fill="#BCBCC0"></path>
<path d="M48.4149 39.3788C48.4354 40.2446 47.767 40.9374 46.8682 40.9807C45.936 41.0265 45.1908 40.3415 45.178 39.4271C45.1626 38.5459 45.8156 37.8761 46.7298 37.8328C47.6748 37.7895 48.3944 38.4492 48.4175 39.3788H48.4149Z" fill="#BCBCC0"></path>
<path d="M30.6097 45.3072C31.5367 45.2971 32.2716 46.0178 32.2537 46.9194C32.2358 47.7751 31.5162 48.4755 30.648 48.478C29.7467 48.4806 28.9912 47.7369 29.0066 46.8557C29.0194 45.9949 29.7236 45.3149 30.6097 45.3072Z" fill="#BCBCC0"></path>
<path d="M30.5734 13.2002C31.5414 13.1849 32.2662 13.87 32.2483 14.7818C32.2303 15.6578 31.5184 16.3429 30.6323 16.3378C29.7284 16.3328 29.0216 15.6604 29.0113 14.792C29.0012 13.9235 29.6976 13.2129 30.576 13.2002H30.5734Z" fill="#BCBCC0"></path>
<path d="M45.1398 14.7765C45.1295 15.6373 44.4151 16.3301 43.529 16.3378C42.6097 16.3428 41.8799 15.6068 41.8978 14.6925C41.9131 13.8393 42.6352 13.1975 43.5674 13.2027C44.4637 13.2077 45.1525 13.8954 45.1423 14.7765H45.1398Z" fill="#BCBCC0"></path>
<path d="M22.0462 17.4278C22.9399 17.4354 23.6314 18.1026 23.6493 18.9762C23.6672 19.8854 22.9579 20.5934 22.0231 20.5934C21.0885 20.5934 20.3842 19.8854 20.4099 18.966C20.4329 18.1612 21.2217 17.4201 22.0462 17.4278Z" fill="#BCBCC0"></path>
<path d="M46.7812 45.2107C45.8695 45.2107 45.1986 44.5715 45.173 43.6852C45.1474 42.8142 45.9183 42.0578 46.8196 42.068C47.7184 42.0807 48.3971 42.7378 48.4124 43.619C48.4278 44.5358 47.7338 45.2133 46.7812 45.2107Z" fill="#BCBCC0"></path>
<path d="M27.9026 51.1548C27.8897 52.0895 27.2598 52.7415 26.3558 52.7568C25.4186 52.7721 24.7246 52.0589 24.7554 51.1115C24.7835 50.2329 25.5006 49.5326 26.3636 49.5453C27.2394 49.558 27.9128 50.2635 27.9026 51.1523V51.1548Z" fill="#BCBCC0"></path>
<path d="M21.9896 45.3049C22.9167 45.2897 23.6594 45.9976 23.6491 46.8941C23.6414 47.7574 22.9294 48.4731 22.0793 48.4731C21.1574 48.4731 20.4174 47.8185 20.4122 46.996C20.4045 46.0791 21.1139 45.3202 21.9896 45.3049Z" fill="#BCBCC0"></path>
<path d="M23.6467 14.7435C23.6621 15.6093 22.9656 16.3123 22.0718 16.3351C21.1678 16.3581 20.4483 15.7035 20.4124 14.8249C20.3766 13.9259 21.1192 13.1746 22.0436 13.1746C22.9195 13.1746 23.6314 13.8699 23.6467 14.7435Z" fill="#BCBCC0"></path>
<path d="M18.7656 20.7105C19.5876 20.7283 20.3508 21.4898 20.361 22.3047C20.3712 23.1452 19.5492 23.9551 18.7016 23.9348C17.8462 23.9143 17.0652 23.0816 17.1113 22.2411C17.1549 21.4236 17.9436 20.6926 18.7656 20.7105Z" fill="#BCBCC0"></path>
<path d="M27.9128 19.0424C27.9026 20.0179 27.2521 20.6393 26.2789 20.6062C25.3571 20.5756 24.7528 19.9492 24.7476 19.0195C24.7425 18.1104 25.48 17.3972 26.3891 17.4329C27.27 17.466 27.923 18.1562 27.9128 19.0424Z" fill="#BCBCC0"></path>
<path d="M30.6657 20.5731C29.7618 20.5858 29.0422 19.9441 29.0089 19.096C28.9756 18.2072 29.7004 17.4482 30.6043 17.4304C31.5287 17.41 32.2663 18.1256 32.2535 19.0297C32.2406 19.911 31.5748 20.5604 30.6657 20.5731Z" fill="#BCBCC0"></path>
<path d="M30.5991 56.9996C29.7284 56.9818 29.019 56.2789 29.019 55.4283C29.019 54.5573 29.708 53.8926 30.6093 53.8926C31.5748 53.8926 32.2764 54.5853 32.2355 55.4919C32.197 56.3731 31.498 57.0124 30.5991 56.9971V56.9996Z" fill="#BCBCC0"></path>
<path d="M18.5892 36.7322C17.7646 36.6482 17.0553 35.8307 17.1115 35.0284C17.1731 34.1651 18.036 33.4265 18.876 33.5182C19.7159 33.6099 20.4099 34.4096 20.3535 35.2195C20.2947 36.0777 19.4291 36.8163 18.5866 36.7322H18.5892Z" fill="#BCBCC0"></path>
<path d="M45.1369 51.1853C45.1241 52.0181 44.3584 52.7541 43.5082 52.749C42.6683 52.7439 41.8949 51.985 41.8975 51.1674C41.8975 50.2965 42.7016 49.5248 43.5774 49.5553C44.4096 49.5833 45.1497 50.3602 45.1395 51.1879L45.1369 51.1853Z" fill="#BCBCC0"></path>
<path d="M56.9984 35.1253C56.9984 35.9709 56.2378 36.7247 55.3978 36.7146C54.5426 36.7069 53.8025 35.9709 53.7974 35.1253C53.7922 34.2849 54.563 33.5184 55.3902 33.5362C56.2608 33.5565 56.9984 34.2875 56.9984 35.1253Z" fill="#BCBCC0"></path>
<path d="M11.7336 22.3179C11.7131 23.171 10.9576 23.9248 10.1356 23.9095C9.24701 23.8943 8.53512 23.1761 8.55816 22.3153C8.58121 21.429 9.2931 20.7108 10.1407 20.7236C11.0037 20.7363 11.7515 21.485 11.7336 22.3153V22.3179Z" fill="#BCBCC0"></path>
<path d="M40.8554 46.8915C40.8708 47.7397 40.1691 48.4502 39.2882 48.4782C38.3817 48.5062 37.639 47.7956 37.6314 46.8941C37.6237 46.0282 38.3023 45.3355 39.1858 45.3049C40.0949 45.2743 40.8375 45.9824 40.8554 46.889V46.8915Z" fill="#BCBCC0"></path>
<path d="M36.5253 46.8712C36.5305 47.7856 35.8032 48.5013 34.8735 48.4936C34.0311 48.4885 33.3781 47.8314 33.3525 46.9604C33.3243 45.9748 33.9696 45.2948 34.9248 45.305C35.8211 45.3152 36.5202 45.9952 36.5253 46.8687V46.8712Z" fill="#BCBCC0"></path>
<path d="M40.8323 14.7536C40.84 15.6297 40.146 16.3275 39.26 16.3352C38.3611 16.3428 37.6569 15.6781 37.639 14.8045C37.621 13.9361 38.3176 13.1823 39.1601 13.1568C40.0641 13.1288 40.8246 13.8546 40.8323 14.7536Z" fill="#BCBCC0"></path>
<path d="M45.1219 10.5591C45.1064 11.3562 44.2589 12.1228 43.4471 12.0795C42.6173 12.0337 41.8722 11.2289 41.9106 10.4165C41.9515 9.58878 42.7301 8.88584 43.5904 8.90112C44.41 8.91385 45.1398 9.70333 45.1219 10.5591Z" fill="#BCBCC0"></path>
<path d="M52.6733 22.3281C52.6656 23.2144 51.9819 23.9071 51.1035 23.9173C50.1816 23.9301 49.4928 23.2016 49.5261 22.2542C49.5568 21.345 50.2329 20.7033 51.1317 20.7262C52.028 20.7491 52.681 21.4266 52.6733 22.3281Z" fill="#BCBCC0"></path>
<path d="M39.1727 20.6086C38.3148 20.5881 37.6157 19.8522 37.6311 18.9837C37.6439 18.1102 38.3456 17.4327 39.2393 17.4302C40.0869 17.4277 40.8373 18.1688 40.8373 19.0066C40.8373 19.926 40.1048 20.6315 39.1727 20.6086Z" fill="#BCBCC0"></path>
<path d="M34.8884 17.4278C35.8231 17.4151 36.5325 18.113 36.5298 19.045C36.5273 19.9059 35.8077 20.6062 34.9294 20.6062C33.9946 20.6062 33.3826 19.995 33.3698 19.045C33.357 18.1256 34.0024 17.438 34.8884 17.4253V17.4278Z" fill="#BCBCC0"></path>
<path d="M52.671 39.3635C52.6735 40.2727 52.0308 40.9526 51.1422 40.9756C50.1973 41.001 49.5084 40.3185 49.5212 39.3685C49.534 38.4339 50.164 37.8073 51.0859 37.815C52.0129 37.8226 52.6659 38.4619 52.6684 39.3635H52.671Z" fill="#BCBCC0"></path>
<path d="M30.5915 49.5529C31.4186 49.5275 32.1919 50.2558 32.2355 51.0988C32.279 51.9724 31.521 52.7517 30.6171 52.7618C29.8027 52.7721 29.0242 51.9953 29.0191 51.1702C29.0115 50.35 29.7617 49.5809 30.594 49.5529H30.5915Z" fill="#BCBCC0"></path>
<path d="M57.0014 39.3761C57.0244 40.2191 56.3202 40.9245 55.4239 40.9576C54.5353 40.9907 53.8414 40.3388 53.8004 39.432C53.7619 38.5712 54.4534 37.8735 55.3675 37.8582C56.2766 37.8429 56.9784 38.4948 57.0039 39.3786L57.0014 39.3761Z" fill="#BCBCC0"></path>
<path d="M22.0157 57.005C21.1809 56.9998 20.3998 56.2231 20.4254 55.4184C20.4536 54.5321 21.1424 53.8928 22.0592 53.9005C22.9658 53.9081 23.6598 54.6008 23.6291 55.4642C23.5957 56.3683 22.9222 57.0126 22.0157 57.0075V57.005Z" fill="#BCBCC0"></path>
<path d="M56.9985 30.9131C56.9806 31.7714 56.2559 32.4107 55.3263 32.3902C54.4429 32.3699 53.7642 31.6594 53.7949 30.7833C53.8257 29.9097 54.5479 29.2476 55.4441 29.2781C56.2764 29.3061 57.0164 30.0829 57.001 30.9131H56.9985Z" fill="#BCBCC0"></path>
<path d="M55.3728 42.0909C56.228 42.0985 57.0066 42.837 57.0066 43.6444C57.0066 44.5739 56.3023 45.2132 55.3113 45.1852C54.4509 45.1622 53.7901 44.4975 53.8004 43.6673C53.8132 42.7531 54.479 42.0832 55.3728 42.0909Z" fill="#BCBCC0"></path>
<path d="M14.4044 32.4031C13.4671 32.3929 12.8448 31.7741 12.8423 30.847C12.8423 29.9328 13.5645 29.2426 14.5043 29.2654C15.3749 29.2859 16.0203 29.9939 15.9997 30.9005C15.9767 31.8479 15.3775 32.4133 14.4044 32.4031Z" fill="#BCBCC0"></path>
<path d="M16.0002 22.3941C15.972 23.265 15.2473 23.9477 14.3817 23.9196C13.5367 23.8916 12.835 23.1428 12.8478 22.2845C12.8606 21.4085 13.5675 20.7183 14.4458 20.7234C15.3856 20.7285 16.0335 21.4237 16.0002 22.3941Z" fill="#BCBCC0"></path>
<path d="M11.7335 30.885C11.7053 31.7637 11.0011 32.4131 10.0997 32.3901C9.14196 32.3647 8.5299 31.7382 8.55806 30.8163C8.58367 29.9503 9.32114 29.2525 10.1841 29.278C11.0728 29.3034 11.7642 30.0191 11.7361 30.885H11.7335Z" fill="#BCBCC0"></path>
<path d="M30.64 12.0848C29.8282 12.0848 29.0369 11.3079 29.0241 10.498C29.0113 9.68308 29.7821 8.92163 30.6245 8.91653C31.4927 8.91144 32.2276 9.62965 32.2251 10.4854C32.2251 11.3284 31.4722 12.0848 30.64 12.0873V12.0848Z" fill="#BCBCC0"></path>
<path d="M40.8039 10.4674C40.8142 11.3257 40.1023 12.0591 39.2418 12.0743C38.3968 12.0896 37.6644 11.3638 37.6515 10.503C37.6388 9.63967 38.3481 8.90873 39.206 8.89854C40.0639 8.88836 40.7937 9.60658 40.8039 10.4674Z" fill="#BCBCC0"></path>
<path d="M36.52 14.797C36.4945 15.7164 35.7595 16.3811 34.8196 16.3327C33.9285 16.2869 33.3139 15.5942 33.3523 14.6773C33.3907 13.7631 34.0437 13.1722 34.9861 13.2002C35.8798 13.2282 36.5431 13.9184 36.52 14.7945V14.797Z" fill="#BCBCC0"></path>
<path d="M14.4662 45.2259C13.5366 45.2386 12.8708 44.6198 12.8477 43.7207C12.8247 42.7988 13.5366 42.0653 14.4457 42.078C15.3369 42.0908 15.9975 42.7632 16.0001 43.6545C16.0001 44.5993 15.4009 45.2106 14.4662 45.2234V45.2259Z" fill="#BCBCC0"></path>
<path d="M10.2074 33.5362C11.0371 33.5617 11.7696 34.3588 11.726 35.1891C11.685 36.0321 10.922 36.7426 10.0769 36.7223C9.21387 36.7018 8.58646 35.9938 8.6095 35.0643C8.62999 34.1602 9.31377 33.5056 10.2074 33.5362Z" fill="#BCBCC0"></path>
<path d="M52.6761 30.8646C52.6761 31.7917 52.0615 32.3978 51.1114 32.4028C50.169 32.408 49.5417 31.8095 49.5238 30.8825C49.5058 29.9554 50.2075 29.2551 51.1421 29.2677C52.0308 29.2805 52.6761 29.9504 52.6787 30.8646H52.6761Z" fill="#BCBCC0"></path>
<path d="M32.2125 63.9626C32.2125 64.7979 31.4674 65.5594 30.6454 65.5594C29.8413 65.5594 29.0423 64.7826 29.0295 63.9855C29.0167 63.1858 29.7952 62.4141 30.6224 62.4039C31.4854 62.3938 32.2125 63.1069 32.2152 63.9601L32.2125 63.9626Z" fill="#BCBCC0"></path>
<path d="M16.0004 26.6218C15.9876 27.5132 15.3115 28.1728 14.4178 28.1652C13.4985 28.1575 12.8121 27.4292 12.848 26.497C12.8788 25.6591 13.6496 24.9536 14.492 24.9893C15.3576 25.025 16.0107 25.7355 16.0004 26.6218Z" fill="#BCBCC0"></path>
<path d="M11.7335 26.5886C11.7463 27.4519 11.0344 28.16 10.1586 28.1574C9.30078 28.1574 8.55555 27.4264 8.55811 26.5937C8.56068 25.6845 9.20341 25.058 10.1381 25.0504C11.0293 25.0427 11.7207 25.7125 11.7335 26.5886Z" fill="#BCBCC0"></path>
<path d="M30.6299 61.2146C29.7413 61.2095 29.0602 60.5906 29.0396 59.7655C29.0166 58.8944 29.7182 58.1559 30.5762 58.1457C31.498 58.133 32.2355 58.8664 32.2125 59.7731C32.192 60.6212 31.5364 61.2196 30.6299 61.2146Z" fill="#BCBCC0"></path>
<path d="M45.1191 6.23216C45.1371 7.04713 44.4687 7.70165 43.5852 7.73221C42.6761 7.76278 41.9642 7.12353 41.9283 6.2398C41.8951 5.41209 42.6197 4.68881 43.5058 4.66334C44.3048 4.64042 45.1012 5.41464 45.1191 6.23216Z" fill="#BCBCC0"></path>
<path d="M36.512 10.4446C36.5274 11.3359 35.7771 12.0898 34.8834 12.0821C34.0665 12.077 33.4237 11.4098 33.3904 10.5362C33.3571 9.61938 34.0025 8.91393 34.8808 8.91138C35.7438 8.91138 36.4992 9.61938 36.5146 10.442L36.512 10.4446Z" fill="#BCBCC0"></path>
<path d="M27.9102 46.8507C27.9281 47.7599 27.2931 48.4475 26.4071 48.4755C25.5133 48.5036 24.7835 47.8491 24.7476 46.9908C24.7092 46.0637 25.4058 45.3176 26.3122 45.3099C27.2034 45.3023 27.8897 45.967 27.9102 46.8507Z" fill="#BCBCC0"></path>
<path d="M63.946 36.6995C63.0651 36.6765 62.3917 35.9609 62.4224 35.0721C62.4506 34.2571 63.1701 33.5439 63.964 33.5439C64.8398 33.5439 65.5287 34.2444 65.5261 35.1357C65.5261 36.022 64.8142 36.7223 63.946 36.702V36.6995Z" fill="#BCBCC0"></path>
<path d="M27.8952 55.4283C27.9028 56.3146 27.2319 56.9946 26.3433 57.0022C25.4547 57.0099 24.7633 56.3349 24.7607 55.4563C24.7607 54.5548 25.4112 53.9028 26.3228 53.9002C27.2703 53.8951 27.8875 54.4987 27.8952 55.4308V55.4283Z" fill="#BCBCC0"></path>
<path d="M51.1112 42.0779C51.9997 42.0882 52.6733 42.7784 52.6733 43.6773C52.6733 44.5866 52.0177 45.213 51.0779 45.2054C50.115 45.1978 49.503 44.5866 49.5234 43.6493C49.5439 42.7426 50.2251 42.0704 51.1112 42.0779Z" fill="#BCBCC0"></path>
<path d="M7.43414 22.3022C7.43414 23.1248 6.6531 23.8991 5.83875 23.8838C4.99624 23.8685 4.23824 23.1019 4.25617 22.2844C4.27153 21.5 5.00137 20.7869 5.81059 20.7588C6.66078 20.7309 7.43414 21.4643 7.43414 22.3022Z" fill="#BCBCC0"></path>
<path d="M34.8989 3.50469C34.0102 3.47922 33.3751 2.78904 33.4059 1.88239C33.4392 0.927347 34.0359 0.389975 35.0243 0.428177C35.8719 0.461285 36.5019 1.1209 36.4968 1.97408C36.4917 2.85526 35.7849 3.53016 34.8963 3.50215L34.8989 3.50469Z" fill="#BCBCC0"></path>
<path d="M36.5073 55.4946C36.4867 56.3656 35.7646 57.0354 34.8863 56.9997C33.9976 56.9616 33.36 56.2739 33.3907 55.3825C33.4214 54.4351 34.0284 53.8723 34.9886 53.8978C35.8747 53.9207 36.5303 54.6109 36.5073 55.4972V55.4946Z" fill="#BCBCC0"></path>
<path d="M58.1741 35.0717C58.1895 34.1906 58.8195 33.5487 59.6646 33.5513C60.4994 33.5513 61.2728 34.3103 61.2728 35.1303C61.2728 35.9427 60.4661 36.7297 59.6619 36.6991C58.7555 36.666 58.1588 36.0115 58.1741 35.0717Z" fill="#BCBCC0"></path>
<path d="M7.43391 30.8212C7.40574 31.7787 6.72713 32.4078 5.75146 32.3798C4.90127 32.3569 4.25594 31.6845 4.26874 30.8415C4.27899 30.0012 5.05748 29.2549 5.88462 29.2932C6.6836 29.3288 7.4544 30.0902 7.43391 30.8237V30.8212Z" fill="#BCBCC0"></path>
<path d="M36.4966 6.16338C36.5196 7.04457 35.8538 7.7271 34.9627 7.7322C34.0511 7.73729 33.4493 7.18464 33.4057 6.30346C33.3647 5.40444 33.9845 4.70917 34.8679 4.66332C35.7361 4.61748 36.4735 5.29747 36.4966 6.16338Z" fill="#BCBCC0"></path>
<path d="M61.265 43.736C61.2393 44.5841 60.5121 45.2055 59.5851 45.1698C58.6811 45.1367 58.1612 44.5662 58.1741 43.6214C58.1842 42.7249 58.8808 42.0628 59.7591 42.1111C60.6503 42.1595 61.2905 42.8522 61.265 43.7385V43.736Z" fill="#BCBCC0"></path>
<path d="M3.09097 30.8723C3.06793 31.756 2.37907 32.4055 1.4879 32.38C0.619787 32.3545 -0.00761266 31.7153 6.97872e-05 30.8646C0.00775224 29.9656 0.676125 29.2856 1.55193 29.2856C2.4226 29.2856 3.11403 29.9987 3.09097 30.8697V30.8723Z" fill="#BCBCC0"></path>
<path d="M22.0538 58.1458C22.8887 58.1407 23.6364 58.9073 23.6211 59.7554C23.6057 60.5755 22.9245 61.2045 22.0359 61.2172C21.1217 61.23 20.5404 60.662 20.5199 59.7426C20.502 58.841 21.1627 58.1535 22.0538 58.1484V58.1458Z" fill="#BCBCC0"></path>
<path d="M78.6454 34.1039C78.6454 35.5224 78.6146 36.8187 78.6607 38.1125C78.6812 38.6652 79.1114 38.9224 79.6492 38.9683C80.0564 39.0039 80.4661 39.0268 80.9347 39.0599C80.9629 39.3502 80.9884 39.5846 81.009 39.7985C80.8681 39.8876 80.7887 39.9819 80.7094 39.9819C78.7913 40.0048 76.8733 40.0252 74.9552 40.0277C74.3842 40.0277 74.2458 39.6991 74.4456 39.1135C74.6504 39.0752 74.8912 39.0166 75.1319 38.9886C76.0871 38.8741 76.3508 38.5888 76.3508 37.6363C76.3508 34.4885 76.3508 31.3381 76.3483 28.1903C76.3483 27.2836 76.1536 27.0926 75.1574 26.9754C74.3687 26.8812 74.3508 26.8609 74.443 25.916C74.7273 25.888 75.032 25.8294 75.3367 25.8294C77.2574 25.8218 79.178 25.7759 81.096 25.8497C81.9769 25.8829 82.8784 26.0688 83.7183 26.3463C85.3188 26.8735 86.2279 28.147 86.2637 29.6928C86.2996 31.2566 85.4007 32.6039 83.872 33.2914C82.589 33.8696 81.219 33.9664 79.8438 34.0478C79.4981 34.0683 79.1498 34.081 78.6454 34.1039ZM78.6351 32.9655C79.8156 32.8559 80.8374 32.8509 81.8207 32.6471C83.0653 32.3899 83.7721 31.1521 83.6696 29.6827C83.5646 28.1623 82.8476 27.2403 81.5339 27.057C80.8758 26.9652 80.1997 27.0035 79.5314 26.9984C78.9987 26.9959 78.6555 27.2912 78.6454 27.8006C78.6146 29.4408 78.6351 31.0809 78.6351 32.9655Z" fill="#BCBCC0"></path>
<path d="M133.477 37.9626C134.901 37.9626 136.33 38.0186 137.749 37.9396C138.54 37.8963 138.786 37.1832 138.971 36.5185C139.081 36.1263 139.111 35.6475 139.784 35.836V39.9465H131.58C131.185 39.4347 131.432 38.9711 131.652 38.5126C132.661 36.4166 134.123 34.6569 135.777 33.0421C136.52 32.3163 137.153 31.5345 137.405 30.503C137.754 29.0845 136.957 27.7118 135.659 27.5029C134.599 27.3323 133.654 27.8493 133.17 28.9138C133.349 29.0132 133.529 29.1201 133.718 29.2118C134.43 29.5556 134.774 30.1847 134.624 30.9105C134.494 31.5497 134.097 31.9088 133.447 31.9878C132.706 32.0769 132.104 31.6847 131.815 30.936C131.324 29.6524 131.99 27.8391 133.304 27.0216C134.874 26.0436 136.52 26.0003 138.146 26.8484C140.018 27.8238 140.589 30.2127 139.319 31.9293C138.799 32.6347 138.074 33.1976 137.408 33.7884C136.382 34.6976 135.304 35.5456 134.297 36.4727C133.913 36.8267 133.659 37.3233 133.347 37.7563L133.473 37.9676L133.477 37.9626Z" fill="#BCBCC0"></path>
<path d="M112.466 39.073C112.686 39.7326 112.502 40.0305 111.895 40.0331C110.809 40.0357 109.721 40.0535 108.635 40.028C107.997 40.0127 107.985 39.9593 108.013 39.1417C108.169 39.0883 108.341 39.0093 108.52 38.9736C109.04 38.8717 109.285 38.5687 109.283 38.0415C109.275 36.3887 109.283 34.7358 109.27 33.0829C109.265 32.464 109.012 31.9726 108.395 31.7332C107.803 31.504 107.332 31.7535 106.912 32.133C105.925 33.0269 105.567 34.1933 105.504 35.4693C105.47 36.134 105.49 36.8038 105.493 37.471C105.495 38.7139 105.552 38.7827 106.855 39.1111C106.875 39.3327 106.902 39.59 106.922 39.8217C106.753 39.9134 106.674 39.9974 106.592 39.9974C105.345 40.0153 104.1 40.0433 102.853 40.0229C102.225 40.0127 102.205 39.9414 102.264 39.1137C103.408 39.0169 103.514 38.2147 103.49 37.2749C103.457 35.8768 103.485 34.4786 103.48 33.0778C103.475 31.779 103.432 31.7179 102.217 31.2493V30.3553C103.255 30.2967 104.274 30.2382 105.385 30.177V32.3596C105.626 32.0337 105.803 31.7765 105.997 31.5371C106.722 30.6533 107.608 30.1261 108.815 30.2025C110.187 30.2891 111.05 30.964 111.229 32.3215C111.363 33.3248 111.363 34.3461 111.395 35.3597C111.419 36.0907 111.434 36.8242 111.391 37.5525C111.342 38.3497 111.526 38.9456 112.466 39.0678V39.073Z" fill="#BCBCC0"></path>
<path d="M95.0809 34.3079C95.2909 35.4438 95.17 36.628 94.6554 37.6621C94.3818 38.2121 94.01 38.7164 93.5336 39.18C91.8254 40.8405 89.1933 40.7997 87.5236 39.0831C85.4468 36.949 85.5517 33.1848 87.7413 31.1627C90.005 29.0743 93.5264 29.9402 94.7218 32.9224C94.8991 33.3631 94.9936 33.8342 95.0809 34.3079ZM92.4891 37.5627C92.9009 35.943 92.8245 34.2367 92.3254 32.6424C92.2764 32.4896 92.2254 32.3341 92.1691 32.1839C91.9209 31.5141 91.3191 31.048 90.5249 31.0786C89.7413 31.1066 89.2034 31.5982 88.9244 32.2705C88.1356 34.1729 88.1433 36.106 88.909 38.016C89.2112 38.7699 89.7694 39.3276 90.6324 39.3175C91.5827 39.3073 92.1664 38.6807 92.4145 37.8378C92.44 37.7487 92.4664 37.657 92.4891 37.5652V37.5627Z" fill="#BCBCC0"></path>
<path d="M129.542 28.5879C127.854 28.6209 126.402 28.4223 124.957 28.7279C123.967 28.9393 123.637 29.7339 123.421 30.6075C123.311 31.0582 123.249 31.6032 122.417 31.2824C122.533 29.7848 122.647 28.2823 122.778 26.5988C125.641 26.5708 128.425 26.5835 131.196 26.5911C131.496 27.3603 131.393 27.9129 130.994 28.4936C130.274 29.5403 129.585 30.615 128.953 31.7153C128.046 33.2943 127.627 35.0058 127.718 36.8343C127.757 37.5959 127.782 38.3598 127.754 39.1214C127.728 39.8421 127.345 40.275 126.778 40.3514C126.174 40.4304 125.6 40.0688 125.508 39.3251C125.403 38.4872 125.38 37.6035 125.539 36.7783C126.026 34.234 127.332 32.0413 128.717 29.8944C128.95 29.5327 129.176 29.1659 129.537 28.5904L129.542 28.5879Z" fill="#BCBCC0"></path>
<path d="M116.284 30.34H118.988C119.022 30.7246 119.05 31.043 119.091 31.5013C118.151 31.5472 117.308 31.588 116.523 31.6236C116.424 31.7332 116.348 31.7815 116.348 31.8274C116.327 33.7961 116.286 35.7621 116.314 37.7308C116.323 38.2809 116.576 38.803 117.278 38.8412C117.954 38.8794 118.241 38.4389 118.414 37.8862C118.499 37.6137 118.553 37.331 118.617 37.0534C118.743 36.5058 119.068 36.4268 119.521 36.6357C120.048 38.9914 118.189 40.8837 116.018 40.2394C114.914 39.9135 114.297 39.101 114.266 37.7945C114.228 36.1416 114.251 34.4888 114.241 32.8359C114.241 32.464 114.202 32.0923 114.179 31.6848C113.79 31.6236 113.47 31.6058 113.173 31.5193C112.717 31.3868 112.571 30.8239 112.968 30.6686C114.86 29.9275 115.014 28.2313 115.291 26.5326C115.603 26.5071 115.869 26.4868 116.286 26.4536V30.3425L116.284 30.34Z" fill="#BCBCC0"></path>
<path d="M99.5339 30.1694C99.5339 30.6941 99.5339 31.0659 99.5339 31.4402C99.5339 33.5414 99.5366 35.6425 99.5339 37.741C99.5339 38.3242 99.6311 38.8158 100.305 38.9941C100.784 39.1189 100.73 39.4728 100.581 39.9363H96.3457C96.3102 39.7122 96.2693 39.455 96.2357 39.2538C96.3639 39.1417 96.4048 39.0806 96.4584 39.0628C97.4675 38.7266 97.5293 38.6553 97.5339 37.5679C97.5421 36.0729 97.5366 34.5753 97.5339 33.0804C97.5339 31.6873 97.4984 31.6466 96.2075 31.3333C95.9902 30.5591 96.0621 30.3706 96.7557 30.3019C97.6084 30.2178 98.4711 30.2153 99.5339 30.1694Z" fill="#BCBCC0"></path>
<path d="M98.1356 25.5189C98.9838 25.4985 99.6901 26.1683 99.7001 26.996C99.711 27.8365 99.0401 28.5241 98.2001 28.5343C97.3756 28.5445 96.7119 27.8773 96.6838 27.0088C96.6583 26.2677 97.3729 25.5342 98.1383 25.5164L98.1356 25.5189Z" fill="#BCBCC0"></path>
</g>
<defs>
<clipPath id="clip0_6722_4636">
<rect width="140" height="66" fill="white" transform="translate(0 0.42627)"></rect>
</clipPath>
</defs>
</svg>