<svg width="100" height="31" viewBox="0 0 100 31" fill="none" xmlns="http://www.w3.org/2000/svg">
<path d="M76.6088 25.5055C75.9652 24.7605 75.4752 23.8959 75.1669 22.9613L75.0833 22.7262L74.9998 22.4389L74.9475 22.2612L74.8639 21.9321L74.8221 21.7388C74.7803 21.5559 74.7438 21.3626 74.7124 21.1693C74.7062 21.0993 74.6957 21.0293 74.6811 20.9604L74.6393 20.6208C74.6476 20.5461 74.6476 20.4709 74.6393 20.3961L74.6132 20.1088L89.2412 16.5824C89.1555 15.8249 88.9304 15.0898 88.5777 14.4143C88.0354 13.2331 87.1531 12.2394 86.0439 11.5619C84.8152 10.785 83.4349 10.2788 81.9951 10.0781L81.7496 10.0416C80.8813 9.94545 80.0057 9.94545 79.1374 10.0416C76.8345 10.2908 74.6712 11.2724 72.9675 12.8418C71.2853 14.3725 70.16 16.421 69.7702 18.6617V18.7505C69.7441 18.8968 69.7232 19.0378 69.7075 19.1998C69.6919 19.3617 69.7075 19.3826 69.6762 19.4871C69.683 19.5671 69.683 19.6475 69.6762 19.7274C69.6866 19.8664 69.6866 20.0064 69.6762 20.1454V20.8193C69.7102 22.0293 69.9651 23.2225 70.4285 24.3405C72.1133 28.2483 75.9631 30.8061 80.2188 30.8448C81.9836 30.8803 83.7311 30.4895 85.3125 29.7059C86.8767 28.9332 88.2267 27.7864 89.2412 26.3675L88.9904 25.7354C87.956 27.7102 80.8196 30.1656 76.6088 25.5055ZM83.2646 16.8279L74.5661 18.9177C74.5661 18.6565 74.5661 18.3952 74.6027 18.1497V18.0713C74.5985 17.9877 74.5985 17.9042 74.6027 17.8206L74.6445 17.481C74.7234 16.9377 74.8456 16.4011 75.0102 15.8771C75.3054 14.9049 75.7573 13.9875 76.3476 13.1605C76.8863 12.3988 77.5785 11.7578 78.3799 11.2797C79.1468 10.821 80.0255 10.5828 80.9189 10.5901C82.1659 10.5901 83.0781 10.9386 83.6564 11.635C83.867 11.8779 84.0425 12.1485 84.1789 12.4395C84.7588 13.918 84.717 16.3787 83.2646 16.8279Z" fill="#BCBCC0"></path>
<path d="M50.4973 25.7196C49.4524 27.7153 42.3265 30.1655 38.1157 25.5106C37.425 24.7061 36.9094 23.7667 36.6006 22.7522C36.2375 21.6018 36.061 20.4007 36.0782 19.1944C36.0704 18.0681 36.236 16.9475 36.5693 15.8718C36.8645 14.8995 37.3164 13.9821 37.9067 13.1551C38.4359 12.3992 39.1151 11.7608 39.9024 11.2796C40.6693 10.8214 41.548 10.5827 42.4414 10.59C43.6884 10.59 44.6006 10.9385 45.1789 11.6349C45.7745 12.3877 46.0822 13.3291 46.0462 14.2888C46.0587 14.7872 45.9845 15.284 45.8268 15.7568L50.2674 14.712C48.6531 10.5325 43.3034 9.95264 42.316 9.95264C33.8422 9.81681 29.1926 17.7891 31.9301 24.2829C33.6165 28.1933 37.4673 30.7542 41.7257 30.7976C43.4904 30.8331 45.238 30.4424 46.8194 29.6587C48.3835 28.8866 49.7335 27.7398 50.748 26.3204L50.4973 25.7196Z" fill="#BCBCC0"></path>
<path d="M69.7694 25.7195C68.7245 27.7152 61.5985 30.1654 57.3878 25.5105C56.7044 24.7112 56.194 23.7792 55.8884 22.773C55.5253 21.6226 55.3487 20.4215 55.3659 19.2152C55.3581 18.0889 55.5237 16.9683 55.857 15.8926C56.1506 14.9209 56.6004 14.0029 57.1892 13.1759C57.7174 12.4137 58.3966 11.768 59.1849 11.2795C59.9518 10.8208 60.8306 10.5826 61.7239 10.5899C62.9673 10.5899 63.88 10.9384 64.4615 11.6348C65.0628 12.3855 65.3762 13.3274 65.3444 14.2887C65.3579 14.7876 65.2817 15.285 65.1197 15.7567L69.5343 14.7119C67.9304 10.5324 62.5807 9.95777 61.6038 9.95777C53.1299 9.82194 48.4803 17.7942 51.2178 24.288C52.8938 28.2084 56.7446 30.7813 61.0082 30.8289C62.7766 30.866 64.5278 30.4757 66.1123 29.69C67.6765 28.9173 69.0265 27.7706 70.041 26.3516L69.7694 25.7195Z" fill="#BCBCC0"></path>
<path d="M95.6443 26.6496V0.00561523L89.3751 1.53111H89.3333V2.12146C89.5528 2.12146 91.4492 2.64389 91.4492 3.94996V26.5555C91.4492 29.408 89.4326 29.8207 88.0691 29.9095V30.3849H99.0244V29.9095C97.6661 29.8207 95.6913 29.4028 95.6443 26.6496Z" fill="#BCBCC0"></path>
<path d="M19.8658 0.00561523L13.6593 1.52589H13.6123V1.98563C13.8317 1.98563 15.6759 2.63866 15.1796 3.81413C12.8235 9.02799 5.1803 26.4301 4.77803 27.2138C3.45628 29.8259 1.58075 29.8259 0.807556 29.9095V30.3849H10.5248V29.8991C10.5248 29.8991 6.8364 29.9409 6.8364 28.0131C6.8364 26.8429 8.74327 22.2402 9.26048 20.9812L21.919 17.8936C21.9503 17.972 25.3566 26.2212 25.3566 27.9609C25.3566 29.8416 22.3317 29.8991 22.222 29.8991V30.3745H34.9014V29.8991C33.065 29.9304 31.3791 28.8584 30.6279 27.1824C30.2465 26.4301 19.8658 0.00561523 19.8658 0.00561523ZM21.4801 16.8279L9.79336 19.6803C9.85605 19.5288 16.214 4.62912 16.3917 4.25297C16.6581 4.87467 21.4749 16.8279 21.4749 16.8279H21.4801Z" fill="#BCBCC0"></path>
</svg>