<svg width="153" height="22" viewBox="0 0 153 22" fill="none" xmlns="http://www.w3.org/2000/svg">
<g clip-path="url(#clip0_6722_4717)">
<path d="M54.1025 21.6855L52.139 18.1918C53.057 16.3839 53.057 14.2527 53.057 11.449C53.057 7.95527 53.057 5.33499 51.0935 3.21256C50.4169 2.45398 49.587 1.8568 48.6618 1.46297C47.7367 1.06915 46.7389 0.88823 45.7385 0.932922C44.7408 0.9103 43.7495 1.1013 42.8276 1.49377C41.9056 1.88623 41.0733 2.47158 40.3835 3.21256C38.42 5.23891 38.42 7.80678 38.42 11.4141C38.42 15.0213 38.318 17.528 40.3835 19.6417C41.068 20.3939 41.8993 20.9891 42.823 21.3886C43.7468 21.7777 44.7408 21.9593 45.7385 21.9214C46.2967 21.913 46.8524 21.8427 47.396 21.7118L54.1025 21.6855ZM43.1715 17.1874C42.4575 16.314 42.2535 15.3707 42.2535 11.4141C42.2535 7.45741 42.5 6.48791 43.1715 5.64069C43.4983 5.30562 43.885 5.03869 44.3105 4.8546C44.7324 4.66991 45.1864 4.57483 45.645 4.57511C46.1063 4.5758 46.5628 4.67081 46.988 4.8546C47.4108 5.03889 47.7948 5.30587 48.1185 5.64069C48.8325 6.51411 49.0365 7.45741 49.0365 11.4141C49.0365 15.3707 48.8325 16.3314 48.1185 17.1874C47.8024 17.5319 47.4204 17.8055 46.9965 17.991C46.5665 18.1656 46.1073 18.2516 45.645 18.2443C45.1845 18.2537 44.7271 18.1645 44.302 17.9822C43.8766 17.7988 43.492 17.5284 43.1715 17.1874ZM99.3055 1.14254H103.105V21.6855H99.3055V1.14254ZM7.2165 21.8952C4.25 21.8952 1.972 21.2576 0 19.2225L2.4735 16.6546C3.11256 17.2533 3.86076 17.716 4.67486 18.0158C5.48896 18.3156 6.35281 18.4467 7.2165 18.4015C9.486 18.4015 10.7185 17.528 10.7185 15.8336C10.7302 15.5182 10.6811 15.2036 10.574 14.9078C10.4702 14.6146 10.3081 14.3469 10.098 14.1217C9.60622 13.6875 8.99324 13.4245 8.347 13.3705L5.95 13.0299C4.52778 12.9055 3.1885 12.2898 2.1505 11.283C1.67314 10.7385 1.30359 10.1036 1.0625 9.41389C0.808751 8.7137 0.695973 7.96788 0.731 7.22159C0.714 3.6056 3.2895 1.03773 7.65 1.03773C10.3275 1.03773 12.393 1.6666 14.0505 3.38725L11.5515 5.85904C11.0129 5.34687 10.3767 4.95512 9.68323 4.70856C8.98972 4.462 8.25397 4.366 7.5225 4.42663C5.457 4.42663 4.437 5.61448 4.437 7.0469C4.45336 7.60302 4.67168 8.1327 5.049 8.53173C5.58326 8.98716 6.22566 9.28858 6.9105 9.40515L9.282 9.71959C10.6989 9.75897 12.0519 10.3343 13.0815 11.3355C13.6089 11.9233 14.019 12.6118 14.2885 13.3618C14.5521 14.1203 14.6705 14.9241 14.637 15.7288C14.637 19.6679 11.3475 21.9214 7.208 21.9214M20.1875 21.6855V1.14254H33.269V4.63625H24.089V9.48376H31.909V13.1609H24.0975V18.2006H33.2775V21.6943H20.1875M66.1385 21.8952C62.1095 21.8952 58.82 19.0129 58.82 14.6283V1.14254H62.7555V14.506C62.7555 16.8642 64.107 18.2443 66.1555 18.2443C68.204 18.2443 69.5555 16.838 69.5555 14.506V1.14254H73.355V14.6108C73.355 18.9779 70.193 21.8777 66.164 21.8777M91.681 19.6417C91.0037 20.3987 90.1733 20.9943 89.2482 21.3866C88.3232 21.7789 87.3258 21.9584 86.326 21.9126C85.3297 21.9406 84.3388 21.7528 83.4177 21.3616C82.4966 20.9703 81.6658 20.3844 80.9795 19.6417C79.05 17.6066 79.05 15.0388 79.05 11.4141C79.05 7.78931 78.948 5.30005 81.022 3.18636C81.6928 2.43614 82.5151 1.84571 83.4313 1.45645C84.3475 1.06718 85.3355 0.888501 86.326 0.932922C87.3218 0.918573 88.31 1.11249 89.2306 1.50288C90.1512 1.89328 90.9849 2.47199 91.681 3.20383C93.6445 5.23891 93.6445 7.80678 93.6445 11.4315C93.6445 15.0562 93.6445 17.528 91.681 19.6417ZM88.7995 5.66689C88.4763 5.33177 88.0917 5.06577 87.6678 4.88423C87.244 4.7027 86.7894 4.60924 86.3302 4.60924C85.8711 4.60924 85.4165 4.7027 84.9927 4.88423C84.5688 5.06577 84.1842 5.33177 83.861 5.66689C83.1385 6.54032 82.943 7.48361 82.943 11.4403C82.943 15.3969 83.1385 16.3577 83.861 17.2049C84.1831 17.5421 84.5673 17.81 84.9913 17.9929C85.4152 18.1757 85.8704 18.2699 86.3302 18.2699C86.7901 18.2699 87.2453 18.1757 87.6692 17.9929C88.0932 17.81 88.4775 17.5421 88.7995 17.2049C89.5135 16.3314 89.7175 15.3969 89.7175 11.4403C89.7175 7.48361 89.539 6.48791 88.7995 5.64069V5.66689ZM121.363 21.6855L120.232 18.0521H113.22L111.996 21.6855H107.95L115.192 1.14254H118.15L125.367 21.6855H121.363ZM116.713 7.12551L114.24 14.6108H119.187L116.713 7.12551ZM148.053 1.14254H153V6.27829H148.053V1.14254ZM135.686 17.266V1.14254H133.212V19.8601L135.686 17.266ZM137.419 19.1177L134.946 21.6855H153V19.1177H137.419ZM140.632 12.1565V1.14254H138.159V14.7243L140.632 12.1565ZM142.367 13.9819L139.885 16.5498H153V13.9819H142.367ZM145.571 7.0469V1.14254H143.098V9.58857L145.571 7.0469ZM147.314 8.84616L144.849 11.4141H153V8.84616H147.314Z" fill="#BCBCC0"></path>
</g>
<defs>
<clipPath id="clip0_6722_4717">
<rect width="153" height="21" fill="white" transform="translate(0 0.92627)"></rect>
</clipPath>
</defs>
</svg>