<svg width="173" height="23" viewBox="0 0 173 23" fill="none" xmlns="http://www.w3.org/2000/svg">
<path d="M17.7632 15.8591C17.7632 19.5094 15.4374 21.9543 10.3583 21.9543H0.365234V0.988525H10.0667C15.1188 0.988525 16.9282 3.6091 16.9282 6.34799C16.9282 8.43906 15.8964 9.969 14.2019 10.7925C16.5288 11.6758 17.7632 13.7681 17.7632 15.8591ZM5.21713 4.96332V9.43832H9.75165C11.2717 9.43832 12.1044 8.52692 12.1044 7.14108C12.1044 5.8466 11.2717 4.96097 9.75165 4.96097H5.21713V4.96332ZM12.7673 15.592C12.7673 13.9707 11.7613 13.2058 10.0679 13.2058H5.21479V17.9748H10.0667C11.7905 17.9772 12.7673 17.1243 12.7673 15.592Z" fill="#BCBCC0"></path>
<path d="M29.1299 21.9541C28.9297 21.5722 28.7856 20.9244 28.7563 20.2449C27.8089 21.5394 26.201 22.3067 24.018 22.3067C20.9181 22.3067 18.6216 20.6854 18.6216 17.6524C18.6216 15.0319 20.1417 13.2958 24.4209 12.9103L26.7467 12.7042C28.008 12.5566 28.6697 12.1747 28.6697 11.2035C28.6697 10.2921 28.1813 9.67123 26.4024 9.67123C24.6528 9.67123 23.9349 10.1129 23.7908 11.6744H19.3383C19.5678 8.31818 21.6641 6.40283 26.4293 6.40283C31.0786 6.40283 33.032 8.19986 33.032 11.0828V19.1519C33.032 20.2695 33.2323 21.3613 33.6352 21.9494H29.1299V21.9541ZM28.6685 15.9761V14.8585C28.3535 15.2111 27.8651 15.3587 27.1742 15.4466L25.3355 15.6527C23.8154 15.8296 23.183 16.4177 23.183 17.4791C23.183 18.5404 23.9595 19.2175 25.3648 19.2175C27.0922 19.2152 28.6685 18.36 28.6685 15.9761Z" fill="#BCBCC0"></path>
<path d="M34.4365 2.81255C34.4365 1.48879 35.4683 0.42627 36.7623 0.42627C38.0236 0.42627 39.0589 1.48528 39.0589 2.81255C39.0589 4.10702 38.0271 5.16837 36.7623 5.16837C35.4718 5.16837 34.4365 4.10937 34.4365 2.81255ZM34.5244 6.7604H39.0038V21.9543H34.5244V6.7604Z" fill="#BCBCC0"></path>
<path d="M45.2314 0.988525H40.752V21.9543H45.2314V0.988525Z" fill="#BCBCC0"></path>
<path d="M51.4678 0.988525H46.9883V21.9543H51.4678V0.988525Z" fill="#BCBCC0"></path>
<path d="M52.9863 2.81255C52.9863 1.48879 54.0181 0.42627 55.3121 0.42627C56.5734 0.42627 57.6087 1.48528 57.6087 2.81255C57.6087 4.10702 56.5769 5.16837 55.3121 5.16837C54.0192 5.16837 52.9863 4.10937 52.9863 2.81255ZM53.0718 6.7604H57.5513V21.9543H53.0718V6.7604Z" fill="#BCBCC0"></path>
<path d="M74.1985 15.709H63.2322C63.5473 17.8891 64.8671 18.9188 66.6202 18.9188C68.1146 18.9188 69.0878 18.3015 69.6054 17.2097H73.8553C73.052 20.4195 70.1827 22.3044 66.6202 22.3044C62.0272 22.3044 58.9272 19.1836 58.9272 14.3525C58.9272 9.55179 61.9417 6.40405 66.5617 6.40405C71.1852 6.40405 74.1996 9.67245 74.1996 14.7965L74.1985 15.709ZM63.2615 12.7968H69.808C69.493 10.9107 68.3137 9.79311 66.5055 9.79311C64.8694 9.79311 63.6046 10.6752 63.2615 12.7968Z" fill="#BCBCC0"></path>
<path d="M97.7109 10.2641V21.9554H94.3229L93.7491 19.1872C92.3695 21.338 89.9582 22.4263 87.1171 22.4263C81.203 22.4263 77.3267 18.1282 77.3267 11.4743C77.3267 4.82033 81.2288 0.522217 87.6898 0.522217C93.0007 0.522217 96.7893 3.40754 97.451 8.05944H92.4843C91.9104 6.05623 90.2463 4.82033 87.7202 4.82033C84.3908 4.82033 82.38 7.32376 82.38 11.4743C82.38 15.6248 84.447 18.1282 87.9498 18.1282C90.4466 18.1282 92.4843 16.569 92.8286 14.1534H88.2941V10.2641H97.7109Z" fill="#BCBCC0"></path>
<path d="M99.0566 2.81255C99.0566 1.48879 100.088 0.42627 101.382 0.42627C102.647 0.42627 103.679 1.48528 103.679 2.81255C103.679 4.10702 102.647 5.16837 101.382 5.16837C100.092 5.16837 99.0566 4.10937 99.0566 2.81255ZM99.1421 6.7604H103.622V21.9543H99.1421V6.7604Z" fill="#BCBCC0"></path>
<path d="M122.307 4.40307H123.514V0.988241C122.881 0.929667 122.079 0.871094 121.39 0.871094C117.429 0.871094 116.05 3.19763 116.05 5.87795V6.76006H114.585H113.838H111.656V6.02438C111.656 4.99466 112.174 4.40658 113.435 4.40658H114.641V0.988241C114.009 0.929667 113.207 0.871094 112.518 0.871094C108.556 0.871094 107.178 3.19763 107.178 5.87795V6.76006H104.967V10.1163H107.178V21.954H111.657V10.1163H113.839H114.586H116.051V21.954H120.531V10.1163H123.46V6.76006H120.531V6.02438C120.525 4.99232 121.043 4.40307 122.307 4.40307Z" fill="#BCBCC0"></path>
<path d="M123.373 14.356C123.373 9.52602 126.417 6.40405 131.152 6.40405C135.859 6.40405 138.904 9.52484 138.904 14.356C138.904 19.1871 135.861 22.3079 131.152 22.3079C126.413 22.3079 123.373 19.1859 123.373 14.356ZM134.365 14.356C134.365 11.4707 133.13 10.0871 131.15 10.0871C129.142 10.0871 127.906 11.4695 127.906 14.356C127.906 17.2425 129.142 18.6248 131.15 18.6248C133.131 18.6248 134.365 17.2413 134.365 14.356Z" fill="#BCBCC0"></path>
<path d="M149.577 6.58323V10.763H148.43C145.934 10.763 144.499 12.0282 144.499 14.8843V21.9506H140.02V6.76012H144.384V9.58688C145.017 7.70081 146.393 6.52466 148.605 6.52466C148.946 6.52466 149.26 6.55394 149.577 6.58323Z" fill="#BCBCC0"></path>
<path d="M165.28 0.988525V21.9543H160.915V19.9804C159.968 21.4213 158.533 22.3069 156.466 22.3069C152.45 22.3069 150.008 19.1861 150.008 14.355C150.008 9.52384 152.448 6.40305 156.466 6.40305C158.449 6.40305 159.854 7.22659 160.802 8.58315V0.988525H165.28ZM160.886 14.3562C160.886 11.4708 159.71 10.0873 157.701 10.0873C155.718 10.0873 154.542 11.588 154.542 14.4733C154.542 17.3586 155.718 18.6238 157.701 18.6238C159.709 18.625 160.886 17.2415 160.886 14.3562Z" fill="#BCBCC0"></path>
<path d="M166.542 0.985448H168.86V1.68013H168.068V3.81337H167.342V1.67779H166.542V0.985448ZM172.191 0.985448V3.8122H171.497V2.96172C171.497 2.66416 171.497 2.36778 171.509 2.07023L171.447 2.27875L170.993 3.80517H170.414L169.96 2.27875L169.896 2.05851C169.908 2.36778 169.908 2.65245 169.908 2.96172V3.80869H169.211V0.985448H170.234L170.581 2.1944C170.622 2.33849 170.667 2.49196 170.696 2.64425L170.822 2.17097L171.169 0.981934H172.189V0.985448H172.191Z" fill="#BCBCC0"></path>
</svg>