<svg width="168" height="23" viewBox="0 0 168 23" fill="none" xmlns="http://www.w3.org/2000/svg">
<path d="M22.0536 21.9868V0.42627H27.34V21.9868H22.0536ZM124.834 13.921C124.834 8.69889 120.493 5.4674 115.374 5.4674C110.254 5.4674 105.914 8.72474 105.914 13.921C105.914 19.1431 110.254 22.4004 115.374 22.4004C120.493 22.4004 124.834 19.0914 124.834 13.921ZM119.631 13.921C119.631 16.6354 117.655 18.1866 115.374 18.1866C113.092 18.1866 111.117 16.6613 111.117 13.921C111.117 11.1548 113.092 9.70712 115.374 9.70712C117.655 9.70712 119.631 11.1548 119.631 13.921ZM19.939 15.7823C19.939 13.3522 18.5756 11.4909 16.155 10.6636C18.4365 9.5003 19.2434 7.97504 19.2434 6.1654C19.2434 3.01147 16.7949 0.426271 11.3137 0.452123H0.824219V22.0126H11.7867C17.2958 21.9868 19.939 19.4275 19.939 15.7823ZM13.6509 6.78585C13.6509 8.25941 12.6492 9.08667 10.7294 9.08667H6.33328V4.58843H10.7294C12.4823 4.61428 13.6509 5.31229 13.6509 6.78585ZM14.1239 15.4462C14.1239 16.8423 13.0666 17.7729 11.0911 17.7729H6.33328V13.0937H11.0911C13.0109 13.1196 14.1239 14.0244 14.1239 15.4462ZM65.9869 9.88808C64.5401 7.07022 61.8412 5.5191 57.7233 5.5191C52.8821 5.5191 48.5694 8.33697 48.5694 13.9468C48.5694 19.4016 52.3812 22.4263 57.6677 22.4263C61.3682 22.4263 64.5123 21.0561 65.9869 18.0831L61.7299 16.0408C60.9509 17.3593 59.7545 18.1866 57.8625 18.1866C55.414 18.1866 53.8281 16.5579 53.8281 13.921C53.8281 11.2841 55.6366 9.70712 57.8346 9.70712C59.5319 9.70712 60.8396 10.431 61.6465 11.9821L65.9869 9.88808ZM143.893 9.88808C142.446 7.07022 139.747 5.5191 135.629 5.5191C130.788 5.5191 126.475 8.33697 126.475 13.9468C126.475 19.4016 130.287 22.4263 135.574 22.4263C139.274 22.4263 142.418 21.0561 143.893 18.0831L139.636 16.0408C138.857 17.3593 137.66 18.1866 135.768 18.1866C133.32 18.1866 131.734 16.5579 131.734 13.921C131.734 11.2841 133.542 9.70712 135.741 9.70712C137.438 9.70712 138.745 10.431 139.552 11.9821L143.893 9.88808ZM99.5699 21.9868L95.146 14.7483H91.7515V21.9868H86.2981V0.42627H96.1198C101.434 0.42627 105.135 2.80465 105.135 7.43215C105.135 10.4051 103.549 12.4991 100.739 13.7917L105.83 21.9868H99.5699ZM91.8072 10.4568H95.8694C98.3735 10.4568 99.5978 9.13838 99.5978 7.58726C99.5978 5.72592 98.4292 4.71769 95.8694 4.71769H91.8072V10.4568ZM47.7069 21.7024V18.3158C47.4843 18.3675 47.1504 18.4451 46.8165 18.4451C46.1488 18.4451 45.7871 18.109 45.7871 17.5403V11.9304C45.7871 7.74237 42.7543 5.5191 37.746 5.5191C34.4907 5.5191 31.7083 6.63073 29.9833 8.05259L32.9048 11.1031C34.0733 10.1466 35.6036 9.55201 37.1339 9.55201C39.4433 9.55201 40.5562 10.6378 40.5562 12.3957V12.9128C39.4711 12.6801 38.0799 12.4216 36.4105 12.4216C32.1813 12.4216 29.4546 14.3088 29.4546 17.4368C29.4546 20.6425 31.7362 22.3229 35.2976 22.3229C37.7182 22.3229 39.8885 21.3922 41.0014 20.203C41.6692 21.78 43.1716 22.2195 44.6185 22.2195C45.5645 22.2453 46.7331 22.0902 47.7069 21.7024ZM40.5562 16.6354C40.5562 18.109 39.0538 19.0655 37.3009 19.0655C35.6593 19.0655 34.8524 18.29 34.8524 17.2042C34.8524 16.0667 35.7428 15.2394 37.5791 15.2394C38.7199 15.2394 39.6937 15.4204 40.5562 15.6014V16.6354ZM162.785 21.9868L156.553 11.9562L162.395 6.062H156.525L150.376 12.4216V0.477977H145.117V22.0385H150.376V18.1348L152.88 15.6531L156.803 22.0385H162.757V21.9868H162.785ZM84.9348 21.9868L78.7023 11.9562L84.5452 6.062H78.6188L72.5255 12.4216V0.477977H67.2668V22.0385H72.5255V18.1348L75.0296 15.6531L78.9527 22.0385H84.9069V21.9868H84.9348ZM166.013 18.988C167.098 18.988 167.765 19.6084 167.765 20.5649C167.765 21.5215 167.125 22.1419 166.013 22.1419C164.927 22.1419 164.26 21.5215 164.26 20.5649C164.287 19.6084 164.927 18.988 166.013 18.988ZM166.013 21.9609C166.875 21.9609 167.459 21.4697 167.459 20.5908C167.459 19.686 166.847 19.2206 166.013 19.2206C165.15 19.2206 164.566 19.7118 164.566 20.5908C164.538 21.4956 165.15 21.9609 166.013 21.9609ZM165.345 19.7635H166.04C166.458 19.7635 166.68 19.9703 166.68 20.2806C166.68 20.5391 166.541 20.6942 166.319 20.7976L166.652 21.3663H166.319L166.04 20.8493H165.651V21.3663H165.317V19.7635H165.345ZM165.651 19.9962V20.5649H166.013C166.235 20.5649 166.374 20.5132 166.374 20.3064C166.374 20.1255 166.291 20.0479 166.04 20.0479H165.651V19.9962Z" fill="#BCBCC0"></path>
</svg>