<svg width="181" height="33" viewBox="0 0 181 33" fill="none" xmlns="http://www.w3.org/2000/svg">
<mask id="mask0_6722_7342" style="mask-type:luminance" maskUnits="userSpaceOnUse" x="0" y="0" width="181" height="33">
<path d="M180.948 0.769043H0.948242V32.769H180.948V0.769043Z" fill="white"></path>
</mask>
<g mask="url(#mask0_6722_7342)">
<path d="M18.5163 20.7843H7.67755V16.1353H18.5163C20.3922 16.1353 21.4195 17.0711 21.4195 18.4598C21.4195 19.8485 20.3922 20.7843 18.5163 20.7843ZM7.67755 6.53529H17.8761C19.7818 6.53529 20.8537 7.29001 20.8537 8.70888C20.8537 10.1428 19.7967 10.8825 17.8761 10.8825H7.67755V6.53529ZM23.9356 13.207C25.4989 12.4523 27.4046 10.6711 27.4046 7.8485C27.4046 3.3202 24.2185 0.859821 18.5907 0.844727H1.02246V26.49H19.1862C24.8587 26.49 28.1043 23.773 28.1043 19.2447C28.1192 16.2108 26.1986 14.1428 23.9356 13.207Z" fill="#BCBCC0"></path>
<path d="M79.9755 21.1468C77.9209 21.1468 76.968 20.4373 76.968 18.7166V13.1468H84.3378V7.63734H76.968V2.64111H70.3427V7.63734H69.2112H61.8415V2.64111H55.2162V7.63734H51.3154V13.1468H55.2162V20.6034C55.2162 24.9204 58.4023 26.8524 62.8241 26.8524C66.0102 26.8524 68.3775 26.2788 70.1194 25.5996L68.8837 20.377C67.6479 20.8449 66.2335 21.1317 64.8489 21.1317C62.7943 21.1317 61.8415 20.4222 61.8415 18.7015V13.1468H66.4569H70.3576V20.6034C70.3576 24.9204 73.5437 26.8524 77.9656 26.8524C81.1517 26.8524 83.5189 26.2788 85.2608 25.5996L84.0251 20.3921C82.7745 20.86 81.3601 21.1468 79.9755 21.1468Z" fill="#BCBCC0"></path>
<path d="M114.814 10.7919V7.65226H108.084V26.5051H114.814V19.3655C114.814 15.3655 117.539 13.9617 121.261 13.9768C122.288 13.9768 122.749 14.0523 123.598 14.1881V7.69755C123.003 7.62208 122.392 7.5617 121.544 7.5617C118.491 7.5466 116.437 8.51264 114.814 10.7919Z" fill="#BCBCC0"></path>
<path d="M144.531 14.3995C144.531 18.5052 142.402 20.8297 137.981 20.8297C133.559 20.8297 131.43 18.5052 131.43 14.3995V0.859863H124.492V15.0787C124.492 22.4448 129.271 26.8976 137.981 26.8976C146.69 26.8976 151.469 22.4297 151.469 15.0787V0.859863H144.531V14.3995Z" fill="#BCBCC0"></path>
<path d="M163.901 21.554C161.132 21.554 158.943 19.7578 158.943 17.1918V16.9804C158.943 14.4144 161.147 12.6182 163.901 12.6182C166.626 12.6182 168.889 14.188 168.889 17.071C168.889 19.9691 166.626 21.554 163.901 21.554ZM165.524 7.22949C162.591 7.22949 160.283 8.30121 159.107 9.62951V7.66724H152.377V32.6936H159.107V24.5578C160.283 25.8861 162.576 26.9578 165.509 26.9578C171.851 26.9578 175.499 22.5352 175.499 17.1012C175.514 11.6672 171.866 7.22949 165.524 7.22949Z" fill="#BCBCC0"></path>
<path d="M44.7942 19.3502L50.958 21.1766C49.4841 24.8144 45.1069 26.9276 40.3129 26.9276C33.4493 26.9276 28.7148 22.8974 28.7148 17.0408C28.7148 11.3955 33.5089 7.21436 40.2384 7.21436C47.355 7.21436 51.226 11.7427 51.226 17.071V18.7162H35.355C35.9952 20.6483 37.7818 21.72 40.2831 21.72C42.293 21.7049 44.0498 20.8898 44.7942 19.3502ZM35.4593 14.9879H44.4072C44.1987 13.7049 42.6801 12.2709 40.1044 12.2709C38.0201 12.286 36.2335 13.1766 35.4593 14.9879Z" fill="#BCBCC0"></path>
<path d="M100.715 19.3502L106.878 21.1766C105.404 24.8144 101.027 26.9276 96.2333 26.9276C89.3697 26.9276 84.6353 22.8974 84.6353 17.0408C84.6353 11.3955 89.4293 7.21436 96.1588 7.21436C103.275 7.21436 107.146 11.7427 107.146 17.071V18.7162H91.2755C91.9157 20.6483 93.7023 21.72 96.2035 21.72C98.2134 21.7049 99.9702 20.8898 100.715 19.3502ZM91.3797 14.9879H100.328C100.119 13.7049 98.6005 12.2709 96.0248 12.2709C93.9554 12.286 92.1539 13.1766 91.3797 14.9879Z" fill="#BCBCC0"></path>
<path d="M180.945 3.51293C180.945 5.05066 179.772 6.16793 178.326 6.16793C176.881 6.16793 175.708 5.05066 175.708 3.51293C175.708 1.97518 176.881 0.85791 178.326 0.85791C179.772 0.85791 180.945 1.97518 180.945 3.51293ZM180.542 3.51293C180.542 2.20344 179.558 1.23033 178.326 1.23033C177.094 1.23033 176.109 2.20344 176.109 3.51293C176.109 4.81039 177.094 5.79551 178.326 5.79551C179.558 5.79551 180.542 4.81039 180.542 3.51293ZM179.629 4.81039H178.8L178.267 3.92138H177.911V4.81039H177.165V2.13135H178.444C179.096 2.13135 179.5 2.43169 179.5 2.99634C179.5 3.41681 179.215 3.62105 178.953 3.72917L179.629 4.81039ZM178.728 3.0564C178.728 2.84016 178.563 2.74405 178.338 2.74405H177.911V3.36876H178.338C178.563 3.36876 178.728 3.27266 178.728 3.0564Z" fill="#BCBCC0"></path>
</g>
</svg>