<svg width="112" height="49" viewBox="0 0 112 49" fill="none" xmlns="http://www.w3.org/2000/svg">
<g clip-path="url(#clip0_6722_4600)">
<path d="M100.118 14.7333C100.168 13.9964 100.793 13.1457 101.926 13.1457C103.176 13.1457 103.702 13.9316 103.734 14.7333H100.118ZM101.894 11.377C99.8224 11.377 97.915 13.0476 97.915 15.6181C97.915 18.3365 99.8713 19.9241 102.091 19.9241C104.079 19.9241 105.362 18.7618 105.772 17.3703L103.948 16.8302C103.685 17.5505 103.127 18.0581 102.107 18.0581C101.022 18.0581 100.118 17.288 100.069 16.2238H105.855L105.889 15.5525C105.889 12.9654 104.392 11.377 101.894 11.377Z" fill="#BCBCC0"></path>
<path d="M52.7101 29.2456C52.7306 27.7085 53.845 26.5556 55.3183 26.5556C56.9167 26.5556 57.9139 27.5851 57.9313 29.2456H52.7101ZM58.9325 29.9548L58.9444 29.4725C58.9444 27.1913 57.5137 25.7167 55.3009 25.7167C53.5009 25.7167 51.6385 27.2348 51.6385 29.776C51.6385 32.6003 53.6433 33.886 55.5074 33.886C57.0337 33.886 58.2753 33.1048 58.8281 31.7954L58.8463 31.752L58.0025 31.461L57.9866 31.4973C57.5375 32.5102 56.681 33.0455 55.5081 33.0455C53.8268 33.0455 52.6919 31.8215 52.6737 29.9951H58.9309L58.9333 29.9531L58.9325 29.9548ZM12.5947 0.42627L0.8125 20.8383V25.308L15.1744 0.42627H12.5947Z" fill="#BCBCC0"></path>
<path d="M46.298 17.9348V14.8093H47.3206C48.1873 14.8093 48.5512 14.8781 48.915 15.0853C49.3483 15.3438 49.5737 15.7763 49.5737 16.397C49.5737 16.9489 49.3831 17.364 49.0012 17.6225C48.6547 17.8645 48.2736 17.934 47.459 17.934L46.298 17.9348ZM46.298 9.95931H47.1299C47.8062 9.95931 48.2909 10.0281 48.6207 10.1838C49.0368 10.3911 49.3135 10.8915 49.3135 11.4782C49.3135 12.5487 48.6547 13.0493 47.251 13.0493H46.298V9.95931ZM50.7703 19.1271C51.5153 18.6259 51.966 17.677 51.966 16.6073C51.966 15.7265 51.6711 15.0188 51.1341 14.5349C50.7703 14.2068 50.4579 14.0693 49.7643 13.9135C50.3883 13.7063 50.6477 13.5514 50.9783 13.2232C51.4638 12.7053 51.7058 12.049 51.7058 11.2552C51.7058 10.2369 51.3065 9.356 50.5963 8.82154C49.9897 8.37323 49.0715 8.16528 47.6504 8.16528H43.9238V19.6791H48.1881C49.4535 19.6791 50.1637 19.5241 50.7703 19.1271ZM111.291 11.4094C110.805 11.4094 110.338 11.5478 109.99 11.7889C109.662 12.0301 109.504 12.2728 109.279 12.8595V11.6853H107.078V19.6783H109.279V15.8285C109.279 15.0687 109.349 14.7239 109.608 14.3618C109.92 13.9127 110.475 13.6368 111.083 13.6368L111.55 13.6715V11.4276C111.429 11.4102 111.342 11.4102 111.29 11.4102M82.8711 27.1177V25.8605H81.9324V33.7522H82.8711V29.6368C82.8711 28.5236 83.0686 27.914 83.6261 27.3082C84.0326 26.8719 84.532 26.6607 85.1966 26.6433H85.5293V25.7253H85.1451C84.5478 25.7253 83.9455 25.9191 83.5332 26.2448C83.2411 26.4868 83.076 26.6995 82.8711 27.1177Z" fill="#BCBCC0"></path>
<path d="M87.4458 14.9312C87.4458 13.8267 87.8781 13.2566 88.7102 13.2566C89.5075 13.2566 89.9239 13.8267 89.9239 14.9312V19.6792H92.1258V14.8624C92.1258 13.8441 92.5937 13.2566 93.4084 13.2566C94.2405 13.2566 94.6387 13.7745 94.6387 14.8624V19.6792H96.8397V14.449C96.8397 13.2408 96.6838 12.6881 96.1976 12.1528C95.7471 11.6697 95.071 11.4104 94.2563 11.4104C93.113 11.4104 92.3672 11.8254 91.8296 12.7402C91.448 11.8768 90.6855 11.4104 89.646 11.4104C88.6231 11.4104 87.9469 11.8081 87.445 12.6873V11.6855H85.2432V19.6784H87.445V14.9305" fill="#BCBCC0"></path>
<path d="M80.2049 13.145C81.4545 13.145 81.9804 13.931 82.0129 14.7327H78.3971C78.4469 13.9958 79.0709 13.145 80.2049 13.145ZM80.3687 19.9235C82.3577 19.9235 83.64 18.7612 84.0507 17.3696L82.2264 16.8296C81.9631 17.5499 81.4047 18.0575 80.3853 18.0575C79.3002 18.0575 78.3963 17.2873 78.3472 16.2232H84.1337L84.166 15.5518C84.166 12.9648 82.6701 11.3763 80.1718 11.3763C78.1005 11.3763 76.1938 13.047 76.1938 15.6174C76.1938 18.3358 78.1495 19.9235 80.3687 19.9235ZM25.6493 0.42627L0.8125 43.2752V47.7307L25.6493 4.88171L30.8832 13.9112L11.3048 47.7299H13.8869L25.6533 27.404L30.8832 36.4264L24.3539 47.7299H26.9345L33.4654 36.4249L26.944 25.1752L33.4654 13.9112L25.6493 0.42627Z" fill="#BCBCC0"></path>
<path d="M64.9948 18.3321C64.3534 18.3321 64.0418 18.0213 63.9374 17.331H61.8226C61.9088 18.9884 63.0698 19.9545 64.9766 19.9545C66.8478 19.9545 68.0965 18.9188 68.0965 17.365C68.0965 16.0707 67.3856 15.3623 65.5832 14.8096C64.4736 14.4649 64.4562 14.4649 64.2134 14.2743C64.075 14.1707 63.988 13.9636 63.988 13.7564C63.988 13.3247 64.3344 13.0321 64.8714 13.0321C65.4606 13.0321 65.8948 13.3769 65.8948 13.8608V13.9992H67.9748C67.9225 12.3759 66.8138 11.4097 64.9758 11.4097C63.1047 11.4097 61.8732 12.4281 61.8732 13.9469C61.8732 15.2081 62.653 15.9837 64.3866 16.5025C65.565 16.8646 65.8774 17.0899 65.8774 17.573C65.8774 18.0213 65.5143 18.3321 64.9948 18.3321ZM72.2556 18.3328C71.6143 18.3328 71.3027 18.0221 71.1983 17.3319H69.0835C69.1697 18.9891 70.3307 19.9553 72.2374 19.9553C74.1086 19.9553 75.3574 18.9195 75.3574 17.3659C75.3574 16.0715 74.6464 15.3631 72.844 14.8104C71.7345 14.4657 71.7171 14.4657 71.4742 14.2751C71.3358 14.1716 71.2489 13.9644 71.2489 13.7572C71.2489 13.3255 71.5953 13.033 72.1323 13.033C72.7214 13.033 73.1548 13.3777 73.1548 13.8616V14H75.2348C75.1834 12.3767 74.0738 11.4105 72.2358 11.4105C70.3647 11.4105 69.1333 12.4289 69.1333 13.9478C69.1333 15.2089 69.9131 15.9845 71.6467 16.5032C72.825 16.8653 73.1375 17.0907 73.1375 17.5738C73.1375 18.0221 72.7736 18.3328 72.2541 18.3328M89.8502 40.225C89.5582 40.4669 89.3931 40.6796 89.189 41.0979V39.8415H88.2507V47.7332H89.189V43.6178C89.189 42.5045 89.3864 41.8949 89.9439 41.2892C90.3496 40.852 90.8491 40.6409 91.5128 40.6243H91.8471V39.7063H91.4622C90.8657 39.7063 90.2625 39.9 89.8502 40.225ZM72.2216 33.6964V32.9381L72.1908 32.8883L72.133 32.9081C71.8183 33.0164 71.4877 33.071 71.1556 33.0702C70.428 33.0702 70.0428 32.614 70.0428 31.7514V26.6737H72.1156V25.8601H70.0428V23.9664H69.1056V25.8601H67.9399V26.6729H69.1056V31.8099C69.1056 33.1263 69.8364 33.8814 71.1097 33.8814C71.6237 33.8814 71.9369 33.796 72.1923 33.7067L72.2208 33.6956M69.9257 46.8872C69.6115 46.9953 69.2813 47.0501 68.9491 47.0493C68.2215 47.0493 67.8363 46.5931 67.8363 45.7297V40.652H69.9091V39.84H67.8363V37.9439H66.8991V39.8376H65.7334V40.6496H66.8991V45.7866C66.8991 47.103 67.6299 47.8582 68.9039 47.8582C69.2725 47.8661 69.6387 47.8068 69.9859 47.6834L70.0143 47.6732V46.9149L69.9827 46.8651L69.925 46.884M75.3281 39.7032C74.8139 39.6957 74.3043 39.8021 73.8361 40.0147C73.3678 40.2273 72.9523 40.5408 72.6194 40.9326V39.8376H71.6806V47.7293H72.6194V42.9015C72.6194 42.1613 72.7697 41.7684 73.2378 41.2853C73.6871 40.8212 74.1624 40.5326 75.1367 40.5326L75.2878 40.535C76.2068 40.5626 77.1874 41.1256 77.1827 42.6287V47.7285H78.1222V42.6034C78.1428 41.7352 77.8976 41.0338 77.393 40.5199C76.8885 40.006 76.1182 39.7016 75.3273 39.7016M80.2101 25.8569H79.2752V30.6586C79.2752 31.4627 79.1456 31.9047 78.7984 32.2898C78.3966 32.7279 77.7094 33.0109 77.0466 33.0109C75.714 33.0109 74.8195 32.066 74.8195 30.6595L74.8204 25.8577H73.8832V30.6595C73.8832 32.5895 75.162 33.8861 77.0664 33.8861C77.9498 33.8861 78.7786 33.558 79.397 32.9619C79.9981 32.4005 80.2101 31.798 80.2101 30.6595V25.8569ZM65.8987 33.7486H66.8375V28.6227C66.858 27.7545 66.6128 27.0532 66.1091 26.5393C65.6053 26.0253 64.835 25.7209 64.0434 25.7209C62.9694 25.7209 62.0346 26.1455 61.3347 26.9512V25.8561H60.3968V33.7478H61.3347V28.92C61.3347 28.1799 61.485 27.7869 61.9531 27.3039C62.4023 26.8397 62.8769 26.5519 63.852 26.5519L64.0031 26.5542C64.922 26.582 65.9035 27.1449 65.8987 28.6479V33.7486ZM80.5675 43.2241C80.5881 41.687 81.7024 40.5341 83.175 40.5341C84.7737 40.5341 85.7717 41.5636 85.7883 43.2241H80.5675ZM83.1576 39.6952C81.3576 39.6952 79.4952 41.2133 79.4952 43.7545C79.4952 46.5788 81.5 47.8645 83.3633 47.8645C84.8898 47.8645 86.131 47.0833 86.6852 45.7739L86.7026 45.7312L85.858 45.4403L85.8414 45.4767C85.3926 46.4895 84.5364 47.0248 83.3633 47.0248C81.6818 47.0248 80.547 45.8008 80.5288 43.9743H86.7864L86.788 43.9333L86.8005 43.451C86.8005 41.1699 85.3702 39.6952 83.1576 39.6952ZM47.9257 33.751L52.0603 22.4435L51.0274 22.4135L47.5074 32.1356L44.1249 22.4444L43.0596 22.4285L47.0834 33.751H47.9257ZM49.7329 41.2545C49.4403 41.6724 49.0154 41.9797 48.5267 42.1266C48.1219 42.2712 47.6679 42.3298 46.9569 42.3298L45.2147 42.3187V37.2797H46.6343C47.4559 37.2797 47.9455 37.3303 48.4414 37.4664C49.5153 37.7716 50.1829 38.6642 50.1829 39.7949C50.1876 40.3159 50.0302 40.8251 49.7329 41.2529V41.2545ZM50.0049 37.2394C49.3176 36.6915 48.3322 36.4258 46.9925 36.4258L44.2546 36.4139L44.2427 47.7324H45.2154L45.2273 43.1853H47.1459C48.443 43.1853 49.2615 42.9773 49.8854 42.4911C50.6747 41.8886 51.1279 40.901 51.1279 39.7806C51.1279 38.7283 50.7285 37.8261 50.0049 37.2394ZM89.6867 26.5575C91.2846 26.5575 92.2827 27.5869 92.3001 29.2473H87.0792C87.1 27.7102 88.2142 26.5575 89.6867 26.5575ZM93.2152 31.7545L92.3706 31.4636L92.354 31.4999C91.9044 32.5128 91.0482 33.048 89.8751 33.048C88.1934 33.048 87.0585 31.8241 87.0411 29.9977H93.2981L93.3006 29.9558L93.3122 29.4735C93.3122 27.1923 91.8811 25.7177 89.6685 25.7177C87.869 25.7177 86.0065 27.2358 86.0065 29.777C86.0065 32.6013 88.0109 33.887 89.8742 33.887C91.4008 33.887 92.6419 33.1058 93.1961 31.7964L93.2143 31.753L93.2152 31.7545ZM62.5858 40.2234C62.2932 40.4654 62.1287 40.6781 61.9247 41.0963V39.84H60.9867V47.7317H61.9254V43.6162C61.9254 42.5021 62.1231 41.8925 62.6807 41.2877C63.0872 40.8505 63.5863 40.6393 64.2505 40.6227H64.5835V39.7047H64.1992C63.602 39.7047 62.9995 39.8985 62.5882 40.2234M95.7057 43.2857C94.2746 42.9331 93.883 42.6207 93.883 41.8348C93.883 41.056 94.526 40.5721 95.5597 40.5721C96.6473 40.5721 97.2712 41.0694 97.2712 41.9368V41.9803H98.246L98.2436 41.9353C98.1747 40.5389 97.1775 39.7056 95.5763 39.7056C94.0066 39.7056 92.9099 40.6029 92.9099 41.8862C92.9099 42.4516 93.1695 43.0295 93.5885 43.394C93.9909 43.7609 94.4862 43.9791 95.4128 44.2021C96.8166 44.5342 97.3384 44.9414 97.3384 45.7036C97.3384 46.4903 96.6515 47.0177 95.6277 47.0177C94.4845 47.0177 93.7611 46.4555 93.6947 45.5146L93.6914 45.4735H92.7332L92.739 45.5218C92.9099 47.0785 93.8706 47.8676 95.5921 47.8676C97.2173 47.8676 98.3099 46.9979 98.3099 45.7028C98.3025 45.1392 98.0785 44.6 97.6852 44.1965C97.2828 43.7799 96.766 43.5411 95.7057 43.2857ZM56.9336 13.1453C58.1823 13.1453 58.709 13.9311 58.7415 14.7329H55.1249C55.1739 13.996 55.7994 13.1453 56.9336 13.1453ZM58.955 16.8298C58.6916 17.5501 58.1325 18.0577 57.1139 18.0577C56.0288 18.0577 55.1249 17.2876 55.0758 16.2233H60.8618L60.8949 15.5521C60.8949 12.9649 59.3987 11.3765 56.9004 11.3765C54.8291 11.3765 52.9224 13.0472 52.9224 15.6177C52.9224 18.336 54.8789 19.9237 57.0981 19.9237C59.0871 19.9237 60.369 18.7614 60.7803 17.3698L58.955 16.8298ZM55.2854 46.9837C53.7472 46.9837 52.5862 45.6308 52.5862 43.8376C52.5862 43.0027 52.8377 42.1772 53.2766 41.5724C53.7765 40.8923 54.4116 40.5887 55.3368 40.5887C57.0427 40.5887 58.1887 41.8261 58.1887 43.6668C58.1887 45.4956 56.8861 46.9837 55.2854 46.9837ZM58.1713 41.1912C57.4302 40.191 56.478 39.7056 55.268 39.7056C53.1161 39.7056 51.6135 41.3842 51.6135 43.7862C51.6135 46.1519 53.158 47.8685 55.2862 47.8685C56.4757 47.8685 57.3962 47.3087 58.172 46.1092V47.7324H59.1108V39.8407H58.172L58.1713 41.1912Z" fill="#BCBCC0"></path>
</g>
<defs>
<clipPath id="clip0_6722_4600">
<rect width="112" height="48" fill="white" transform="translate(0 0.42627)"></rect>
</clipPath>
</defs>
</svg>