<svg width="199" height="37" viewBox="0 0 199 37" fill="none" xmlns="http://www.w3.org/2000/svg">
<g clip-path="url(#clip0_6722_7293)">
<mask id="mask0_6722_7293" style="mask-type:luminance" maskUnits="userSpaceOnUse" x="0" y="13" width="8" height="9">
<path d="M4.14418 20.4668C3.32397 21.3176 1.9939 21.3179 1.17344 20.4671L0.962817 20.2484C0.142603 19.3976 0.142603 18.0179 0.962817 17.1669L4.10112 13.9116C4.92133 13.0608 6.2514 13.0606 7.07161 13.9116L7.28248 14.1304C8.1027 14.9811 8.10245 16.3608 7.28223 17.2116L4.14418 20.4668Z" fill="white"></path>
</mask>
<g mask="url(#mask0_6722_7293)">
<path d="M0.251953 13.1743H7.99351V21.2044H0.251953V13.1743Z" fill="#BCBCC0"></path>
</g>
<mask id="mask1_6722_7293" style="mask-type:luminance" maskUnits="userSpaceOnUse" x="11" y="1" width="9" height="9">
<path d="M12.4159 5.93217C11.5957 5.08113 11.5957 3.70175 12.4159 2.85071L12.6268 2.63223C13.447 1.78144 14.7771 1.78144 15.5976 2.63223L18.7359 5.8875C19.5561 6.73828 19.5561 8.11793 18.7359 8.96871L18.5252 9.18744C17.705 10.0382 16.375 10.038 15.5545 9.18718L12.4159 5.93217Z" fill="white"></path>
</mask>
<g mask="url(#mask1_6722_7293)">
<path d="M11.7051 1.89453H19.4464V9.92462H11.7051V1.89453Z" fill="#BCBCC0"></path>
</g>
<mask id="mask2_6722_7293" style="mask-type:luminance" maskUnits="userSpaceOnUse" x="3" y="6" width="9" height="6">
<path d="M5.28413 11.5207C4.12385 11.5207 3.18359 10.5452 3.18359 9.34193V9.03283C3.18359 7.82956 4.12409 6.854 5.28413 6.854H9.7223C10.8826 6.854 11.8231 7.82956 11.8231 9.03283V9.34193C11.8231 10.5452 10.8826 11.5207 9.7223 11.5207H5.28413Z" fill="white"></path>
</mask>
<g mask="url(#mask2_6722_7293)">
<path d="M3.08789 6.75488H11.9187V11.6201H3.08789V6.75488Z" fill="#BCBCC0"></path>
</g>
<mask id="mask3_6722_7293" style="mask-type:luminance" maskUnits="userSpaceOnUse" x="5" y="20" width="5" height="10">
<path d="M9.66312 27.5302C9.66312 28.7337 8.72262 29.709 7.56259 29.709H7.26435C6.10432 29.709 5.16406 28.7335 5.16406 27.5302V22.9266C5.16406 21.7231 6.10432 20.7476 7.2646 20.7476H7.56259C8.72262 20.7476 9.66312 21.7234 9.66312 22.9266V27.5302Z" fill="white"></path>
</mask>
<g mask="url(#mask3_6722_7293)">
<path d="M5.06836 20.6484H9.75873V29.8086H5.06836V20.6484Z" fill="#BCBCC0"></path>
</g>
<mask id="mask4_6722_7293" style="mask-type:luminance" maskUnits="userSpaceOnUse" x="11" y="24" width="9" height="9">
<path d="M18.6079 28.573C19.4281 29.4241 19.4284 30.8034 18.6079 31.6545L18.3971 31.8732C17.5768 32.724 16.2468 32.724 15.4263 31.8732L12.288 28.6179C11.4678 27.7672 11.4678 26.3875 12.288 25.5365L12.4989 25.3177C13.3191 24.467 14.6492 24.467 15.4696 25.318L18.6079 28.573Z" fill="white"></path>
</mask>
<g mask="url(#mask4_6722_7293)">
<path d="M11.5771 24.5806H19.3187V32.6104H11.5771V24.5806Z" fill="#BCBCC0"></path>
</g>
<mask id="mask5_6722_7293" style="mask-type:luminance" maskUnits="userSpaceOnUse" x="19" y="22" width="9" height="6">
<path d="M25.7391 22.9844C26.8994 22.9844 27.8397 23.9599 27.8397 25.1632V25.4723C27.8397 26.6756 26.8992 27.6509 25.7391 27.6509H21.301C20.1407 27.6509 19.2002 26.6753 19.2002 25.472V25.1632C19.2002 23.9597 20.1407 22.9844 21.3007 22.9844H25.7391Z" fill="white"></path>
</mask>
<g mask="url(#mask5_6722_7293)">
<path d="M19.1045 22.8853H27.9353V27.7504H19.1045V22.8853Z" fill="#BCBCC0"></path>
</g>
<mask id="mask6_6722_7293" style="mask-type:luminance" maskUnits="userSpaceOnUse" x="23" y="13" width="8" height="9">
<path d="M26.8785 14.0386C27.6987 13.1878 29.0287 13.1875 29.8492 14.0386L30.0598 14.2573C30.88 15.1081 30.88 16.4877 30.0598 17.3385L26.9215 20.5935C26.1013 21.4446 24.7712 21.4446 23.951 20.5938L23.7402 20.3751C22.9199 19.5243 22.9199 18.1446 23.7402 17.2938L26.8785 14.0386Z" fill="white"></path>
</mask>
<g mask="url(#mask6_6722_7293)">
<path d="M23.0293 13.3008H30.7706V21.3306H23.0295L23.0293 13.3008Z" fill="#BCBCC0"></path>
</g>
<mask id="mask7_6722_7293" style="mask-type:luminance" maskUnits="userSpaceOnUse" x="21" y="4" width="5" height="10">
<path d="M21.3604 6.97521C21.3604 5.77168 22.3009 4.79639 23.4609 4.79639H23.7589C24.9189 4.79639 25.8594 5.77193 25.8594 6.97546V11.5788C25.8594 12.7823 24.9189 13.7579 23.7589 13.7579H23.4609C22.3009 13.7579 21.3604 12.7823 21.3604 11.5788V6.97521Z" fill="white"></path>
</mask>
<g mask="url(#mask7_6722_7293)">
<path d="M21.2646 4.69727H25.955V13.8572H21.2646V4.69727Z" fill="#BCBCC0"></path>
</g>
<path d="M38.7119 28.9693H42.2724L42.2838 26.6247H42.3472C42.8914 27.5786 43.624 28.2728 44.5452 28.7062C45.4664 29.1395 46.4609 29.3567 47.5286 29.3567C48.6802 29.3567 49.7163 29.1449 50.6375 28.7221C51.5589 28.2993 52.344 27.7191 52.9929 26.9812C53.6419 26.2437 54.1336 25.3759 54.4685 24.3781C54.8034 23.3802 54.9712 22.3065 54.9712 21.1564C54.9712 20.0065 54.793 18.9329 54.4373 17.9348C54.0817 16.9371 53.5844 16.0694 52.9466 15.3318C52.3081 14.594 51.5391 14.0138 50.6392 13.591C49.739 13.1682 48.7555 12.9561 47.6882 12.9561C46.9767 12.9561 46.3485 13.0318 45.8048 13.1836C45.2605 13.3353 44.7791 13.5307 44.3606 13.7692C43.9421 14.0077 43.5859 14.2623 43.2931 14.5337C43.0001 14.8048 42.7598 15.0702 42.5714 15.3303H42.4719V4.36328H38.7122V28.9693H38.7119ZM50.9124 22.9145C50.7132 23.4785 50.4199 23.9781 50.0323 24.4119C49.645 24.8461 49.1784 25.1934 48.6337 25.4537C48.0887 25.7146 47.4704 25.8442 46.7792 25.8442C46.0874 25.8442 45.4692 25.7143 44.9244 25.4537C44.3794 25.1934 43.9129 24.8463 43.5255 24.4119C43.138 23.9778 42.8447 23.4785 42.6454 22.9145C42.4462 22.3504 42.3469 21.7646 42.3469 21.1564C42.3469 20.5487 42.4462 19.9629 42.6454 19.3986C42.8447 18.8346 43.138 18.3355 43.5255 17.9014C43.9129 17.4673 44.3794 17.1202 44.9244 16.8594C45.4692 16.599 46.0874 16.4689 46.7792 16.4689C47.4704 16.4689 48.0887 16.599 48.6337 16.8594C49.1784 17.1202 49.6447 17.467 50.0323 17.9014C50.4199 18.3355 50.7132 18.8346 50.9124 19.3986C51.1117 19.9626 51.2114 20.5485 51.2114 21.1564C51.2114 21.7643 51.1117 22.3502 50.9124 22.9145ZM56.5841 28.9693H60.3439V20.6109C60.3439 20.3942 60.3909 20.0692 60.485 19.6351C60.579 19.2017 60.7671 18.7679 61.0495 18.334C61.3322 17.9006 61.7398 17.5155 62.2732 17.1795C62.8065 16.8437 63.5126 16.6755 64.3913 16.6755C64.6838 16.6755 64.9818 16.7022 65.2852 16.7546C65.5884 16.807 65.8968 16.8758 66.2109 16.9595V13.1887C65.9805 13.1227 65.7557 13.0673 65.5362 13.0229C65.3169 12.9784 65.092 12.9564 64.8615 12.9564C63.8577 12.9564 62.9689 13.2067 62.195 13.707C61.4208 14.2074 60.8248 14.9142 60.4068 15.8273H60.3439V13.344H56.5841V28.9693ZM67.8419 28.9693H71.6017V13.3438H67.8419V28.9693ZM67.9931 9.67594C68.4429 10.1411 69.0126 10.3737 69.7026 10.3737C70.3927 10.3737 70.9728 10.1522 71.4435 9.70829C71.9138 9.26467 72.1494 8.70758 72.1494 8.03624C72.1494 7.36568 71.914 6.80833 71.4435 6.36445C70.9728 5.92083 70.3927 5.69902 69.7026 5.69902C69.0126 5.69902 68.4429 5.93187 67.9931 6.39705C67.5434 6.86224 67.319 7.40881 67.319 8.03624C67.3192 8.66419 67.5437 9.2105 67.9931 9.67594ZM86.4314 13.3438L86.42 15.6884H86.3567C85.8119 14.7345 85.0793 14.0408 84.1581 13.6069C83.2367 13.1736 82.243 12.9564 81.1752 12.9564C80.0026 12.9564 78.9611 13.1684 78.0503 13.5918C77.1395 14.0154 76.3599 14.5961 75.7109 15.3344C75.062 16.0728 74.57 16.9413 74.2351 17.9402C73.9 18.9391 73.7327 20.0135 73.7327 21.1641C73.7327 22.2714 73.9104 23.3139 74.266 24.291C74.6217 25.2684 75.1286 26.1148 75.7877 26.8316C76.4468 27.5481 77.236 28.118 78.1565 28.5414C79.0772 28.965 80.1018 29.1765 81.2317 29.1765C82.1729 29.1765 83.0931 28.9865 83.9923 28.6076C84.8919 28.2282 85.6137 27.6587 86.1574 26.9001H86.2322V28.0354C86.2322 28.8137 86.1537 29.5218 85.9968 30.1595C85.8396 30.7972 85.5783 31.343 85.2125 31.7977C84.8464 32.2518 84.3549 32.6084 83.7379 32.8682C83.1211 33.1275 82.3625 33.2574 81.4636 33.2574C80.3969 33.2574 79.4554 33.062 78.6401 32.6718C77.8241 32.2811 77.0398 31.7278 76.2869 31.0121L74.0282 34.2006C75.0949 35.1764 76.2554 35.8483 77.5105 36.2169C78.7651 36.5856 80.0934 36.7696 81.4948 36.7696C82.9587 36.7696 84.2239 36.5525 85.2904 36.1191C86.3569 35.685 87.24 35.0724 87.9399 34.281C88.6394 33.489 89.1564 32.5239 89.4907 31.3854C89.8249 30.2463 89.9922 28.9721 89.9922 27.5622V13.3445H86.4314V13.3438ZM85.2352 17.7404C86.0329 18.5884 86.4316 19.6967 86.4316 21.0661C86.4316 21.7181 86.3265 22.3271 86.1171 22.8921C85.9067 23.4569 85.608 23.9409 85.2199 24.3426C84.8318 24.7449 84.3596 25.0658 83.8037 25.3048C83.2473 25.5438 82.6231 25.6632 81.9309 25.6632C81.3015 25.6632 80.7134 25.5438 80.1682 25.3048C79.6227 25.0658 79.1504 24.7398 78.752 24.3265C78.3532 23.9134 78.0434 23.4349 77.8231 22.8919C77.6028 22.3486 77.4929 21.7615 77.4929 21.1313C77.4929 20.4355 77.6028 19.7999 77.8231 19.2235C78.0434 18.6477 78.3476 18.1586 78.7359 17.7566C79.1242 17.3546 79.5912 17.0396 80.1365 16.8111C80.682 16.5826 81.2908 16.4686 81.9623 16.4686C83.3468 16.4689 84.4378 16.893 85.2352 17.7404ZM96.3859 4.36354H92.6261V28.9691H96.3859V20.4399C96.3859 19.9195 96.4485 19.4202 96.5739 18.9427C96.6992 18.4654 96.9026 18.0421 97.1843 17.6732C97.4659 17.3043 97.8211 17.0113 98.2493 16.7944C98.6772 16.5772 99.2039 16.4686 99.8303 16.4686C100.477 16.4686 100.989 16.626 101.365 16.9407C101.741 17.2555 102.017 17.6462 102.195 18.1127C102.372 18.5792 102.482 19.0782 102.523 19.6102C102.565 20.1418 102.586 20.6245 102.586 21.0586V28.9688H106.346V19.1072C106.346 18.3047 106.252 17.5343 106.064 16.7967C105.876 16.0589 105.563 15.4081 105.124 14.8441C104.685 14.2798 104.117 13.8244 103.417 13.4773C102.718 13.1302 101.866 12.9564 100.864 12.9564C99.6947 12.9564 98.7396 13.2223 97.9981 13.7532C97.2566 14.2841 96.74 14.8751 96.4477 15.5257H96.3861L96.3859 4.36354ZM110.435 16.6755V23.8289C110.435 24.7393 110.502 25.5415 110.638 26.2352C110.774 26.9289 111.024 27.5088 111.39 27.9748C111.756 28.4407 112.257 28.7876 112.894 29.0153C113.531 29.2427 114.352 29.3565 115.355 29.3565C115.794 29.3565 116.301 29.3185 116.876 29.243C117.451 29.1665 117.938 29.0312 118.335 28.8361V25.5487C118.105 25.7182 117.792 25.8398 117.394 25.914C116.997 25.9882 116.631 26.0249 116.296 26.0249C115.459 26.0249 114.9 25.7977 114.617 25.3436C114.335 24.8889 114.194 24.272 114.194 23.4929V16.6755H118.335V13.3438H114.194V8.82028H110.434V13.3438H107.329V16.6755H110.435ZM124.611 28.9693H128.501L131.67 18.2919H131.732L135.309 28.9693H139.042L144.156 13.3438H140.36L137.223 24.2818H137.16L133.897 13.3438H129.818L126.775 24.2818H126.713L123.449 13.3438H119.371L124.611 28.9693ZM149.006 4.36354H145.246V28.9691H149.006V20.4399C149.006 19.9195 149.068 19.4202 149.194 18.9427C149.319 18.4654 149.522 18.0421 149.804 17.6732C150.086 17.3043 150.441 17.0113 150.869 16.7944C151.297 16.5775 151.824 16.4686 152.45 16.4686C153.097 16.4686 153.609 16.626 153.985 16.9407C154.36 17.2555 154.637 17.6462 154.814 18.1127C154.992 18.5792 155.101 19.0782 155.143 19.6102C155.185 20.1418 155.206 20.6245 155.206 21.0586V28.9688H158.965V19.1072C158.965 18.3047 158.871 17.5343 158.683 16.7967C158.495 16.0589 158.182 15.4081 157.744 14.8441C157.305 14.2798 156.736 13.8244 156.037 13.4773C155.337 13.1302 154.486 12.9564 153.484 12.9564C152.314 12.9564 151.359 13.2223 150.618 13.7532C149.876 14.2841 149.36 14.8751 149.067 15.5257H149.006L149.006 4.36354ZM176.002 22.5124V21.4396C176.002 20.0748 175.829 18.8667 175.484 17.8157C175.138 16.7649 174.656 15.8815 174.039 15.1663C173.421 14.4513 172.678 13.9045 171.809 13.525C170.94 13.1456 169.982 12.9561 168.936 12.9561C167.805 12.9561 166.737 13.1512 165.732 13.542C164.727 13.9324 163.858 14.4854 163.126 15.2014C162.393 15.9174 161.812 16.7798 161.383 17.7887C160.953 18.7976 160.739 19.92 160.739 21.1562C160.739 22.3925 160.953 23.5152 161.381 24.5244C161.809 25.5333 162.389 26.3951 163.12 27.1109C163.851 27.8269 164.718 28.3801 165.722 28.7709C166.726 29.1611 167.793 29.3565 168.922 29.3565C170.114 29.3565 171.254 29.1175 172.342 28.6405C173.429 28.1632 174.412 27.3602 175.291 26.2311L172.593 24.1162C172.112 24.7239 171.552 25.2283 170.914 25.6296C170.276 26.0309 169.487 26.2314 168.546 26.2314C167.479 26.2314 166.569 25.9053 165.817 25.2527C165.063 24.6001 164.624 23.6864 164.499 22.5122H176.002V22.5124ZM164.498 19.594C164.645 18.4634 165.049 17.5605 165.71 16.8861C166.371 16.2122 167.268 15.8748 168.402 15.8748C169.598 15.8748 170.532 16.2065 171.203 16.8699C171.875 17.5333 172.221 18.4416 172.242 19.594H164.498ZM192.765 22.5124V21.4396C192.765 20.0748 192.592 18.8667 192.247 17.8157C191.901 16.7649 191.419 15.8815 190.802 15.1663C190.184 14.4513 189.441 13.9045 188.572 13.525C187.703 13.1456 186.745 12.9561 185.698 12.9561C184.568 12.9561 183.5 13.1512 182.495 13.542C181.49 13.9324 180.621 14.4854 179.888 15.2014C179.156 15.9174 178.574 16.7798 178.146 17.7887C177.716 18.7976 177.501 19.92 177.501 21.1562C177.501 22.3925 177.716 23.5152 178.144 24.5244C178.572 25.5333 179.152 26.3951 179.882 27.1109C180.614 27.8269 181.481 28.3801 182.485 28.7709C183.489 29.1611 184.555 29.3565 185.685 29.3565C186.877 29.3565 188.017 29.1175 189.105 28.6405C190.192 28.1632 191.175 27.3602 192.054 26.2311L189.356 24.1162C188.875 24.7239 188.315 25.2283 187.677 25.6296C187.039 26.0309 186.249 26.2314 185.309 26.2314C184.242 26.2314 183.332 25.9053 182.579 25.2527C181.826 24.6001 181.387 23.6864 181.262 22.5122H192.765V22.5124ZM181.262 19.594C181.408 18.4634 181.812 17.5605 182.473 16.8861C183.134 16.2122 184.031 15.8748 185.165 15.8748C186.361 15.8748 187.295 16.2065 187.966 16.8699C188.638 17.5333 188.984 18.4416 189.005 19.594H181.262ZM194.588 28.9693H198.348V4.36739H194.588V28.9693Z" fill="#BCBCC0"></path>
</g>
<defs>
<clipPath id="clip0_6722_7293">
<rect width="198" height="36" fill="white" transform="translate(0.347656 0.769043)"></rect>
</clipPath>
</defs>
</svg>