<svg width="198" height="42" viewBox="0 0 198 42" fill="none" xmlns="http://www.w3.org/2000/svg">
<path d="M49.144 30.2275V9.38986H55.6947C55.8884 9.38986 56.2467 9.39469 56.7696 9.40433C57.3021 9.41398 57.8105 9.45257 58.2947 9.5201C59.9311 9.72269 61.3061 10.3063 62.4197 11.271C63.543 12.2357 64.3902 13.4609 64.9615 14.9466C65.5329 16.4226 65.8185 18.0433 65.8185 19.8087C65.8185 21.5837 65.5329 23.2141 64.9615 24.6997C64.3902 26.1757 63.543 27.3961 62.4197 28.3608C61.3061 29.3159 59.9311 29.8947 58.2947 30.0973C57.8105 30.1648 57.3021 30.2034 56.7696 30.213C56.2467 30.2227 55.8884 30.2275 55.6947 30.2275H49.144ZM52.2523 27.3479H55.6947C56.024 27.3479 56.4161 27.3382 56.8712 27.3189C57.3263 27.2996 57.7282 27.261 58.0768 27.2032C59.1419 27.0006 60.0037 26.5423 60.6622 25.8284C61.3303 25.1049 61.8193 24.2174 62.1292 23.1659C62.4391 22.1143 62.594 20.9953 62.594 19.8087C62.594 18.5835 62.4342 17.45 62.1147 16.4081C61.7951 15.3566 61.3013 14.4787 60.6332 13.7745C59.9747 13.0606 59.1226 12.6072 58.0768 12.4142C57.7282 12.3467 57.3215 12.3081 56.8567 12.2985C56.4016 12.2792 56.0143 12.2695 55.6947 12.2695H52.2523V27.3479Z" fill="#BCBCC0"></path>
<path d="M75.6836 30.6616C74.115 30.6616 72.7545 30.3095 71.6022 29.6053C70.4499 28.901 69.559 27.9315 68.9296 26.6967C68.3099 25.4522 68 24.0196 68 22.3989C68 20.7686 68.3196 19.336 68.9587 18.1012C69.5978 16.8567 70.4935 15.892 71.6458 15.207C72.798 14.5125 74.144 14.1652 75.6836 14.1652C77.2523 14.1652 78.6128 14.5173 79.7651 15.2215C80.9174 15.9257 81.8083 16.8953 82.4377 18.1301C83.0671 19.3649 83.3818 20.7879 83.3818 22.3989C83.3818 24.0293 83.0622 25.4667 82.4231 26.7112C81.7937 27.946 80.9029 28.9155 79.7506 29.6197C78.5983 30.3143 77.2426 30.6616 75.6836 30.6616ZM75.6836 27.8109C77.1845 27.8109 78.3029 27.3093 79.0389 26.306C79.7845 25.293 80.1573 23.9907 80.1573 22.3989C80.1573 20.7686 79.7796 19.4662 79.0243 18.4919C78.2787 17.5079 77.1652 17.0159 75.6836 17.0159C74.6669 17.0159 73.8293 17.2474 73.1709 17.7105C72.5124 18.1639 72.0234 18.7957 71.7038 19.6061C71.3843 20.4068 71.2245 21.3377 71.2245 22.3989C71.2245 24.0389 71.6022 25.3509 72.3575 26.3349C73.1128 27.3189 74.2215 27.8109 75.6836 27.8109Z" fill="#BCBCC0"></path>
<path d="M93.0565 30.6616C91.4878 30.6616 90.1273 30.3095 88.975 29.6053C87.8227 28.901 86.9319 27.9315 86.3025 26.6967C85.6828 25.4522 85.3729 24.0196 85.3729 22.3989C85.3729 20.7686 85.6924 19.336 86.3315 18.1012C86.9706 16.8567 87.8663 15.892 89.0186 15.207C90.1709 14.5125 91.5169 14.1652 93.0565 14.1652C94.6252 14.1652 95.9857 14.5173 97.138 15.2215C98.2903 15.9257 99.1811 16.8953 99.8105 18.1301C100.44 19.3649 100.755 20.7879 100.755 22.3989C100.755 24.0293 100.435 25.4667 99.796 26.7112C99.1666 27.946 98.2758 28.9155 97.1235 29.6197C95.9712 30.3143 94.6155 30.6616 93.0565 30.6616ZM93.0565 27.8109C94.5574 27.8109 95.6758 27.3093 96.4117 26.306C97.1573 25.293 97.5301 23.9907 97.5301 22.3989C97.5301 20.7686 97.1525 19.4662 96.3972 18.4919C95.6516 17.5079 94.538 17.0159 93.0565 17.0159C92.0398 17.0159 91.2022 17.2474 90.5437 17.7105C89.8853 18.1639 89.3963 18.7957 89.0767 19.6061C88.7572 20.4068 88.5974 21.3377 88.5974 22.3989C88.5974 24.0389 88.975 25.3509 89.7303 26.3349C90.4856 27.3189 91.5943 27.8109 93.0565 27.8109Z" fill="#BCBCC0"></path>
<path d="M103.617 30.2275V14.5993H106.319V18.3906L105.941 17.8986C106.135 17.3969 106.387 16.9387 106.697 16.5239C107.006 16.0994 107.365 15.7521 107.771 15.482C108.168 15.1926 108.609 14.9707 109.093 14.8163C109.587 14.6523 110.09 14.5559 110.604 14.5269C111.117 14.4883 111.611 14.5124 112.085 14.5993V17.4355C111.572 17.3005 111.001 17.2619 110.371 17.3197C109.752 17.3776 109.18 17.5754 108.657 17.913C108.164 18.2314 107.771 18.6173 107.481 19.0707C107.2 19.5241 106.997 20.0306 106.871 20.5901C106.745 21.14 106.682 21.7236 106.682 22.341V30.2275H103.617Z" fill="#BCBCC0"></path>
<path d="M122.104 30.6616C120.603 30.6616 119.247 30.406 118.037 29.8947C116.836 29.3737 115.844 28.6357 115.059 27.6807C114.285 26.716 113.781 25.5728 113.549 24.2512L116.715 23.7736C117.035 25.047 117.703 26.0407 118.72 26.7546C119.736 27.4588 120.923 27.8109 122.278 27.8109C123.121 27.8109 123.895 27.6807 124.602 27.4202C125.309 27.1501 125.876 26.769 126.302 26.277C126.737 25.7754 126.955 25.1773 126.955 24.4827C126.955 24.1065 126.887 23.7736 126.752 23.4842C126.626 23.1948 126.447 22.944 126.214 22.7317C125.992 22.5099 125.716 22.3217 125.387 22.1674C125.067 22.0034 124.714 21.8635 124.326 21.7477L118.967 20.1705C118.444 20.0161 117.911 19.8183 117.369 19.5772C116.827 19.3263 116.328 19.0032 115.873 18.6076C115.427 18.2025 115.064 17.7056 114.783 17.1172C114.503 16.519 114.362 15.7955 114.362 14.9466C114.362 13.6635 114.691 12.5782 115.35 11.6907C116.018 10.7935 116.919 10.1182 118.052 9.6648C119.184 9.20174 120.453 8.97021 121.857 8.97021C123.271 8.98951 124.534 9.24033 125.648 9.72269C126.771 10.205 127.701 10.8996 128.437 11.8065C129.182 12.7036 129.696 13.7937 129.976 15.0768L126.723 15.6267C126.578 14.8453 126.268 14.1748 125.793 13.6153C125.319 13.0461 124.738 12.612 124.05 12.3129C123.363 12.0042 122.617 11.845 121.813 11.8354C121.039 11.8161 120.327 11.9319 119.678 12.1827C119.039 12.4335 118.526 12.7856 118.139 13.239C117.761 13.6925 117.572 14.2134 117.572 14.8019C117.572 15.3807 117.742 15.8486 118.081 16.2055C118.42 16.5625 118.836 16.847 119.33 17.0593C119.833 17.2619 120.332 17.4307 120.826 17.5657L124.689 18.651C125.174 18.7861 125.721 18.9694 126.331 19.2009C126.95 19.4228 127.546 19.7363 128.117 20.1415C128.698 20.5467 129.178 21.0869 129.555 21.7622C129.933 22.4279 130.122 23.2672 130.122 24.2801C130.122 25.3316 129.909 26.2577 129.483 27.0585C129.057 27.8495 128.471 28.5152 127.725 29.0554C126.989 29.586 126.137 29.9863 125.169 30.2565C124.2 30.5266 123.179 30.6616 122.104 30.6616Z" fill="#BCBCC0"></path>
<path d="M140.252 30.6616C138.751 30.6616 137.492 30.2999 136.475 29.5763C135.459 28.8432 134.689 27.8543 134.166 26.6099C133.643 25.3654 133.382 23.9617 133.382 22.3989C133.382 20.8361 133.638 19.4325 134.151 18.188C134.674 16.9435 135.439 15.9643 136.446 15.2505C137.463 14.5269 138.712 14.1652 140.194 14.1652C141.666 14.1652 142.934 14.5269 143.999 15.2505C145.074 15.9643 145.902 16.9435 146.483 18.188C147.064 19.4228 147.355 20.8265 147.355 22.3989C147.355 23.9617 147.064 25.3702 146.483 26.6243C145.912 27.8688 145.093 28.8528 144.028 29.5763C142.973 30.2999 141.714 30.6616 140.252 30.6616ZM132.873 37.1734V14.5993H135.575V25.8429H135.923V37.1734H132.873ZM139.831 27.9267C140.799 27.9267 141.598 27.6807 142.227 27.1887C142.866 26.6967 143.341 26.0359 143.651 25.2062C143.97 24.3669 144.13 23.4312 144.13 22.3989C144.13 21.3763 143.97 20.4502 143.651 19.6206C143.341 18.7909 142.862 18.1301 142.213 17.6381C141.564 17.1461 140.736 16.9001 139.729 16.9001C138.78 16.9001 137.996 17.1316 137.376 17.5947C136.766 18.0577 136.311 18.7041 136.011 19.5337C135.72 20.3634 135.575 21.3185 135.575 22.3989C135.575 23.4794 135.72 24.4345 136.011 25.2641C136.301 26.0937 136.761 26.7449 137.391 27.2176C138.02 27.6903 138.833 27.9267 139.831 27.9267Z" fill="#BCBCC0"></path>
<path d="M154.662 30.6616C153.5 30.6616 152.527 30.4494 151.743 30.0249C150.959 29.5908 150.363 29.0216 149.956 28.3174C149.559 27.6035 149.361 26.8221 149.361 25.9732C149.361 25.1821 149.501 24.4875 149.782 23.8894C150.063 23.2913 150.479 22.7848 151.031 22.37C151.583 21.9455 152.261 21.603 153.065 21.3426C153.762 21.14 154.551 20.9615 155.432 20.8072C156.313 20.6528 157.238 20.5081 158.206 20.373C159.184 20.238 160.153 20.1029 161.111 19.9679L160.007 20.5756C160.027 19.3505 159.765 18.4436 159.223 17.8552C158.691 17.257 157.771 16.958 156.463 16.958C155.64 16.958 154.885 17.1509 154.198 17.5368C153.51 17.913 153.031 18.5401 152.76 19.418L149.927 18.5497C150.315 17.2088 151.051 16.1428 152.135 15.3517C153.229 14.5607 154.682 14.1652 156.492 14.1652C157.897 14.1652 159.117 14.4063 160.153 14.8887C161.199 15.3614 161.964 16.1139 162.448 17.1461C162.699 17.6574 162.854 18.1976 162.912 18.7668C162.971 19.336 163 19.9486 163 20.6046V30.2275H160.313V26.6533L160.835 27.1163C160.187 28.3126 159.359 29.2049 158.352 29.7934C157.354 30.3722 156.125 30.6616 154.662 30.6616ZM155.2 28.1872C156.062 28.1872 156.802 28.0376 157.422 27.7386C158.042 27.4299 158.541 27.0392 158.918 26.5665C159.296 26.0937 159.543 25.6017 159.659 25.0905C159.824 24.6274 159.916 24.1065 159.935 23.5276C159.964 22.9488 159.978 22.4857 159.978 22.1385L160.966 22.5002C160.007 22.6449 159.136 22.7752 158.352 22.8909C157.567 23.0067 156.856 23.1224 156.217 23.2382C155.587 23.3443 155.025 23.4746 154.532 23.6289C154.115 23.7736 153.742 23.9473 153.413 24.1499C153.094 24.3525 152.837 24.5984 152.643 24.8879C152.459 25.1773 152.367 25.5294 152.367 25.9442C152.367 26.3494 152.469 26.7256 152.672 27.0729C152.876 27.4106 153.186 27.6807 153.602 27.8833C154.018 28.0859 154.551 28.1872 155.2 28.1872Z" fill="#BCBCC0"></path>
<path d="M173.153 30.6616C171.545 30.6616 170.18 30.3047 169.057 29.5908C167.933 28.8769 167.071 27.8977 166.471 26.6533C165.88 25.4088 165.58 23.9955 165.571 22.4134C165.58 20.8023 165.89 19.3794 166.5 18.1446C167.11 16.9001 167.982 15.9257 169.115 15.2215C170.248 14.5173 171.608 14.1652 173.196 14.1652C174.91 14.1652 176.372 14.5896 177.583 15.4386C178.803 16.2875 179.606 17.45 179.994 18.926L176.973 19.7942C176.672 18.9163 176.179 18.2362 175.491 17.7539C174.813 17.2619 174.034 17.0159 173.153 17.0159C172.155 17.0159 171.337 17.2522 170.698 17.7249C170.059 18.188 169.584 18.8247 169.274 19.635C168.965 20.4454 168.805 21.3715 168.795 22.4134C168.805 24.0245 169.173 25.3268 169.899 26.3204C170.635 27.3141 171.719 27.8109 173.153 27.8109C174.131 27.8109 174.92 27.589 175.52 27.1453C176.13 26.6919 176.595 26.0455 176.914 25.2062L179.994 25.9297C179.48 27.454 178.633 28.6261 177.452 29.4461C176.271 30.2565 174.837 30.6616 173.153 30.6616Z" fill="#BCBCC0"></path>
<path d="M189.155 30.6616C187.596 30.6616 186.226 30.324 185.045 29.6487C183.873 28.9637 182.958 28.0135 182.3 26.798C181.651 25.5728 181.326 24.1547 181.326 22.5436C181.326 20.8361 181.646 19.3553 182.285 18.1012C182.934 16.847 183.834 15.8775 184.987 15.1926C186.139 14.5076 187.48 14.1652 189.01 14.1652C190.608 14.1652 191.968 14.5366 193.091 15.2794C194.215 16.0126 195.052 17.0593 195.604 18.4195C196.166 19.7797 196.389 21.3956 196.272 23.2672H193.237V22.1674C193.217 20.3537 192.869 19.0128 192.191 18.1446C191.523 17.2763 190.501 16.8422 189.126 16.8422C187.606 16.8422 186.463 17.3197 185.698 18.2748C184.933 19.2299 184.551 20.6094 184.551 22.4134C184.551 24.1306 184.933 25.4619 185.698 26.4073C186.463 27.343 187.567 27.8109 189.01 27.8109C189.959 27.8109 190.777 27.5987 191.465 27.1742C192.162 26.7401 192.704 26.1227 193.091 25.322L196.069 26.2626C195.459 27.6614 194.534 28.7467 193.295 29.5184C192.055 30.2806 190.676 30.6616 189.155 30.6616ZM183.563 23.2672V20.9085H194.762V23.2672H183.563Z" fill="#BCBCC0"></path>
<path d="M1.46145 40.0767H5.45003V4.69956H16.7119C19.7151 4.69956 21.4044 6.10528 21.8736 6.80814L9.43862 10.3224V41.4824C13.349 40.5453 21.8267 38.4836 24.4545 37.7338C27.0822 36.9841 29.4598 34.1415 30.32 32.8139C31.7278 30.5491 34.1679 23.4893 32.6663 13.3681C31.1647 3.24699 22.9685 0.560517 19.0582 0.482422H1.46145C0.522956 0.482422 0.131919 1.26337 0.0537109 1.65385V38.671C0.0537109 39.7956 0.992202 40.0767 1.46145 40.0767Z" fill="#BCBCC0"></path>
</svg>