<svg width="154" height="46" viewBox="0 0 154 46" fill="none" xmlns="http://www.w3.org/2000/svg">
<path d="M18.2864 32.2871H32.5602V36.0895H13.166V9.87571H32.5602V13.6782H18.2864H17.7864V14.1782V20.2612V20.7612H18.2864H31.5966V24.5637H18.2864H17.7864V25.0637V31.7871V32.2871H18.2864ZM41.0891 27.9253H40.5891V28.4253V36.0895H35.9687V9.71552H46.2278C49.6011 9.71552 52.3693 10.5761 54.2837 12.1255C56.1854 13.6646 57.2898 15.9188 57.2898 18.8204C57.2898 21.8052 56.1833 24.0566 54.286 25.5735C52.3738 27.1023 49.6063 27.9253 46.2278 27.9253H41.0891ZM40.7497 23.6229V24.1229H41.2497H46.3884C48.2214 24.1229 49.828 23.7087 50.9882 22.819C52.1673 21.9149 52.83 20.5612 52.83 18.8204C52.83 17.1508 52.1604 15.8382 50.9834 14.9582C49.8252 14.0923 48.2217 13.6781 46.3884 13.6781H41.2497H40.7497V14.1781V23.6229ZM127.823 20.2612V10.0358H132.443V36.2496H127.447L120.366 24.3281L120.364 24.3256C119.417 22.7524 117.501 18.7738 116.86 17.3362L115.903 17.5398C115.903 18.5831 115.937 19.7284 115.974 20.9507C115.977 21.0522 115.98 21.1542 115.983 21.2567C116.024 22.5972 116.064 24.0313 116.064 25.5439V36.0895H111.443V9.87571H116.44L123.511 21.782C123.752 22.2606 124.099 22.939 124.486 23.6947C125.417 25.515 126.578 27.7837 127.026 28.789L127.983 28.5854C127.983 27.4484 127.947 26.2056 127.91 24.8991L127.903 24.6491C127.862 23.2482 127.823 21.774 127.823 20.2612ZM59.2527 28.1249H63.892C64.0206 29.8672 64.8249 31.1384 66.0129 31.9756C67.2885 32.8745 68.9667 33.2475 70.6367 33.2475C71.7168 33.2475 73.1985 33.0838 74.4301 32.5453C75.6706 32.0029 76.7571 31.0243 76.7571 29.3858C76.7571 28.4955 76.4459 27.7743 75.9054 27.1941C75.3783 26.6282 74.6505 26.2142 73.8369 25.8815C72.71 25.4206 71.3057 25.0762 69.8657 24.7231C69.2562 24.5736 68.6403 24.4226 68.0364 24.2605L68.0319 24.2593C65.8674 23.6999 63.8677 23.0389 62.4092 21.9248C60.9847 20.8368 60.0564 19.3016 60.0564 16.8994C60.0564 14.2795 61.286 12.3429 63.1175 11.0441C64.964 9.73475 67.4267 9.0752 69.8338 9.0752C72.6609 9.0752 75.3199 9.70304 77.2567 11.047C79.0606 12.2988 80.2691 14.1904 80.4019 16.8797H75.7536C75.5665 15.316 74.8415 14.2619 73.7662 13.6104C72.6245 12.9185 71.1478 12.7176 69.6732 12.7176C68.6535 12.7176 67.4723 12.9273 66.5275 13.4879C65.5582 14.0631 64.8374 15.0143 64.8374 16.4192C64.8374 16.9972 64.938 17.5211 65.2605 17.9852C65.577 18.4405 66.0654 18.7777 66.7151 19.075C67.9267 19.6294 69.9231 20.138 73.0475 20.9341C73.2164 20.9772 73.3886 21.021 73.5642 21.0658L73.5642 21.0659L73.5757 21.0686C73.6221 21.0793 73.6703 21.0903 73.7203 21.1017C74.8074 21.3503 76.7114 21.7856 78.3777 22.8443C80.0935 23.9344 81.5382 25.6712 81.5382 28.5854C81.5382 31.0049 80.5959 33.0586 78.7747 34.5185C76.9421 35.9875 74.1742 36.8899 70.4761 36.8899C67.4986 36.8899 64.6408 36.1465 62.5615 34.6252C60.6087 33.1963 59.316 31.0651 59.2527 28.1249ZM86.7339 12.982C88.819 10.541 91.8871 9.0752 95.8482 9.0752C99.8092 9.0752 102.877 10.541 104.962 12.982C107.056 15.4324 108.195 18.9096 108.195 22.9825C108.195 27.0555 107.056 30.5327 104.962 32.983C102.877 35.424 99.8092 36.8899 95.8482 36.8899C91.8871 36.8899 88.819 35.424 86.7339 32.983C84.6407 30.5327 83.5015 27.0555 83.5015 22.9825C83.5015 18.9096 84.6407 15.4324 86.7339 12.982ZM88.1219 22.9825C88.1219 25.4452 88.6555 27.9506 89.8882 29.8574C91.1356 31.7871 93.0934 33.0874 95.8482 33.0874C98.6791 33.0874 100.64 31.7905 101.871 29.854C103.084 27.9447 103.574 25.4385 103.574 22.9825C103.574 20.5198 103.041 18.0145 101.808 16.1077C100.561 14.178 98.6029 12.8776 95.8482 12.8776C93.0172 12.8776 91.0561 14.1746 89.8258 16.1111C88.6128 18.0204 88.1219 20.5265 88.1219 22.9825Z" fill="#BCBCC0" stroke="#BCBCC0"></path>
</svg>