<svg width="69" height="62" viewBox="0 0 69 62" fill="none" xmlns="http://www.w3.org/2000/svg">
<mask id="mask0_6708_20799" style="mask-type:luminance" maskUnits="userSpaceOnUse" x="0" y="0" width="69" height="62">
<path d="M68.7475 0H0.984375V61.5384H68.7475V0Z" fill="white"></path>
</mask>
<g mask="url(#mask0_6708_20799)">
<path d="M68.5627 26.6292C68.5627 26.6008 68.5627 26.5866 68.5627 26.5583C68.4918 25.821 68.4351 25.0978 68.3359 24.3747C68.2508 23.7649 68.1515 23.1552 68.1515 23.2545C67.7262 20.7306 66.8754 18.235 65.8261 15.8954C64.9328 13.9103 63.8268 11.9819 62.4089 10.3513C61.5581 9.3729 60.5939 8.49378 59.6297 7.61466C59.2044 7.21764 58.7648 6.8348 58.3253 6.45196C56.6663 5.0482 54.7946 3.89967 52.7953 3.04891C52.4266 2.89294 52.0438 2.73697 51.661 2.58099C51.5333 2.5101 51.4057 2.42502 51.2923 2.35412C50.952 2.14143 50.1154 1.87203 50.1154 1.87203C50.1154 1.87203 48.9669 1.475 48.5273 1.37575C48.3146 1.33321 47.9885 1.27649 47.5915 1.2056C46.9959 1.04962 46.4004 0.893651 45.7907 0.780216C44.784 0.567526 43.7772 0.425732 42.7563 0.312297C41.1257 0.127965 39.5093 0.0287106 37.8786 -0.0138275C36.3614 -0.0421862 34.986 0.213042 33.4972 0.468271C31.03 0.879472 28.5911 1.43247 26.1948 2.14143C24.8903 2.52428 23.6284 2.9922 22.3948 3.54519C20.9768 4.18326 19.8141 5.09074 18.3537 5.65791C14.7237 7.04749 12.058 9.57141 9.16543 12.0953C7.87511 13.2155 6.58479 14.3499 5.57806 15.7678C4.52878 17.2424 3.77728 18.9723 3.03995 20.6313C1.45187 24.2045 1.1541 28.6568 1.01231 32.5845C0.998127 32.9673 1.02649 33.5771 0.998128 33.8181C1.06902 34.7256 0.95559 34.2718 0.998128 34.8532C0.983949 35.0375 1.02649 35.6614 1.06902 36.2711C1.12574 36.9517 1.16828 37.4197 1.11156 37.2353C1.19664 38.0152 1.23918 38.5115 1.25335 38.6958C1.31007 39.1921 1.36679 39.6884 1.43769 40.1846C1.46605 40.4824 1.50858 40.766 1.57948 41.0638C1.59366 41.0638 1.70709 41.8153 1.83471 42.5951C2.00486 43.7153 2.00486 43.5451 2.01904 43.3325C2.06158 43.3608 2.16083 43.8571 2.27427 44.3817C2.35935 44.6795 2.44442 44.9631 2.57203 45.4735C3.47951 47.6004 4.20266 49.6423 5.57806 51.5423C6.9251 53.414 8.62662 55.0162 10.5692 56.264C11.1364 56.6185 11.7177 56.9588 12.2991 57.2849C12.767 57.5543 13.2491 57.7954 13.7454 57.9939C14.5678 58.3058 15.4327 58.3909 16.2835 58.5894C18.4245 59.0857 20.438 60.2768 22.6358 60.5462C25.0747 60.844 27.5561 61.0708 29.9949 61.3402C33.8942 61.7514 37.6234 61.482 41.4802 61.0708C42.9265 60.9148 44.3586 60.5462 45.7623 60.1633C47.1661 59.7805 48.6124 59.582 49.9878 59.1141C51.5333 58.5894 52.9796 57.8379 54.4401 57.1431C55.7021 56.5334 56.8364 55.8954 57.8573 54.917C58.5663 54.2222 59.2185 53.4707 59.8283 52.6766C60.4238 51.9251 61.0902 51.2587 61.6574 50.493C61.9552 50.096 62.2529 49.6706 62.5365 49.2311C62.5365 49.2452 62.5507 49.2594 62.5507 49.2594C63.2029 48.1109 63.9119 47.1325 64.5925 46.0265C65.2873 44.9064 65.5709 43.6586 66.0105 42.425C66.45 41.163 67.0314 39.8869 67.4709 38.6249C67.8963 37.3913 68.2508 33.336 68.4209 32.0599C68.4351 31.9464 68.4351 31.8897 68.4209 31.8755C68.6336 30.1315 68.6762 28.3732 68.5627 26.6292Z" fill="#BCBCC0"></path>
</g>
<path d="M15.7309 26.9691C15.6175 26.4303 14.6958 26.3594 14.2563 26.3169C13.8025 26.2602 13.3346 26.2885 12.895 26.3878C12.3137 26.5437 11.7465 26.7564 11.1652 26.955C10.8674 27.0542 10.5838 27.1535 10.286 27.2385C9.88902 27.352 9.52036 27.5647 9.10916 27.6356C8.98155 27.6639 8.86811 27.6639 8.7405 27.6781C8.58452 27.7065 8.23004 27.7206 8.10243 27.8341C8.03153 27.905 8.04571 28.0042 8.04571 28.0893C8.04571 28.2169 8.03153 28.3445 8.00317 28.4721C7.91809 29.0819 7.80466 29.6916 7.7054 30.2871C7.53525 31.308 7.32256 32.3289 7.18077 33.3498C7.10987 33.8745 7.05315 34.3991 6.99644 34.9237C6.98226 35.0514 6.96808 35.1932 6.93972 35.3208C6.883 35.6044 6.84046 35.9021 6.81211 36.1857C6.79793 36.3559 6.78375 36.5402 6.74121 36.7103C6.67031 37.1357 6.62777 37.5611 6.58524 38.0007C6.57106 38.2275 6.5427 38.4402 6.51434 38.6671C6.50016 38.8231 6.42926 39.0216 6.52852 39.1634C6.64195 39.3194 6.72703 39.4895 6.84046 39.6313C7.0248 39.8582 7.25166 40.0283 7.50689 40.1559C7.98899 40.3544 8.72632 40.3261 8.96737 39.8014C9.05244 39.5888 9.10916 39.3619 9.13752 39.1208C9.22259 38.5962 9.29349 38.0432 9.37857 37.5044C9.42111 37.2208 9.47782 36.9372 9.53454 36.6536C9.5629 36.5118 9.59126 36.3842 9.61962 36.2424C9.66215 36.0439 9.73305 35.6327 9.94574 35.5618C10.201 35.4909 10.4562 35.5476 10.7256 35.4484C10.9808 35.3491 11.2077 35.2073 11.4771 35.1364C11.6614 35.0939 11.8458 35.0372 12.0301 34.9521C12.2144 34.8387 12.3704 34.7111 12.5264 34.5409C12.5547 34.5125 12.5689 34.4842 12.5831 34.4558C12.7249 34.2006 12.8383 33.9312 12.9092 33.6618C12.9376 33.5342 13.0794 33.1797 13.0368 33.0663C12.9801 32.9528 12.8383 32.8961 12.7533 32.811C12.2995 32.414 11.2502 32.5133 10.754 32.7259C10.5555 32.811 10.3286 32.9812 10.2293 32.7118C10.1584 32.5133 10.2435 32.2439 10.2577 32.0312C10.2577 31.7192 10.286 31.4214 10.3286 31.1095C10.3853 30.8259 10.4704 30.5423 10.5413 30.2587C10.6122 30.0035 10.6122 29.6632 10.7965 29.4789C10.839 29.4931 10.8958 29.4931 10.9383 29.4931C10.9808 29.4789 11.0234 29.4789 11.0659 29.4789C12.3988 29.5072 13.7458 29.0677 14.9369 28.458C15.1779 28.3303 15.4615 28.1886 15.5891 27.9475C15.6458 27.8341 15.66 27.7065 15.6458 27.5788C15.6458 27.3803 15.7451 27.1818 15.7167 26.9833L15.7309 26.9691ZM33.4551 32.7259C33.4976 32.3715 33.526 32.017 33.5544 31.6625C33.5685 31.4073 33.6111 31.1379 33.682 30.8968C33.7387 30.6983 33.8379 30.4998 33.9797 30.3438C34.0648 30.2871 34.1641 30.2304 34.2491 30.1878C34.3484 30.1311 34.4335 30.0744 34.5327 30.0177C34.632 29.961 34.6887 29.8901 34.788 29.8334C34.8447 29.805 34.8872 29.7766 34.9439 29.7625C34.9865 29.7483 35.0148 29.7625 35.029 29.805V29.8192C35.0716 30.0035 35.0857 30.202 35.0574 30.3864C35.0432 30.5565 35.029 30.7408 35.0148 30.911C35.0007 31.1095 34.9865 31.3222 34.9723 31.5207C34.9723 31.5491 34.9723 31.5632 34.9581 31.5916C34.9156 31.8468 34.8872 32.1021 34.8447 32.3573C34.8305 32.4424 34.8305 32.5133 34.8163 32.5983C34.8021 32.7118 34.788 32.8252 34.788 32.9528C34.788 33.1655 34.788 33.364 34.8021 33.5767C34.8163 33.8036 34.9014 34.0163 35.0432 34.2006C35.3551 34.6827 35.7805 34.8529 36.2484 34.3849C36.3477 34.2857 36.5462 34.2431 36.5604 34.0872C36.6738 32.9812 36.8298 31.8185 37.0283 30.7125C37.1417 30.1878 37.1985 29.649 37.1843 29.1102C37.1843 28.7699 37.0992 28.4438 36.9432 28.146C36.7873 27.9191 36.5462 27.749 36.2768 27.6639C35.738 27.4512 35.1708 27.2102 34.5895 27.2811C34.4051 27.2953 34.2208 27.352 34.0506 27.4229C33.8663 27.5505 33.682 27.6923 33.5402 27.8482C33.3559 28.0042 33.1857 28.1744 33.0297 28.3587L32.9163 28.5147C32.8879 28.5572 32.8454 28.5714 32.8029 28.5572C32.5618 28.5005 32.3208 28.4154 32.0797 28.3445C31.4416 28.1886 30.7752 28.3303 30.2789 28.7557C30.2506 28.7841 30.2222 28.7983 30.1939 28.8266C30.1797 28.8408 30.1655 28.8408 30.1513 28.855C30.123 28.8692 30.0946 28.8692 30.0662 28.855C29.9812 28.7841 29.8961 28.7274 29.7968 28.6707C29.6409 28.5714 29.3715 28.3445 29.1729 28.3729C29.1446 28.3729 29.1162 28.3871 29.0879 28.3871C29.0311 28.3871 29.0028 28.3303 28.9602 28.3162C28.8468 28.2736 28.7334 28.3303 28.6908 28.4296C28.6199 28.5714 28.6483 28.7557 28.6199 28.9117C28.4214 29.7625 28.1946 30.6132 28.0528 31.4782C27.8826 32.3998 27.7692 33.3357 27.6983 34.2857C27.6841 34.4984 27.6841 34.7111 27.6841 34.9237C27.6699 35.2357 28.1237 35.7745 28.4214 35.8738C28.7192 35.9872 29.0879 35.8312 29.3715 35.7603C29.414 35.7462 29.4423 35.732 29.4565 35.6894C29.5274 35.576 29.57 35.4626 29.5983 35.3491C29.6267 35.1932 29.655 35.0514 29.6976 34.8954C29.7968 34.5693 29.8394 34.2431 29.8252 33.917C29.8394 33.4207 29.9386 32.9528 30.0095 32.4707C30.0521 32.1446 30.123 31.8326 30.1939 31.5207C30.208 31.4498 30.2506 31.3789 30.3073 31.3364C30.4491 31.2371 30.5767 31.1237 30.7043 31.0244C30.7468 30.9961 30.7894 30.9677 30.8319 30.9394C30.9595 30.8685 31.0872 30.7976 31.2148 30.7125C31.3849 30.5849 31.5693 30.4856 31.7536 30.3864C31.7678 30.3864 31.7819 30.3864 31.7961 30.4005L31.8103 30.4147C31.8103 30.4714 31.7961 30.514 31.7819 30.5707C31.6969 30.8685 31.6401 31.1662 31.5834 31.4782C31.5693 31.5774 31.5409 31.6767 31.5125 31.7759C31.3991 32.1304 31.3424 32.4991 31.2431 32.8677C31.2006 33.0237 31.1722 33.1797 31.1439 33.3498C31.1155 33.4775 31.1013 33.6051 31.1013 33.7469C31.1013 34.0872 31.2148 34.4133 31.4275 34.6685L31.7394 35.0514C31.7819 35.1081 31.8387 35.1648 31.8954 35.2073C32.0372 35.2924 32.2073 35.2499 32.3633 35.2641C32.5193 35.2782 32.6894 35.2924 32.8454 35.3066C32.9163 35.3066 32.973 35.2924 33.0155 35.2357C33.0581 35.1932 33.0864 35.1364 33.1148 35.0939C33.1432 35.0372 33.1715 34.9946 33.1999 34.9379C33.2282 34.8954 33.2566 34.8387 33.2566 34.7678C33.285 34.5693 33.2991 34.3708 33.3417 34.1864C33.37 34.0163 33.3984 33.8603 33.4267 33.6901C33.4409 33.3498 33.4126 33.0379 33.4551 32.7259ZM31.314 21.3399C31.3991 20.475 31.4416 19.61 31.4133 18.7451C31.3282 18.3197 31.1864 17.8943 30.9879 17.5115C30.761 17.0578 30.3782 16.6891 29.9103 16.4906C29.4991 16.3346 29.0453 16.363 28.6199 16.3772C28.3647 16.3913 28.0953 16.3772 27.8684 16.5048C27.7975 16.5473 27.7266 16.5757 27.6558 16.6182C27.6416 16.6324 27.6132 16.6324 27.599 16.6324C27.5849 16.6324 27.5707 16.6324 27.5565 16.6182C27.5281 16.5757 27.5423 16.5189 27.4998 16.4764C27.5281 16.3772 27.5281 16.2637 27.5423 16.1645C27.5565 15.9943 27.5849 15.81 27.6274 15.6398C27.6699 15.3846 27.6983 15.1294 27.7408 14.8741C27.7834 14.6756 27.8117 14.4629 27.8117 14.2644C27.8117 14.0517 27.7266 13.8532 27.5849 13.7114C27.4856 13.6264 27.3722 13.5555 27.2587 13.4987C27.1737 13.4562 27.0886 13.4137 26.9893 13.3995C26.8192 13.3711 26.649 13.357 26.4789 13.3428C26.0818 13.3002 25.6706 13.3286 25.2736 13.3995C25.2453 13.3995 25.2169 13.4137 25.1885 13.4278C25.1602 13.442 25.146 13.4704 25.1318 13.4987C25.1176 13.6405 25.0893 13.7823 25.0468 13.9099C25.0184 13.995 25.0184 14.0801 25.0326 14.1652C25.0326 14.2219 25.0609 14.2644 25.0893 14.307C25.1176 14.3353 25.146 14.3637 25.1885 14.392C25.2169 14.4204 25.2594 14.4346 25.2878 14.4629C25.2027 14.6615 25.2169 14.945 25.1885 15.1577L25.1035 15.9376L24.9759 17.1428C24.9333 17.4973 24.9475 17.8943 24.8199 18.2346C24.7632 18.4332 24.7064 18.6458 24.6781 18.8585C24.5505 19.5675 24.437 20.2907 24.3094 20.9996C24.2243 21.5243 24.1676 22.0489 24.1535 22.5735C24.1393 22.6161 24.1393 22.6728 24.1535 22.7295C24.1818 22.7862 24.1818 22.8429 24.1676 22.8997C24.2102 22.9706 24.2102 23.0556 24.2669 23.1265C24.2811 23.2116 24.3236 23.2967 24.3803 23.3676C24.3803 23.3818 24.3803 23.3959 24.3803 23.4101C24.3661 23.6937 24.6781 23.9489 24.9191 23.9915C25.1318 24.0198 25.3445 24.0056 25.5572 23.9489C25.7983 23.8922 26.0535 23.8355 26.2945 23.7788C26.5923 23.7362 26.8192 23.4952 26.8759 23.2116C26.9468 22.8004 27.0177 22.4034 27.0886 21.9922C27.1595 21.5384 27.2304 21.0705 27.3013 20.6168C27.3296 20.3757 27.358 20.1489 27.3863 19.9078C27.4005 19.8086 27.3722 19.3974 27.4998 19.3548C27.5707 19.3406 27.6416 19.3265 27.7125 19.2981C27.9535 19.2272 28.1095 19.0287 28.2655 18.8444C28.4498 18.6458 28.6483 18.4473 28.861 18.2772C28.8894 18.263 28.9177 18.2488 28.9461 18.263C29.0028 18.2772 29.0453 18.3339 29.0595 18.3906C29.1304 19.7802 28.6767 21.1414 28.6625 22.5452C28.6625 22.8146 28.705 23.2258 28.9744 23.3676C29.2155 23.481 29.5274 23.4101 29.7827 23.4101C29.967 23.4243 30.1513 23.3818 30.3215 23.2967C30.364 23.2683 30.4065 23.24 30.4349 23.2116C30.6476 23.0698 30.8319 22.8997 30.9879 22.7011C31.1155 22.4743 31.1864 22.219 31.2289 21.9496C31.2431 21.7369 31.2857 21.5384 31.314 21.3399ZM38.3186 17.7525C38.3186 17.71 38.3044 17.6817 38.2761 17.6533C38.2761 17.6391 38.2619 17.6249 38.2477 17.6249V17.6108C38.2335 17.5257 38.2194 17.4548 38.191 17.3839C38.1626 17.313 38.1343 17.2279 38.0776 17.1712L38.0634 17.157C38.0492 17.1145 38.0209 17.0719 37.9925 17.0294C37.9641 16.9869 37.9216 16.9443 37.8932 16.916C37.7514 16.6749 37.4679 16.5048 37.2268 16.363C37.0567 16.2637 36.8723 16.1786 36.688 16.1077C36.6313 16.0652 36.5746 16.0368 36.5037 16.0085C36.4469 15.9801 36.3761 15.9518 36.3052 15.9376C36.2059 15.8809 36.0925 15.8525 35.9649 15.8383C35.7805 15.8242 35.5962 15.8242 35.4119 15.8242C34.9723 15.7816 34.5044 15.81 34.1357 15.9943C34.0506 16.0227 33.9656 16.051 33.8663 16.0936C33.7387 16.1928 33.6253 16.2921 33.4976 16.3913C33.3984 16.4764 33.2991 16.5757 33.2141 16.6749C33.1006 16.8025 33.0014 16.9443 32.9021 17.0861C32.6752 17.3981 32.4909 17.7384 32.3633 18.0929C32.3066 18.2772 32.2499 18.4473 32.1931 18.6317C32.1081 18.9011 32.0797 19.1705 32.0939 19.4399C32.0939 19.6526 32.1081 19.8653 32.1648 20.078C32.2924 20.5884 32.4058 20.9854 32.7887 21.3683L33.1148 21.6944C34.0365 22.6161 35.4119 22.4317 36.5462 22.0347C37.0425 21.8646 37.4395 21.5952 37.5813 21.0847C37.5955 21.0138 37.6097 20.9287 37.6097 20.8436C37.6238 20.631 37.5955 20.4324 37.5104 20.2339C37.4962 20.2198 37.4962 20.1914 37.482 20.1772C37.482 20.163 37.4679 20.163 37.4679 20.1489C37.4111 20.1063 37.3544 20.0638 37.2977 20.0071C37.2835 19.9929 37.2835 19.9929 37.2694 19.9787C37.1701 19.9645 37.0708 19.9645 36.9858 19.9503C36.7731 19.922 36.5604 19.9503 36.3619 20.0212C36.135 20.0921 35.9081 20.1772 35.6813 20.2481C35.5111 20.3048 35.341 20.3616 35.1708 20.4183C34.9723 20.475 34.7738 20.475 34.5753 20.4041C34.4193 20.3616 34.2917 20.2623 34.1924 20.1347C34.1641 20.0921 34.1641 20.0354 34.1924 19.9929C34.2491 19.9362 34.32 19.8653 34.3909 19.8227C34.476 19.766 34.5611 19.7235 34.6462 19.6809C34.7454 19.61 34.873 19.5675 35.0007 19.5675C35.029 19.5675 35.0574 19.5533 35.0857 19.5391C35.1141 19.525 35.1424 19.525 35.1708 19.525C35.2559 19.525 35.341 19.525 35.4119 19.4966C35.7096 19.4683 36.0074 19.3832 36.2768 19.2697C36.3193 19.2556 36.3619 19.2414 36.4044 19.2272C36.688 19.1563 36.9574 19.0571 37.2268 18.9436C37.3119 18.9011 37.4111 18.8727 37.4962 18.8444C37.5671 18.8302 37.638 18.8018 37.7089 18.7593C37.794 18.7167 37.8932 18.66 37.9783 18.6033C38.0634 18.5466 38.1485 18.5041 38.2194 18.4473C38.2761 18.419 38.3044 18.3623 38.3044 18.2914C38.3186 18.0787 38.3186 17.9085 38.3186 17.7525ZM36.532 17.6817C36.291 17.7384 36.0499 17.8234 35.7947 17.866C35.6387 17.8943 35.4827 17.9511 35.341 18.0078C35.1566 18.0787 34.9723 18.1212 34.788 18.1496C34.5895 18.1638 34.3909 18.2205 34.2208 18.3197C34.1641 18.3481 34.1074 18.3623 34.0365 18.3764C34.0365 18.3764 34.0223 18.3764 34.0223 18.3623C34.0223 18.3481 34.0223 18.3339 34.0223 18.3197C34.0223 18.3197 34.0223 18.3197 34.0223 18.3055C34.0223 18.2914 34.0223 18.2772 34.0223 18.263C34.1499 17.866 34.5753 17.6817 34.9156 17.5257C35.1283 17.4122 35.341 17.3413 35.582 17.2988C35.8089 17.2846 36.0357 17.2988 36.2626 17.3555C36.3193 17.3981 36.3902 17.4264 36.4611 17.4406C36.4753 17.4406 36.4895 17.4406 36.5037 17.4548C36.532 17.4831 36.5746 17.5115 36.6171 17.5399C36.6313 17.5824 36.6455 17.6108 36.6738 17.6533C36.6313 17.6391 36.5887 17.6675 36.532 17.6817ZM27.3296 30.911C27.4998 30.7692 27.5565 30.5281 27.4714 30.3296C27.4431 30.2446 27.4147 30.1737 27.3722 30.0886C27.3296 30.0035 27.2729 29.9468 27.202 29.8901C26.8333 29.649 26.408 29.4789 25.9826 29.3796C25.5005 29.252 24.9759 29.2804 24.5079 29.4647C24.4654 29.4789 24.4087 29.5072 24.3661 29.5356C24.2527 29.6207 24.1393 29.6916 24.0258 29.7766C23.9833 29.805 23.9549 29.8334 23.9266 29.8617C23.884 29.8901 23.8415 29.8901 23.799 29.8759C23.6855 29.8475 23.5721 29.7908 23.4728 29.7341C23.3736 29.6774 23.2743 29.6348 23.1751 29.5923C23.0191 29.5498 22.849 29.5214 22.6788 29.5356C22.6646 29.5356 22.6646 29.5356 22.6504 29.5356C22.5086 29.5498 22.3952 29.6348 22.3385 29.7483C22.3101 29.805 22.2818 29.8475 22.2392 29.9043C22.1683 30.0319 22.1258 30.1595 22.1258 30.3013C22.0833 30.4856 22.0407 30.6841 22.0124 30.8685C21.9415 31.2655 21.8989 31.6625 21.8564 32.0595C21.743 33.208 21.7004 34.2999 21.6862 35.4484C21.6862 35.8879 21.8564 36.2566 22.0407 36.6395C22.0691 36.7245 22.14 36.7954 22.2109 36.838C22.2392 36.8521 22.2676 36.8805 22.296 36.8947C22.5937 37.0932 22.9907 37.0081 23.2885 36.838C23.643 36.6395 23.7422 36.2991 23.7281 35.9021C23.7139 35.4342 23.7423 34.9663 23.8415 34.4984C23.8982 34.2431 23.9549 33.9879 24.0117 33.7327C24.1109 33.3215 24.0826 32.9528 24.3378 32.5983C24.593 32.258 24.8766 31.9319 25.1744 31.6341C25.4296 31.3647 25.8833 31.0386 26.2945 31.0528C26.4789 31.0811 26.6774 31.0953 26.8617 31.0811C26.9893 31.067 27.1169 31.0102 27.2304 30.9394C27.2587 30.9677 27.3013 30.9394 27.3296 30.911ZM43.6075 27.9333C43.5792 27.8624 43.565 27.8057 43.5224 27.7348C43.4374 27.5505 43.3665 27.2527 43.2389 27.1109C43.0971 26.9691 42.9553 26.8415 42.7993 26.7139C42.615 26.5579 42.4023 26.3311 42.1896 26.2318C42.0478 26.1751 41.8918 26.1609 41.7358 26.1751C41.2821 26.1751 40.8425 26.2176 40.403 26.3311C40.3463 26.3452 40.2896 26.3594 40.2328 26.3736C40.1194 26.3878 40.0201 26.4303 39.9209 26.487C39.8925 26.5012 39.8642 26.5296 39.8216 26.5438C39.6373 26.6288 39.4813 26.7848 39.3821 26.955C39.3254 27.0542 39.2545 27.1535 39.1836 27.2385C39.1127 27.3236 39.056 27.4229 38.9992 27.5079C38.8574 27.7774 38.7298 28.0609 38.6306 28.3587C38.588 28.4863 38.5455 28.6139 38.4888 28.7274C38.4746 28.7416 38.4746 28.7699 38.4746 28.7841C38.4604 28.8833 38.4321 28.9684 38.4037 29.0535C38.2619 29.5072 38.1626 29.9752 38.1201 30.4572C38.0634 30.9393 37.9925 31.4498 38.191 31.9177C38.2761 32.1021 38.3895 32.2864 38.5313 32.4424C38.6447 32.5983 38.7724 32.726 38.9142 32.8536C39.0985 32.9954 39.297 33.1088 39.5097 33.208C40.2612 33.5484 41.112 33.6618 41.9202 33.52C42.2463 33.4775 42.6717 33.4066 42.8844 33.123C42.9694 32.9812 43.0262 32.8252 43.0262 32.6551C43.0403 32.5274 43.1112 32.017 43.012 31.9319C42.9836 31.9035 42.9553 31.8752 42.9411 31.8468C42.8986 31.7618 42.8418 31.6909 42.7851 31.62C42.7426 31.5491 42.6717 31.4923 42.5866 31.4498C42.5441 31.4356 42.4874 31.4073 42.4448 31.3931C42.3456 31.3647 42.2321 31.3364 42.1329 31.308C41.9769 31.2655 41.8209 31.2371 41.6649 31.2088C41.5232 31.1946 41.3672 31.1662 41.2254 31.1662C41.2112 31.1662 41.197 31.152 41.197 31.1379V31.1237C41.2679 31.067 41.3388 31.0244 41.4097 30.9677C41.6508 30.7834 41.8776 30.6132 42.1329 30.4289C42.3597 30.2587 42.5582 30.046 42.7993 29.8901C43.1112 29.7199 43.3948 29.4647 43.6075 29.1811C43.6784 29.0677 43.7351 28.9259 43.7493 28.7983C43.7493 28.6281 43.7351 28.4438 43.6926 28.2736C43.6501 28.1602 43.6359 28.0468 43.6075 27.9333ZM41.9627 28.3729C41.9202 28.4154 41.8635 28.458 41.8067 28.4863C41.6366 28.5856 41.4806 28.6848 41.3105 28.7699C40.956 28.9684 40.6157 29.2095 40.3037 29.4789C40.2328 29.5498 40.1478 29.5923 40.0769 29.649C40.0485 29.6632 40.0201 29.6632 39.9918 29.6348C39.9634 29.6065 39.9351 29.564 39.9351 29.5214C39.9351 29.4505 39.9492 29.3796 39.9918 29.3087C40.0627 29.2095 40.0627 29.0819 40.1194 28.9826C40.1194 28.8975 40.1336 28.8124 40.1761 28.7274C40.1903 28.6848 40.2187 28.6281 40.2328 28.5856C40.2612 28.543 40.2896 28.5005 40.3463 28.4863C40.4881 28.4154 40.6157 28.3303 40.7291 28.2311C40.7716 28.2027 40.8142 28.1744 40.8567 28.146C40.9418 28.146 41.0269 28.0893 41.112 28.1035C41.1687 28.1177 41.2112 28.1177 41.2679 28.1035C41.4381 28.0893 41.6224 28.1035 41.7926 28.146C41.8635 28.1602 41.9202 28.2027 41.9485 28.2594C41.9485 28.2736 41.9627 28.2878 41.9627 28.302C41.9769 28.3445 41.9627 28.3587 41.9627 28.3729Z" fill="#191A1B"></path>
<path d="M26.5795 43.8855C26.5795 43.772 26.5653 43.6586 26.5511 43.5452C26.5653 43.134 26.466 42.737 26.2533 42.3825C26.1683 42.1414 26.0548 41.9146 25.9414 41.7019C25.8989 41.5884 25.828 41.4892 25.7571 41.4041C25.7003 41.2907 25.6153 41.2056 25.5302 41.1205C25.2041 40.7093 24.7929 40.369 24.325 40.1138C24.2115 40.0003 24.0555 39.9153 23.8996 39.8727L23.4033 39.6884C23.3749 39.6742 23.3608 39.6742 23.3324 39.6742C23.0913 39.5891 22.8503 39.5324 22.5951 39.4757C22.5384 39.4615 22.4816 39.4615 22.4249 39.4615C22.1272 39.3906 21.7727 39.4473 21.4749 39.4899C21.1204 39.5466 20.7659 39.6175 20.4114 39.7026C20.1988 39.7593 19.9861 39.816 19.7734 39.9153C19.5749 40.0003 19.3764 40.128 19.1778 40.2272C19.1211 40.2556 18.5965 40.3974 18.5965 40.4257V40.4399C18.5256 40.4683 18.4689 40.4966 18.4122 40.5392C18.398 40.5392 18.3838 40.5533 18.3696 40.5533C18.3554 40.5533 18.3413 40.5817 18.3413 40.5959C18.2136 40.7235 18.1569 40.9078 18.1853 41.0921C18.2136 41.319 18.0577 41.7019 18.0151 41.9146C18.0151 42.2549 17.8733 42.6519 17.8024 42.9922V43.0064C17.7741 43.0489 17.7599 43.1056 17.7741 43.1623C17.6323 43.8713 17.5189 44.5803 17.4621 45.2892C17.4054 45.9131 17.292 46.5228 17.1927 47.1467C17.1502 47.4587 17.1077 47.7706 17.0935 48.0826C17.0509 48.3803 17.0509 48.6781 17.0651 48.9759C17.0793 49.0893 17.1218 49.2027 17.136 49.3162C17.1502 49.4154 17.1644 49.5147 17.1927 49.6139C17.2636 49.7557 17.3771 49.8833 17.5189 49.9826L18.9935 51.1028C19.0786 51.1595 19.1778 51.1878 19.2771 51.1737C20.057 51.2587 20.7234 50.9043 21.3756 50.5214C21.6876 50.3371 21.9995 50.1386 22.3115 49.9542C22.5242 49.8266 22.7369 49.6848 22.9496 49.5289C23.3891 49.1886 23.7578 48.7348 24.2257 48.4087C24.3108 48.3662 24.3817 48.3094 24.4526 48.2527C24.5944 48.1251 24.7078 47.955 24.8496 47.8132C25.0056 47.6572 25.1474 47.5012 25.2891 47.3452C25.5727 47.0191 25.828 46.6646 26.0548 46.296C26.4093 45.7004 26.6078 45.0198 26.6362 44.325C26.5936 44.1691 26.5936 44.0273 26.5795 43.8855ZM23.6869 44.2683C23.2473 45.2751 22.51 46.1116 21.6876 46.8064C21.5174 46.9624 21.3331 47.1042 21.1346 47.2318C20.9503 47.3594 20.7659 47.487 20.5958 47.643C20.4682 47.7564 20.3264 47.8557 20.1846 47.9691C20.1279 48.0117 20.0286 47.9975 19.9861 47.9408C19.9719 47.9266 19.9577 47.8982 19.9435 47.8841C19.9577 47.7564 19.9719 47.6288 20.0144 47.5012C20.0853 47.1751 20.0711 46.8064 20.1137 46.4803C20.1562 46.1258 20.1846 45.7713 20.2271 45.4027L20.3122 44.5661L20.3406 44.2683L20.4398 43.3608C20.454 43.1765 20.454 42.6377 20.6241 42.5243C20.6525 42.5101 20.6809 42.5101 20.695 42.5384C20.695 42.4675 20.7659 42.4108 20.8368 42.3825C21.163 42.2407 21.5316 42.2407 21.8861 42.2123C22.2689 42.1556 22.666 42.184 23.0346 42.3116C23.4175 42.4392 23.7152 42.7228 23.8854 43.0914C24.0272 43.5026 23.8429 43.8997 23.6869 44.2683Z" fill="#191A1B"></path>
<path d="M34.0659 52.1939V52.2081C34.0801 52.2223 34.0943 52.2081 34.0943 52.1939C34.0943 52.1797 34.0943 52.1797 34.0943 52.1655C34.0801 52.1797 34.0801 52.1797 34.0659 52.1939ZM32.8607 45.0333C33.0309 44.6647 33.0309 44.2535 33.0592 43.8564C33.0876 43.5587 33.0734 43.2751 33.0167 42.9773C32.9883 42.8639 32.9458 42.7504 32.9032 42.637C32.5062 41.843 31.8965 41.1765 31.145 40.7086C30.9607 40.5952 30.748 40.5101 30.5211 40.4817C30.2801 40.4534 30.0816 40.581 29.8689 40.6803C29.6136 40.7795 29.3584 40.8788 29.1174 41.0064C28.7345 41.2474 28.4226 41.5877 28.1957 41.9706C27.6427 42.8355 27.1181 43.7855 27.1464 44.8064C27.1606 45.0475 27.189 45.2744 27.2315 45.5154C27.274 45.7706 27.3308 46.1818 27.4725 46.4087C27.6002 46.5789 27.7278 46.7632 27.8412 46.9475C27.9972 47.2595 28.2241 47.5289 28.5076 47.7274C28.5644 47.7699 28.6069 47.8125 28.6494 47.855C28.7062 47.8975 28.7629 47.9259 28.8338 47.9401C29.089 48.0677 29.3726 48.1386 29.6562 48.167C29.9256 48.1953 30.195 48.167 30.4502 48.0819C30.4786 48.0677 30.4927 48.0535 30.5211 48.0393C30.592 48.0252 30.6629 47.9968 30.7338 47.9684C30.7905 47.9259 30.8472 47.8834 30.9181 47.855C30.9748 47.8267 31.0174 47.7983 31.0741 47.7699C31.1308 47.7274 31.1875 47.6849 31.2443 47.6281C31.4569 47.4438 31.6129 47.1319 31.7831 46.8908L32.3644 46.0401C32.4637 45.8983 32.492 45.6856 32.5771 45.5296M30.9465 44.1542C30.8898 44.3102 30.8189 44.452 30.748 44.5938C30.6913 44.7072 30.6487 44.8064 30.5778 44.9199C30.5211 45.0191 30.4502 45.1184 30.3793 45.2035C30.351 45.2318 30.3368 45.2602 30.3084 45.2885C30.2375 45.3736 30.1383 45.4445 30.0816 45.5296C30.0674 45.558 30.0532 45.5863 30.0248 45.6147C29.9823 45.6856 29.8972 45.7281 29.8547 45.799C29.798 45.8841 29.7554 45.9833 29.6987 46.0684C29.6845 46.0968 29.6562 46.1251 29.6278 46.1535C29.5995 46.1818 29.5569 46.1677 29.5286 46.1393C29.4009 45.8699 29.3442 45.5721 29.3868 45.2744C29.4293 45.005 29.486 44.7214 29.5569 44.452C29.5995 44.1826 29.6987 43.9415 29.8547 43.7146C29.9965 43.5303 30.1808 43.3885 30.3226 43.19C30.3793 43.0907 30.436 43.0057 30.5211 42.9348C30.6204 42.8639 30.7338 42.8355 30.8331 42.7646C30.8472 42.7504 30.8756 42.7504 30.904 42.7363C31.0741 42.7079 31.2868 42.6512 31.2868 42.8781C31.2868 42.9064 31.2868 42.9206 31.2868 42.949C31.301 43.3743 31.0741 43.7855 30.9465 44.1542ZM26.5651 44.4803C26.5792 44.4661 26.5792 44.4661 26.5651 44.4803C26.5651 44.4661 26.5651 44.4661 26.5651 44.4803ZM20.6948 36.5682C20.553 36.4548 20.4254 36.3414 20.2978 36.2138C20.2127 36.1287 20.0142 35.9869 19.9717 35.8735C19.9433 35.7884 19.9008 35.7033 19.8441 35.6182C19.8441 35.6041 19.8299 35.604 19.8299 35.5899C19.9858 34.3988 19.9433 33.1368 20.1844 31.96C20.2269 31.7473 20.2694 31.5488 20.2836 31.3219C20.2978 31.2226 20.312 31.1234 20.3403 31.0241C20.3262 30.9958 20.3262 30.9674 20.312 30.9532C20.1702 30.5987 19.8724 30.4569 19.5747 30.2443C19.4612 30.1734 19.362 30.1166 19.2485 30.0316C19.1493 29.9607 19.0358 29.9181 18.9082 29.9039C18.8657 29.8898 18.8373 29.9181 18.8231 29.9607C18.7806 30.0741 18.7522 30.1875 18.7097 30.3151C18.6814 30.4002 18.653 30.4144 18.5679 30.3719C18.2843 30.2301 18.0433 29.989 17.703 29.9607C17.5895 29.9607 17.4619 29.9607 17.3485 29.989C17.0507 30.0457 16.7671 30.1308 16.4835 30.2443C16.285 30.3577 16.1007 30.5137 15.9731 30.698C15.0514 31.9032 14.4134 33.307 14.0731 34.7958C14.0305 34.966 14.0022 35.1361 13.988 35.3063C13.9738 35.5473 13.988 35.8026 14.0163 36.0436C14.0305 36.1854 14.0589 36.313 14.1014 36.4406C14.1298 36.5257 14.1581 36.625 14.1723 36.71C14.3141 37.3197 14.6402 37.8869 15.2783 38.0713C15.6328 38.1705 16.0156 38.0996 16.3843 38.0145C16.6962 37.9578 16.994 37.8586 17.2634 37.7168C17.4903 37.5608 17.6888 37.3481 17.8306 37.1071C17.8448 37.0929 17.8448 37.0929 17.8589 37.0787C17.9015 37.0645 17.944 37.022 17.944 36.9653C17.944 36.9511 17.9582 36.9511 17.9724 36.9369C18.0149 36.9227 18.0716 36.9227 18.1142 36.9369C18.1709 36.9653 18.2418 36.9794 18.2985 36.9794C18.5112 36.9936 18.6672 37.1354 18.8515 37.1921C19.0358 37.2489 19.2485 37.2772 19.4329 37.3198C19.6172 37.3623 19.7873 37.4615 19.9717 37.5041C20.0851 37.5183 20.1844 37.5041 20.2836 37.4757C20.312 37.4757 20.3403 37.4615 20.3545 37.4332C20.3971 37.3906 20.4396 37.3481 20.4821 37.3198C20.4963 37.3056 20.5105 37.2914 20.5247 37.2772C20.5956 37.1212 20.6523 36.9653 20.6948 36.7951C20.6948 36.7809 20.6948 36.7668 20.6948 36.7526C20.8083 36.6959 20.7657 36.6108 20.6948 36.5682ZM18.2418 32.2577C18.1 32.7824 18.0149 33.3212 17.9015 33.8458C17.8022 34.3421 17.6179 34.8667 17.6463 35.363C17.6463 35.4339 17.6179 35.5048 17.5612 35.5473C17.2634 35.8167 16.9231 36.0153 16.5403 36.1429C16.3985 36.1854 16.1007 36.3414 15.9873 36.1996C15.9731 36.1712 15.9589 36.1429 15.9447 36.1145C15.8455 35.7317 16.1432 35.2354 16.2709 34.9093C16.2709 34.7675 16.4268 34.5264 16.4694 34.3846L16.6962 33.8175C16.838 33.463 16.9656 33.1227 17.1216 32.7682C17.2351 32.5271 17.4336 32.1017 17.7455 32.0876C17.8873 32.0309 18.0291 32.0025 18.1851 32.0025C18.2134 32.0025 18.2276 32.0025 18.2276 32.0025C18.2418 32.0167 18.2701 32.0309 18.2701 32.045C18.2701 32.1301 18.256 32.1868 18.2418 32.2577ZM35.8384 47.4296C35.8525 47.4154 35.8525 47.4296 35.8384 47.4296V47.4296Z" fill="#191A1B"></path>
<path d="M56.9935 24.2181C56.9935 24.133 56.9651 24.0479 56.9368 23.977C56.8942 23.8919 56.8517 23.821 56.795 23.7501C56.5681 23.4382 56.3129 23.1404 56.0718 22.8285C56.0293 22.7718 55.9726 22.7292 55.9159 22.7292C55.4196 22.6725 54.8808 22.8994 54.427 23.0979C54.2427 23.1688 54.0867 23.268 53.9308 23.3957C53.7322 23.58 53.6188 23.821 53.477 24.0337C53.321 24.2748 53.1651 24.53 53.0375 24.7994C52.8673 25.1397 52.8531 25.6502 52.8389 26.0188C52.8248 26.2599 52.8248 26.6853 52.9807 26.8696L52.9949 26.8838C53.0091 26.9263 53.0233 26.9547 53.0516 26.9972C53.0942 27.0681 53.1367 27.1248 53.1934 27.1674C53.4628 27.6353 53.874 27.933 54.2994 28.2592C54.4838 28.401 54.4554 28.4577 54.2994 28.6137C54.1576 28.7413 54.0016 28.8405 53.8173 28.8972C53.5904 28.9823 53.3352 29.0249 53.0942 29.1099C52.8389 29.195 52.5979 29.3084 52.3852 29.4502C52.1442 29.6062 51.9598 29.7905 51.7046 29.8898C51.6904 29.8898 51.6762 29.8756 51.6621 29.8756C51.6053 29.8614 51.5344 29.904 51.5486 29.9749C51.5628 30.3152 51.4777 31.3219 51.9315 31.407C52.5979 31.5204 53.3494 31.5488 53.9875 31.3361C54.583 31.1659 55.1218 30.8398 55.5472 30.4144C55.93 30.0032 56.3271 29.4219 56.4547 28.8689C56.4972 28.6846 56.4972 28.486 56.4263 28.3159C56.4121 28.2734 56.398 28.2308 56.3838 28.1883C56.3696 28.1599 56.3696 28.1457 56.3554 28.1316C56.3412 28.1032 56.3271 28.0748 56.3129 28.0607C56.242 27.8905 56.1569 27.7345 56.0435 27.5927L55.5047 26.7703C55.4054 26.6144 55.292 26.4584 55.1785 26.3166C55.0084 26.1181 55.0367 26.0047 55.1076 25.7778C55.1502 25.6076 55.2636 25.48 55.4196 25.4091C55.8166 25.2532 56.2845 25.2531 56.6532 25.0688C56.9793 24.9128 57.0219 24.6576 56.9935 24.3173C56.9935 24.2464 56.9935 24.2322 56.9935 24.2181ZM35.2566 48.2095V48.2379C35.2566 48.2237 35.2566 48.2237 35.2566 48.2095ZM35.2566 48.2521V48.2379C35.2424 48.2379 35.2424 48.2379 35.2566 48.2521ZM51.6621 25.48C51.7897 25.3666 51.8889 25.239 51.9598 25.083C52.1442 24.686 52.2151 24.2748 52.4277 23.8919C52.6688 23.5091 52.8389 23.0837 52.924 22.63C52.9807 22.1621 52.8531 21.68 52.5554 21.3113C52.3568 21.0561 51.7046 20.5314 51.3785 20.8717C51.2509 21.0419 51.1516 21.2262 51.0949 21.4247C50.8964 21.9494 50.712 22.474 50.5419 22.9986C50.4568 23.268 50.3859 23.5374 50.3008 23.7927C50.2441 23.9912 50.1449 24.2322 50.2158 24.4307C50.2299 24.4591 50.2441 24.4875 50.2583 24.53C50.2725 24.5584 50.2867 24.6009 50.2867 24.6434L50.3859 25.0688C50.4568 25.3666 50.712 25.5935 51.0098 25.6502C51.2509 25.7069 51.4919 25.636 51.6621 25.48ZM39.8365 33.307C39.8223 33.307 39.8223 33.307 39.8365 33.307Z" fill="#191A1B"></path>
<path d="M49.7343 26.0903C49.5074 25.8918 49.2947 25.6224 49.0253 25.4806C48.7701 25.3813 48.4865 25.3246 48.2029 25.3104C48.1462 25.3104 48.1037 25.3104 48.0469 25.3104C47.9761 25.3246 47.9052 25.3388 47.8343 25.3529C47.7208 25.3813 47.6074 25.4097 47.494 25.4522C47.3238 25.5231 47.1678 25.6082 46.9977 25.6933C46.9693 25.7074 46.9551 25.7216 46.9268 25.7358C46.7992 25.7925 46.6999 25.8776 46.6148 25.7216C46.5723 25.6224 46.5298 25.5373 46.473 25.4522C46.3596 25.3529 46.232 25.2537 46.0902 25.1828C46.0618 25.1686 46.0335 25.1544 46.0051 25.1403C45.9626 25.1403 45.92 25.1403 45.8775 25.1544C45.679 25.2253 45.4947 25.3246 45.3387 25.4522C45.2962 25.4806 45.2536 25.5231 45.2253 25.5656C45.2111 25.6082 45.1969 25.6507 45.1827 25.7074C45.0976 26.303 44.9842 26.8985 44.9417 27.5082C44.8566 28.6426 44.7573 29.7627 44.7148 30.8971C44.7006 31.1098 44.7006 31.3225 44.7148 31.5351C44.7432 31.762 44.7999 31.9747 44.8991 32.1874C44.9417 32.2867 44.9842 32.3859 45.0551 32.4852C45.0976 32.5561 45.1685 32.5986 45.2536 32.627C45.3387 32.6411 45.4096 32.6411 45.4947 32.627C45.5939 32.5986 45.6932 32.5844 45.7924 32.5844C45.9626 32.5561 46.1186 32.4993 46.2603 32.4143C46.3454 32.3717 46.388 32.2725 46.4872 32.2583C46.5014 32.2583 46.5156 32.2299 46.5298 32.2158C46.8133 31.8046 46.7424 31.2657 46.7141 30.7978C46.6857 30.2165 46.6999 29.6351 46.7708 29.0538C46.7708 28.9829 46.785 28.912 46.8133 28.8411C46.9693 28.5008 47.3096 28.203 47.6074 27.9903C47.7917 27.8627 47.9761 27.7351 48.1887 27.65C48.3731 27.5649 48.6141 27.4373 48.8126 27.494C48.8977 27.5224 48.997 27.5507 49.082 27.5791C49.1529 27.6075 49.238 27.6216 49.3231 27.6075C49.3798 27.5933 49.4223 27.5933 49.4791 27.5649C49.55 27.5507 49.7485 27.2672 49.791 27.1963C49.8903 27.0261 49.9612 26.8276 49.9753 26.6291C49.9895 26.5582 49.9753 26.5015 49.947 26.4306C49.9186 26.303 49.8335 26.1895 49.7343 26.0903ZM20.6099 42.6943H20.6241V42.6801L20.6099 42.6943ZM13.9598 17.9797C14.0732 18.1357 14.059 18.3483 14.0874 18.5327C14.1158 18.7454 14.1867 18.9439 14.3143 19.1282C14.5695 19.5111 15.0091 19.7946 15.477 19.7521C15.6755 19.7237 15.874 19.667 16.0725 19.5961L17.3203 19.1566C17.5613 19.0715 17.9584 18.8304 17.8591 19.2416C17.8166 19.426 17.774 19.6103 17.7457 19.7946C17.6606 20.1775 17.5897 20.5603 17.5046 20.9573C17.3061 21.9641 17.1501 22.985 16.8098 23.9492C16.7389 24.1193 16.7106 24.3179 16.7531 24.5022C16.8382 24.8141 17.1785 25.0126 17.3912 25.2395C17.4479 25.2962 17.5046 25.3529 17.5755 25.3955C17.6322 25.4238 17.7031 25.4522 17.774 25.4522C18.1427 25.5231 18.5255 25.4522 18.8942 25.438C19.0785 25.4097 19.2629 25.3671 19.4472 25.3104C19.6741 25.2679 19.745 25.0694 19.8017 24.8708C19.83 24.7149 19.8726 24.5589 19.9293 24.4171L20.0711 23.8925C20.1136 23.7365 20.1703 23.5663 20.2129 23.4104C20.2412 23.2544 20.2271 23.1126 20.2696 22.9566C20.2696 22.9283 20.2696 22.9141 20.2696 22.8857C20.2696 22.8007 20.2696 22.7298 20.298 22.6447C20.3405 22.4178 20.3405 22.1626 20.383 21.9357L20.5248 21.085C20.6099 20.7305 20.6666 20.376 20.695 20.0215C20.7517 19.6528 20.7942 19.3125 20.8226 18.9581C20.851 18.8163 20.8651 18.6745 20.851 18.5327C20.8226 18.4192 20.6666 18.1924 20.7375 18.0789C20.7801 18.0222 21.0069 17.9655 21.0778 17.9371C21.404 17.8379 21.7301 17.7528 22.0704 17.6819L22.3398 17.6252C22.4816 17.5968 22.6234 17.5685 22.7652 17.5259C23.0204 17.4692 23.2614 17.3983 23.5167 17.2991C23.7435 17.214 23.9562 17.0864 24.1973 17.1006C24.2965 17.1006 24.3674 17.0438 24.3816 16.9446C24.3958 16.9021 24.3958 16.8595 24.3958 16.817C24.3391 16.5617 24.254 16.3065 24.1264 16.0796C24.0838 15.9804 24.0413 15.8953 23.9988 15.7961C23.7435 15.3707 23.2047 15.1155 22.7368 15.0304C22.2689 14.9453 21.7584 15.0729 21.2905 15.158C19.5039 15.5125 17.7457 15.9804 16.0158 16.5476C15.3068 16.7744 14.4561 17.0155 13.8747 17.5259C13.8464 17.5543 13.818 17.5827 13.8038 17.611C13.7755 17.6819 13.7896 17.767 13.8322 17.8237C13.8605 17.8804 13.9173 17.923 13.9598 17.9797ZM35.7676 47.5578C35.7535 47.572 35.7535 47.572 35.7676 47.5578V47.5578Z" fill="#191A1B"></path>
<path d="M39.496 41.8293C39.4109 41.4465 39.2974 41.0637 39.1273 40.695C38.9855 40.383 38.8437 40.0286 38.5601 39.8301C38.5318 39.8017 38.5034 39.7875 38.4609 39.7592C38.4467 39.745 38.4325 39.7308 38.4183 39.7024C38.2907 39.5606 38.1347 39.433 37.9788 39.348C37.9362 39.3054 37.9079 39.2771 37.8653 39.2345C37.8512 39.2203 37.8228 39.2062 37.7944 39.192C37.7803 39.1778 37.7803 39.1778 37.7661 39.1636C37.5817 39.1211 37.3974 39.0644 37.2131 38.9935C37.1847 39.0076 37.1422 39.0076 37.1138 39.036C37.0855 39.036 37.0571 39.0502 37.0287 39.0502C36.8586 39.0502 36.6884 39.0927 36.5466 39.1778C36.5041 39.2062 36.4616 39.2203 36.4049 39.2487C36.1922 39.3621 35.8802 39.4756 35.6817 39.6174C35.3698 39.8301 35.072 40.0853 34.8309 40.3689C34.7033 40.5107 34.5757 40.6525 34.4765 40.8226C34.3914 40.9786 34.3063 41.1346 34.2212 41.2905C33.9235 41.8293 33.7959 42.4391 33.8242 43.0488C33.8384 43.9279 33.8951 44.8495 34.3914 45.601C34.4765 45.7712 34.5899 45.9272 34.7317 46.069C34.8026 46.1115 34.8877 46.1399 34.9727 46.1682C35.0578 46.2108 35.1571 46.2533 35.2422 46.2958C35.3839 46.3667 35.6392 46.4376 35.781 46.5085C35.8944 46.5794 36.022 46.6503 36.1354 46.707C36.1496 46.7212 36.1638 46.7354 36.1638 46.7638C36.1496 46.863 36.1354 46.9481 36.0929 47.0332C35.6959 47.7563 35.1854 48.4227 34.5757 48.9899C34.2638 49.2877 33.9518 49.5996 33.6541 49.9116C33.6399 49.9258 33.6257 49.9399 33.6257 49.9683C33.5832 50.0675 33.5264 50.1668 33.4697 50.2519C33.4414 50.2802 33.4272 50.3086 33.4272 50.3511C33.4272 50.3653 33.4414 50.3937 33.4414 50.4078C33.4414 50.422 33.4414 50.4504 33.4272 50.4646C33.3279 50.734 33.4839 50.975 33.5123 51.2444C33.5264 51.4004 33.5548 51.372 33.5832 51.528C33.5832 51.5989 33.6115 51.684 33.6399 51.7407C33.7391 51.925 33.9093 52.0668 34.122 52.1094C34.2354 52.1377 34.3489 52.1519 34.4623 52.1661C34.6041 52.1661 34.7317 52.0952 34.8309 51.9959C35.0578 51.7549 35.2989 51.528 35.5683 51.3437C35.8093 51.1877 36.022 51.0176 36.2347 50.8332C36.419 50.6489 36.575 50.422 36.7593 50.2235L37.128 49.8123L37.7235 49.1317C37.7944 49.0466 37.8795 48.9616 37.9362 48.8623C38.0213 48.7205 38.1064 48.5787 38.1773 48.4227C38.4892 47.728 38.7444 47.0048 38.9146 46.2675C38.9571 46.069 38.9997 45.8846 39.0422 45.6861C39.1131 45.36 39.2124 45.0481 39.2833 44.7219C39.3542 44.41 39.3825 44.0839 39.4392 43.7719C39.4818 43.5876 39.5385 43.3891 39.5669 43.2047C39.5669 43.1622 39.581 43.1338 39.581 43.0913C39.5952 42.6801 39.581 42.2547 39.496 41.8293ZM33.6966 50.0108C33.6824 50.0108 33.6682 50.0108 33.6824 49.9825L33.6966 49.9683L33.7108 49.9825C33.6966 49.9966 33.6966 50.0108 33.6966 50.0108ZM37.5392 42.2547C37.4967 42.5808 37.4258 42.907 37.3691 43.2331C37.3549 43.2756 37.3549 43.3182 37.3549 43.3607C37.3265 43.5734 37.2982 43.7861 37.2556 43.9846C37.2273 44.1264 37.1847 44.2682 37.128 44.41C37.1138 44.4383 37.0996 44.4525 37.0713 44.4667C37.0146 44.4809 36.9578 44.4951 36.9011 44.4951C36.7452 44.4951 36.575 44.5092 36.419 44.5092C36.2772 44.5092 36.1354 44.5092 36.0078 44.5234C35.9511 44.5234 35.8944 44.5234 35.8377 44.5092C35.7668 44.5092 35.6959 44.4525 35.6817 44.3816C35.6675 44.3391 35.6675 44.2965 35.6534 44.254C35.5683 43.8853 35.4832 43.6159 35.5966 43.2331C35.6534 43.0204 35.7242 42.8077 35.8235 42.6092C36.1213 42.042 36.6459 41.7584 37.2414 41.645C37.284 41.6308 37.3407 41.6308 37.3974 41.6308C37.525 41.6167 37.6243 41.7159 37.6101 41.8435C37.5676 41.9853 37.5534 42.1271 37.5392 42.2547Z" fill="#191A1B"></path>
</svg>