<svg width="167" height="40" viewBox="0 0 167 40" fill="none" xmlns="http://www.w3.org/2000/svg">
<g clip-path="url(#clip0_6722_4607)">
<path d="M58.3386 16.9863C54.9986 17.1254 52.1874 14.5091 52.0482 11.1691C52.0482 10.9743 52.0482 10.8072 52.0482 10.6124C51.9369 7.16109 54.6367 4.29425 58.0881 4.18292C58.1437 4.18292 58.2272 4.18292 58.2829 4.18292C59.9529 4.09942 61.5951 4.68392 62.8754 5.76942L61.9569 6.82708C60.9271 5.88075 59.5632 5.35192 58.1716 5.40758C55.4996 5.46325 53.3564 7.68992 53.4399 10.3619C53.4399 10.4176 53.4399 10.4732 53.4399 10.5289C53.2451 13.201 55.2769 15.5111 57.9489 15.7059C58.0881 15.7059 58.2272 15.7059 58.3942 15.7059C59.7024 15.7338 60.9827 15.2884 62.0404 14.4813V11.3918H58.1994V10.1671H63.3486V15.1215C61.9847 16.3461 60.2034 17.0141 58.3664 17.0141" fill="#BCBCC0"></path>
<path d="M80.1601 5.63019H72.5616V9.86085H79.3529V11.1412H72.5616V15.4832H80.2436V16.7635H71.1699V4.34985H80.1601V5.63019Z" fill="#BCBCC0"></path>
<path d="M96.5537 4.34985H97.9454V16.7635H96.832L88.7604 6.57652V16.7635H87.3965V4.34985H88.7325L96.5537 14.2864V4.34985Z" fill="#BCBCC0"></path>
<path d="M115.091 5.63019H107.492V9.86085H114.312V11.1412H107.492V15.4832H115.174V16.7635H106.101V4.34985H115.091V5.63019Z" fill="#BCBCC0"></path>
<path d="M130.9 16.7635L127.254 11.9206H123.691V16.7635H122.327V4.34985H127.671C130.399 4.34985 132.18 5.82502 132.18 8.05168C132.18 9.97218 130.705 11.5587 128.785 11.6979L132.626 16.7635H130.9ZM127.588 5.63019H123.747V10.668H127.588C129.453 10.668 130.789 9.72169 130.789 8.10735C130.789 6.49302 129.564 5.68585 127.588 5.68585" fill="#BCBCC0"></path>
<path d="M151.72 16.7635H150.244L148.797 13.4792H142.034L140.558 16.7635H139.111L144.789 4.26636H146.097L151.72 16.7635ZM145.374 5.88069L142.535 12.1989H148.213L145.374 5.88069Z" fill="#BCBCC0"></path>
<path d="M158.594 4.34985H159.986V15.4554H167V16.7635H158.594V4.34985Z" fill="#BCBCC0"></path>
<path d="M64.1554 36.08H62.5967L61.1215 32.7956H54.358L52.8829 36.08H51.4355L57.1135 23.5271H58.4217L64.1554 36.08ZM57.8094 25.1693L54.9704 31.4875H60.6484L57.8094 25.1693Z" fill="#BCBCC0"></path>
<path d="M73.0066 36.0243H71.5871V24.891H67.4121V23.6106H77.2094V24.891H73.0066V36.0243Z" fill="#BCBCC0"></path>
<path d="M83.166 23.6106H84.5577V34.744H91.5717V36.0243H83.166V23.6106Z" fill="#BCBCC0"></path>
<path d="M109.663 36.0797H108.16L106.685 32.7954H99.9215L98.4463 36.0797H96.999L102.677 23.5825H103.985L109.663 36.0797ZM103.317 25.169L100.534 31.4872H106.212L103.317 25.169Z" fill="#BCBCC0"></path>
<path d="M124.721 23.6106H126.085V36.0243H124.944L116.928 25.8373V36.0243H115.536V23.6106H116.872L124.721 33.5471V23.6106Z" fill="#BCBCC0"></path>
<path d="M137.636 36.0243H136.216V24.891H132.041V23.6106H141.839V24.891H137.636V36.0243Z" fill="#BCBCC0"></path>
<path d="M149.994 23.6106H147.851V36.0243H149.994V23.6106Z" fill="#BCBCC0"></path>
<path d="M162.073 36.2468C158.65 36.2746 155.839 33.5191 155.839 30.0678C155.839 29.9843 155.839 29.9008 155.839 29.8451C155.727 26.3938 158.455 23.4991 161.906 23.4156C161.99 23.4156 162.073 23.4156 162.129 23.4156C163.938 23.36 165.72 24.0836 166.972 25.3918L165.97 26.3938C164.968 25.3083 163.549 24.696 162.046 24.696C159.374 24.696 157.203 26.867 157.203 29.539C157.203 29.6225 157.203 29.7338 157.203 29.8173C157.036 32.4893 159.067 34.7994 161.739 34.9664C161.851 34.9664 161.934 34.9664 162.046 34.9664C163.576 34.9664 165.052 34.2985 166.081 33.1851L167 34.0758C165.747 35.4953 163.91 36.3025 162.018 36.2468" fill="#BCBCC0"></path>
<path d="M19.2329 0.926337C8.60056 0.95417 -0.0277662 9.61034 6.715e-05 20.2427C0.0279005 30.875 8.68407 39.5034 19.3164 39.4755C29.9487 39.4477 38.5492 30.8194 38.5492 20.2149C38.5492 9.52683 29.8931 0.898503 19.2329 0.926337ZM4.7039 24.3899L13.2487 16.012C15.6146 13.7019 19.4277 13.7019 21.7936 16.012L13.3044 24.3899C10.9386 26.6722 7.18106 26.6722 4.81523 24.3899M25.4397 24.362C23.0739 26.6444 19.3164 26.6444 16.9506 24.362L25.4397 15.9842C27.8056 13.674 31.5631 13.674 33.9289 15.9842L25.4397 24.362Z" fill="#BCBCC0"></path>
</g>
<defs>
<clipPath id="clip0_6722_4607">
<rect width="167" height="39" fill="white" transform="translate(0 0.92627)"></rect>
</clipPath>
</defs>
</svg>