<svg width="131" height="50" viewBox="0 0 131 50" fill="none" xmlns="http://www.w3.org/2000/svg">
<path d="M92.4313 18.7045V17.6293H95.4131V33.4769C95.4131 36.7364 94.4523 38.9728 92.9766 40.3959C91.4972 41.8224 89.449 42.4812 87.1808 42.4812C83.2066 42.4812 80.7276 39.9774 79.6765 37.7672L82.4154 36.6363C83.1573 38.1156 84.7385 39.7367 87.1808 39.7367C88.7644 39.7367 90.0932 39.2479 91.0232 38.2553C91.95 37.2663 92.4313 35.8298 92.4313 34.0301V32.7188V32.3188H92.0313H91.8874H91.695L91.5749 32.4691C90.7731 33.4729 89.1657 34.3677 87.1191 34.3677C82.8008 34.3677 78.8252 30.6159 78.8252 25.7526C78.8252 20.8658 82.8038 17.0761 87.1191 17.0761C89.1627 17.0761 90.7746 17.9895 91.5795 18.9599L91.6995 19.1045H91.8874H92.0313H92.4313V18.7045ZM119.725 30.8555C118.645 32.289 116.402 34.3676 112.728 34.3676C107.796 34.3676 104.126 30.5773 104.126 25.7116C104.126 20.5352 107.84 17.0555 112.276 17.0555C116.73 17.0555 118.931 20.5808 119.67 22.5533L119.67 22.5533L119.674 22.5618L119.937 23.2185L108.177 28.0668L107.777 28.2317L107.973 28.6175C108.461 29.5804 109.097 30.3275 109.9 30.8318C110.702 31.3361 111.646 31.5814 112.724 31.5821C114.773 31.6221 116.242 30.6713 117.309 29.2502L119.725 30.8555ZM107.293 25.4774L107.31 26.0571L107.846 25.8353L115.964 22.4751L116.33 22.3238L116.182 21.9566C115.653 20.6385 114.139 19.7796 112.44 19.7796C110.218 19.7796 107.182 21.7122 107.293 25.4774ZM33.6588 22.9351L24.8529 22.9743V19.9447H37.0819C37.1646 20.5142 37.2068 21.1561 37.2068 21.8599C37.2068 24.6905 36.4398 28.1133 33.9948 30.5507L33.9947 30.5506L33.9891 30.5565C31.6038 33.0334 28.5454 34.3678 24.4529 34.3678C16.896 34.3678 10.5479 28.2277 10.5479 20.7125C10.5479 13.1973 16.896 7.05723 24.4529 7.05723C28.4444 7.05723 31.3318 8.54455 33.536 10.5398L31.3864 12.6827C29.7091 11.2139 27.459 10.0886 24.4529 10.0886C18.5542 10.0886 13.9407 14.8214 13.9407 20.692C13.9407 26.5627 18.5542 31.2954 24.4529 31.2954C28.2615 31.2954 30.4543 29.7597 31.8466 28.3718C33.0135 27.2085 33.7607 25.5617 34.0569 23.3891L34.1191 22.933L33.6588 22.9351ZM56.9581 25.7321C56.9581 30.7071 53.0554 34.3882 48.2531 34.3882C43.4501 34.3882 39.5481 30.727 39.5481 25.7321C39.5481 20.7174 43.4495 17.0761 48.2531 17.0761C53.0567 17.0761 56.9581 20.7174 56.9581 25.7321ZM53.7708 25.7321C53.7708 22.2657 51.24 19.8411 48.2531 19.8411C45.2661 19.8411 42.7354 22.2657 42.7354 25.7321C42.7354 29.1556 45.2641 31.6231 48.2531 31.6231C51.242 31.6231 53.7708 29.1556 53.7708 25.7321ZM76.607 25.7321C76.607 30.7071 72.7044 34.3882 67.902 34.3882C63.099 34.3882 59.197 30.727 59.197 25.7321C59.197 20.7174 63.0984 17.0761 67.902 17.0761C72.7056 17.0761 76.607 20.7174 76.607 25.7321ZM73.4197 25.7321C73.4197 22.2657 70.889 19.8411 67.902 19.8411C64.915 19.8411 62.3843 22.2657 62.3843 25.7321C62.3843 29.1556 64.9131 31.6231 67.902 31.6231C70.8909 31.6231 73.4197 29.1556 73.4197 25.7321ZM92.7191 25.7731C92.7191 22.4213 90.4448 19.8616 87.4685 19.8616C84.4696 19.8616 82.0125 22.4011 82.0125 25.7731C82.0125 29.1297 84.4744 31.6231 87.4685 31.6231C90.4401 31.6231 92.7191 29.1096 92.7191 25.7731ZM101.661 8.1226V33.835H98.5766V8.1226H101.661Z" fill="#BCBCC0" stroke="#BCBCC0" stroke-width="0.8"></path>
</svg>