<svg width="145" height="35" viewBox="0 0 145 35" fill="none" xmlns="http://www.w3.org/2000/svg">
<path fill-rule="evenodd" clip-rule="evenodd" d="M92.6209 24.4865C88.3627 24.4865 84.8977 21.0653 84.8977 16.8525C84.8977 12.6397 88.3627 9.21313 92.6209 9.21313C96.879 9.21313 100.35 12.645 100.35 16.8525C100.35 21.06 96.8846 24.4865 92.6321 24.4865H92.6209ZM92.6209 6.95532C87.0352 6.95532 82.4959 11.3966 82.4959 16.8631C82.4959 22.3297 87.0409 26.7709 92.6209 26.7709C98.2009 26.7709 102.746 22.3244 102.746 16.8631C102.746 11.4019 98.2009 6.95532 92.6209 6.95532ZM71.7409 7.48657H74.3171L64.7996 30.6437C64.3463 31.7605 63.5438 32.7205 62.4989 33.3961C61.4539 34.0718 60.216 34.4311 58.9496 34.4262H57.5996V32.1525H58.9721C59.7534 32.1554 60.5172 31.9339 61.1622 31.5174C61.8071 31.1008 62.3028 30.509 62.5834 29.8203L64.0515 26.2503L56.3171 7.49188H58.8934L65.3171 23.1159L71.7409 7.48657ZM144.225 26.1759H140.979L132.316 17.1447L131.405 17.9575V26.1759H129.003V0.42627H131.405V15.195L140.231 7.5397H143.37L134.1 15.6094L144.225 26.1759ZM108.09 16.8525C108.09 21.0653 111.549 24.4865 115.813 24.4865C117.349 24.4671 118.845 24.0162 120.109 23.1912C121.373 22.3662 122.349 21.2045 122.911 19.8541H125.46C124.844 21.8278 123.575 23.5633 121.839 24.8062C120.103 26.0491 117.991 26.7339 115.813 26.7603C110.227 26.7603 105.688 22.3137 105.688 16.8525C105.688 11.3913 110.233 6.9447 115.813 6.9447C118.011 6.97187 120.141 7.66929 121.886 8.93298C123.63 10.1967 124.896 11.959 125.493 13.9572H122.951C122.404 12.58 121.431 11.3906 120.157 10.5442C118.884 9.69787 117.37 9.23397 115.813 9.21313C111.549 9.21313 108.09 12.6397 108.09 16.8525ZM76.6515 26.1759H79.059V0.42627H76.6515V26.1759ZM10.3496 24.4865C6.09148 24.4865 2.62648 21.0653 2.62648 16.8525C2.62648 12.6397 6.09148 9.21313 10.3496 9.21313C14.6077 9.21313 18.0727 12.645 18.0727 16.8525C18.0727 21.06 14.6077 24.4865 10.3496 24.4865ZM18.0727 10.4563C17.143 9.36523 15.9673 8.48386 14.6313 7.87638C13.2952 7.26889 11.8324 6.9506 10.3496 6.9447C4.76398 6.9447 0.224609 11.3859 0.224609 16.8525C0.224609 22.319 4.76398 26.7603 10.3496 26.7603C11.8306 26.757 13.2922 26.442 14.6282 25.8382C15.9641 25.2344 17.1408 24.3571 18.0727 23.27V24.1306C18.0862 26.1413 17.2545 28.0749 15.7602 29.5071C14.2659 30.9393 12.231 31.7531 10.1021 31.77C8.95265 31.7697 7.8172 31.5317 6.77549 31.0729C5.73377 30.614 4.81105 29.9453 4.07211 29.1137H1.14711C2.05025 30.6051 3.35343 31.8455 4.92548 32.71C6.49753 33.5746 8.28298 34.0327 10.1021 34.0384C12.8715 34.0202 15.5199 32.964 17.4649 31.102C19.41 29.2401 20.4926 26.7249 20.4746 24.1094V7.49188H18.0727V10.4563ZM27.6352 9.98344C28.4476 9.16241 29.4288 8.50663 30.5188 8.05628C31.6089 7.60593 32.7848 7.37049 33.9746 7.36438V9.63813C32.2842 9.64515 30.6656 10.2839 29.4724 11.4148C28.2792 12.5456 27.6086 14.0766 27.6071 15.6731V26.1759H25.2052V7.49188H27.6071L27.6352 9.98344ZM44.7409 9.21313C46.6172 9.20857 48.4364 9.82281 49.8844 10.9498C51.3324 12.0768 52.3183 13.6459 52.6721 15.3862H36.7871C37.1489 13.6496 38.1371 12.0852 39.5833 10.9595C41.0296 9.8339 42.8443 9.21671 44.7184 9.21313H44.7409ZM55.2596 17.6547L55.2146 16.4806C55.1255 13.8803 53.9559 11.4177 51.9589 9.62571C49.9619 7.83369 47.298 6.85639 44.5438 6.90527C41.7896 6.95415 39.1665 8.02529 37.2422 9.8869C35.3179 11.7485 34.2471 14.2509 34.2615 16.8525C34.2941 19.5029 35.4369 22.0332 37.4397 23.89C39.4426 25.7467 42.1425 26.7787 44.949 26.7603C47.0551 26.7638 49.116 26.1832 50.8759 25.0905C52.6358 23.9979 54.0173 22.4412 54.849 20.6137H52.1602C51.4177 21.7962 50.3615 22.7754 49.0959 23.4546C47.8303 24.1337 46.399 24.4894 44.9434 24.4865C42.9177 24.5061 40.9554 23.8203 39.4312 22.5601C37.907 21.2999 36.9276 19.5536 36.6802 17.6547H55.2427H55.2596Z" fill="#BCBCC0"></path>
</svg>