<svg width="110" height="46" viewBox="0 0 110 46" fill="none" xmlns="http://www.w3.org/2000/svg">
<g clip-path="url(#clip0_6722_4624)">
<path d="M101.569 11.1596H104.727V23.3858H101.569V11.1596ZM105.075 2.78484C105.075 1.75479 104.239 0.92627 103.171 0.92627C102.103 0.92627 101.244 1.75479 101.244 2.78484C101.244 3.81488 102.103 4.62101 103.171 4.62101C104.239 4.62101 105.075 3.81488 105.075 2.78484Z" fill="#BCBCC0"></path>
<path d="M94.8993 13.9983H91.7186V1.47388H94.8993V13.9983ZM91.3936 22.5773C91.3936 23.6324 92.2294 24.4812 93.2973 24.4812C94.3654 24.4812 95.2243 23.6324 95.2243 22.5773C95.2243 21.5221 94.3654 20.6963 93.2973 20.6963C92.2294 20.6963 91.3936 21.5221 91.3936 22.5773Z" fill="#BCBCC0"></path>
<path d="M109.453 9.3424H96.9408V6.1818H109.453V9.3424ZM88.3699 5.85645C87.3157 5.85645 86.4678 6.69307 86.4678 7.7621C86.4678 8.83113 87.3157 9.691 88.3699 9.691C89.424 9.691 90.249 8.83113 90.249 7.7621C90.249 6.69307 89.424 5.85645 88.3699 5.85645Z" fill="#BCBCC0"></path>
<path d="M87.0146 16.0155H99.5267V18.7445H87.0146V16.0155ZM108.098 19.0035C109.152 19.0035 110 18.2864 110 17.3701C110 16.4537 109.152 15.7168 108.098 15.7168C107.043 15.7168 106.219 16.4537 106.219 17.3701C106.219 18.2864 107.043 19.0035 108.098 19.0035Z" fill="#BCBCC0"></path>
<path d="M0 17.0782H3.59601V38.8853H0V17.0782ZM40.421 18.886C40.421 17.7562 39.5333 16.8296 38.3954 16.8296C37.2574 16.8296 36.3242 17.7336 36.3242 18.886C36.3242 20.0385 37.2346 20.8973 38.3954 20.8973C39.5561 20.8973 40.421 20.0159 40.421 18.886ZM40.1251 23.4961H36.6201V38.8853H40.1251V23.4961ZM20.3015 29.5975C20.3015 25.3717 17.5931 23.044 13.0867 23.044C9.96868 23.044 7.46514 24.4452 7.16925 24.5807V38.8627H10.6514V26.5694C11.0384 26.4112 12.0626 26.0044 13.246 26.0044C15.613 26.0044 16.7965 27.3151 16.7965 29.5523V38.8627H20.2787V29.5975H20.3015ZM73.6954 29.5975C73.6954 25.5751 70.8505 23.044 67.2089 23.044C65.0924 23.044 64.1364 23.6542 64.0681 23.6994V16.2646H60.5859V38.8627H64.0681V26.5694C64.0681 26.5694 65.2289 26.0044 66.549 26.0044C68.8932 26.0044 70.2132 27.2699 70.2132 29.5523V38.8627H73.6954V29.5975ZM34.0027 34.5239C34.0027 31.9477 32.1365 30.8178 30.2474 30.0043C29.9288 29.8687 28.9047 29.4393 28.7453 29.3715C27.4253 28.8065 26.5149 28.445 26.5149 27.3829C26.5149 26.592 27.1293 25.8462 28.9956 25.8462C30.862 25.8462 32.3413 26.7501 32.5006 26.8631L33.7979 24.4452C33.7979 24.4452 31.9772 23.0666 28.7681 23.0666C25.3769 23.0666 23.0099 24.8971 23.0099 27.6766C23.0099 30.1625 24.7851 31.2698 26.4466 31.9477C26.6515 32.0381 28.1536 32.6483 28.4722 32.7839C29.7922 33.3036 30.4295 33.846 30.4295 34.7047C30.4295 35.6538 29.5419 36.5125 27.6756 36.5125C25.8093 36.5125 24.034 35.4278 23.7382 35.2696L22.4182 37.6876C22.6002 37.8458 24.7623 39.3147 28.0625 39.3147C31.3626 39.3147 33.9573 37.5746 33.9573 34.5464M57.1492 24.6033V37.778C57.1492 42.501 54.9871 45.8454 49.3882 45.8454C47.2033 45.8454 45.6101 45.4387 45.337 45.3709V42.5236C45.7012 42.6366 47.3171 43.0433 48.9557 43.0433C52.438 43.0433 53.667 41.3259 53.667 38.9757V38.6819C53.4394 38.7949 52.347 39.2921 50.6627 39.2921C45.6556 39.2921 42.9017 35.586 42.9017 31.1794C42.9017 26.5468 45.7922 23.044 51.0269 23.044C54.145 23.044 56.7395 24.4 57.1492 24.5807M53.6442 26.592C53.4167 26.5016 52.3698 26.0271 50.9586 26.0271C48.364 26.0271 46.4067 27.9479 46.4067 31.202C46.4067 34.6821 48.6144 36.3543 50.9586 36.3543C52.3242 36.3543 53.5305 35.8798 53.6442 35.7894V26.6146V26.592ZM80.3185 26.3434H84.2786V23.4961H80.2957V18.8634H76.8362V32.7387C76.8362 36.9419 78.748 38.8853 82.8903 38.8853H84.2786V35.9927C81.4564 35.9927 80.3185 35.1792 80.3185 32.3093V26.3434Z" fill="#BCBCC0"></path>
<path d="M88.6564 37.0806C87.7329 37.0806 87.0146 37.7012 87.0146 38.4501C87.0146 39.199 87.7329 39.8195 88.6564 39.8195C89.5799 39.8195 90.2983 39.199 90.2983 38.4501C90.2983 37.7012 89.5799 37.0806 88.6564 37.0806ZM90.0418 38.4501C90.0418 39.0921 89.4517 39.6055 88.6564 39.6055C87.8612 39.6055 87.2712 39.0921 87.2712 38.4501C87.2712 37.8081 87.8612 37.2732 88.6564 37.2732C89.4517 37.2732 90.0418 37.7868 90.0418 38.4287V38.4501ZM89.0669 38.5998C89.2721 38.5357 89.426 38.3859 89.426 38.1719C89.426 38.0435 89.3748 37.9365 89.2978 37.8509C89.1951 37.744 89.0156 37.7012 88.7847 37.7012H88.0408V39.0921H88.3999V38.6426H88.6821L89.0412 39.0921H89.4773L89.0669 38.5998ZM89.0412 38.1933C89.0412 38.3003 88.9386 38.3859 88.7591 38.3859H88.3999V37.9793H88.7591C88.9386 37.9793 89.0669 38.0435 89.0669 38.1933H89.0412Z" fill="#BCBCC0"></path>
</g>
<defs>
<clipPath id="clip0_6722_4624">
<rect width="110" height="45" fill="white" transform="translate(0 0.92627)"></rect>
</clipPath>
</defs>
</svg>