<svg width="166" height="39" viewBox="0 0 166 39" fill="none" xmlns="http://www.w3.org/2000/svg">
<g clip-path="url(#clip0_6722_4631)">
<path d="M12.7335 0.42627L14.4838 3.47232C14.8339 4.10253 14.8339 4.8728 14.4838 5.50301L4.05197 23.6043L8.98784 32.1472C9.75798 33.4776 11.1932 34.3179 12.7335 34.3179C14.2738 34.3179 15.709 33.4776 16.4792 32.1472L21.415 23.6043L20.1198 21.2935L14.5188 30.9918C14.1688 31.622 13.4686 32.0071 12.7685 32.0071C12.0334 32.0071 11.3683 31.622 11.0182 30.9918L6.71244 23.6043L16.4092 6.79846L18.1595 9.8445C18.5095 10.4747 18.5095 11.245 18.1595 11.8752L11.4033 23.6043L12.7335 25.915L20.0848 13.1707L24.9157 21.5385C25.6508 22.834 25.6508 24.4095 24.9157 25.705L20.0148 34.2129C19.2797 35.5083 16.9343 38.4143 12.7335 38.4143C8.53276 38.4143 6.22235 35.5083 5.45222 34.2129L0.551348 25.705C-0.183783 24.4095 -0.183783 22.834 0.551348 21.5385L12.7335 0.42627Z" fill="#BCBCC0"></path>
<path d="M35.5225 9.49438H38.9181V29.5563H35.5225V9.49438Z" fill="#BCBCC0"></path>
<path d="M43.469 13.1706C44.571 13.1706 45.4643 12.2771 45.4643 11.1749C45.4643 10.0727 44.571 9.1792 43.469 9.1792C42.367 9.1792 41.4736 10.0727 41.4736 11.1749C41.4736 12.2771 42.367 13.1706 43.469 13.1706Z" fill="#BCBCC0"></path>
<path d="M41.7539 15.6216H45.1845V29.5564H41.7539V15.6216ZM54.1811 15.2715C50.2954 15.2715 47.1448 18.0024 47.1448 22.3439C47.1448 26.6854 49.8753 29.3463 54.2161 29.3463C55.9314 29.3463 57.7517 30.2216 57.7517 32.1473C57.7517 34.073 56.2114 35.1583 54.2161 35.1583C52.2207 35.1583 50.5754 33.9679 50.5754 32.1473H47.1448C47.1448 35.8936 50.1554 38.3794 54.2161 38.3794C58.2418 38.3794 61.1823 35.9986 61.1823 32.1473C61.1823 30.3617 60.6222 28.6811 58.3118 27.5257C60.5872 26.4753 61.2523 24.0595 61.2523 22.3089C61.2523 18.0024 58.0668 15.2715 54.1811 15.2715ZM54.2161 26.5104C52.2207 26.5104 50.5754 24.7948 50.5754 22.3439C50.5754 19.9281 52.2207 18.1425 54.2161 18.1425C56.2114 18.1425 57.8217 19.9631 57.8217 22.3439C57.8217 24.7598 56.1764 26.5104 54.2161 26.5104ZM71.1941 15.2715C69.6188 15.2715 68.1135 15.7617 66.8533 17.3372V9.45947H63.4227V29.5214H66.8533V22.449C66.8533 20.3833 68.2536 18.6677 70.2839 18.6677C72.1042 18.6677 73.4345 19.753 73.4345 22.2739V29.5214H76.8651V22.0288C76.9001 17.9324 75.1498 15.2715 71.1941 15.2715ZM85.2316 27.1756C84.8115 27.1756 84.4614 27.0355 84.2514 26.7554C84.0414 26.4753 83.9363 26.0552 83.9363 25.425V18.5626H86.7018L87.0169 15.5866H83.9714V11.7703L80.5057 12.1554V15.6216H77.8803V18.5976H80.5057V25.53C80.5057 26.9655 80.8558 28.0509 81.5209 28.7861C82.186 29.5214 83.2012 29.9065 84.4964 29.9065C85.0916 29.9065 85.6517 29.8365 86.2468 29.6614C86.8419 29.4864 87.367 29.2413 87.822 28.9262L86.6318 26.7204C86.1767 27.0355 85.6867 27.1756 85.2316 27.1756ZM99.3391 22.0638C97.9388 21.1885 96.2935 21.0835 94.6833 20.9785C93.7381 20.9084 92.3028 20.6984 92.3028 19.4729C92.3028 18.5976 93.213 18.1075 94.8583 18.1075C96.1885 18.1075 97.3437 18.4226 98.3239 19.3329L100.249 17.0921C98.639 15.6916 96.9937 15.2715 94.7883 15.2715C92.2328 15.2715 88.8722 16.3919 88.8722 19.613C88.8722 20.9434 89.5723 22.1689 90.7276 22.8691C92.0228 23.6744 93.7031 23.7794 95.1383 23.9545C96.1185 24.0595 97.7288 24.3046 97.4487 25.6701C97.2737 26.6154 96.1185 26.8955 95.3134 26.9305C94.4382 26.9655 93.5631 26.8955 92.6879 26.6854C91.7777 26.4403 91.0426 26.0202 90.2375 25.495L88.4872 27.7008C88.5922 27.7708 88.6972 27.8758 88.6972 27.8758C90.9376 29.7315 94.0531 30.3267 96.8886 29.6964C99.024 29.2063 100.844 27.6658 100.844 25.355C100.914 24.0595 100.494 22.7641 99.3391 22.0638ZM110.646 15.2715C109.071 15.2715 107.215 15.9367 106.13 17.4773L106.025 15.5866H102.699V35.6485L106.13 35.2634V27.9108C107.11 29.4164 109.246 29.9065 110.716 29.9065C115.162 29.9065 117.752 26.5804 117.752 22.554C117.752 18.4576 114.917 15.2715 110.646 15.2715ZM110.366 26.9305C108.02 26.9305 106.445 24.7948 106.445 22.624C106.445 20.4533 107.915 18.1425 110.366 18.1425C112.851 18.1425 114.287 20.4883 114.287 22.624C114.322 24.7948 112.711 26.9305 110.366 26.9305ZM122.233 23.8144C122.618 25.46 124.123 26.8955 126.574 26.8955C127.834 26.8955 129.514 26.2653 130.319 25.46L132.525 27.6307C131.055 29.1363 128.639 29.8715 126.539 29.8715C122.198 29.8715 119.047 27.0005 119.047 22.554C119.047 18.3526 122.303 15.2715 126.294 15.2715C130.494 15.2715 133.995 18.1425 133.645 23.8144H122.233ZM130.319 21.1885C129.934 19.543 128.289 18.1075 126.294 18.1075C124.438 18.1075 122.723 19.3679 122.233 21.1885H130.319ZM138.126 23.8144C138.511 25.46 140.016 26.8955 142.467 26.8955C143.727 26.8955 145.407 26.2653 146.212 25.46L148.418 27.6307C146.947 29.1363 144.532 29.8715 142.432 29.8715C138.091 29.8715 134.94 27.0005 134.94 22.554C134.94 18.3526 138.196 15.2715 142.186 15.2715C146.387 15.2715 149.888 18.1425 149.538 23.8144H138.126ZM146.247 21.1885C145.862 19.543 144.217 18.1075 142.221 18.1075C140.366 18.1075 138.651 19.3679 138.161 21.1885H146.247ZM157.834 29.9065C159.41 29.9065 161.265 29.2413 162.35 27.7008L162.455 29.5564H165.781V9.49449H162.35V17.2672C161.37 15.7617 159.2 15.3065 157.729 15.3065C153.283 15.3065 150.728 18.5976 150.728 22.659C150.728 26.7204 153.564 29.9065 157.834 29.9065ZM158.079 18.2475C160.425 18.2475 162 20.3833 162 22.554C162 24.7247 160.53 27.0355 158.079 27.0355C155.594 27.0355 154.159 24.6897 154.159 22.554C154.159 20.3833 155.734 18.2475 158.079 18.2475Z" fill="#BCBCC0"></path>
</g>
<defs>
<clipPath id="clip0_6722_4631">
<rect width="166" height="38" fill="white" transform="translate(0 0.42627)"></rect>
</clipPath>
</defs>
</svg>