<svg width="198" height="29" viewBox="0 0 198 29" fill="none" xmlns="http://www.w3.org/2000/svg">
<path d="M26.0191 15.9642L21.6326 0.808105H9.48808V3.23047H10.6338C12.0741 3.23047 13.2526 4.08157 13.7108 5.6201L20.4215 28.698H26.5101L29.489 18.4521L29.4562 18.4193C27.4921 18.4193 26.5428 17.6992 26.0191 15.9642ZM50.6028 26.2757C49.1625 26.2757 48.0168 25.3264 47.5912 23.8533L40.8806 0.808105H31.5512L39.6367 28.698H51.7485V26.2757H50.6028ZM0.944336 26.2757V28.7308H11.714V26.3084H0.944336V26.2757Z" fill="#BCBCC0"></path>
<path d="M81.4064 9.94106L76.7254 23.1986H75.4487L70.473 9.94106L69.2291 20.1543C69.1964 20.3507 69.1637 20.6126 69.1637 20.7435C69.1637 21.9874 69.6874 22.2166 71.5206 22.3148V23.1659H65.792V22.3148C67.1996 22.2493 67.6906 21.9547 67.8215 20.8744L69.3928 8.56621C69.5565 7.22409 68.9345 6.83127 67.2978 6.73306V5.9147H72.8954C72.9609 6.43845 73.0591 6.864 73.2555 7.42049L77.2819 18.1575L81.0136 7.35502C81.21 6.83127 81.3737 6.40572 81.4064 5.88196H86.9058V6.70033C85.3018 6.79853 84.6799 7.19135 84.8436 8.53347L86.3493 20.8417C86.513 21.9874 87.004 22.2166 88.3789 22.282V23.1331H80.3916V22.282C82.0938 22.1838 82.6831 21.9219 82.6831 20.7108C82.6831 20.5471 82.6503 20.3179 82.6503 20.1215L81.4064 9.94106ZM99.2141 20.4489C99.2141 21.3 99.4105 21.8237 100.032 21.8237C100.393 21.8237 100.753 21.6928 101.014 21.5946L101.178 22.1183C100.458 22.9694 99.5414 23.4277 98.3957 23.4277C97.0209 23.4277 96.1697 22.6094 95.9079 21.2345C95.1222 22.282 93.8456 23.3623 92.0124 23.3623C90.0484 23.3623 88.739 22.1511 88.739 20.187C88.739 18.092 90.2448 17.2081 92.1106 16.5207L95.8424 15.1786V13.0836C95.8424 11.6433 95.3841 10.6285 94.1075 10.6285C92.9618 10.6285 92.2416 10.9231 91.8815 11.4469C92.6344 11.6105 93.0927 12.2325 93.0927 13.0181C93.0927 14.0984 92.3398 14.7858 91.2268 14.7858C90.1793 14.7858 89.4919 14.0984 89.4919 13.0181C89.4919 10.9558 91.6196 9.90832 94.4021 9.90832C97.5446 9.90832 99.2468 11.054 99.2468 13.9674V20.4489H99.2141ZM95.8424 20.678V16.0952L93.7146 16.9463C92.6671 17.3718 92.0124 17.9283 92.0124 19.3032C92.0124 20.6126 92.6017 21.4964 93.9438 21.4964C94.664 21.4637 95.155 21.169 95.8424 20.678ZM101.571 22.2165L101.407 18.8121H102.324C102.88 20.9726 104.092 22.5766 106.023 22.5766C107.365 22.5766 108.347 21.9547 108.347 20.6126C108.347 19.2704 107.463 18.7467 105.499 18.0593C102.88 17.1427 101.505 16.0952 101.505 13.8365C101.505 11.3486 103.371 9.90832 106.088 9.90832C107.692 9.90832 109.067 10.3011 110.115 10.9886V13.9674H109.264C108.838 12.1998 107.823 10.7594 106.088 10.7594C104.844 10.7594 104.092 11.5123 104.092 12.5926C104.092 13.7055 104.844 14.262 106.776 14.9495C109.427 15.866 110.999 16.8808 110.999 19.3032C110.999 21.9219 109.034 23.4605 106.023 23.4605C104.124 23.4277 102.586 22.9367 101.571 22.2165ZM116.302 10.1047H119.51V11.2177H116.302V19.4341C116.302 20.9072 116.858 21.5619 118.036 21.5619C118.691 21.5619 119.248 21.3327 119.87 20.9072L120.197 21.3327C119.411 22.5766 118.167 23.4605 116.367 23.4605C114.37 23.4605 112.897 22.413 112.897 19.6305V11.2504H111.359V10.7267C113.061 9.94105 114.501 8.5662 115.549 6.9622H116.302V10.1047ZM131.261 15.0149V15.5714H123.209C123.11 19.0086 124.878 21.1036 127.3 21.1036C128.97 21.1036 130.083 20.3507 130.999 19.074L131.359 19.3032C130.738 21.7583 128.937 23.4277 126.122 23.4277C122.554 23.4277 120.132 20.7762 120.132 16.979C120.132 12.789 122.848 9.87559 126.22 9.87559C129.526 9.87559 131.261 12.0688 131.261 15.0149ZM123.274 14.6876H128.184C128.184 12.3307 127.562 10.7594 125.958 10.7594C124.322 10.7594 123.47 12.4289 123.274 14.6876ZM156.14 7.09315L156.205 11.054H155.223C154.667 8.20612 153.194 6.66759 150.804 6.66759C147.399 6.66759 145.861 10.0393 145.861 14.262C145.861 18.8449 147.661 22.3802 151.033 22.3802C153.357 22.3802 154.928 20.9072 155.78 17.3391H156.794L156.401 21.9874C154.961 22.904 153.03 23.4605 150.706 23.4605C145.337 23.4605 142.031 20.0888 142.031 15.0149C142.031 9.25363 145.861 5.65281 150.706 5.65281C152.932 5.62008 154.732 6.14384 156.14 7.09315ZM162.392 21.3C162.392 22.1511 162.752 22.3148 163.93 22.3802V23.1986H157.416V22.3802C158.562 22.3148 158.955 22.1511 158.955 21.3V8.14065L157.482 7.38776V6.864L161.835 5.68555H162.392V21.3ZM171.459 20.6453V16.0624L169.332 16.9135C168.317 17.3064 167.662 17.8628 167.662 19.2704C167.662 20.5471 168.251 21.4637 169.561 21.4637C170.248 21.4637 170.739 21.169 171.459 20.6453ZM177.188 22.2165L177.057 18.8121H177.974C178.497 20.9726 179.741 22.5766 181.64 22.5766C182.982 22.5766 183.997 21.9547 183.997 20.6126C183.997 19.2704 183.08 18.7467 181.116 18.0593C178.497 17.1427 177.123 16.0952 177.123 13.8365C177.123 11.3486 178.988 9.90832 181.738 9.90832C183.309 9.90832 184.684 10.3011 185.732 10.9886V13.9674H184.881C184.455 12.1998 183.44 10.7594 181.705 10.7594C180.429 10.7594 179.676 11.5123 179.676 12.5926C179.676 13.7055 180.461 14.262 182.36 14.9495C185.044 15.866 186.616 16.8808 186.616 19.3032C186.616 21.9219 184.652 23.4605 181.607 23.4605C179.741 23.4277 178.203 22.9367 177.188 22.2165ZM187.925 22.2165L187.794 18.8121H188.711C189.234 20.9726 190.511 22.5766 192.41 22.5766C193.752 22.5766 194.767 21.9547 194.767 20.6126C194.767 19.2704 193.817 18.7467 191.919 18.0593C189.267 17.1427 187.892 16.0952 187.892 13.8365C187.892 11.3486 189.791 9.90832 192.508 9.90832C194.079 9.90832 195.454 10.3011 196.534 10.9886V13.9674H195.683C195.29 12.1998 194.243 10.7594 192.508 10.7594C191.231 10.7594 190.511 11.5123 190.511 12.5926C190.511 13.7055 191.264 14.262 193.163 14.9495C195.847 15.866 197.385 16.8808 197.385 19.3032C197.385 21.9219 195.421 23.4605 192.377 23.4605C190.511 23.4277 188.94 22.9367 187.925 22.2165ZM174.864 20.4489C174.864 21.3 175.06 21.8237 175.682 21.8237C176.042 21.8237 176.402 21.6928 176.664 21.5946L176.828 22.1183C176.108 22.9694 175.158 23.4277 174.045 23.4277C172.671 23.4277 171.82 22.6094 171.558 21.2345C170.772 22.282 169.495 23.3623 167.662 23.3623C165.698 23.3623 164.389 22.1511 164.389 20.187C164.389 18.092 165.895 17.2081 167.76 16.5207L171.492 15.1786V13.0836C171.492 11.6433 171.034 10.6285 169.757 10.6285C168.579 10.6285 167.891 10.9231 167.531 11.4469C168.284 11.6105 168.742 12.2325 168.742 13.0181C168.742 14.0984 167.99 14.7858 166.877 14.7858C165.829 14.7858 165.142 14.0984 165.142 13.0181C165.142 10.9558 167.269 9.90832 170.052 9.90832C173.194 9.90832 174.897 11.054 174.897 13.9674V20.4489H174.864ZM137.808 11.5123C137.808 12.7235 138.528 13.4764 139.609 13.4764C140.787 13.4764 141.54 12.7235 141.54 11.6105C141.54 10.4975 140.853 9.84286 139.903 9.84286C138.561 9.84286 137.71 10.7922 136.728 13.5091L136.826 9.84286H136.27L131.851 11.185V11.6433L133.324 12.5271V21.2345C133.324 22.0856 132.931 22.2493 131.785 22.3148V23.1331H138.823V22.3148C137.317 22.1838 136.761 22.0529 136.761 21.0381V14.6876C137.317 13.1491 138.168 12.1015 139.609 11.2504L137.808 11.5123Z" fill="#BCBCC0"></path>
</svg>