<svg width="78" height="29" viewBox="0 0 78 29" fill="none" xmlns="http://www.w3.org/2000/svg">
<path d="M77.624 28.3629H64.9575L60.5429 19.0676H51.8162L52.4194 17.4824H59.7985L55.1144 7.56576L58.1302 0.451631H62.3139L71.9004 20.5639C73.2479 23.3792 74.9547 27.2723 77.624 28.3629ZM39.1882 27.285V15.0603C39.1882 15.0603 42.358 15.9987 45.5279 20.5893V8.19982C42.358 12.8665 39.1882 13.5259 39.1882 13.5259V1.50417C46.0284 1.50417 49.288 4.75054 50.9949 7.70525L54.1262 0.42627H25.264C27.882 2.25236 29.7814 3.8375 29.7814 10.2161V28.3375H54.1262L50.8794 21.6038C49.0314 24.4444 45.515 27.285 39.1882 27.285ZM0.624023 0.451631C2.58752 1.56757 5.37236 3.39366 5.37236 9.07482V20.0313C5.37236 26.1183 0.906357 28.3375 0.906357 28.3375H11.2629C11.2629 28.3375 6.79686 26.131 6.79686 20.0313V5.95526L27.5227 28.4263V14.3248L14.7022 0.451631H0.624023ZM69 3.54584H68.4097V1.47881H69.2182C69.6032 1.40272 69.9754 1.64366 70.0524 2.0241C70.0652 2.06214 70.0652 2.10018 70.0652 2.12554C70.078 2.36649 69.924 2.59475 69.6802 2.68352L70.1807 3.53315H69.616L69.154 2.81033H69V3.54584ZM69 2.42989H69.1925C69.3337 2.45526 69.462 2.36649 69.4877 2.22699C69.4877 2.21431 69.4877 2.18895 69.4877 2.17627C69.4877 2.03678 69.3722 1.93533 69.2439 1.93533C69.231 1.93533 69.2054 1.93533 69.1925 1.93533H69V2.42989ZM67.0365 2.54402C67.0365 1.39004 67.9862 0.451633 69.154 0.438951C69.1669 0.438951 69.1797 0.438951 69.1925 0.438951C70.3604 0.464314 71.2844 1.4154 71.2587 2.58207C71.233 3.73605 70.2705 4.66178 69.1027 4.63641C67.9605 4.62373 67.0365 3.68533 67.0365 2.54402ZM67.4472 2.54402C67.4472 3.50779 68.23 4.29402 69.2054 4.29402C70.1807 4.29402 70.9635 3.50779 70.9635 2.54402C70.9635 1.58025 70.1807 0.794022 69.2054 0.794022C68.23 0.794022 67.4472 1.58025 67.4472 2.54402Z" fill="#BCBCC0"></path>
</svg>