<svg width="110" height="76" viewBox="0 0 110 76" fill="none" xmlns="http://www.w3.org/2000/svg">
<mask id="path-1-inside-1_6722_7373" fill="white">
<path d="M45.6961 33.2587C45.0129 33.2587 44.5281 33.5224 44.2195 34.0057C44.0212 34.3133 43.8669 34.7307 43.8008 35.2141H47.4813C47.4372 34.7527 47.3491 34.3133 47.1507 34.0057C46.8201 33.5224 46.3794 33.2587 45.6961 33.2587Z"></path>
<path d="M66.4353 33.2808C65.7521 33.2808 65.2673 33.5224 64.9587 33.9838C64.6502 34.4672 64.4739 35.1702 64.4739 36.049C64.4739 36.9278 64.6281 37.6309 64.9587 38.1142C65.2673 38.5976 65.7521 38.8392 66.4353 38.8392C67.1186 38.8392 67.6034 38.5976 67.912 38.1142C68.2425 37.6309 68.3968 36.9278 68.3968 36.049C68.3968 35.1702 68.2425 34.4672 67.912 33.9838C67.6034 33.5224 67.1186 33.2808 66.4353 33.2808Z"></path>
<path d="M35.5807 36.3567C35.5807 36.3567 34.9195 36.2469 34.1922 36.2469C33.1343 36.2249 32.6935 36.6204 32.6935 36.6204C32.385 36.8401 32.2307 37.1696 32.2307 37.609C32.2307 37.8946 32.2748 38.1143 32.385 38.2681C32.4511 38.378 32.4732 38.4219 32.6715 38.5757C32.6715 38.5757 33.1343 38.9492 34.1922 38.8833C34.9195 38.8393 35.5807 38.7075 35.5807 38.7075V36.3567Z"></path>
<path d="M80.3418 15.3311C77.5869 15.3311 74.9643 15.9243 72.584 16.9788C69.8512 12.1234 64.7381 8.87184 58.8537 8.87184C54.4459 8.87184 50.4347 10.7173 47.5697 13.7053C44.4181 9.59685 39.4372 6.93848 33.8393 6.93848C24.2964 6.93848 16.5606 14.628 16.5606 24.1411C16.5606 26.5798 17.0675 28.8867 17.9711 30.9738C13.5413 33.5663 10.5439 38.3998 10.5439 43.9362C10.5439 52.197 17.1998 58.898 25.3983 58.898C26.4341 58.898 27.47 58.7881 28.4397 58.5904C30.6877 64.6761 36.5501 69.0262 43.4483 69.0262C50.0601 69.0262 55.7241 65.0276 58.1705 59.3154C60.0218 60.2161 62.0934 60.7215 64.2973 60.7215C69.5426 60.7215 74.1268 57.8434 76.529 53.5592C77.7412 53.8009 79.0195 53.9327 80.2977 53.9327C90.8765 53.9327 99.4718 45.2984 99.4718 34.6429C99.5158 23.9654 90.9426 15.3311 80.3418 15.3311ZM29.6298 37.7187C29.6298 39.2786 28.5058 40.2453 26.6766 40.2453C25.773 40.2453 24.9134 40.1134 24.0098 39.6301C23.8335 39.5422 23.6793 39.4543 23.5029 39.3225C23.4809 39.3005 23.4148 39.2566 23.4589 39.1248L23.8115 38.1361C23.8776 37.9604 24.0098 38.0263 24.0539 38.0483C24.1421 38.1142 24.2302 38.1581 24.3625 38.246C25.4203 38.9051 26.4121 38.9271 26.7207 38.9271C27.5141 38.9271 27.9989 38.5096 27.9989 37.9384V37.9164C27.9989 37.3013 27.2496 37.0596 26.368 36.7959L26.1697 36.73C24.9575 36.3785 23.6793 35.8952 23.6793 34.3792V34.3573C23.6793 32.9072 24.8473 31.9186 26.5223 31.9186H26.6986C27.6683 31.9186 28.616 32.2042 29.3213 32.6216C29.3874 32.6655 29.4535 32.7315 29.4094 32.8193C29.3874 32.9072 29.0788 33.7201 29.0348 33.808C28.9686 33.9838 28.7923 33.8739 28.7923 33.8739C28.1973 33.5444 27.2496 33.2807 26.4782 33.2807C25.773 33.2807 25.3102 33.6542 25.3102 34.1595V34.1815C25.3102 34.7747 26.0815 35.0383 26.9851 35.3239L27.1394 35.3679C28.3295 35.7414 29.6078 36.2687 29.6078 37.7187H29.6298ZM37.1011 39.7399C37.1011 39.7399 36.9027 39.7839 36.7484 39.8278C36.5721 39.8718 35.955 40.0036 35.4481 40.0695C34.9412 40.1574 34.4123 40.2013 33.8834 40.2013C33.3765 40.2013 32.9136 40.1574 32.5169 40.0695C32.0982 39.9816 31.7456 39.8278 31.4591 39.6081C31.1726 39.3884 30.9522 39.1248 30.7979 38.7952C30.6436 38.4657 30.5555 38.0702 30.5555 37.6308C30.5555 37.1914 30.6436 36.7959 30.842 36.4444C31.0183 36.1149 31.2828 35.8292 31.5913 35.5876C31.8998 35.3679 32.2745 35.1921 32.6712 35.0823C33.0679 34.9724 33.5087 34.9285 33.9495 34.9285C34.2801 34.9285 34.5445 34.9285 34.7649 34.9505C34.7649 34.9505 35.1616 34.9944 35.6245 35.0603V34.8406C35.6245 34.1595 35.4922 33.83 35.2057 33.6103C34.9192 33.3906 34.4784 33.2807 33.9274 33.2807C33.9274 33.2807 32.6712 33.2587 31.6795 33.808C31.6354 33.83 31.5913 33.852 31.5913 33.852C31.5913 33.852 31.4591 33.8959 31.415 33.7641L31.0403 32.7974C30.9742 32.6656 31.0844 32.5996 31.0844 32.5996C31.5472 32.2481 32.6712 32.0284 32.6712 32.0284C33.0459 31.9625 33.663 31.8966 34.0597 31.8966C35.0955 31.8966 35.8889 32.1383 36.4179 32.5996C36.9688 33.083 37.2333 33.83 37.2333 34.8626V39.5642C37.2113 39.5642 37.2333 39.696 37.1011 39.7399ZM40.5612 39.8718C40.5612 39.9596 40.4951 40.0256 40.4069 40.0256H39.0405C38.9524 40.0256 38.8862 39.9596 38.8862 39.8718V28.9087C38.8862 28.8208 38.9524 28.7549 39.0405 28.7549H40.4069C40.4951 28.7549 40.5612 28.8208 40.5612 28.9087V39.8718ZM49.0904 36.3565C49.0683 36.4883 48.9361 36.4884 48.9361 36.4884H43.7789C43.801 37.2793 43.9993 37.8285 44.374 38.202C44.7486 38.5755 45.3437 38.7952 46.1371 38.8172C47.3713 38.8172 47.8782 38.5755 48.2529 38.4437C48.2529 38.4437 48.3851 38.3998 48.4512 38.5316L48.7818 39.4763C48.8479 39.6301 48.8038 39.696 48.7377 39.718C48.4071 39.8937 47.6358 40.2233 46.1371 40.2233C45.4098 40.2233 44.7927 40.1134 44.2638 39.9157C43.7348 39.718 43.3161 39.4324 42.9635 39.0589C42.6329 38.6854 42.3684 38.246 42.2142 37.7626C42.0599 37.2573 41.9717 36.7081 41.9717 36.1149C41.9717 35.5436 42.0378 34.9724 42.1921 34.4671C42.3464 33.9618 42.5668 33.5004 42.8974 33.1269C43.2059 32.7534 43.6026 32.4459 44.0875 32.2262C44.5723 32.0065 45.1454 31.8966 45.7845 31.8966C46.3355 31.8966 46.8424 32.0065 47.2611 32.2042C47.5917 32.336 47.9002 32.5996 48.2308 32.9512C48.4512 33.1709 48.7598 33.6762 48.892 34.1595C49.2667 35.302 49.0904 36.2906 49.0904 36.3565ZM53.388 40.2233C52.4844 40.2233 51.6248 40.0915 50.7212 39.6081C50.5449 39.5202 50.3907 39.4324 50.2143 39.3005C50.1923 39.2786 50.1262 39.2346 50.1703 39.1028L50.5229 38.1141C50.567 37.9604 50.7212 38.0043 50.7653 38.0263C50.8535 38.0922 50.9416 38.1361 51.0739 38.224C52.1317 38.8831 53.1235 38.9051 53.4321 38.9051C54.2255 38.9051 54.7103 38.4877 54.7103 37.9164V37.8944C54.7103 37.2793 53.961 37.0376 53.0794 36.774L52.8811 36.7081C51.6689 36.3566 50.3907 35.8732 50.3907 34.3573V34.3353C50.3907 32.8853 51.5587 31.8966 53.2337 31.8966H53.41C54.3797 31.8966 55.3274 32.1822 56.0327 32.5996C56.0988 32.6436 56.1649 32.7095 56.1208 32.7974C56.0988 32.8853 55.7902 33.6981 55.7462 33.786C55.68 33.9618 55.5037 33.852 55.5037 33.852C54.9087 33.5224 53.961 33.2587 53.1896 33.2587C52.4844 33.2587 52.0216 33.6322 52.0216 34.1375V34.1595C52.0216 34.7527 52.7929 35.0164 53.6965 35.302L53.8508 35.3459C55.0409 35.7194 56.3192 36.2467 56.3192 37.6967V37.7187C56.3412 39.2566 55.1952 40.2233 53.388 40.2233ZM62.3799 33.2807C62.3579 33.4345 62.2036 33.4345 62.2036 33.4345H60.5066L59.3385 39.9816C59.2063 40.6627 59.0741 41.2339 58.8757 41.7173C58.6994 42.2006 58.501 42.5302 58.2145 42.8597C57.928 43.1673 57.6195 43.387 57.2669 43.5188C56.9142 43.6507 56.4734 43.7165 56.0106 43.7165C55.7902 43.7165 55.5478 43.7166 55.2613 43.6506C55.063 43.6067 54.9528 43.5628 54.7985 43.5188C54.7324 43.4969 54.6883 43.409 54.7103 43.3211C54.7544 43.2112 55.0409 42.3764 55.085 42.2665C55.1291 42.1347 55.2613 42.1786 55.2613 42.1786C55.3495 42.2226 55.4156 42.2445 55.5478 42.2665C55.68 42.2885 55.8343 42.3105 55.9666 42.3105C56.1869 42.3105 56.3853 42.2885 56.5836 42.2226C56.804 42.1567 56.9142 42.0248 57.0465 41.8491C57.1787 41.6733 57.2889 41.4317 57.3991 41.1241C57.5093 40.7945 57.6195 40.3771 57.7076 39.8498L58.8537 33.4125H57.7076C57.5754 33.4125 57.5313 33.3466 57.5313 33.2368L57.7297 32.1602C57.7517 32.0064 57.906 32.0065 57.906 32.0065H59.0741L59.1402 31.6549C59.3165 30.6223 59.6691 29.8314 60.176 29.3261C60.6829 28.7988 61.4323 28.5352 62.3579 28.5352C62.6224 28.5352 62.8648 28.5571 63.0631 28.5791C63.2615 28.623 63.4158 28.645 63.57 28.689C63.6141 28.7109 63.7023 28.7549 63.6582 28.8647L63.2615 29.9412C63.2174 30.0291 63.1954 30.0731 63.0411 30.0291C62.997 30.0072 62.9309 30.0072 62.7766 29.9632C62.6664 29.9412 62.5122 29.9193 62.3579 29.9193C62.1596 29.9193 61.9612 29.9413 61.8069 30.0072C61.6526 30.0511 61.4984 30.139 61.3661 30.2708C61.2339 30.4026 61.0796 30.5784 61.0135 30.8201C60.8152 31.3693 60.749 31.9405 60.749 31.9845H62.402C62.5342 31.9845 62.5783 32.0504 62.5783 32.1602L62.3799 33.2807ZM69.9394 37.6967C69.7851 38.202 69.5647 38.6415 69.2561 39.0149C68.9476 39.3884 68.5509 39.674 68.0881 39.8937C67.6253 40.1135 67.0743 40.2233 66.4572 40.2233C65.8401 40.2233 65.2891 40.1135 64.8263 39.8937C64.3635 39.674 63.9668 39.3884 63.6582 39.0149C63.3497 38.6415 63.1072 38.202 62.975 37.6967C62.8207 37.1914 62.7546 36.6422 62.7546 36.0709C62.7546 35.4997 62.8207 34.9504 62.975 34.4451C63.1293 33.9398 63.3497 33.5004 63.6582 33.1269C63.9668 32.7534 64.3635 32.4458 64.8263 32.2481C65.2891 32.0284 65.8401 31.9186 66.4572 31.9186C67.0743 31.9186 67.6253 32.0284 68.0881 32.2481C68.5509 32.4678 68.9476 32.7534 69.2561 33.1269C69.5647 33.5004 69.8071 33.9398 69.9394 34.4451C70.0936 34.9504 70.1597 35.4997 70.1597 36.0709C70.1597 36.6422 70.0716 37.1914 69.9394 37.6967ZM76.3086 32.314C76.2646 32.4459 76.0001 33.1489 75.9119 33.3906C75.8679 33.4784 75.8238 33.5444 75.7136 33.5224C75.7136 33.5224 75.4271 33.4565 75.1406 33.4565C74.9643 33.4565 74.6778 33.4785 74.4574 33.5444C74.2149 33.6103 74.0166 33.7421 73.8182 33.9178C73.6199 34.0936 73.4877 34.3573 73.3554 34.6648C73.2452 34.9944 73.1791 35.4997 73.1791 36.005V39.8278C73.1791 39.9157 73.113 39.9816 73.0248 39.9816H71.6804C71.5923 39.9816 71.5262 39.9157 71.5262 39.8278V32.1602C71.5262 32.0723 71.5923 32.0065 71.6804 32.0065H73.0028C73.0909 32.0065 73.1571 32.0723 73.1571 32.1602V32.7974C73.3554 32.5337 73.708 32.292 74.0386 32.1602C74.3692 32.0064 74.7218 31.8966 75.361 31.9405C75.6916 31.9625 76.1323 32.0504 76.2205 32.0943C76.2646 32.1383 76.3307 32.2042 76.3086 32.314ZM82.7441 39.8059C82.1711 40.0256 81.3776 40.1793 80.5842 40.1793C79.2619 40.1793 78.2481 39.8059 77.5869 39.0589C76.9037 38.3119 76.5731 37.3012 76.5731 36.027C76.5731 35.4338 76.6613 34.8845 76.8155 34.4012C76.9698 33.8959 77.2343 33.4565 77.5649 33.083C77.8955 32.7095 78.3142 32.4239 78.7991 32.2042C79.2839 31.9845 79.857 31.8746 80.4961 31.8746C80.9148 31.8746 81.3115 31.8966 81.6421 31.9405C81.9948 31.9845 82.4576 32.1163 82.6559 32.2042C82.7 32.2262 82.7882 32.2701 82.7441 32.3799C82.6118 32.7754 82.5016 33.0391 82.3694 33.4125C82.3033 33.5663 82.1931 33.5224 82.1931 33.5224C81.6862 33.3686 81.2013 33.3027 80.5842 33.3027C79.8349 33.3027 79.2619 33.5443 78.8872 34.0497C78.5126 34.533 78.3142 35.1921 78.2922 36.049C78.2922 36.9937 78.5346 37.6967 78.9533 38.1141C79.3721 38.5535 79.9671 38.7732 80.6944 38.7732C81.003 38.7732 81.2675 38.7513 81.5319 38.7074C81.7744 38.6634 82.0168 38.5975 82.2372 38.5096C82.2372 38.5096 82.3914 38.4437 82.4355 38.5975L82.8102 39.6301C82.8543 39.7619 82.7441 39.8059 82.7441 39.8059ZM90.3916 36.3565C90.3696 36.4883 90.2374 36.4884 90.2374 36.4884H85.0802C85.1023 37.2793 85.3006 37.8285 85.6753 38.202C86.0499 38.5755 86.645 38.7952 87.4384 38.8172C88.6726 38.8172 89.1795 38.5755 89.5542 38.4437C89.5542 38.4437 89.6864 38.3998 89.7525 38.5316L90.0831 39.4763C90.1492 39.6301 90.1051 39.696 90.039 39.718C89.7084 39.8937 88.9371 40.2233 87.4384 40.2233C86.7111 40.2233 86.094 40.1134 85.5651 39.9157C85.0361 39.718 84.6174 39.4324 84.2648 39.0589C83.9342 38.6854 83.6697 38.246 83.5154 37.7626C83.3612 37.2573 83.273 36.7081 83.273 36.1149C83.273 35.5436 83.3391 34.9724 83.4934 34.4671C83.6477 33.9618 83.8681 33.5004 84.1987 33.1269C84.5072 32.7534 84.9039 32.4459 85.3888 32.2262C85.8736 32.0065 86.4466 31.8966 87.0858 31.8966C87.6368 31.8966 88.1437 32.0065 88.5624 32.2042C88.893 32.336 89.2015 32.5996 89.5321 32.9512C89.7525 33.1709 90.0611 33.6762 90.1933 34.1595C90.568 35.302 90.3916 36.2906 90.3916 36.3565Z"></path>
<path d="M86.9978 33.2587C86.3146 33.2587 85.8297 33.5224 85.5211 34.0057C85.3008 34.3133 85.1685 34.7307 85.1024 35.2141H88.7829C88.7389 34.7527 88.6507 34.3133 88.4523 34.0057C88.1218 33.5224 87.6589 33.2587 86.9978 33.2587Z"></path>
</mask>
<path d="M45.6961 33.2587C45.0129 33.2587 44.5281 33.5224 44.2195 34.0057C44.0212 34.3133 43.8669 34.7307 43.8008 35.2141H47.4813C47.4372 34.7527 47.3491 34.3133 47.1507 34.0057C46.8201 33.5224 46.3794 33.2587 45.6961 33.2587Z" fill="#BCBCC0"></path>
<path d="M66.4353 33.2808C65.7521 33.2808 65.2673 33.5224 64.9587 33.9838C64.6502 34.4672 64.4739 35.1702 64.4739 36.049C64.4739 36.9278 64.6281 37.6309 64.9587 38.1142C65.2673 38.5976 65.7521 38.8392 66.4353 38.8392C67.1186 38.8392 67.6034 38.5976 67.912 38.1142C68.2425 37.6309 68.3968 36.9278 68.3968 36.049C68.3968 35.1702 68.2425 34.4672 67.912 33.9838C67.6034 33.5224 67.1186 33.2808 66.4353 33.2808Z" fill="#BCBCC0"></path>
<path d="M35.5807 36.3567C35.5807 36.3567 34.9195 36.2469 34.1922 36.2469C33.1343 36.2249 32.6935 36.6204 32.6935 36.6204C32.385 36.8401 32.2307 37.1696 32.2307 37.609C32.2307 37.8946 32.2748 38.1143 32.385 38.2681C32.4511 38.378 32.4732 38.4219 32.6715 38.5757C32.6715 38.5757 33.1343 38.9492 34.1922 38.8833C34.9195 38.8393 35.5807 38.7075 35.5807 38.7075V36.3567Z" fill="#BCBCC0"></path>
<path d="M80.3418 15.3311C77.5869 15.3311 74.9643 15.9243 72.584 16.9788C69.8512 12.1234 64.7381 8.87184 58.8537 8.87184C54.4459 8.87184 50.4347 10.7173 47.5697 13.7053C44.4181 9.59685 39.4372 6.93848 33.8393 6.93848C24.2964 6.93848 16.5606 14.628 16.5606 24.1411C16.5606 26.5798 17.0675 28.8867 17.9711 30.9738C13.5413 33.5663 10.5439 38.3998 10.5439 43.9362C10.5439 52.197 17.1998 58.898 25.3983 58.898C26.4341 58.898 27.47 58.7881 28.4397 58.5904C30.6877 64.6761 36.5501 69.0262 43.4483 69.0262C50.0601 69.0262 55.7241 65.0276 58.1705 59.3154C60.0218 60.2161 62.0934 60.7215 64.2973 60.7215C69.5426 60.7215 74.1268 57.8434 76.529 53.5592C77.7412 53.8009 79.0195 53.9327 80.2977 53.9327C90.8765 53.9327 99.4718 45.2984 99.4718 34.6429C99.5158 23.9654 90.9426 15.3311 80.3418 15.3311ZM29.6298 37.7187C29.6298 39.2786 28.5058 40.2453 26.6766 40.2453C25.773 40.2453 24.9134 40.1134 24.0098 39.6301C23.8335 39.5422 23.6793 39.4543 23.5029 39.3225C23.4809 39.3005 23.4148 39.2566 23.4589 39.1248L23.8115 38.1361C23.8776 37.9604 24.0098 38.0263 24.0539 38.0483C24.1421 38.1142 24.2302 38.1581 24.3625 38.246C25.4203 38.9051 26.4121 38.9271 26.7207 38.9271C27.5141 38.9271 27.9989 38.5096 27.9989 37.9384V37.9164C27.9989 37.3013 27.2496 37.0596 26.368 36.7959L26.1697 36.73C24.9575 36.3785 23.6793 35.8952 23.6793 34.3792V34.3573C23.6793 32.9072 24.8473 31.9186 26.5223 31.9186H26.6986C27.6683 31.9186 28.616 32.2042 29.3213 32.6216C29.3874 32.6655 29.4535 32.7315 29.4094 32.8193C29.3874 32.9072 29.0788 33.7201 29.0348 33.808C28.9686 33.9838 28.7923 33.8739 28.7923 33.8739C28.1973 33.5444 27.2496 33.2807 26.4782 33.2807C25.773 33.2807 25.3102 33.6542 25.3102 34.1595V34.1815C25.3102 34.7747 26.0815 35.0383 26.9851 35.3239L27.1394 35.3679C28.3295 35.7414 29.6078 36.2687 29.6078 37.7187H29.6298ZM37.1011 39.7399C37.1011 39.7399 36.9027 39.7839 36.7484 39.8278C36.5721 39.8718 35.955 40.0036 35.4481 40.0695C34.9412 40.1574 34.4123 40.2013 33.8834 40.2013C33.3765 40.2013 32.9136 40.1574 32.5169 40.0695C32.0982 39.9816 31.7456 39.8278 31.4591 39.6081C31.1726 39.3884 30.9522 39.1248 30.7979 38.7952C30.6436 38.4657 30.5555 38.0702 30.5555 37.6308C30.5555 37.1914 30.6436 36.7959 30.842 36.4444C31.0183 36.1149 31.2828 35.8292 31.5913 35.5876C31.8998 35.3679 32.2745 35.1921 32.6712 35.0823C33.0679 34.9724 33.5087 34.9285 33.9495 34.9285C34.2801 34.9285 34.5445 34.9285 34.7649 34.9505C34.7649 34.9505 35.1616 34.9944 35.6245 35.0603V34.8406C35.6245 34.1595 35.4922 33.83 35.2057 33.6103C34.9192 33.3906 34.4784 33.2807 33.9274 33.2807C33.9274 33.2807 32.6712 33.2587 31.6795 33.808C31.6354 33.83 31.5913 33.852 31.5913 33.852C31.5913 33.852 31.4591 33.8959 31.415 33.7641L31.0403 32.7974C30.9742 32.6656 31.0844 32.5996 31.0844 32.5996C31.5472 32.2481 32.6712 32.0284 32.6712 32.0284C33.0459 31.9625 33.663 31.8966 34.0597 31.8966C35.0955 31.8966 35.8889 32.1383 36.4179 32.5996C36.9688 33.083 37.2333 33.83 37.2333 34.8626V39.5642C37.2113 39.5642 37.2333 39.696 37.1011 39.7399ZM40.5612 39.8718C40.5612 39.9596 40.4951 40.0256 40.4069 40.0256H39.0405C38.9524 40.0256 38.8862 39.9596 38.8862 39.8718V28.9087C38.8862 28.8208 38.9524 28.7549 39.0405 28.7549H40.4069C40.4951 28.7549 40.5612 28.8208 40.5612 28.9087V39.8718ZM49.0904 36.3565C49.0683 36.4883 48.9361 36.4884 48.9361 36.4884H43.7789C43.801 37.2793 43.9993 37.8285 44.374 38.202C44.7486 38.5755 45.3437 38.7952 46.1371 38.8172C47.3713 38.8172 47.8782 38.5755 48.2529 38.4437C48.2529 38.4437 48.3851 38.3998 48.4512 38.5316L48.7818 39.4763C48.8479 39.6301 48.8038 39.696 48.7377 39.718C48.4071 39.8937 47.6358 40.2233 46.1371 40.2233C45.4098 40.2233 44.7927 40.1134 44.2638 39.9157C43.7348 39.718 43.3161 39.4324 42.9635 39.0589C42.6329 38.6854 42.3684 38.246 42.2142 37.7626C42.0599 37.2573 41.9717 36.7081 41.9717 36.1149C41.9717 35.5436 42.0378 34.9724 42.1921 34.4671C42.3464 33.9618 42.5668 33.5004 42.8974 33.1269C43.2059 32.7534 43.6026 32.4459 44.0875 32.2262C44.5723 32.0065 45.1454 31.8966 45.7845 31.8966C46.3355 31.8966 46.8424 32.0065 47.2611 32.2042C47.5917 32.336 47.9002 32.5996 48.2308 32.9512C48.4512 33.1709 48.7598 33.6762 48.892 34.1595C49.2667 35.302 49.0904 36.2906 49.0904 36.3565ZM53.388 40.2233C52.4844 40.2233 51.6248 40.0915 50.7212 39.6081C50.5449 39.5202 50.3907 39.4324 50.2143 39.3005C50.1923 39.2786 50.1262 39.2346 50.1703 39.1028L50.5229 38.1141C50.567 37.9604 50.7212 38.0043 50.7653 38.0263C50.8535 38.0922 50.9416 38.1361 51.0739 38.224C52.1317 38.8831 53.1235 38.9051 53.4321 38.9051C54.2255 38.9051 54.7103 38.4877 54.7103 37.9164V37.8944C54.7103 37.2793 53.961 37.0376 53.0794 36.774L52.8811 36.7081C51.6689 36.3566 50.3907 35.8732 50.3907 34.3573V34.3353C50.3907 32.8853 51.5587 31.8966 53.2337 31.8966H53.41C54.3797 31.8966 55.3274 32.1822 56.0327 32.5996C56.0988 32.6436 56.1649 32.7095 56.1208 32.7974C56.0988 32.8853 55.7902 33.6981 55.7462 33.786C55.68 33.9618 55.5037 33.852 55.5037 33.852C54.9087 33.5224 53.961 33.2587 53.1896 33.2587C52.4844 33.2587 52.0216 33.6322 52.0216 34.1375V34.1595C52.0216 34.7527 52.7929 35.0164 53.6965 35.302L53.8508 35.3459C55.0409 35.7194 56.3192 36.2467 56.3192 37.6967V37.7187C56.3412 39.2566 55.1952 40.2233 53.388 40.2233ZM62.3799 33.2807C62.3579 33.4345 62.2036 33.4345 62.2036 33.4345H60.5066L59.3385 39.9816C59.2063 40.6627 59.0741 41.2339 58.8757 41.7173C58.6994 42.2006 58.501 42.5302 58.2145 42.8597C57.928 43.1673 57.6195 43.387 57.2669 43.5188C56.9142 43.6507 56.4734 43.7165 56.0106 43.7165C55.7902 43.7165 55.5478 43.7166 55.2613 43.6506C55.063 43.6067 54.9528 43.5628 54.7985 43.5188C54.7324 43.4969 54.6883 43.409 54.7103 43.3211C54.7544 43.2112 55.0409 42.3764 55.085 42.2665C55.1291 42.1347 55.2613 42.1786 55.2613 42.1786C55.3495 42.2226 55.4156 42.2445 55.5478 42.2665C55.68 42.2885 55.8343 42.3105 55.9666 42.3105C56.1869 42.3105 56.3853 42.2885 56.5836 42.2226C56.804 42.1567 56.9142 42.0248 57.0465 41.8491C57.1787 41.6733 57.2889 41.4317 57.3991 41.1241C57.5093 40.7945 57.6195 40.3771 57.7076 39.8498L58.8537 33.4125H57.7076C57.5754 33.4125 57.5313 33.3466 57.5313 33.2368L57.7297 32.1602C57.7517 32.0064 57.906 32.0065 57.906 32.0065H59.0741L59.1402 31.6549C59.3165 30.6223 59.6691 29.8314 60.176 29.3261C60.6829 28.7988 61.4323 28.5352 62.3579 28.5352C62.6224 28.5352 62.8648 28.5571 63.0631 28.5791C63.2615 28.623 63.4158 28.645 63.57 28.689C63.6141 28.7109 63.7023 28.7549 63.6582 28.8647L63.2615 29.9412C63.2174 30.0291 63.1954 30.0731 63.0411 30.0291C62.997 30.0072 62.9309 30.0072 62.7766 29.9632C62.6664 29.9412 62.5122 29.9193 62.3579 29.9193C62.1596 29.9193 61.9612 29.9413 61.8069 30.0072C61.6526 30.0511 61.4984 30.139 61.3661 30.2708C61.2339 30.4026 61.0796 30.5784 61.0135 30.8201C60.8152 31.3693 60.749 31.9405 60.749 31.9845H62.402C62.5342 31.9845 62.5783 32.0504 62.5783 32.1602L62.3799 33.2807ZM69.9394 37.6967C69.7851 38.202 69.5647 38.6415 69.2561 39.0149C68.9476 39.3884 68.5509 39.674 68.0881 39.8937C67.6253 40.1135 67.0743 40.2233 66.4572 40.2233C65.8401 40.2233 65.2891 40.1135 64.8263 39.8937C64.3635 39.674 63.9668 39.3884 63.6582 39.0149C63.3497 38.6415 63.1072 38.202 62.975 37.6967C62.8207 37.1914 62.7546 36.6422 62.7546 36.0709C62.7546 35.4997 62.8207 34.9504 62.975 34.4451C63.1293 33.9398 63.3497 33.5004 63.6582 33.1269C63.9668 32.7534 64.3635 32.4458 64.8263 32.2481C65.2891 32.0284 65.8401 31.9186 66.4572 31.9186C67.0743 31.9186 67.6253 32.0284 68.0881 32.2481C68.5509 32.4678 68.9476 32.7534 69.2561 33.1269C69.5647 33.5004 69.8071 33.9398 69.9394 34.4451C70.0936 34.9504 70.1597 35.4997 70.1597 36.0709C70.1597 36.6422 70.0716 37.1914 69.9394 37.6967ZM76.3086 32.314C76.2646 32.4459 76.0001 33.1489 75.9119 33.3906C75.8679 33.4784 75.8238 33.5444 75.7136 33.5224C75.7136 33.5224 75.4271 33.4565 75.1406 33.4565C74.9643 33.4565 74.6778 33.4785 74.4574 33.5444C74.2149 33.6103 74.0166 33.7421 73.8182 33.9178C73.6199 34.0936 73.4877 34.3573 73.3554 34.6648C73.2452 34.9944 73.1791 35.4997 73.1791 36.005V39.8278C73.1791 39.9157 73.113 39.9816 73.0248 39.9816H71.6804C71.5923 39.9816 71.5262 39.9157 71.5262 39.8278V32.1602C71.5262 32.0723 71.5923 32.0065 71.6804 32.0065H73.0028C73.0909 32.0065 73.1571 32.0723 73.1571 32.1602V32.7974C73.3554 32.5337 73.708 32.292 74.0386 32.1602C74.3692 32.0064 74.7218 31.8966 75.361 31.9405C75.6916 31.9625 76.1323 32.0504 76.2205 32.0943C76.2646 32.1383 76.3307 32.2042 76.3086 32.314ZM82.7441 39.8059C82.1711 40.0256 81.3776 40.1793 80.5842 40.1793C79.2619 40.1793 78.2481 39.8059 77.5869 39.0589C76.9037 38.3119 76.5731 37.3012 76.5731 36.027C76.5731 35.4338 76.6613 34.8845 76.8155 34.4012C76.9698 33.8959 77.2343 33.4565 77.5649 33.083C77.8955 32.7095 78.3142 32.4239 78.7991 32.2042C79.2839 31.9845 79.857 31.8746 80.4961 31.8746C80.9148 31.8746 81.3115 31.8966 81.6421 31.9405C81.9948 31.9845 82.4576 32.1163 82.6559 32.2042C82.7 32.2262 82.7882 32.2701 82.7441 32.3799C82.6118 32.7754 82.5016 33.0391 82.3694 33.4125C82.3033 33.5663 82.1931 33.5224 82.1931 33.5224C81.6862 33.3686 81.2013 33.3027 80.5842 33.3027C79.8349 33.3027 79.2619 33.5443 78.8872 34.0497C78.5126 34.533 78.3142 35.1921 78.2922 36.049C78.2922 36.9937 78.5346 37.6967 78.9533 38.1141C79.3721 38.5535 79.9671 38.7732 80.6944 38.7732C81.003 38.7732 81.2675 38.7513 81.5319 38.7074C81.7744 38.6634 82.0168 38.5975 82.2372 38.5096C82.2372 38.5096 82.3914 38.4437 82.4355 38.5975L82.8102 39.6301C82.8543 39.7619 82.7441 39.8059 82.7441 39.8059ZM90.3916 36.3565C90.3696 36.4883 90.2374 36.4884 90.2374 36.4884H85.0802C85.1023 37.2793 85.3006 37.8285 85.6753 38.202C86.0499 38.5755 86.645 38.7952 87.4384 38.8172C88.6726 38.8172 89.1795 38.5755 89.5542 38.4437C89.5542 38.4437 89.6864 38.3998 89.7525 38.5316L90.0831 39.4763C90.1492 39.6301 90.1051 39.696 90.039 39.718C89.7084 39.8937 88.9371 40.2233 87.4384 40.2233C86.7111 40.2233 86.094 40.1134 85.5651 39.9157C85.0361 39.718 84.6174 39.4324 84.2648 39.0589C83.9342 38.6854 83.6697 38.246 83.5154 37.7626C83.3612 37.2573 83.273 36.7081 83.273 36.1149C83.273 35.5436 83.3391 34.9724 83.4934 34.4671C83.6477 33.9618 83.8681 33.5004 84.1987 33.1269C84.5072 32.7534 84.9039 32.4459 85.3888 32.2262C85.8736 32.0065 86.4466 31.8966 87.0858 31.8966C87.6368 31.8966 88.1437 32.0065 88.5624 32.2042C88.893 32.336 89.2015 32.5996 89.5321 32.9512C89.7525 33.1709 90.0611 33.6762 90.1933 34.1595C90.568 35.302 90.3916 36.2906 90.3916 36.3565Z" fill="#BCBCC0"></path>
<path d="M86.9978 33.2587C86.3146 33.2587 85.8297 33.5224 85.5211 34.0057C85.3008 34.3133 85.1685 34.7307 85.1024 35.2141H88.7829C88.7389 34.7527 88.6507 34.3133 88.4523 34.0057C88.1218 33.5224 87.6589 33.2587 86.9978 33.2587Z" fill="#BCBCC0"></path>
<path d="M45.6961 33.2587C45.0129 33.2587 44.5281 33.5224 44.2195 34.0057C44.0212 34.3133 43.8669 34.7307 43.8008 35.2141H47.4813C47.4372 34.7527 47.3491 34.3133 47.1507 34.0057C46.8201 33.5224 46.3794 33.2587 45.6961 33.2587Z" stroke="#BCBCC0" stroke-width="1.6" mask="url(#path-1-inside-1_6722_7373)"></path>
<path d="M66.4353 33.2808C65.7521 33.2808 65.2673 33.5224 64.9587 33.9838C64.6502 34.4672 64.4739 35.1702 64.4739 36.049C64.4739 36.9278 64.6281 37.6309 64.9587 38.1142C65.2673 38.5976 65.7521 38.8392 66.4353 38.8392C67.1186 38.8392 67.6034 38.5976 67.912 38.1142C68.2425 37.6309 68.3968 36.9278 68.3968 36.049C68.3968 35.1702 68.2425 34.4672 67.912 33.9838C67.6034 33.5224 67.1186 33.2808 66.4353 33.2808Z" stroke="#BCBCC0" stroke-width="1.6" mask="url(#path-1-inside-1_6722_7373)"></path>
<path d="M35.5807 36.3567C35.5807 36.3567 34.9195 36.2469 34.1922 36.2469C33.1343 36.2249 32.6935 36.6204 32.6935 36.6204C32.385 36.8401 32.2307 37.1696 32.2307 37.609C32.2307 37.8946 32.2748 38.1143 32.385 38.2681C32.4511 38.378 32.4732 38.4219 32.6715 38.5757C32.6715 38.5757 33.1343 38.9492 34.1922 38.8833C34.9195 38.8393 35.5807 38.7075 35.5807 38.7075V36.3567Z" stroke="#BCBCC0" stroke-width="1.6" mask="url(#path-1-inside-1_6722_7373)"></path>
<path d="M80.3418 15.3311C77.5869 15.3311 74.9643 15.9243 72.584 16.9788C69.8512 12.1234 64.7381 8.87184 58.8537 8.87184C54.4459 8.87184 50.4347 10.7173 47.5697 13.7053C44.4181 9.59685 39.4372 6.93848 33.8393 6.93848C24.2964 6.93848 16.5606 14.628 16.5606 24.1411C16.5606 26.5798 17.0675 28.8867 17.9711 30.9738C13.5413 33.5663 10.5439 38.3998 10.5439 43.9362C10.5439 52.197 17.1998 58.898 25.3983 58.898C26.4341 58.898 27.47 58.7881 28.4397 58.5904C30.6877 64.6761 36.5501 69.0262 43.4483 69.0262C50.0601 69.0262 55.7241 65.0276 58.1705 59.3154C60.0218 60.2161 62.0934 60.7215 64.2973 60.7215C69.5426 60.7215 74.1268 57.8434 76.529 53.5592C77.7412 53.8009 79.0195 53.9327 80.2977 53.9327C90.8765 53.9327 99.4718 45.2984 99.4718 34.6429C99.5158 23.9654 90.9426 15.3311 80.3418 15.3311ZM29.6298 37.7187C29.6298 39.2786 28.5058 40.2453 26.6766 40.2453C25.773 40.2453 24.9134 40.1134 24.0098 39.6301C23.8335 39.5422 23.6793 39.4543 23.5029 39.3225C23.4809 39.3005 23.4148 39.2566 23.4589 39.1248L23.8115 38.1361C23.8776 37.9604 24.0098 38.0263 24.0539 38.0483C24.1421 38.1142 24.2302 38.1581 24.3625 38.246C25.4203 38.9051 26.4121 38.9271 26.7207 38.9271C27.5141 38.9271 27.9989 38.5096 27.9989 37.9384V37.9164C27.9989 37.3013 27.2496 37.0596 26.368 36.7959L26.1697 36.73C24.9575 36.3785 23.6793 35.8952 23.6793 34.3792V34.3573C23.6793 32.9072 24.8473 31.9186 26.5223 31.9186H26.6986C27.6683 31.9186 28.616 32.2042 29.3213 32.6216C29.3874 32.6655 29.4535 32.7315 29.4094 32.8193C29.3874 32.9072 29.0788 33.7201 29.0348 33.808C28.9686 33.9838 28.7923 33.8739 28.7923 33.8739C28.1973 33.5444 27.2496 33.2807 26.4782 33.2807C25.773 33.2807 25.3102 33.6542 25.3102 34.1595V34.1815C25.3102 34.7747 26.0815 35.0383 26.9851 35.3239L27.1394 35.3679C28.3295 35.7414 29.6078 36.2687 29.6078 37.7187H29.6298ZM37.1011 39.7399C37.1011 39.7399 36.9027 39.7839 36.7484 39.8278C36.5721 39.8718 35.955 40.0036 35.4481 40.0695C34.9412 40.1574 34.4123 40.2013 33.8834 40.2013C33.3765 40.2013 32.9136 40.1574 32.5169 40.0695C32.0982 39.9816 31.7456 39.8278 31.4591 39.6081C31.1726 39.3884 30.9522 39.1248 30.7979 38.7952C30.6436 38.4657 30.5555 38.0702 30.5555 37.6308C30.5555 37.1914 30.6436 36.7959 30.842 36.4444C31.0183 36.1149 31.2828 35.8292 31.5913 35.5876C31.8998 35.3679 32.2745 35.1921 32.6712 35.0823C33.0679 34.9724 33.5087 34.9285 33.9495 34.9285C34.2801 34.9285 34.5445 34.9285 34.7649 34.9505C34.7649 34.9505 35.1616 34.9944 35.6245 35.0603V34.8406C35.6245 34.1595 35.4922 33.83 35.2057 33.6103C34.9192 33.3906 34.4784 33.2807 33.9274 33.2807C33.9274 33.2807 32.6712 33.2587 31.6795 33.808C31.6354 33.83 31.5913 33.852 31.5913 33.852C31.5913 33.852 31.4591 33.8959 31.415 33.7641L31.0403 32.7974C30.9742 32.6656 31.0844 32.5996 31.0844 32.5996C31.5472 32.2481 32.6712 32.0284 32.6712 32.0284C33.0459 31.9625 33.663 31.8966 34.0597 31.8966C35.0955 31.8966 35.8889 32.1383 36.4179 32.5996C36.9688 33.083 37.2333 33.83 37.2333 34.8626V39.5642C37.2113 39.5642 37.2333 39.696 37.1011 39.7399ZM40.5612 39.8718C40.5612 39.9596 40.4951 40.0256 40.4069 40.0256H39.0405C38.9524 40.0256 38.8862 39.9596 38.8862 39.8718V28.9087C38.8862 28.8208 38.9524 28.7549 39.0405 28.7549H40.4069C40.4951 28.7549 40.5612 28.8208 40.5612 28.9087V39.8718ZM49.0904 36.3565C49.0683 36.4883 48.9361 36.4884 48.9361 36.4884H43.7789C43.801 37.2793 43.9993 37.8285 44.374 38.202C44.7486 38.5755 45.3437 38.7952 46.1371 38.8172C47.3713 38.8172 47.8782 38.5755 48.2529 38.4437C48.2529 38.4437 48.3851 38.3998 48.4512 38.5316L48.7818 39.4763C48.8479 39.6301 48.8038 39.696 48.7377 39.718C48.4071 39.8937 47.6358 40.2233 46.1371 40.2233C45.4098 40.2233 44.7927 40.1134 44.2638 39.9157C43.7348 39.718 43.3161 39.4324 42.9635 39.0589C42.6329 38.6854 42.3684 38.246 42.2142 37.7626C42.0599 37.2573 41.9717 36.7081 41.9717 36.1149C41.9717 35.5436 42.0378 34.9724 42.1921 34.4671C42.3464 33.9618 42.5668 33.5004 42.8974 33.1269C43.2059 32.7534 43.6026 32.4459 44.0875 32.2262C44.5723 32.0065 45.1454 31.8966 45.7845 31.8966C46.3355 31.8966 46.8424 32.0065 47.2611 32.2042C47.5917 32.336 47.9002 32.5996 48.2308 32.9512C48.4512 33.1709 48.7598 33.6762 48.892 34.1595C49.2667 35.302 49.0904 36.2906 49.0904 36.3565ZM53.388 40.2233C52.4844 40.2233 51.6248 40.0915 50.7212 39.6081C50.5449 39.5202 50.3907 39.4324 50.2143 39.3005C50.1923 39.2786 50.1262 39.2346 50.1703 39.1028L50.5229 38.1141C50.567 37.9604 50.7212 38.0043 50.7653 38.0263C50.8535 38.0922 50.9416 38.1361 51.0739 38.224C52.1317 38.8831 53.1235 38.9051 53.4321 38.9051C54.2255 38.9051 54.7103 38.4877 54.7103 37.9164V37.8944C54.7103 37.2793 53.961 37.0376 53.0794 36.774L52.8811 36.7081C51.6689 36.3566 50.3907 35.8732 50.3907 34.3573V34.3353C50.3907 32.8853 51.5587 31.8966 53.2337 31.8966H53.41C54.3797 31.8966 55.3274 32.1822 56.0327 32.5996C56.0988 32.6436 56.1649 32.7095 56.1208 32.7974C56.0988 32.8853 55.7902 33.6981 55.7462 33.786C55.68 33.9618 55.5037 33.852 55.5037 33.852C54.9087 33.5224 53.961 33.2587 53.1896 33.2587C52.4844 33.2587 52.0216 33.6322 52.0216 34.1375V34.1595C52.0216 34.7527 52.7929 35.0164 53.6965 35.302L53.8508 35.3459C55.0409 35.7194 56.3192 36.2467 56.3192 37.6967V37.7187C56.3412 39.2566 55.1952 40.2233 53.388 40.2233ZM62.3799 33.2807C62.3579 33.4345 62.2036 33.4345 62.2036 33.4345H60.5066L59.3385 39.9816C59.2063 40.6627 59.0741 41.2339 58.8757 41.7173C58.6994 42.2006 58.501 42.5302 58.2145 42.8597C57.928 43.1673 57.6195 43.387 57.2669 43.5188C56.9142 43.6507 56.4734 43.7165 56.0106 43.7165C55.7902 43.7165 55.5478 43.7166 55.2613 43.6506C55.063 43.6067 54.9528 43.5628 54.7985 43.5188C54.7324 43.4969 54.6883 43.409 54.7103 43.3211C54.7544 43.2112 55.0409 42.3764 55.085 42.2665C55.1291 42.1347 55.2613 42.1786 55.2613 42.1786C55.3495 42.2226 55.4156 42.2445 55.5478 42.2665C55.68 42.2885 55.8343 42.3105 55.9666 42.3105C56.1869 42.3105 56.3853 42.2885 56.5836 42.2226C56.804 42.1567 56.9142 42.0248 57.0465 41.8491C57.1787 41.6733 57.2889 41.4317 57.3991 41.1241C57.5093 40.7945 57.6195 40.3771 57.7076 39.8498L58.8537 33.4125H57.7076C57.5754 33.4125 57.5313 33.3466 57.5313 33.2368L57.7297 32.1602C57.7517 32.0064 57.906 32.0065 57.906 32.0065H59.0741L59.1402 31.6549C59.3165 30.6223 59.6691 29.8314 60.176 29.3261C60.6829 28.7988 61.4323 28.5352 62.3579 28.5352C62.6224 28.5352 62.8648 28.5571 63.0631 28.5791C63.2615 28.623 63.4158 28.645 63.57 28.689C63.6141 28.7109 63.7023 28.7549 63.6582 28.8647L63.2615 29.9412C63.2174 30.0291 63.1954 30.0731 63.0411 30.0291C62.997 30.0072 62.9309 30.0072 62.7766 29.9632C62.6664 29.9412 62.5122 29.9193 62.3579 29.9193C62.1596 29.9193 61.9612 29.9413 61.8069 30.0072C61.6526 30.0511 61.4984 30.139 61.3661 30.2708C61.2339 30.4026 61.0796 30.5784 61.0135 30.8201C60.8152 31.3693 60.749 31.9405 60.749 31.9845H62.402C62.5342 31.9845 62.5783 32.0504 62.5783 32.1602L62.3799 33.2807ZM69.9394 37.6967C69.7851 38.202 69.5647 38.6415 69.2561 39.0149C68.9476 39.3884 68.5509 39.674 68.0881 39.8937C67.6253 40.1135 67.0743 40.2233 66.4572 40.2233C65.8401 40.2233 65.2891 40.1135 64.8263 39.8937C64.3635 39.674 63.9668 39.3884 63.6582 39.0149C63.3497 38.6415 63.1072 38.202 62.975 37.6967C62.8207 37.1914 62.7546 36.6422 62.7546 36.0709C62.7546 35.4997 62.8207 34.9504 62.975 34.4451C63.1293 33.9398 63.3497 33.5004 63.6582 33.1269C63.9668 32.7534 64.3635 32.4458 64.8263 32.2481C65.2891 32.0284 65.8401 31.9186 66.4572 31.9186C67.0743 31.9186 67.6253 32.0284 68.0881 32.2481C68.5509 32.4678 68.9476 32.7534 69.2561 33.1269C69.5647 33.5004 69.8071 33.9398 69.9394 34.4451C70.0936 34.9504 70.1597 35.4997 70.1597 36.0709C70.1597 36.6422 70.0716 37.1914 69.9394 37.6967ZM76.3086 32.314C76.2646 32.4459 76.0001 33.1489 75.9119 33.3906C75.8679 33.4784 75.8238 33.5444 75.7136 33.5224C75.7136 33.5224 75.4271 33.4565 75.1406 33.4565C74.9643 33.4565 74.6778 33.4785 74.4574 33.5444C74.2149 33.6103 74.0166 33.7421 73.8182 33.9178C73.6199 34.0936 73.4877 34.3573 73.3554 34.6648C73.2452 34.9944 73.1791 35.4997 73.1791 36.005V39.8278C73.1791 39.9157 73.113 39.9816 73.0248 39.9816H71.6804C71.5923 39.9816 71.5262 39.9157 71.5262 39.8278V32.1602C71.5262 32.0723 71.5923 32.0065 71.6804 32.0065H73.0028C73.0909 32.0065 73.1571 32.0723 73.1571 32.1602V32.7974C73.3554 32.5337 73.708 32.292 74.0386 32.1602C74.3692 32.0064 74.7218 31.8966 75.361 31.9405C75.6916 31.9625 76.1323 32.0504 76.2205 32.0943C76.2646 32.1383 76.3307 32.2042 76.3086 32.314ZM82.7441 39.8059C82.1711 40.0256 81.3776 40.1793 80.5842 40.1793C79.2619 40.1793 78.2481 39.8059 77.5869 39.0589C76.9037 38.3119 76.5731 37.3012 76.5731 36.027C76.5731 35.4338 76.6613 34.8845 76.8155 34.4012C76.9698 33.8959 77.2343 33.4565 77.5649 33.083C77.8955 32.7095 78.3142 32.4239 78.7991 32.2042C79.2839 31.9845 79.857 31.8746 80.4961 31.8746C80.9148 31.8746 81.3115 31.8966 81.6421 31.9405C81.9948 31.9845 82.4576 32.1163 82.6559 32.2042C82.7 32.2262 82.7882 32.2701 82.7441 32.3799C82.6118 32.7754 82.5016 33.0391 82.3694 33.4125C82.3033 33.5663 82.1931 33.5224 82.1931 33.5224C81.6862 33.3686 81.2013 33.3027 80.5842 33.3027C79.8349 33.3027 79.2619 33.5443 78.8872 34.0497C78.5126 34.533 78.3142 35.1921 78.2922 36.049C78.2922 36.9937 78.5346 37.6967 78.9533 38.1141C79.3721 38.5535 79.9671 38.7732 80.6944 38.7732C81.003 38.7732 81.2675 38.7513 81.5319 38.7074C81.7744 38.6634 82.0168 38.5975 82.2372 38.5096C82.2372 38.5096 82.3914 38.4437 82.4355 38.5975L82.8102 39.6301C82.8543 39.7619 82.7441 39.8059 82.7441 39.8059ZM90.3916 36.3565C90.3696 36.4883 90.2374 36.4884 90.2374 36.4884H85.0802C85.1023 37.2793 85.3006 37.8285 85.6753 38.202C86.0499 38.5755 86.645 38.7952 87.4384 38.8172C88.6726 38.8172 89.1795 38.5755 89.5542 38.4437C89.5542 38.4437 89.6864 38.3998 89.7525 38.5316L90.0831 39.4763C90.1492 39.6301 90.1051 39.696 90.039 39.718C89.7084 39.8937 88.9371 40.2233 87.4384 40.2233C86.7111 40.2233 86.094 40.1134 85.5651 39.9157C85.0361 39.718 84.6174 39.4324 84.2648 39.0589C83.9342 38.6854 83.6697 38.246 83.5154 37.7626C83.3612 37.2573 83.273 36.7081 83.273 36.1149C83.273 35.5436 83.3391 34.9724 83.4934 34.4671C83.6477 33.9618 83.8681 33.5004 84.1987 33.1269C84.5072 32.7534 84.9039 32.4459 85.3888 32.2262C85.8736 32.0065 86.4466 31.8966 87.0858 31.8966C87.6368 31.8966 88.1437 32.0065 88.5624 32.2042C88.893 32.336 89.2015 32.5996 89.5321 32.9512C89.7525 33.1709 90.0611 33.6762 90.1933 34.1595C90.568 35.302 90.3916 36.2906 90.3916 36.3565Z" stroke="#BCBCC0" stroke-width="1.6" mask="url(#path-1-inside-1_6722_7373)"></path>
<path d="M86.9978 33.2587C86.3146 33.2587 85.8297 33.5224 85.5211 34.0057C85.3008 34.3133 85.1685 34.7307 85.1024 35.2141H88.7829C88.7389 34.7527 88.6507 34.3133 88.4523 34.0057C88.1218 33.5224 87.6589 33.2587 86.9978 33.2587Z" stroke="#BCBCC0" stroke-width="1.6" mask="url(#path-1-inside-1_6722_7373)"></path>
</svg>