<svg width="122" height="32" viewBox="0 0 122 32" fill="none" xmlns="http://www.w3.org/2000/svg">
<mask id="path-1-inside-1_6722_7375" fill="white">
<path d="M46.3228 25.368C42.6564 25.368 39.254 24.2097 36.9828 22.0616C35.2668 20.4387 34.442 18.2344 34.442 15.9656C34.442 13.7243 35.302 11.5047 36.982 9.89035C39.0916 7.86475 42.8164 6.59619 46.3228 6.59619C50.2028 6.59619 53.3084 7.62603 55.6828 9.89595C57.3716 11.5111 58.1884 13.7209 58.1884 15.9657C58.1884 18.1416 57.322 20.4589 55.6828 22.0616C53.4716 24.2236 49.9972 25.368 46.3228 25.368V22.8921C48.2684 22.8921 50.0732 22.1844 51.3332 20.8629C52.5852 19.5504 53.1684 17.9372 53.1684 15.9656C53.1684 14.0768 52.5388 12.3108 51.3332 11.0583C50.09 9.76771 48.242 9.04147 46.3228 9.04147C44.3972 9.04147 42.5484 9.76019 41.3036 11.0583C40.1044 12.3103 39.4732 14.0814 39.4732 15.9656C39.4732 17.8439 40.1116 19.6138 41.3036 20.8631C42.5492 22.1687 44.3916 22.8921 46.3228 22.8921V25.368ZM19.5297 6.60523C17.5688 6.60523 15.3412 6.99163 13.4483 7.88235C11.7014 8.70363 10.2715 10.0319 10.2715 12.234C10.2707 14.2172 11.4669 15.3787 11.4344 15.3466C11.9432 15.84 12.7623 16.6804 14.9038 17.1739C15.8609 17.3944 17.9072 17.7331 19.9448 17.9575C21.9675 18.1823 23.958 18.396 24.7688 18.6123C25.4129 18.785 26.495 19.0203 26.495 20.2994C26.495 21.5733 25.355 21.9621 25.1569 22.0464C24.959 22.1288 23.5915 22.79 21.1332 22.79C19.3181 22.79 17.1362 22.2149 16.3408 21.9152C15.424 21.5713 14.4623 21.1166 13.5652 19.962C13.342 19.6757 12.9901 18.8884 12.9901 18.1089H10.7652V24.6775H13.2382V23.7901C13.2382 23.689 13.3581 23.2735 13.7732 23.4711C14.2898 23.7183 15.806 24.3544 17.3914 24.7032C18.6913 24.9897 19.5295 25.195 21.1456 25.195C23.7823 25.195 25.1988 24.7424 26.178 24.4478C27.1005 24.1695 28.2404 23.6698 29.1664 22.8917C29.668 22.471 30.7676 21.3926 30.7676 19.4351C30.7676 17.5561 29.8106 16.3899 29.4739 16.0351C29.0152 15.5516 28.4551 15.177 27.8712 14.8882C27.3626 14.6359 26.56 14.333 25.9032 14.1636C24.6286 13.834 21.7464 13.4271 20.3681 13.2751C18.9228 13.116 16.4155 12.8972 15.414 12.5708C15.1105 12.4716 14.4916 12.1609 14.4916 11.4039C14.4916 10.8654 14.7746 10.4089 15.334 10.04C16.222 9.45387 18.0156 9.08939 19.8853 9.08939C22.0957 9.08083 23.9676 9.61331 25.1584 10.1743C25.5633 10.3648 26.0372 10.6384 26.4135 10.9622C26.8382 11.327 27.4344 12.0852 27.65 13.1426H29.6474V7.42475H27.4171V8.08939C27.4171 8.30387 27.2068 8.58267 26.8092 8.35227C25.811 7.80051 22.9895 6.61011 19.5297 6.60523ZM68.406 7.64427L79.286 17.9896L79.174 11.0243C79.1636 10.1109 79.0036 9.72963 78.066 9.72963H76.0204V7.64595H85.3228V9.72963H83.3276C82.3708 9.72963 82.3108 10.0518 82.2996 11.0243L82.4676 24.3335H79.282L66.7508 12.5493L66.7532 20.9126C66.7644 21.8216 66.8052 22.2499 67.694 22.2499H69.9276V24.3326H60.7924V22.25H62.9276C63.7252 22.25 63.694 21.4487 63.694 20.8652V11.1035C63.694 10.4734 63.61 9.73107 62.3572 9.73107H60.6244V7.64427H68.406ZM95.9532 22.2459C96.0404 22.2459 96.4284 22.2342 96.5036 22.21C96.718 22.1394 96.8636 21.978 96.9316 21.8096C96.9596 21.739 96.974 21.4264 96.974 21.3585L96.9756 18.0656C96.9756 17.9864 96.97 17.9522 96.8428 17.7758C96.7028 17.5831 91.1436 10.9459 90.8892 10.6536C90.5732 10.2908 90.0188 9.72979 89.1756 9.72979H87.2428V7.64531H98.1524V9.72723H96.8372C96.5324 9.72723 96.3308 10.0312 96.5908 10.3691C96.5908 10.3691 100.261 14.9952 100.296 15.0436C100.33 15.0928 100.359 15.1046 100.406 15.0596C100.452 15.0136 104.168 10.4115 104.197 10.3751C104.374 10.152 104.254 9.72963 103.873 9.72963H102.524V7.64531H111.465V9.72963H109.468C108.743 9.72963 108.448 9.87091 107.903 10.5203C107.654 10.8175 102.036 17.5739 101.883 17.7569C101.803 17.8526 101.81 17.986 101.81 18.0652V21.3577C101.81 21.4245 101.824 21.7375 101.852 21.8077C101.92 21.9768 102.067 22.1383 102.281 22.2081C102.356 22.2325 102.74 22.2445 102.827 22.2445H104.87V24.3285H94.0164V22.2443L95.9532 22.2459Z"></path>
</mask>
<path d="M46.3228 25.368C42.6564 25.368 39.254 24.2097 36.9828 22.0616C35.2668 20.4387 34.442 18.2344 34.442 15.9656C34.442 13.7243 35.302 11.5047 36.982 9.89035C39.0916 7.86475 42.8164 6.59619 46.3228 6.59619C50.2028 6.59619 53.3084 7.62603 55.6828 9.89595C57.3716 11.5111 58.1884 13.7209 58.1884 15.9657C58.1884 18.1416 57.322 20.4589 55.6828 22.0616C53.4716 24.2236 49.9972 25.368 46.3228 25.368V22.8921C48.2684 22.8921 50.0732 22.1844 51.3332 20.8629C52.5852 19.5504 53.1684 17.9372 53.1684 15.9656C53.1684 14.0768 52.5388 12.3108 51.3332 11.0583C50.09 9.76771 48.242 9.04147 46.3228 9.04147C44.3972 9.04147 42.5484 9.76019 41.3036 11.0583C40.1044 12.3103 39.4732 14.0814 39.4732 15.9656C39.4732 17.8439 40.1116 19.6138 41.3036 20.8631C42.5492 22.1687 44.3916 22.8921 46.3228 22.8921V25.368ZM19.5297 6.60523C17.5688 6.60523 15.3412 6.99163 13.4483 7.88235C11.7014 8.70363 10.2715 10.0319 10.2715 12.234C10.2707 14.2172 11.4669 15.3787 11.4344 15.3466C11.9432 15.84 12.7623 16.6804 14.9038 17.1739C15.8609 17.3944 17.9072 17.7331 19.9448 17.9575C21.9675 18.1823 23.958 18.396 24.7688 18.6123C25.4129 18.785 26.495 19.0203 26.495 20.2994C26.495 21.5733 25.355 21.9621 25.1569 22.0464C24.959 22.1288 23.5915 22.79 21.1332 22.79C19.3181 22.79 17.1362 22.2149 16.3408 21.9152C15.424 21.5713 14.4623 21.1166 13.5652 19.962C13.342 19.6757 12.9901 18.8884 12.9901 18.1089H10.7652V24.6775H13.2382V23.7901C13.2382 23.689 13.3581 23.2735 13.7732 23.4711C14.2898 23.7183 15.806 24.3544 17.3914 24.7032C18.6913 24.9897 19.5295 25.195 21.1456 25.195C23.7823 25.195 25.1988 24.7424 26.178 24.4478C27.1005 24.1695 28.2404 23.6698 29.1664 22.8917C29.668 22.471 30.7676 21.3926 30.7676 19.4351C30.7676 17.5561 29.8106 16.3899 29.4739 16.0351C29.0152 15.5516 28.4551 15.177 27.8712 14.8882C27.3626 14.6359 26.56 14.333 25.9032 14.1636C24.6286 13.834 21.7464 13.4271 20.3681 13.2751C18.9228 13.116 16.4155 12.8972 15.414 12.5708C15.1105 12.4716 14.4916 12.1609 14.4916 11.4039C14.4916 10.8654 14.7746 10.4089 15.334 10.04C16.222 9.45387 18.0156 9.08939 19.8853 9.08939C22.0957 9.08083 23.9676 9.61331 25.1584 10.1743C25.5633 10.3648 26.0372 10.6384 26.4135 10.9622C26.8382 11.327 27.4344 12.0852 27.65 13.1426H29.6474V7.42475H27.4171V8.08939C27.4171 8.30387 27.2068 8.58267 26.8092 8.35227C25.811 7.80051 22.9895 6.61011 19.5297 6.60523ZM68.406 7.64427L79.286 17.9896L79.174 11.0243C79.1636 10.1109 79.0036 9.72963 78.066 9.72963H76.0204V7.64595H85.3228V9.72963H83.3276C82.3708 9.72963 82.3108 10.0518 82.2996 11.0243L82.4676 24.3335H79.282L66.7508 12.5493L66.7532 20.9126C66.7644 21.8216 66.8052 22.2499 67.694 22.2499H69.9276V24.3326H60.7924V22.25H62.9276C63.7252 22.25 63.694 21.4487 63.694 20.8652V11.1035C63.694 10.4734 63.61 9.73107 62.3572 9.73107H60.6244V7.64427H68.406ZM95.9532 22.2459C96.0404 22.2459 96.4284 22.2342 96.5036 22.21C96.718 22.1394 96.8636 21.978 96.9316 21.8096C96.9596 21.739 96.974 21.4264 96.974 21.3585L96.9756 18.0656C96.9756 17.9864 96.97 17.9522 96.8428 17.7758C96.7028 17.5831 91.1436 10.9459 90.8892 10.6536C90.5732 10.2908 90.0188 9.72979 89.1756 9.72979H87.2428V7.64531H98.1524V9.72723H96.8372C96.5324 9.72723 96.3308 10.0312 96.5908 10.3691C96.5908 10.3691 100.261 14.9952 100.296 15.0436C100.33 15.0928 100.359 15.1046 100.406 15.0596C100.452 15.0136 104.168 10.4115 104.197 10.3751C104.374 10.152 104.254 9.72963 103.873 9.72963H102.524V7.64531H111.465V9.72963H109.468C108.743 9.72963 108.448 9.87091 107.903 10.5203C107.654 10.8175 102.036 17.5739 101.883 17.7569C101.803 17.8526 101.81 17.986 101.81 18.0652V21.3577C101.81 21.4245 101.824 21.7375 101.852 21.8077C101.92 21.9768 102.067 22.1383 102.281 22.2081C102.356 22.2325 102.74 22.2445 102.827 22.2445H104.87V24.3285H94.0164V22.2443L95.9532 22.2459Z" fill="#BCBCC0"></path>
<path d="M46.7228 25.368V22.8921H45.9228V25.368H46.7228ZM36.9828 22.0616L37.5325 21.4804L37.5325 21.4804L36.9828 22.0616ZM36.982 9.89035L36.4279 9.31329L36.4277 9.31351L36.982 9.89035ZM55.6828 9.89595L56.2357 9.31781L56.2356 9.31769L55.6828 9.89595ZM55.6828 22.0616L55.1235 21.4896V21.4896L55.6828 22.0616ZM51.3332 20.8629L50.7543 20.3107L50.7542 20.3108L51.3332 20.8629ZM51.3332 11.0583L51.9095 10.5035L51.9093 10.5033L51.3332 11.0583ZM41.3036 11.0583L40.7262 10.5046L40.7258 10.5049L41.3036 11.0583ZM41.3036 20.8631L41.8824 20.3108L41.8824 20.3108L41.3036 20.8631ZM19.5297 6.60523L19.5309 5.80523H19.5297V6.60523ZM13.4483 7.88235L13.7887 8.60633L13.7889 8.60621L13.4483 7.88235ZM10.2715 12.234L11.0715 12.2343V12.234H10.2715ZM11.4344 15.3466L11.9913 14.7723L10.8729 15.9165L11.4344 15.3466ZM14.9038 17.1739L14.7241 17.9535L14.7242 17.9535L14.9038 17.1739ZM19.9448 17.9575L20.0332 17.1624L20.0324 17.1624L19.9448 17.9575ZM24.7688 18.6123L24.976 17.8396L24.9749 17.8393L24.7688 18.6123ZM25.1569 22.0464L25.4644 22.785L25.4703 22.7825L25.1569 22.0464ZM16.3408 21.9152L16.6229 21.1666L16.6218 21.1662L16.3408 21.9152ZM13.5652 19.962L14.1969 19.4711L14.1961 19.4701L13.5652 19.962ZM12.9901 18.1089H13.7901V17.3089H12.9901V18.1089ZM10.7652 18.1089V17.3089H9.96525V18.1089H10.7652ZM10.7652 24.6775H9.96525V25.4776H10.7652V24.6775ZM13.2382 24.6775V25.4776H14.0382V24.6775H13.2382ZM13.7732 23.4711L14.1187 22.7495L14.1171 22.7487L13.7732 23.4711ZM17.3914 24.7032L17.5636 23.922L17.5633 23.9219L17.3914 24.7032ZM26.178 24.4478L26.4085 25.2139L26.409 25.2137L26.178 24.4478ZM29.1664 22.8917L28.6523 22.2788L28.6518 22.2792L29.1664 22.8917ZM29.4739 16.0351L28.8935 16.5857L28.8936 16.5858L29.4739 16.0351ZM27.8712 14.8882L27.5158 15.6049L27.5165 15.6053L27.8712 14.8882ZM25.9032 14.1636L25.7029 14.9381L25.7035 14.9383L25.9032 14.1636ZM20.3681 13.2751L20.4558 12.48L20.4557 12.48L20.3681 13.2751ZM15.414 12.5708L15.1657 13.3312L15.1661 13.3314L15.414 12.5708ZM15.334 10.04L15.7744 10.7079L15.7748 10.7077L15.334 10.04ZM19.8853 9.08939V9.8894L19.8884 9.88939L19.8853 9.08939ZM25.1584 10.1743L24.8174 10.898L24.8177 10.8981L25.1584 10.1743ZM26.4135 10.9622L25.8917 11.5686L25.8922 11.5691L26.4135 10.9622ZM27.65 13.1426L26.8661 13.3024L26.9966 13.9426H27.65V13.1426ZM29.6474 13.1426V13.9426H30.4474V13.1426H29.6474ZM29.6474 7.42475H30.4474V6.62475H29.6474V7.42475ZM27.4171 7.42475V6.62475H26.6171V7.42475H27.4171ZM26.8092 8.35227L27.2103 7.66009L27.2033 7.65603L27.1962 7.65212L26.8092 8.35227ZM68.406 7.64427L68.9572 7.06452L68.7256 6.84427H68.406V7.64427ZM79.286 17.9896L78.7347 18.5694L80.1165 19.8833L80.0859 17.9768L79.286 17.9896ZM79.174 11.0243L78.374 11.0334L78.3741 11.0371L79.174 11.0243ZM76.0204 9.72963H75.2204V10.5296H76.0204V9.72963ZM76.0204 7.64595V6.84595H75.2204V7.64595H76.0204ZM85.3228 7.64595H86.1228V6.84595H85.3228V7.64595ZM85.3228 9.72963V10.5296H86.1228V9.72963H85.3228ZM82.2996 11.0243L81.4996 11.0151L81.4995 11.0247L81.4996 11.0344L82.2996 11.0243ZM82.4676 24.3335V25.1335H83.2777L83.2675 24.3234L82.4676 24.3335ZM79.282 24.3335L78.7339 24.9163L78.9649 25.1335H79.282V24.3335ZM66.7508 12.5493L67.2988 11.9665L65.9502 10.6983L65.9508 12.5495L66.7508 12.5493ZM66.7532 20.9126L65.9531 20.9128L65.9532 20.9224L66.7532 20.9126ZM69.9276 22.2499H70.7276V21.4499H69.9276V22.2499ZM69.9276 24.3326V25.1326H70.7276V24.3326H69.9276ZM60.7924 24.3326H59.9924V25.1326H60.7924V24.3326ZM60.7924 22.25V21.45H59.9924V22.25H60.7924ZM60.6244 9.73107H59.8244V10.5311H60.6244V9.73107ZM60.6244 7.64427V6.84427H59.8244V7.64427H60.6244ZM95.9532 22.2459L95.9525 23.0459H95.9532V22.2459ZM96.5036 22.21L96.7483 22.9717L96.7539 22.9699L96.5036 22.21ZM96.9316 21.8096L97.6733 22.1093L97.6753 22.1044L96.9316 21.8096ZM96.974 21.3585L96.174 21.3581V21.3585H96.974ZM96.9756 18.0656L97.7756 18.066V18.0656H96.9756ZM96.8428 17.7758L97.4917 17.3079L97.49 17.3056L96.8428 17.7758ZM90.8892 10.6536L91.4926 10.1284L91.4925 10.1283L90.8892 10.6536ZM87.2428 9.72979H86.4428V10.5298H87.2428V9.72979ZM87.2428 7.64531V6.84531H86.4428V7.64531H87.2428ZM98.1524 7.64531H98.9524V6.84531H98.1524V7.64531ZM98.1524 9.72723V10.5272H98.9524V9.72723H98.1524ZM96.5908 10.3691L95.9566 10.857L95.9641 10.8664L96.5908 10.3691ZM100.296 15.0436L100.951 14.5852L100.948 14.5802L100.296 15.0436ZM100.406 15.0596L100.958 15.6389L100.966 15.631L100.974 15.6228L100.406 15.0596ZM104.197 10.3751L104.824 10.8722L104.824 10.872L104.197 10.3751ZM102.524 9.72963H101.724V10.5296H102.524V9.72963ZM102.524 7.64531V6.84531H101.724V7.64531H102.524ZM111.465 7.64531H112.265V6.84531H111.465V7.64531ZM111.465 9.72963V10.5296H112.265V9.72963H111.465ZM107.903 10.5203L107.29 10.0056L107.289 10.0067L107.903 10.5203ZM101.883 17.7569L102.496 18.2701L102.497 18.2696L101.883 17.7569ZM101.852 21.8077L101.109 22.1039L101.11 22.1062L101.852 21.8077ZM102.281 22.2081L102.033 22.9688L102.034 22.9691L102.281 22.2081ZM104.87 22.2445H105.67V21.4445H104.87V22.2445ZM104.87 24.3285V25.1285H105.67V24.3285H104.87ZM94.0164 24.3285H93.2164V25.1285H94.0164V24.3285ZM94.0164 22.2443L94.0171 21.4443L93.2164 21.4436V22.2443H94.0164ZM46.3228 24.568C42.8104 24.568 39.6221 23.4568 37.5325 21.4804L36.4331 22.6428C38.8858 24.9626 42.5023 26.168 46.3228 26.168V24.568ZM37.5325 21.4804C35.9939 20.0253 35.242 18.0399 35.242 15.9656H33.642C33.642 18.4288 34.5397 20.8522 36.4331 22.6429L37.5325 21.4804ZM35.242 15.9656C35.242 13.9259 36.0245 11.92 37.5363 10.4672L36.4277 9.31351C34.5795 11.0895 33.642 13.5226 33.642 15.9656H35.242ZM37.536 10.4674C39.4603 8.61979 42.9663 7.39619 46.3228 7.39619V5.79619C42.6664 5.79619 38.7228 7.10971 36.4279 9.31329L37.536 10.4674ZM46.3228 7.39619C50.0542 7.39619 52.9413 8.38185 55.1299 10.4742L56.2356 9.31769C53.6755 6.87021 50.3513 5.79619 46.3228 5.79619V7.39619ZM55.1298 10.4741C56.6427 11.921 57.3884 13.9128 57.3884 15.9657H58.9884C58.9884 13.529 58.1005 11.1013 56.2357 9.31781L55.1298 10.4741ZM57.3884 15.9657C57.3884 17.9466 56.5949 20.051 55.1235 21.4896L56.2421 22.6336C58.0491 20.8668 58.9884 18.3367 58.9884 15.9657H57.3884ZM55.1235 21.4896C53.1027 23.4654 49.8534 24.568 46.3228 24.568V26.168C50.1409 26.168 53.8404 24.9819 56.2421 22.6336L55.1235 21.4896ZM46.3228 23.6921C48.4601 23.6921 50.4835 22.9133 51.9121 21.415L50.7542 20.3108C49.6629 21.4554 48.0766 22.0921 46.3228 22.0921V23.6921ZM51.912 21.4151C53.3254 19.9335 53.9684 18.1129 53.9684 15.9656H52.3684C52.3684 17.7614 51.845 19.1674 50.7543 20.3107L51.912 21.4151ZM53.9684 15.9656C53.9684 13.9048 53.2812 11.9285 51.9095 10.5035L50.7568 11.613C51.7964 12.6931 52.3684 14.2487 52.3684 15.9656H53.9684ZM51.9093 10.5033C50.4984 9.0386 48.4337 8.24147 46.3228 8.24147V9.84147C48.0502 9.84147 49.6815 10.4968 50.757 11.6133L51.9093 10.5033ZM46.3228 8.24147C44.208 8.24147 42.1406 9.02952 40.7262 10.5046L41.881 11.612C42.9561 10.4909 44.5864 9.84147 46.3228 9.84147V8.24147ZM40.7258 10.5049C39.3619 11.9289 38.6732 13.9094 38.6732 15.9656H40.2732C40.2732 14.2533 40.8468 12.6918 41.8813 11.6116L40.7258 10.5049ZM38.6732 15.9656C38.6732 18.0183 39.3706 19.9961 40.7248 21.4153L41.8824 20.3108C40.8526 19.2315 40.2732 17.6695 40.2732 15.9656H38.6732ZM40.7247 21.4153C42.1392 22.8979 44.2002 23.6921 46.3228 23.6921V22.0921C44.5829 22.0921 42.9591 21.4394 41.8824 20.3108L40.7247 21.4153ZM19.5297 5.80523C17.4767 5.80523 15.1281 6.20776 13.1077 7.15849L13.7889 8.60621C15.5543 7.7755 17.661 7.40523 19.5297 7.40523V5.80523ZM13.1079 7.15837C11.2247 8.04377 9.47148 9.58923 9.47148 12.234H11.0715C11.0715 10.4745 12.1782 9.3635 13.7887 8.60633L13.1079 7.15837ZM9.47148 12.2336C9.47102 13.3901 9.82012 14.3088 10.1644 14.9326C10.3366 15.2445 10.5091 15.4856 10.6399 15.6503C10.7055 15.7329 10.7611 15.7968 10.8017 15.8414C10.8219 15.8638 10.8386 15.8813 10.8509 15.8941C10.857 15.9004 10.8621 15.9057 10.8663 15.9099C10.8669 15.9105 10.871 15.9146 10.8758 15.9193C10.8782 15.9216 10.9016 15.9434 10.9233 15.9622C12.0196 15.8934 12.0095 14.7905 12.005 14.7859C12.0037 14.7846 12.0018 14.7826 12.001 14.7819C12.0006 14.7814 11.9998 14.7807 11.9994 14.7803C11.998 14.7789 11.9968 14.7776 11.9958 14.7767L10.8729 15.9165C10.8725 15.916 10.8716 15.9152 10.8704 15.914C10.8701 15.9136 10.8693 15.9129 10.8689 15.9125C10.8682 15.9118 10.8663 15.9098 10.865 15.9086C10.8606 15.904 10.8505 14.8011 11.9467 14.7323C11.9684 14.751 11.9918 14.7728 11.9942 14.7751C11.9965 14.7773 11.9983 14.7791 11.9984 14.7792C11.999 14.7799 11.9995 14.7804 11.9998 14.7807C12.0006 14.7814 12.0011 14.782 12.0015 14.7824C12.003 14.7839 12.0033 14.7842 12.0025 14.7833C12.0008 14.7816 11.9951 14.7756 11.9858 14.7654C11.9671 14.7449 11.9346 14.7078 11.8926 14.655C11.8084 14.549 11.688 14.3818 11.5652 14.1594C11.3198 13.7147 11.0712 13.061 11.0715 12.2343L9.47148 12.2336ZM10.8775 15.9209C11.1303 16.1661 11.5172 16.5556 12.1343 16.9395C12.752 17.3238 13.5756 17.6888 14.7241 17.9535L15.0835 16.3944C14.0905 16.1656 13.4338 15.8636 12.9794 15.5809C12.5244 15.2979 12.2473 15.0205 11.9913 14.7723L10.8775 15.9209ZM14.7242 17.9535C15.722 18.1834 17.8014 18.5263 19.8573 18.7527L20.0324 17.1624C18.0129 16.94 15.9998 16.6055 15.0834 16.3944L14.7242 17.9535ZM19.8565 18.7527C20.8713 18.8654 21.8664 18.9742 22.7101 19.0817C23.5697 19.1912 24.2173 19.2931 24.5626 19.3852L24.9749 17.8393C24.5095 17.7152 23.7565 17.6021 22.9124 17.4945C22.0525 17.385 21.041 17.2745 20.0332 17.1624L19.8565 18.7527ZM24.5616 19.385C24.9288 19.4834 25.2076 19.5546 25.4215 19.7011C25.5685 19.8017 25.695 19.9402 25.695 20.2994H27.295C27.295 19.3796 26.8804 18.7608 26.3254 18.3808C25.8372 18.0467 25.2529 17.9138 24.976 17.8396L24.5616 19.385ZM25.695 20.2994C25.695 20.9778 25.1333 21.187 24.8436 21.3103L25.4703 22.7825C25.4702 22.7825 25.4704 22.7824 25.4709 22.7822C25.4714 22.782 25.472 22.7818 25.4729 22.7814C25.4747 22.7807 25.477 22.7797 25.4802 22.7784C25.4871 22.7756 25.4941 22.7728 25.505 22.7684C25.5252 22.7602 25.5521 22.7493 25.5828 22.7363C25.6446 22.7101 25.7229 22.6753 25.8109 22.6308C25.9855 22.5424 26.2054 22.4121 26.4225 22.225C26.872 21.8376 27.295 21.2135 27.295 20.2994H25.695ZM24.8494 21.3079C24.6828 21.3773 23.4323 21.99 21.1332 21.99V23.59C23.7507 23.59 25.2353 22.8804 25.4644 22.785L24.8494 21.3079ZM21.1332 21.99C19.4395 21.99 17.355 21.4424 16.6229 21.1666L16.0588 22.6639C16.9174 22.9874 19.1967 23.59 21.1332 23.59V21.99ZM16.6218 21.1662C15.7719 20.8474 14.9656 20.4605 14.1969 19.4711L12.9334 20.4528C13.959 21.7727 15.0762 22.2952 16.0599 22.6643L16.6218 21.1662ZM14.1961 19.4701C14.1551 19.4175 14.047 19.235 13.9488 18.9554C13.8541 18.6855 13.7901 18.3853 13.7901 18.1089H12.1901C12.1901 18.6121 12.3022 19.0952 12.4391 19.4854C12.5727 19.8659 12.7521 20.2202 12.9342 20.4538L14.1961 19.4701ZM12.9901 17.3089H10.7652V18.9089H12.9901V17.3089ZM9.96525 18.1089V24.6775H11.5652V18.1089H9.96525ZM10.7652 25.4776H13.2382V23.8776H10.7652V25.4776ZM14.0382 24.6775V23.7901H12.4382V24.6775H14.0382ZM14.0382 23.7901C14.0382 23.8812 14.0204 23.9289 14.0176 23.9367C14.0114 23.9543 13.9938 23.9986 13.9472 24.051C13.8941 24.1105 13.7972 24.1849 13.6586 24.2103C13.5237 24.235 13.4371 24.197 13.4294 24.1934L14.1171 22.7487C13.9019 22.6463 13.6446 22.5862 13.3704 22.6364C13.0927 22.6873 12.8879 22.8348 12.7529 22.9862C12.6244 23.1303 12.5509 23.2852 12.5093 23.4029C12.4711 23.5109 12.4382 23.6484 12.4382 23.7901H14.0382ZM13.4278 24.1927C13.9816 24.4577 15.5573 25.1188 17.2195 25.4845L17.5633 23.9219C16.0548 23.59 14.5981 22.979 14.1187 22.7495L13.4278 24.1927ZM17.2192 25.4845C18.523 25.7718 19.4351 25.995 21.1456 25.995V24.395C19.6239 24.395 18.8597 24.2076 17.5636 23.922L17.2192 25.4845ZM21.1456 25.995C23.8959 25.995 25.3985 25.5178 26.4085 25.2139L25.9475 23.6817C24.999 23.9671 23.6687 24.395 21.1456 24.395V25.995ZM26.409 25.2137C27.3973 24.9155 28.646 24.3739 29.6811 23.5042L28.6518 22.2792C27.8349 22.9657 26.8037 23.4234 25.9469 23.6819L26.409 25.2137ZM29.6806 23.5046C30.2628 23.0162 31.5676 21.7347 31.5676 19.4351H29.9676C29.9676 21.0505 29.0731 21.9258 28.6523 22.2788L29.6806 23.5046ZM31.5676 19.4351C31.5676 17.2701 30.464 15.9162 30.0542 15.4844L28.8936 16.5858C29.1572 16.8635 29.9676 17.8421 29.9676 19.4351H31.5676ZM30.0543 15.4845C29.5151 14.9161 28.871 14.4902 28.2259 14.1711L27.5165 15.6053C28.0391 15.8638 28.5154 16.1871 28.8935 16.5857L30.0543 15.4845ZM28.2267 14.1715C27.6671 13.894 26.8122 13.5719 26.103 13.389L25.7035 14.9383C26.3077 15.0941 27.0581 15.3779 27.5158 15.6049L28.2267 14.1715ZM26.1036 13.3891C24.7681 13.0437 21.8353 12.6321 20.4558 12.48L20.2804 14.0703C21.6574 14.2222 24.4891 14.6242 25.7029 14.9381L26.1036 13.3891ZM20.4557 12.48C19.7152 12.3984 18.7499 12.3065 17.8229 12.1918C16.8775 12.0748 16.0774 11.9456 15.662 11.8102L15.1661 13.3314C15.7522 13.5224 16.7064 13.6658 17.6264 13.7797C18.5647 13.8958 19.5757 13.9927 20.2806 14.0703L20.4557 12.48ZM15.6624 11.8103C15.5785 11.7829 15.4692 11.7299 15.3926 11.6565C15.3583 11.6236 15.3354 11.5914 15.3204 11.5587C15.3064 11.528 15.2916 11.4804 15.2916 11.4039H13.6916C13.6916 12.7126 14.7837 13.2065 15.1657 13.3312L15.6624 11.8103ZM15.2916 11.4039C15.2916 11.2027 15.3756 10.9709 15.7744 10.7079L14.8937 9.37215C14.1736 9.84696 13.6916 10.528 13.6916 11.4039H15.2916ZM15.7748 10.7077C16.0969 10.495 16.6543 10.2836 17.4039 10.1283C18.1384 9.97602 18.9994 9.88939 19.8853 9.88939V8.28939C18.9016 8.28939 17.9309 8.385 17.0792 8.56155C16.2425 8.73496 15.4591 8.99889 14.8933 9.37239L15.7748 10.7077ZM19.8884 9.88939C21.9751 9.8813 23.7298 10.3856 24.8174 10.898L25.4993 9.45055C24.2053 8.841 22.2163 8.28036 19.8822 8.2894L19.8884 9.88939ZM24.8177 10.8981C25.1833 11.0702 25.5884 11.3077 25.8917 11.5686L26.9352 10.3557C26.4859 9.96918 25.9433 9.6595 25.499 9.45041L24.8177 10.8981ZM25.8922 11.5691C26.2057 11.8383 26.6917 12.4471 26.8661 13.3024L28.4338 12.9828C28.177 11.7232 27.4707 10.8156 26.9347 10.3553L25.8922 11.5691ZM27.65 13.9426H29.6474V12.3426H27.65V13.9426ZM30.4474 13.1426V7.42475H28.8474V13.1426H30.4474ZM29.6474 6.62475H27.4171V8.22475H29.6474V6.62475ZM26.6171 7.42475V8.08939H28.2171V7.42475H26.6171ZM26.6171 8.08939C26.6171 7.97296 26.6642 7.82414 26.8206 7.72059C26.9102 7.66132 27.012 7.63566 27.1027 7.63915C27.1861 7.64236 27.2246 7.66839 27.2103 7.66009L26.4081 9.04445C26.7916 9.2667 27.2808 9.33481 27.7038 9.05473C28.0648 8.81576 28.2171 8.4203 28.2171 8.08939H26.6171ZM27.1962 7.65212C26.1103 7.05185 23.1565 5.81035 19.5309 5.80523L19.5286 7.40523C22.8224 7.40988 25.5117 8.54917 26.4221 9.05242L27.1962 7.65212ZM67.8547 8.22402L78.7347 18.5694L79.8372 17.4099L68.9572 7.06452L67.8547 8.22402ZM80.0859 17.9768L79.9739 11.0114L78.3741 11.0371L78.4861 18.0025L80.0859 17.9768ZM79.9739 11.0152C79.969 10.581 79.9427 9.99722 79.6056 9.55175C79.213 9.03287 78.6053 8.92963 78.066 8.92963V10.5296C78.2545 10.5296 78.3435 10.5499 78.3755 10.5608C78.3918 10.5664 78.3593 10.5562 78.3297 10.5171C78.3091 10.4899 78.3247 10.493 78.3423 10.5856C78.3603 10.6805 78.3716 10.8202 78.374 11.0334L79.9739 11.0152ZM78.066 8.92963H76.0204V10.5296H78.066V8.92963ZM76.8204 9.72963V7.64595H75.2204V9.72963H76.8204ZM76.0204 8.44595H85.3228V6.84595H76.0204V8.44595ZM84.5228 7.64595V9.72963H86.1228V7.64595H84.5228ZM85.3228 8.92963H83.3276V10.5296H85.3228V8.92963ZM83.3276 8.92963C82.8302 8.92963 82.1786 8.99593 81.7952 9.56563C81.6277 9.81466 81.5664 10.087 81.5373 10.3065C81.508 10.5274 81.5024 10.7748 81.4996 11.0151L83.0995 11.0335C83.1023 10.7875 83.1084 10.63 83.1234 10.5169C83.1386 10.4025 83.1543 10.412 83.1227 10.4589C83.104 10.4866 83.0784 10.5134 83.0493 10.5341C83.0222 10.5535 83.0051 10.5583 83.0111 10.5563C83.0344 10.5488 83.1205 10.5296 83.3276 10.5296V8.92963ZM81.4996 11.0344L81.6676 24.3436L83.2675 24.3234L83.0995 11.0142L81.4996 11.0344ZM82.4676 23.5335H79.282V25.1335H82.4676V23.5335ZM79.83 23.7507L67.2988 11.9665L66.2027 13.1321L78.7339 24.9163L79.83 23.7507ZM65.9508 12.5495L65.9532 20.9128L67.5532 20.9124L67.5508 12.5491L65.9508 12.5495ZM65.9532 20.9224C65.956 21.1459 65.9605 21.382 65.9851 21.5963C66.0095 21.8082 66.0598 22.0672 66.1953 22.3109C66.5298 22.9125 67.1416 23.0499 67.694 23.0499V21.4499C67.5251 21.4499 67.4754 21.4278 67.4842 21.4315C67.5179 21.4457 67.567 21.4854 67.5937 21.5334C67.6064 21.5564 67.5889 21.5378 67.5747 21.4138C67.5607 21.2921 67.556 21.1338 67.5531 20.9027L65.9532 20.9224ZM67.694 23.0499H69.9276V21.4499H67.694V23.0499ZM69.1276 22.2499V24.3326H70.7276V22.2499H69.1276ZM69.9276 23.5326H60.7924V25.1326H69.9276V23.5326ZM61.5924 24.3326V22.25H59.9924V24.3326H61.5924ZM60.7924 23.05H62.9276V21.45H60.7924V23.05ZM62.9276 23.05C63.2659 23.05 63.5959 22.9624 63.8724 22.7492C64.1427 22.5407 64.2883 22.2687 64.3681 22.0314C64.5118 21.6043 64.494 21.1 64.494 20.8652H62.894C62.894 21.0255 62.8955 21.1529 62.8878 21.2793C62.8802 21.405 62.8654 21.4805 62.8516 21.5214C62.8395 21.5574 62.8434 21.5222 62.8953 21.4822C62.9533 21.4375 62.988 21.45 62.9276 21.45V23.05ZM64.494 20.8652V11.1035H62.894V20.8652H64.494ZM64.494 11.1035C64.494 10.7955 64.4869 10.2222 64.1594 9.73484C63.7822 9.17335 63.1432 8.93107 62.3572 8.93107V10.5311C62.5955 10.5311 62.7208 10.5669 62.7775 10.5914C62.8239 10.6114 62.8301 10.6253 62.8313 10.6271C62.8386 10.638 62.858 10.6735 62.873 10.76C62.8885 10.8489 62.894 10.9582 62.894 11.1035H64.494ZM62.3572 8.93107H60.6244V10.5311H62.3572V8.93107ZM61.4244 9.73107V7.64427H59.8244V9.73107H61.4244ZM60.6244 8.44427H68.406V6.84427H60.6244V8.44427ZM95.9532 23.0459C96.0145 23.0459 96.1476 23.0424 96.2735 23.036C96.3373 23.0328 96.4081 23.0284 96.4723 23.0224C96.5028 23.0195 96.6313 23.0093 96.7483 22.9717L96.2589 21.4484C96.2931 21.4374 96.3188 21.432 96.3275 21.4303C96.3385 21.428 96.3453 21.4271 96.3459 21.427C96.3469 21.4268 96.3404 21.4277 96.3239 21.4293C96.2915 21.4323 96.2457 21.4354 96.1923 21.4381C96.0835 21.4436 95.979 21.4459 95.9532 21.4459V23.0459ZM96.7539 22.9699C97.2163 22.8175 97.5273 22.4707 97.6733 22.1093L96.1898 21.51C96.196 21.4946 96.2036 21.4838 96.2127 21.475C96.2232 21.4646 96.2376 21.4554 96.2532 21.4502L96.7539 22.9699ZM97.6753 22.1044C97.724 21.9814 97.7392 21.8533 97.7432 21.823C97.7512 21.7619 97.757 21.6976 97.7611 21.6424C97.769 21.5361 97.774 21.4196 97.774 21.3585H96.174C96.174 21.3571 96.1737 21.375 96.1721 21.412C96.1706 21.4453 96.1683 21.485 96.1655 21.5237C96.1625 21.564 96.1594 21.5953 96.1568 21.6148C96.1555 21.6247 96.1553 21.6243 96.1568 21.6166C96.1576 21.6124 96.1597 21.6024 96.1635 21.5882C96.1668 21.5757 96.1743 21.549 96.1879 21.5148L97.6753 22.1044ZM97.774 21.3589L97.7756 18.066L96.1756 18.0652L96.174 21.3581L97.774 21.3589ZM97.7756 18.0656C97.7756 17.9872 97.7729 17.8311 97.6926 17.643C97.6363 17.5113 97.5535 17.3937 97.4917 17.3079L96.1939 18.2437C96.2214 18.2819 96.2346 18.3017 96.2401 18.3105C96.246 18.3198 96.2351 18.3039 96.2211 18.2714C96.2043 18.2319 96.1892 18.1827 96.1812 18.128C96.1746 18.0829 96.1756 18.0496 96.1756 18.0656H97.7756ZM97.49 17.3056C97.3986 17.1797 95.9409 15.4339 94.5224 13.7387C93.0882 12.0245 91.6265 10.2823 91.4926 10.1284L90.2858 11.1789C90.4062 11.3172 91.8514 13.0397 93.2953 14.7654C94.0147 15.6252 94.7303 16.4816 95.2746 17.1348C95.5469 17.4616 95.7758 17.737 95.9408 17.9364C96.1207 18.1538 96.1974 18.2486 96.1955 18.246L97.49 17.3056ZM91.4925 10.1283C91.1611 9.74768 90.3983 8.92979 89.1756 8.92979V10.5298C89.6393 10.5298 89.9853 10.8338 90.2859 11.179L91.4925 10.1283ZM89.1756 8.92979H87.2428V10.5298H89.1756V8.92979ZM88.0428 9.72979V7.64531H86.4428V9.72979H88.0428ZM87.2428 8.44531H98.1524V6.84531H87.2428V8.44531ZM97.3524 7.64531V9.72723H98.9524V7.64531H97.3524ZM98.1524 8.92723H96.8372V10.5272H98.1524V8.92723ZM96.8372 8.92723C96.4204 8.92723 95.9857 9.143 95.7792 9.57904C95.5634 10.0346 95.6926 10.5137 95.9567 10.857L97.2248 9.88131C97.2289 9.88664 97.3289 10.0448 97.2252 10.2639C97.1307 10.4635 96.9491 10.5272 96.8372 10.5272V8.92723ZM96.5908 10.3691C95.9641 10.8664 95.9641 10.8664 95.9641 10.8664C95.9641 10.8665 95.9642 10.8665 95.9642 10.8666C95.9643 10.8667 95.9645 10.8669 95.9647 10.8672C95.9652 10.8678 95.9658 10.8686 95.9667 10.8697C95.9685 10.872 95.9711 10.8753 95.9746 10.8797C95.9815 10.8884 95.9918 10.9014 96.0053 10.9183C96.0322 10.9522 96.0716 11.0019 96.1218 11.0652C96.2222 11.1918 96.3657 11.3727 96.538 11.5899C96.8827 12.0243 97.3425 12.6041 97.8034 13.1853C98.2644 13.7666 98.7263 14.3492 99.0751 14.7896C99.4399 15.2502 99.6509 15.5176 99.6435 15.5071L100.948 14.5802C100.914 14.5331 99.9623 13.3326 99.0571 12.1912C98.5961 11.6098 98.1362 11.03 97.7915 10.5956C97.6192 10.3783 97.4757 10.1974 97.3753 10.0708C97.325 10.0075 97.2856 9.95779 97.2587 9.92389C97.2453 9.90694 97.2349 9.89395 97.228 9.88519C97.2245 9.88081 97.2219 9.87749 97.2201 9.87527C97.2192 9.87416 97.2186 9.87332 97.2181 9.87276C97.2179 9.87248 97.2177 9.87227 97.2176 9.87213C97.2176 9.87206 97.2175 9.872 97.2175 9.87197C97.2175 9.87193 97.2175 9.87191 96.5908 10.3691ZM99.6399 15.502C99.6625 15.5344 99.8362 15.801 100.189 15.8715C100.606 15.9545 100.885 15.7083 100.958 15.6389L99.8542 14.4804C99.8798 14.4559 100.121 14.2263 100.502 14.3024C100.673 14.3365 100.79 14.4199 100.851 14.474C100.909 14.5257 100.942 14.5726 100.951 14.5852L99.6399 15.502ZM100.974 15.6228C100.993 15.6037 101.008 15.5868 101.009 15.5859C101.013 15.5806 101.017 15.5759 101.02 15.5729C101.025 15.5666 101.031 15.5599 101.036 15.554C101.046 15.5418 101.059 15.5258 101.074 15.5073C101.105 15.4698 101.148 15.417 101.201 15.3516C101.308 15.2206 101.457 15.0364 101.635 14.817C101.991 14.3782 102.461 13.7972 102.93 13.2167C103.866 12.0591 104.806 10.8943 104.824 10.8722L103.57 9.87809C103.571 9.87684 103.559 9.89244 103.528 9.93088C103.499 9.96651 103.458 10.0178 103.405 10.0824C103.301 10.2118 103.153 10.3947 102.977 10.6133C102.624 11.0505 102.155 11.6305 101.686 12.2108C101.217 12.7912 100.747 13.3716 100.392 13.8097C100.214 14.0289 100.066 14.212 99.9603 14.3417C99.9074 14.4066 99.866 14.4574 99.8372 14.4924C99.8228 14.5101 99.8124 14.5226 99.8059 14.5305C99.7823 14.5589 99.8077 14.5268 99.8378 14.4964L100.974 15.6228ZM104.824 10.872C105.116 10.5038 105.135 10.0277 104.983 9.6616C104.813 9.25208 104.41 8.92963 103.873 8.92963V10.5296C103.814 10.5296 103.732 10.5112 103.653 10.4562C103.578 10.4039 103.531 10.3365 103.506 10.2758C103.464 10.1767 103.455 10.0234 103.57 9.8783L104.824 10.872ZM103.873 8.92963H102.524V10.5296H103.873V8.92963ZM103.324 9.72963V7.64531H101.724V9.72963H103.324ZM102.524 8.44531H111.465V6.84531H102.524V8.44531ZM110.665 7.64531V9.72963H112.265V7.64531H110.665ZM111.465 8.92963H109.468V10.5296H111.465V8.92963ZM109.468 8.92963C109.061 8.92963 108.658 8.96666 108.259 9.16626C107.875 9.35889 107.579 9.66212 107.29 10.0056L108.515 11.0349C108.772 10.7291 108.896 10.637 108.976 10.5966C109.043 10.5632 109.149 10.5296 109.468 10.5296V8.92963ZM107.289 10.0067C107.042 10.3026 101.417 17.0667 101.269 17.2442L102.497 18.2696C102.654 18.0811 108.266 11.3324 108.516 11.0338L107.289 10.0067ZM101.269 17.2438C101.102 17.4441 101.046 17.6599 101.025 17.7997C101.006 17.9291 101.01 18.0594 101.01 18.0652H102.61C102.61 18.0251 102.61 18.0289 102.61 18.0154C102.61 18.0099 102.61 18.0184 102.608 18.0348C102.603 18.0642 102.584 18.1654 102.496 18.2701L101.269 17.2438ZM101.01 18.0652V21.3577H102.61V18.0652H101.01ZM101.01 21.3577C101.01 21.4183 101.015 21.5347 101.023 21.6408C101.027 21.6959 101.033 21.7602 101.041 21.8213C101.045 21.8512 101.06 21.9802 101.109 22.1039L102.595 21.5115C102.609 21.546 102.617 21.5731 102.62 21.5858C102.624 21.6001 102.626 21.6103 102.627 21.6145C102.629 21.6224 102.628 21.6229 102.627 21.613C102.625 21.5936 102.621 21.5623 102.618 21.522C102.616 21.4834 102.613 21.4437 102.612 21.4105C102.611 21.394 102.611 21.3801 102.61 21.3696C102.61 21.3577 102.61 21.3545 102.61 21.3577H101.01ZM101.11 22.1062C101.257 22.4704 101.57 22.8178 102.033 22.9688L102.529 21.4475C102.545 21.4528 102.56 21.4623 102.571 21.4728C102.58 21.4819 102.588 21.4932 102.595 21.5093L101.11 22.1062ZM102.034 22.9691C102.151 23.007 102.279 23.0176 102.31 23.0205C102.374 23.0266 102.444 23.0311 102.508 23.0344C102.633 23.0409 102.765 23.0445 102.827 23.0445V21.4445C102.801 21.4445 102.699 21.4421 102.591 21.4365C102.538 21.4338 102.493 21.4307 102.462 21.4277C102.446 21.4262 102.439 21.4252 102.441 21.4254C102.442 21.4256 102.448 21.4266 102.46 21.4289C102.468 21.4307 102.494 21.4361 102.528 21.4472L102.034 22.9691ZM102.827 23.0445H104.87V21.4445H102.827V23.0445ZM104.07 22.2445V24.3285H105.67V22.2445H104.07ZM104.87 23.5285H94.0164V25.1285H104.87V23.5285ZM94.8164 24.3285V22.2443H93.2164V24.3285H94.8164ZM94.0157 23.0443L95.9525 23.0459L95.9539 21.4459L94.0171 21.4443L94.0157 23.0443Z" fill="#BCBCC0" mask="url(#path-1-inside-1_6722_7375)"></path>
</svg>