<svg width="185" height="15" viewBox="0 0 185 15" fill="none" xmlns="http://www.w3.org/2000/svg">
<path d="M8.3497 0.909091H11.1175V9.41051C11.1175 10.3651 10.8895 11.2003 10.4335 11.9162C9.9818 12.6321 9.34899 13.1903 8.53507 13.5909C7.72115 13.9872 6.77299 14.1854 5.69061 14.1854C4.60396 14.1854 3.65368 13.9872 2.83976 13.5909C2.02583 13.1903 1.39302 12.6321 0.941317 11.9162C0.489613 11.2003 0.263761 10.3651 0.263761 9.41051V0.909091H3.03152V9.17401C3.03152 9.67259 3.14018 10.1158 3.35751 10.5036C3.5791 10.8913 3.89018 11.196 4.29075 11.4176C4.69132 11.6392 5.15794 11.75 5.69061 11.75C6.22754 11.75 6.69416 11.6392 7.09047 11.4176C7.49103 11.196 7.79998 10.8913 8.01731 10.5036C8.2389 10.1158 8.3497 9.67259 8.3497 9.17401V0.909091ZM16.0665 8.32386V14H13.3435V4.18182H15.9387V5.91406H16.0537C16.271 5.34304 16.6354 4.89133 17.1468 4.55895C17.6581 4.2223 18.2781 4.05398 19.0068 4.05398C19.6887 4.05398 20.2831 4.20312 20.7902 4.50142C21.2973 4.79972 21.6915 5.22585 21.9727 5.77983C22.254 6.32955 22.3946 6.9858 22.3946 7.74858V14H19.6716V8.23438C19.6759 7.63352 19.5225 7.16477 19.2114 6.82812C18.9003 6.48722 18.472 6.31676 17.9266 6.31676C17.5601 6.31676 17.2362 6.3956 16.955 6.55327C16.678 6.71094 16.4607 6.94105 16.303 7.24361C16.1496 7.5419 16.0708 7.90199 16.0665 8.32386ZM24.5407 14V4.18182H27.2638V14H24.5407ZM25.9086 2.91619C25.5038 2.91619 25.1565 2.78196 24.8667 2.51349C24.5812 2.24077 24.4385 1.91477 24.4385 1.53551C24.4385 1.16051 24.5812 0.838778 24.8667 0.570312C25.1565 0.297585 25.5038 0.161221 25.9086 0.161221C26.3135 0.161221 26.6586 0.297585 26.9442 0.570312C27.2339 0.838778 27.3788 1.16051 27.3788 1.53551C27.3788 1.91477 27.2339 2.24077 26.9442 2.51349C26.6586 2.78196 26.3135 2.91619 25.9086 2.91619ZM38.5985 4.18182L35.1659 14H32.0977L28.6652 4.18182H31.5416L33.5807 11.2067H33.683L35.7156 4.18182H38.5985ZM44.1499 14.1918C43.14 14.1918 42.2707 13.9872 41.542 13.5781C40.8176 13.1648 40.2593 12.581 39.8673 11.8267C39.4752 11.0682 39.2792 10.1712 39.2792 9.13565C39.2792 8.12571 39.4752 7.23935 39.8673 6.47656C40.2593 5.71378 40.8112 5.11932 41.5228 4.69318C42.2387 4.26705 43.0782 4.05398 44.0413 4.05398C44.689 4.05398 45.292 4.15838 45.8502 4.36719C46.4127 4.57173 46.9028 4.88068 47.3204 5.29403C47.7423 5.70739 48.0704 6.22727 48.3048 6.85369C48.5392 7.47585 48.6563 8.20455 48.6563 9.03977V9.78764H40.3659V8.10014H46.0931C46.0931 7.7081 46.0079 7.3608 45.8374 7.05824C45.667 6.75568 45.4305 6.51918 45.1279 6.34872C44.8296 6.17401 44.4823 6.08665 44.086 6.08665C43.6727 6.08665 43.3062 6.18253 42.9866 6.37429C42.6713 6.56179 42.4241 6.81534 42.2451 7.13494C42.0661 7.45028 41.9745 7.80185 41.9703 8.18963V9.79403C41.9703 10.2798 42.0597 10.6996 42.2387 11.0533C42.422 11.407 42.6798 11.6797 43.0122 11.8714C43.3445 12.0632 43.7387 12.1591 44.1947 12.1591C44.4972 12.1591 44.7742 12.1165 45.0257 12.0312C45.2771 11.946 45.4923 11.8182 45.6713 11.6477C45.8502 11.4773 45.9866 11.2685 46.0803 11.0213L48.5988 11.1875C48.471 11.7926 48.2089 12.321 47.8126 12.7727C47.4205 13.2202 46.9134 13.5696 46.2913 13.821C45.6734 14.0682 44.9596 14.1918 44.1499 14.1918ZM50.4333 14V4.18182H53.0732V5.89489H53.1755C53.3545 5.28551 53.6549 4.82528 54.0768 4.5142C54.4987 4.19886 54.9845 4.04119 55.5342 4.04119C55.6705 4.04119 55.8176 4.04972 55.9752 4.06676C56.1329 4.08381 56.2714 4.10724 56.3907 4.13707V6.55327C56.2629 6.51491 56.086 6.48082 55.8602 6.45099C55.6343 6.42116 55.4276 6.40625 55.2401 6.40625C54.8396 6.40625 54.4816 6.49361 54.1663 6.66832C53.8552 6.83878 53.608 7.07741 53.4248 7.38423C53.2458 7.69105 53.1563 8.04474 53.1563 8.44531V14H50.4333ZM65.9676 6.98153L63.4747 7.13494C63.4321 6.92187 63.3405 6.73011 63.1998 6.55966C63.0592 6.38494 62.8738 6.24645 62.6437 6.14418C62.4179 6.03764 62.1473 5.98438 61.8319 5.98438C61.4101 5.98438 61.0542 6.07386 60.7645 6.25284C60.4747 6.42756 60.3298 6.66193 60.3298 6.95597C60.3298 7.19034 60.4236 7.38849 60.6111 7.55043C60.7986 7.71236 61.1203 7.84233 61.5763 7.94034L63.3532 8.2983C64.3078 8.49432 65.0194 8.80966 65.4882 9.24432C65.9569 9.67898 66.1913 10.25 66.1913 10.9574C66.1913 11.6009 66.0017 12.1655 65.6224 12.6513C65.2474 13.1371 64.7318 13.5163 64.0756 13.7891C63.4236 14.0575 62.6714 14.1918 61.8192 14.1918C60.5194 14.1918 59.4839 13.9212 58.7126 13.38C57.9456 12.8345 57.496 12.093 57.3639 11.1555L60.0422 11.0149C60.1231 11.4112 60.3192 11.7138 60.6302 11.9226C60.9413 12.1271 61.3398 12.2294 61.8256 12.2294C62.3028 12.2294 62.6863 12.1378 62.9761 11.9545C63.2702 11.767 63.4193 11.5263 63.4236 11.2322C63.4193 10.9851 63.3149 10.7827 63.1104 10.625C62.9058 10.4631 62.5905 10.3395 62.1643 10.2543L60.464 9.91548C59.5052 9.72372 58.7915 9.39134 58.3227 8.91832C57.8582 8.44531 57.626 7.84233 57.626 7.10938C57.626 6.47869 57.7964 5.93537 58.1373 5.4794C58.4825 5.02344 58.9662 4.67188 59.5883 4.42472C60.2148 4.17756 60.9477 4.05398 61.7872 4.05398C63.0273 4.05398 64.0031 4.31605 64.7148 4.8402C65.4307 5.36435 65.8483 6.07812 65.9676 6.98153ZM72.3804 14.1918C71.3705 14.1918 70.5012 13.9872 69.7725 13.5781C69.048 13.1648 68.4898 12.581 68.0977 11.8267C67.7057 11.0682 67.5097 10.1712 67.5097 9.13565C67.5097 8.12571 67.7057 7.23935 68.0977 6.47656C68.4898 5.71378 69.0416 5.11932 69.7533 4.69318C70.4692 4.26705 71.3087 4.05398 72.2718 4.05398C72.9195 4.05398 73.5225 4.15838 74.0807 4.36719C74.6432 4.57173 75.1333 4.88068 75.5509 5.29403C75.9727 5.70739 76.3009 6.22727 76.5352 6.85369C76.7696 7.47585 76.8868 8.20455 76.8868 9.03977V9.78764H68.5963V8.10014H74.3236C74.3236 7.7081 74.2384 7.3608 74.0679 7.05824C73.8975 6.75568 73.661 6.51918 73.3584 6.34872C73.0601 6.17401 72.7128 6.08665 72.3165 6.08665C71.9031 6.08665 71.5367 6.18253 71.2171 6.37429C70.9017 6.56179 70.6546 6.81534 70.4756 7.13494C70.2966 7.45028 70.205 7.80185 70.2007 8.18963V9.79403C70.2007 10.2798 70.2902 10.6996 70.4692 11.0533C70.6524 11.407 70.9102 11.6797 71.2426 11.8714C71.575 12.0632 71.9692 12.1591 72.4252 12.1591C72.7277 12.1591 73.0047 12.1165 73.2561 12.0312C73.5075 11.946 73.7227 11.8182 73.9017 11.6477C74.0807 11.4773 74.2171 11.2685 74.3108 11.0213L76.8293 11.1875C76.7014 11.7926 76.4394 12.321 76.0431 12.7727C75.651 13.2202 75.1439 13.5696 74.5218 13.821C73.9039 14.0682 73.1901 14.1918 72.3804 14.1918ZM85.6487 0.909091V14H82.8809V0.909091H85.6487ZM90.5977 8.32386V14H87.8747V4.18182H90.4699V5.91406H90.585C90.8023 5.34304 91.1666 4.89133 91.678 4.55895C92.1894 4.2223 92.8094 4.05398 93.5381 4.05398C94.2199 4.05398 94.8144 4.20312 95.3215 4.50142C95.8286 4.79972 96.2227 5.22585 96.504 5.77983C96.7852 6.32955 96.9259 6.9858 96.9259 7.74858V14H94.2029V8.23438C94.2071 7.63352 94.0537 7.16477 93.7426 6.82812C93.4316 6.48722 93.0033 6.31676 92.4578 6.31676C92.0914 6.31676 91.7675 6.3956 91.4862 6.55327C91.2093 6.71094 90.9919 6.94105 90.8343 7.24361C90.6808 7.5419 90.602 7.90199 90.5977 8.32386ZM101.795 8.32386V14H99.072V4.18182H101.667V5.91406H101.782C102 5.34304 102.364 4.89133 102.875 4.55895C103.387 4.2223 104.007 4.05398 104.735 4.05398C105.417 4.05398 106.012 4.20312 106.519 4.50142C107.026 4.79972 107.42 5.22585 107.701 5.77983C107.983 6.32955 108.123 6.9858 108.123 7.74858V14H105.4V8.23438C105.404 7.63352 105.251 7.16477 104.94 6.82812C104.629 6.48722 104.201 6.31676 103.655 6.31676C103.289 6.31676 102.965 6.3956 102.684 6.55327C102.407 6.71094 102.189 6.94105 102.032 7.24361C101.878 7.5419 101.799 7.90199 101.795 8.32386ZM114.705 14.1918C113.712 14.1918 112.854 13.9808 112.129 13.5589C111.409 13.1328 110.853 12.5405 110.461 11.782C110.069 11.0192 109.873 10.1349 109.873 9.12926C109.873 8.11506 110.069 7.22869 110.461 6.47017C110.853 5.70739 111.409 5.11506 112.129 4.69318C112.854 4.26705 113.712 4.05398 114.705 4.05398C115.698 4.05398 116.555 4.26705 117.275 4.69318C117.999 5.11506 118.558 5.70739 118.95 6.47017C119.342 7.22869 119.538 8.11506 119.538 9.12926C119.538 10.1349 119.342 11.0192 118.95 11.782C118.558 12.5405 117.999 13.1328 117.275 13.5589C116.555 13.9808 115.698 14.1918 114.705 14.1918ZM114.718 12.0824C115.17 12.0824 115.547 11.9545 115.85 11.6989C116.152 11.4389 116.38 11.0852 116.533 10.6378C116.691 10.1903 116.77 9.68111 116.77 9.11009C116.77 8.53906 116.691 8.02983 116.533 7.58239C116.38 7.13494 116.152 6.78125 115.85 6.52131C115.547 6.26136 115.17 6.13139 114.718 6.13139C114.262 6.13139 113.879 6.26136 113.568 6.52131C113.261 6.78125 113.028 7.13494 112.871 7.58239C112.717 8.02983 112.641 8.53906 112.641 9.11009C112.641 9.68111 112.717 10.1903 112.871 10.6378C113.028 11.0852 113.261 11.4389 113.568 11.6989C113.879 11.9545 114.262 12.0824 114.718 12.0824ZM130.145 4.18182L126.713 14H123.645L120.212 4.18182H123.089L125.128 11.2067H125.23L127.263 4.18182H130.145ZM134.075 14.1854C133.448 14.1854 132.89 14.0767 132.4 13.8594C131.91 13.6378 131.522 13.3118 131.237 12.8814C130.956 12.4467 130.815 11.9055 130.815 11.2578C130.815 10.7124 130.915 10.2543 131.115 9.88352C131.316 9.51278 131.588 9.21449 131.934 8.98864C132.279 8.76278 132.671 8.59233 133.11 8.47727C133.553 8.36222 134.017 8.28125 134.503 8.23438C135.074 8.17472 135.534 8.11932 135.884 8.06818C136.233 8.01278 136.487 7.93182 136.644 7.82528C136.802 7.71875 136.881 7.56108 136.881 7.35227V7.31392C136.881 6.90909 136.753 6.59588 136.497 6.37429C136.246 6.1527 135.888 6.0419 135.424 6.0419C134.934 6.0419 134.544 6.15057 134.254 6.3679C133.964 6.58097 133.772 6.84943 133.679 7.1733L131.16 6.96875C131.288 6.37216 131.539 5.85653 131.914 5.42188C132.289 4.98295 132.773 4.64631 133.365 4.41193C133.962 4.1733 134.652 4.05398 135.436 4.05398C135.982 4.05398 136.504 4.1179 137.002 4.24574C137.505 4.37358 137.951 4.57173 138.338 4.8402C138.73 5.10866 139.039 5.45384 139.265 5.87571C139.491 6.29332 139.604 6.79403 139.604 7.37784V14H137.022V12.6385H136.945C136.787 12.9453 136.576 13.2159 136.312 13.4503C136.048 13.6804 135.73 13.8615 135.36 13.9936C134.989 14.1214 134.561 14.1854 134.075 14.1854ZM134.855 12.3061C135.255 12.3061 135.609 12.2273 135.916 12.0696C136.223 11.9077 136.463 11.6903 136.638 11.4176C136.813 11.1449 136.9 10.8359 136.9 10.4908V9.44886C136.815 9.50426 136.698 9.5554 136.549 9.60227C136.404 9.64489 136.24 9.68537 136.056 9.72372C135.873 9.75781 135.69 9.78977 135.507 9.8196C135.323 9.84517 135.157 9.86861 135.008 9.88991C134.688 9.93679 134.409 10.0114 134.171 10.1136C133.932 10.2159 133.747 10.3544 133.615 10.5291C133.483 10.6996 133.416 10.9126 133.416 11.1683C133.416 11.5391 133.551 11.8224 133.819 12.0185C134.092 12.2102 134.437 12.3061 134.855 12.3061ZM146.939 4.18182V6.22727H141.026V4.18182H146.939ZM142.369 1.82955H145.092V10.983C145.092 11.2344 145.13 11.4304 145.207 11.571C145.283 11.7074 145.39 11.8033 145.526 11.8587C145.667 11.9141 145.829 11.9418 146.012 11.9418C146.14 11.9418 146.268 11.9311 146.396 11.9098C146.523 11.8842 146.621 11.8651 146.69 11.8523L147.118 13.8786C146.981 13.9212 146.79 13.9702 146.543 14.0256C146.295 14.0852 145.995 14.1214 145.641 14.1342C144.985 14.1598 144.41 14.0724 143.915 13.8722C143.425 13.6719 143.044 13.3608 142.771 12.9389C142.498 12.517 142.364 11.9844 142.369 11.3409V1.82955ZM148.713 14V4.18182H151.436V14H148.713ZM150.081 2.91619C149.676 2.91619 149.328 2.78196 149.039 2.51349C148.753 2.24077 148.61 1.91477 148.61 1.53551C148.61 1.16051 148.753 0.838778 149.039 0.570312C149.328 0.297585 149.676 0.161221 150.081 0.161221C150.485 0.161221 150.831 0.297585 151.116 0.570312C151.406 0.838778 151.551 1.16051 151.551 1.53551C151.551 1.91477 151.406 2.24077 151.116 2.51349C150.831 2.78196 150.485 2.91619 150.081 2.91619ZM158.053 14.1918C157.06 14.1918 156.201 13.9808 155.477 13.5589C154.757 13.1328 154.201 12.5405 153.809 11.782C153.417 11.0192 153.221 10.1349 153.221 9.12926C153.221 8.11506 153.417 7.22869 153.809 6.47017C154.201 5.70739 154.757 5.11506 155.477 4.69318C156.201 4.26705 157.06 4.05398 158.053 4.05398C159.046 4.05398 159.902 4.26705 160.623 4.69318C161.347 5.11506 161.905 5.70739 162.297 6.47017C162.689 7.22869 162.885 8.11506 162.885 9.12926C162.885 10.1349 162.689 11.0192 162.297 11.782C161.905 12.5405 161.347 13.1328 160.623 13.5589C159.902 13.9808 159.046 14.1918 158.053 14.1918ZM158.066 12.0824C158.517 12.0824 158.895 11.9545 159.197 11.6989C159.5 11.4389 159.728 11.0852 159.881 10.6378C160.039 10.1903 160.118 9.68111 160.118 9.11009C160.118 8.53906 160.039 8.02983 159.881 7.58239C159.728 7.13494 159.5 6.78125 159.197 6.52131C158.895 6.26136 158.517 6.13139 158.066 6.13139C157.61 6.13139 157.226 6.26136 156.915 6.52131C156.608 6.78125 156.376 7.13494 156.218 7.58239C156.065 8.02983 155.988 8.53906 155.988 9.11009C155.988 9.68111 156.065 10.1903 156.218 10.6378C156.376 11.0852 156.608 11.4389 156.915 11.6989C157.226 11.9545 157.61 12.0824 158.066 12.0824ZM167.379 8.32386V14H164.656V4.18182H167.251V5.91406H167.366C167.584 5.34304 167.948 4.89133 168.459 4.55895C168.971 4.2223 169.591 4.05398 170.319 4.05398C171.001 4.05398 171.596 4.20312 172.103 4.50142C172.61 4.79972 173.004 5.22585 173.285 5.77983C173.566 6.32955 173.707 6.9858 173.707 7.74858V14H170.984V8.23438C170.988 7.63352 170.835 7.16477 170.524 6.82812C170.213 6.48722 169.785 6.31676 169.239 6.31676C168.873 6.31676 168.549 6.3956 168.267 6.55327C167.991 6.71094 167.773 6.94105 167.616 7.24361C167.462 7.5419 167.383 7.90199 167.379 8.32386ZM184.022 6.98153L181.529 7.13494C181.487 6.92187 181.395 6.73011 181.255 6.55966C181.114 6.38494 180.929 6.24645 180.698 6.14418C180.473 6.03764 180.202 5.98438 179.887 5.98438C179.465 5.98438 179.109 6.07386 178.819 6.25284C178.529 6.42756 178.384 6.66193 178.384 6.95597C178.384 7.19034 178.478 7.38849 178.666 7.55043C178.853 7.71236 179.175 7.84233 179.631 7.94034L181.408 8.2983C182.362 8.49432 183.074 8.80966 183.543 9.24432C184.012 9.67898 184.246 10.25 184.246 10.9574C184.246 11.6009 184.056 12.1655 183.677 12.6513C183.302 13.1371 182.786 13.5163 182.13 13.7891C181.478 14.0575 180.726 14.1918 179.874 14.1918C178.574 14.1918 177.539 13.9212 176.767 13.38C176 12.8345 175.551 12.093 175.419 11.1555L178.097 11.0149C178.178 11.4112 178.374 11.7138 178.685 11.9226C178.996 12.1271 179.394 12.2294 179.88 12.2294C180.358 12.2294 180.741 12.1378 181.031 11.9545C181.325 11.767 181.474 11.5263 181.478 11.2322C181.474 10.9851 181.37 10.7827 181.165 10.625C180.96 10.4631 180.645 10.3395 180.219 10.2543L178.519 9.91548C177.56 9.72372 176.846 9.39134 176.377 8.91832C175.913 8.44531 175.681 7.84233 175.681 7.10938C175.681 6.47869 175.851 5.93537 176.192 5.4794C176.537 5.02344 177.021 4.67188 177.643 4.42472C178.269 4.17756 179.002 4.05398 179.842 4.05398C181.082 4.05398 182.058 4.31605 182.769 4.8402C183.485 5.36435 183.903 6.07812 184.022 6.98153Z" fill="#E3E3E6"/>
</svg>
